<svg width="216" height="240" viewBox="0 0 216 240" fill="none" xmlns="http://www.w3.org/2000/svg">
<path d="M88.1333 33.9638C88.1333 33.9638 78.5353 40.9305 77.8576 49.0684C77.1799 57.2063 87.0417 63.558 87.0417 63.558L111.283 52.3974L88.1333 33.9638Z" fill="#FBC73B"/>
<path d="M138.132 86.2844C138.132 67.8054 123.152 52.8254 104.673 52.8254C86.1938 52.8254 71.2139 67.8054 71.2139 86.2844H138.132Z" fill="#0768C1"/>
<path d="M108.339 59.0127L107.741 42.0733C107.741 42.0733 114.285 38.7049 113.091 34.0093C111.898 29.3137 107.105 31.4205 107.105 31.4205C107.105 31.4205 104.803 24.9838 97.8588 24.5017C90.9146 24.0197 87.1321 32.013 87.651 37.5451C88.4222 45.7028 92.4318 49.5194 100.592 47.6565L100.309 57.1469" fill="#F96155"/>
<path fill-rule="evenodd" clip-rule="evenodd" d="M90.615 40.9346L91.9619 37.257L92.7606 37.5496L91.4138 41.2271L90.615 40.9346Z" fill="#001A39"/>
<path fill-rule="evenodd" clip-rule="evenodd" d="M93.7728 35.7134L97.6857 35.8666L97.6524 36.7166L93.7395 36.5634L93.7728 35.7134Z" fill="#001A39"/>
<path fill-rule="evenodd" clip-rule="evenodd" d="M91.3844 36.5397L89.0141 36.7383L88.9431 35.8906L91.3134 35.692L91.3844 36.5397Z" fill="#001A39"/>
<path d="M108.127 53.0013C100.408 51.9663 103.919 30.3881 103.919 30.3881C96.4753 34.7349 88.1333 32.7927 88.1333 32.7927C88.1333 32.7927 90.2486 21.1387 102.878 22.5564C115.507 23.9742 118.292 32.0526 118.292 32.0526C118.292 32.0526 131.794 35.3191 131.979 46.2301C132.163 57.1411 124.039 59.007 124.039 59.007C124.039 59.007 116.576 54.1355 108.127 53.0013Z" fill="#FBC73B"/>
<path d="M127.107 106.544C113.236 98.4884 96.1094 98.4884 82.2381 106.544C67.5587 115.07 47.6195 126.747 27.9922 138.268C6.10776 151.112 13.6785 184.486 38.9627 186.633L93.2824 191.241L100.607 219.516C101.693 223.713 107.653 223.713 108.739 219.516L116.066 191.241L170.383 186.633C195.67 184.486 203.238 151.112 181.353 138.268C161.726 126.747 141.787 115.073 127.107 106.544ZM60.6573 156.517L92.1314 144.693C100.213 141.656 109.122 141.656 117.203 144.693L148.677 156.517H60.6573Z" fill="#F96155"/>
<path fill-rule="evenodd" clip-rule="evenodd" d="M105.098 156.517V222.667H104.248V156.517H105.098Z" fill="white"/>
<path d="M59.8718 131.959C67.0519 131.959 72.8727 126.138 72.8727 118.958C72.8727 111.778 67.0519 105.957 59.8718 105.957C52.6916 105.957 46.8711 111.778 46.8711 118.958C46.8711 126.138 52.6916 131.959 59.8718 131.959Z" fill="#FBC73B"/>
<path d="M182.467 239.575C173.229 239.575 165.738 232.083 165.738 222.845C165.738 213.607 173.229 206.116 182.467 206.116C191.705 206.116 199.197 213.607 199.197 222.845C199.183 232.078 191.7 239.561 182.467 239.575Z" fill="white"/>
<path d="M182.468 206.53C191.476 206.53 198.778 213.831 198.778 222.84C198.778 231.848 191.476 239.149 182.468 239.149C173.46 239.149 166.158 231.848 166.158 222.84V222.837C166.167 213.837 173.465 206.541 182.468 206.53ZM182.468 205.679C172.992 205.676 165.308 213.36 165.305 222.837C165.302 232.313 172.983 239.997 182.462 240C191.939 240.003 199.623 232.319 199.626 222.842C199.626 222.84 199.626 222.839 199.626 222.837C199.626 213.363 191.944 205.679 182.468 205.679Z" fill="#001A39"/>
<path d="M74.9512 235.103C79.0651 235.103 82.4 231.768 82.4 227.654C82.4 223.54 79.0651 220.206 74.9512 220.206C70.8373 220.206 67.5022 223.54 67.5022 227.654C67.5022 231.768 70.8373 235.103 74.9512 235.103Z" fill="#BFBFBF"/>
<path d="M46.8737 171.642L0 180.264L34.3948 214.741L46.8737 171.642Z" fill="#0768C1"/>
<path d="M215.76 154.084L201.299 145.578L183.424 100.505L197.885 109.011L215.76 154.084Z" fill="#BFBFBF"/>
<path d="M175.203 155.927L189.664 164.434L215.759 154.084L201.298 145.578L175.203 155.927Z" fill="#0768C1"/>
<path fill-rule="evenodd" clip-rule="evenodd" d="M127.156 0L141.634 25.0801L140.897 25.5054L126.419 0.425281L127.156 0Z" fill="#001A39"/>
<path d="M183.19 101.15L157.886 111.184L175.445 155.467L200.749 145.433L183.19 101.15Z" fill="white"/>
<path d="M182.947 101.607L200.195 145.098L175.682 154.821L158.434 111.33L182.947 101.607ZM183.423 100.505L157.336 110.854L175.2 155.939L201.287 145.589L183.423 100.505Z" fill="#001A39"/>
<path fill-rule="evenodd" clip-rule="evenodd" d="M34.6343 12.4777C34.8019 15.2804 35.1421 18.512 35.5194 21.4241L34.7227 21.6796C33.6636 19.7026 32.0159 16.8875 30.513 14.8556C29.755 13.8309 29.0621 13.0448 28.52 12.6522C28.2412 12.4503 28.0705 12.4033 27.9911 12.406C27.9902 12.4061 27.9893 12.4061 27.9883 12.4061C27.9663 12.4064 27.9071 12.4073 27.8295 12.5797C27.6266 13.0304 27.5911 13.7949 27.7293 14.8182C27.8647 15.8207 28.1553 16.9969 28.5289 18.2176C29.2755 20.6574 30.338 23.2262 31.0884 24.8442L31.1393 24.954L31.1248 25.0742C27.442 55.5283 28.5774 69.9561 29.1404 75.0229C29.3489 76.8993 30.5926 78.4365 32.1401 79.6117C33.6809 80.7819 35.465 81.5474 36.63 81.8908C45.9686 84.3642 61.0139 83.9553 67.3878 83.436L67.4569 84.2838C61.0723 84.804 45.896 85.2268 36.4063 82.7115L36.4008 82.71L36.3953 82.7084C35.15 82.3422 33.2653 81.5345 31.6256 80.2892C29.9902 79.0471 28.5402 77.3235 28.295 75.1168C27.7245 69.9825 26.5938 55.5194 30.2658 25.092C29.5074 23.4444 28.4596 20.8984 27.7154 18.4665C27.3352 17.2238 27.0303 15.9986 26.8863 14.9321C26.7451 13.8864 26.7462 12.9141 27.0538 12.2306C27.2278 11.8439 27.531 11.5707 27.9618 11.5559C28.3327 11.5431 28.6983 11.731 29.019 11.9632C29.6757 12.4389 30.4343 13.3188 31.1969 14.3498C32.2889 15.8261 33.4472 17.6937 34.4093 19.3659C34.1414 17.0616 33.9134 14.6732 33.7852 12.5285C33.7006 11.1145 33.6591 9.8015 33.6788 8.68578C33.6984 7.57823 33.7783 6.63609 33.9486 5.97888C34.0324 5.65554 34.1495 5.35373 34.3284 5.1373C34.4216 5.02461 34.5418 4.92261 34.6945 4.86186C34.8516 4.7994 35.0165 4.79128 35.1763 4.82799C35.4737 4.89634 35.7358 5.1147 35.967 5.37785C36.2078 5.65208 36.4639 6.03208 36.7384 6.51718C37.7799 8.35726 39.2143 11.9408 41.1601 17.8836C41.7765 16.9216 42.7069 15.8069 43.9106 14.9134C45.5016 13.7325 47.5939 12.9233 50.0655 13.4056C54.9232 14.3534 56.116 17.9649 56.0811 19.7532C56.1191 20.044 56.1037 20.4049 55.9731 20.7444C56.0908 20.7499 56.1969 20.7611 56.2868 20.775C56.7363 20.8441 57.2514 21.184 57.6448 21.7148C58.0495 22.2607 58.3487 23.0353 58.3487 24.0309C58.3487 24.278 58.3565 24.5373 58.3645 24.8065C58.3913 25.7048 58.4214 26.7126 58.1779 27.7439C57.852 29.1238 57.0485 30.5495 55.2118 32.0188C53.7061 33.2235 51.7608 33.7591 49.9767 33.9526C48.462 34.117 47.0295 34.0384 46.0143 33.891V61.4756L71.4084 62.4523L71.3757 63.3023L45.1636 62.2941V32.8717L45.6704 32.9706C46.6002 33.152 48.1877 33.2911 49.885 33.107C51.5861 32.9224 53.3507 32.4184 54.6804 31.3546C56.3882 29.9884 57.0733 28.7204 57.35 27.5484C57.5653 26.6366 57.5404 25.7826 57.5149 24.9061C57.5065 24.6178 57.4981 24.327 57.4981 24.0309C57.4981 23.2117 57.2539 22.6158 56.9615 22.2213C56.6578 21.8117 56.3223 21.6411 56.1574 21.6157C55.8966 21.5756 55.4499 21.5693 55.052 21.7193C54.6781 21.8603 54.3473 22.1348 54.2281 22.7007C53.9362 24.0876 53.5366 24.9328 53.119 25.4771C52.7405 25.9704 52.3602 26.1947 52.1253 26.3331C52.0975 26.3495 52.0717 26.3647 52.0482 26.379C50.6622 27.2227 49.4753 27.3557 48.5272 27.1704C47.5908 26.9873 46.9353 26.5032 46.5835 26.1929C46.0827 25.7509 45.6217 24.8264 45.5189 23.7905C45.4136 22.7294 45.678 21.4973 46.706 20.4693C47.457 19.7182 48.391 19.5238 49.3177 19.6019C50.2306 19.6788 51.1691 20.0213 51.9962 20.3798C53.674 21.1069 54.4957 21.0199 54.859 20.812C55.1902 20.6225 55.2927 20.2295 55.2344 19.8407L55.2288 19.8031L55.2299 19.7651C55.2722 18.3265 54.3116 15.1008 49.9026 14.2405C47.7239 13.8154 45.8701 14.5184 44.4176 15.5965C42.9577 16.6801 41.9275 18.1273 41.4326 19.1171L40.9673 20.0476L40.6474 19.0577C38.5485 12.5623 37.044 8.78414 35.9981 6.93618C35.7378 6.47618 35.5146 6.1519 35.3278 5.93922C35.1542 5.74151 35.0449 5.67854 35.0001 5.66156C34.9957 5.66588 34.9904 5.67167 34.9841 5.67931C34.9242 5.7517 34.8454 5.90922 34.7721 6.19226C34.6281 6.74782 34.5486 7.60667 34.5293 8.70079C34.5102 9.78676 34.5505 11.0761 34.6343 12.4777ZM53.6892 21.7763C53.1216 21.7019 52.4488 21.503 51.658 21.1603C50.8493 20.8098 50.0156 20.5144 49.2462 20.4495C48.4907 20.3859 47.8324 20.5458 47.3075 21.0708C46.4891 21.8891 46.2809 22.8545 46.3654 23.7065C46.4525 24.5838 46.8439 25.2881 47.1464 25.555C47.4373 25.8117 47.9586 26.1925 48.6904 26.3355C49.4105 26.4763 50.3833 26.3966 51.6059 25.6524C51.6341 25.6353 51.6627 25.6183 51.6919 25.601C51.9157 25.4682 52.169 25.3179 52.4441 24.9593C52.7607 24.5467 53.1206 23.8323 53.3957 22.5255C53.4572 22.2336 53.559 21.9857 53.6892 21.7763Z" fill="black"/>
<path fill-rule="evenodd" clip-rule="evenodd" d="M174.847 12.4777C174.679 15.2804 174.339 18.512 173.962 21.4242L174.758 21.6797C175.817 19.7026 177.465 16.8875 178.968 14.8556C179.726 13.8309 180.419 13.0449 180.961 12.6522C181.24 12.4503 181.41 12.4033 181.49 12.4061C181.491 12.4061 181.492 12.4061 181.493 12.4061C181.515 12.4064 181.574 12.4073 181.651 12.5797C181.854 13.0305 181.89 13.7949 181.752 14.8183C181.616 15.8207 181.326 16.9969 180.952 18.2176C180.205 20.6574 179.143 23.2262 178.393 24.8442L178.342 24.9541L178.356 25.0743C182.039 55.5283 180.904 69.9561 180.341 75.0229C180.132 76.8993 178.888 78.4365 177.341 79.6118C175.8 80.7819 174.016 81.5474 172.851 81.8908C163.512 84.3643 148.467 83.9554 142.093 83.436L142.024 84.2839C148.409 84.8041 163.585 85.2268 173.075 82.7115L173.08 82.7101L173.086 82.7084C174.331 82.3422 176.216 81.5345 177.855 80.2892C179.491 79.0472 180.941 77.3236 181.186 75.1168C181.756 69.9825 182.887 55.5194 179.215 25.092C179.974 23.4444 181.021 20.8985 181.766 18.4665C182.146 17.2238 182.451 15.9987 182.595 14.9321C182.736 13.8864 182.735 12.9141 182.427 12.2307C182.253 11.8439 181.95 11.5707 181.519 11.5559C181.148 11.5431 180.783 11.731 180.462 11.9633C179.805 12.439 179.047 13.3188 178.284 14.3498C177.192 15.8261 176.034 17.6937 175.072 19.3659C175.34 17.0616 175.568 14.6732 175.696 12.5285C175.78 11.1145 175.822 9.80153 175.802 8.68581C175.783 7.57826 175.703 6.63612 175.532 5.97891C175.449 5.65557 175.331 5.35376 175.153 5.13733C175.059 5.02465 174.939 4.92264 174.786 4.86189C174.629 4.79943 174.464 4.79132 174.305 4.82803C174.007 4.89637 173.745 5.11474 173.514 5.37788C173.273 5.65211 173.017 6.03211 172.743 6.51721C171.701 8.3573 170.267 11.9408 168.321 17.8836C167.704 16.9217 166.774 15.8069 165.57 14.9134C163.979 13.7326 161.887 12.9234 159.415 13.4056C154.558 14.3535 153.365 17.9649 153.4 19.7532C153.362 20.044 153.377 20.4049 153.508 20.7444C153.39 20.7499 153.284 20.7612 153.194 20.775C152.745 20.8442 152.23 21.184 151.836 21.7148C151.431 22.2607 151.132 23.0354 151.132 24.0309C151.132 24.2781 151.124 24.5374 151.116 24.8065C151.09 25.7049 151.06 26.7126 151.303 27.7439C151.629 29.1238 152.432 30.5496 154.269 32.0189C155.775 33.2235 157.72 33.7591 159.504 33.9527C161.019 34.117 162.451 34.0384 163.467 33.891V61.4756L138.073 62.4523L138.105 63.3023L164.317 62.2942V32.8717L163.811 32.9706C162.881 33.152 161.293 33.2911 159.596 33.107C157.895 32.9225 156.13 32.4184 154.801 31.3546C153.093 29.9884 152.408 28.7204 152.131 27.5484C151.916 26.6367 151.941 25.7827 151.966 24.9062C151.974 24.6178 151.983 24.327 151.983 24.0309C151.983 23.2117 152.227 22.6159 152.52 22.2213C152.823 21.8117 153.159 21.6411 153.324 21.6158C153.584 21.5756 154.031 21.5693 154.429 21.7194C154.803 21.8603 155.134 22.1348 155.253 22.7008C155.545 24.0876 155.944 24.9328 156.362 25.4771C156.74 25.9705 157.121 26.1947 157.356 26.3332C157.383 26.3496 157.409 26.3648 157.433 26.3791C158.819 27.2227 160.006 27.3557 160.954 27.1704C161.89 26.9874 162.546 26.5033 162.897 26.1929C163.398 25.7509 163.859 24.8264 163.962 23.7906C164.067 22.7294 163.803 21.4973 162.775 20.4693C162.024 19.7183 161.09 19.5238 160.163 19.6019C159.25 19.6789 158.312 20.0214 157.485 20.3798C155.807 21.1069 154.985 21.0199 154.622 20.812C154.291 20.6226 154.188 20.2295 154.247 19.8407L154.252 19.8031L154.251 19.7651C154.209 18.3266 155.169 15.1008 159.578 14.2405C161.757 13.8154 163.611 14.5185 165.063 15.5965C166.523 16.6801 167.553 18.1273 168.048 19.1171L168.514 20.0476L168.834 19.0577C170.932 12.5623 172.437 8.78417 173.483 6.93621C173.743 6.47621 173.966 6.15193 174.153 5.93925C174.327 5.74154 174.436 5.67857 174.481 5.66159C174.485 5.66591 174.491 5.6717 174.497 5.67934C174.557 5.75173 174.636 5.90925 174.709 6.19229C174.853 6.74785 174.932 7.6067 174.952 8.70082C174.971 9.78679 174.93 11.0762 174.847 12.4777ZM155.792 21.7763C156.359 21.7019 157.032 21.503 157.823 21.1603C158.632 20.8099 159.465 20.5144 160.235 20.4496C160.99 20.3859 161.649 20.5459 162.173 21.0708C162.992 21.8891 163.2 22.8546 163.116 23.7066C163.028 24.5838 162.637 25.2881 162.335 25.555C162.044 25.8118 161.522 26.1925 160.791 26.3355C160.07 26.4763 159.098 26.3967 157.875 25.6524C157.847 25.6353 157.818 25.6183 157.789 25.601C157.565 25.4682 157.312 25.3179 157.037 24.9594C156.72 24.5467 156.36 23.8324 156.085 22.5255C156.024 22.2336 155.922 21.9857 155.792 21.7763Z" fill="black"/>
</svg>
