<svg width="879" height="540" viewBox="0 0 879 540" fill="none" xmlns="http://www.w3.org/2000/svg">
<path d="M580.26 366.811L666.092 262.957L521.46 253.95L580.26 366.811Z" fill="#F96155"/>
<path fill-rule="evenodd" clip-rule="evenodd" d="M610.62 267.753L612.015 259.511L613.543 259.769L612.148 268.011L610.62 267.753Z" fill="#001A39"/>
<path fill-rule="evenodd" clip-rule="evenodd" d="M641.493 278.642L631.072 271.222L632.002 270.139L642.424 277.559L641.493 278.642Z" fill="#001A39"/>
<path fill-rule="evenodd" clip-rule="evenodd" d="M622.657 299.371L633.204 302.331L632.793 303.662L622.246 300.701L622.657 299.371Z" fill="#001A39"/>
<path fill-rule="evenodd" clip-rule="evenodd" d="M598.554 295.157L609.745 288.828L610.598 290.017L599.407 296.346L598.554 295.157Z" fill="#001A39"/>
<path fill-rule="evenodd" clip-rule="evenodd" d="M576.345 301.674L573.708 291.632L575.211 291.356L577.848 301.398L576.345 301.674Z" fill="#001A39"/>
<path fill-rule="evenodd" clip-rule="evenodd" d="M571.078 269.478L584.304 270.601L584.213 271.989L570.987 270.866L571.078 269.478Z" fill="#001A39"/>
<path fill-rule="evenodd" clip-rule="evenodd" d="M553.304 261.389L551.865 249.998L553.401 249.888L554.839 261.28L553.304 261.389Z" fill="#001A39"/>
<path fill-rule="evenodd" clip-rule="evenodd" d="M535.021 278.915L541.574 277.924L541.881 279.3L535.328 280.291L535.021 278.915Z" fill="#001A39"/>
<path fill-rule="evenodd" clip-rule="evenodd" d="M551.213 311.707L554.838 306.767L556.136 307.565L552.511 312.505L551.213 311.707Z" fill="#001A39"/>
<path fill-rule="evenodd" clip-rule="evenodd" d="M584.758 330.721L573.268 324.094L574.067 322.926L585.558 329.554L584.758 330.721Z" fill="#001A39"/>
<path fill-rule="evenodd" clip-rule="evenodd" d="M611.032 329.123L605.694 321.117L607.011 320.43L612.349 328.436L611.032 329.123Z" fill="#001A39"/>
<path fill-rule="evenodd" clip-rule="evenodd" d="M587.526 357.372L585.026 351.348L586.471 350.9L588.972 356.923L587.526 357.372Z" fill="#001A39"/>
<path d="M187.48 27.9939L201.609 55.3487L234.727 60.4137L210.099 80.9241L214.969 110.758L185.621 96.0774L155.504 109.447L161.996 79.8628L138.52 58.2959L171.88 54.6953L187.48 27.9939Z" fill="#FBC73B"/>
<path d="M287.529 439.512L171.006 491.177C171.006 491.177 151.305 489.569 140.487 472.812C130.525 457.371 136.515 441.94 136.515 441.94L241.15 392.434L219.59 341.307L174.203 377.073C159.583 388.593 137.109 386.415 125.573 372.36L63.2939 303.618C63.2939 303.618 75.0061 300.036 83.0414 283.437C90.4415 268.154 110.421 269.345 110.421 269.345L153.371 319.819L176.697 292.589C189.21 277.899 200.509 264.372 223.68 262.843C248.504 261.207 271.267 275.313 278.905 296.57L312.058 388.862C318.751 408.858 308.381 430.267 287.529 439.512Z" fill="#F96155"/>
<path d="M197.442 479.513C194.964 473.567 194.84 467.029 194.953 460.745C195.072 454.267 195.914 447.617 198.976 441.676C201.439 436.903 205.302 432.552 210.419 429.892C215.878 427.056 222.121 426.898 228.246 427.389C239.054 428.256 251.024 430.893 259.844 423.473C264.166 419.84 266.919 414.965 269.764 410.382C273.203 404.84 276.607 399.284 279.927 393.686C287.399 381.1 294.923 368.208 300.273 354.75C300.475 354.241 299.55 353.884 299.292 354.38C293.07 366.414 286.955 378.421 280.067 390.173C276.622 396.049 273.074 401.874 269.491 407.68C266.361 412.75 263.438 418.385 258.646 422.403C248.7 430.744 234.515 425.508 222.601 425.661C211.576 425.8 202.684 431.518 197.943 440.351C194.834 446.143 193.755 452.659 193.6 459.035C193.43 465.898 193.667 473.285 196.564 479.731C196.781 480.208 197.649 480.013 197.442 479.513Z" fill="#E4EDFA"/>
<path d="M313.623 396.457C302.737 402.449 292.621 410.035 283.987 418.483C275.833 426.462 268.495 436.565 268.319 447.761C268.309 448.345 269.388 448.511 269.492 447.904C270.473 442.047 272.177 436.555 275.368 431.333C278.219 426.662 281.875 422.422 285.892 418.515C294.196 410.433 303.719 403.019 314.016 397.059C314.434 396.814 314.052 396.221 313.623 396.457Z" fill="#E4EDFA"/>
<path d="M150.408 453.354C168.993 456.375 177.147 434.688 178.96 422.065C179.022 421.615 178.242 421.555 178.103 421.963C175.8 428.831 173.899 436.166 169.83 442.408C165.885 448.465 158.97 453.632 150.687 452.446C150.026 452.344 149.731 453.243 150.408 453.354Z" fill="#E4EDFA"/>
<path d="M236.507 381.98C245.596 383.078 254.003 380.539 258.207 372.832C262.312 365.298 261.75 356.266 259.317 348.379C256.482 339.18 250.915 331.209 245.188 323.281C239.425 315.296 234.122 306.023 239.652 296.741C245.044 287.696 255.888 282.181 264.419 275.842C265.08 275.35 264.234 274.451 263.526 274.804C259.137 276.982 255.181 279.985 251.292 282.816C247.817 285.351 244.398 288.006 241.542 291.12C235.939 297.219 233.719 304.568 236.538 312.214C239.673 320.727 246.588 327.683 251.277 335.496C256.394 344.013 260.056 353.546 259.209 363.347C258.811 367.971 257.19 372.842 253.642 376.322C249.216 380.659 242.885 381.461 236.657 380.979C236.022 380.924 235.867 381.901 236.507 381.98Z" fill="#E4EDFA"/>
<path d="M190.801 277.598C196.575 278.353 202.297 279.475 207.729 281.43C213.017 283.33 219.168 286.046 222.07 290.694C228.654 301.241 209.609 307.891 201.579 310.518C191.349 313.869 180.22 315.917 170.765 320.94C163.298 324.912 157.374 331.784 161.356 339.741C163.938 344.908 168.895 349.129 172.614 353.634C176.714 358.597 180.53 363.782 184.078 369.084C184.692 370.001 186.257 369.181 185.674 368.245C182.596 363.328 179.249 358.597 175.542 354.041C172.061 349.755 167.857 345.844 164.682 341.377C161.247 336.543 161.206 331.353 165.508 326.969C169.241 323.16 174.602 320.926 179.745 319.064C190.337 315.231 201.672 313.104 211.871 308.382C219.57 304.814 229.315 297.872 223.108 289.369C220.139 285.3 215.036 282.802 210.182 280.948C204.052 278.608 197.546 277.329 190.946 276.671C190.357 276.606 190.213 277.519 190.801 277.598Z" fill="#E4EDFA"/>
<path d="M138.127 302.015C134.021 305.944 130.845 310.653 129.337 315.894C127.685 321.645 127.948 327.618 128.615 333.471C129.291 339.402 130.417 345.357 130.164 351.34C129.88 358.036 127.458 364.102 122.707 369.292C122.216 369.825 123.006 370.58 123.569 370.066C127.953 366.062 130.912 361.312 131.914 355.733C132.942 350.005 132.224 344.152 131.372 338.448C130.474 332.419 129.415 326.316 130.024 320.217C130.68 313.614 133.944 307.562 138.881 302.687C139.34 302.237 138.602 301.561 138.127 302.015Z" fill="#E4EDFA"/>
<path d="M82.8349 287.89C87.0849 289.697 91.5622 291.597 94.6348 294.902C98.2599 298.799 99.0448 304.545 99.463 309.429C100.305 319.323 97.9862 328.786 94.1597 338.003C93.9118 338.601 94.9808 339.004 95.3113 338.439C100.759 329.036 102.67 317.845 101.286 307.367C100.692 302.867 99.7833 297.979 96.5661 294.332C93.2973 290.624 88.3347 288.553 83.6561 286.634C82.7162 286.245 81.8848 287.487 82.8349 287.89Z" fill="#E4EDFA"/>
<path d="M336.516 214.06C328.548 238.32 300.171 252.189 273.137 245.034C246.103 237.884 230.647 212.42 238.62 188.161" fill="#617FA8"/>
<path d="M280.182 153.155C271.604 161.714 272.379 174.884 281.917 182.581C290.345 189.384 302.801 189.63 311.497 183.684C312.638 182.901 313.712 182.021 314.709 181.024C323.286 172.47 322.512 159.295 312.974 151.598C308.011 147.594 301.665 145.861 295.499 146.324C289.813 146.755 284.293 149.054 280.182 153.155Z" fill="#FBC73B"/>
<path d="M295.497 146.324C291.908 158.266 295.755 171.552 306.709 180.394C308.227 181.622 309.833 182.716 311.496 183.684C312.637 182.901 313.711 182.021 314.708 181.024C323.286 172.47 322.511 159.295 312.973 151.598C308.01 147.594 301.663 145.861 295.497 146.324Z" fill="#0768C1"/>
<path d="M322.954 158.549C327.84 158.549 331.8 154.995 331.8 150.611C331.8 146.227 327.84 142.673 322.954 142.673C318.069 142.673 314.108 146.227 314.108 150.611C314.108 154.995 318.069 158.549 322.954 158.549Z" fill="#0768C1"/>
<path d="M357.048 171.663C370.957 171.663 382.233 161.545 382.233 149.063C382.233 136.581 370.957 126.463 357.048 126.463C343.138 126.463 331.862 136.581 331.862 149.063C331.862 161.545 343.138 171.663 357.048 171.663Z" fill="#0768C1"/>
<path d="M284.314 158.183C285.732 156.915 286.15 155.228 285.248 154.416C284.346 153.604 282.465 153.974 281.047 155.242C279.629 156.51 279.211 158.197 280.113 159.009C281.015 159.821 282.895 159.451 284.314 158.183Z" fill="#001A39"/>
<path d="M289.565 163.23C290.983 161.962 291.401 160.275 290.499 159.463C289.598 158.651 287.717 159.021 286.299 160.289C284.881 161.557 284.463 163.244 285.364 164.056C286.266 164.868 288.147 164.498 289.565 163.23Z" fill="#001A39"/>
<path fill-rule="evenodd" clip-rule="evenodd" d="M275.815 162.509C275.815 162.509 275.815 162.509 276.354 161.719C276.894 160.929 276.894 160.928 276.894 160.928L276.893 160.928L276.892 160.927L276.891 160.927C276.893 160.928 276.899 160.931 276.906 160.935C276.922 160.943 276.949 160.957 276.987 160.975C277.062 161.01 277.177 161.062 277.324 161.119C277.62 161.234 278.029 161.362 278.488 161.429C279.386 161.559 280.408 161.452 281.276 160.572L282.823 161.8C281.347 163.296 279.522 163.456 278.158 163.259C277.486 163.161 276.911 162.977 276.506 162.821C276.302 162.742 276.137 162.668 276.019 162.612C275.96 162.584 275.913 162.561 275.879 162.543C275.862 162.534 275.848 162.527 275.837 162.521L275.823 162.514L275.818 162.511L275.816 162.51L275.815 162.509ZM276.891 160.927L276.891 160.927C276.89 160.926 276.89 160.926 276.891 160.927Z" fill="#001A39"/>
<path d="M169.11 492.566C176.34 488.847 174.94 474.463 165.982 460.439C157.023 446.414 143.9 438.06 136.67 441.779C129.439 445.498 130.84 459.882 139.798 473.906C148.756 487.931 161.88 496.285 169.11 492.566Z" fill="#001A39"/>
<path d="M96.4752 297.328C109.553 287.992 115.948 275.68 110.759 269.827C105.571 263.974 90.7631 266.798 77.6857 276.134C64.6082 285.47 58.2131 297.783 63.4017 303.635C68.5902 309.488 83.3978 306.664 96.4752 297.328Z" fill="#001A39"/>
<path d="M163.477 468.892L137.249 479.8L145.351 536.929L102.489 471.862L152.224 451.254" fill="#FBC73B"/>
<path fill-rule="evenodd" clip-rule="evenodd" d="M144.483 491.571L128.521 484.662L129.195 483.41L145.157 490.319L144.483 491.571Z" fill="#001A39"/>
<path fill-rule="evenodd" clip-rule="evenodd" d="M145.904 498.921L129.942 492.007L130.616 490.755L146.577 497.669L145.904 498.921Z" fill="#001A39"/>
<path fill-rule="evenodd" clip-rule="evenodd" d="M147.318 506.266L131.357 499.357L132.03 498.104L147.992 505.014L147.318 506.266Z" fill="#001A39"/>
<path d="M81.8694 297.274L67.7146 275.309L5.32227 288.803L72.6877 243.431L100.171 285.3" fill="#FBC73B"/>
<path fill-rule="evenodd" clip-rule="evenodd" d="M55.4688 283.052L61.3715 268.057L62.8324 268.52L56.9296 283.515L55.4688 283.052Z" fill="#001A39"/>
<path fill-rule="evenodd" clip-rule="evenodd" d="M47.4834 285.124L53.387 270.128L54.848 270.591L48.9444 285.587L47.4834 285.124Z" fill="#001A39"/>
<path fill-rule="evenodd" clip-rule="evenodd" d="M39.501 287.195L45.403 272.199L46.8636 272.662L40.9616 287.658L39.501 287.195Z" fill="#001A39"/>
<path d="M144.461 537.431C147.22 536.011 140.038 520.115 128.419 501.925C116.801 483.735 105.145 470.14 102.386 471.559C99.6272 472.978 106.809 488.874 118.428 507.064C130.047 525.254 141.702 538.85 144.461 537.431Z" fill="#001A39"/>
<path d="M41.1461 269.302C59.8926 256.785 73.6802 244.934 71.9416 242.831C70.2029 240.728 53.5964 249.17 34.8499 261.687C16.1034 274.203 2.3157 286.055 4.05436 288.157C5.79302 290.26 22.3996 281.818 41.1461 269.302Z" fill="#001A39"/>
<path fill-rule="evenodd" clip-rule="evenodd" d="M214.949 327.716L225.659 357.926L223.198 358.628L212.488 328.419L214.949 327.716Z" fill="#001A39"/>
<path fill-rule="evenodd" clip-rule="evenodd" d="M306.976 248.993C306.975 248.992 306.975 248.992 307.917 248.612C308.859 248.232 308.859 248.232 308.86 248.233L308.886 248.285C308.903 248.32 308.93 248.373 308.965 248.443C309.036 248.582 309.141 248.79 309.279 249.061C309.555 249.603 309.964 250.4 310.492 251.417C311.549 253.449 313.083 256.359 314.992 259.865C318.811 266.877 324.129 276.268 330.127 285.791C336.129 295.319 342.796 304.954 349.311 312.466C352.569 316.222 355.77 319.426 358.813 321.816C361.871 324.219 364.689 325.734 367.175 326.227C369.744 326.735 373.307 326.736 377.658 326.282C381.992 325.831 387.034 324.938 392.525 323.705C403.507 321.241 416.218 317.436 428.534 313.158C440.85 308.881 452.746 304.139 462.099 299.809C466.776 297.644 470.802 295.588 473.921 293.751C477.074 291.893 479.192 290.32 480.165 289.134L481.828 290.233C480.619 291.708 478.221 293.435 475.055 295.3C471.855 297.185 467.76 299.274 463.046 301.457C453.615 305.823 441.649 310.591 429.28 314.887C416.911 319.183 404.115 323.015 393.026 325.504C387.482 326.748 382.348 327.66 377.896 328.123C373.463 328.585 369.632 328.611 366.73 328.037C363.746 327.446 360.615 325.695 357.452 323.211C354.275 320.715 350.983 317.412 347.681 313.604C341.075 305.988 334.351 296.263 328.329 286.703C322.304 277.138 316.966 267.711 313.136 260.678C311.22 257.161 309.681 254.241 308.62 252.2C308.09 251.179 307.679 250.378 307.4 249.832C307.261 249.559 307.155 249.349 307.084 249.208C307.048 249.137 307.021 249.083 307.003 249.047L306.976 248.993Z" fill="#E4EDFA"/>
<path fill-rule="evenodd" clip-rule="evenodd" d="M378.791 297.571L337.438 221.99L339.292 221.173L380.213 295.963C380.213 295.963 380.214 295.963 380.214 295.962C380.806 295.735 381.676 295.401 382.789 294.977C385.015 294.13 388.216 292.922 392.116 291.479C399.913 288.595 410.508 284.77 421.689 281.013C432.867 277.256 444.647 273.562 454.813 270.941C459.895 269.631 464.59 268.585 468.613 267.935C472.614 267.289 476.037 267.018 478.537 267.309C488.256 268.441 494.968 273.796 498.416 279.143C500.136 281.809 501.082 284.531 501.145 286.786C501.208 289 500.394 291.084 498.171 291.827L497.45 290.089C498.433 289.761 499.134 288.742 499.08 286.833C499.028 284.966 498.225 282.547 496.629 280.071C493.444 275.133 487.246 270.193 478.271 269.147C476.097 268.894 472.931 269.121 468.979 269.759C465.05 270.394 460.429 271.422 455.383 272.723C445.293 275.324 433.57 278.999 422.413 282.748C411.26 286.496 400.688 290.313 392.903 293.193C389.011 294.633 385.816 295.838 383.595 296.684C382.485 297.106 381.618 297.439 381.029 297.666C380.734 297.779 380.509 297.866 380.358 297.925L380.13 298.013C380.129 298.013 380.129 298.013 379.719 297.163L380.129 298.013L378.791 297.571Z" fill="#E4EDFA"/>
<path d="M655.585 348L594.249 357.438L604.766 412.479L666.102 403.041L655.585 348Z" fill="#617FA8"/>
<path d="M815.651 320.236C815.501 333.169 811.711 345.301 805.157 355.858C801.599 361.599 797.22 366.878 792.164 371.558C776.786 385.822 755.159 394.603 731.295 394.385C685.18 393.959 648.185 360.07 648.66 318.693C649.135 277.315 686.905 244.112 733.015 244.543C779.125 244.965 816.126 278.854 815.651 320.236Z" fill="#617FA8"/>
<path d="M686.61 505.918C696.954 505.918 705.339 498.393 705.339 489.11C705.339 479.828 696.954 472.302 686.61 472.302C676.265 472.302 667.88 479.828 667.88 489.11C667.88 498.393 676.265 505.918 686.61 505.918Z" fill="#E4EDFA"/>
<path d="M488.479 300.74C494.614 300.74 499.587 296.278 499.587 290.773C499.587 285.267 494.614 280.805 488.479 280.805C482.344 280.805 477.371 285.267 477.371 290.773C477.371 296.278 482.344 300.74 488.479 300.74Z" fill="white"/>
<path d="M767.118 489.666C777.462 489.666 785.848 482.141 785.848 472.859C785.848 463.576 777.462 456.051 767.118 456.051C756.774 456.051 748.388 463.576 748.388 472.859C748.388 482.141 756.774 489.666 767.118 489.666Z" fill="#E4EDFA"/>
<path d="M767.118 480.38C771.746 480.38 775.499 477.012 775.499 472.858C775.499 468.705 771.746 465.337 767.118 465.337C762.489 465.337 758.737 468.705 758.737 472.858C758.737 477.012 762.489 480.38 767.118 480.38Z" fill="#001A39"/>
<path d="M686.61 496.631C691.239 496.631 694.992 493.264 694.992 489.11C694.992 484.956 691.239 481.589 686.61 481.589C681.98 481.589 678.228 484.956 678.228 489.11C678.228 493.264 681.98 496.631 686.61 496.631Z" fill="#001A39"/>
<path d="M716.939 120C725.672 154.834 701.282 189.427 662.463 197.264C623.645 205.1 585.095 183.213 576.362 148.379L716.939 120Z" fill="#FBC73B"/>
<path fill-rule="evenodd" clip-rule="evenodd" d="M514.651 281.762L636.302 471.226L810.467 436.059L811.94 441.936L632.953 478.077L511.315 288.634L479.617 295.186L478.11 289.316L514.651 281.762Z" fill="white"/>
<path fill-rule="evenodd" clip-rule="evenodd" d="M823.531 258.128L813.048 381.033L601.303 423.784L600.849 421.976L811.105 379.526L821.258 260.487L534.241 318.434L533.788 316.625L823.531 258.128Z" fill="#E4EDFA"/>
<path fill-rule="evenodd" clip-rule="evenodd" d="M576.476 308.957L604.848 422.116L602.833 422.523L574.461 309.364L576.476 308.957Z" fill="#E4EDFA"/>
<path fill-rule="evenodd" clip-rule="evenodd" d="M783.885 267.079L812.257 380.243L810.242 380.65L781.87 267.486L783.885 267.079Z" fill="#E4EDFA"/>
<path fill-rule="evenodd" clip-rule="evenodd" d="M742.403 275.458L770.78 388.616L768.764 389.023L740.388 275.864L742.403 275.458Z" fill="#E4EDFA"/>
<path fill-rule="evenodd" clip-rule="evenodd" d="M617.959 300.583L646.33 413.742L644.315 414.149L615.943 300.99L617.959 300.583Z" fill="#E4EDFA"/>
<path fill-rule="evenodd" clip-rule="evenodd" d="M659.442 292.205L687.814 405.369L685.798 405.776L657.427 292.612L659.442 292.205Z" fill="#E4EDFA"/>
<path fill-rule="evenodd" clip-rule="evenodd" d="M700.925 283.831L729.296 396.995L727.281 397.402L698.91 284.238L700.925 283.831Z" fill="#E4EDFA"/>
<path d="M652.878 216.022L666.165 250.214L857.606 164.908L844.319 130.717L652.878 216.022Z" fill="#617FA8"/>
<path fill-rule="evenodd" clip-rule="evenodd" d="M201.415 60.4855C201.51 60.5534 201.618 60.6377 201.739 60.7413C202.304 61.2242 202.996 61.9888 203.78 62.9819C205.339 64.9576 207.143 67.6874 208.865 70.47C210.584 73.2465 212.205 76.0505 213.398 78.1622C213.995 79.2176 214.483 80.0989 214.822 80.7161C214.992 81.0247 215.124 81.2671 215.214 81.4322C215.259 81.5148 215.293 81.578 215.316 81.6204L215.35 81.6831L215.351 81.6838C215.351 81.684 215.351 81.684 216.281 81.2808L215.351 81.6838L217.311 81.2237L216.281 81.2808C217.311 81.2237 217.311 81.2238 217.311 81.2237L217.308 81.1711L217.298 81.0155C217.289 80.8789 217.276 80.6783 217.26 80.4227C217.228 79.9115 217.184 79.1806 217.137 78.3028C217.043 76.5465 216.935 74.2059 216.881 71.8629C216.826 69.5144 216.825 67.1855 216.941 65.4439C216.961 65.1482 216.984 64.874 217.009 64.623C217.298 65.2478 217.627 66.0223 217.995 66.9193C218.378 67.8563 218.802 68.9248 219.259 70.0753C220.04 72.0433 220.917 74.2515 221.85 76.4535C223.332 79.953 224.993 83.5311 226.729 86.3028C227.596 87.6871 228.505 88.9071 229.446 89.8225C230.37 90.7202 231.437 91.435 232.638 91.5954C234.688 91.8691 236.526 91.2417 238.105 90.2944C239.674 89.3536 241.073 88.0469 242.284 86.8293C242.639 86.4732 242.973 86.129 243.291 85.8017C244.101 84.9691 244.804 84.2457 245.458 83.7114C245.908 83.3432 246.246 83.1427 246.488 83.0595C246.564 83.0336 246.617 83.0224 246.657 83.0195C246.684 83.1624 246.693 83.3986 246.654 83.7488C246.572 84.4891 246.303 85.5214 245.877 86.7808C245.029 89.2857 243.619 92.5052 242.105 95.7045C240.593 98.8972 238.989 102.043 237.762 104.393C237.149 105.568 236.63 106.542 236.265 107.222C236.083 107.563 235.939 107.829 235.84 108.011C235.791 108.101 235.753 108.171 235.728 108.217L235.715 108.241L196.737 163.004L197.071 164.295L235.089 185.023L236.162 183.439L199.046 163.203L237.487 109.195L237.544 109.104L236.617 108.696C237.544 109.104 237.544 109.105 237.544 109.104L237.545 109.103L237.554 109.086L237.584 109.032C237.61 108.984 237.648 108.914 237.698 108.822C237.797 108.638 237.943 108.369 238.126 108.026C238.494 107.341 239.016 106.361 239.633 105.18C240.866 102.818 242.481 99.6501 244.006 96.4293C245.528 93.2151 246.972 89.922 247.853 87.3197C248.292 86.0254 248.607 84.8554 248.709 83.9327C248.76 83.4749 248.766 83.0221 248.675 82.6231C248.587 82.2336 248.371 81.7464 247.836 81.4561C247.138 81.0777 246.398 81.1056 245.75 81.3284C245.146 81.5359 244.58 81.9219 244.067 82.341C243.319 82.9525 242.494 83.8006 241.652 84.6675C241.35 84.9775 241.047 85.2899 240.743 85.5947C239.547 86.7967 238.294 87.9516 236.957 88.7533C235.631 89.5485 234.311 89.9447 232.942 89.7619C232.434 89.6941 231.77 89.3483 230.964 88.5653C230.177 87.7999 229.36 86.719 228.53 85.3945C226.873 82.7488 225.256 79.2778 223.781 75.795C222.852 73.6029 221.995 71.4433 221.221 69.4934C220.762 68.336 220.332 67.2525 219.933 66.28C219.406 64.9921 218.932 63.8929 218.53 63.1143C218.331 62.7306 218.13 62.3832 217.927 62.1219C217.827 61.994 217.695 61.844 217.527 61.7196C217.376 61.6076 217.046 61.406 216.591 61.447C215.929 61.5065 215.607 61.9796 215.491 62.1805C215.345 62.4337 215.248 62.736 215.177 63.0288C215.032 63.628 214.939 64.4307 214.879 65.3333C214.758 67.152 214.76 69.5415 214.815 71.9017C214.856 73.6487 214.926 75.3917 214.998 76.895C213.825 74.8279 212.292 72.1892 210.671 69.57C208.939 66.7721 207.091 63.9711 205.466 61.9108C204.657 60.8859 203.874 60.0062 203.164 59.3992C202.811 59.0974 202.437 58.8286 202.051 58.6492C201.677 58.4749 201.159 58.3245 200.602 58.4647L200.602 58.4648C199.959 58.6269 199.657 59.101 199.523 59.4525C199.388 59.8078 199.347 60.2201 199.346 60.6238C199.343 61.4443 199.507 62.5174 199.766 63.7149C200.288 66.1269 201.243 69.2503 202.273 72.3222C202.601 73.2969 202.936 74.2691 203.27 75.2152C202.219 73.7045 201.125 72.2534 200.115 71.1481C199.503 70.4783 198.882 69.8907 198.287 69.497C197.765 69.151 196.918 68.7268 196.036 69.0435C195.376 69.2801 195.036 69.7911 194.871 70.266C194.708 70.7349 194.668 71.2865 194.691 71.856C194.737 73.0041 195.051 74.4938 195.525 76.1642C196.478 79.5219 198.144 83.8261 199.929 88.0506C201.716 92.2825 203.636 96.4636 205.107 99.5849C205.843 101.146 206.467 102.443 206.908 103.35C207.077 103.698 207.219 103.989 207.33 104.215C207.3 104.244 207.268 104.275 207.235 104.306C206.871 104.659 206.337 105.179 205.658 105.845C204.3 107.179 202.362 109.102 200.042 111.464C195.401 116.188 189.223 122.669 183.082 129.695C176.943 136.718 170.824 144.306 166.31 151.24C164.053 154.706 162.185 158.029 160.918 161.049C159.657 164.056 158.959 166.835 159.126 169.192C159.296 171.602 160.604 174.165 162.617 176.762C164.64 179.372 167.438 182.098 170.724 184.845C177.297 190.339 185.923 196.004 194.486 201.1C203.057 206.201 211.596 210.75 218.013 214.012C221.222 215.644 223.903 216.955 225.796 217.854C226.742 218.303 227.494 218.651 228.019 218.885C228.28 219.002 228.493 219.094 228.649 219.157C228.724 219.187 228.801 219.217 228.87 219.241C228.901 219.251 228.957 219.269 229.021 219.284C229.051 219.291 229.116 219.305 229.199 219.312C229.212 219.313 229.231 219.314 229.253 219.314C229.3 219.315 229.359 219.314 229.4 219.311C229.487 219.3 229.699 219.243 229.819 219.19L228.78 217.588C228.899 217.534 229.109 217.478 229.193 217.467C229.25 217.463 229.347 217.464 229.386 217.466C229.461 217.472 229.518 217.485 229.537 217.489C229.562 217.495 229.579 217.5 229.586 217.502L229.596 217.505C229.596 217.505 229.6 217.507 229.599 217.506L229.597 217.506L229.596 217.505L229.591 217.504C229.586 217.502 229.579 217.499 229.57 217.496C229.552 217.489 229.529 217.48 229.499 217.468C229.379 217.419 229.192 217.339 228.939 217.226C228.436 217.001 227.7 216.661 226.762 216.216C224.889 215.326 222.225 214.023 219.031 212.399C212.643 209.152 204.147 204.625 195.628 199.556C187.102 194.482 178.584 188.882 172.132 183.488C168.905 180.791 166.221 178.166 164.313 175.704C162.394 173.229 161.323 170.997 161.187 169.075C161.048 167.098 161.633 164.605 162.851 161.702C164.063 158.813 165.871 155.589 168.094 152.175C172.539 145.346 178.594 137.834 184.707 130.839C190.817 123.849 196.967 117.397 201.591 112.69C203.903 110.338 205.832 108.422 207.183 107.096C207.858 106.433 208.389 105.917 208.75 105.567C208.931 105.392 209.069 105.258 209.162 105.169L209.268 105.068L209.302 105.035C209.302 105.035 209.303 105.035 208.55 104.4L209.303 105.035L209.493 104.023L208.55 104.4C209.493 104.023 209.493 104.023 209.493 104.023L209.447 103.93C209.417 103.868 209.371 103.776 209.312 103.655C209.194 103.415 209.02 103.061 208.801 102.61C208.363 101.708 207.742 100.417 207.009 98.8627C205.544 95.7535 203.635 91.5957 201.86 87.3936C200.082 83.1841 198.45 78.9593 197.527 75.7065C197.063 74.0717 196.793 72.7358 196.755 71.7896C196.737 71.3411 196.775 71.038 196.831 70.8527C196.89 70.8824 196.966 70.9258 197.061 70.9888C197.451 71.2466 197.944 71.6952 198.517 72.3232C199.655 73.5682 200.953 75.3429 202.192 77.1837C203.426 79.0167 204.579 80.883 205.425 82.2935C205.847 82.9981 206.192 83.5876 206.431 84.0004C206.551 84.2068 206.644 84.369 206.707 84.4793C206.738 84.5344 206.762 84.5765 206.778 84.6048L206.796 84.6365L206.802 84.6461C206.802 84.6462 206.802 84.6466 207.185 84.4725L206.802 84.6466L208.696 83.9164L207.724 84.228C208.696 83.9164 208.696 83.9165 208.696 83.9164L208.695 83.9123L208.669 83.8484C208.651 83.8032 208.625 83.7358 208.59 83.6477C208.521 83.4715 208.419 83.2126 208.291 82.8827C208.034 82.2227 207.671 81.2787 207.243 80.1434C206.387 77.8719 205.275 74.8393 204.251 71.7877C203.225 68.7292 202.295 65.6786 201.794 63.3617C201.542 62.1948 201.41 61.2647 201.412 60.6294C201.412 60.5778 201.413 60.5299 201.415 60.4855ZM196.894 70.7081C196.894 70.7083 196.893 70.7101 196.89 70.713C196.893 70.7094 196.894 70.708 196.894 70.7081ZM246.767 83.0426C246.766 83.0419 246.765 83.0412 246.764 83.0405L246.767 83.0426ZM246.631 82.9235C246.629 82.9201 246.628 82.9183 246.628 82.9182C246.628 82.9181 246.629 82.9197 246.631 82.9235ZM217.336 63.0165C217.336 63.017 217.333 63.023 217.325 63.033C217.332 63.0209 217.336 63.016 217.336 63.0165Z" fill="#E4EDFA"/>
<path fill-rule="evenodd" clip-rule="evenodd" d="M207.315 106.902L205.461 105.975C205.519 105.918 205.576 105.861 205.633 105.806C206.312 105.139 206.846 104.62 207.211 104.267L207.305 104.176C207.194 103.95 207.052 103.659 206.883 103.311C206.442 102.404 205.818 101.107 205.082 99.5456C203.611 96.4243 201.691 92.2431 199.904 88.0113C198.119 83.7868 196.454 79.4826 195.5 76.1249C195.026 74.4545 194.712 72.9648 194.666 71.8167C194.643 71.2472 194.683 70.6956 194.846 70.2267C195.011 69.7517 195.351 69.2408 196.011 69.0042C196.893 68.6875 197.74 69.1117 198.262 69.4577C198.858 69.8514 199.478 70.439 200.09 71.1088C201.1 72.2141 202.194 73.6652 203.245 75.1759C202.911 74.2298 202.576 73.2576 202.249 72.2829C201.218 69.211 200.263 66.0876 199.741 63.6756C199.482 62.4781 199.318 61.405 199.321 60.5845C199.323 60.1808 199.363 59.7685 199.498 59.4132C199.632 59.0617 199.934 58.5876 200.577 58.4255L200.577 58.4254C201.134 58.2852 201.652 58.4356 202.026 58.6099C202.412 58.7892 202.786 59.0581 203.139 59.3599C203.849 59.9669 204.632 60.8466 205.441 61.8715C207.066 63.9318 208.914 66.7328 210.646 69.5307C212.258 72.1354 213.783 74.7592 214.953 76.8212L213.379 78.1325C213.377 78.1293 213.375 78.1261 213.373 78.1229C212.18 76.0112 210.559 73.2072 208.84 70.4307C207.118 67.6481 205.314 64.9183 203.755 62.9426C202.971 61.9495 202.279 61.1849 201.714 60.702C201.593 60.5984 201.485 60.5141 201.39 60.4462C201.388 60.4906 201.387 60.5385 201.387 60.5901C201.385 61.2254 201.517 62.1555 201.769 63.3224C202.27 65.6393 203.2 68.6899 204.226 71.7484C205.251 74.8 206.362 77.8326 207.218 80.1041C207.646 81.2393 208.009 82.1834 208.266 82.8434C208.394 83.1733 208.496 83.4322 208.565 83.6084L208.644 83.8091L208.67 83.873L208.671 83.8771L207.699 84.1887C208.593 83.9023 208.665 83.8792 208.671 83.8773L206.777 84.6073L207.16 84.4332C206.777 84.6073 206.777 84.6069 206.777 84.6068L206.771 84.5972L206.753 84.5654L206.682 84.44C206.619 84.3297 206.526 84.1675 206.406 83.9611C206.167 83.5483 205.822 82.9588 205.4 82.2542C204.554 80.8437 203.401 78.9774 202.167 77.1444C200.929 75.3036 199.63 73.5289 198.493 72.2839C197.919 71.6559 197.426 71.2073 197.037 70.9495C196.941 70.8865 196.865 70.8431 196.806 70.8134C196.75 70.9987 196.712 71.3018 196.73 71.7503C196.768 72.6965 197.038 74.0324 197.502 75.6672C198.425 78.92 200.057 83.1448 201.835 87.3543C203.61 91.5564 205.519 95.7142 206.984 98.8234C207.717 100.378 208.338 101.668 208.777 102.571C208.996 103.022 209.169 103.375 209.287 103.616C209.346 103.736 209.392 103.829 209.422 103.89L209.468 103.984L209.278 104.995L208.525 104.361C209.278 104.995 209.278 104.995 209.277 104.996L209.243 105.029L209.138 105.13C209.044 105.219 208.906 105.353 208.725 105.527C208.392 105.85 207.916 106.313 207.315 106.902ZM214.971 76.8069C214.9 75.3147 214.831 73.5905 214.791 71.8624C214.735 69.5022 214.733 67.1127 214.854 65.294C214.914 64.3914 215.007 63.5887 215.152 62.9895C215.223 62.6967 215.32 62.3944 215.466 62.1412C215.582 61.9403 215.904 61.4672 216.566 61.4077C217.021 61.3667 217.351 61.5683 217.503 61.6803C217.67 61.8046 217.802 61.9547 217.902 62.0826C218.105 62.3439 218.306 62.6913 218.505 63.075C218.907 63.8536 219.381 64.9528 219.909 66.2407C220.307 67.2132 220.737 68.2967 221.196 69.454L221.196 69.454C221.406 69.9827 221.622 70.5268 221.844 71.0828L220.198 72.4538C219.863 71.6209 219.542 70.8102 219.234 70.0366L219.234 70.036L219.234 70.0355C218.777 68.8851 218.353 67.8169 217.97 66.88C217.602 65.983 217.273 65.2085 216.985 64.5837C216.959 64.8347 216.936 65.1089 216.916 65.4046C216.8 67.1462 216.801 69.475 216.856 71.8236C216.882 72.9536 216.921 74.083 216.964 75.1465L214.971 76.8069ZM196.869 70.6688C196.869 70.669 196.868 70.6708 196.865 70.6737C196.868 70.6701 196.869 70.6687 196.869 70.6688ZM217.311 62.9772C217.311 62.9777 217.308 62.9837 217.3 62.9936C217.307 62.9816 217.311 62.9767 217.311 62.9772Z" fill="#001A39"/>
<path fill-rule="evenodd" clip-rule="evenodd" d="M186.912 10.978L187.212 0L189.277 0.0453747L188.977 11.0234L186.912 10.978Z" fill="white"/>
<path fill-rule="evenodd" clip-rule="evenodd" d="M154.923 27.859L146.483 19.9069L147.979 18.6287L156.419 26.5807L154.923 27.859Z" fill="white"/>
<path fill-rule="evenodd" clip-rule="evenodd" d="M218.584 27.9529L227.445 20.3809L228.87 21.7233L220.008 29.2953L218.584 27.9529Z" fill="white"/>
<path d="M853.664 67.4675L878.841 71.5486L870.02 103.148L853.591 114.872L844.843 99.0674L853.664 67.4675Z" fill="#F96155"/>
<path d="M522.701 141.883L545.562 129L563.817 155.094L560.337 172.894L540.956 167.972L522.701 141.883Z" fill="#F96155"/>
<path d="M831.271 427.945L834.984 403.955L800.984 399.715L784.313 409.863L797.265 423.705L831.271 427.945Z" fill="#F96155"/>
<path d="M109.059 154.504L88.2266 139.105L110.055 115.327L129.979 112.672L130.888 130.726L109.059 154.504Z" fill="#F96155"/>
<path fill-rule="evenodd" clip-rule="evenodd" d="M141.517 111.972C137.473 111.835 133.914 111.716 130.726 113.163L130.026 111.922C133.585 110.307 137.53 110.443 141.459 110.578C141.714 110.587 141.968 110.596 142.223 110.604C146.466 110.742 150.784 110.766 155.161 108.824L155.847 110.07C151.089 112.182 146.417 112.132 142.166 111.993C141.948 111.986 141.732 111.979 141.517 111.972Z" fill="white"/>
<path fill-rule="evenodd" clip-rule="evenodd" d="M559.821 179.045C560.478 177.032 560.407 174.935 558.984 172.498L560.356 171.853C561.97 174.617 562.075 177.086 561.307 179.436C560.555 181.739 558.969 183.905 557.292 186.092C557.126 186.308 556.958 186.526 556.79 186.744C553.526 190.982 550.031 195.519 550.302 201.974C550.618 209.49 554.87 213.33 559.032 215.327C561.13 216.334 563.216 216.875 564.782 217.163C565.563 217.307 566.211 217.387 566.66 217.431C566.884 217.454 567.059 217.467 567.175 217.474C567.233 217.478 567.277 217.48 567.305 217.481L567.336 217.483L567.342 217.483L567.342 217.483C567.342 217.483 567.342 217.483 567.313 218.178C567.284 218.872 567.283 218.872 567.283 218.872L567.278 218.872L567.265 218.872C567.255 218.871 567.241 218.87 567.222 218.87C567.185 218.868 567.133 218.865 567.065 218.861C566.931 218.852 566.736 218.838 566.491 218.813C566.001 218.765 565.305 218.679 564.47 218.525C562.804 218.218 560.567 217.64 558.301 216.553C553.734 214.362 549.094 210.113 548.754 202.026C548.463 195.096 552.234 190.207 555.472 186.01C555.655 185.772 555.837 185.537 556.016 185.303C557.708 183.098 559.148 181.104 559.821 179.045Z" fill="white"/>
<path fill-rule="evenodd" clip-rule="evenodd" d="M854.434 114.22L845.053 131.586L843.738 131.03L853.12 113.663L854.434 114.22Z" fill="white"/>
<path d="M783.763 158.426L779.476 182.337L745.584 177.453L732.963 163.366L749.865 153.537L783.763 158.426Z" fill="#F96155"/>
<path fill-rule="evenodd" clip-rule="evenodd" d="M733.113 164.056L711.791 161.757L711.976 160.377L733.298 162.675L733.113 164.056Z" fill="white"/>
<path fill-rule="evenodd" clip-rule="evenodd" d="M756.394 391.252C756.393 391.251 756.393 391.251 757.115 390.998C757.836 390.745 757.836 390.744 757.836 390.744L757.836 390.744C757.836 390.744 757.836 390.744 757.836 390.744L757.838 390.748L757.848 390.771C757.858 390.792 757.873 390.825 757.895 390.87C757.938 390.959 758.006 391.095 758.101 391.272C758.291 391.625 758.589 392.144 759.016 392.788C759.87 394.077 761.237 395.869 763.279 397.852C767.361 401.815 774.151 406.558 784.963 409.584L784.502 410.911C773.412 407.807 766.394 402.925 762.142 398.796C760.017 396.733 758.587 394.861 757.684 393.499C757.233 392.817 756.913 392.263 756.705 391.875C756.601 391.681 756.525 391.529 756.474 391.424C756.448 391.371 756.429 391.33 756.415 391.301C756.409 391.286 756.404 391.275 756.4 391.266L756.396 391.256L756.394 391.253L756.394 391.252ZM757.836 390.744L757.836 390.744L757.836 390.744Z" fill="white"/>
<path d="M552.368 164.14C554.022 164.14 555.363 162.937 555.363 161.452C555.363 159.968 554.022 158.764 552.368 158.764C550.714 158.764 549.373 159.968 549.373 161.452C549.373 162.937 550.714 164.14 552.368 164.14Z" fill="#001A39"/>
<path d="M859.388 102.234C860.76 101.304 861.203 99.5516 860.379 98.3207C859.555 97.0898 857.774 96.8462 856.402 97.7767C855.03 98.7072 854.586 100.46 855.411 101.69C856.235 102.921 858.016 103.165 859.388 102.234Z" fill="#001A39"/>
<path d="M749.209 168.282C750.863 168.282 752.203 167.079 752.203 165.594C752.203 164.11 750.863 162.907 749.209 162.907C747.555 162.907 746.215 164.11 746.215 165.594C746.215 167.079 747.555 168.282 749.209 168.282Z" fill="#001A39"/>
<path d="M798.696 414.372C800.35 414.372 801.692 413.169 801.692 411.684C801.692 410.2 800.35 408.997 798.696 408.997C797.042 408.997 795.701 410.2 795.701 411.684C795.701 413.169 797.042 414.372 798.696 414.372Z" fill="#001A39"/>
<path d="M119.742 126.319C121.396 126.319 122.738 125.116 122.738 123.632C122.738 122.147 121.396 120.944 119.742 120.944C118.088 120.944 116.747 122.147 116.747 123.632C116.747 125.116 118.088 126.319 119.742 126.319Z" fill="#001A39"/>
<path fill-rule="evenodd" clip-rule="evenodd" d="M716.994 149.351C716.995 149.351 716.995 149.351 716.546 149.918C716.097 150.484 716.097 150.484 716.097 150.484L716.096 150.483L716.092 150.481L716.076 150.471C716.068 150.466 716.058 150.459 716.045 150.451C716.035 150.445 716.024 150.438 716.012 150.43C715.954 150.394 715.868 150.34 715.754 150.269C715.526 150.128 715.19 149.922 714.756 149.661C713.887 149.14 712.629 148.403 711.073 147.544C707.961 145.825 703.668 143.619 698.937 141.666C694.2 139.71 689.057 138.022 684.237 137.318C679.405 136.611 675.01 136.909 671.664 138.8C668.385 140.654 666.803 144.053 666.371 148.309C665.94 152.558 666.673 157.524 667.864 162.289C669.053 167.046 670.687 171.558 672.026 174.885C672.695 176.547 673.289 177.911 673.716 178.858C673.929 179.332 674.101 179.701 674.218 179.951C674.277 180.077 674.322 180.172 674.353 180.236C674.368 180.268 674.38 180.292 674.388 180.307L674.399 180.33C674.399 180.33 674.399 180.33 673.689 180.609L674.399 180.33L675.763 183.127L673.184 181.136M673.184 181.136L673.182 181.134L673.173 181.128L673.138 181.101C673.107 181.077 673.059 181.041 672.997 180.994C672.871 180.9 672.685 180.762 672.444 180.588C671.962 180.238 671.262 179.744 670.394 179.165C668.656 178.006 666.252 176.515 663.579 175.18C660.9 173.842 657.986 172.677 655.222 172.145C652.453 171.612 649.936 171.732 647.946 172.836C645.945 173.946 644.528 176.042 643.562 178.704C642.601 181.352 642.123 184.459 641.92 187.448C641.717 190.431 641.789 193.266 641.912 195.358C641.974 196.403 642.049 197.261 642.107 197.856C642.137 198.153 642.162 198.385 642.181 198.542C642.19 198.62 642.197 198.68 642.202 198.719L642.207 198.764L642.208 198.774L642.209 198.777L641.439 198.858C640.67 198.938 640.67 198.938 640.67 198.938L640.669 198.933L640.668 198.92L640.662 198.872C640.656 198.829 640.649 198.766 640.64 198.685C640.621 198.522 640.594 198.283 640.564 197.979C640.504 197.369 640.428 196.495 640.365 195.432C640.24 193.306 640.166 190.415 640.373 187.363C640.58 184.316 641.07 181.079 642.089 178.274C643.102 175.482 644.675 173.016 647.131 171.653C649.597 170.285 652.577 170.214 655.547 170.786C658.522 171.359 661.588 172.594 664.333 173.965C667.083 175.339 669.546 176.867 671.318 178.049C671.502 178.171 671.679 178.29 671.847 178.405C671.479 177.564 671.042 176.534 670.569 175.357C669.216 171.997 667.56 167.426 666.352 162.593C665.147 157.77 664.376 152.641 664.829 148.183C665.28 143.732 666.969 139.811 670.839 137.624C674.643 135.474 679.484 135.214 684.486 135.945C689.499 136.678 694.785 138.421 699.585 140.403C704.39 142.386 708.739 144.622 711.886 146.36C713.459 147.23 714.734 147.976 715.617 148.505C716.058 148.77 716.401 148.981 716.635 149.126C716.751 149.198 716.841 149.254 716.901 149.292C716.932 149.311 716.955 149.326 716.97 149.336L716.988 149.347L716.994 149.351" fill="#001A39"/>
<path fill-rule="evenodd" clip-rule="evenodd" d="M599.32 143.746C599.32 143.745 599.32 143.745 600.076 143.592C600.831 143.439 600.831 143.439 600.831 143.439L600.834 143.449L600.843 143.483C600.85 143.514 600.862 143.559 600.878 143.619C600.91 143.739 600.957 143.917 601.021 144.147C601.147 144.607 601.338 145.273 601.59 146.095C602.094 147.739 602.846 150.005 603.836 152.491C605.827 157.493 608.738 163.273 612.452 166.722C614.301 168.439 616.282 169.516 618.383 169.702C620.463 169.887 622.821 169.214 625.475 167.129C630.835 162.919 637.12 153.169 644.186 134.462L645.653 134.908C638.583 153.624 632.194 163.699 626.495 168.175C623.62 170.434 620.853 171.319 618.23 171.086C615.628 170.855 613.328 169.536 611.338 167.688C607.376 164.009 604.377 157.982 602.377 152.959C601.372 150.433 600.608 148.133 600.096 146.464C599.84 145.629 599.646 144.951 599.517 144.481C599.452 144.246 599.403 144.063 599.37 143.939C599.354 143.876 599.341 143.828 599.333 143.796L599.323 143.758L599.32 143.746Z" fill="#001A39"/>
<path fill-rule="evenodd" clip-rule="evenodd" d="M710.081 165.032C710.081 165.032 710.081 165.032 709.626 165.594L709.552 165.686C709.171 166.157 709.171 166.157 709.17 166.156L709.165 166.153L709.145 166.14C709.128 166.129 709.101 166.112 709.066 166.089C708.995 166.044 708.89 165.977 708.753 165.891C708.48 165.719 708.081 165.472 707.581 165.172C706.58 164.571 705.176 163.76 703.565 162.917C700.316 161.218 696.322 159.447 693.105 158.959C691.493 158.715 690.209 158.814 689.318 159.28C688.476 159.719 687.822 160.574 687.671 162.207C687.517 163.864 687.894 166.244 689.064 169.561C690.23 172.868 692.167 177.059 695.08 182.32L693.693 182.939C690.758 177.64 688.785 173.38 687.587 169.981C686.392 166.592 685.949 164.012 686.127 162.092C686.307 160.149 687.138 158.81 688.539 158.078C689.89 157.373 691.608 157.322 693.363 157.588C696.879 158.121 701.082 160.01 704.345 161.716C705.99 162.576 707.422 163.404 708.442 164.016C708.953 164.323 709.361 164.575 709.642 164.752C709.783 164.841 709.892 164.91 709.966 164.958C710.003 164.981 710.032 165 710.051 165.012L710.073 165.027L710.081 165.032Z" fill="#001A39"/>
<path d="M552.203 253.712C549.512 230.666 568.154 210.026 593.841 207.612C619.522 205.198 642.523 221.927 645.213 244.977L552.203 253.712Z" fill="#BACADF"/>
</svg>
