<svg width="728" height="540" viewBox="0 0 728 540" fill="none" xmlns="http://www.w3.org/2000/svg">
<path d="M506.244 106.711L480.893 135.697L543.275 190.255L568.625 161.269L506.244 106.711Z" fill="#617FA8"/>
<path d="M334.92 113.383C338.899 145.804 315.839 175.315 283.412 179.294C250.986 183.272 221.481 160.212 217.502 127.791" fill="#F96155"/>
<path d="M94.0368 289.142L51.2679 257.17L0.725586 345.517L62.4785 290.583L91.3606 311.977" fill="#F96155"/>
<path fill-rule="evenodd" clip-rule="evenodd" d="M51.9583 308.05L51.136 287.559L53.1773 287.477L53.9996 307.968L51.9583 308.05Z" fill="white"/>
<path fill-rule="evenodd" clip-rule="evenodd" d="M44.624 315.66L43.7966 295.169L45.8379 295.087L46.6653 315.578L44.624 315.66Z" fill="white"/>
<path fill-rule="evenodd" clip-rule="evenodd" d="M37.2085 324.266L36.3862 303.775L38.4275 303.693L39.2498 324.184L37.2085 324.266Z" fill="white"/>
<path d="M152.496 433.568L99.7521 456.433L160.989 540L136.418 461.852L171.158 446.995" fill="#F96155"/>
<path fill-rule="evenodd" clip-rule="evenodd" d="M148.588 479.532L130.273 470.303L131.193 468.479L149.508 477.707L148.588 479.532Z" fill="white"/>
<path fill-rule="evenodd" clip-rule="evenodd" d="M151.678 489.644L133.368 480.416L134.288 478.591L152.598 487.82L151.678 489.644Z" fill="white"/>
<path fill-rule="evenodd" clip-rule="evenodd" d="M155.601 500.304L137.291 491.075L138.21 489.25L156.52 498.479L155.601 500.304Z" fill="white"/>
<path d="M299.689 81.2683C299.996 95.4412 288.76 107.178 274.587 107.484C262.059 107.755 251.43 99.0009 248.922 87.1774C248.596 85.6248 248.407 84.0263 248.371 82.3818C248.064 68.214 259.301 56.4722 273.473 56.1657C280.849 56.0074 287.56 58.9697 292.345 63.8472C296.768 68.3468 299.546 74.4755 299.689 81.2683Z" fill="#FBC73B"/>
<path d="M292.35 63.8472C285.757 77.5859 271.854 87.208 255.577 87.5604C253.32 87.6115 251.093 87.4736 248.922 87.1774C248.596 85.6248 248.407 84.0263 248.371 82.3818C248.064 68.214 259.301 56.4722 273.473 56.1657C280.854 56.0074 287.56 58.9697 292.35 63.8472Z" fill="#234977"/>
<path d="M256.415 61.8909C261.816 61.8909 266.195 57.512 266.195 52.1104C266.195 46.7087 261.816 42.3296 256.415 42.3296C251.013 42.3296 246.634 46.7087 246.634 52.1104C246.634 57.512 251.013 61.8909 256.415 61.8909Z" fill="#032349"/>
<path d="M228.319 55.6803C243.695 55.6803 256.16 43.216 256.16 27.8403C256.16 12.4646 243.695 0 228.319 0C212.944 0 200.479 12.4646 200.479 27.8403C200.479 43.216 212.944 55.6803 228.319 55.6803Z" fill="#234977"/>
<path d="M294.853 90.2241C296.39 90.1909 297.594 88.1841 297.541 85.7419C297.488 83.2996 296.199 81.3466 294.662 81.3798C293.125 81.413 291.922 83.4199 291.975 85.8621C292.028 88.3043 293.316 90.2573 294.853 90.2241Z" fill="#001A39"/>
<path d="M285.624 90.7297C287.161 90.6965 288.364 88.69 288.311 86.2477C288.258 83.8055 286.97 81.8525 285.433 81.8857C283.896 81.9189 282.693 83.9257 282.745 86.368C282.798 88.8102 284.087 90.763 285.624 90.7297Z" fill="#001A39"/>
<path fill-rule="evenodd" clip-rule="evenodd" d="M294.383 92.2115C294.382 92.2114 294.382 92.2114 294.163 93.2092C293.945 94.207 293.944 94.2069 293.944 94.2068L293.943 94.2066L293.94 94.2061L293.935 94.2048L293.918 94.201C293.905 94.198 293.889 94.1939 293.868 94.1888C293.827 94.1784 293.77 94.1636 293.701 94.1438C293.562 94.1043 293.371 94.0443 293.144 93.9594C292.694 93.7909 292.088 93.5171 291.48 93.096C290.247 92.2426 288.959 90.7371 289.057 88.3313L291.098 88.414C291.037 89.9153 291.793 90.8281 292.642 91.4162C293.075 91.7158 293.52 91.9186 293.861 92.0464C294.03 92.1097 294.169 92.1528 294.262 92.1794C294.308 92.1926 294.343 92.2016 294.363 92.2068C294.374 92.2094 294.381 92.211 294.384 92.2118L294.383 92.2117L294.383 92.2115ZM294.384 92.2118C294.385 92.2122 294.386 92.2123 294.386 92.2122L294.384 92.2119L294.384 92.2118Z" fill="#001A39"/>
<path d="M204.402 260.98L179.943 340.287L100.452 280.383C100.452 280.383 80.8141 280.24 68.9191 297.319C57.3152 313.974 65.9364 330.011 65.9364 330.011L200.821 445.979L259.393 318.264L259.959 375.002L154.483 423.818C154.483 423.818 147.511 442.914 157.578 461.658C167.353 479.856 181.01 479.238 181.01 479.238L292.391 436.837C309.572 430.294 321.283 414.237 322.254 395.876L323.423 282.916C325.359 246.302 303.367 216.541 265.904 213.441C232.451 210.678 212.921 231.695 204.402 260.98Z" fill="#E4EDFA"/>
<path fill-rule="evenodd" clip-rule="evenodd" d="M274.695 288.071L220.428 408.277L220.421 408.291C210.435 428.681 181.251 432.294 162.974 415.932L164.336 414.41C181.816 430.057 209.304 426.321 218.579 407.407L272.833 287.23L274.695 288.071Z" fill="#001A39"/>
<path fill-rule="evenodd" clip-rule="evenodd" d="M517.479 110.977C514.522 108.666 511.02 107.151 507.314 107.58C503.434 108.029 495.954 110.027 486.833 112.811C477.742 115.586 467.104 119.115 456.956 122.59C446.81 126.063 437.159 129.48 430.045 132.028C426.487 133.302 423.565 134.359 421.531 135.098C420.515 135.467 419.72 135.756 419.18 135.954C418.91 136.052 418.704 136.128 418.565 136.178L418.356 136.255C418.355 136.255 418.355 136.255 418.047 135.416L418.355 136.255L417.811 136.278L344.99 116.324L345.463 114.6L418.008 134.479C418.144 134.429 418.332 134.36 418.567 134.274C419.108 134.077 419.903 133.787 420.921 133.417C422.957 132.678 425.882 131.62 429.442 130.345C436.561 127.795 446.22 124.376 456.377 120.898C466.533 117.421 477.193 113.885 486.311 111.101C495.399 108.327 503.039 106.275 507.108 105.805C513.566 105.057 519.186 109.35 522.795 113.702C524.618 115.9 525.993 118.186 526.762 120.011C527.143 120.914 527.4 121.759 527.462 122.45C527.493 122.793 527.483 123.165 527.366 123.508C527.297 123.711 527.185 123.913 527.021 124.081C527.055 124.155 527.088 124.228 527.12 124.3C527.493 125.139 527.769 125.97 527.806 126.691C527.825 127.058 527.785 127.454 527.615 127.821C527.436 128.208 527.134 128.51 526.733 128.692C525.966 129.04 525.108 128.839 524.391 128.535C523.638 128.216 522.815 127.687 521.978 127.05C520.643 126.037 519.175 124.677 517.745 123.237C518.149 124.016 518.496 124.763 518.747 125.436C519.018 126.162 519.214 126.896 519.197 127.529C519.187 127.855 519.12 128.216 518.92 128.541C518.707 128.887 518.385 129.124 518 129.239C517.308 129.447 516.57 129.241 515.947 128.97C515.291 128.686 514.566 128.243 513.81 127.728C512.952 127.142 511.969 126.403 510.933 125.624C510.179 125.057 509.397 124.469 508.616 123.905C506.713 122.531 504.719 121.224 502.762 120.373C500.798 119.52 498.974 119.171 497.366 119.572C493.972 120.418 491.652 123.103 490.599 126.332C489.542 129.575 489.817 133.216 491.455 135.807C493.022 138.288 496.087 139.055 499.289 139.625C499.544 139.67 499.802 139.715 500.059 139.759C501.335 139.979 502.609 140.199 503.642 140.543C504.876 140.954 506.093 141.647 506.457 143.052C506.457 143.052 506.457 143.052 506.457 143.052C506.583 143.536 506.445 143.995 506.128 144.334C505.859 144.621 505.498 144.787 505.179 144.895C504.528 145.116 503.621 145.23 502.602 145.292C500.537 145.417 497.664 145.344 494.61 145.255C494.386 145.248 494.161 145.241 493.935 145.235C491.058 145.15 488.037 145.061 485.302 145.105C482.326 145.152 479.799 145.358 478.194 145.852C476.504 146.371 473.193 147.926 468.752 150.044C468.397 150.213 468.035 150.386 467.667 150.561C463.471 152.564 458.444 154.963 453.067 157.328C441.405 162.458 427.942 167.504 417.602 167.97C411.809 168.23 403.966 167.181 395.514 165.488C387.044 163.792 377.899 161.437 369.475 159.053C361.05 156.668 353.338 154.252 347.732 152.432C344.929 151.522 342.652 150.761 341.075 150.227C340.287 149.96 339.673 149.75 339.257 149.607C339.048 149.535 338.889 149.48 338.782 149.443L338.622 149.387L338.62 149.386C338.619 149.386 338.619 149.386 338.914 148.542C339.209 147.699 339.209 147.699 339.209 147.699L339.368 147.754C339.474 147.791 339.632 147.845 339.839 147.917C340.252 148.059 340.863 148.268 341.648 148.534C343.219 149.066 345.489 149.824 348.284 150.732C353.875 152.547 361.565 154.956 369.962 157.333C378.361 159.71 387.458 162.052 395.865 163.735C404.288 165.422 411.956 166.434 417.522 166.184C427.488 165.735 440.67 160.829 452.347 155.692C457.698 153.338 462.701 150.95 466.899 148.947C467.267 148.772 467.628 148.599 467.983 148.43C472.352 146.347 475.818 144.712 477.668 144.143C477.668 144.143 477.668 144.143 477.668 144.143C479.541 143.567 482.299 143.365 485.273 143.317C488.051 143.273 491.112 143.363 493.979 143.448C494.208 143.454 494.436 143.461 494.662 143.468C497.743 143.558 500.526 143.627 502.494 143.507C503.489 143.447 504.192 143.342 504.603 143.203C504.66 143.299 504.7 143.398 504.727 143.501C504.69 143.359 504.744 143.196 504.822 143.113C504.828 143.107 504.832 143.104 504.831 143.103C504.831 143.102 504.775 143.145 504.606 143.202C504.605 143.203 504.604 143.203 504.603 143.203C504.388 142.843 503.935 142.525 503.077 142.239C502.185 141.942 501.077 141.75 499.801 141.529C499.533 141.483 499.258 141.435 498.975 141.385C495.878 140.833 491.987 139.997 489.944 136.762C487.97 133.639 487.71 129.427 488.899 125.778C490.094 122.114 492.804 118.867 496.934 117.838C499.087 117.301 501.342 117.807 503.474 118.734C505.614 119.664 507.734 121.063 509.662 122.456C510.517 123.073 511.317 123.675 512.071 124.243C513.063 124.99 513.974 125.676 514.817 126.25C515.545 126.747 516.159 127.114 516.658 127.33C517.058 127.504 517.29 127.538 517.406 127.537C517.401 127.593 517.392 127.615 517.392 127.615C517.392 127.615 517.394 127.611 517.398 127.604C517.408 127.587 517.426 127.566 517.449 127.549C517.472 127.531 517.488 127.527 517.485 127.528C517.47 127.532 517.445 127.536 517.406 127.537C517.408 127.521 517.409 127.501 517.41 127.479C517.418 127.2 517.322 126.73 517.072 126.061C516.584 124.751 515.646 123.037 514.582 121.3C513.525 119.575 512.373 117.873 511.482 116.599C511.037 115.963 510.659 115.436 510.392 115.067C510.259 114.883 510.153 114.739 510.081 114.642C510.061 114.614 510.044 114.59 510.029 114.57L510 114.531L509.974 114.496L509.973 114.494C509.973 114.494 509.972 114.494 510.021 114.458L509.973 114.494L511.387 113.401L510.731 113.927C511.387 113.401 511.387 113.401 511.387 113.401L511.387 113.402L511.389 113.404L511.421 113.443C511.444 113.472 511.478 113.514 511.523 113.57C511.613 113.681 511.746 113.844 511.917 114.052C512.259 114.468 512.752 115.06 513.354 115.767C514.558 117.182 516.195 119.049 517.932 120.867C519.674 122.69 521.491 124.436 523.059 125.627C523.846 126.225 524.533 126.654 525.089 126.889C525.682 127.141 525.933 127.092 525.993 127.064L525.994 127.064C525.995 127.064 525.996 127.063 525.996 127.063C525.996 127.064 525.995 127.065 525.995 127.065C525.995 127.066 525.995 127.066 525.995 127.067C525.994 127.067 525.994 127.068 525.994 127.069C525.993 127.071 525.992 127.072 525.992 127.072C525.992 127.072 525.993 127.07 525.995 127.068C525.995 127.068 525.996 127.067 525.996 127.067C525.997 127.066 525.998 127.065 525.999 127.063C526.006 127.056 526.008 127.058 525.996 127.063C526.006 127.037 526.03 126.955 526.021 126.783C526.001 126.395 525.833 125.806 525.487 125.025C525.002 123.932 524.241 122.626 523.352 121.257L516.328 111.892L517.479 110.977ZM525.038 120.527L524.818 120.233C524.451 119.669 524.067 119.102 523.678 118.543C522.292 116.551 520.804 114.611 519.666 113.172C519.351 112.774 519.063 112.414 518.81 112.101C519.753 112.959 520.627 113.888 521.419 114.843C523.085 116.851 524.331 118.91 525.038 120.527Z" fill="white"/>
<path fill-rule="evenodd" clip-rule="evenodd" d="M211.935 132.488C211.936 132.488 211.936 132.488 212.155 133.486C212.373 134.484 212.373 134.484 212.373 134.484L212.364 134.486L212.334 134.492C212.306 134.499 212.265 134.508 212.21 134.52C212.1 134.545 211.936 134.582 211.721 134.633C211.29 134.733 210.654 134.884 209.838 135.087C208.206 135.493 205.853 136.106 202.977 136.93C197.223 138.579 189.386 141.073 181.044 144.453C172.7 147.835 163.875 152.095 156.134 157.269C148.386 162.449 141.786 168.504 137.815 175.454C134.99 180.397 133.465 187.093 132.804 194.446C132.144 201.783 132.352 209.682 132.926 216.969C133.501 224.252 134.44 230.901 135.236 235.73C135.634 238.144 135.996 240.101 136.258 241.454C136.389 242.13 136.495 242.655 136.568 243.01C136.604 243.188 136.633 243.323 136.652 243.413C136.661 243.458 136.669 243.492 136.674 243.515L136.68 243.547C136.681 243.547 136.681 243.547 135.682 243.764C134.684 243.98 134.684 243.98 134.684 243.979L134.676 243.943C134.671 243.919 134.663 243.883 134.653 243.836C134.633 243.742 134.604 243.604 134.567 243.422C134.492 243.06 134.385 242.527 134.252 241.843C133.987 240.474 133.621 238.497 133.22 236.062C132.418 231.194 131.47 224.486 130.89 217.129C130.31 209.777 130.096 201.754 130.769 194.264C131.441 186.791 133.004 179.755 136.042 174.44C140.23 167.11 147.113 160.842 154.999 155.571C162.893 150.293 171.855 145.973 180.277 142.56C188.703 139.145 196.612 136.629 202.414 134.966C205.316 134.134 207.692 133.516 209.345 133.105C210.171 132.899 210.817 132.745 211.257 132.643C211.477 132.592 211.646 132.553 211.76 132.527C211.817 132.514 211.861 132.505 211.89 132.498L211.924 132.491L211.935 132.488Z" fill="white"/>
<path fill-rule="evenodd" clip-rule="evenodd" d="M223.569 166.169C224.062 165.994 224.447 165.862 224.613 165.821L225.11 167.802C225.111 167.802 225.111 167.802 225.109 167.802C225.104 167.804 225.086 167.809 225.048 167.821C225.003 167.835 224.943 167.855 224.866 167.881C224.713 167.932 224.507 168.004 224.25 168.095C223.737 168.276 223.031 168.531 222.158 168.849C220.414 169.485 218.013 170.371 215.179 171.423C209.511 173.526 202.112 176.291 194.767 179.042C187.421 181.794 180.129 184.532 174.673 186.582C171.945 187.607 169.676 188.46 168.09 189.057L166.26 189.745V247.37H164.217V189.038L164.878 188.082L165.238 189.038C164.878 188.082 164.879 188.082 164.879 188.082L167.37 187.145C168.957 186.548 171.226 185.695 173.954 184.669C179.411 182.619 186.704 179.881 194.05 177.129C201.396 174.377 208.797 171.612 214.468 169.508C217.304 168.456 219.708 167.568 221.458 166.93C222.333 166.611 223.047 166.354 223.569 166.169Z" fill="white"/>
<path d="M165.215 274.004C174.521 264.697 174.521 249.609 165.215 240.302C155.908 230.996 140.819 230.996 131.513 240.302C122.206 249.608 122.207 264.697 131.513 274.004C140.819 283.31 155.908 283.31 165.215 274.004Z" fill="#FBC73B"/>
<path d="M485 258C503.778 258 519 242.778 519 224C519 205.222 503.778 190 485 190C466.222 190 451 205.222 451 224C451 242.778 466.222 258 485 258Z" fill="#F96155"/>
<path d="M550.696 352.392C557.155 352.392 562.392 347.155 562.392 340.696C562.392 334.236 557.155 329 550.696 329C544.236 329 539 334.236 539 340.696C539 347.155 544.236 352.392 550.696 352.392Z" fill="#F96155"/>
<path d="M582.891 127.878C588.115 127.878 592.35 123.643 592.35 118.419C592.35 113.195 588.115 108.96 582.891 108.96C577.667 108.96 573.433 113.195 573.433 118.419C573.433 123.643 577.667 127.878 582.891 127.878Z" fill="#617FA8"/>
<path fill-rule="evenodd" clip-rule="evenodd" d="M141.402 274.805C141.402 274.805 141.402 274.805 140.463 274.403C139.511 274.03 139.511 274.03 139.512 274.03L139.512 274.029L139.517 274.016L139.535 273.97C139.551 273.929 139.574 273.869 139.605 273.789C139.666 273.63 139.756 273.396 139.868 273.096C140.094 272.497 140.413 271.638 140.785 270.598C141.53 268.518 142.483 265.726 143.323 262.867C144.166 259.997 144.882 257.101 145.17 254.8C145.314 253.644 145.343 252.696 145.25 251.998C145.16 251.325 144.985 251.089 144.906 251.02C144.846 251.021 144.663 251.054 144.277 251.317C143.701 251.71 142.975 252.429 142.137 253.441C140.474 255.448 138.558 258.371 136.728 261.412C134.905 264.443 133.191 267.551 131.931 269.903C131.301 271.079 130.786 272.065 130.429 272.756C130.25 273.102 130.111 273.373 130.016 273.559C129.969 273.651 129.933 273.722 129.909 273.77L129.873 273.841C129.873 273.841 129.873 273.841 128.961 273.381C128.049 272.922 128.049 272.921 128.049 272.921L128.087 272.846C128.112 272.797 128.148 272.725 128.197 272.63C128.293 272.442 128.434 272.167 128.614 271.817C128.976 271.119 129.495 270.125 130.13 268.939C131.399 266.57 133.131 263.429 134.978 260.359C136.819 257.298 138.799 254.267 140.564 252.137C141.439 251.081 142.31 250.186 143.126 249.629C143.876 249.118 144.986 248.631 146 249.292C146.836 249.837 147.154 250.823 147.275 251.728C147.401 252.678 147.35 253.825 147.197 255.053C147.009 256.558 146.655 258.268 146.214 260.032C147.987 256.704 149.914 253.422 151.691 251.126C152.581 249.974 153.488 248.999 154.368 248.405C155.227 247.826 156.379 247.419 157.444 248.12C158.304 248.685 158.742 249.648 158.964 250.636C159.191 251.643 159.234 252.846 159.166 254.128C159.03 256.698 158.433 259.805 157.715 262.772C157.545 263.471 157.369 264.165 157.188 264.845C157.981 263.656 158.82 262.539 159.653 261.678C160.242 261.069 160.878 260.535 161.54 260.211C162.212 259.881 163.023 259.721 163.822 260.079L163.823 260.079C164.704 260.475 165.067 261.337 165.208 262.108C165.353 262.899 165.321 263.85 165.197 264.844C164.947 266.846 164.287 269.317 163.538 271.685C162.785 274.064 161.926 276.39 161.257 278.118C160.922 278.982 160.634 279.699 160.429 280.2C160.326 280.451 160.245 280.648 160.189 280.783C160.161 280.85 160.139 280.902 160.124 280.937L160.107 280.977L160.101 280.991L160.101 280.992C160.101 280.992 160.101 280.992 159.161 280.593C158.22 280.194 158.22 280.194 158.22 280.194L158.225 280.182L158.241 280.145C158.255 280.112 158.276 280.062 158.303 279.997C158.357 279.866 158.437 279.674 158.537 279.428C158.738 278.936 159.022 278.231 159.352 277.38C160.012 275.675 160.855 273.393 161.59 271.069C162.329 268.732 162.944 266.404 163.169 264.591C163.283 263.677 163.289 262.967 163.199 262.477C163.155 262.236 163.095 262.093 163.047 262.014C163.025 261.978 163.008 261.96 163.001 261.953C162.994 261.947 162.99 261.945 162.987 261.943L163.405 261.011L162.987 261.944C162.931 261.918 162.785 261.876 162.439 262.045C162.081 262.22 161.637 262.566 161.121 263.099C160.096 264.159 158.99 265.748 157.955 267.445C156.928 269.129 156.003 270.866 155.332 272.187C154.997 272.846 154.727 273.399 154.542 273.786C154.449 273.98 154.377 274.132 154.328 274.235C154.304 274.286 154.286 274.326 154.274 274.352L154.26 274.381L154.256 274.39C154.256 274.39 154.256 274.39 154.255 274.389L152.365 273.622L152.489 273.666C152.365 273.622 152.365 273.622 152.365 273.622L152.366 273.621L152.371 273.607L152.387 273.561C152.401 273.521 152.422 273.459 152.45 273.379C152.506 273.219 152.587 272.982 152.69 272.679C152.895 272.073 153.183 271.203 153.516 270.15C154.182 268.041 155.023 265.207 155.729 262.291C156.438 259.364 157 256.401 157.126 254.02C157.189 252.826 157.139 251.833 156.971 251.085C156.799 250.319 156.539 249.97 156.322 249.827C156.321 249.826 156.321 249.826 156.32 249.826C156.3 249.811 156.123 249.686 155.511 250.099C154.904 250.508 154.157 251.276 153.307 252.376C151.62 254.555 149.735 257.759 147.958 261.104C146.187 264.437 144.548 267.863 143.35 270.459C142.751 271.756 142.263 272.844 141.925 273.607C141.757 273.989 141.625 274.289 141.536 274.493C141.492 274.596 141.458 274.674 141.435 274.726L141.41 274.786L141.402 274.804L141.402 274.805ZM144.929 251.023C144.929 251.023 144.925 251.023 144.917 251.02C144.925 251.021 144.929 251.022 144.929 251.023ZM140.463 274.403L139.512 274.03L141.402 274.805L140.463 274.403Z" fill="#001A39"/>
<path fill-rule="evenodd" clip-rule="evenodd" d="M124.757 248.986C124.757 248.986 124.757 248.986 124.543 247.988C124.329 246.989 124.329 246.989 124.33 246.989L124.335 246.987L124.35 246.984L124.406 246.973C124.454 246.963 124.524 246.948 124.614 246.931C124.793 246.895 125.05 246.846 125.367 246.79C126 246.678 126.877 246.538 127.848 246.425C129.729 246.207 132.179 246.063 133.85 246.563C134.682 246.812 135.619 247.312 135.947 248.343C136.266 249.349 135.864 250.431 135.142 251.484C133.679 253.62 130.205 256.651 123.745 261.001L122.604 259.306C129.075 254.95 132.239 252.107 133.457 250.33C134.075 249.427 134.025 249.042 134 248.962C133.982 248.908 133.878 248.703 133.265 248.52C132.045 248.155 129.987 248.234 128.084 248.455C127.163 248.562 126.328 248.695 125.723 248.802C125.421 248.855 125.177 248.902 125.01 248.935C124.926 248.952 124.862 248.965 124.819 248.973L124.771 248.983L124.759 248.986L124.757 248.986Z" fill="#001A39"/>
<path d="M519.718 317.746C512.929 319.236 505.546 317.464 500.065 312.342C491.192 304.05 490.677 290.114 498.913 281.218L570.225 204.198C578.465 195.302 592.333 194.815 601.206 203.106C610.078 211.397 610.593 225.334 602.358 234.23L531.045 311.25C527.893 314.65 523.92 316.824 519.718 317.746Z" fill="#FBC73B"/>
<path d="M617.714 398.889C610.262 398.889 603.235 394.359 600.41 386.978L578.755 330.379C575.098 320.823 579.879 310.113 589.434 306.461C598.99 302.804 609.695 307.59 613.352 317.141L635.007 373.74C638.664 383.296 633.884 394.001 624.328 397.658C622.152 398.496 619.915 398.889 617.714 398.889Z" fill="#F96155"/>
<path d="M639.123 212.184L619.762 289.404L672.281 302.571L691.642 225.351L639.123 212.184Z" fill="#BACADF"/>
<path d="M725.528 237L710 239.414L712.414 254.942L727.942 252.528L725.528 237Z" fill="#F96155"/>
<path d="M576.284 41.2237L544.978 95.4448L565.81 107.473L597.116 53.2514L576.284 41.2237Z" fill="#FBC73B"/>
<path d="M430.825 193.18H374.568L406.56 236.148L430.825 193.18Z" fill="#FBC73B"/>
<path d="M426 319L486.047 335.103L441.261 375.952L426 319Z" fill="#617FA8"/>
<path d="M602.453 420.309L655.61 402.5L645.763 456.648L602.453 420.309Z" fill="#FBC73B"/>
<path fill-rule="evenodd" clip-rule="evenodd" d="M147.553 354.977L158.621 340.947L159.824 341.896L148.756 355.925L147.553 354.977Z" fill="#001A39"/>
<path fill-rule="evenodd" clip-rule="evenodd" d="M104.028 291.038L107.976 286.033L109.179 286.982L105.231 291.987L104.028 291.038Z" fill="#001A39"/>
<path fill-rule="evenodd" clip-rule="evenodd" d="M288.865 387.014L295.989 374.45L297.322 375.206L290.197 387.77L288.865 387.014Z" fill="#001A39"/>
<path fill-rule="evenodd" clip-rule="evenodd" d="M172.151 407.5L179.276 394.936L180.609 395.692L173.484 408.256L172.151 407.5Z" fill="#001A39"/>
<path fill-rule="evenodd" clip-rule="evenodd" d="M194.305 349.173L181.363 352.662L180.964 351.182L193.906 347.694L194.305 349.173Z" fill="#001A39"/>
<path fill-rule="evenodd" clip-rule="evenodd" d="M213.781 338.913L202.524 325.598L203.694 324.608L214.951 337.923L213.781 338.913Z" fill="#001A39"/>
<path fill-rule="evenodd" clip-rule="evenodd" d="M178.433 379.792L167.181 366.477L168.352 365.488L179.603 378.803L178.433 379.792Z" fill="#001A39"/>
<path fill-rule="evenodd" clip-rule="evenodd" d="M193.821 304.913L190.451 300.924L191.621 299.935L194.992 303.924L193.821 304.913Z" fill="#001A39"/>
<path fill-rule="evenodd" clip-rule="evenodd" d="M218.077 302.033L215.079 312.881L213.602 312.473L216.6 301.625L218.077 302.033Z" fill="#001A39"/>
<path fill-rule="evenodd" clip-rule="evenodd" d="M243.924 325.592L235.87 313.845L237.133 312.979L245.187 324.726L243.924 325.592Z" fill="#001A39"/>
<path fill-rule="evenodd" clip-rule="evenodd" d="M93.4712 304.576L85.422 292.829L86.6859 291.963L94.7351 303.71L93.4712 304.576Z" fill="#001A39"/>
<path fill-rule="evenodd" clip-rule="evenodd" d="M236.105 342.581L232.351 354.772L230.887 354.321L234.641 342.13L236.105 342.581Z" fill="#001A39"/>
<path fill-rule="evenodd" clip-rule="evenodd" d="M305.08 328.753L291.024 322.67L291.633 321.264L305.688 327.347L305.08 328.753Z" fill="#001A39"/>
<path fill-rule="evenodd" clip-rule="evenodd" d="M245.247 393.773L236.105 386.337L237.071 385.148L246.214 392.585L245.247 393.773Z" fill="#001A39"/>
<path fill-rule="evenodd" clip-rule="evenodd" d="M280.607 338.072L272.042 346.75L270.951 345.674L279.516 336.996L280.607 338.072Z" fill="#001A39"/>
<path fill-rule="evenodd" clip-rule="evenodd" d="M209.283 361.73L200.718 370.407L199.627 369.331L208.192 360.654L209.283 361.73Z" fill="#001A39"/>
<path fill-rule="evenodd" clip-rule="evenodd" d="M275.594 312.25L277.479 324.558L275.964 324.79L274.08 312.481L275.594 312.25Z" fill="#001A39"/>
<path fill-rule="evenodd" clip-rule="evenodd" d="M212.202 381.71L214.081 394.018L212.567 394.25L210.687 381.941L212.202 381.71Z" fill="#001A39"/>
<path fill-rule="evenodd" clip-rule="evenodd" d="M249.316 293.886L235.833 299.111L235.279 297.683L248.763 292.458L249.316 293.886Z" fill="#001A39"/>
<path fill-rule="evenodd" clip-rule="evenodd" d="M156.285 384.4L142.306 380.738L142.695 379.256L156.673 382.918L156.285 384.4Z" fill="#001A39"/>
<path fill-rule="evenodd" clip-rule="evenodd" d="M314.518 256.25L305.197 245.218L306.368 244.229L315.689 255.261L314.518 256.25Z" fill="#001A39"/>
<path fill-rule="evenodd" clip-rule="evenodd" d="M286.237 294.101L294.904 296.823L294.445 298.285L285.777 295.563L286.237 294.101Z" fill="#001A39"/>
<path fill-rule="evenodd" clip-rule="evenodd" d="M199.049 464.105L202.895 470.775L201.567 471.541L197.721 464.87L199.049 464.105Z" fill="#001A39"/>
<path fill-rule="evenodd" clip-rule="evenodd" d="M290.409 433.445L292.309 436.74L290.982 437.505L289.082 434.211L290.409 433.445Z" fill="#001A39"/>
<path fill-rule="evenodd" clip-rule="evenodd" d="M271.548 268.714L268.53 281.605L267.038 281.256L270.056 268.365L271.548 268.714Z" fill="#001A39"/>
<path fill-rule="evenodd" clip-rule="evenodd" d="M218.222 273.513L208.237 287.809L206.981 286.932L216.966 272.636L218.222 273.513Z" fill="#001A39"/>
<path fill-rule="evenodd" clip-rule="evenodd" d="M236.751 272.382L248.999 277.934L248.366 279.329L236.119 273.778L236.751 272.382Z" fill="#001A39"/>
<path fill-rule="evenodd" clip-rule="evenodd" d="M262.88 251.527L275.628 252.023L275.568 253.554L262.821 253.058L262.88 251.527Z" fill="#001A39"/>
<path fill-rule="evenodd" clip-rule="evenodd" d="M242.535 253.772L241.371 238.874L242.898 238.755L244.063 253.653L242.535 253.772Z" fill="#001A39"/>
<path fill-rule="evenodd" clip-rule="evenodd" d="M222.656 238.356L219.495 230.986L220.903 230.382L224.064 237.752L222.656 238.356Z" fill="#001A39"/>
<path fill-rule="evenodd" clip-rule="evenodd" d="M278.208 237.768L286.875 226.21L288.101 227.129L279.434 238.687L278.208 237.768Z" fill="#001A39"/>
<path fill-rule="evenodd" clip-rule="evenodd" d="M299.262 265.669L294.91 276.052L293.497 275.46L297.849 265.077L299.262 265.669Z" fill="#001A39"/>
<path fill-rule="evenodd" clip-rule="evenodd" d="M317.381 276.318H324.01V277.85H317.381V276.318Z" fill="#001A39"/>
<path fill-rule="evenodd" clip-rule="evenodd" d="M315.661 294.086L307.923 304.219L306.706 303.289L314.443 293.156L315.661 294.086Z" fill="#001A39"/>
<path fill-rule="evenodd" clip-rule="evenodd" d="M127.416 378.404L125.863 381.821L124.469 381.187L126.021 377.77L127.416 378.404Z" fill="#001A39"/>
<path fill-rule="evenodd" clip-rule="evenodd" d="M275.247 365.368L273.623 381.9L272.098 381.75L273.722 365.218L275.247 365.368Z" fill="#001A39"/>
<path fill-rule="evenodd" clip-rule="evenodd" d="M288.546 405.135L295.38 415.232L294.111 416.091L287.277 405.994L288.546 405.135Z" fill="#001A39"/>
<path fill-rule="evenodd" clip-rule="evenodd" d="M301.637 349.383L308.465 359.481L307.196 360.339L300.367 350.242L301.637 349.383Z" fill="#001A39"/>
<path fill-rule="evenodd" clip-rule="evenodd" d="M164.565 430.6L171.399 440.697L170.13 441.556L163.296 431.459L164.565 430.6Z" fill="#001A39"/>
<path fill-rule="evenodd" clip-rule="evenodd" d="M267.778 429.295L278.871 423.636L279.567 425.001L268.474 430.66L267.778 429.295Z" fill="#001A39"/>
<path fill-rule="evenodd" clip-rule="evenodd" d="M308.361 414.601L319.449 408.942L320.145 410.307L309.057 415.966L308.361 414.601Z" fill="#001A39"/>
<path fill-rule="evenodd" clip-rule="evenodd" d="M265.454 399.409L259.121 412.392L257.744 411.72L264.077 398.737L265.454 399.409Z" fill="#001A39"/>
<path fill-rule="evenodd" clip-rule="evenodd" d="M246.679 448.056L242.624 456.381L241.247 455.71L245.302 447.385L246.679 448.056Z" fill="#001A39"/>
<path fill-rule="evenodd" clip-rule="evenodd" d="M322.481 378.494L312.849 378.98L312.772 377.449L322.404 376.964L322.481 378.494Z" fill="#001A39"/>
<path fill-rule="evenodd" clip-rule="evenodd" d="M317.967 339.421L323.35 345.821L322.178 346.807L316.795 340.408L317.967 339.421Z" fill="#001A39"/>
<path fill-rule="evenodd" clip-rule="evenodd" d="M212.957 432.933L207.753 449.573L206.291 449.116L211.495 432.476L212.957 432.933Z" fill="#001A39"/>
<path fill-rule="evenodd" clip-rule="evenodd" d="M176.139 453.872L186.905 450.583L187.353 452.049L176.586 455.338L176.139 453.872Z" fill="#001A39"/>
<path fill-rule="evenodd" clip-rule="evenodd" d="M193.964 411.557L206.268 408.186L206.673 409.664L194.369 413.035L193.964 411.557Z" fill="#001A39"/>
<path fill-rule="evenodd" clip-rule="evenodd" d="M319.116 316.874L323.233 315.066L323.849 316.469L319.733 318.277L319.116 316.874Z" fill="#001A39"/>
<path fill-rule="evenodd" clip-rule="evenodd" d="M242.698 421.454L230.313 420.157L230.472 418.633L242.858 419.93L242.698 421.454Z" fill="#001A39"/>
<path fill-rule="evenodd" clip-rule="evenodd" d="M70.5648 326.393L77.6436 313.798L78.9793 314.549L71.9005 327.144L70.5648 326.393Z" fill="#001A39"/>
<path fill-rule="evenodd" clip-rule="evenodd" d="M93.5235 350.608L89.7236 351.645L89.3203 350.166L93.1202 349.13L93.5235 350.608Z" fill="#001A39"/>
<path fill-rule="evenodd" clip-rule="evenodd" d="M106.329 339.701L95.0264 326.427L96.193 325.434L107.496 338.708L106.329 339.701Z" fill="#001A39"/>
<path fill-rule="evenodd" clip-rule="evenodd" d="M113.985 305.769L111.023 316.627L109.545 316.224L112.507 305.366L113.985 305.769Z" fill="#001A39"/>
<path fill-rule="evenodd" clip-rule="evenodd" d="M144.367 321.973L130.204 320.492L130.364 318.968L144.526 320.449L144.367 321.973Z" fill="#001A39"/>
<path fill-rule="evenodd" clip-rule="evenodd" d="M127.319 339.626L123.611 351.828L122.145 351.382L125.853 339.181L127.319 339.626Z" fill="#001A39"/>
<path fill-rule="evenodd" clip-rule="evenodd" d="M261.114 228.109L249.009 225.208L249.366 223.718L261.471 226.619L261.114 228.109Z" fill="#001A39"/>
<path fill-rule="evenodd" clip-rule="evenodd" d="M213.294 259.734L201.184 256.833L201.541 255.343L213.651 258.244L213.294 259.734Z" fill="#001A39"/>
<path fill-rule="evenodd" clip-rule="evenodd" d="M460.007 229.074L471.453 214.237L473.07 215.485L461.625 230.322L460.007 229.074Z" fill="#F96155"/>
</svg>
