<svg width="708" height="540" viewBox="0 0 708 540" fill="none" xmlns="http://www.w3.org/2000/svg">
<path d="M49.0879 138.742C53.8066 149.588 48.8415 162.207 37.9955 166.926C28.4063 171.1 17.4322 167.699 11.7555 159.362C11.0109 158.267 10.3567 157.09 9.81127 155.834C5.09254 144.988 10.0577 132.368 20.9037 127.649C26.5472 125.193 32.6648 125.359 37.9052 127.611C42.7425 129.689 46.8257 133.544 49.0879 138.742Z" fill="#617FA8"/>
<path d="M38.1236 118.141C40.0822 122.646 38.0241 127.886 33.5141 129.85C29.5304 131.581 24.9732 130.172 22.6162 126.71C22.3079 126.255 22.0375 125.766 21.8099 125.245C19.8512 120.739 21.9093 115.499 26.4194 113.536C28.7622 112.516 31.3039 112.582 33.4807 113.521C35.4868 114.38 37.1798 115.978 38.1236 118.141Z" fill="white"/>
<path d="M23.6023 121.731C24.7974 124.477 23.5403 127.668 20.7944 128.863C18.3663 129.921 15.5919 129.058 14.155 126.947C13.9653 126.672 13.7997 126.374 13.6622 126.056C12.4671 123.31 13.7238 120.118 16.4697 118.923C17.8972 118.302 19.4476 118.345 20.7708 118.914C21.9991 119.44 23.0285 120.412 23.6023 121.731Z" fill="white"/>
<path fill-rule="evenodd" clip-rule="evenodd" d="M49.9388 152.2C49.9384 152.201 49.938 152.201 50.0698 153.14C50.2016 154.079 50.2011 154.079 50.2007 154.079L50.1997 154.079L50.1975 154.08L50.1917 154.08L50.1752 154.083C50.1621 154.084 50.1446 154.086 50.1231 154.089C50.0801 154.093 50.0208 154.099 49.947 154.105C49.7997 154.116 49.5935 154.127 49.3443 154.126C48.8492 154.124 48.1661 154.077 47.4292 153.889C45.938 153.507 44.1712 152.522 43.4105 150.179L45.2147 149.594C45.7155 151.136 46.8273 151.777 47.8993 152.051C48.444 152.19 48.9637 152.228 49.351 152.229C49.5429 152.23 49.6978 152.222 49.8013 152.214C49.8529 152.21 49.8914 152.206 49.9148 152.203C49.9266 152.202 49.9345 152.201 49.9385 152.2C49.9404 152.2 49.9414 152.2 49.9413 152.2L49.9405 152.2L49.9394 152.2L49.9388 152.2Z" fill="#001A39"/>
<path d="M47.4709 148.778C48.6453 148.267 48.6548 145.686 47.4917 143.013C46.3285 140.34 44.4332 138.587 43.2587 139.098C42.0843 139.609 42.0752 142.19 43.2384 144.863C44.4015 147.537 46.2964 149.289 47.4709 148.778Z" fill="#001A39"/>
<path d="M39.5833 152.515C40.7578 152.004 40.7673 149.423 39.6041 146.75C38.441 144.076 36.5457 142.324 35.3712 142.835C34.1968 143.346 34.1877 145.927 35.3509 148.6C36.514 151.273 38.4089 153.026 39.5833 152.515Z" fill="#001A39"/>
<path d="M16.944 152.732C18.6608 156.673 16.8539 161.254 12.9129 162.971C9.43199 164.488 5.44331 163.251 3.38035 160.225C3.11003 159.827 2.87279 159.4 2.67361 158.945C0.961587 155.004 2.76372 150.422 6.70469 148.706C8.75343 147.814 10.9779 147.876 12.8796 148.691C14.639 149.441 16.1236 150.84 16.944 152.732Z" fill="#617FA8"/>
<path d="M36.7672 127.483C36.7672 127.483 31.7307 134.957 18.1151 138.144L22.3926 150.356L13.9701 152.002C13.9701 152.002 9.00954 146.036 3.45613 151.338C3.45613 151.338 -2.96527 138.087 3.79746 131.988C15.6251 121.332 30.5356 122.1 36.7672 127.483Z" fill="white"/>
<path d="M654.111 502.136C683.461 502.136 707.254 494.584 707.254 485.267C707.254 475.951 683.461 468.398 654.111 468.398C624.76 468.398 600.966 475.951 600.966 485.267C600.966 494.584 624.76 502.136 654.111 502.136Z" fill="#D5E2F3"/>
<path d="M304.327 374.726L266.933 410.517L258.396 368.855C258.396 368.855 237.278 369.239 237.629 369.889C237.98 370.538 257.044 462.674 257.044 462.674L304.327 374.726Z" fill="#F96155"/>
<path d="M105.789 448.528L75.3567 493.856L171.13 540L109.478 480.501L129.819 449.908" fill="#F96155"/>
<path fill-rule="evenodd" clip-rule="evenodd" d="M275.426 409.319L275.573 390.691L277.47 390.706L277.323 409.334L275.426 409.319Z" fill="#001A39"/>
<path fill-rule="evenodd" clip-rule="evenodd" d="M281.743 403.477L281.89 384.848L283.787 384.863L283.64 403.492L281.743 403.477Z" fill="#001A39"/>
<path fill-rule="evenodd" clip-rule="evenodd" d="M132.937 493.08L115.305 499.093L114.693 497.298L132.325 491.284L132.937 493.08Z" fill="#001A39"/>
<path fill-rule="evenodd" clip-rule="evenodd" d="M139.705 498.5L122.072 504.513L121.46 502.718L139.093 496.705L139.705 498.5Z" fill="#001A39"/>
<path fill-rule="evenodd" clip-rule="evenodd" d="M126.17 487.664L108.537 493.677L107.925 491.882L125.558 485.868L126.17 487.664Z" fill="#001A39"/>
<path d="M38.3704 290.804C40.4097 339.167 134.723 375.565 134.723 375.565L95.441 443.088C95.441 443.088 94.4356 461.261 119.964 473.833C143.7 485.524 159.663 474.184 159.663 474.184L198.357 394.886C208.482 374.133 201.771 349.093 182.621 336.184C156.097 318.305 131.863 299.866 131.863 299.866L209.966 294.066L231.179 389.152C231.179 389.152 245.478 399.017 263.518 393.691C284.437 387.516 285.931 366.607 285.931 366.607L262.792 265.175C257.851 243.512 238.155 228.459 215.956 229.379C172.933 231.158 106.173 234.9 83.144 241.567C52.3038 250.512 37.5168 270.539 38.3704 290.804Z" fill="#FBC73B"/>
<path d="M42.292 272.92C52.0662 270.781 62.8364 274.305 69.2387 282.016C75.5936 289.675 77.7229 299.814 80.8577 309.01C83.6036 317.077 87.7059 325.243 94.6441 330.498C102.294 336.298 111.271 335.634 119.542 331.489C124.763 328.871 129.534 325.457 134.789 322.896C140.736 320.003 147.067 318.163 153.37 316.228C154.285 315.948 154.171 314.388 153.133 314.483C142.211 315.455 132.617 320.629 123.369 326.14C118.821 328.852 113.936 331.65 108.544 332.058C103.726 332.423 99.1257 330.673 95.4551 327.605C80.5258 315.132 83.0581 292.53 69.7555 278.962C62.5091 271.563 51.8433 269.04 41.9553 271.673C41.1443 271.891 41.4858 273.095 42.292 272.92Z" fill="#F96155"/>
<path d="M89.6836 240.325C95.7492 244.583 100.411 250.516 106.107 255.23C111.551 259.736 117.92 262.576 124.929 263.563C138.322 265.455 152.298 260.196 161.489 250.298C166.075 245.356 169.352 238.94 169.447 232.111C169.461 231.158 167.991 230.935 167.768 231.883C166.369 237.769 164.448 243.241 160.398 247.865C156.519 252.295 151.439 255.733 146.114 258.199C133.475 264.051 117.588 262.415 106.756 253.551C101.141 248.961 96.3325 243.388 90.2384 239.386C89.6409 238.992 89.1145 239.926 89.6836 240.325Z" fill="#F96155"/>
<path d="M153.929 298.278C154.342 286.147 160.08 274.589 169.793 267.219C178.457 260.642 191.257 256.686 201.966 260.016C207.974 261.884 211.161 266.835 213.917 272.142C216.535 277.188 219.043 282.291 221.813 287.256C227.096 296.727 233.441 306.074 242.333 312.515C251.15 318.903 264.509 323.138 275.071 318.803C276.185 318.348 275.786 316.764 274.568 316.982C262.745 319.111 250.908 316.399 241.584 308.621C232.45 301 226.365 290.529 220.926 280.124C218.279 275.059 216.008 269.562 212.651 264.915C209.369 260.367 204.849 257.659 199.31 256.805C188.535 255.145 177.049 258.73 168.489 265.299C158.269 273.143 152.635 285.497 152.421 298.282C152.412 299.245 153.896 299.24 153.929 298.278Z" fill="#F96155"/>
<path d="M206.215 229.783C206.722 241.563 217.251 250.061 227.191 254.661C237.259 259.318 249.921 261.614 260.881 259.124C261.801 258.915 261.578 257.516 260.662 257.507C255.451 257.455 250.348 257.668 245.15 257.023C239.929 256.378 234.783 255.117 229.913 253.12C220.219 249.146 208.586 241.093 207.424 229.783C207.338 229.033 206.181 229 206.215 229.783Z" fill="#F96155"/>
<path d="M217.512 330.578C231.568 332.93 244.543 339.437 253.544 350.715C262.754 362.253 266.439 377.647 264.779 392.192C264.685 393.027 266.06 393.202 266.24 392.391C273.126 362.002 248.688 330.635 217.72 329.008C216.838 328.956 216.61 330.426 217.512 330.578Z" fill="#F96155"/>
<path d="M105.262 361.964C111.764 355.737 119.736 352.104 128.585 350.739C136.539 349.51 145.179 349.093 153.019 351.142C162.034 353.499 168.45 359.683 171.562 368.418C174.872 377.704 174.435 387.668 175 397.362C175.265 401.957 175.346 407.359 178.196 411.224C180.53 414.392 183.138 416.061 187.05 416.379C188.269 416.478 188.559 414.444 187.34 414.23C176.65 412.319 177.793 398.329 177.49 390.115C177.143 380.844 176.537 371.316 172.202 362.917C163.922 346.869 145.07 345.707 129.159 348.05C119.399 349.487 111.105 353.859 104.39 361.087C103.854 361.675 104.688 362.514 105.262 361.964Z" fill="#F96155"/>
<path d="M123.706 393.715C130.44 395.929 136.814 399.79 140.622 405.941C145.099 413.168 144.193 421.23 139.251 427.936C134.533 434.338 127.542 439.104 120.813 443.159C113.609 447.499 105.902 450.657 98.2718 454.119C97.6221 454.413 98.1109 455.324 98.7322 455.205C106.007 453.835 112.907 450.776 119.357 447.205C125.456 443.828 131.436 439.863 136.529 435.083C141.115 430.777 145.165 425.37 146.161 419.011C147.138 412.798 144.885 406.68 140.935 401.914C138.843 399.391 136.164 397.11 133.304 395.493C130.345 393.819 127.277 393.321 124.024 392.553C123.27 392.382 122.975 393.477 123.706 393.715Z" fill="#F96155"/>
<path d="M174.554 442.083C164.932 444.957 155.969 450.159 147.973 456.163C144.118 459.056 140.451 462.214 137.094 465.672C133.878 468.982 130.231 472.871 128.524 477.229C128.23 477.983 129.292 478.462 129.805 477.974C133.129 474.82 135.775 470.865 138.972 467.55C142.434 463.96 146.199 460.673 150.183 457.666C157.894 451.838 166.426 447.375 174.739 442.51C174.962 442.377 174.815 442.002 174.554 442.083Z" fill="#F96155"/>
<path fill-rule="evenodd" clip-rule="evenodd" d="M108.305 281.034L136.205 300.516L135.119 302.071L107.219 282.589L108.305 281.034Z" fill="#001A39"/>
<path fill-rule="evenodd" clip-rule="evenodd" d="M248.904 280.637C248.904 280.637 248.903 280.636 245.558 281.845C242.213 283.054 242.212 283.051 242.211 283.048L242.207 283.037L242.194 283.001C242.183 282.97 242.168 282.927 242.148 282.871C242.109 282.758 242.052 282.595 241.979 282.383C241.833 281.957 241.624 281.334 241.364 280.524C240.843 278.904 240.115 276.535 239.276 273.507C237.598 267.452 235.471 258.751 233.659 248.112C230.039 226.853 227.657 197.754 232.69 166.53C237.727 135.279 250.2 101.856 276.313 72.1004C302.43 42.3388 342.002 16.4603 400.883 0L402.798 6.851C345.015 23.0045 306.72 48.2353 281.66 76.7925C256.595 105.355 244.581 137.461 239.713 167.662C234.841 197.889 237.138 226.164 240.672 246.917C242.437 257.285 244.507 265.748 246.131 271.607C246.943 274.536 247.642 276.811 248.136 278.346C248.383 279.113 248.578 279.695 248.71 280.08C248.776 280.273 248.826 280.417 248.858 280.51L248.881 280.573L248.894 280.611L248.902 280.633L248.904 280.637Z" fill="#E4EDFA"/>
<path fill-rule="evenodd" clip-rule="evenodd" d="M666.389 489.176L644.494 448.746L646.579 447.617L668.474 488.046L666.389 489.176Z" fill="#001A39"/>
<path fill-rule="evenodd" clip-rule="evenodd" d="M240.115 189.369L100.226 190.302L100.216 188.879L240.408 187.945L240.916 188.153C243.307 190.545 243.827 192.984 243.405 195.08C243.066 196.76 242.137 198.154 241.229 199.085C241.449 199.326 241.709 199.642 241.967 200.032C242.611 201.005 243.25 202.449 243.21 204.307C243.163 206.47 242.325 207.96 241.481 208.906C241.164 209.262 240.848 209.539 240.576 209.747C241.509 210.803 242.459 212.301 242.767 213.957C242.959 214.987 242.905 216.092 242.427 217.175C241.949 218.257 241.074 219.262 239.717 220.137L239.349 220.25L50.9596 224.822L50.9251 223.399L239.11 218.833C240.18 218.109 240.797 217.343 241.125 216.601C241.468 215.822 241.517 215.016 241.369 214.217C241.065 212.589 239.945 211.05 238.976 210.135L239.162 208.975C239.161 208.974 239.161 208.974 239.161 208.974L239.16 208.975L239.159 208.975C239.161 208.974 239.166 208.972 239.172 208.968C239.179 208.965 239.188 208.96 239.2 208.954C239.212 208.948 239.226 208.94 239.242 208.931C239.306 208.895 239.403 208.836 239.523 208.754C239.763 208.588 240.089 208.329 240.419 207.959C241.071 207.228 241.749 206.054 241.788 204.277C241.82 202.777 241.306 201.612 240.78 200.817C240.517 200.418 240.252 200.116 240.056 199.915C239.958 199.815 239.878 199.741 239.825 199.694C239.812 199.682 239.8 199.672 239.79 199.664C239.78 199.655 239.773 199.649 239.767 199.644L239.756 199.635L239.756 199.635C239.756 199.635 239.756 199.635 239.756 199.635L239.74 198.528C240.618 197.799 241.678 196.445 242.01 194.799C242.32 193.26 242.013 191.373 240.115 189.369Z" fill="white"/>
<path fill-rule="evenodd" clip-rule="evenodd" d="M240.188 146.009L92.8875 158.425L92.768 157.007L240.068 144.592L240.188 146.009Z" fill="#D5E2F3"/>
<path d="M243.856 171.332C243.856 171.332 220.603 174.656 219.56 171.332C218.517 168.007 242.988 165.442 242.988 165.442C242.988 165.442 212.271 166.348 211.749 164.081C211.228 161.814 246.805 156.531 246.63 156.531C246.454 156.531 216.957 156.682 216.435 153.965C215.913 151.248 248.19 147.473 248.19 147.473" fill="#001A39"/>
<path fill-rule="evenodd" clip-rule="evenodd" d="M217.31 153.88C217.451 153.788 217.655 153.679 217.934 153.558C218.711 153.219 219.882 152.86 221.349 152.494C224.271 151.766 228.232 151.043 232.23 150.402C236.223 149.762 240.234 149.206 243.248 148.81C244.754 148.612 246.011 148.454 246.891 148.346C247.331 148.292 247.677 148.25 247.913 148.222C248.03 148.208 248.121 148.197 248.181 148.19L248.273 148.179C248.273 148.179 248.273 148.179 248.19 147.473C248.108 146.766 248.107 146.766 248.107 146.766L248.014 146.777C247.953 146.784 247.862 146.795 247.743 146.809C247.506 146.838 247.159 146.88 246.717 146.934C245.834 147.043 244.574 147.201 243.062 147.4C240.041 147.796 236.015 148.354 232.004 148.997C227.998 149.64 223.988 150.37 221.004 151.114C219.519 151.484 218.254 151.866 217.365 152.254C216.927 152.445 216.531 152.658 216.244 152.903C215.98 153.128 215.629 153.54 215.736 154.099C215.827 154.574 216.196 154.872 216.49 155.05C216.809 155.244 217.218 155.402 217.671 155.537C218.584 155.81 219.825 156.032 221.257 156.218C224.13 156.59 227.897 156.827 231.633 156.978C233.868 157.068 236.097 157.128 238.128 157.168C235.345 157.626 232.136 158.172 228.932 158.756C224.525 159.558 220.114 160.435 216.832 161.254C215.195 161.663 213.813 162.064 212.846 162.443C212.369 162.63 211.95 162.827 211.648 163.041C211.498 163.146 211.336 163.283 211.216 163.459C211.089 163.646 210.983 163.921 211.056 164.24C211.117 164.503 211.272 164.692 211.414 164.817C211.557 164.943 211.724 165.039 211.886 165.115C212.21 165.265 212.627 165.385 213.091 165.485C214.028 165.688 215.309 165.841 216.794 165.959C219.774 166.195 223.683 166.294 227.559 166.323C228.85 166.332 230.138 166.334 231.39 166.33C231.179 166.366 230.969 166.402 230.759 166.44C227.758 166.969 224.756 167.609 222.558 168.333C221.467 168.693 220.52 169.091 219.866 169.537C219.54 169.759 219.239 170.025 219.043 170.349C218.833 170.696 218.745 171.111 218.881 171.545C219.008 171.949 219.288 172.247 219.599 172.464C219.908 172.679 220.286 172.84 220.694 172.966C221.508 173.217 222.566 173.365 223.749 173.444C226.125 173.603 229.168 173.497 232.149 173.288C235.136 173.079 238.087 172.766 240.29 172.506C241.392 172.375 242.307 172.258 242.948 172.173C243.268 172.131 243.52 172.097 243.692 172.073C243.778 172.061 243.843 172.052 243.888 172.046L243.952 172.037L243.955 172.036L243.956 172.036C243.956 172.036 243.956 172.036 243.856 171.332C243.755 170.628 243.755 170.628 243.755 170.628L243.739 170.63L243.69 170.637C243.647 170.643 243.582 170.652 243.497 170.664C243.328 170.687 243.079 170.721 242.761 170.763C242.126 170.847 241.217 170.963 240.123 171.093C237.933 171.352 235.006 171.662 232.05 171.869C229.087 172.076 226.121 172.177 223.844 172.025C222.701 171.948 221.771 171.81 221.114 171.607C220.785 171.505 220.557 171.397 220.411 171.296C220.282 171.206 220.249 171.144 220.241 171.124C220.243 171.117 220.249 171.104 220.26 171.086C220.308 171.007 220.425 170.878 220.668 170.712C221.153 170.381 221.946 170.033 223.003 169.685C225.1 168.993 228.02 168.368 231.006 167.841C233.985 167.315 236.999 166.892 239.271 166.6C240.407 166.454 241.355 166.342 242.02 166.265C242.352 166.227 242.613 166.198 242.791 166.178C242.88 166.169 242.948 166.161 242.993 166.157L243.062 166.149C243.062 166.149 243.062 166.149 242.988 165.442L243.062 166.149L242.967 164.731L242.988 165.442C242.967 164.731 242.967 164.731 242.967 164.731L242.88 164.733C242.822 164.735 242.736 164.737 242.624 164.74C242.399 164.746 242.07 164.755 241.65 164.765C240.81 164.785 239.61 164.812 238.168 164.837C235.283 164.886 231.434 164.928 227.569 164.9C223.701 164.871 219.834 164.772 216.907 164.54C215.439 164.424 214.234 164.277 213.392 164.095C213.199 164.053 213.032 164.011 212.891 163.97C213.024 163.907 213.181 163.84 213.365 163.768C214.244 163.424 215.554 163.04 217.176 162.635C220.413 161.826 224.787 160.957 229.187 160.155C233.584 159.355 237.993 158.624 241.293 158.094C242.943 157.829 244.315 157.614 245.27 157.465C245.48 157.432 245.671 157.402 245.84 157.376C246.053 157.343 246.231 157.315 246.371 157.293C246.497 157.274 246.593 157.259 246.658 157.248C246.689 157.243 246.716 157.239 246.736 157.235C246.743 157.234 246.76 157.231 246.778 157.227C246.784 157.226 246.797 157.222 246.806 157.22C246.82 157.217 246.864 157.203 246.895 157.191C247.01 157.132 247.337 156.45 246.983 155.913C246.846 155.853 246.665 155.82 246.63 155.819C246.627 155.819 246.617 155.819 246.601 155.819C246.083 155.821 238.906 155.848 231.691 155.556C227.965 155.405 224.249 155.171 221.44 154.807C220.03 154.624 218.88 154.413 218.078 154.174C217.735 154.071 217.483 153.971 217.31 153.88ZM217.1 154.052C217.1 154.052 217.102 154.049 217.107 154.043C217.103 154.049 217.101 154.052 217.1 154.052Z" fill="#D5E2F3"/>
<path fill-rule="evenodd" clip-rule="evenodd" d="M128.412 184.548L225.452 175.101L225.59 176.517L128.55 185.964L128.412 184.548Z" fill="#D5E2F3"/>
<path d="M96.6498 172.404C102.445 184.502 97.333 199.009 85.235 204.804L43.7099 224.689C31.612 230.484 17.1047 225.372 11.3094 213.274C5.51413 201.176 10.6266 186.669 22.7246 180.874L64.2497 160.989C76.3477 155.193 90.8545 160.306 96.6498 172.404Z" fill="#F96155"/>
<path fill-rule="evenodd" clip-rule="evenodd" d="M398.108 4.11121L400.329 3.58179L665.617 488.046L663.537 489.185L399.909 7.75083C399.481 9.53362 398.732 11.8662 397.42 14.4565C394.52 20.1783 388.899 27.1033 378.063 32.1352C369.009 36.3391 358.999 35.5522 351.363 33.7841C347.529 32.8965 344.253 31.7522 341.933 30.8297C341.095 30.4961 340.38 30.1909 339.808 29.9367C339.754 30.4487 339.68 31.0617 339.576 31.7622C339.248 33.9789 338.629 37.0784 337.46 40.6323C335.124 47.7376 330.581 56.6969 321.754 64.0262C311.228 72.7677 300.949 75.1289 293.275 75.2794C289.446 75.3545 286.275 74.8795 284.054 74.3827C283.381 74.2324 282.795 74.0799 282.303 73.9398C282.341 74.4499 282.377 75.0583 282.406 75.7566C282.5 78.0666 282.508 81.3625 282.164 85.3303C281.478 93.2617 279.386 103.907 273.751 114.733C268.043 125.699 260.144 132.948 253.68 137.452C250.447 139.705 247.567 141.276 245.49 142.286C244.45 142.791 243.611 143.156 243.027 143.396C242.734 143.516 242.506 143.605 242.349 143.665C242.27 143.695 242.209 143.718 242.166 143.733C242.145 143.741 242.128 143.747 242.116 143.751L242.098 143.758L242.096 143.759C242.095 143.759 242.095 143.759 241.703 142.64C241.316 141.538 241.31 141.522 241.31 141.522L241.31 141.521L241.318 141.519C241.325 141.516 241.337 141.512 241.353 141.506C241.386 141.494 241.438 141.475 241.507 141.449C241.645 141.396 241.853 141.315 242.124 141.203C242.666 140.98 243.461 140.635 244.453 140.153C246.438 139.188 249.208 137.679 252.324 135.507C258.559 131.162 266.159 124.184 271.648 113.638C277.101 103.16 279.135 92.8374 279.802 85.1259C280.135 81.2722 280.127 78.0781 280.036 75.8534C279.991 74.7413 279.925 73.8723 279.871 73.2852C279.844 72.9916 279.819 72.7686 279.802 72.6211C279.794 72.5473 279.787 72.4923 279.783 72.4569L279.778 72.4183L279.777 72.4102L279.776 72.4089C279.776 72.409 279.776 72.409 279.777 72.4089L281.399 71.152C281.399 71.1505 281.399 71.1505 281.399 71.1504L281.4 71.1508L281.405 71.1526C281.411 71.1551 281.422 71.1593 281.437 71.1653C281.468 71.1772 281.517 71.1959 281.583 71.2204C281.717 71.2694 281.921 71.3414 282.191 71.4285C282.732 71.6029 283.537 71.8374 284.571 72.0687C286.64 72.5313 289.62 72.9794 293.229 72.9086C300.429 72.7674 310.173 70.5617 320.239 62.202C328.632 55.2328 332.969 46.7019 335.208 39.8917C336.327 36.4879 336.919 33.5232 337.231 31.4153C337.386 30.3618 337.472 29.5239 337.518 28.954C337.542 28.669 337.555 28.4513 337.563 28.3072C337.567 28.2351 337.569 28.1815 337.57 28.1472C337.571 28.13 337.571 28.1177 337.572 28.1102L337.572 28.1021C337.572 28.1021 337.572 28.1021 337.573 28.1022L339.299 27.08C339.299 27.0794 339.299 27.0794 339.299 27.0794L339.301 27.0803L339.31 27.0849L339.351 27.1056C339.369 27.1145 339.391 27.1256 339.418 27.1389C339.447 27.1535 339.482 27.1707 339.522 27.1903C339.675 27.2653 339.906 27.3757 340.207 27.5144C340.808 27.7919 341.693 28.182 342.81 28.6264C345.046 29.5159 348.206 30.6193 351.898 31.474C359.311 33.1903 368.704 33.8665 377.065 29.9845C387.389 25.1901 392.631 18.6608 395.304 13.3848C396.645 10.7383 397.347 8.39337 397.712 6.72072C397.895 5.88467 397.994 5.21781 398.046 4.76695C398.072 4.54158 398.087 4.37038 398.095 4.25921C398.099 4.20364 398.102 4.1631 398.103 4.13832C398.104 4.12593 398.104 4.11749 398.104 4.11308L398.104 4.11206L398.104 4.11085C398.104 4.11093 398.104 4.11101 398.108 4.11121Z" fill="#234977"/>
</svg>
