<svg width="824" height="540" viewBox="0 0 824 540" fill="none" xmlns="http://www.w3.org/2000/svg">
<path d="M757.062 389.966L823.664 400.412L793.517 502.861L790.228 416.204L741.729 408.582" fill="#FBC73B"/>
<path d="M603.362 431.025L640.541 472.938L552.6 533.527L604.623 464.143L579.729 435.823" fill="#FBC73B"/>
<path d="M771.776 388.203C771.776 388.203 784.987 399.251 778.39 423.237C772.171 445.857 753.537 449.588 753.537 449.588L650.274 427.647C639.463 424.882 630.685 417.012 626.759 406.566L597.278 328.11L549.9 355.351L608.378 428.018C608.378 428.018 612.139 444.896 593.906 458.696C578.161 470.616 558.607 467.025 558.607 467.025L484.165 383.47C465.024 361.982 467.281 328.959 489.17 310.283C527.251 277.796 550.501 259.073 580.489 244.931C606.533 232.652 643.707 239.137 664.298 259.952C681.518 277.366 686.77 297.491 689.199 370.076" fill="#F96155"/>
<path fill-rule="evenodd" clip-rule="evenodd" d="M586.639 292.915L606.27 357.117L604.015 357.807L584.385 293.604L586.639 292.915Z" fill="#001A39"/>
<path d="M732.456 444.701C730.534 433.73 735.333 421.639 745.266 416.098C750.353 413.257 756.337 412.538 761.725 414.99C767.272 417.519 772.224 421.722 776.586 425.913C777.4 426.697 778.643 425.459 777.824 424.675C773.008 420.042 767.313 415.167 760.976 412.797C755.476 410.739 749.422 411.777 744.376 414.583C733.712 420.513 728.707 433.447 730.758 445.172C730.959 446.28 732.651 445.809 732.456 444.701Z" fill="#FBC73B"/>
<path d="M743.545 381.731C734.867 399.345 720.442 417.525 698.672 416.063C688.008 415.344 679.478 408.759 675.628 398.844C671.337 387.791 673.164 375.706 675.74 364.482C678.735 351.448 682.702 338.609 687.654 326.182C688.073 325.133 686.375 324.679 685.962 325.716C681.011 338.143 677.043 350.982 674.048 364.016C671.366 375.7 669.533 388.28 674.102 399.746C677.751 408.901 685.273 415.639 695.076 417.384C704.52 419.058 714.577 416.535 722.488 411.212C732.78 404.285 739.672 393.562 745.06 382.621C745.561 381.607 744.046 380.717 743.545 381.731Z" fill="#FBC73B"/>
<path d="M627.92 408.535C634.664 402.622 643.577 399.946 652.26 398.419C661.981 396.709 672.239 395.937 681.895 398.431C689.971 400.518 697.699 405.015 702.492 411.977C708.062 420.065 708.805 430.847 709.23 440.356C709.283 441.482 711.034 441.488 710.986 440.356C710.55 430.517 709.725 419.47 704.007 411.087C699.161 403.984 691.409 399.25 683.221 396.963C672.999 394.104 662.117 394.9 651.789 396.715C642.787 398.301 633.662 401.16 626.676 407.285C625.827 408.04 627.071 409.278 627.92 408.535Z" fill="#FBC73B"/>
<path d="M602.613 341.886C611.013 336.145 620.433 332.083 630.425 330.114C637.599 328.699 654.041 326.229 653.492 338.025C653.262 342.965 650.792 348.052 648.487 352.326C646.129 356.695 643.253 360.768 640.164 364.647C633.797 372.623 626.582 379.921 618.865 386.588C618.01 387.331 619.254 388.563 620.103 387.826C633.066 376.608 646.731 362.926 653.038 346.649C655.391 340.589 657.153 332.584 650.197 328.917C643.942 325.622 635.513 327.237 628.957 328.623C619.195 330.686 609.952 334.742 601.722 340.365C600.803 341.008 601.675 342.529 602.613 341.886Z" fill="#FBC73B"/>
<path d="M682.62 300.639C674.202 305.667 666.12 310.271 656.022 310.324C646.189 310.371 636.456 306.634 630.437 298.623C624.743 291.036 622.609 281.386 620.658 272.29C618.305 261.325 616.272 250.089 615.629 238.877C615.564 237.757 613.808 237.745 613.872 238.877C614.409 248.191 615.965 257.517 617.728 266.672C619.302 274.842 620.917 283.225 624.147 290.936C626.965 297.662 631.286 303.687 637.665 307.43C644.102 311.203 651.836 312.57 659.223 311.94C668.354 311.161 675.817 306.764 683.51 302.166C684.477 301.576 683.593 300.061 682.62 300.639Z" fill="#FBC73B"/>
<path d="M649.572 249.035C643.803 266.667 630.296 275.438 618.403 278.321C605.375 281.475 590.745 280.137 579.149 269.543C578.524 268.972 577.958 270.487 578.584 271.058C587.845 279.524 598.863 281.976 609.451 281.363C620.228 280.738 630.907 276.859 640.028 267.574C644.433 263.088 648.136 257.276 650.541 249.925C650.869 248.917 649.9 248.033 649.572 249.035Z" fill="#FBC73B"/>
<path d="M515.113 289.356C523.337 294.213 531.26 300.409 533.146 310.336C534.814 319.126 531.531 328.345 526.119 335.243C513.516 351.324 490.478 353.788 471.543 354.779C470.418 354.838 470.412 356.594 471.543 356.535C488.368 355.651 506.742 353.682 520.584 343.136C531.454 334.854 538.758 319.42 533.736 305.944C530.611 297.568 523.419 292.227 515.992 287.841C515.025 287.269 514.141 288.784 515.113 289.356Z" fill="#FBC73B"/>
<path d="M590.97 405.258C577.954 402.876 563.523 403.631 552.594 411.878C541.764 420.048 537.579 433.348 539.919 446.464C540.12 447.572 541.812 447.101 541.611 445.998C539.318 433.153 543.78 420.107 554.674 412.532C565.061 405.311 578.443 404.745 590.51 406.956C591.613 407.15 592.084 405.458 590.97 405.258Z" fill="#FBC73B"/>
<path d="M507.391 410.121C524.669 407.568 544.518 409.832 560.08 418.126C567.425 422.04 573.851 427.576 578.325 434.638C583.648 443.032 585.965 452.836 587.292 462.574C587.445 463.689 589.137 463.211 588.984 462.109C587.598 451.934 585.087 441.671 579.357 433.005C574.753 426.043 568.31 420.525 560.97 416.617C544.966 408.093 524.681 405.811 506.925 408.435C505.811 408.594 506.283 410.286 507.391 410.121Z" fill="#FBC73B"/>
<path d="M581.916 336.94C573.763 325.699 561.03 319.031 547.672 316.078C535.204 313.325 520.631 312.871 508.959 318.784C496.898 324.891 492.471 338.055 496.462 350.693C500.889 364.729 513.493 373.407 526.061 379.679C542.525 387.897 560.977 395.342 579.735 393.438C580.849 393.326 580.861 391.569 579.735 391.681C564.195 393.261 549.034 388.239 535.027 381.972C522.736 376.472 509.207 369.911 501.803 358.098C494.634 346.65 494.434 330.715 506.354 322.374C516.729 315.117 531.213 315.011 543.233 317.009C557.522 319.379 571.712 325.852 580.395 337.831C581.055 338.733 582.576 337.86 581.916 336.94Z" fill="#FBC73B"/>
<path fill-rule="evenodd" clip-rule="evenodd" d="M783.155 438.059L799.266 423.793L800.829 425.558L784.718 439.824L783.155 438.059Z" fill="#001A39"/>
<path fill-rule="evenodd" clip-rule="evenodd" d="M782.725 449.141L798.836 434.875L800.399 436.64L784.288 450.906L782.725 449.141Z" fill="#001A39"/>
<path fill-rule="evenodd" clip-rule="evenodd" d="M781.6 461.002L797.711 446.742L799.274 448.508L783.163 462.768L781.6 461.002Z" fill="#001A39"/>
<path fill-rule="evenodd" clip-rule="evenodd" d="M587.248 476.477L608.724 475.145L608.87 477.499L587.394 478.831L587.248 476.477Z" fill="#001A39"/>
<path fill-rule="evenodd" clip-rule="evenodd" d="M580.092 484.955L601.567 483.623L601.713 485.976L580.238 487.308L580.092 484.955Z" fill="#001A39"/>
<path fill-rule="evenodd" clip-rule="evenodd" d="M571.904 493.608L593.38 492.282L593.525 494.636L572.05 495.962L571.904 493.608Z" fill="#001A39"/>
<path fill-rule="evenodd" clip-rule="evenodd" d="M714.361 207.406L657.174 183.348L658.088 181.175L715.276 205.232L714.361 207.406Z" fill="#E4EDFA"/>
<path fill-rule="evenodd" clip-rule="evenodd" d="M667.733 225.928C667.738 225.923 667.742 225.918 667.747 225.913C667.963 225.679 668.325 225.365 668.848 224.971C669.887 224.191 671.413 223.214 673.291 222.102C677.038 219.884 682.07 217.202 687.127 214.606C692.181 212.011 697.242 209.512 701.041 207.66C702.941 206.734 704.524 205.971 705.632 205.439C706.186 205.173 706.621 204.965 706.918 204.823C707.066 204.752 707.18 204.698 707.256 204.662L707.371 204.607C707.371 204.607 707.372 204.607 706.866 203.542C706.361 202.477 706.361 202.477 706.36 202.477L706.243 202.533C706.166 202.569 706.052 202.624 705.903 202.695C705.604 202.837 705.167 203.046 704.612 203.313C703.5 203.846 701.912 204.612 700.008 205.54C696.2 207.396 691.123 209.904 686.05 212.508C680.982 215.11 675.9 217.818 672.09 220.073C670.19 221.198 668.576 222.227 667.432 223.086C666.865 223.512 666.374 223.925 666.018 224.31C665.84 224.502 665.665 224.719 665.532 224.955C665.407 225.178 665.258 225.525 665.285 225.943C665.316 226.409 665.511 226.821 665.71 227.142C665.918 227.476 666.191 227.806 666.494 228.125C667.101 228.762 667.924 229.451 668.861 230.153C670.741 231.561 673.212 233.114 675.676 234.522C678.142 235.933 680.636 237.219 682.576 238.089C683.539 238.521 684.399 238.866 685.063 239.068C685.387 239.167 685.722 239.25 686.024 239.277C686.173 239.29 686.377 239.296 686.596 239.25C686.806 239.206 687.179 239.079 687.441 238.704L687.442 238.703C688.593 237.054 688.314 235.184 687.578 233.585C686.844 231.991 685.564 230.429 684.258 229.092C682.938 227.741 681.522 226.549 680.444 225.7C679.903 225.274 679.443 224.93 679.116 224.693C678.953 224.574 678.823 224.481 678.733 224.417C678.688 224.386 678.653 224.361 678.629 224.344L678.6 224.325L678.592 224.319L678.589 224.317C678.589 224.317 678.589 224.317 677.922 225.289C677.255 226.261 677.254 226.261 677.254 226.261L677.26 226.265L677.282 226.28C677.302 226.294 677.333 226.315 677.374 226.344C677.455 226.401 677.575 226.487 677.728 226.598C678.034 226.821 678.47 227.147 678.984 227.552C680.017 228.365 681.347 229.487 682.571 230.74C683.809 232.007 684.869 233.34 685.436 234.571C685.862 235.496 685.954 236.226 685.771 236.819C685.764 236.817 685.758 236.815 685.751 236.813C685.228 236.653 684.473 236.355 683.541 235.937C681.688 235.106 679.264 233.858 676.846 232.475C674.426 231.092 672.047 229.593 670.274 228.265C669.384 227.599 668.679 226.999 668.202 226.499C667.98 226.266 667.828 226.075 667.733 225.928ZM667.588 226.111C667.588 226.11 667.588 226.11 667.589 226.109C667.585 226.117 667.584 226.117 667.588 226.111Z" fill="#E4EDFA"/>
<path fill-rule="evenodd" clip-rule="evenodd" d="M675.489 151.092C673.547 150.383 672.239 149.906 671.833 149.727L672.785 147.57C673.114 147.715 674.328 148.158 676.308 148.881C676.653 149.007 677.02 149.141 677.41 149.284C680.005 150.232 683.527 151.526 687.657 153.095C695.916 156.231 706.62 160.471 717.24 165.258C727.85 170.04 738.422 175.388 746.396 180.747C750.38 183.425 753.762 186.136 756.179 188.813C758.576 191.468 760.154 194.233 760.244 197.008C760.332 199.713 759.24 202.453 757.438 205.12C755.63 207.794 753.045 210.491 749.982 213.14C743.856 218.44 735.668 223.679 727.513 228.298C719.349 232.922 711.171 236.95 705.038 239.821C701.971 241.257 699.413 242.404 697.62 243.193C696.724 243.588 696.019 243.893 695.537 244.099C695.479 244.124 695.424 244.148 695.372 244.17C695.353 244.263 695.332 244.366 695.309 244.478C695.189 245.062 695.016 245.896 694.802 246.896C694.374 248.896 693.782 251.565 693.124 254.238C692.469 256.904 691.741 259.602 691.043 261.645C690.696 262.66 690.34 263.561 689.984 264.227C689.809 264.555 689.605 264.882 689.365 265.144C689.159 265.368 688.727 265.764 688.09 265.764C687.408 265.764 686.981 265.322 686.78 265.046C686.565 264.753 686.414 264.399 686.301 264.067C686.071 263.391 685.891 262.488 685.745 261.488C685.618 260.615 685.509 259.622 685.417 258.563C685.03 260.65 684.573 262.643 684.037 264.26C683.66 265.4 683.217 266.438 682.682 267.198C682.178 267.916 681.349 268.713 680.177 268.587C679.001 268.461 678.351 267.484 677.999 266.673C677.62 265.801 677.378 264.667 677.218 263.434C676.895 260.948 676.865 257.727 676.959 254.58C676.975 254.074 676.993 253.569 677.014 253.068C676.512 254.501 675.983 255.871 675.457 257.001C675.072 257.826 674.664 258.577 674.24 259.14C674.029 259.421 673.782 259.697 673.496 259.912C673.215 260.124 672.81 260.341 672.309 260.341C671.491 260.341 671.054 259.734 670.877 259.398C670.684 259.032 670.571 258.591 670.495 258.168C670.34 257.3 670.278 256.125 670.273 254.798C670.262 252.123 670.479 248.587 670.77 245.084C671.062 241.574 671.43 238.067 671.724 235.439C671.872 234.125 672.001 233.029 672.094 232.262C672.14 231.879 672.177 231.577 672.202 231.371C672.215 231.268 672.225 231.189 672.232 231.135L672.242 231.054C672.242 231.054 672.242 231.054 673.412 231.202C674.581 231.35 674.581 231.35 674.581 231.35L674.571 231.429C674.565 231.481 674.555 231.559 674.542 231.661C674.517 231.864 674.481 232.163 674.435 232.544C674.343 233.306 674.214 234.395 674.068 235.702C673.774 238.317 673.409 241.8 673.12 245.279C672.83 248.767 672.62 252.22 672.631 254.788C672.635 255.733 672.669 256.527 672.733 257.143C672.916 256.83 673.112 256.449 673.319 256.004C674.032 254.476 674.777 252.405 675.46 250.29C676.139 248.185 676.745 246.075 677.181 244.489C677.399 243.697 677.574 243.037 677.695 242.576C677.755 242.345 677.801 242.165 677.833 242.042C677.841 242.01 677.848 241.982 677.854 241.958C677.86 241.936 677.865 241.917 677.868 241.902L677.88 241.858L677.88 241.856L679.024 242.143C680.195 242.274 680.195 242.274 680.195 242.275L680.193 242.291L680.188 242.343C680.183 242.389 680.175 242.457 680.166 242.547C680.146 242.727 680.119 242.991 680.085 243.329C680.017 244.004 679.925 244.969 679.826 246.13C679.629 248.453 679.41 251.548 679.316 254.651C679.223 257.767 679.258 260.836 679.556 263.13C679.707 264.287 679.914 265.164 680.162 265.734C680.28 266.006 680.375 266.141 680.433 266.206C680.497 266.157 680.604 266.054 680.753 265.842C681.09 265.364 681.446 264.584 681.799 263.519C682.497 261.41 683.077 258.507 683.54 255.528C684 252.563 684.336 249.578 684.556 247.331C684.666 246.209 684.747 245.272 684.801 244.617C684.828 244.29 684.848 244.033 684.861 243.858C684.867 243.771 684.872 243.704 684.875 243.66L684.879 243.61L684.88 243.594C684.88 243.594 684.88 243.594 685.375 243.628L684.88 243.594L687.235 243.676L686.056 243.676C687.235 243.676 687.235 243.676 687.235 243.676L687.235 243.734L687.236 243.907C687.236 244.059 687.237 244.282 687.239 244.566C687.243 245.135 687.251 245.948 687.266 246.924C687.297 248.877 687.36 251.477 687.486 254.073C687.612 256.678 687.801 259.246 688.078 261.148C688.142 261.584 688.209 261.973 688.278 262.311C688.445 261.909 688.624 261.43 688.811 260.882C689.476 258.94 690.183 256.324 690.834 253.675C691.484 251.033 692.071 248.389 692.496 246.403C692.709 245.41 692.88 244.583 692.999 244.005C693.058 243.715 693.104 243.488 693.135 243.334L693.17 243.158L693.182 243.1L693.182 243.099C693.182 243.099 693.182 243.099 694.339 243.328C693.883 242.24 693.883 242.24 693.884 242.24L693.894 242.236L693.928 242.221C693.953 242.211 693.988 242.196 694.033 242.177L694.066 242.163C694.188 242.111 694.37 242.034 694.608 241.932C695.083 241.728 695.781 241.426 696.67 241.035C698.449 240.252 700.99 239.112 704.039 237.685C710.138 234.83 718.257 230.831 726.351 226.246C734.455 221.656 742.487 216.506 748.44 211.357C751.416 208.782 753.835 206.239 755.484 203.799C757.138 201.352 757.953 199.103 757.888 197.084C757.824 195.135 756.684 192.891 754.429 190.393C752.194 187.917 748.988 185.33 745.08 182.704C737.271 177.456 726.841 172.172 716.271 167.407C705.711 162.648 695.056 158.427 686.82 155.299C682.703 153.735 679.192 152.446 676.601 151.498C676.211 151.356 675.839 151.22 675.489 151.092ZM694.339 243.328L693.884 242.24L693.182 243.099L694.339 243.328ZM687.608 263.569C687.608 263.568 687.613 263.563 687.623 263.554C687.613 263.565 687.608 263.569 687.608 263.569ZM680.361 266.247C680.361 266.247 680.365 266.245 680.373 266.243C680.365 266.247 680.361 266.247 680.361 266.247ZM679.024 242.143L680.195 242.275L677.88 241.856L679.024 242.143Z" fill="#E4EDFA"/>
<path d="M675.723 142.659C680.775 174.362 659.17 204.15 627.467 209.202C595.763 214.254 565.976 192.649 560.924 160.945" fill="#FBC73B"/>
<path d="M577.223 101.995C576.875 118 589.567 131.258 605.572 131.6C619.72 131.907 631.722 122.021 634.552 108.668C634.923 106.918 635.136 105.108 635.177 103.251C635.525 87.246 622.833 73.9882 606.828 73.6463C598.498 73.4635 590.923 76.8119 585.511 82.3237C580.524 87.3993 577.388 94.3201 577.223 101.995Z" fill="#BACADF"/>
<path d="M585.512 82.3178C592.957 97.8335 608.655 108.698 627.042 109.099C629.595 109.152 632.106 109.004 634.558 108.668C634.93 106.918 635.142 105.108 635.183 103.251C635.531 87.246 622.839 73.9882 606.834 73.6463C598.498 73.4635 590.917 76.806 585.512 82.3178Z" fill="#032349"/>
<path d="M633.019 84.145C639.121 84.145 644.067 79.199 644.067 73.0978C644.067 66.9965 639.121 62.0505 633.019 62.0505C626.918 62.0505 621.972 66.9965 621.972 73.0978C621.972 79.199 626.918 84.145 633.019 84.145Z" fill="#234977"/>
<path d="M628.722 62.8879C646.088 62.8879 660.166 48.8099 660.166 31.4439C660.166 14.0779 646.088 0 628.722 0C611.356 0 597.278 14.0779 597.278 31.4439C597.278 48.8099 611.356 62.8879 628.722 62.8879Z" fill="#032349"/>
<path d="M585.49 101.65C585.565 98.1634 584.333 95.3094 582.738 95.275C581.143 95.2405 579.789 98.0387 579.714 101.525C579.639 105.011 580.871 107.865 582.466 107.9C584.061 107.934 585.415 105.136 585.49 101.65Z" fill="#001A39"/>
<path fill-rule="evenodd" clip-rule="evenodd" d="M584.199 97.4015C583.719 96.2896 583.152 95.8736 582.726 95.8644C582.299 95.8551 581.714 96.2463 581.187 97.3365C580.684 98.3752 580.34 99.8593 580.303 101.538C580.267 103.216 580.547 104.713 581.005 105.773C581.485 106.885 582.052 107.301 582.478 107.31C582.905 107.319 583.489 106.928 584.017 105.838C584.52 104.799 584.864 103.315 584.901 101.637C584.937 99.9586 584.657 98.461 584.199 97.4015ZM582.738 95.275C584.333 95.3094 585.565 98.1634 585.49 101.65C585.415 105.136 584.061 107.934 582.466 107.9C580.871 107.865 579.639 105.011 579.714 101.525C579.789 98.0387 581.143 95.2405 582.738 95.275Z" fill="#001A39"/>
<path d="M595.071 102.294C595.146 98.8082 593.914 95.9542 592.319 95.9197C590.724 95.8853 589.37 98.6834 589.295 102.17C589.22 105.656 590.452 108.51 592.047 108.544C593.642 108.579 594.996 105.781 595.071 102.294Z" fill="#001A39"/>
<path fill-rule="evenodd" clip-rule="evenodd" d="M593.78 98.0463C593.3 96.9344 592.733 96.5183 592.307 96.5091C591.88 96.4999 591.296 96.8911 590.768 97.9812C590.265 99.02 589.921 100.504 589.884 102.182C589.848 103.861 590.128 105.358 590.586 106.418C591.066 107.53 591.633 107.946 592.059 107.955C592.486 107.964 593.071 107.573 593.598 106.483C594.101 105.444 594.445 103.96 594.482 102.282C594.518 100.603 594.238 99.1058 593.78 98.0463ZM592.319 95.9197C593.914 95.9542 595.146 98.8082 595.071 102.294C594.996 105.781 593.642 108.579 592.047 108.544C590.452 108.51 589.22 105.656 589.295 102.17C589.37 98.6834 590.724 95.8853 592.319 95.9197Z" fill="#001A39"/>
<path d="M582.352 114.392C582.352 114.392 587.144 113.343 586.968 108.927L582.352 114.392Z" fill="#001A39"/>
<path fill-rule="evenodd" clip-rule="evenodd" d="M582.605 115.543C582.605 115.544 582.604 115.544 582.352 114.392C582.1 113.24 582.099 113.24 582.099 113.24L582.098 113.241L582.097 113.241C582.101 113.24 582.108 113.238 582.12 113.235C582.143 113.23 582.182 113.219 582.234 113.205C582.338 113.175 582.495 113.126 582.684 113.055C583.068 112.911 583.569 112.683 584.055 112.346C585.01 111.685 585.857 110.661 585.79 108.974L588.146 108.88C588.255 111.609 586.795 113.317 585.397 114.285C584.708 114.762 584.021 115.072 583.512 115.263C583.255 115.359 583.038 115.427 582.881 115.472C582.803 115.494 582.739 115.511 582.692 115.523C582.668 115.529 582.649 115.533 582.634 115.537L582.616 115.541L582.609 115.543L582.607 115.543L582.605 115.543ZM582.097 113.241L582.097 113.241L582.095 113.241C582.095 113.241 582.096 113.241 582.097 113.241Z" fill="#001A39"/>
<path fill-rule="evenodd" clip-rule="evenodd" d="M522.979 150.543C523.331 150.284 524.028 149.882 524.817 150.189L524.818 150.19C525.496 150.454 525.798 151.049 525.932 151.493C526.069 151.948 526.103 152.469 526.092 152.984C526.07 154.027 525.855 155.374 525.528 156.87C525.006 159.267 524.162 162.207 523.212 165.219C524.38 163.094 525.537 161.105 526.572 159.519C527.338 158.346 528.071 157.34 528.72 156.659C529.037 156.326 529.396 156.005 529.781 155.797C530.149 155.599 530.816 155.368 531.489 155.753C532.115 156.112 532.301 156.779 532.371 157.141C532.456 157.577 532.469 158.087 532.446 158.614C532.4 159.682 532.195 161.074 531.894 162.643C531.29 165.794 530.262 169.839 529.167 173.813C528.07 177.793 526.898 181.727 526.002 184.665C525.854 185.149 525.714 185.606 525.582 186.032C526.785 185.129 528.238 184.048 529.703 182.978C531.485 181.678 533.299 180.385 534.71 179.449C535.412 178.984 536.038 178.59 536.522 178.327C536.756 178.199 537.001 178.077 537.225 177.998C537.332 177.961 537.495 177.91 537.683 177.894C537.817 177.882 538.295 177.856 538.693 178.238C539.509 179.021 539.832 180.066 539.88 181.126C539.927 182.175 539.712 183.329 539.361 184.493C538.657 186.824 537.318 189.466 535.887 191.911C534.448 194.369 532.879 196.691 531.673 198.394C531.069 199.247 530.554 199.947 530.189 200.435C530.169 200.463 530.148 200.49 530.129 200.516L553.255 234.219L563.524 172.023L565.851 172.407L555.104 237.494L552.969 237.969L527.703 201.149L527.744 199.758L527.752 199.748L527.779 199.713C527.804 199.681 527.84 199.634 527.888 199.571C527.983 199.446 528.123 199.262 528.3 199.024C528.655 198.55 529.158 197.865 529.748 197.031C530.932 195.361 532.46 193.099 533.852 190.719C535.253 188.326 536.481 185.874 537.104 183.812C537.416 182.779 537.555 181.911 537.524 181.232C537.512 180.953 537.472 180.723 537.411 180.532C537.044 180.745 536.572 181.044 536.014 181.414C534.648 182.32 532.869 183.588 531.094 184.883C529.322 186.176 527.567 187.488 526.254 188.477C525.597 188.971 525.052 189.385 524.671 189.674C524.481 189.819 524.331 189.933 524.229 190.011L524.077 190.127L524.075 190.129C524.075 190.129 524.074 190.129 523.358 189.193C522.235 188.833 522.235 188.833 522.235 188.833L522.263 188.746C522.274 188.712 522.288 188.668 522.304 188.615C522.316 188.577 522.33 188.535 522.345 188.487C522.417 188.261 522.522 187.928 522.655 187.503C522.922 186.654 523.3 185.439 523.746 183.977C524.639 181.051 525.804 177.139 526.894 173.186C527.985 169.228 528.993 165.255 529.579 162.199C529.855 160.755 530.03 159.556 530.082 158.675C529.647 159.195 529.13 159.915 528.547 160.807C527.067 163.075 525.298 166.251 523.587 169.502C521.879 172.746 520.245 176.036 519.037 178.517C518.433 179.757 517.936 180.794 517.59 181.52C517.417 181.883 517.282 182.168 517.191 182.363C517.145 182.46 517.11 182.535 517.086 182.585L517.051 182.659L517.051 182.66C517.051 182.66 517.051 182.66 515.983 182.16C514.884 181.734 514.884 181.734 514.884 181.734L514.916 181.651C514.937 181.595 514.969 181.513 515.01 181.405C515.093 181.188 515.215 180.871 515.368 180.465C515.675 179.655 516.11 178.495 516.623 177.099C517.65 174.306 518.985 170.573 520.222 166.807C521.463 163.032 522.594 159.257 523.225 156.368C523.518 155.02 523.691 153.919 523.728 153.12C523.705 153.149 523.681 153.179 523.657 153.21C523.012 154.033 522.212 155.316 521.303 156.954C519.494 160.214 517.356 164.697 515.301 169.246C513.249 173.789 511.292 178.372 509.847 181.821C509.125 183.545 508.531 184.984 508.118 185.993C507.912 186.497 507.75 186.893 507.641 187.163C507.586 187.298 507.544 187.402 507.516 187.471L507.474 187.576C507.474 187.576 507.474 187.576 506.38 187.135C505.226 186.895 505.226 186.895 505.226 186.894L505.24 186.825C505.25 186.779 505.264 186.709 505.283 186.619C505.32 186.438 505.375 186.171 505.443 185.832C505.58 185.154 505.773 184.183 505.998 183.016C506.449 180.68 507.025 177.562 507.532 174.426C508.04 171.283 508.473 168.151 508.642 165.776C508.694 165.038 508.72 164.394 508.717 163.856C508.303 164.524 507.822 165.412 507.294 166.486C505.933 169.259 504.337 173.127 502.885 177.275C501.433 181.424 500.137 185.819 499.364 189.646C498.977 191.56 498.726 193.309 498.647 194.803C498.566 196.316 498.669 197.476 498.924 198.26C499.751 200.796 505.093 212.561 512.663 226.797C520.218 241.005 529.918 257.536 539.413 269.609L537.56 271.067C527.934 258.828 518.156 242.15 510.581 227.904C503.02 213.686 497.581 201.75 496.682 198.99C496.295 197.802 496.206 196.304 496.292 194.678C496.379 193.032 496.652 191.161 497.052 189.179C497.853 185.213 499.185 180.709 500.659 176.496C502.134 172.283 503.765 168.325 505.178 165.447C505.881 164.015 506.548 162.813 507.132 161.974C507.418 161.562 507.723 161.182 508.038 160.906C508.196 160.768 508.401 160.615 508.649 160.511C508.904 160.405 509.275 160.322 509.686 160.448L509.689 160.449C510.359 160.657 510.652 161.233 510.775 161.554C510.915 161.919 510.987 162.344 511.026 162.76C511.107 163.605 511.082 164.711 510.994 165.944C510.817 168.427 510.37 171.642 509.86 174.802C509.776 175.32 509.69 175.837 509.604 176.351C510.689 173.82 511.902 171.042 513.152 168.275C515.213 163.712 517.384 159.158 519.241 155.81C520.166 154.144 521.038 152.729 521.801 151.756C522.176 151.276 522.572 150.842 522.979 150.543ZM508.569 162.388C508.564 162.378 508.561 162.372 508.561 162.371C508.561 162.371 508.564 162.376 508.569 162.388ZM506.38 187.135L505.226 186.894L507.474 187.576L506.38 187.135ZM524.456 152.392C524.455 152.392 524.448 152.397 524.433 152.403C524.449 152.394 524.456 152.391 524.456 152.392ZM515.983 182.16L514.884 181.734L517.051 182.66L515.983 182.16ZM530.03 157.494C530.031 157.493 530.035 157.501 530.04 157.52C530.033 157.504 530.03 157.495 530.03 157.494ZM523.358 189.193L522.235 188.833L524.074 190.129L523.358 189.193ZM538.018 180.219C538.017 180.219 538.015 180.22 538.011 180.221C538.016 180.22 538.018 180.219 538.018 180.219ZM596.566 215.368C595.209 222.498 593.085 232.136 590.219 242.074L587.954 241.421C590.795 231.568 592.903 222.004 594.249 214.927C594.923 211.389 595.404 208.48 595.691 206.473C595.834 205.467 595.927 204.702 595.972 204.203C595.994 203.946 596.001 203.792 596.001 203.72C596 203.667 595.996 203.723 596.018 203.821L596.018 203.823C596.025 203.856 596.068 204.058 596.23 204.263C596.327 204.387 596.513 204.569 596.811 204.658C597.127 204.753 597.416 204.697 597.62 204.606L596.659 202.453C596.869 202.359 597.164 202.303 597.486 202.399C597.79 202.49 597.982 202.676 598.084 202.806C598.257 203.027 598.307 203.254 598.32 203.31L598.32 203.313C598.355 203.471 598.358 203.623 598.359 203.701C598.36 203.892 598.345 204.138 598.32 204.411C598.271 204.972 598.171 205.785 598.025 206.807C597.732 208.857 597.244 211.803 596.566 215.368Z" fill="#E4EDFA"/>
<path fill-rule="evenodd" clip-rule="evenodd" d="M584.56 258.04C580.942 266.826 575.798 277.443 569.769 284.376C567.193 287.339 564.153 288.589 560.96 288.556C557.826 288.524 554.654 287.261 551.713 285.429C545.836 281.768 540.489 275.593 537.528 270.975L539.513 269.702C542.348 274.124 547.465 280.004 552.96 283.427C555.705 285.137 558.447 286.173 560.984 286.198C563.462 286.224 565.85 285.29 567.99 282.829C573.751 276.204 578.776 265.894 582.379 257.142C584.174 252.784 585.603 248.846 586.583 245.998C587.072 244.574 587.45 243.423 587.704 242.63C587.832 242.234 587.928 241.926 587.993 241.719C588.025 241.615 588.049 241.537 588.065 241.484L588.083 241.426L588.087 241.411L588.088 241.408L588.089 241.407C588.089 241.407 588.089 241.407 589.217 241.748C590.346 242.089 590.346 242.089 590.346 242.09L590.339 242.112L590.32 242.175C590.303 242.231 590.277 242.312 590.244 242.419C590.178 242.633 590.079 242.947 589.95 243.351C589.691 244.158 589.308 245.324 588.812 246.765C587.821 249.646 586.376 253.629 584.56 258.04Z" fill="#001A39"/>
<path d="M64.4993 387.449L8.53809 390.249L26.7241 497.951L39.9408 410.233L77.598 408.182" fill="#E4EDFA"/>
<path d="M192.215 428.508L149.193 465.24L227.101 540L186.025 461.832L214.869 436.973" fill="#E4EDFA"/>
<path d="M208.249 230.678C181.321 217.679 148.362 221.31 131.313 243.205C115.532 263.477 108.47 283.096 143.705 371.12L67.895 375.329C67.895 375.329 52.8097 382.344 49.6264 411.931C46.4431 441.518 65.59 453.108 65.59 453.108L181.568 446.883C210.247 445.344 230.29 417.213 222.963 388.793L202.625 309.901L251.978 341.191L189.143 421.098C189.143 421.098 185.253 438.966 204.111 453.568C220.399 466.183 240.613 462.381 240.613 462.381L317.601 373.938C337.42 351.171 335.027 316.208 312.367 296.419C273.023 262.074 239.251 245.639 208.249 230.678Z" fill="#617FA8"/>
<path d="M153.178 227.465C168.823 236.042 184.445 245.126 201.434 250.821C217.162 256.097 236.132 259.351 252.261 253.774C252.833 253.58 252.597 252.784 252.014 252.884C243.242 254.317 234.836 255.508 225.91 254.729C217.345 253.987 208.921 251.959 200.792 249.194C184.168 243.529 169.395 234.191 153.555 226.822C153.125 226.622 152.754 227.229 153.178 227.465Z" fill="#001A39"/>
<path d="M120.826 301.447C147.583 308.809 169.466 326.984 195.533 336.15C208.933 340.866 223.287 343.572 237.512 342.016C250.734 340.572 263.037 335.425 274.568 329.006C281.494 325.15 288.22 320.929 294.976 316.785C302.71 312.046 310.568 307.43 318.108 302.39C318.597 302.06 318.167 301.299 317.642 301.588C304.608 308.815 292.135 317.062 279.307 324.649C267.682 331.529 255.432 337.636 242.015 340.012C213.148 345.123 185.435 332 160.947 318.247C148.179 311.073 135.363 304.188 121.02 300.727C120.555 300.615 120.36 301.323 120.826 301.447Z" fill="#001A39"/>
<path d="M54.089 393.686C68.9739 387.614 85.0731 384.478 101.149 384.62C118.126 384.767 134.232 389.13 149.582 396.209C163.848 402.788 177.224 411.147 191.59 417.526C205.962 423.91 221.442 428.567 237.288 428.526C254.92 428.479 271.673 421.788 286.405 412.474C286.906 412.155 286.464 411.395 285.939 411.672C271.22 419.536 256.447 426.557 239.428 427.076C222.598 427.594 206.068 422.595 190.871 415.716C176.398 409.167 162.881 400.713 148.374 394.235C134.344 387.968 119.63 383.948 104.226 383.435C87.0067 382.863 69.5752 386.046 53.7943 393.003C53.417 393.173 53.6941 393.846 54.089 393.686Z" fill="#001A39"/>
<path d="M125.99 319.038C131.826 308.097 136.413 296.159 138.364 283.88C140.557 270.062 139.313 254.358 131.98 242.12C131.72 241.69 130.936 241.973 131.131 242.48C133.955 249.677 136.596 256.639 137.503 264.385C138.305 271.218 138.01 278.144 136.849 284.918C134.815 296.784 130.034 307.672 125.336 318.667C125.165 319.091 125.761 319.474 125.99 319.038Z" fill="#001A39"/>
<path d="M105.122 450.915C101.03 438.506 97.9532 425.95 96.898 412.886C96.3852 406.537 96.2908 400.153 96.6622 393.792C97.0513 387.166 98.36 380.753 99.2442 374.197C99.3209 373.62 98.5486 373.372 98.3541 373.95C96.3203 379.898 95.719 386.559 95.3181 392.802C94.876 399.658 94.9998 406.549 95.607 413.393C96.7389 426.233 99.3327 439.325 104.444 451.204C104.603 451.587 105.251 451.316 105.122 450.915Z" fill="#001A39"/>
<path d="M187.068 446.841C182.299 432.169 179.629 416.883 180.637 401.426C181.633 386.14 186.16 371.48 192.415 357.573C198.21 344.675 205.319 332.413 211.09 319.503C216.72 306.906 221.129 293.648 222.721 279.895C224.56 264.014 221.949 247.903 214.951 233.501C214.727 233.035 213.914 233.366 214.103 233.861C219.597 247.95 222.886 262.009 221.572 277.236C220.269 292.333 215.341 306.953 209.074 320.671C203.332 333.227 196.459 345.229 190.87 357.856C185.188 370.701 180.967 384.16 179.646 398.196C178.084 414.814 180.719 431.408 186.349 447.059C186.508 447.484 187.215 447.301 187.068 446.841Z" fill="#001A39"/>
<path d="M267.782 431.491C263.544 411.454 263.055 390.632 268.62 370.796C273.784 352.386 283.404 335.85 291.74 318.784C296.438 309.163 301.018 298.995 303.276 288.478C303.4 287.894 302.575 287.67 302.386 288.23C299.008 298.099 295.513 307.749 290.967 317.157C286.8 325.793 282.249 334.235 278.105 342.883C269.698 360.426 263.75 378.701 263.279 398.296C263.008 409.532 264.245 420.803 267.069 431.685C267.187 432.157 267.883 431.956 267.782 431.491Z" fill="#001A39"/>
<path fill-rule="evenodd" clip-rule="evenodd" d="M220.747 372.059C223.418 383.225 225.396 392.059 225.856 395.563C227.316 406.7 225.059 420.301 215.749 431.225C206.417 442.176 190.195 450.212 164.187 450.584L164.145 447.637C189.559 447.273 204.87 439.448 213.505 429.314C222.163 419.154 224.31 406.444 222.934 395.947C222.498 392.633 220.568 383.978 217.88 372.744C215.203 361.554 211.801 347.906 208.453 334.68C205.105 321.454 201.814 308.654 199.359 299.16C198.131 294.413 197.113 290.493 196.402 287.76C196.046 286.393 195.767 285.323 195.577 284.595L195.287 283.481C195.286 283.481 195.286 283.48 196.712 283.107C198.138 282.735 198.138 282.735 198.138 282.736L198.429 283.851C198.62 284.579 198.899 285.65 199.254 287.017C199.966 289.752 200.985 293.674 202.212 298.422C204.668 307.919 207.961 320.724 211.31 333.956C214.659 347.187 218.065 360.849 220.747 372.059Z" fill="#001A39"/>
<path fill-rule="evenodd" clip-rule="evenodd" d="M43.0214 431.931L28.6553 415.537L30.4287 413.983L44.7948 430.377L43.0214 431.931Z" fill="#001A39"/>
<path fill-rule="evenodd" clip-rule="evenodd" d="M42.1787 443.257L27.8066 426.863L29.5798 425.308L43.9518 441.702L42.1787 443.257Z" fill="#001A39"/>
<path fill-rule="evenodd" clip-rule="evenodd" d="M41.9367 455.447L27.5706 439.053L29.344 437.499L43.7101 453.893L41.9367 455.447Z" fill="#001A39"/>
<path fill-rule="evenodd" clip-rule="evenodd" d="M200.863 476.348L179.823 471.72L180.33 469.417L201.369 474.045L200.863 476.348Z" fill="#001A39"/>
<path fill-rule="evenodd" clip-rule="evenodd" d="M206.675 486.022L185.636 481.388L186.143 479.085L207.183 483.719L206.675 486.022Z" fill="#001A39"/>
<path fill-rule="evenodd" clip-rule="evenodd" d="M213.478 496.031L192.439 491.404L192.946 489.101L213.985 493.728L213.478 496.031Z" fill="#001A39"/>
<path fill-rule="evenodd" clip-rule="evenodd" d="M368.958 153.495C368.958 153.495 368.958 153.494 369.377 154.597C369.796 155.699 369.796 155.699 369.795 155.699L369.793 155.699L369.658 155.751C369.567 155.785 369.432 155.836 369.255 155.903C368.901 156.036 368.379 156.232 367.706 156.482C366.361 156.983 364.412 157.702 361.996 158.577C357.163 160.327 350.459 162.701 342.974 165.199C328.028 170.186 309.875 175.696 297.288 177.679C280.955 180.254 257.317 180.086 237.833 179.285C228.076 178.883 219.335 178.322 213.032 177.862C209.881 177.631 207.339 177.426 205.584 177.278C204.706 177.204 204.025 177.145 203.564 177.104C203.333 177.083 203.157 177.067 203.038 177.056L202.858 177.04C202.858 177.04 202.857 177.04 202.967 175.866C203.076 174.692 203.077 174.692 203.077 174.692L203.079 174.692L203.252 174.708C203.369 174.719 203.543 174.734 203.773 174.755C204.231 174.796 204.908 174.855 205.781 174.928C207.529 175.076 210.062 175.28 213.204 175.51C219.488 175.969 228.204 176.529 237.93 176.929C257.412 177.729 280.842 177.885 296.921 175.35C309.292 173.401 327.276 167.951 342.227 162.962C349.689 160.472 356.374 158.105 361.193 156.36C363.602 155.487 365.544 154.77 366.884 154.272C367.554 154.023 368.073 153.828 368.424 153.696C368.6 153.63 368.734 153.579 368.823 153.545L368.958 153.495Z" fill="#E4EDFA"/>
<path fill-rule="evenodd" clip-rule="evenodd" d="M358.758 121.721L283.181 138.191C283.011 138.228 282.836 138.24 282.663 138.226L196.771 131.318L196.961 128.968L282.765 135.869L358.256 119.417L358.758 121.721Z" fill="#E4EDFA"/>
<path d="M190.682 189.878L120.909 200.725C102.882 203.525 85.9929 191.181 83.1928 173.154C80.3926 155.127 92.7367 138.238 110.764 135.438L180.537 124.591C198.564 121.791 215.453 134.135 218.253 152.162C221.053 170.189 208.715 187.078 190.682 189.878Z" fill="#F96155"/>
<path fill-rule="evenodd" clip-rule="evenodd" d="M383.638 191.372L350.06 76.9791L352.323 76.3149L385.9 190.707L383.638 191.372Z" fill="#E4EDFA"/>
<path fill-rule="evenodd" clip-rule="evenodd" d="M377.235 190.835L376.339 70.4709L378.697 70.4534L379.593 190.818L377.235 190.835Z" fill="#E4EDFA"/>
<path fill-rule="evenodd" clip-rule="evenodd" d="M365.081 190.32L399.266 75.303L401.527 75.9748L367.342 190.992L365.081 190.32Z" fill="#E4EDFA"/>
<path d="M392.492 111.41C392.492 111.41 361.366 123.771 361.036 127.037C360.706 130.303 389.397 123.029 389.397 123.029C389.397 123.029 354.357 131.901 354.663 136.463C354.97 141.026 389.302 132.726 389.302 132.726C389.302 132.726 358.843 140.042 359.656 144.522C360.47 149.002 390.711 143.172 390.711 143.172C390.711 143.172 397.479 140.843 397.479 128.812C397.479 116.78 392.492 111.41 392.492 111.41Z" fill="#001A39"/>
<path fill-rule="evenodd" clip-rule="evenodd" d="M393.356 110.608L392.492 111.41L392.056 110.314L392.806 110.017L393.356 110.608ZM390.383 142.035C390.412 142.022 390.452 142.005 390.5 141.982C390.643 141.915 390.862 141.801 391.133 141.628C391.674 141.281 392.422 140.696 393.179 139.762C394.681 137.911 396.3 134.592 396.3 128.812C396.3 122.965 395.089 118.775 393.905 116.072C393.313 114.719 392.725 113.734 392.294 113.098C392.229 113.002 392.168 112.913 392.11 112.833C391.958 112.894 391.786 112.964 391.596 113.041C390.746 113.384 389.532 113.879 388.074 114.482C385.157 115.69 381.267 117.332 377.369 119.076C373.466 120.821 369.578 122.658 366.655 124.253C365.189 125.053 364.001 125.774 363.182 126.378C363.034 126.487 362.902 126.589 362.787 126.684C363.388 126.722 364.209 126.7 365.229 126.614C367.804 126.398 371.306 125.805 374.864 125.102C378.411 124.4 381.972 123.596 384.649 122.967C385.987 122.653 387.103 122.382 387.883 122.19C388.274 122.095 388.58 122.018 388.789 121.966C388.893 121.94 388.973 121.92 389.027 121.907L389.081 121.893L389.087 121.891L389.107 121.886C389.107 121.886 389.107 121.886 389.397 123.029C389.687 124.172 389.686 124.172 389.686 124.172L389.681 124.174L389.665 124.178L389.662 124.178L389.588 124.197C389.522 124.214 389.425 124.239 389.297 124.272C389.043 124.337 388.668 124.434 388.191 124.56C387.238 124.81 385.875 125.173 384.24 125.624C380.968 126.524 376.614 127.771 372.274 129.159C367.925 130.549 363.627 132.069 360.449 133.513C358.853 134.239 357.595 134.92 356.764 135.528C356.347 135.834 356.086 136.085 355.942 136.274C355.938 136.28 355.934 136.285 355.93 136.29C356.048 136.343 356.228 136.404 356.49 136.461C357.307 136.638 358.551 136.694 360.156 136.627C363.337 136.494 367.595 135.895 371.895 135.145C376.183 134.396 380.466 133.505 383.681 132.8C385.287 132.448 386.625 132.143 387.56 131.926C388.028 131.817 388.395 131.731 388.645 131.671C388.77 131.642 388.865 131.619 388.929 131.604L389.002 131.586L389.004 131.586L389.02 131.582L389.021 131.582L389.024 131.581L389.025 131.581L389.027 131.58C389.027 131.58 389.027 131.58 389.303 132.727C389.58 133.872 389.579 133.873 389.579 133.873L389.578 133.873L389.573 133.874L389.493 133.893C389.437 133.907 389.352 133.928 389.242 133.955C389.021 134.009 388.696 134.089 388.283 134.193C387.456 134.401 386.274 134.703 384.859 135.079C382.026 135.832 378.264 136.881 374.532 138.068C370.788 139.258 367.121 140.573 364.456 141.852C363.115 142.496 362.095 143.099 361.451 143.635C361.13 143.903 360.953 144.113 360.868 144.255C360.858 144.272 360.85 144.287 360.844 144.299C360.919 144.363 361.11 144.486 361.561 144.621C362.318 144.846 363.444 144.982 364.885 145.023C367.747 145.104 371.535 144.804 375.352 144.357C379.157 143.911 382.942 143.325 385.779 142.851C387.197 142.613 388.376 142.404 389.199 142.254C389.611 142.179 389.934 142.119 390.154 142.078C390.218 142.066 390.273 142.056 390.319 142.047C390.342 142.043 390.364 142.039 390.383 142.035ZM366.569 138.368C365.44 138.817 364.382 139.272 363.435 139.726C362.035 140.398 360.809 141.101 359.942 141.823C359.509 142.184 359.115 142.591 358.842 143.049C358.564 143.516 358.381 144.096 358.497 144.733C358.73 146.017 359.938 146.598 360.888 146.881C361.941 147.194 363.311 147.337 364.819 147.38C367.856 147.466 371.781 147.149 375.626 146.699C379.483 146.247 383.31 145.655 386.168 145.176C387.598 144.937 388.788 144.726 389.621 144.574C390.038 144.498 390.365 144.438 390.589 144.396C390.701 144.375 390.787 144.358 390.845 144.347L390.934 144.33C390.934 144.33 390.935 144.33 390.711 143.172L390.934 144.33L391.016 144.314L391.095 144.287L390.711 143.172C391.095 144.287 391.096 144.287 391.097 144.287L391.099 144.286L391.103 144.284L391.114 144.281C391.122 144.278 391.131 144.274 391.143 144.27C391.165 144.262 391.194 144.251 391.228 144.237C391.298 144.209 391.391 144.169 391.505 144.116C391.732 144.008 392.041 143.846 392.405 143.614C393.132 143.147 394.077 142.399 395.011 141.247C396.894 138.926 398.658 135.064 398.658 128.812C398.658 122.628 397.375 118.117 396.065 115.126C395.411 113.633 394.752 112.523 394.248 111.777C393.995 111.404 393.782 111.122 393.626 110.928C393.549 110.831 393.486 110.756 393.44 110.703C393.417 110.676 393.398 110.655 393.384 110.639L393.366 110.619L393.36 110.613L393.357 110.609C393.356 110.608 393.356 110.608 392.492 111.41C392.056 110.314 392.057 110.314 392.056 110.314L391.966 110.351C391.906 110.374 391.818 110.409 391.704 110.455C391.475 110.547 391.139 110.682 390.712 110.855C389.857 111.2 388.637 111.697 387.172 112.303C384.243 113.516 380.331 115.168 376.406 116.923C372.487 118.676 368.531 120.542 365.525 122.183C364.027 123.001 362.729 123.782 361.783 124.48C361.312 124.827 360.892 125.179 360.572 125.53C360.287 125.843 359.923 126.321 359.863 126.919C359.789 127.654 360.18 128.206 360.653 128.516C361.058 128.782 361.55 128.904 361.984 128.969C362.88 129.104 364.087 129.077 365.427 128.964C365.455 128.962 365.482 128.959 365.51 128.957C363.301 129.754 361.232 130.567 359.473 131.367C357.828 132.115 356.398 132.875 355.372 133.625C354.861 133.999 354.4 134.406 354.064 134.848C353.733 135.284 353.442 135.864 353.487 136.543C353.535 137.262 353.936 137.793 354.422 138.136C354.875 138.457 355.435 138.645 355.99 138.766C357.109 139.008 358.597 139.052 360.254 138.983C362.103 138.905 364.27 138.681 366.569 138.368ZM389.303 132.727L389.579 133.873L389.027 131.58L389.303 132.727ZM389.397 123.029L389.686 124.172L389.107 121.886L389.397 123.029Z" fill="#E4EDFA"/>
<path fill-rule="evenodd" clip-rule="evenodd" d="M88.8259 146.478C63.9808 155.15 31.3081 175.141 18.0616 184.07L18.0265 184.094L17.9898 184.115C7.15323 190.34 3.22563 197.116 2.49183 202.893C1.75062 208.728 4.22729 213.84 6.75946 216.762C6.83639 216.85 6.90385 216.945 6.96309 217.05C12.63 227.089 23.4463 239.386 34.7842 250.763C46.1006 262.119 57.8507 272.472 65.3043 278.612C65.9207 279.119 66.0499 279.917 65.8453 280.541C60.9423 295.471 58.2298 305.023 57.033 310.721C56.4538 313.478 56.252 315.235 56.2905 316.236C56.3136 316.215 56.3374 316.192 56.362 316.169C56.6971 315.847 57.0931 315.396 57.5424 314.822C58.4398 313.675 59.4835 312.12 60.5959 310.326C62.8172 306.742 65.2533 302.3 67.2513 298.479C67.7565 297.513 68.7928 297.399 69.4762 297.665C70.1515 297.928 70.8225 298.686 70.6061 299.715C68.1501 311.403 67.1592 318.446 67.1155 322.162C67.1046 323.085 67.1533 323.757 67.2373 324.221C67.2442 324.26 67.2513 324.296 67.2584 324.33C67.2961 324.293 67.3359 324.252 67.3777 324.207C67.9847 323.558 68.7635 322.389 69.6556 320.77C70.5359 319.172 71.4885 317.207 72.4542 315.022C74.3855 310.655 76.3474 305.462 77.8684 300.683C78.2445 299.501 79.4336 299.382 80.0488 299.514C80.6678 299.647 81.6556 300.219 81.6017 301.398C81.0925 312.526 81.3073 318.842 81.9424 321.763C82.0535 322.275 82.1678 322.633 82.2697 322.873C82.4605 322.654 82.6936 322.322 82.9629 321.855C84.2622 319.602 85.8386 315.231 87.4457 309.879C89.0408 304.567 90.6332 298.404 91.9838 292.651C92.3425 291.123 94.3517 290.79 95.1942 292.098C97.6399 295.895 100.847 300.719 103.28 303.398C103.886 304.064 104.405 304.554 104.82 304.857C104.891 304.909 104.954 304.951 105.008 304.986C105.066 304.579 105.069 303.912 104.951 302.897C103.798 292.981 98.7037 276.591 96.2427 270.333C94.3212 267.795 90.062 261.896 87.7014 257.647C87.1621 256.677 85.4971 254.267 83.0736 250.907C80.6722 247.578 77.5772 243.386 74.2279 238.897C67.53 229.92 59.8255 219.768 54.6414 212.985C53.9239 212.046 54.3269 210.749 55.3414 210.302L111.542 185.551L112.493 187.709L56.9774 212.158C62.1534 218.935 69.6092 228.764 76.1179 237.487C79.4701 241.98 82.5737 246.184 84.986 249.528C87.3762 252.841 89.14 255.381 89.7627 256.502C92.0578 260.633 96.2851 266.487 98.1718 268.974C98.2669 269.1 98.3444 269.235 98.4048 269.388C100.891 275.682 106.102 292.382 107.293 302.625C107.438 303.865 107.451 304.885 107.283 305.655C107.117 306.411 106.66 307.324 105.589 307.483C104.747 307.608 103.967 307.153 103.432 306.763C102.828 306.323 102.185 305.699 101.535 304.984C99.2038 302.418 96.2868 298.11 93.9613 294.534C92.6742 299.926 91.1928 305.6 89.7041 310.558C88.103 315.89 86.4599 320.512 85.0054 323.033C84.639 323.669 84.25 324.233 83.8352 324.65C83.4508 325.037 82.8531 325.49 82.0818 325.463C81.2352 325.434 80.6863 324.858 80.3688 324.33C80.0479 323.795 79.8168 323.086 79.6382 322.264C78.9969 319.314 78.7809 313.636 79.1172 304.413C77.7577 308.373 76.1764 312.435 74.6108 315.976C73.6273 318.2 72.6444 320.231 71.7209 321.908C70.8091 323.563 69.9156 324.946 69.0996 325.818C68.7048 326.24 68.2245 326.657 67.6718 326.856C67.376 326.963 67.0194 327.021 66.6374 326.943C66.2464 326.863 65.9253 326.661 65.681 326.403C65.2368 325.934 65.0305 325.27 64.9168 324.64C64.7957 323.97 64.7459 323.133 64.7577 322.134C64.7992 318.605 65.6238 312.491 67.5287 302.979C65.9435 305.908 64.2202 308.954 62.6 311.568C61.4691 313.392 60.3737 315.03 59.3997 316.275C58.9134 316.896 58.4407 317.442 57.9946 317.87C57.5716 318.276 57.0784 318.67 56.5454 318.86C56.2636 318.961 55.9061 319.029 55.5177 318.951C55.1078 318.868 54.7739 318.645 54.5321 318.353C54.1069 317.837 53.9824 317.131 53.9433 316.508C53.8604 315.185 54.1183 313.126 54.7254 310.236C55.9407 304.45 58.6538 294.903 63.4858 280.168C55.9677 273.957 44.3315 263.684 33.114 252.428C21.7766 241.052 10.7809 228.587 4.93882 218.261C2.09437 214.956 -0.68886 209.22 0.152629 202.596C1.00442 195.89 5.52991 188.564 16.7785 182.091C30.0821 173.127 62.9263 153.021 88.0488 144.251L88.8259 146.478ZM104.923 305.339C104.923 305.339 104.924 305.336 104.928 305.33C104.925 305.337 104.923 305.34 104.923 305.339ZM82.4568 323.211C82.4568 323.212 82.4554 323.21 82.4527 323.207C82.4555 323.21 82.4569 323.211 82.4568 323.211Z" fill="#E4EDFA"/>
<path d="M355.023 90.8067L322.612 71.9958C314.589 67.3387 311.859 57.0637 316.516 49.0406C321.173 41.0175 331.449 38.2881 339.472 42.9452L342.832 44.8964L344.742 41.6011C349.399 33.578 359.674 30.8486 367.697 35.5057C375.72 40.1627 378.449 50.4377 373.792 58.4608L355.023 90.8067Z" fill="#FBC73B"/>
<path d="M396.559 88.8851L428.97 70.0741C436.993 65.4171 439.722 55.1421 435.065 47.119C430.408 39.0959 420.133 36.3665 412.11 41.0236L408.75 42.9748L406.84 39.6795C402.183 31.6564 391.908 28.927 383.885 33.5841C375.862 38.2411 373.132 48.5161 377.789 56.5392L396.559 88.8851Z" fill="#FBC73B"/>
<path d="M377.418 80.9916L350.92 54.4936C344.359 47.9325 344.359 37.3038 350.92 30.7426C357.481 24.1815 368.11 24.1815 374.671 30.7426L377.418 33.4897L380.112 30.7957C386.673 24.2346 397.302 24.2346 403.863 30.7957C410.424 37.3568 410.424 47.9855 403.863 54.5466L377.418 80.9916Z" fill="#F96155"/>
<path d="M176.095 58.4062C176.095 58.4062 206.116 71.7536 212.63 93.4136C219.143 115.074 196.081 137.959 196.081 137.959L124.009 121.667L176.095 58.4062Z" fill="#032349"/>
<path d="M141.599 146.882L127.633 91.6508C127.633 91.6508 107.971 86.2986 108.476 72.8777C108.98 59.4567 123.203 62.4179 123.203 62.4179C123.203 62.4179 125.749 43.6548 144.288 38.3471C162.827 33.0395 177.673 52.5268 179.434 67.7912C182.032 90.3401 174.858 103.004 151.669 102.659L160.833 132.704" fill="#FBC73B"/>
<path fill-rule="evenodd" clip-rule="evenodd" d="M176.149 78.5363L170.375 69.357L172.371 68.1015L178.145 77.2808L176.149 78.5363Z" fill="#001A39"/>
<path d="M137.753 131.675C156.692 121.346 131.268 57.7967 131.268 57.7967C153.929 65.3318 175.424 55.2393 175.424 55.2393C175.424 55.2393 162.988 24.8789 129.556 35.9869C96.124 47.0949 93.2736 70.5627 93.2736 70.5627C93.2736 70.5627 58.5688 87.1848 64.3452 116.854C70.1215 146.524 105.918 159.432 105.918 159.432C105.918 159.432 122.706 139.879 137.753 131.675Z" fill="#032349"/>
<path d="M174.965 66.4685C176.395 66.486 177.577 64.7337 177.604 62.5541C177.63 60.3746 176.492 58.5939 175.061 58.5764C173.63 58.5589 172.449 60.3112 172.422 62.4908C172.395 64.6703 173.534 66.451 174.965 66.4685Z" fill="#001A39"/>
<path fill-rule="evenodd" clip-rule="evenodd" d="M176.322 65.0057C176.727 64.4055 177.002 63.5383 177.014 62.5469C177.026 61.5555 176.772 60.6818 176.382 60.072C175.989 59.4571 175.507 59.1713 175.054 59.1658C174.601 59.1603 174.112 59.4342 173.704 60.0392C173.299 60.6393 173.024 61.5065 173.011 62.498C172.999 63.4894 173.254 64.3631 173.643 64.9729C174.036 65.5878 174.519 65.8735 174.972 65.8791C175.425 65.8846 175.914 65.6107 176.322 65.0057ZM177.604 62.5541C177.577 64.7337 176.395 66.486 174.965 66.4685C173.534 66.451 172.395 64.6703 172.422 62.4908C172.449 60.3112 173.63 58.5589 175.061 58.5764C176.492 58.5939 177.63 60.3746 177.604 62.5541Z" fill="#001A39"/>
<path d="M164.646 68.9553C166.077 68.9728 167.257 67.2195 167.284 65.0399C167.311 62.8604 166.173 61.0797 164.742 61.0622C163.312 61.0447 162.13 62.7971 162.103 64.9766C162.077 67.1561 163.215 68.9378 164.646 68.9553Z" fill="#001A39"/>
<path fill-rule="evenodd" clip-rule="evenodd" d="M166.003 67.4922C166.407 66.8918 166.682 66.0243 166.695 65.0327C166.707 64.0412 166.453 63.1675 166.063 62.5577C165.67 61.9429 165.188 61.6572 164.735 61.6516C164.282 61.6461 163.793 61.92 163.385 62.5251C162.981 63.1252 162.705 63.9924 162.693 64.9838C162.681 65.9752 162.935 66.8492 163.325 67.4593C163.718 68.0745 164.2 68.3603 164.653 68.3659C165.106 68.3714 165.595 68.0975 166.003 67.4922ZM167.284 65.0399C167.257 67.2195 166.077 68.9728 164.646 68.9553C163.215 68.9378 162.077 67.1561 162.103 64.9766C162.13 62.7971 163.312 61.0447 164.742 61.0622C166.173 61.0797 167.311 62.8604 167.284 65.0399Z" fill="#001A39"/>
</svg>
