<svg width="823" height="540" viewBox="0 0 823 540" fill="none" xmlns="http://www.w3.org/2000/svg">
<path d="M52.0698 388.182L0 390.787L16.9215 490.999L29.219 409.381L64.2577 407.473" fill="#E4EDFA"/>
<path d="M170.905 426.385L130.875 460.563L203.365 530.125L165.145 457.393L191.984 434.262" fill="#E4EDFA"/>
<path d="M185.824 242.312C160.768 230.217 130.101 233.596 114.238 253.968C99.5544 272.831 92.9832 291.085 125.768 372.988L55.2294 376.905C55.2294 376.905 41.1931 383.432 38.2312 410.961C35.2692 438.491 53.0848 449.275 53.0848 449.275L160.998 443.483C187.683 442.051 206.332 415.876 199.514 389.433L180.591 316.026L226.512 345.141L168.047 419.491C168.047 419.491 164.426 436.116 181.973 449.703C197.128 461.441 215.937 457.903 215.937 457.903L287.572 375.61C306.013 354.427 303.786 321.895 282.701 303.481C246.094 271.525 214.67 256.233 185.824 242.312Z" fill="#F96155"/>
<path d="M134.582 239.323C149.14 247.304 163.675 255.756 179.483 261.055C194.117 265.964 211.768 268.992 226.776 263.803C227.308 263.622 227.088 262.881 226.545 262.974C218.383 264.307 210.562 265.415 202.257 264.691C194.287 264 186.449 262.113 178.885 259.541C163.417 254.27 149.672 245.581 134.933 238.725C134.533 238.538 134.188 239.103 134.582 239.323Z" fill="#001A39"/>
<path d="M104.48 308.16C129.376 315.01 149.737 331.921 173.992 340.45C186.46 344.838 199.816 347.356 213.051 345.908C225.354 344.564 236.802 339.776 247.531 333.802C253.976 330.215 260.234 326.288 266.52 322.432C273.716 318.022 281.028 313.727 288.043 309.037C288.499 308.73 288.098 308.022 287.61 308.291C275.483 315.016 263.876 322.69 251.941 329.749C241.124 336.15 229.726 341.832 217.242 344.043C190.382 348.799 164.596 336.589 141.811 323.792C129.93 317.117 118.006 310.71 104.661 307.49C104.227 307.386 104.046 308.044 104.48 308.16Z" fill="#001A39"/>
<path d="M42.3837 393.985C56.2335 388.336 71.2133 385.418 86.1711 385.549C101.968 385.686 116.953 389.745 131.236 396.333C144.51 402.454 156.956 410.232 170.323 416.167C183.696 422.107 198.1 426.441 212.843 426.402C229.249 426.358 244.838 420.133 258.545 411.466C259.011 411.17 258.6 410.463 258.112 410.72C244.416 418.037 230.67 424.57 214.835 425.053C199.175 425.536 183.794 420.884 169.654 414.483C156.188 408.389 143.611 400.523 130.112 394.495C117.058 388.665 103.367 384.924 89.0343 384.447C73.0124 383.915 56.793 386.877 42.1095 393.349C41.7584 393.508 42.0162 394.133 42.3837 393.985Z" fill="#001A39"/>
<path d="M109.285 324.528C114.715 314.348 118.983 303.24 120.798 291.815C122.839 278.958 121.681 264.346 114.858 252.959C114.617 252.558 113.887 252.821 114.068 253.293C116.695 259.99 119.153 266.468 119.997 273.676C120.743 280.033 120.469 286.478 119.389 292.78C117.496 303.822 113.048 313.953 108.676 324.182C108.517 324.577 109.071 324.934 109.285 324.528Z" fill="#001A39"/>
<path d="M89.8675 447.235C86.0609 435.688 83.1977 424.005 82.2158 411.85C81.7386 405.943 81.6509 400.003 81.9964 394.084C82.3584 387.919 83.5761 381.951 84.3989 375.852C84.4702 375.314 83.7517 375.084 83.5706 375.621C81.6783 381.156 81.1188 387.354 80.7458 393.163C80.3344 399.542 80.4497 405.954 81.0146 412.322C82.0678 424.269 84.4812 436.451 89.2367 447.503C89.3848 447.86 89.9882 447.608 89.8675 447.235Z" fill="#001A39"/>
<path d="M166.116 443.444C161.678 429.792 159.194 415.569 160.132 401.187C161.059 386.964 165.271 373.323 171.091 360.384C176.483 348.382 183.098 336.973 188.468 324.961C193.706 313.239 197.809 300.903 199.29 288.107C201.001 273.33 198.571 258.339 192.06 244.939C191.852 244.506 191.095 244.813 191.27 245.274C196.383 258.383 199.443 271.465 198.22 285.633C197.008 299.68 192.422 313.283 186.592 326.047C181.249 337.73 174.854 348.898 169.654 360.647C164.366 372.599 160.439 385.121 159.21 398.181C157.757 413.644 160.208 429.084 165.447 443.647C165.595 444.042 166.253 443.872 166.116 443.444Z" fill="#001A39"/>
<path d="M241.217 429.161C237.273 410.517 236.818 391.144 241.996 372.686C246.801 355.556 255.753 340.171 263.509 324.292C267.88 315.34 272.142 305.878 274.243 296.093C274.358 295.55 273.59 295.341 273.415 295.862C270.272 305.044 267.019 314.023 262.79 322.778C258.912 330.813 254.678 338.668 250.822 346.715C243 363.038 237.465 380.042 237.027 398.274C236.774 408.729 237.926 419.216 240.553 429.342C240.663 429.781 241.31 429.594 241.217 429.161Z" fill="#001A39"/>
<path fill-rule="evenodd" clip-rule="evenodd" d="M197.452 373.861C199.938 384.251 201.778 392.471 202.206 395.731C203.565 406.094 201.464 418.749 192.802 428.914C184.119 439.103 169.025 446.58 144.825 446.927L144.786 444.184C168.433 443.845 182.679 436.564 190.714 427.135C198.77 417.682 200.767 405.856 199.487 396.089C199.082 393.005 197.285 384.952 194.785 374.5C192.294 364.087 189.128 351.388 186.013 339.082C182.898 326.776 179.836 314.866 177.551 306.032C176.409 301.615 175.462 297.968 174.8 295.424C174.469 294.153 174.21 293.157 174.033 292.48L173.762 291.444C173.762 291.443 173.762 291.443 175.089 291.096C176.416 290.749 176.416 290.749 176.416 290.75L176.687 291.787C176.864 292.465 177.123 293.461 177.454 294.734C178.116 297.278 179.064 300.927 180.207 305.346C182.492 314.182 185.556 326.097 188.672 338.409C191.788 350.72 194.957 363.432 197.452 373.861Z" fill="#001A39"/>
<path fill-rule="evenodd" clip-rule="evenodd" d="M32.0854 429.571L18.7183 414.317L20.3684 412.871L33.7355 428.125L32.0854 429.571Z" fill="#001A39"/>
<path fill-rule="evenodd" clip-rule="evenodd" d="M31.3013 440.109L17.9287 424.855L19.5785 423.408L32.9511 438.662L31.3013 440.109Z" fill="#001A39"/>
<path fill-rule="evenodd" clip-rule="evenodd" d="M31.0761 451.451L17.709 436.197L19.3591 434.751L32.7262 450.005L31.0761 451.451Z" fill="#001A39"/>
<path fill-rule="evenodd" clip-rule="evenodd" d="M178.951 470.899L159.375 466.593L159.846 464.45L179.422 468.756L178.951 470.899Z" fill="#001A39"/>
<path fill-rule="evenodd" clip-rule="evenodd" d="M184.359 479.9L164.783 475.588L165.255 473.446L184.831 477.757L184.359 479.9Z" fill="#001A39"/>
<path fill-rule="evenodd" clip-rule="evenodd" d="M190.689 489.214L171.113 484.908L171.584 482.765L191.16 487.071L190.689 489.214Z" fill="#001A39"/>
<path fill-rule="evenodd" clip-rule="evenodd" d="M262.834 42.9998C266.249 37.6346 269.876 34.1814 272.227 32.9104L274.308 36.6626C272.867 37.4415 269.723 40.2181 266.503 45.2762C263.33 50.2594 260.187 57.3044 258.611 66.4288C257.015 75.6706 256.96 82.8256 257.513 87.9762C258.073 93.1984 259.239 96.2038 259.928 97.2735L259.943 97.2972L259.958 97.3213C260.767 98.6516 262.035 99.9053 263.369 100.33C263.984 100.525 264.632 100.555 265.351 100.324C266.092 100.085 267.039 99.5242 268.14 98.3236C268.571 97.8528 269.099 96.9835 269.67 95.632C270.227 94.3127 270.769 92.67 271.291 90.7693C272.334 86.969 273.251 82.2914 274.036 77.4238C275.605 67.697 276.618 57.3997 277.067 52.2496L281.385 52.617C280.932 57.8054 279.909 68.2204 278.316 78.0965C277.52 83.0303 276.574 87.8768 275.474 91.8878C274.923 93.8928 274.324 95.7276 273.669 97.2781C273.028 98.7965 272.274 100.189 271.353 101.194C269.881 102.801 268.323 103.866 266.694 104.391C265.043 104.923 263.457 104.852 262.04 104.402C259.323 103.537 257.347 101.331 256.256 99.5456C255.055 97.6659 253.792 93.9155 253.203 88.4266C252.604 82.8421 252.685 75.2914 254.339 65.71C256.014 56.0112 259.37 48.4397 262.834 42.9998Z" fill="#E4EDFA"/>
<path d="M283.031 32.6363C261.364 78.4367 268.22 48.2688 276.174 23.5859L298.934 44.7035C271.786 88.0356 280.562 59.2389 290.161 38.6699C260.818 93.2464 272.262 55.3994 283.031 32.6363Z" fill="#001A39"/>
<path fill-rule="evenodd" clip-rule="evenodd" d="M275.194 20.5006C271.525 19.3923 268.236 19.4693 265.704 21.0783C265.156 21.4266 264.49 22.1107 263.727 23.197C262.974 24.2678 262.177 25.6587 261.342 27.3392C259.674 30.6996 257.903 35.131 256.091 40.2799C252.469 50.5727 248.718 63.6257 245.325 76.4716C241.933 89.3126 238.903 101.926 236.721 111.33C235.63 116.031 234.751 119.93 234.145 122.653C233.842 124.014 233.607 125.081 233.448 125.808C233.402 126.021 233.362 126.204 233.328 126.357C233.305 126.466 233.284 126.559 233.268 126.637L233.207 126.919C233.206 126.92 233.206 126.92 232.134 126.689L233.206 126.92L233.007 127.847L165.11 123.324L165.256 121.135L231.263 125.532C231.276 125.47 231.29 125.406 231.305 125.339C231.464 124.61 231.7 123.54 232.003 122.176C232.611 119.448 233.491 115.543 234.583 110.834C236.768 101.417 239.804 88.7808 243.203 75.9112C246.602 63.0465 250.37 49.9271 254.022 39.5515C255.847 34.3663 257.652 29.8397 259.377 26.3637C260.24 24.626 261.093 23.1292 261.931 21.9359C262.758 20.7581 263.622 19.8017 264.527 19.2265C267.809 17.1414 271.837 17.1944 275.829 18.4003C279.831 19.6091 283.955 22.0174 287.622 24.9014C291.293 27.7887 294.563 31.1986 296.84 34.4695C297.979 36.1049 298.886 37.7295 299.466 39.2572C300.041 40.7722 300.324 42.2727 300.114 43.6222C299.74 46.0138 298.467 48.7457 296.861 51.4323C295.241 54.1414 293.222 56.9022 291.261 59.3696C289.298 61.8399 287.379 64.0328 285.953 65.6073C285.239 66.395 284.647 67.0292 284.233 67.4671C284.071 67.6388 283.936 67.7803 283.832 67.8893C283.81 68.0444 283.781 68.2491 283.746 68.5007C283.657 69.1307 283.525 70.0553 283.354 71.2347C283.012 73.5934 282.512 76.9715 281.883 81.0509C280.623 89.2088 278.842 100.175 276.755 111.403C274.669 122.626 272.274 134.131 269.786 143.359C268.543 147.971 267.27 152.039 265.991 155.228C265.352 156.822 264.704 158.217 264.048 159.357C263.399 160.486 262.707 161.429 261.959 162.065C260.509 163.296 257.927 164.167 254.776 164.828C251.563 165.503 247.547 166 243.042 166.359C234.029 167.078 222.952 167.255 212.205 167.174C201.452 167.092 191.008 166.752 183.253 166.432C179.375 166.272 176.169 166.117 173.931 166.002C172.812 165.945 171.936 165.897 171.339 165.864C171.04 165.848 170.811 165.835 170.657 165.826L170.482 165.816L170.424 165.812C170.423 165.812 170.423 165.812 170.487 164.717C170.552 163.622 170.552 163.622 170.553 163.622L170.555 163.622L170.783 163.635C170.936 163.644 171.163 163.657 171.46 163.674C172.055 163.707 172.928 163.754 174.044 163.811C176.275 163.926 179.474 164.08 183.343 164.24C191.083 164.559 201.502 164.899 212.221 164.98C222.946 165.061 233.949 164.883 242.868 164.172C247.329 163.816 251.242 163.329 254.325 162.681C257.47 162.021 259.551 161.231 260.539 160.392C261.008 159.993 261.551 159.298 262.146 158.264C262.734 157.242 263.338 155.949 263.955 154.412C265.187 151.337 266.435 147.362 267.668 142.788C270.134 133.644 272.516 122.205 274.598 111.002C276.679 99.8035 278.457 88.8608 279.714 80.7162C280.343 76.6443 280.841 73.2729 281.183 70.9198C281.353 69.7433 281.485 68.8214 281.573 68.1939C281.617 67.8802 281.651 67.64 281.674 67.4785L281.707 67.2382L281.707 67.2354C281.707 67.2348 281.708 67.2345 282.794 67.3843L281.708 67.2345L281.757 66.8761L282.01 66.6175L282.019 66.6079L282.05 66.5766C282.077 66.5486 282.118 66.5064 282.171 66.4507C282.278 66.3393 282.437 66.174 282.639 65.9599C283.044 65.5318 283.625 64.9091 284.327 64.1342C285.732 62.5834 287.617 60.4276 289.543 58.0046C291.471 55.5786 293.426 52.9013 294.978 50.3063C296.543 47.6886 297.639 45.2502 297.946 43.2838C298.075 42.4543 297.918 41.3616 297.414 40.0356C296.916 38.7223 296.108 37.258 295.04 35.7232C292.902 32.6536 289.789 29.3978 286.265 26.6259C282.737 23.8507 278.855 21.6062 275.194 20.5006Z" fill="#E4EDFA"/>
<path d="M179.06 131.702C183.92 162.215 163.126 190.897 132.607 195.757C102.094 200.616 73.4125 179.822 68.5527 149.303" fill="#617FA8"/>
<path d="M145.212 98.1832C145.547 113.591 133.331 126.349 117.918 126.684C104.299 126.98 92.7471 117.463 90.021 104.606C89.6645 102.917 89.4562 101.178 89.4178 99.3901C89.0833 83.988 101.298 71.2242 116.711 70.8896C124.731 70.7141 132.026 73.9393 137.231 79.2379C142.036 84.1361 145.053 90.7948 145.212 98.1832Z" fill="#FBC73B"/>
<path d="M137.237 79.2379C130.073 94.1738 114.956 104.634 97.2614 105.018C94.8041 105.073 92.3849 104.925 90.0264 104.606C89.6698 102.917 89.4616 101.178 89.4232 99.3901C89.0886 83.988 101.304 71.2242 116.717 70.8896C124.736 70.7141 132.026 73.9393 137.237 79.2379Z" fill="#234977"/>
<path d="M91.5026 80.9928C97.3734 80.9928 102.133 76.2335 102.133 70.3627C102.133 64.4919 97.3734 59.7327 91.5026 59.7327C85.6317 59.7327 80.8726 64.4919 80.8726 70.3627C80.8726 76.2335 85.6317 80.9928 91.5026 80.9928Z" fill="#234977"/>
<path d="M95.6439 60.5334C112.36 60.5334 125.91 46.9826 125.91 30.2668C125.91 13.5509 112.36 0 95.6439 0C78.9281 0 65.3774 13.5509 65.3774 30.2668C65.3774 46.9826 78.9281 60.5334 95.6439 60.5334Z" fill="#234977"/>
<path d="M140.119 104.121C141.787 104.085 143.094 101.902 143.037 99.246C142.979 96.5898 141.58 94.4658 139.911 94.5019C138.242 94.5379 136.936 96.7204 136.993 99.3766C137.05 102.033 138.45 104.157 140.119 104.121Z" fill="#001A39"/>
<path d="M130.085 104.664C131.754 104.628 133.06 102.445 133.003 99.7892C132.946 97.1331 131.546 95.009 129.877 95.0451C128.208 95.0811 126.902 97.2636 126.959 99.9198C127.017 102.576 128.416 104.7 130.085 104.664Z" fill="#001A39"/>
<path d="M655.66 46.8319C655.995 62.2394 668.753 74.4602 684.16 74.1256C697.78 73.8294 708.909 63.8247 711.075 50.8634C711.355 49.1631 711.487 47.4133 711.449 45.6252C711.114 30.2231 698.356 17.9968 682.948 18.3314C674.929 18.5069 667.782 22.0392 662.812 27.5627C658.227 32.6583 655.501 39.4489 655.66 46.8319Z" fill="#F96155"/>
<path d="M657.387 16.4719C657.524 22.8729 662.823 27.9467 669.224 27.8096C674.884 27.6889 679.503 23.5312 680.402 18.1448C680.518 17.4373 680.573 16.7133 680.556 15.9673C680.419 9.5662 675.12 4.49254 668.719 4.62967C665.39 4.70097 662.417 6.17097 660.355 8.46373C658.457 10.5865 657.321 13.4057 657.387 16.4719Z" fill="#194D87"/>
<path d="M676.529 12.8025C676.612 16.7024 679.842 19.7961 683.742 19.7083C687.187 19.6315 690.006 17.1029 690.554 13.8228C690.626 13.395 690.659 12.9506 690.648 12.4953C690.566 8.59545 687.335 5.50195 683.435 5.58971C681.405 5.63359 679.595 6.52767 678.339 7.92636C677.176 9.21535 676.485 10.9321 676.529 12.8025Z" fill="#194D87"/>
<path d="M665.052 56.5956C666.721 56.5596 668.027 54.3771 667.97 51.7209C667.912 49.0647 666.513 46.9407 664.844 46.9767C663.175 47.0128 661.869 49.1953 661.927 51.8515C661.984 54.5076 663.383 56.6317 665.052 56.5956Z" fill="#001A39"/>
<path d="M675.101 56.7059C676.77 56.6698 678.077 54.4874 678.019 51.8312C677.962 49.1751 676.563 47.051 674.894 47.0871C673.225 47.1231 671.918 49.3056 671.975 51.9618C672.033 54.618 673.433 56.7419 675.101 56.7059Z" fill="#001A39"/>
<path d="M602.233 259.247C588.576 255.029 576.706 247.147 567.491 236.22C558.375 225.415 552.341 212.607 547.136 199.58C541.546 185.588 537.246 171.124 532.699 156.775C530.412 149.551 528.07 142.343 525.503 135.218C522.596 127.155 520.029 118.927 519.886 110.277C519.743 101.765 522.244 93.3285 528.761 87.5363C534.739 82.2212 542.951 80.1424 550.762 79.6378C559.406 79.0729 568.056 80.2851 576.519 81.98C586.08 83.8943 595.481 86.6312 604.641 89.9661C623.005 96.647 640.393 105.763 657.177 115.713C673.808 125.575 690.099 136.112 705.995 147.121C721.704 157.998 736.941 169.604 750.956 182.615C764.811 195.483 777.986 209.81 787.854 226.013C797.59 242.007 803.761 262.461 795.572 280.457C788.052 296.995 769.825 305.086 752.519 306.106C731.522 307.345 710.158 300.752 690.389 294.357C670.561 287.939 651.243 280.046 632.21 271.582C594.22 254.683 556.4 236.829 520.062 216.595C502.762 206.963 485.632 196.788 469.522 185.242C454.91 174.771 440.978 162.786 430.254 148.256C424.967 141.087 419.278 132.816 417.189 124.045C415.06 115.115 419.651 108.226 427.885 105.067C435.695 102.066 444.357 101.891 452.595 101.348C463.269 100.64 473.959 100.185 484.65 100.015C526.539 99.3566 568.714 103.174 609.194 114.32C644.518 124.045 678.399 139.398 708.073 160.998C737.238 182.225 764.981 210.528 776.741 245.359C787.503 277.249 782.078 316.999 753.227 337.738C724.732 358.225 685.968 355.592 653.804 346.882C615.688 336.559 580.863 316.604 547.799 295.492C515.575 274.923 484.227 251.046 463.05 218.673C453.111 203.48 445.53 186.695 441.812 168.874C439.014 155.458 435.942 132.07 452.211 125.625C456.49 123.93 461.185 123.727 465.726 123.688C470.937 123.639 476.148 123.837 481.342 124.232C491.873 125.027 502.323 126.689 512.64 128.932C532.419 133.227 551.826 139.474 570.64 146.918C589.327 154.312 607.461 163.11 624.859 173.169C640.75 182.357 656.267 192.46 670.27 204.363C695.595 225.897 716.526 254.919 716.334 289.409C716.251 304.301 712.396 319.363 703.905 331.721C694.191 345.856 678.849 353.958 662.229 357.029C644.178 360.364 625.2 358.488 607.296 355.126C589.492 351.78 572.038 346.366 555.484 339C539.001 331.666 523.353 322.462 508.954 311.585C494.408 300.599 480.689 287.835 469.911 273.069C459.49 258.786 451.449 242.035 450.752 224.104C450.417 215.459 451.646 206.491 455.699 198.752C459.906 190.716 466.971 185.379 475.621 182.867C484.101 180.404 493.07 180.366 501.824 180.799C511.763 181.293 521.669 182.494 531.432 184.419C550.899 188.248 569.855 194.561 587.983 202.575C623.055 218.081 656.245 239.341 683.588 266.344C696.709 279.306 709.878 293.929 716.384 311.481C721.94 326.472 721.77 344.035 712.319 357.495C701.338 373.144 680.253 373.89 662.893 374.126C642.62 374.4 622.402 371.757 602.755 366.842C563.997 357.144 528.075 338.753 495.264 316.226C479.022 305.074 463.505 292.914 448.492 280.167C435.416 269.065 420.124 256.597 415.483 239.292C410.766 221.723 420.842 205.021 434.451 194.528C449.255 183.114 467.728 177.684 486.043 175.402C505.213 173.01 524.823 173.202 544.042 174.809C564.112 176.482 584.001 180.086 603.402 185.478C622.698 190.842 641.556 197.945 659.492 206.875C674.565 214.379 689.051 223.374 701.716 234.52C714.146 245.457 724.863 258.583 731.495 273.853C738.203 289.305 742.377 310.911 725.955 321.815C710.838 331.847 692.243 327.377 677.384 319.325C661.494 310.719 646.69 299.425 632.549 288.23C605.074 266.47 579.914 241.716 558.111 214.258C536.39 186.904 518.114 156.692 504.27 124.615C500.754 116.465 497.403 108.16 494.693 99.7021C491.923 91.0577 489.839 80.6964 495.209 72.5785C504.27 58.8822 525.206 59.4582 539.55 60.3194C577.155 62.5792 615.392 75.8201 646.229 97.5246C673.358 116.618 695.326 144.543 699.802 178.155C703.927 209.119 693.083 243.45 665.366 260.349C636.087 278.203 598.471 277.38 566.142 269.438C550.57 265.609 535.299 259.576 522.332 249.993C508.537 239.797 498.697 225.442 495.011 208.614C490.815 189.471 494.381 169.566 501.621 151.624C508.603 134.319 518.69 117.627 530.384 103.098C540.899 90.0266 553.597 77.9374 568.824 70.56C583.913 63.2429 601.07 61.2628 617.23 66.0403C632.697 70.6094 646.641 80.7457 655.351 94.3707C665.838 110.777 667.254 130.797 666.798 149.764C665.767 192.614 658.801 235.271 649.142 276.952C641.128 311.541 631.288 347.079 610.285 376.293C600.341 390.121 587.347 404.02 570.842 409.691C562.944 412.406 554.041 413.081 546.472 409C539.21 405.089 534.723 397.855 532.063 390.258C529.019 381.564 527.834 372.245 527.164 363.096C526.397 352.647 526.583 342.148 527.455 331.71C529.183 310.949 533.539 290.396 539.007 270.321C549.456 231.953 565.099 195.005 585.465 160.844C602.299 132.607 624.903 102.785 657.468 92.1986C673.649 86.9384 693.763 85.9566 706.148 99.598C716.828 111.363 719.241 128.773 720.075 144.005C722.033 179.878 715.105 216.178 700.46 248.962C685.985 281.363 663.804 312.309 634.563 332.911C620.175 343.048 603.55 350.847 585.861 352.564C568.747 354.221 551.858 349.904 537.263 340.925C505.603 321.442 490.678 285.164 490.146 249.039C489.565 209.837 504.994 171.809 524.23 138.317C532.814 123.37 542.912 108.791 555.961 97.382C569.833 85.2599 586.881 77.6522 605.272 75.9519C624.212 74.1966 643.24 77.9868 661.083 84.1795C678.509 90.2295 695.343 98.5832 710.887 108.511C725.768 118.017 739.733 129.64 749.76 144.312C760.889 160.592 765.87 179.845 767.674 199.289C771.251 237.877 764.027 277.539 746.458 312.123C729.959 344.6 704.173 373.062 668.817 384.669C633.092 396.401 594.055 391.931 558.04 383.95C522.464 376.068 484.013 362.909 464.997 329.291C456.078 313.527 453.319 295.3 459.139 277.967C465.249 259.762 478.413 244.239 491.589 230.658C505.263 216.562 520.522 204.111 536.314 192.471C551.579 181.221 567.442 170.767 583.88 161.311C616.873 142.327 652.312 127.281 689.452 118.648C707.964 114.342 726.827 111.747 745.827 111.117C755.201 110.804 764.591 110.968 773.949 111.627C779.922 112.049 791.474 113.278 791.479 121.467C791.479 125.729 787.744 129.146 784.689 131.614C780.646 134.878 776.236 137.747 772.002 140.758C763.237 146.984 754.433 153.16 745.608 159.297C727.803 171.677 709.895 183.915 691.931 196.058C656.273 220.171 620.384 243.954 584.402 267.578C567.14 278.916 549.676 290.029 531.284 299.458C522.135 304.153 512.712 308.788 502.608 311.02C493.854 312.951 481.112 313.67 474.897 305.81C469.494 298.975 469.961 288.652 471.074 280.529C472.407 270.853 475.66 261.506 479.79 252.692C487.957 235.282 498.927 218.953 510.391 203.568C533.154 173.016 560.755 145.228 592.13 123.513C623.016 102.138 659.037 87.0975 697.136 88.0958C715.566 88.5785 734.068 92.939 750.32 101.754C765.481 109.976 779.467 122.416 786 138.728C793.317 156.999 789.795 177.294 782.566 195.005C775.776 211.636 765.672 227.066 753.808 240.51C729.147 268.445 696.385 287.983 660.902 298.849C642.159 304.592 622.726 308.047 603.171 309.369C585.679 310.549 567.732 309.885 550.865 304.735C534.394 299.705 519.787 289.941 510.068 275.581C500.82 261.907 495.993 245.463 494.43 229.128C492.96 213.775 493.815 198.028 497.194 182.971C500.727 167.229 507.429 151.926 519.453 140.824C521.279 139.134 518.548 136.414 516.727 138.098C503.442 150.368 496.141 167.372 492.554 184.831C489.032 201.95 488.391 219.814 490.996 237.103C493.541 253.981 499.591 270.513 510.364 283.902C521.531 297.785 537.422 306.583 554.552 310.878C572.899 315.485 592.13 315.463 610.85 313.659C631.315 311.684 651.594 307.488 671.005 300.692C707.152 288.032 740.222 266.202 763.95 235.902C786.274 207.391 806.547 164.695 786.631 129.761C767.921 96.9433 726.586 83.3237 690.752 83.9435C651.127 84.6292 614.108 101.896 582.701 125.098C550.569 148.838 522.546 178.342 499.701 211.071C488.27 227.45 477.004 244.898 470.663 263.969C467.624 273.107 465.622 283.085 466.335 292.761C466.928 300.807 469.856 309.249 477.409 313.242C486.021 317.794 497.052 316.851 506.151 314.471C516.343 311.805 525.931 306.983 535.239 302.151C554.81 291.987 573.332 279.969 591.729 267.853C629.697 242.852 667.648 217.829 705.265 192.296C724.101 179.51 742.816 166.549 761.394 153.39C770.132 147.203 779.292 141.29 787.585 134.51C793.344 129.804 798.637 121.911 793.284 114.847C788.726 108.835 779.922 108.078 773.011 107.645C763.187 107.03 753.326 106.97 743.491 107.42C723.893 108.325 704.355 111.259 685.278 115.823C646.487 125.104 609.49 141.29 575.236 161.579C557.903 171.847 541.212 183.191 525.234 195.461C508.993 207.934 493.442 221.432 479.949 236.889C467.339 251.337 455.277 268.078 452.293 287.484C449.54 305.382 455.124 323.422 465.331 338.122C488.105 370.906 528.717 382.771 565.933 390.214C603.665 397.756 644.633 400.581 680.796 385.008C716.12 369.793 741.05 337.288 755.848 302.689C771.629 265.801 777.235 223.566 769.972 183.975C766.413 164.585 758.52 146.726 745.476 131.861C733.343 118.033 718.024 107.305 702.029 98.4077C668.888 79.9669 628.046 64.7457 589.892 75.0248C553.422 84.8486 530.28 117.545 513.502 149.222C494.534 185.023 481.09 225.546 486.646 266.492C489.202 285.317 495.741 303.884 507.062 319.264C517.412 333.328 531.333 344.754 547.503 351.462C564.096 358.346 582.334 359.344 599.694 354.84C617.685 350.173 633.954 340.278 648.056 328.364C676.578 304.268 697.75 271.171 710.596 236.314C717.085 218.712 721.413 200.364 723.552 181.732C725.604 163.823 726.015 145.108 722.894 127.292C720.174 111.747 713.301 95.0673 698.156 87.9641C681.805 80.296 661.653 84.503 645.972 91.8969C613.094 107.398 591.461 140.182 574.457 170.959C554.321 207.402 539.254 246.658 529.989 287.254C525.064 308.832 521.614 330.959 521.998 353.151C522.173 363.348 523.023 373.715 525.267 383.681C527.071 391.711 530.072 399.698 535.431 406.055C547.542 420.426 567.123 418.188 582.037 409.834C597.725 401.052 610.006 386.144 619.484 371.137C640.064 338.55 649.241 299.798 657.128 262.521C661.779 240.554 665.531 218.383 668.054 196.069C669.332 184.754 670.281 173.411 670.846 162.04C671.367 151.547 671.691 140.988 670.792 130.506C669.19 111.874 663.156 94.1129 649.729 80.6909C637.996 68.9638 622.243 61.3615 605.727 59.6885C569.586 56.03 539.27 82.4516 519.557 109.85C496.887 141.35 478.216 183.986 494.347 222.458C507.808 254.557 542.479 270.113 574.764 276.069C608.755 282.344 648.527 281.225 676.199 257.897C701.354 236.692 708.688 200.891 702.15 169.725C694.948 135.41 670.007 107.902 641.117 89.511C625.238 79.4074 607.85 71.6789 589.931 66.0019C569.773 59.6172 548.288 55.6734 527.083 56.1177C512.536 56.4249 494.55 60.5497 489.175 76.0011C485.95 85.2709 488.681 95.4842 491.72 104.414C494.632 112.976 497.924 121.412 501.484 129.728C515.942 163.483 535.787 194.742 559.104 223.061C582.548 251.535 609.605 276.931 639.082 299.068C646.564 304.685 654.199 310.104 661.993 315.271C670.364 320.822 679.09 326.06 688.662 329.264C703.867 334.359 722.889 333.147 734.27 320.564C747.193 306.281 741.625 284.966 734.319 269.372C726.986 253.712 715.413 240.34 702.216 229.309C688.624 217.949 673.293 208.822 657.293 201.286C638.325 192.345 618.491 185.247 598.158 180.119C577.841 174.99 557.009 171.804 536.089 170.608C516.162 169.472 495.774 169.741 476.099 173.378C457.855 176.751 439.513 183.355 425.822 196.327C412.932 208.543 405.511 226.325 411.726 243.751C418 261.336 433.441 273.892 447.263 285.531C463.017 298.794 479.335 311.432 496.432 322.928C531.191 346.306 569.57 364.977 610.725 373.698C631.107 378.015 652.065 379.918 672.881 378.64C682.573 378.048 692.496 376.995 701.398 372.848C708.913 369.343 714.973 363.364 718.939 356.113C738.12 321.058 709.346 284.851 685.091 261.496C656.195 233.681 621.074 211.894 584.165 196.404C564.891 188.319 544.947 182.434 524.345 178.923C514.549 177.256 504.544 176.236 494.605 176.159C485.703 176.087 476.565 177.003 468.359 180.667C451.207 188.319 445.113 207.396 446.007 224.965C446.956 243.576 455.129 261.013 466.017 275.855C477.185 291.071 491.155 304.109 506.146 315.491C521.351 327.037 537.97 336.718 555.495 344.287C572.949 351.829 591.236 357.375 609.984 360.567C628.578 363.732 648.045 365.268 666.617 361.148C683.632 357.375 698.793 348.171 708.573 333.586C717.239 320.658 721.177 304.85 721.26 289.393C721.452 253.476 699.868 223.001 673.408 200.595C658.543 188.012 642.088 177.322 625.188 167.69C607.071 157.367 588.17 148.432 568.72 140.928C548.661 133.189 527.927 126.755 506.782 122.761C495.993 120.721 485.055 119.35 474.074 118.933C464.969 118.587 454.125 117.907 446.227 123.321C432.174 132.958 433.941 153.368 436.71 167.931C440.265 186.624 448.086 204.396 458.393 220.325C480.305 254.195 512.969 279.026 546.609 300.39C581.275 322.407 617.981 343.146 658.209 352.893C691.772 361.022 731.922 361.724 759.935 338.435C787.98 315.118 792.374 273.749 780.202 241.119C766.863 205.367 737.983 176.702 707.305 155.129C675.794 132.969 639.653 117.556 602.365 108.193C559.351 97.3929 514.67 94.442 470.46 96.1423C459.939 96.5482 449.277 96.8828 438.822 98.1992C431.62 99.1043 423.935 100.843 418.357 105.791C403.509 118.955 419.454 141.29 428.499 152.935C440.034 167.789 454.619 179.943 469.961 190.683C487.178 202.734 505.416 213.38 523.863 223.424C543.154 233.933 562.856 243.669 582.69 253.103C602.48 262.516 622.331 271.851 642.494 280.441C662.602 289.009 683.078 296.792 704.141 302.672C723.991 308.212 745.685 313.357 766.139 307.932C783.493 303.336 798.215 291.071 802.082 273.02C806.223 253.707 798.561 234.635 787.854 218.844C765.486 185.867 733.168 160.746 700.438 138.745C666.99 116.262 631.886 93.5754 592.859 82.2158C583.524 79.5007 573.908 77.4547 564.233 76.429C556.049 75.5624 547.509 75.6666 539.561 77.9923C532.014 80.1973 525.212 84.6512 521.087 91.4582C516.699 98.6985 515.959 107.486 516.984 115.724C518.054 124.308 521.076 132.212 523.917 140.314C526.6 147.949 529.063 155.661 531.52 163.373C536.242 178.194 540.888 193.08 547.262 207.287C552.637 219.271 559.285 230.878 568.385 240.444C577.573 250.098 589.058 256.954 601.839 260.673C602.766 260.969 603.155 259.532 602.233 259.247Z" fill="#E4EDFA"/>
<path fill-rule="evenodd" clip-rule="evenodd" d="M382.387 159.829C418.883 192.967 456.169 222.803 479.339 240.135L476.711 243.649C453.441 226.243 416.047 196.319 379.437 163.078C342.864 129.871 306.919 93.2165 286.681 62.3622L290.35 59.9556C310.263 90.3148 345.853 126.657 382.387 159.829Z" fill="#E4EDFA"/>
<path fill-rule="evenodd" clip-rule="evenodd" d="M599.21 183.312C621.128 190.543 642.719 197.668 664.998 205.824L663.489 209.945C641.335 201.834 619.818 194.735 597.944 187.518C518.176 161.201 433.655 133.316 296.145 49.0426L298.438 45.3013C435.483 129.29 519.503 157.012 599.21 183.312Z" fill="#E4EDFA"/>
<path fill-rule="evenodd" clip-rule="evenodd" d="M544.562 186.591C499.182 223.312 370.396 288.788 223.479 239.667L224.871 235.505C369.903 283.997 497.149 219.312 541.802 183.18L544.562 186.591Z" fill="#E4EDFA"/>
<path fill-rule="evenodd" clip-rule="evenodd" d="M203.506 282.663C204.425 275.97 203.974 266.744 203.317 258.108L207.61 256.702C208.264 265.294 208.844 276.038 207.854 283.259C207.364 286.827 206.472 290.143 204.783 292.42C203.908 293.6 202.773 294.563 201.33 295.076C199.883 295.59 198.322 295.583 196.717 295.155C191.14 293.668 188.081 287.836 186.638 281.412C185.153 274.795 185.236 268.062 186.493 260.267L190.727 259.514C189.538 266.896 189.584 274.5 190.92 280.451C192.299 286.594 194.824 290.109 197.847 290.915C198.772 291.162 199.407 291.102 199.86 290.941C200.316 290.779 200.786 290.444 201.258 289.806C202.265 288.448 203.041 286.052 203.506 282.663Z" fill="#E4EDFA"/>
<path fill-rule="evenodd" clip-rule="evenodd" d="M599.577 257.506C599.578 257.505 599.578 257.505 600.496 259.498C601.414 261.491 601.412 261.491 601.41 261.492L601.401 261.497L601.368 261.512C601.34 261.525 601.298 261.544 601.243 261.569C601.133 261.619 600.97 261.692 600.756 261.788C600.328 261.98 599.693 262.26 598.86 262.621C597.194 263.342 594.738 264.382 591.557 265.663C585.197 268.226 575.943 271.754 564.339 275.631C541.137 283.382 508.521 292.531 470.865 298.119C395.602 309.289 299.89 306.277 219.052 249.051L221.587 245.47C301.11 301.764 395.486 304.87 470.221 293.779C507.564 288.237 539.925 279.16 562.949 271.469C574.459 267.623 583.63 264.126 589.918 261.593C593.061 260.327 595.483 259.301 597.116 258.594C597.933 258.241 598.552 257.967 598.965 257.782C599.171 257.69 599.326 257.62 599.429 257.573C599.48 257.55 599.518 257.533 599.543 257.521L599.57 257.509L599.577 257.506Z" fill="#E4EDFA"/>
<path fill-rule="evenodd" clip-rule="evenodd" d="M123.114 209.318L134.908 154.636L132.764 154.174L120.424 211.387L121.717 211.448C146.762 212.637 199.608 215.124 210.583 215.563C216.014 215.78 219.774 216.367 222.253 216.997C223.492 217.312 224.396 217.634 225.022 217.918C225.678 218.216 225.94 218.433 225.993 218.491L226.32 218.855H226.677C226.682 218.861 226.689 218.869 226.696 218.878C226.803 219.01 226.981 219.327 227.122 219.967C227.403 221.25 227.472 223.558 226.823 227.45C225.535 235.181 221.062 245.447 218.971 249.629L218.967 249.637L218.963 249.645C214.96 257.979 212.256 263.057 210.52 265.795C210.263 266.201 210.034 266.543 209.832 266.831C209.852 266.688 209.875 266.536 209.901 266.375C210.076 265.306 210.368 263.974 210.742 262.48C211.488 259.494 212.545 255.926 213.592 252.647L214.617 249.44L211.899 251.428C210.04 252.789 207.203 254.756 204.734 256.241C203.493 256.988 202.385 257.589 201.555 257.934C201.339 258.024 201.159 258.09 201.012 258.136C201.03 258.023 201.072 257.879 201.154 257.693C201.376 257.19 201.776 256.682 202.078 256.38L200.84 254.61C196.969 256.409 193.849 257.664 191.374 258.468C188.882 259.277 187.111 259.606 185.914 259.605C184.696 259.605 184.353 259.275 184.248 259.103C184.104 258.867 184.014 258.324 184.356 257.255C185.025 255.168 186.98 252.188 189.601 248.916C192.192 245.682 195.333 242.282 198.239 239.377L201.141 236.475L197.178 237.542C157.366 248.26 120.438 249.659 107.011 249.024L106.991 249.023L106.971 249.023C103.053 248.979 97.1632 247.623 92.3316 243.719C87.5502 239.856 83.7088 233.422 83.9217 222.991C84.3566 201.68 93.1879 172.861 97.5657 161.095L95.5095 160.33C91.1112 172.15 82.1708 201.254 81.7281 222.946C81.5022 234.017 85.6142 241.112 90.9527 245.426C96.2329 249.693 102.618 251.164 106.927 251.216C120.141 251.838 155.371 250.526 193.927 240.663C191.83 242.88 189.729 245.248 187.889 247.545C185.265 250.82 183.07 254.076 182.267 256.587C181.873 257.817 181.716 259.164 182.374 260.244C183.071 261.388 184.396 261.799 185.913 261.799C187.451 261.8 189.479 261.39 192.051 260.555C193.961 259.935 196.208 259.068 198.829 257.924C198.754 258.546 198.852 259.234 199.349 259.855C199.858 260.491 200.642 260.438 200.988 260.389C201.427 260.327 201.916 260.161 202.399 259.96C203.38 259.551 204.599 258.883 205.865 258.121C207.394 257.202 209.048 256.11 210.535 255.086C209.818 257.451 209.141 259.836 208.613 261.948C208.233 263.47 207.925 264.867 207.736 266.02C207.556 267.118 207.454 268.155 207.588 268.864C207.644 269.159 207.824 269.857 208.529 270.134C209.243 270.415 209.859 270.016 210.126 269.813C210.753 269.335 211.494 268.357 212.373 266.97C214.183 264.115 216.934 258.938 220.937 250.602C223.053 246.369 227.644 235.872 228.987 227.811C229.655 223.804 229.633 221.177 229.265 219.497C229.08 218.657 228.795 217.986 228.405 217.501C228.118 217.145 227.747 216.863 227.317 216.735C226.963 216.445 226.487 216.174 225.929 215.92C225.157 215.57 224.125 215.209 222.793 214.871C220.129 214.193 216.21 213.592 210.671 213.37C199.891 212.939 148.646 210.529 123.114 209.318ZM200.59 258.223C200.591 258.222 200.603 258.221 200.624 258.223C200.599 258.225 200.589 258.224 200.59 258.223ZM208.738 268.106C208.739 268.105 208.748 268.099 208.766 268.09C208.747 268.103 208.738 268.107 208.738 268.106ZM209.749 268.478C209.756 268.497 209.759 268.508 209.758 268.51C209.758 268.511 209.754 268.501 209.749 268.478Z" fill="#E4EDFA"/>
<path d="M743.836 485.999C743.836 485.999 735.033 497.145 713.718 502.685C693.11 508.038 679.09 502.817 679.09 502.817L652.57 400.701C652.57 400.701 661.384 399.719 683.994 390.307C707.278 380.615 714.288 372.217 714.288 372.217L743.836 485.999Z" fill="#617FA8"/>
<path d="M399.308 433.65C399.308 433.65 403.279 447.286 420.958 460.428C438.044 473.126 453.001 473.56 453.001 473.56L517.539 385.299C517.539 385.299 508.341 383.275 487.909 369.398C467.044 355.23 463.621 347.123 463.621 347.123L399.308 433.65Z" fill="#617FA8"/>
<path d="M453.642 472.832C457.341 467.806 448.311 454.878 433.472 443.956C418.633 433.034 403.605 428.254 399.905 433.28C396.206 438.306 405.237 451.235 420.076 462.157C434.914 473.079 449.943 477.858 453.642 472.832Z" fill="#001A39"/>
<path d="M714.295 505.503C732.178 500.897 745.414 492.265 743.858 486.222C742.301 480.178 726.542 479.013 708.659 483.619C690.776 488.224 677.54 496.857 679.097 502.9C680.653 508.943 696.412 510.109 714.295 505.503Z" fill="#001A39"/>
<path d="M429.932 448.416L396.199 494.047L321.58 421.062L397.443 458.021L412.336 438.209" fill="#FBC73B"/>
<path d="M712.462 487.941L724.897 540L822.323 502.564L738.017 506.431L732.955 485.862" fill="#FBC73B"/>
<path d="M701.312 45.844C701.433 51.4388 706.067 55.8762 711.662 55.7556C716.61 55.6459 720.652 52.0148 721.437 47.3031C721.541 46.6833 721.585 46.0524 721.574 45.3997C721.453 39.8049 716.818 35.3676 711.224 35.4882C708.311 35.5486 705.717 36.8375 703.907 38.8396C702.245 40.699 701.262 43.1618 701.312 45.844Z" fill="#F96155"/>
<path d="M664.084 26.7887C664.084 26.7887 674.117 32.8826 691.965 29.2295L693.567 46.0139L704.427 43.3646C704.427 43.3646 707.038 33.6012 716.5 36.8429C716.5 36.8429 716.868 17.6615 705.535 14.1346C685.745 7.97483 668.527 17.0198 664.084 26.7887Z" fill="#194D87"/>
<path fill-rule="evenodd" clip-rule="evenodd" d="M130.505 93.1346L125.771 93.8696L125.435 91.7016L130.168 90.9666L130.505 93.1346Z" fill="#001A39"/>
<path fill-rule="evenodd" clip-rule="evenodd" d="M141.139 88.3092L136.251 88.419L136.202 86.2255L141.089 86.1157L141.139 88.3092Z" fill="#001A39"/>
<path fill-rule="evenodd" clip-rule="evenodd" d="M757.017 500.298L741.823 514.378L740.332 512.769L755.526 498.689L757.017 500.298Z" fill="#001A39"/>
<path fill-rule="evenodd" clip-rule="evenodd" d="M767.669 500.934L752.487 515.014L750.995 513.405L766.178 499.325L767.669 500.934Z" fill="#001A39"/>
<path fill-rule="evenodd" clip-rule="evenodd" d="M779.144 500.984L763.95 515.059L762.459 513.449L777.653 499.375L779.144 500.984Z" fill="#001A39"/>
<path fill-rule="evenodd" clip-rule="evenodd" d="M382.647 442.267L389.909 461.667L387.854 462.436L380.592 443.036L382.647 442.267Z" fill="#001A39"/>
<path fill-rule="evenodd" clip-rule="evenodd" d="M372.839 438.049L380.09 457.449L378.035 458.217L370.784 438.817L372.839 438.049Z" fill="#001A39"/>
<path fill-rule="evenodd" clip-rule="evenodd" d="M362.565 432.942L369.822 452.342L367.767 453.111L360.51 433.711L362.565 432.942Z" fill="#001A39"/>
<path fill-rule="evenodd" clip-rule="evenodd" d="M140.511 108.477C140.511 108.477 140.51 108.477 140.276 109.548C140.041 110.62 140.041 110.62 140.04 110.62L140.039 110.62L140.037 110.619L140.03 110.618L140.013 110.614C139.999 110.61 139.981 110.606 139.958 110.6C139.913 110.589 139.852 110.573 139.777 110.552C139.627 110.509 139.419 110.444 139.173 110.352C138.685 110.169 138.027 109.872 137.366 109.414C136.028 108.488 134.633 106.855 134.737 104.244L136.929 104.332C136.864 105.973 137.689 106.969 138.615 107.611C139.087 107.937 139.571 108.158 139.943 108.297C140.126 108.366 140.278 108.413 140.379 108.442C140.429 108.456 140.467 108.466 140.49 108.472C140.501 108.475 140.509 108.476 140.512 108.477L140.512 108.477L140.511 108.477ZM140.512 108.477C140.513 108.477 140.514 108.478 140.514 108.478L140.513 108.477L140.512 108.477ZM140.514 108.478C140.515 108.478 140.515 108.478 140.514 108.478L140.514 108.478Z" fill="#001A39"/>
<path fill-rule="evenodd" clip-rule="evenodd" d="M668.539 56.688C668.539 56.6884 668.539 56.6888 669.542 57.133C670.545 57.5772 670.544 57.5777 670.544 57.5781L670.544 57.5791L670.543 57.5815L670.54 57.5874L670.533 57.6038C670.527 57.6168 670.519 57.6339 670.509 57.6547C670.489 57.6964 670.461 57.7532 670.425 57.8227C670.352 57.9614 670.247 58.1522 670.108 58.3749C669.831 58.8169 669.408 59.4026 668.828 59.9585C667.653 61.0846 665.774 62.127 663.239 61.4999L663.766 59.3701C665.356 59.7633 666.496 59.1547 667.31 58.3747C667.724 57.9775 668.038 57.5464 668.248 57.2099C668.353 57.0434 668.429 56.9044 668.478 56.8108C668.502 56.7641 668.519 56.729 668.529 56.7078C668.535 56.6973 668.538 56.6902 668.539 56.6869L668.539 56.6872L668.539 56.688ZM668.539 56.6869C668.54 56.6853 668.54 56.6846 668.54 56.6849L668.54 56.6861L668.539 56.6869Z" fill="#001A39"/>
<path fill-rule="evenodd" clip-rule="evenodd" d="M269.78 41.583C271.209 35.9719 273.136 29.4359 275.129 23.2495L277.218 23.9224C275.234 30.0774 273.321 36.5685 271.906 42.1247C270.478 47.7299 269.591 52.2512 269.591 54.5423C269.591 54.6715 269.594 54.7872 269.6 54.8905C269.917 54.5626 270.317 54.0718 270.804 53.3823C273.022 50.2434 276.619 43.6231 282.039 32.1672L284.022 33.1055C281.346 38.7625 278.625 45.3636 276.507 51.2296C274.374 57.1384 272.9 62.1756 272.646 64.7628C272.629 64.9316 272.619 65.0812 272.613 65.213C273.038 64.8158 273.59 64.1907 274.282 63.2861C277.107 59.5934 281.857 51.7981 289.194 38.1504L291.155 39.1338C288.768 44.2491 286.433 49.8733 284.698 54.7515C283.83 57.1911 283.116 59.4318 282.621 61.3216C282.12 63.2352 281.864 64.7094 281.864 65.6497C281.864 65.8019 281.871 65.93 281.882 66.0361C281.991 65.9734 282.122 65.8871 282.277 65.7709C282.712 65.4446 283.267 64.9319 283.955 64.1887C286.722 61.2 291.216 54.9554 298.004 44.1211L299.864 45.2859C293.077 56.1177 288.488 62.523 285.565 65.6793C284.831 66.4724 284.175 67.0894 283.594 67.5255C283.043 67.9398 282.435 68.2864 281.81 68.3515C281.471 68.3868 281.105 68.3408 280.762 68.157C280.422 67.9746 280.187 67.7011 280.031 67.4192C279.741 66.8959 279.67 66.2476 279.67 65.6496C279.67 64.4131 279.989 62.7118 280.499 60.7655C280.949 59.0454 281.567 57.071 282.302 54.9499C279.632 59.4541 277.57 62.5997 276.025 64.6193C275.286 65.5841 274.641 66.3264 274.081 66.8442C273.801 67.1034 273.521 67.3267 273.242 67.4948C272.972 67.6574 272.638 67.809 272.261 67.84C271.841 67.8745 271.415 67.7531 271.075 67.4437C270.77 67.166 270.62 66.8139 270.54 66.527C270.384 65.966 270.392 65.2632 270.462 64.5481C270.698 62.1471 271.818 58.1098 273.403 53.4492C273.118 53.8905 272.849 54.2897 272.596 54.6483C272.008 55.48 271.477 56.1328 270.998 56.594C270.57 57.0059 269.994 57.4569 269.316 57.5026C268.917 57.5295 268.528 57.4119 268.211 57.151C267.921 56.9122 267.753 56.6057 267.651 56.3424C267.454 55.831 267.397 55.1904 267.397 54.5424C267.397 51.9313 268.362 47.1451 269.78 41.583ZM272.662 65.965C272.662 65.9651 272.661 65.9633 272.66 65.9594C272.662 65.963 272.662 65.9649 272.662 65.965ZM269.707 55.5728C269.707 55.5728 269.706 55.5715 269.705 55.5687C269.706 55.5713 269.707 55.5727 269.707 55.5728Z" fill="#E4EDFA"/>
</svg>
