<svg width="708" height="540" viewBox="0 0 708 540" fill="none" xmlns="http://www.w3.org/2000/svg">
<path d="M435.692 325.583L438.273 371.745L469.254 349.762C469.254 349.762 482.803 362.895 482.178 363.103C481.553 363.311 412.916 411.82 412.916 411.82L435.692 325.583Z" fill="white"/>
<path d="M672.188 447.363L707.701 480.787L633.465 540L675.333 475.935L651.541 453.332" fill="white"/>
<path d="M604.907 144.419C604.298 155.377 612.685 164.756 623.649 165.366C633.337 165.904 641.792 159.411 644.042 150.322C644.337 149.128 644.525 147.894 644.596 146.624C645.206 135.665 636.818 126.287 625.854 125.677C620.154 125.362 614.88 127.475 611.049 131.128C607.508 134.497 605.202 139.165 604.907 144.419Z" fill="#F96155"/>
<path d="M607.798 122.954C607.544 127.506 611.029 131.403 615.581 131.652C619.605 131.875 623.116 129.178 624.05 125.403C624.172 124.905 624.249 124.397 624.279 123.868C624.533 119.316 621.048 115.42 616.496 115.171C614.128 115.039 611.939 115.918 610.344 117.437C608.885 118.834 607.92 120.774 607.798 122.954Z" fill="#D5E2F3"/>
<path d="M621.591 121.399C621.439 124.173 623.562 126.546 626.331 126.698C628.785 126.835 630.924 125.189 631.493 122.893C631.569 122.593 631.615 122.278 631.636 121.958C631.788 119.184 629.664 116.812 626.895 116.659C625.453 116.578 624.116 117.116 623.146 118.036C622.247 118.884 621.662 120.068 621.591 121.399Z" fill="#D5E2F3"/>
<path fill-rule="evenodd" clip-rule="evenodd" d="M602.281 153.598C602.281 153.598 602.28 153.598 602.337 152.583C602.393 151.569 602.393 151.569 602.392 151.569L602.392 151.569L602.391 151.569C602.394 151.569 602.401 151.569 602.411 151.569C602.431 151.57 602.466 151.57 602.512 151.57C602.605 151.569 602.745 151.565 602.919 151.55C603.269 151.519 603.735 151.446 604.215 151.279C605.155 150.953 606.088 150.302 606.417 148.897L608.396 149.36C607.861 151.643 606.26 152.72 604.881 153.199C604.201 153.435 603.562 153.534 603.096 153.574C602.862 153.595 602.667 153.601 602.526 153.602C602.456 153.603 602.399 153.602 602.358 153.601C602.337 153.6 602.32 153.6 602.307 153.599L602.291 153.598L602.285 153.598L602.282 153.598L602.281 153.598ZM602.391 151.569C602.389 151.569 602.389 151.569 602.389 151.569L602.39 151.569L602.391 151.569Z" fill="#001A39"/>
<path d="M614.251 145.785C614.356 143.896 613.478 142.312 612.29 142.246C611.102 142.18 610.054 143.657 609.949 145.546C609.844 147.434 610.722 149.018 611.91 149.084C613.098 149.15 614.146 147.673 614.251 145.785Z" fill="#001A39"/>
<path d="M637.382 146.222C637.158 150.205 640.207 153.609 644.19 153.828C647.711 154.021 650.779 151.663 651.597 148.366C651.704 147.934 651.775 147.487 651.8 147.025C652.024 143.047 648.976 139.638 644.993 139.419C642.92 139.302 641.004 140.075 639.612 141.401C638.332 142.62 637.489 144.312 637.382 146.222Z" fill="#F96155"/>
<path d="M611.99 130.646C611.99 130.646 618.782 135.523 631.656 133.907L631.874 145.913L639.729 144.627C639.729 144.627 642.122 137.835 648.66 140.659C648.66 140.659 649.976 127.059 642.122 123.934C628.404 118.478 615.683 123.955 611.99 130.646Z" fill="#D5E2F3"/>
<path fill-rule="evenodd" clip-rule="evenodd" d="M432.079 364.518L443.347 352.274L444.842 353.65L433.574 365.894L432.079 364.518Z" fill="#001A39"/>
<path fill-rule="evenodd" clip-rule="evenodd" d="M431.52 356.851L442.788 344.607L444.284 345.984L433.015 358.227L431.52 356.851Z" fill="#001A39"/>
<path fill-rule="evenodd" clip-rule="evenodd" d="M657.596 489.699L674.148 491.436L673.936 493.458L657.384 491.72L657.596 489.699Z" fill="#001A39"/>
<path fill-rule="evenodd" clip-rule="evenodd" d="M652.774 495.765L669.322 497.497L669.11 499.518L652.563 497.786L652.774 495.765Z" fill="#001A39"/>
<path fill-rule="evenodd" clip-rule="evenodd" d="M662.407 483.638L678.959 485.371L678.748 487.392L662.196 485.659L662.407 483.638Z" fill="#001A39"/>
<path d="M671.639 235.563C664.455 248.01 648.538 252.272 636.091 245.089L583.691 214.834C571.244 207.651 566.982 191.733 574.165 179.286C581.349 166.839 597.266 162.577 609.713 169.76L662.113 200.015C674.56 207.198 678.828 223.116 671.639 235.563Z" fill="#234977"/>
<path fill-rule="evenodd" clip-rule="evenodd" d="M615.08 139.442L608.796 142.805L607.837 141.013L614.121 137.65L615.08 139.442Z" fill="#001A39"/>
<path d="M374.157 225.747C399.539 225.747 420.115 202.525 420.115 173.88C420.115 145.235 399.539 122.014 374.157 122.014C348.775 122.014 328.199 145.235 328.199 173.88C328.199 202.525 348.775 225.747 374.157 225.747Z" fill="#BACADF"/>
<path fill-rule="evenodd" clip-rule="evenodd" d="M507.978 125.81C513.847 126.151 519.153 127.318 522.266 128.3L522.303 128.311L522.34 128.327C549.266 139.901 576.722 156.289 587.094 163.043L586.24 164.355C575.919 157.635 548.565 141.308 521.758 129.781C518.757 128.839 513.598 127.705 507.887 127.373C502.144 127.04 495.922 127.524 490.789 129.764C485.587 132.034 474.971 139.117 463.739 147.118C452.54 155.097 440.817 163.922 433.443 169.613L432.586 170.274L432.226 169.253C430.922 165.555 425.039 154.974 412.078 143.1L412.044 143.069L412.014 143.035C411.664 142.629 411.225 142.208 410.77 141.883C410.301 141.548 409.886 141.369 409.572 141.341C409.325 141.319 409.117 141.38 408.906 141.674C408.679 141.991 408.45 142.587 408.334 143.635C412.826 147.59 420.918 159.17 420.515 176.711C420.306 185.781 416.854 190.872 412.469 193.455C408.168 195.989 403.122 196.016 399.768 195.277C399.311 195.244 398.811 195.246 398.37 195.303C397.882 195.366 397.594 195.481 397.477 195.577C397.466 195.586 397.458 195.593 397.454 195.598C397.455 195.617 397.461 195.659 397.49 195.733C397.603 196.018 397.967 196.521 398.86 197.271C399.163 197.526 399.814 197.803 400.893 198.042C401.938 198.274 403.278 198.448 404.852 198.569C407.999 198.811 412.005 198.836 416.314 198.724C424.901 198.5 434.618 197.736 440.969 197.097C443.713 196.377 450.198 193.834 460.717 188.496C471.29 183.131 485.901 174.962 504.818 163.036L505.189 162.802L560.04 189.949L559.345 191.352L505.281 164.595C486.511 176.414 471.98 184.537 461.425 189.893C450.82 195.274 444.191 197.883 441.303 198.628L441.245 198.643L441.186 198.649C434.812 199.292 425.02 200.064 416.355 200.289C412.025 200.401 407.957 200.378 404.733 200.13C403.121 200.007 401.701 199.826 400.554 199.571C399.439 199.324 398.465 198.984 397.852 198.469C396.912 197.679 396.296 196.97 396.035 196.31C395.897 195.964 395.842 195.593 395.931 195.225C396.02 194.853 396.235 194.569 396.487 194.363C396.955 193.982 397.608 193.822 398.17 193.75C398.762 193.674 399.397 193.677 399.944 193.72L400 193.725L400.054 193.737C403.146 194.429 407.789 194.395 411.675 192.106C415.502 189.851 418.75 185.317 418.949 176.675C419.35 159.213 411.082 147.951 407.016 144.568L406.706 144.31L406.736 143.907C406.842 142.505 407.132 141.46 407.633 140.762C408.176 140.005 408.928 139.711 409.712 139.781C410.428 139.845 411.114 140.205 411.679 140.608C412.243 141.01 412.76 141.508 413.168 141.975C425.275 153.074 431.359 163.133 433.313 167.736C440.729 162.029 452.021 153.544 462.831 145.843C474.018 137.874 484.779 130.678 490.162 128.329C495.616 125.949 502.118 125.47 507.978 125.81ZM397.454 195.585C397.454 195.585 397.454 195.586 397.454 195.588L397.454 195.585Z" fill="#D5E2F3"/>
<path d="M338.769 239.926L293.118 412.733L404.788 442.233L450.439 269.426L338.769 239.926Z" fill="#FBC73B"/>
<path d="M330.257 66.7075L386.787 86.1658L339.686 122.014L330.257 66.7075Z" fill="#FBC73B"/>
<path d="M441.602 -0.000121766L393.688 12.8428L406.531 60.757L454.445 47.9141L441.602 -0.000121766Z" fill="#032349"/>
<path d="M511.054 439.316L488.106 483.296L532.087 506.244L555.035 462.263L511.054 439.316Z" fill="#032349"/>
<path d="M516.878 56.9179C524.647 56.9179 530.946 50.6195 530.946 42.85C530.946 35.0806 524.647 28.7822 516.878 28.7822C509.109 28.7822 502.81 35.0806 502.81 42.85C502.81 50.6195 509.109 56.9179 516.878 56.9179Z" fill="#FBC73B"/>
<path d="M358.524 55.6682V449.598H304.93L135.141 283.116H0.777344L51.5925 222.15H135.141L304.93 55.6682H358.524Z" fill="#617FA8"/>
<path d="M699.572 296.609C707.406 339.133 632.499 389.567 632.499 389.567L680.124 440.57C680.124 440.57 684.61 456.197 664.877 472.216C646.527 487.112 630.376 480.411 630.376 480.411L580.927 419.039C567.987 402.979 568.856 379.838 582.97 364.789C602.515 343.949 626.316 318.349 624.751 318.908C622.12 319.848 553.706 331.258 553.706 331.258L490.317 383.105C490.317 383.105 471.143 384.979 459.504 370.784C447.153 355.716 451.863 339.855 451.863 339.855L522.126 282.369C527.836 277.695 534.695 274.636 541.991 273.509C566.662 269.688 625.453 261.168 650.809 262.631C679.428 264.287 696.29 278.792 699.572 296.609Z" fill="#F96155"/>
<path d="M475.462 381.199C474.71 363.077 477.596 342.725 493.98 331.924C500.818 327.418 509.079 325.919 516.918 328.561C525.25 331.365 531.753 338.031 536.92 344.899C537.215 345.291 537.881 344.935 537.601 344.503C530.407 333.484 518.59 323.912 504.624 326.244C491.648 328.408 481.614 339.794 477.616 351.829C474.466 361.304 474.283 371.328 474.913 381.199C474.928 381.555 475.482 381.56 475.462 381.199Z" fill="#FBC73B"/>
<path d="M461.942 331.482C464.218 336.217 466.591 340.911 469.086 345.54C470.935 348.964 472.901 352.52 475.995 354.994C481.517 359.409 488.483 358.464 492.445 352.596C497.13 345.661 498.125 336.115 498.603 327.976C499.106 319.416 498.954 310.789 498.659 302.229C498.644 301.792 498.004 301.792 497.978 302.229C497.257 317.079 498.847 333.189 493.381 347.313C492.121 350.569 490.18 354.095 486.877 355.645C482.757 357.58 478.139 355.335 475.238 352.302C472.49 349.426 470.67 345.748 468.801 342.283C466.774 338.529 464.823 334.728 462.933 330.903C462.613 330.232 461.622 330.816 461.942 331.482Z" fill="#FBC73B"/>
<path d="M508.337 293.576C512.442 300.608 520.322 304.901 527.729 307.685C535.325 310.54 543.54 311.749 551.638 311.399C568.49 310.667 584.011 303.184 595.025 290.421C601.447 282.979 606.848 273.986 610.237 264.745C610.419 264.247 609.632 263.927 609.388 264.389C605.415 271.801 601.813 279.239 596.677 285.966C591.571 292.652 585.306 298.484 577.924 302.574C564.202 310.174 547.488 311.897 532.424 307.665C523.447 305.145 514.749 300.567 508.891 293.155C508.632 292.83 508.144 293.241 508.337 293.576Z" fill="#FBC73B"/>
<path d="M550.135 334.24C548.301 324.003 546.756 313.466 552.116 303.976C556.556 296.106 564.624 290.299 573.723 289.461C591.348 287.835 603.983 307.045 607.427 322.195C607.575 322.84 608.687 322.718 608.606 322.037C607.813 315.255 604.409 308.66 600.619 303.077C596.88 297.57 591.617 292.382 585.444 289.71C571.382 283.629 555.307 292.845 549.591 306.125C545.7 315.178 547.117 325.172 549.297 334.469C549.424 335.023 550.232 334.784 550.135 334.24Z" fill="#FBC73B"/>
<path d="M694.491 283.589C667.788 294.532 653.786 322.632 650.342 349.929C649.829 354.004 649.534 358.094 649.432 362.199C649.321 366.594 649.123 371.461 650.103 375.769C650.306 376.653 651.582 376.404 651.622 375.566C651.871 370.851 651.399 366.065 651.582 361.325C651.76 356.737 652.151 352.15 652.816 347.603C654.132 338.605 656.48 329.694 660.168 321.372C667.26 305.364 679.27 292.474 694.888 284.518C695.386 284.259 695.03 283.37 694.491 283.589Z" fill="#FBC73B"/>
<path d="M597.738 349.528C602.306 348.735 606.919 348.11 611.547 347.78C615.729 347.48 620.636 346.871 624.706 348.115C633.698 350.859 633.205 362.102 630.594 369.118C625.234 383.521 614.728 395.537 604.028 406.251C597.871 412.424 591.449 418.323 585.754 424.937C585.403 425.344 585.942 425.887 586.343 425.527C598.866 414.375 611.613 402.604 621.449 388.937C626.341 382.134 631.138 374.341 633.226 366.146C634.897 359.577 633.83 351.306 627.383 347.633C623.441 345.387 618.294 346.002 613.971 346.271C608.408 346.617 602.931 347.414 597.51 348.695C596.956 348.822 597.2 349.619 597.738 349.528Z" fill="#FBC73B"/>
<path d="M571.905 390.853C579.866 387.632 588.543 387.418 596.702 390.096C604.221 392.56 609.947 397.95 613.305 405.063C616.902 412.684 617.466 421.234 616.658 429.52C615.739 438.955 612.619 447.719 610.648 456.909C610.511 457.544 611.446 458.032 611.756 457.376C613.849 452.946 615.078 447.932 616.191 443.172C617.314 438.36 618.223 433.478 618.645 428.555C619.392 419.756 618.396 410.651 614.118 402.802C606.04 387.977 586.481 382.506 571.58 390.091C571.168 390.304 571.458 391.031 571.905 390.853Z" fill="#FBC73B"/>
<path d="M637.209 262.352C631.453 277.665 640.46 292.932 651.124 303.479C662.479 314.712 676.75 324.918 692.068 329.851C692.505 329.994 692.799 329.313 692.383 329.099C678.523 322.017 665.345 314.397 653.954 303.621C642.787 293.059 633.262 278.569 638.068 262.586C638.246 262.027 637.407 261.824 637.209 262.352Z" fill="#FBC73B"/>
<path d="M649.392 407.689C643.204 412.851 639.562 420.786 637.499 428.422C635.639 435.306 633.82 444.141 636.635 451.005C639.765 458.646 648.356 458.991 655.306 456.954C659.7 455.664 663.826 453.535 667.829 451.35C672.249 448.942 676.634 446.453 680.795 443.608C681.394 443.196 680.866 442.251 680.216 442.622C671.426 447.667 642.412 467.435 637.814 448.515C636.203 441.896 637.804 434.163 639.617 427.741C641.68 420.441 645.155 414.121 650.108 408.4C650.535 407.907 649.89 407.272 649.392 407.689Z" fill="#FBC73B"/>
<path fill-rule="evenodd" clip-rule="evenodd" d="M641.127 301.255L620.698 323.762L619.193 322.396L639.622 299.889L641.127 301.255Z" fill="#001A39"/>
<path fill-rule="evenodd" clip-rule="evenodd" d="M624.926 234.228L587.457 261.48L587.047 261.625L513.345 265.338L513.22 265.334L513.306 264.577C513.22 265.334 513.22 265.334 513.22 265.334L513.218 265.334L513.197 265.332L513.127 265.324C513.066 265.317 512.975 265.307 512.855 265.294C512.616 265.268 512.264 265.23 511.816 265.185C510.92 265.093 509.637 264.969 508.093 264.837C505.004 264.574 500.876 264.284 496.713 264.173C492.541 264.062 488.368 264.131 485.173 264.577C483.571 264.801 482.263 265.114 481.336 265.52C480.714 265.793 480.344 266.071 480.139 266.33C480.19 266.35 480.247 266.371 480.31 266.393C480.846 266.584 481.653 266.8 482.666 267.032C484.682 267.494 487.409 267.994 490.159 268.457C492.906 268.919 495.663 269.342 497.735 269.649C498.77 269.803 499.634 269.927 500.238 270.014C500.54 270.057 500.778 270.09 500.94 270.113L501.186 270.147L501.187 270.148C501.187 270.148 501.187 270.148 501.083 270.902C501.284 271.637 501.284 271.638 501.283 271.638L501.282 271.638L501.172 271.668C501.097 271.689 500.987 271.719 500.843 271.759C500.555 271.839 500.133 271.956 499.596 272.107C498.521 272.409 496.986 272.846 495.147 273.381C491.469 274.452 486.576 275.92 481.716 277.509C476.85 279.1 472.037 280.805 468.507 282.349C466.737 283.124 465.325 283.843 464.396 284.471C463.928 284.788 463.624 285.054 463.457 285.262C463.383 285.353 463.353 285.41 463.34 285.44C463.384 285.526 463.557 285.725 464.199 285.909C464.885 286.105 465.871 286.21 467.1 286.228C469.544 286.264 472.747 285.954 475.956 285.516C479.157 285.08 482.332 284.522 484.709 284.073C485.896 283.849 486.883 283.651 487.573 283.51C487.918 283.44 488.189 283.384 488.372 283.345C488.464 283.326 488.535 283.311 488.582 283.301L488.652 283.286L488.652 283.285C488.653 283.285 488.653 283.285 488.813 284.03C489.094 284.739 489.094 284.739 489.093 284.739L489.011 284.772C488.957 284.793 488.875 284.826 488.769 284.868C488.557 284.953 488.246 285.078 487.849 285.238C487.057 285.558 485.927 286.019 484.575 286.582C481.87 287.708 478.282 289.239 474.743 290.863C471.199 292.49 467.727 294.2 465.242 295.682C463.993 296.427 463.032 297.092 462.439 297.641C462.14 297.917 461.977 298.125 461.904 298.263C461.932 298.279 461.971 298.299 462.024 298.321C462.212 298.399 462.501 298.469 462.906 298.516C463.711 298.61 464.827 298.597 466.177 298.491C468.865 298.282 472.334 297.721 475.781 297.062C479.223 296.404 482.62 295.651 485.159 295.063C486.428 294.769 487.481 294.516 488.217 294.336C488.584 294.247 488.873 294.176 489.069 294.127C489.167 294.102 489.242 294.084 489.293 294.071L489.367 294.052L489.368 294.052C489.368 294.052 489.369 294.052 489.555 294.791C489.91 295.465 489.91 295.465 489.91 295.465L489.86 295.491C489.827 295.509 489.777 295.536 489.712 295.57C489.582 295.639 489.391 295.741 489.148 295.873C488.663 296.135 487.969 296.512 487.14 296.974C485.481 297.897 483.283 299.153 481.121 300.49C478.953 301.831 476.845 303.237 475.352 304.459C474.601 305.074 474.041 305.615 473.706 306.055C473.584 306.215 473.505 306.344 473.456 306.444C473.459 306.444 473.461 306.445 473.463 306.445C473.756 306.491 474.207 306.503 474.825 306.469C476.051 306.401 477.775 306.163 479.849 305.797C483.989 305.067 489.424 303.845 494.841 302.538C500.254 301.232 505.635 299.843 509.665 298.78C511.679 298.249 513.355 297.799 514.527 297.482C515.113 297.324 515.573 297.199 515.886 297.114C516.043 297.071 516.163 297.038 516.244 297.016L516.364 296.983L516.366 296.982C516.366 296.982 516.366 296.982 516.568 297.717C516.635 296.958 516.635 296.958 516.635 296.958L516.638 296.958L516.844 296.976C516.982 296.988 517.188 297.005 517.458 297.028C517.998 297.073 518.792 297.138 519.81 297.217C521.847 297.377 524.777 297.596 528.353 297.833C535.504 298.309 545.234 298.859 555.547 299.157C565.863 299.456 576.752 299.502 586.227 298.973C595.736 298.442 603.708 297.335 608.265 295.381C612.859 293.411 619.51 288.856 626.95 283.069C634.371 277.298 642.515 270.351 650.081 263.649C657.645 256.948 664.624 250.498 669.712 245.723C672.256 243.335 674.327 241.366 675.761 239.995C676.479 239.309 677.037 238.773 677.416 238.408C677.605 238.226 677.75 238.086 677.847 237.992L677.991 237.853L677.993 237.851C677.993 237.851 677.993 237.85 678.524 238.398C679.054 238.945 679.054 238.945 679.054 238.945L679.052 238.947L678.906 239.088C678.808 239.183 678.663 239.323 678.473 239.506C678.093 239.872 677.533 240.41 676.814 241.097C675.377 242.471 673.303 244.443 670.755 246.834C665.66 251.616 658.67 258.077 651.091 264.79C643.514 271.502 635.343 278.473 627.886 284.272C620.449 290.056 613.66 294.725 608.866 296.782C604.034 298.854 595.812 299.964 586.312 300.495C576.776 301.027 565.839 300.98 555.503 300.681C545.165 300.381 535.415 299.83 528.252 299.354C524.669 299.116 521.733 298.897 519.691 298.737C518.671 298.657 517.874 298.592 517.332 298.547C517.061 298.524 516.853 298.506 516.714 298.495L516.638 298.488C516.557 298.51 516.439 298.542 516.287 298.584C515.973 298.67 515.512 298.795 514.924 298.954C513.75 299.271 512.071 299.722 510.053 300.254C506.018 301.318 500.625 302.71 495.198 304.02C489.774 305.329 484.302 306.559 480.114 307.298C478.024 307.667 476.228 307.917 474.909 307.99C474.255 308.026 473.678 308.022 473.227 307.951C473.003 307.916 472.769 307.858 472.562 307.757C472.356 307.656 472.1 307.473 471.971 307.151C471.816 306.764 471.861 306.375 471.973 306.05C472.082 305.73 472.273 305.42 472.494 305.13C472.937 304.55 473.604 303.921 474.386 303.28C475.959 301.992 478.137 300.543 480.32 299.194C481.686 298.349 483.063 297.538 484.312 296.821C481.937 297.361 479.02 297.994 476.067 298.559C472.605 299.221 469.07 299.794 466.295 300.011C464.912 300.119 463.681 300.141 462.729 300.03C462.254 299.975 461.811 299.882 461.441 299.729C461.078 299.579 460.694 299.332 460.484 298.911C460.239 298.42 460.361 297.925 460.553 297.557C460.743 297.195 461.052 296.847 461.405 296.521C462.118 295.863 463.188 295.133 464.461 294.373C467.019 292.847 470.552 291.11 474.108 289.478C476.697 288.29 479.31 287.152 481.586 286.185C479.889 286.476 478.031 286.772 476.162 287.027C472.934 287.466 469.64 287.79 467.078 287.752C465.803 287.734 464.658 287.626 463.78 287.375C462.956 287.139 462.073 286.691 461.848 285.771L461.848 285.771C461.705 285.185 461.975 284.67 462.271 284.304C462.577 283.925 463.023 283.56 463.542 283.209C464.589 282.501 466.103 281.738 467.896 280.953C471.496 279.378 476.366 277.655 481.242 276.061C486.124 274.465 491.034 272.992 494.721 271.918C495.714 271.628 496.619 271.368 497.411 271.142C495.346 270.835 492.622 270.417 489.906 269.96C487.149 269.496 484.387 268.99 482.325 268.518C481.3 268.283 480.422 268.051 479.799 267.829C479.495 267.721 479.208 267.6 478.988 267.462C478.882 267.395 478.744 267.294 478.632 267.151C478.515 267.001 478.377 266.731 478.452 266.393C478.695 265.308 479.64 264.6 480.725 264.124C481.839 263.636 483.306 263.299 484.962 263.068C488.284 262.604 492.558 262.537 496.753 262.649C500.957 262.762 505.116 263.054 508.222 263.319C509.776 263.451 511.067 263.576 511.971 263.668C512.423 263.714 512.778 263.752 513.02 263.779C513.141 263.792 513.234 263.802 513.297 263.809L513.33 263.813L586.744 260.114L624.029 232.995L624.926 234.228ZM516.568 297.717L516.635 296.958L516.366 296.982L516.568 297.717ZM489.555 294.791L489.91 295.465L489.368 294.052L489.555 294.791ZM488.813 284.03L489.093 284.739L488.652 283.285L488.813 284.03ZM501.083 270.902L501.283 271.638L501.187 270.148L501.083 270.902Z" fill="#D5E2F3"/>
</svg>
