<svg width="545" height="540" viewBox="0 0 545 540" fill="none" xmlns="http://www.w3.org/2000/svg">
<path d="M355.141 110.037H247.609V192.923H355.141V110.037Z" fill="#617FA8"/>
<path d="M286.773 176.083C291.033 174.145 293.234 169.821 291.689 166.426C290.144 163.031 285.438 161.85 281.179 163.789C276.919 165.727 274.718 170.051 276.263 173.446C277.808 176.841 282.514 178.022 286.773 176.083Z" fill="#001A39"/>
<path fill-rule="evenodd" clip-rule="evenodd" d="M310.349 124.075C311.395 125.548 311.819 127.056 311.064 128.412C310.267 129.847 308.896 130.926 307.167 131.732C305.437 132.537 303.318 133.084 300.973 133.437C296.284 134.142 290.607 134.082 285.142 133.695C279.67 133.308 274.386 132.591 270.471 131.971C268.987 131.736 267.7 131.515 266.672 131.331C266.945 131.5 267.238 131.682 267.546 131.876C269.457 133.082 271.991 134.758 274.477 136.64C276.958 138.518 279.411 140.616 281.145 142.664C282.011 143.688 282.713 144.717 283.145 145.716C283.577 146.714 283.754 147.718 283.514 148.663C283.335 149.369 282.856 149.973 282.194 150.489C281.531 151.006 280.653 151.462 279.611 151.868C277.527 152.68 274.7 153.323 271.402 153.835C264.8 154.86 256.203 155.37 247.622 155.593L247.597 154.625C256.166 154.402 264.713 153.893 271.254 152.878C274.527 152.37 277.272 151.739 279.259 150.965C280.253 150.578 281.037 150.163 281.598 149.725C282.159 149.287 282.467 148.851 282.575 148.425C282.745 147.756 282.636 146.98 282.256 146.101C281.876 145.221 281.238 144.274 280.405 143.29C278.739 141.322 276.353 139.275 273.892 137.412C271.436 135.553 268.926 133.892 267.029 132.696C266.081 132.098 265.286 131.616 264.73 131.285C264.451 131.119 264.232 130.99 264.083 130.904C264.009 130.86 263.952 130.827 263.914 130.805L263.87 130.78L263.857 130.773L263.857 130.772C263.856 130.772 263.856 130.772 264.096 130.351C264.194 129.877 264.194 129.877 264.194 129.877L264.195 129.877L264.222 129.883L264.309 129.9C264.385 129.915 264.499 129.938 264.648 129.967C264.946 130.026 265.384 130.11 265.945 130.213C267.065 130.421 268.674 130.705 270.622 131.014C274.521 131.631 279.776 132.344 285.21 132.729C290.649 133.114 296.243 133.168 300.829 132.479C303.122 132.134 305.142 131.606 306.757 130.853C308.373 130.101 309.552 129.138 310.217 127.941C310.701 127.073 310.522 125.992 309.559 124.635C308.6 123.285 306.944 121.786 304.765 120.202C300.417 117.039 294.123 113.632 287.606 110.473L288.028 109.601C294.558 112.765 300.914 116.203 305.335 119.418C307.541 121.022 309.299 122.595 310.349 124.075ZM264.096 130.351L264.194 129.877C263.961 129.829 263.727 129.958 263.643 130.181C263.559 130.404 263.65 130.654 263.857 130.772L264.096 130.351Z" fill="#001A39"/>
<path fill-rule="evenodd" clip-rule="evenodd" d="M328.674 150.584C338.502 152.92 349.04 157.009 355.328 159.638L354.954 160.532C348.68 157.909 338.2 153.844 328.45 151.527C323.572 150.368 318.904 149.653 315.048 149.764C311.172 149.876 308.243 150.817 306.678 152.829M328.674 150.584C323.762 149.417 318.999 148.681 315.021 148.796L328.674 150.584ZM315.021 148.796C311.063 148.909 307.753 149.869 305.913 152.234L315.021 148.796ZM305.913 152.234L305.913 152.234L305.913 152.234ZM305.913 152.234C304.269 154.349 303.875 157.188 304.299 160.38L305.913 152.234ZM304.299 160.38C304.722 163.576 305.972 167.194 307.704 170.948L304.299 160.38ZM307.704 170.948C311.168 178.459 316.608 186.618 321.447 193.21L307.704 170.948ZM321.447 193.21L322.228 192.637L321.447 193.21ZM322.228 192.637C317.401 186.061 312.006 177.964 308.583 170.542L322.228 192.637ZM308.583 170.542C306.871 166.83 305.665 163.312 305.259 160.253L308.583 170.542ZM305.259 160.253C304.853 157.19 305.257 154.656 306.678 152.829L305.259 160.253Z" fill="#001A39"/>
<path fill-rule="evenodd" clip-rule="evenodd" d="M323.289 111.964C323.474 111.155 323.834 110.391 324.35 109.737L325.111 110.337C324.688 110.874 324.389 111.503 324.235 112.174C324.103 112.846 324.357 113.533 325.055 114.263C325.759 114.999 326.866 115.72 328.284 116.412C331.114 117.794 335.043 118.992 339.049 119.977C343.047 120.961 347.093 121.724 350.141 122.242C351.665 122.501 352.938 122.698 353.829 122.831C354.275 122.897 354.626 122.947 354.865 122.981C354.984 122.997 355.076 123.01 355.137 123.018L355.206 123.028L355.229 123.031C355.229 123.031 355.229 123.031 355.166 123.511C355.102 123.991 355.102 123.991 355.101 123.991L355.077 123.988L355.006 123.978C354.944 123.97 354.851 123.957 354.73 123.94C354.489 123.907 354.136 123.856 353.687 123.789C352.79 123.656 351.51 123.458 349.979 123.198C346.917 122.677 342.847 121.909 338.817 120.918C334.795 119.929 330.784 118.711 327.859 117.283C326.399 116.571 325.174 115.79 324.354 114.932C323.53 114.07 323.067 113.074 323.286 111.977C323.287 111.973 323.288 111.969 323.289 111.964Z" fill="#001A39"/>
<path d="M47.5696 173.854L22.4635 131.752C14.0335 117.62 24.2367 99.679 40.7093 99.679H90.8973C107.37 99.679 117.544 117.605 109.119 131.762L84.0127 173.854C75.7861 187.666 55.7962 187.666 47.5696 173.854Z" fill="#BACADF"/>
<path fill-rule="evenodd" clip-rule="evenodd" d="M100.237 105.905C100.775 104.775 102.124 104.092 103.851 103.68L104.076 104.622C102.393 105.024 101.446 105.619 101.112 106.321C100.7 107.193 100.785 108.372 101.329 109.817C101.869 111.25 102.828 112.855 104.026 114.508C106.419 117.812 109.7 121.221 112.247 123.691L111.572 124.387C109.013 121.905 105.685 118.449 103.241 115.077C102.021 113.392 101.005 111.707 100.422 110.159C99.8436 108.623 99.6572 107.132 100.236 105.906L100.237 105.905L100.237 105.905Z" fill="#001A39"/>
<path fill-rule="evenodd" clip-rule="evenodd" d="M208.322 86.0552H317.308V170.395H208.322V86.0552ZM209.776 87.5086V168.941H315.854V87.5086H209.776Z" fill="#D5E2F3"/>
<path fill-rule="evenodd" clip-rule="evenodd" d="M247.234 193.546L208.674 170.29L209.424 169.046L247.985 192.301L247.234 193.546Z" fill="#D5E2F3"/>
<path fill-rule="evenodd" clip-rule="evenodd" d="M354.766 193.546L316.206 170.29L316.956 169.046L355.517 192.301L354.766 193.546Z" fill="#D5E2F3"/>
<path fill-rule="evenodd" clip-rule="evenodd" d="M354.766 110.659L316.206 87.4041L316.956 86.1594L355.517 109.415L354.766 110.659Z" fill="#D5E2F3"/>
<path d="M294.333 99.7275L298.296 60.9349C298.296 60.9349 314.081 54.7866 312.468 43.7451C310.854 32.7036 299.387 36.3955 299.387 36.3955C299.387 36.3955 295.646 21.1099 279.862 18.3483C264.077 15.5867 255.187 23.8279 251.912 36.1726C246.224 57.6063 257.207 65.6924 280.647 68.1488L278.99 93.7878" fill="#F96155"/>
<path d="M306.959 36.3227C306.959 36.3227 313.466 20.0148 293.209 10.2233C272.953 0.431802 267.585 7.15648 260.536 1.01803C253.486 -5.12042 239.218 18.1106 261.916 27.6889C284.615 37.2673 284.203 35.5765 284.203 35.5765C284.203 35.5765 281.586 46.3176 287.88 47.2865C294.173 48.2555 299.202 37.7761 299.202 37.7761" fill="#E4EDFA"/>
<path fill-rule="evenodd" clip-rule="evenodd" d="M255.614 55.7702L259.815 47.1899L261.12 47.829L256.92 56.4093L255.614 55.7702Z" fill="#D5E2F3"/>
<path d="M267.711 49.5878C269.145 49.5878 270.307 48.425 270.307 46.9908C270.307 45.5566 269.145 44.3938 267.711 44.3938C266.276 44.3938 265.114 45.5566 265.114 46.9908C265.114 48.425 266.276 49.5878 267.711 49.5878Z" fill="#D5E2F3"/>
<path d="M254.843 49.1999C256.277 49.1999 257.44 48.0376 257.44 46.6034C257.44 45.1692 256.277 44.0063 254.843 44.0063C253.409 44.0063 252.246 45.1692 252.246 46.6034C252.246 48.0376 253.409 49.1999 254.843 49.1999Z" fill="#D5E2F3"/>
<path d="M291.673 206.019C314.037 206.019 333.441 219.992 338.446 239.71L403.105 494.371C403.105 494.371 431.206 490.495 440.987 499.817L365.921 540L294.58 274.685L262.221 390.478L260.55 539.981H174.912C174.912 539.981 188.546 521.808 212.271 516.876C212.271 516.876 205.12 416.664 213.598 365.716C218.356 337.131 236.277 277.869 244.659 240.718C249.208 220.539 268.864 206.019 291.673 206.019Z" fill="#BACADF"/>
<path d="M495.919 94.0444C469.466 94.0444 448.017 115.493 448.017 141.946C448.017 168.399 469.466 189.847 495.919 189.847C522.371 189.847 543.82 168.399 543.82 141.946C543.82 115.493 522.371 94.0493 495.919 94.0444ZM495.919 162.023C484.829 162.027 475.842 153.04 475.837 141.95C475.832 130.861 484.819 121.868 495.909 121.868C506.999 121.864 515.986 130.851 515.991 141.941V141.946C515.991 153.031 507.008 162.023 495.919 162.023Z" fill="#FBC73B"/>
<path fill-rule="evenodd" clip-rule="evenodd" d="M431.4 42.0706C431.4 42.1569 431.434 42.3112 431.57 42.4323L432.536 41.3462C432.771 41.5549 432.853 41.8304 432.853 42.0693C432.853 42.2851 432.79 42.4812 432.725 42.6324C432.593 42.9373 432.363 43.2708 432.095 43.6071C431.549 44.293 430.699 45.1672 429.669 46.1499C427.602 48.1227 424.715 50.6207 421.822 53.0848C420.962 53.8181 420.101 54.5482 419.26 55.2614C418.392 55.9975 417.545 56.7155 416.742 57.4002C417.25 57.0263 417.776 56.6381 418.316 56.2392C420.325 54.7563 422.535 53.1254 424.752 51.5279C428.452 48.8619 432.226 46.249 435.242 44.4873C436.745 43.6095 438.094 42.9221 439.17 42.551C439.704 42.3666 440.217 42.2437 440.671 42.2359C441.121 42.2281 441.638 42.3349 441.996 42.756C442.36 43.1832 442.373 43.7077 442.268 44.1486C442.165 44.5812 441.929 45.0355 441.633 45.4866C441.035 46.3964 440.06 47.4843 438.866 48.6669C436.468 51.042 433.052 53.9269 429.605 56.7412C427.987 58.0623 426.369 59.363 424.838 60.5928C423.087 61.9993 421.452 63.3132 420.065 64.4592C419.143 65.2206 418.345 65.8969 417.708 66.4654C418.145 66.2523 418.634 66.0024 419.169 65.721C420.894 64.8125 423.032 63.6084 425.291 62.3359C425.971 61.9526 426.662 61.563 427.357 61.1735C430.345 59.4975 433.389 57.8225 435.802 56.6785C437.005 56.1083 438.081 55.6559 438.928 55.404C439.348 55.279 439.75 55.1919 440.101 55.1774C440.421 55.1641 440.881 55.2025 441.215 55.5372C441.463 55.7851 441.517 56.0972 441.497 56.3429C441.478 56.5713 441.396 56.7845 441.309 56.9606C441.132 57.3172 440.834 57.7234 440.471 58.1527C439.735 59.0231 438.601 60.1415 437.22 61.4075C434.449 63.9463 430.595 67.1535 426.697 70.295C422.796 73.4388 418.84 76.5256 415.861 78.8259C414.371 79.9762 413.124 80.9301 412.25 81.5966C411.813 81.9299 411.469 82.1913 411.234 82.3694C411.117 82.4585 411.027 82.5267 410.966 82.5728L410.874 82.6424C410.874 82.6426 410.874 82.6427 410.436 82.0629C409.997 81.483 409.998 81.4829 409.998 81.4828L410.089 81.4139C410.149 81.3682 410.239 81.3003 410.356 81.2115C410.59 81.034 410.933 80.7733 411.369 80.4408C412.241 79.7758 413.485 78.8236 414.973 77.6754C417.948 75.3785 421.895 72.2985 425.785 69.1634C429.677 66.026 433.502 62.8423 436.238 60.3358C437.609 59.0791 438.687 58.0114 439.361 57.2142C439.533 57.0109 439.67 56.8345 439.777 56.6845C439.651 56.7112 439.507 56.7483 439.342 56.7972C438.604 57.0165 437.61 57.4302 436.425 57.9918C434.063 59.1115 431.061 60.7628 428.068 62.4412C427.381 62.8262 426.695 63.2127 426.018 63.5942C423.755 64.8692 421.592 66.088 419.846 67.0071C418.714 67.6028 417.733 68.0861 417.001 68.3789C416.642 68.5227 416.302 68.6373 416.017 68.6862C415.879 68.71 415.701 68.728 415.519 68.6969C415.331 68.6649 415.043 68.5597 414.873 68.2547C414.677 67.9021 414.803 67.5588 414.856 67.4356C414.925 67.2748 415.028 67.1229 415.129 66.9922C415.336 66.7242 415.642 66.4048 416.01 66.053C416.753 65.3425 417.841 64.4114 419.139 63.3387C420.524 62.1948 422.178 60.8652 423.942 59.4478C425.476 58.2151 427.093 56.9161 428.686 55.6154C432.133 52.8012 435.5 49.9552 437.843 47.6342C439.02 46.4687 439.906 45.4672 440.418 44.6884C440.676 44.2952 440.808 44.0053 440.854 43.8117C440.866 43.7619 440.87 43.7266 440.872 43.7028C440.84 43.6952 440.785 43.6876 440.696 43.6891C440.463 43.6931 440.116 43.762 439.644 43.9249C438.707 44.2484 437.456 44.8774 435.975 45.7423C433.024 47.466 429.299 50.0433 425.602 52.7072C423.385 54.3051 421.197 55.9197 419.197 57.3952C417.858 58.3839 416.603 59.31 415.48 60.1267C414.091 61.1378 412.906 61.9802 412.036 62.548C411.604 62.8298 411.23 63.0571 410.939 63.204C410.797 63.2754 410.643 63.3443 410.495 63.3852C410.422 63.4054 410.317 63.4285 410.197 63.4278C410.083 63.4271 409.87 63.404 409.675 63.2419C409.274 62.9077 409.401 62.4415 409.442 62.3244C409.497 62.1642 409.591 62.0211 409.667 61.9158C409.83 61.6908 410.078 61.4193 410.372 61.122C410.969 60.5185 411.859 59.7091 412.928 58.7704C414.436 57.4463 416.333 55.8377 418.331 54.143C419.17 53.4317 420.027 52.7053 420.88 51.9784C423.775 49.5122 426.632 47.0391 428.666 45.0984C429.687 44.1242 430.477 43.3061 430.959 42.7012C431.205 42.3921 431.337 42.1807 431.389 42.0583C431.4 42.0339 431.404 42.0208 431.405 42.0177C431.404 42.0215 431.4 42.0401 431.4 42.0706ZM440.91 43.7165C440.91 43.7166 440.909 43.7158 440.906 43.7138C440.909 43.7154 440.911 43.7164 440.91 43.7165ZM440.871 43.6696C440.869 43.6643 440.869 43.661 440.869 43.6608C440.869 43.6605 440.871 43.6632 440.871 43.6696Z" fill="#D5E2F3"/>
<path fill-rule="evenodd" clip-rule="evenodd" d="M399.075 134.844C399.075 134.844 399.075 134.845 398.362 134.983C397.829 135.477 397.829 135.477 397.828 135.477L397.695 135.334C397.607 135.238 397.475 135.097 397.302 134.912C396.957 134.543 396.447 134.001 395.793 133.311C394.485 131.931 392.598 129.958 390.285 127.59C385.658 122.853 379.326 116.536 372.507 110.211C365.684 103.883 358.387 97.5611 351.827 92.8067C348.546 90.4292 345.464 88.4547 342.729 87.0683C339.977 85.6736 337.647 84.9114 335.85 84.8776L335.877 83.4244C338.006 83.4645 340.573 84.3462 343.386 85.7718C346.215 87.2058 349.365 89.228 352.68 91.6298C359.309 96.4342 366.656 102.802 373.495 109.145C380.338 115.491 386.687 121.827 391.325 126.575C393.644 128.949 395.536 130.927 396.848 132.311C396.953 132.422 397.055 132.53 397.153 132.633C396.905 131.408 396.571 129.775 396.165 127.838C395.234 123.394 393.924 117.349 392.41 110.946C390.896 104.541 389.179 97.7851 387.434 91.9163C385.682 86.0269 383.92 81.0965 382.329 78.2992L383.592 77.5803C385.275 80.5387 387.076 85.6165 388.827 91.502C390.583 97.4081 392.307 104.194 393.825 110.611C395.343 117.03 396.655 123.088 397.588 127.54C398.055 129.766 398.426 131.592 398.681 132.861C398.809 133.496 398.907 133.991 398.974 134.328C398.994 134.428 399.011 134.514 399.025 134.586C399.034 134.635 399.043 134.677 399.05 134.713L399.075 134.842L399.075 134.844ZM398.362 134.983L397.829 135.477L399.075 134.845L398.362 134.983Z" fill="#D5E2F3"/>
<path fill-rule="evenodd" clip-rule="evenodd" d="M430.854 42.335C430.408 42.4255 429.747 42.6447 428.801 43.0706C424.959 44.7994 422.591 46.3383 421.923 46.8574L421.912 46.866L421.901 46.8742C418.463 49.3415 413.171 53.0193 408.467 56.0342C406.117 57.5406 403.902 58.8892 402.134 59.8393C401.251 60.3135 400.464 60.6971 399.818 60.9515C399.496 61.0785 399.193 61.1794 398.922 61.2418C398.665 61.3008 398.37 61.3417 398.092 61.2911C396.623 61.024 395.974 59.882 395.743 58.7953C395.518 57.7397 395.639 56.5876 395.812 55.8358C395.875 55.4486 396.11 54.6624 396.581 53.441C397.076 52.1574 397.851 50.3427 399.02 47.9072C399.593 46.713 399.846 45.9488 399.915 45.4927C399.922 45.4502 399.926 45.4121 399.93 45.378C399.864 45.4002 399.787 45.4312 399.699 45.4727C399.389 45.6184 399.032 45.8505 398.703 46.1034C396.047 48.7661 389.684 55.9554 385.286 63.603C380.928 71.182 382.474 76.1803 383.539 77.5772L382.383 78.4581C380.863 76.4635 379.47 70.8031 384.026 62.8785C388.525 55.054 395.015 47.7363 397.708 45.0431L397.74 45.0111L397.776 44.9834C398.164 44.6816 398.628 44.37 399.08 44.1576C399.305 44.0516 399.551 43.9588 399.798 43.9119C400.038 43.8665 400.348 43.8508 400.651 43.9803C400.989 44.1245 401.211 44.4028 401.315 44.7356C401.409 45.0388 401.403 45.3758 401.352 45.7121C401.249 46.3865 400.92 47.3079 400.331 48.5362C399.174 50.9455 398.415 52.7241 397.937 53.9639C397.45 55.228 397.273 55.8847 397.246 56.0763L397.241 56.1084L397.234 56.1399C397.087 56.7617 396.996 57.701 397.164 58.4931C397.329 59.2677 397.689 59.7407 398.352 59.8611C398.35 59.8607 398.35 59.8607 398.353 59.8607C398.367 59.8608 398.44 59.8614 398.596 59.8254C398.771 59.785 399 59.7113 399.285 59.5991C399.854 59.375 400.584 59.0217 401.446 58.5589C403.165 57.6352 405.344 56.31 407.683 54.8106C412.353 51.817 417.617 48.1595 421.043 45.7012C421.841 45.0835 424.313 43.4962 428.204 41.7451C429.196 41.2989 429.968 41.0316 430.564 40.9106C431.123 40.7973 431.687 40.7776 432.121 41.0428C432.656 41.3692 432.719 41.9267 432.661 42.3062C432.606 42.6708 432.432 43.0196 432.265 43.2825L431.038 42.5022C431.087 42.4251 431.126 42.3533 431.155 42.2899C431.079 42.2962 430.98 42.3094 430.854 42.335Z" fill="#D5E2F3"/>
<path fill-rule="evenodd" clip-rule="evenodd" d="M418.233 77.295C418.233 77.2944 418.233 77.2942 418.943 77.1409C419.654 76.9875 419.654 76.9879 419.654 76.9886L419.667 77.0486C419.676 77.0887 419.688 77.1485 419.705 77.2273C419.739 77.3849 419.788 77.6185 419.852 77.9235C419.98 78.5334 420.166 79.4286 420.398 80.5706C420.862 82.8547 421.51 86.1266 422.247 90.0801C423.722 97.9858 425.553 108.622 426.98 119.534C428.406 130.441 429.431 141.651 429.285 150.695C429.212 155.215 428.846 159.227 428.077 162.402C427.317 165.543 426.126 168.025 424.273 169.277C421.297 171.287 417.559 172.097 413.362 172.028C409.166 171.96 404.463 171.014 399.502 169.462C389.58 166.359 378.508 160.796 368.175 154.779C357.836 148.758 348.207 142.264 341.164 137.276C337.642 134.782 334.765 132.664 332.768 131.168C331.77 130.421 330.991 129.829 330.462 129.423C330.197 129.22 329.995 129.064 329.859 128.959C329.79 128.906 329.739 128.866 329.704 128.839L329.652 128.798C329.651 128.798 329.651 128.798 330.098 128.225C330.546 127.652 330.546 127.652 330.546 127.653L330.596 127.691C330.63 127.718 330.681 127.757 330.748 127.809C330.883 127.913 331.083 128.068 331.346 128.269C331.871 128.672 332.646 129.26 333.64 130.005C335.628 131.494 338.494 133.604 342.004 136.09C349.026 141.063 358.617 147.531 368.907 153.523C379.203 159.519 390.166 165.019 399.936 168.075C404.82 169.603 409.377 170.51 413.386 170.575C417.395 170.64 420.808 169.863 423.459 168.073C424.842 167.138 425.924 165.12 426.665 162.06C427.397 159.034 427.759 155.143 427.831 150.672C427.976 141.734 426.962 130.607 425.539 119.723C424.117 108.845 422.29 98.237 420.819 90.3465C420.083 86.4018 419.436 83.1376 418.974 80.8599C418.742 79.7212 418.557 78.8291 418.43 78.222C418.366 77.9185 418.317 77.6862 418.283 77.53C418.267 77.4519 418.254 77.3928 418.246 77.3533L418.233 77.295Z" fill="#D5E2F3"/>
<path fill-rule="evenodd" clip-rule="evenodd" d="M165.693 33.6248C165.631 33.5607 165.569 33.4955 165.504 33.4292C164.818 32.7191 164.023 31.9293 163.169 31.0806C162.357 30.2745 161.493 29.4153 160.617 28.521C158.857 26.7246 157.115 24.8472 155.966 23.2424C155.396 22.4453 154.936 21.6676 154.708 20.9689C154.487 20.2864 154.426 19.4651 155.011 18.8503L155.011 18.8499C155.347 18.4971 155.791 18.3808 156.207 18.3812C156.613 18.3816 157.049 18.4899 157.484 18.6491C158.358 18.9686 159.417 19.5646 160.577 20.3152C162.821 21.7671 165.606 23.9046 168.457 26.0933C168.566 26.1765 168.674 26.2597 168.783 26.3429C171.763 28.6301 174.804 30.9529 177.435 32.657C178.751 33.5092 179.942 34.1922 180.956 34.6369C181.997 35.0936 182.74 35.248 183.206 35.1818C183.499 35.1398 183.694 35.0012 183.852 34.7327C184.03 34.4296 184.156 33.9608 184.211 33.3098C184.322 32.0076 184.13 30.2871 183.904 28.4868C183.886 28.3371 183.867 28.1867 183.848 28.036C183.644 26.4249 183.436 24.7785 183.479 23.5026C183.503 22.8107 183.601 22.1256 183.882 21.5904C184.029 21.3118 184.235 21.0552 184.522 20.8689C184.812 20.6804 185.143 20.5911 185.493 20.5865C186.236 20.5768 186.974 21.0297 187.623 21.5828C188.305 22.1638 189.03 22.9813 189.762 23.951C191.23 25.8945 192.79 28.537 194.146 31.3679C195.503 34.1993 196.67 37.2489 197.338 40.0116C197.996 42.7341 198.206 45.3271 197.481 47.1486L197.481 47.1498C196.12 50.5496 189.496 64.6132 183.231 77.7871C180.095 84.383 177.043 90.7679 174.775 95.5038C173.641 97.8718 172.703 99.8275 172.048 101.191C171.917 101.465 171.797 101.714 171.69 101.939L204.651 93.828L204.998 95.2394L170.541 103.718L169.713 102.697L170.368 103.012C169.713 102.697 169.713 102.697 169.713 102.697L169.98 102.141C170.154 101.778 170.411 101.244 170.738 100.562C171.392 99.199 172.33 97.2436 173.464 94.876C175.731 90.1408 178.783 83.7572 181.919 77.1629C188.198 63.9584 194.792 49.9576 196.131 46.6111C196.678 45.2374 196.572 43.0309 195.925 40.353C195.288 37.7153 194.162 34.7636 192.836 31.996C191.509 29.228 189.997 26.674 188.602 24.8268C187.903 23.9012 187.25 23.1748 186.68 22.6887C186.077 22.1748 185.692 22.0375 185.513 22.0399C185.402 22.0413 185.346 22.0665 185.314 22.0877C185.278 22.1111 185.225 22.1593 185.169 22.2674C185.043 22.5056 184.953 22.9215 184.932 23.5518C184.893 24.7042 185.086 26.2328 185.294 27.887C185.311 28.0259 185.329 28.1657 185.347 28.3062C185.568 30.0705 185.785 31.9498 185.66 33.4325C185.597 34.174 185.443 34.894 185.105 35.4697C184.746 36.0798 184.186 36.51 183.411 36.6207C182.523 36.7471 181.461 36.4459 180.372 35.9679C179.255 35.478 177.989 34.7475 176.645 33.8769C173.956 32.1352 170.867 29.7745 167.898 27.496C167.799 27.4204 167.701 27.345 167.603 27.2696C164.725 25.0608 161.981 22.9547 159.787 21.5355C158.648 20.7987 157.701 20.2758 156.985 20.0141C156.626 19.8827 156.371 19.8348 156.206 19.8347C156.115 19.8346 156.075 19.848 156.062 19.8548C156.029 19.8904 155.932 20.0316 156.091 20.5194C156.248 21.0047 156.605 21.6382 157.148 22.3962C158.226 23.9014 159.897 25.7092 161.655 27.504C162.487 28.3532 163.354 29.215 164.175 30.0314C165.051 30.9026 165.876 31.722 166.549 32.419C167.212 33.1043 167.775 33.7173 168.15 34.2027C168.334 34.441 168.5 34.6827 168.606 34.908C168.658 35.0198 168.714 35.1655 168.733 35.3292C168.752 35.4967 168.739 35.7463 168.571 35.9762C168.304 36.3416 167.892 36.3222 167.767 36.31C167.597 36.2934 167.43 36.2391 167.291 36.1859C167.004 36.0751 166.644 35.889 166.241 35.659C165.426 35.1936 164.318 34.4802 163.022 33.6181C161.871 32.8517 160.558 31.9588 159.154 31.0039C158.975 30.8818 158.794 30.7587 158.611 30.6347C157.001 29.5399 155.284 28.3749 153.552 27.2265C150.081 24.9257 146.573 22.7081 143.767 21.2634C142.359 20.5384 141.166 20.0285 140.262 19.7915C139.808 19.6726 139.47 19.6339 139.234 19.6497C139.081 19.6599 139.004 19.6901 138.967 19.7117C138.969 19.7316 138.973 19.7613 138.983 19.8034C139.028 19.9863 139.156 20.2665 139.414 20.6519C139.922 21.4143 140.804 22.3998 141.974 23.5508C144.304 25.8427 147.647 28.6647 151.059 31.4661C152.215 32.4148 153.379 33.3616 154.511 34.283C156.71 36.0713 158.791 37.7641 160.465 39.1901C161.732 40.2695 162.79 41.2153 163.498 41.9471C163.848 42.3086 164.141 42.6469 164.331 42.9413C164.424 43.0854 164.52 43.2609 164.57 43.4524C164.619 43.6414 164.651 43.9685 164.43 44.2661C164.255 44.5014 164.012 44.6004 163.823 44.6391C163.639 44.6767 163.455 44.6688 163.299 44.649C162.986 44.6094 162.621 44.499 162.237 44.3561C161.459 44.0662 160.438 43.577 159.273 42.9728C157.484 42.0452 155.289 40.8102 153 39.5221C152.3 39.1285 151.592 38.7299 150.883 38.3336C147.843 36.6325 144.802 34.9725 142.399 33.8828C141.193 33.3359 140.184 32.9493 139.432 32.7672C139.054 32.6755 138.783 32.6461 138.604 32.6554C138.581 32.6567 138.56 32.6585 138.543 32.6605C138.545 32.6722 138.548 32.6852 138.552 32.6995C138.594 32.8834 138.716 33.1632 138.955 33.5465C139.428 34.3049 140.246 35.2915 141.333 36.4426C143.497 38.7351 146.612 41.562 149.819 44.3227C153.022 47.0795 156.299 49.7556 158.776 51.7434C160.014 52.7371 161.052 53.5582 161.78 54.1307C162.144 54.4169 162.431 54.641 162.626 54.7934C162.724 54.8696 162.799 54.9279 162.849 54.967L162.921 55.0224L162.924 55.0252L162.925 55.0258C162.925 55.026 162.925 55.026 162.48 55.6006C163.09 55.9961 163.09 55.9963 163.089 55.9969L163.053 56.0526C163.042 56.0704 163.028 56.0924 163.011 56.1185C162.992 56.1477 162.97 56.1821 162.944 56.2214C162.848 56.3707 162.705 56.5925 162.52 56.8825C162.148 57.4623 161.605 58.3142 160.919 59.4018C159.547 61.5769 157.601 64.694 155.312 68.4604C150.732 75.9945 144.778 86.1216 139.273 96.5022C133.764 106.891 128.723 117.501 125.953 126.01C124.567 130.27 123.767 133.951 123.74 136.791C123.712 139.653 124.462 141.439 125.909 142.27C127.56 143.217 130.068 143.787 133.278 144.012C136.47 144.235 140.278 144.112 144.475 143.73C152.866 142.968 162.734 141.181 172.174 139.133C181.61 137.085 190.601 134.78 197.234 132.986C200.55 132.089 203.276 131.32 205.173 130.776C206.121 130.504 206.861 130.288 207.365 130.14C207.616 130.066 207.809 130.009 207.938 129.971L208.084 129.927L208.13 129.913L208.132 129.913C208.133 129.913 208.133 129.912 208.342 130.609C208.551 131.305 208.55 131.305 208.55 131.305L208.547 131.306L208.352 131.364C208.261 131.391 208.14 131.427 207.99 131.471C207.924 131.49 207.852 131.512 207.775 131.534C207.268 131.683 206.525 131.9 205.574 132.173C203.671 132.719 200.938 133.49 197.614 134.389C190.966 136.187 181.95 138.498 172.482 140.553C163.018 142.607 153.084 144.408 144.606 145.178C140.368 145.563 136.475 145.692 133.176 145.462C129.895 145.232 127.124 144.642 125.186 143.53C123.045 142.302 122.257 139.816 122.286 136.777C122.316 133.717 123.169 129.87 124.571 125.56C127.381 116.928 132.47 106.228 137.989 95.8213C143.512 85.4065 149.482 75.2531 154.07 67.7054C156.364 63.931 158.314 60.807 159.69 58.6261C160.378 57.5357 160.923 56.681 161.296 56.0986C161.375 55.9752 161.446 55.864 161.51 55.7654C161.338 55.6313 161.127 55.4663 160.882 55.2732C160.151 54.6982 159.109 53.8741 157.866 52.8771C155.382 50.8834 152.091 48.1959 148.871 45.4242C145.656 42.6562 142.494 39.7895 140.276 37.4404C139.172 36.2708 138.273 35.1997 137.722 34.3155C137.449 33.8775 137.231 33.4398 137.136 33.0289C137.041 32.619 137.04 32.1011 137.404 31.6866C137.717 31.3306 138.157 31.2235 138.528 31.204C138.907 31.1841 139.334 31.2477 139.775 31.3547C140.662 31.5696 141.771 32.0019 142.999 32.5591C145.466 33.6777 148.558 35.367 151.593 37.0652C152.312 37.4671 153.027 37.8694 153.73 38.2653C156.014 39.5502 158.178 40.7675 159.942 41.6826C160.88 42.1693 161.687 42.5603 162.326 42.8279C161.67 42.1656 160.707 41.3051 159.523 40.2966C157.861 38.8809 155.802 37.2067 153.613 35.4259C152.477 34.5021 151.306 33.5495 150.137 32.5895C146.728 29.7902 143.337 26.9304 140.954 24.5869C139.768 23.4202 138.799 22.3497 138.205 21.4586C137.91 21.0173 137.674 20.5714 137.571 20.1465C137.465 19.7122 137.478 19.1859 137.855 18.7646C138.201 18.3779 138.678 18.2302 139.137 18.1994C139.592 18.1689 140.102 18.2469 140.631 18.3855C141.691 18.6634 142.996 19.2317 144.433 19.9712C147.316 21.4555 150.881 23.7121 154.355 26.0151C156.095 27.1686 157.818 28.3379 159.429 29.4328C159.611 29.557 159.793 29.6803 159.972 29.8025C161.377 30.758 162.683 31.6462 163.828 32.4081C164.516 32.8664 165.142 33.2759 165.693 33.6248ZM162.48 55.6006L163.09 55.9961L162.925 55.0258L162.48 55.6006ZM138.536 32.5717C138.536 32.5718 138.536 32.5743 138.535 32.5786C138.535 32.5737 138.536 32.5715 138.536 32.5717ZM138.968 19.678C138.968 19.6782 138.968 19.6812 138.966 19.6863C138.967 19.6803 138.967 19.6778 138.968 19.678ZM156.056 19.8586C156.056 19.8584 156.057 19.857 156.061 19.855C156.058 19.8577 156.056 19.8587 156.056 19.8586Z" fill="#D5E2F3"/>
<path d="M172.427 248.726L193.86 227.288V270.16L172.427 248.726Z" fill="#234977"/>
<path d="M386.642 227.288L408.076 248.726L386.642 270.16V227.288Z" fill="#234977"/>
<path d="M135.111 453.999H68.0293L83.5329 347.267L68.0293 295.087L52.5257 347.267L68.0293 453.999H0.942383C0.942383 453.999 6.92588 436.707 19.4402 434.023C19.4402 434.023 2.13909 374.398 3.03055 350.542C3.92201 326.685 29.5659 240.825 29.5659 240.825H106.488C106.488 240.825 132.127 326.69 133.023 350.542C133.92 374.393 116.618 434.023 116.618 434.023C129.128 436.707 135.111 453.999 135.111 453.999Z" fill="#F96155"/>
<path d="M465.308 453.999H544.91C544.91 453.999 535.966 441.18 530.002 440.283L537.027 283.934C538.04 261.328 520.535 242.181 497.934 241.164C497.323 241.135 496.708 241.125 496.098 241.125C473.472 241.12 455.125 259.458 455.125 282.088C455.125 284.273 455.299 286.449 455.643 288.605L479.62 437.899C479.615 437.899 467.988 444.755 465.308 453.999Z" fill="#D5E2F3"/>
<path fill-rule="evenodd" clip-rule="evenodd" d="M502.706 281.353L507.178 453.98L505.725 454.018L501.253 281.39L502.706 281.353Z" fill="#001A39"/>
<path fill-rule="evenodd" clip-rule="evenodd" d="M509.71 165.079C509.834 162.074 509.972 158.84 510.178 155.558L511.145 155.619C510.939 158.89 510.802 162.114 510.678 165.119C510.669 165.341 510.66 165.562 510.651 165.782C510.538 168.532 510.433 171.085 510.293 173.295C510.143 175.676 509.949 177.683 509.655 179.119C509.508 179.834 509.33 180.439 509.103 180.886C508.885 181.313 508.552 181.726 508.037 181.791L508.036 181.791C506.725 181.951 505.37 181.15 504.095 180.089C502.881 179.078 501.619 177.725 500.382 176.399C500.294 176.306 500.206 176.212 500.119 176.118C498.784 174.688 497.483 173.321 496.256 172.387C495.006 171.435 493.977 171.049 493.141 171.3C492.186 171.586 491.212 172.322 490.241 173.431C489.274 174.536 488.343 175.972 487.465 177.595C485.71 180.84 484.201 184.77 483.069 188.122L482.151 187.812C483.29 184.44 484.819 180.45 486.613 177.134C487.509 175.476 488.48 173.972 489.512 172.793C490.538 171.62 491.659 170.732 492.863 170.371C494.185 169.975 495.562 170.641 496.843 171.616C498.147 172.608 499.504 174.04 500.827 175.457C500.91 175.546 500.994 175.635 501.077 175.724C502.328 177.065 503.55 178.374 504.715 179.344C505.982 180.399 507.05 180.935 507.919 180.829L507.977 181.31L507.917 180.829C507.935 180.827 508.061 180.796 508.239 180.446C508.408 180.115 508.565 179.61 508.706 178.924C508.985 177.56 509.176 175.611 509.326 173.233C509.466 171.035 509.57 168.493 509.683 165.739C509.692 165.52 509.701 165.3 509.71 165.079Z" fill="#001A39"/>
<path fill-rule="evenodd" clip-rule="evenodd" d="M531.94 128.309C536.047 131.528 540.363 136.319 544.414 141.482L543.652 142.08C539.617 136.939 535.358 132.219 531.342 129.072C529.334 127.498 527.407 126.333 525.616 125.698C523.828 125.065 522.205 124.969 520.773 125.488L520.773 125.488C518.04 126.475 516.032 129.402 514.569 133.626L513.653 133.309C515.136 129.026 517.275 125.722 520.443 124.577M531.94 128.309C529.886 126.7 527.866 125.468 525.94 124.785L531.94 128.309ZM525.94 124.785C524.011 124.101 522.148 123.96 520.443 124.577L525.94 124.785Z" fill="#001A39"/>
<path fill-rule="evenodd" clip-rule="evenodd" d="M50.2258 105.825C50.5881 107.757 50.5948 109.547 49.9557 110.911L49.9556 110.911C49.3697 112.161 47.9541 112.745 46.3732 113.052C44.7631 113.364 42.7908 113.423 40.8515 113.467C40.7265 113.47 40.6017 113.473 40.4771 113.476C38.6458 113.516 36.8588 113.556 35.3631 113.778C34.5668 113.896 33.8765 114.063 33.3207 114.298C32.765 114.533 32.3717 114.823 32.1298 115.173C32.1193 115.188 32.0573 115.306 32.2086 115.686C32.3511 116.043 32.6368 116.512 33.0717 117.09C33.9375 118.241 35.3145 119.725 37.0435 121.47C38.5539 122.995 40.3186 124.706 42.2231 126.552C42.4945 126.815 42.7687 127.081 43.0454 127.35C45.2623 129.5 47.6369 131.815 49.9887 134.21C54.6876 138.995 59.3167 144.122 62.4266 148.927C63.9817 151.33 65.1702 153.672 65.7922 155.867C66.4145 158.064 66.4784 160.146 65.7367 161.995C64.637 164.739 61.7582 166.451 58.0024 167.48C54.2268 168.515 49.4354 168.895 44.297 168.873L44.3011 167.905C49.4048 167.926 54.0948 167.546 57.7464 166.546C61.4178 165.54 63.9119 163.943 64.8374 161.634L64.8374 161.634C65.4742 160.047 65.4453 158.198 64.8599 156.132C64.2742 154.064 63.1399 151.813 61.6131 149.454C58.5591 144.735 53.9878 139.665 49.2973 134.889C46.9544 132.503 44.5871 130.195 42.3708 128.045C42.0943 127.777 41.8202 127.511 41.5487 127.248C39.6454 125.403 37.8729 123.685 36.3551 122.152C34.6243 120.405 33.2061 118.881 32.2973 117.672C31.845 117.071 31.4985 116.522 31.3084 116.044C31.1273 115.589 31.0324 115.055 31.3332 114.621C31.7138 114.071 32.2835 113.684 32.9437 113.406C33.6038 113.127 34.3825 112.944 35.2208 112.82C36.7796 112.588 38.6256 112.547 40.4364 112.507C40.5677 112.504 40.6987 112.502 40.8295 112.499C42.786 112.454 44.6735 112.394 46.1885 112.1C47.7327 111.801 48.7075 111.291 49.0784 110.5C49.5875 109.413 49.6233 107.869 49.2734 106.003C48.9262 104.152 48.2136 102.055 47.3119 99.9153L48.2048 99.5391C49.12 101.711 49.8608 103.878 50.2258 105.825Z" fill="#001A39"/>
<path fill-rule="evenodd" clip-rule="evenodd" d="M459.643 110.836C465.123 118.302 472.255 127.415 478.144 132.904L477.483 133.613C471.521 128.056 464.342 118.875 458.862 111.409L459.643 110.836Z" fill="#001A39"/>
<path fill-rule="evenodd" clip-rule="evenodd" d="M504.812 107.99C505.197 104.514 505.107 99.9379 504.747 94.9905L505.713 94.9202C506.075 99.8855 506.17 104.532 505.775 108.097C505.578 109.877 505.257 111.416 504.77 112.597C504.287 113.77 503.606 114.674 502.64 115.04L502.64 115.04C501.045 115.643 499.048 115.099 497.066 114.11C495.054 113.108 492.924 111.579 490.988 110C489.048 108.419 487.286 106.773 486.01 105.524C485.86 105.378 485.717 105.237 485.581 105.102C485.975 106.17 486.476 107.576 487.013 109.21C488.244 112.953 489.673 117.901 490.452 122.692L489.495 122.848C488.728 118.128 487.316 113.234 486.092 109.512C485.481 107.653 484.918 106.091 484.507 104.993C484.302 104.444 484.136 104.012 484.02 103.718C483.963 103.57 483.918 103.457 483.887 103.381C483.872 103.343 483.861 103.315 483.853 103.296L483.845 103.274L483.842 103.268L484.291 103.085C484.646 102.756 484.646 102.756 484.646 102.756L484.654 102.765L484.681 102.793C484.704 102.818 484.739 102.856 484.786 102.905C484.878 103.002 485.015 103.146 485.192 103.329C485.545 103.694 486.056 104.214 486.688 104.832C487.951 106.068 489.69 107.692 491.6 109.249C493.513 110.809 495.58 112.287 497.498 113.243C499.446 114.214 501.111 114.582 502.297 114.134C502.896 113.907 503.433 113.299 503.874 112.228C504.311 111.167 504.62 109.73 504.812 107.99ZM484.291 103.085L484.646 102.756C484.487 102.584 484.228 102.551 484.03 102.677C483.833 102.802 483.754 103.051 483.842 103.268L484.291 103.085Z" fill="#001A39"/>
<path fill-rule="evenodd" clip-rule="evenodd" d="M458.895 173.325C459.987 155.501 453.72 139.181 449.181 129.916L450.051 129.489C454.621 138.819 460.969 155.318 459.862 173.385L458.895 173.325Z" fill="#001A39"/>
<path fill-rule="evenodd" clip-rule="evenodd" d="M79.7846 137.74C79.1959 138.607 78.9647 139.768 79.4472 141.391C80.4761 144.852 83.2586 149.471 86.3813 153.891C89.4888 158.289 92.8754 162.411 95.0406 164.857L93.9523 165.82C91.7571 163.34 88.3366 159.177 85.1942 154.729C82.067 150.303 79.1569 145.515 78.054 141.806C77.4706 139.843 77.7057 138.213 78.5826 136.923C79.4372 135.666 80.8321 134.835 82.371 134.288C85.4446 133.196 89.4289 133.119 92.1398 133.365L92.1811 133.369L92.2217 133.377C94.3764 133.825 97.87 134.64 101.364 135.637C104.839 136.628 108.381 137.817 110.59 139.022L109.894 140.298C107.84 139.178 104.438 138.025 100.965 137.035C97.532 136.055 94.0954 135.252 91.9671 134.809C89.3507 134.576 85.6319 134.672 82.8577 135.658C81.4655 136.153 80.3956 136.842 79.7846 137.74Z" fill="#001A39"/>
</svg>
