<svg width="240" height="284" viewBox="0 0 240 284" fill="none" xmlns="http://www.w3.org/2000/svg">
<path d="M131.519 284C144.983 284 155.898 273.089 155.898 259.63C155.898 246.17 144.983 235.26 131.519 235.26C118.054 235.26 107.139 246.17 107.139 259.63C107.139 273.089 118.054 284 131.519 284Z" fill="#0768C1"/>
<path fill-rule="evenodd" clip-rule="evenodd" d="M123.774 242.59C123.863 243.073 123.864 243.527 123.73 243.922C123.539 244.501 123.052 244.86 122.48 245.107C121.908 245.354 121.207 245.507 120.524 245.648C120.471 245.659 120.419 245.67 120.366 245.681C119.729 245.812 119.113 245.94 118.594 246.127C118.03 246.33 117.632 246.588 117.442 246.947C117.427 246.976 117.412 247.049 117.462 247.204C117.511 247.354 117.611 247.546 117.764 247.78C118.07 248.245 118.559 248.834 119.179 249.524C119.737 250.146 120.394 250.842 121.104 251.596C121.18 251.677 121.256 251.757 121.333 251.839C122.131 252.685 122.987 253.598 123.838 254.548C125.536 256.447 127.219 258.508 128.368 260.51C129.512 262.503 130.153 264.487 129.69 266.212L129.69 266.212C129.351 267.472 128.298 268.375 126.868 269.017C125.436 269.66 123.589 270.059 121.585 270.295C117.573 270.767 112.872 270.589 109.461 270.335L109.496 269.876C112.899 270.13 117.564 270.305 121.529 269.838C123.513 269.605 125.306 269.212 126.674 268.598C128.045 267.983 128.951 267.163 129.238 266.094C129.653 264.55 129.09 262.703 127.961 260.736C126.837 258.777 125.18 256.746 123.487 254.853C122.641 253.907 121.789 252.998 120.991 252.152C120.914 252.07 120.838 251.989 120.762 251.909C120.052 251.156 119.391 250.455 118.829 249.829C118.208 249.137 117.698 248.526 117.372 248.029C117.209 247.781 117.085 247.55 117.017 247.344C116.952 247.143 116.928 246.924 117.028 246.735C117.3 246.22 117.836 245.91 118.434 245.695C118.986 245.495 119.635 245.362 120.263 245.232C120.318 245.22 120.373 245.209 120.428 245.198C121.118 245.055 121.772 244.91 122.292 244.686C122.812 244.461 123.155 244.177 123.286 243.779L123.287 243.777C123.387 243.481 123.395 243.111 123.314 242.672C123.234 242.235 123.067 241.744 122.832 241.217C122.362 240.161 121.632 238.986 120.827 237.843L121.21 237.58C122.023 238.734 122.772 239.937 123.26 241.032C123.503 241.579 123.684 242.106 123.774 242.59Z" fill="white"/>
<path fill-rule="evenodd" clip-rule="evenodd" d="M146.448 278.973C135.003 274.656 125.038 278.304 119.742 281.163L119.523 280.753C124.878 277.862 134.989 274.154 146.611 278.538L146.448 278.973Z" fill="white"/>
<path d="M201.666 28.739L222.669 64.224C226.642 70.9291 221.595 79.3748 213.802 79.055L168.98 77.2216C161.186 76.9044 156.855 68.0795 161.354 61.7174L185.186 28.0633C188.329 23.6354 194.469 22.5935 198.898 25.7345C200.02 26.5314 200.965 27.5527 201.666 28.739Z" fill="#FBC73B"/>
<path fill-rule="evenodd" clip-rule="evenodd" d="M183.956 113.938C180.06 121.312 176.356 127.547 174.193 130.192C170.723 134.436 167.292 134.316 165.858 133.573C160.417 132.084 154.564 128.305 152.311 126.6L152.778 125.983C155.004 127.668 160.789 131.394 166.102 132.838L166.145 132.85L166.185 132.871C167.191 133.415 170.265 133.773 173.594 129.702C175.701 127.125 179.372 120.957 183.271 113.577C187.165 106.208 191.267 97.6686 194.237 90.3722L194.954 90.6638C191.972 97.9901 187.858 106.554 183.956 113.938Z" fill="#001A39"/>
<path fill-rule="evenodd" clip-rule="evenodd" d="M165.626 116.23C165.626 116.23 165.626 116.23 165.286 116.046C165.069 116.367 165.069 116.367 165.069 116.367L165.06 116.361L165.034 116.343C165.011 116.328 164.976 116.305 164.93 116.274C164.839 116.213 164.704 116.124 164.53 116.01C164.182 115.783 163.678 115.458 163.058 115.069C161.816 114.292 160.108 113.261 158.239 112.246C156.37 111.229 154.347 110.232 152.476 109.519C150.59 108.8 148.913 108.391 147.71 108.499L147.641 107.728C149.031 107.604 150.85 108.071 152.752 108.796C154.668 109.526 156.724 110.541 158.609 111.566C160.495 112.592 162.218 113.631 163.468 114.414C164.094 114.805 164.602 115.133 164.953 115.363C165.024 115.409 165.089 115.451 165.146 115.489C165.22 115.354 165.312 115.183 165.421 114.981C165.725 114.417 166.163 113.607 166.695 112.624C167.759 110.658 169.202 107.997 170.717 105.218C173.744 99.6687 177.068 93.6338 178.227 91.7518L178.886 92.1573C177.741 94.0173 174.429 100.028 171.397 105.589C169.882 108.366 168.44 111.026 167.376 112.992C166.844 113.975 166.406 114.785 166.102 115.348C165.95 115.63 165.831 115.851 165.75 116L165.627 116.229L165.626 116.23ZM165.286 116.046L165.069 116.367L165.626 116.23L165.286 116.046Z" fill="#001A39"/>
<path d="M228.907 169.756C235.033 169.756 240 164.792 240 158.667C240 152.543 235.033 147.578 228.907 147.578C222.78 147.578 217.814 152.543 217.814 158.667C217.814 164.792 222.78 169.756 228.907 169.756Z" fill="#FBC73B"/>
<path d="M193.904 23.9011C200.506 23.9011 205.858 18.5505 205.858 11.9504C205.858 5.35036 200.506 0 193.904 0C187.301 0 181.948 5.35036 181.948 11.9504C181.948 18.5505 187.301 23.9011 193.904 23.9011Z" fill="#0768C1"/>
<path d="M40.3379 39.142C46.5001 39.142 51.4956 34.1484 51.4956 27.9884C51.4956 21.8285 46.5001 16.8348 40.3379 16.8348C34.1756 16.8348 29.1802 21.8285 29.1802 27.9884C29.1802 34.1484 34.1756 39.142 40.3379 39.142Z" fill="#FBC73B"/>
<path d="M48.7479 84.5816L29.8171 49.2306L73.3025 52.8745L48.7479 84.5816Z" fill="#0768C1"/>
<path d="M88.449 76.5768C92.7934 98.1361 78.8342 119.136 57.2669 123.481C35.6997 127.824 14.6922 113.87 10.3452 92.3078L88.449 76.5768Z" fill="#F96155"/>
<path d="M109.196 135.336C106.536 122.759 114.58 110.409 127.159 107.753C139.738 105.096 152.095 113.135 154.753 125.709C154.784 125.856 154.812 126.001 154.841 126.148L109.196 135.336Z" fill="#F96155"/>
<path d="M127.685 90.286C127.685 90.286 136.085 91.106 139.429 95.8563C142.772 100.607 139.006 108.052 139.006 108.052L120.116 109.921L127.685 90.286Z" fill="#001A39"/>
<path d="M126.447 114.641L118.565 102.314C118.565 102.314 113.339 102.603 112.374 99.2914C111.409 95.9802 115.116 95.5493 115.116 95.5493C115.116 95.5493 114.216 90.7709 118.305 87.9754C122.394 85.1799 127.592 88.7257 129.259 92.3026C131.72 97.5866 130.998 101.254 125.317 103.049L129.986 109.628" fill="#FBC73B"/>
<path fill-rule="evenodd" clip-rule="evenodd" d="M128.592 94.2527L126.44 92.4838L126.768 92.0854L128.92 93.8544L128.592 94.2527Z" fill="#001A39"/>
<path d="M124.277 111.247C128.057 107.195 116.708 93.7699 116.708 93.7699C122.843 93.7699 127.265 89.569 127.265 89.569C127.265 89.569 121.772 83.1785 114.523 88.5941C107.274 94.0097 108.481 99.9592 108.481 99.9592C108.481 99.9592 101.368 106.822 105.181 113.583C108.994 120.345 118.767 120.59 118.767 120.59C118.767 120.59 121.274 114.465 124.277 111.247Z" fill="#001A39"/>
<path d="M128.063 92.3423C128.413 92.2306 128.559 91.7079 128.389 91.1746C128.219 90.6413 127.797 90.2996 127.447 90.4113C127.096 90.523 126.95 91.0457 127.121 91.579C127.291 92.1123 127.713 92.4539 128.063 92.3423Z" fill="#001A39"/>
<path d="M125.749 93.7843C126.099 93.6726 126.245 93.1497 126.074 92.6164C125.904 92.0832 125.483 91.7414 125.132 91.8531C124.782 91.9648 124.636 92.4875 124.806 93.0208C124.977 93.554 125.398 93.896 125.749 93.7843Z" fill="#001A39"/>
<path d="M228.514 134.101L222.05 141.032L228.984 147.493L235.448 140.562L228.514 134.101Z" fill="#001A39"/>
<path d="M120.019 231.326L154.608 239.902C154.608 239.902 150.595 234.231 145.061 232.295C145.061 232.295 162.356 200.611 161.386 192.737C160.417 184.862 149.625 164.658 149.625 164.658L177.022 171.573L209.259 194.811L228.907 169.776C228.907 169.776 222.265 171.021 220.882 172.681C220.882 172.681 199.714 154.411 192.242 150.826C184.77 147.242 148.7 134.598 135.241 137.063C122.027 139.485 116.562 150.826 120.021 159.818C123.479 168.81 133.39 187.896 133.39 187.896L120.019 231.326Z" fill="#001A39"/>
<path fill-rule="evenodd" clip-rule="evenodd" d="M153.75 170.788L144.031 154.898L144.631 154.541L154.35 170.431L153.75 170.788Z" fill="white"/>
<path d="M5.46915 36.1789V36.9525C5.6033 36.9525 5.72708 36.9527 5.87413 36.9681L98.0354 44.8387C100.61 45.0579 102.522 47.3222 102.302 49.8959C102.302 49.8985 102.302 49.8984 102.302 49.901C102.086 52.3148 100.068 54.1691 97.6434 54.1845C97.5092 54.1845 97.3853 54.1845 97.2383 54.1664L5.07701 46.2984C2.49978 46.0895 0.580367 43.8303 0.789332 41.254C0.987978 38.8195 3.02606 36.9474 5.46915 36.9525V36.1789ZM5.46915 36.1789C2.45593 36.1711 0.00775996 38.6083 2.05201e-05 41.6204C-0.00771892 44.4649 2.17472 46.8374 5.01252 47.0695L97.1816 54.9375C97.339 54.9504 97.4962 54.9582 97.6509 54.9582C100.664 54.9659 103.115 52.5315 103.123 49.5194C103.13 46.6724 100.948 44.2971 98.1102 44.0675L5.93611 36.197C5.77616 36.1841 5.62135 36.1789 5.46398 36.1789H5.46915Z" fill="#001A39"/>
<path fill-rule="evenodd" clip-rule="evenodd" d="M106.395 120.641L89.6451 134.406L65.1072 133.309L65.1418 132.536L89.383 133.62L105.903 120.044L106.395 120.641Z" fill="#001A39"/>
<path fill-rule="evenodd" clip-rule="evenodd" d="M99.2214 146.369C97.2087 147.39 95.2635 148.112 93.7269 148.132C84.706 148.252 74.5383 146.535 66.639 144.794C62.6866 143.923 59.2963 143.044 56.8938 142.384C55.6925 142.053 54.7379 141.777 54.0832 141.583C53.7559 141.487 53.5035 141.41 53.3328 141.358C53.2474 141.332 53.1824 141.312 53.1387 141.299L53.0891 141.283L53.0723 141.278C53.0721 141.278 53.0719 141.278 53.1877 140.909C53.3034 140.54 53.3034 140.54 53.3035 140.54L53.3191 140.545L53.3673 140.56C53.4101 140.573 53.4741 140.593 53.5585 140.618C53.7273 140.67 53.9776 140.745 54.3028 140.842C54.9532 141.034 55.903 141.309 57.0991 141.638C59.4916 142.296 62.8687 143.171 66.8057 144.038C74.6852 145.775 84.7845 147.477 93.7166 147.359C95.0642 147.341 96.8739 146.692 98.8711 145.679C100.854 144.673 102.971 143.334 104.916 141.993C106.86 140.652 108.625 139.313 109.905 138.309C110.545 137.807 111.063 137.389 111.421 137.097C111.6 136.951 111.738 136.836 111.832 136.758C111.879 136.719 111.915 136.689 111.939 136.669L111.966 136.647L111.974 136.64L111.975 136.639C111.975 136.639 111.975 136.639 112.224 136.935C112.473 137.231 112.473 137.231 112.473 137.231L112.464 137.239L112.436 137.262C112.411 137.283 112.375 137.313 112.327 137.353C112.231 137.432 112.091 137.548 111.91 137.696C111.549 137.991 111.027 138.412 110.383 138.918C109.095 139.928 107.317 141.277 105.356 142.63C103.396 143.981 101.248 145.341 99.2214 146.369Z" fill="#001A39"/>
<path fill-rule="evenodd" clip-rule="evenodd" d="M188.737 85.6015C188.737 85.6015 188.737 85.6015 188.865 85.2366C188.993 84.8716 188.994 84.8717 188.994 84.8717L188.995 84.8723L188.999 84.8736L189.013 84.8786C189.025 84.8829 189.042 84.8892 189.064 84.8974C189.109 84.9139 189.173 84.9381 189.253 84.9701C189.415 85.0339 189.644 85.1284 189.918 85.2527C190.464 85.5006 191.194 85.8692 191.921 86.3502C193.337 87.2887 194.897 88.7606 194.78 90.7064L194.007 90.66C194.097 89.1733 192.892 87.9219 191.493 86.9952C190.811 86.5436 190.12 86.1941 189.598 85.9572C189.338 85.8389 189.12 85.7493 188.969 85.6896C188.893 85.6597 188.834 85.6373 188.795 85.6226C188.775 85.6153 188.76 85.6098 188.75 85.6063L188.74 85.6024L188.737 85.6016L188.737 85.6015C188.737 85.6015 188.737 85.6015 188.737 85.6015Z" fill="#001A39"/>
<path fill-rule="evenodd" clip-rule="evenodd" d="M178.901 92.1407C178.901 92.1406 178.901 92.1406 178.557 91.9649C178.212 91.7892 178.212 91.7891 178.212 91.789L178.213 91.7875L178.215 91.7837L178.222 91.7695C178.228 91.7573 178.238 91.7394 178.25 91.7164C178.274 91.6704 178.31 91.6037 178.356 91.5193C178.448 91.3506 178.583 91.1111 178.754 90.8258C179.095 90.256 179.582 89.4987 180.165 88.7552C180.745 88.0147 181.433 87.2715 182.177 86.7438C182.917 86.219 183.764 85.8726 184.64 86.0265L184.642 86.0269L184.644 86.0273C186.551 86.3849 188.394 87.0131 190.122 87.8938L190.408 88.0394L190.318 88.3469L189.946 88.2384C190.318 88.3469 190.318 88.3472 190.318 88.3475L190.317 88.3482L190.317 88.3497L190.316 88.3535C190.315 88.3563 190.314 88.3597 190.313 88.3638C190.31 88.372 190.306 88.3826 190.302 88.3956C190.293 88.4214 190.28 88.4564 190.262 88.4989C190.227 88.5838 190.172 88.6995 190.093 88.8325C189.934 89.0982 189.674 89.4361 189.267 89.7327C188.437 90.3374 187.075 90.7161 184.907 90.1281L185.11 89.3814C187.106 89.9229 188.213 89.5434 188.811 89.1076C189.118 88.884 189.312 88.6309 189.428 88.4359C189.432 88.4298 189.435 88.4238 189.439 88.4178C187.874 87.6573 186.215 87.1093 184.504 86.7881C183.92 86.6863 183.285 86.9064 182.625 87.3749C181.967 87.8411 181.333 88.5193 180.774 89.2323C180.218 89.9423 179.749 90.6706 179.418 91.223C179.253 91.4987 179.123 91.7295 179.035 91.8908C178.991 91.9714 178.957 92.0346 178.934 92.0773C178.923 92.0986 178.915 92.1148 178.909 92.1255L178.903 92.1373L178.902 92.14L178.901 92.1407ZM189.576 88.1272C189.576 88.1269 189.576 88.1272 189.575 88.1281L189.576 88.1272Z" fill="#001A39"/>
<path fill-rule="evenodd" clip-rule="evenodd" d="M52.2565 131.465C52.6431 131.483 52.6431 131.483 52.6431 131.483L52.639 131.574L52.5946 131.653C50.6502 135.144 50.9117 137.34 51.6271 138.677C52.3387 140.006 53.5534 140.597 53.8981 140.765L53.9255 140.778L53.5853 141.473L53.5528 141.457C53.1842 141.278 51.7762 140.595 50.9447 139.042C50.076 137.419 49.8901 134.959 51.8743 131.357C51.8769 131.303 51.8807 131.225 51.8857 131.128C51.896 130.926 51.9115 130.636 51.932 130.289C51.9728 129.595 52.0336 128.668 52.1132 127.741C52.1926 126.815 52.2914 125.88 52.4093 125.172C52.4678 124.821 52.5335 124.509 52.6091 124.279C52.646 124.166 52.6926 124.05 52.7549 123.954C52.8029 123.88 52.94 123.695 53.1879 123.695C53.5716 123.695 53.8659 123.933 54.0766 124.2C54.2912 124.471 54.4724 124.837 54.6282 125.242C54.9415 126.056 55.1886 127.124 55.3793 128.17C55.5409 129.056 55.6643 129.941 55.753 130.667C55.5032 130.968 55.2803 131.302 55.0846 131.64C55.0689 131.49 55.0506 131.323 55.0298 131.141C54.9409 130.367 54.8053 129.336 54.6179 128.309C54.4297 127.276 54.1927 126.265 53.9059 125.52C53.7617 125.145 53.6139 124.862 53.4693 124.679C53.4194 124.616 53.3756 124.572 53.3379 124.54C53.2832 124.714 53.2273 124.971 53.1727 125.299C53.0601 125.976 52.9633 126.886 52.8843 127.807C52.8055 128.725 52.7452 129.644 52.7046 130.334C52.6843 130.679 52.6689 130.967 52.6586 131.168C52.6534 131.268 52.6496 131.347 52.647 131.401L52.6441 131.462L52.6431 131.483L52.2565 131.465ZM53.4036 124.376C53.4095 124.367 53.4094 124.369 53.4031 124.377L53.4036 124.376Z" fill="#001A39"/>
<path fill-rule="evenodd" clip-rule="evenodd" d="M65.4971 132.561C65.4896 132.558 65.4504 132.546 65.3963 132.546V133.32C65.3339 133.32 65.2847 133.305 65.2668 133.299C65.2425 133.292 65.2213 133.283 65.2057 133.276C65.1743 133.262 65.1418 133.246 65.112 133.229C65.0514 133.196 64.9748 133.151 64.8882 133.098C64.7633 133.022 64.6047 132.922 64.4213 132.807C64.3495 132.762 64.2739 132.714 64.195 132.665C63.6302 132.311 62.8791 131.847 62.0647 131.396C61.2485 130.944 60.3787 130.512 59.5767 130.218C58.7598 129.919 58.0742 129.787 57.6002 129.871C57.1277 129.954 56.6881 130.236 56.2846 130.653C55.8819 131.07 55.5366 131.6 55.2537 132.133C54.9719 132.665 54.7588 133.186 54.616 133.576C54.592 133.641 54.57 133.703 54.55 133.76C54.5756 133.761 54.6022 133.762 54.6295 133.763C54.9722 133.773 55.4414 133.76 55.95 133.673C56.9742 133.496 58.0971 133.029 58.7271 131.897L59.4035 132.272C58.612 133.695 57.2183 134.239 56.0813 134.435C55.5093 134.533 54.9867 134.547 54.6078 134.536C54.4179 134.531 54.2626 134.52 54.1536 134.509C54.0991 134.504 54.0561 134.499 54.0259 134.496C54.0109 134.494 53.999 134.492 53.9906 134.491L53.9804 134.49L53.9773 134.489L53.9763 134.489L53.9759 134.489C53.9757 134.489 53.9755 134.489 54.0321 134.106C53.6595 134.002 53.6595 134.002 53.6596 134.002L53.6599 134L53.6608 133.997L53.6638 133.987C53.6664 133.978 53.6701 133.965 53.6751 133.949C53.6849 133.916 53.6994 133.868 53.7185 133.808C53.7567 133.687 53.8137 133.516 53.8893 133.31C54.0401 132.898 54.2668 132.342 54.5699 131.771C54.872 131.201 55.2568 130.603 55.7281 130.115C56.1987 129.629 56.7772 129.231 57.4656 129.109C58.1525 128.988 59.0026 129.184 59.843 129.492C60.6985 129.805 61.6077 130.259 62.4395 130.719C63.2729 131.18 64.0385 131.654 64.6061 132.009C64.688 132.061 64.7653 132.109 64.838 132.155C65.0192 132.269 65.1713 132.364 65.2916 132.438C65.3763 132.49 65.4391 132.526 65.4818 132.55C65.4921 132.555 65.5002 132.56 65.5064 132.563C65.5094 132.564 65.5118 132.565 65.5135 132.566C65.5152 132.567 65.516 132.567 65.5159 132.567C65.5157 132.567 65.5143 132.567 65.5118 132.566C65.5092 132.565 65.5044 132.563 65.4976 132.561L65.4971 132.561ZM54.0321 134.106L53.6596 134.002L53.541 134.425L53.9755 134.489L54.0321 134.106Z" fill="#001A39"/>
<path fill-rule="evenodd" clip-rule="evenodd" d="M189.53 91.1218C190.01 90.386 190.495 89.5441 190.9 88.7881L191.603 89.1073C190.726 91.428 190.344 92.8547 190.28 93.6459C190.264 93.84 190.269 93.981 190.285 94.0793C190.292 94.1277 190.302 94.1613 190.31 94.1836C190.311 94.1868 190.313 94.1897 190.314 94.1923C190.332 94.1899 190.362 94.1836 190.406 94.1678C190.567 94.1092 190.798 93.9637 191.089 93.7214C191.374 93.4847 191.692 93.1766 192.026 92.8216C192.695 92.1118 193.41 91.2345 194.028 90.4141L194.646 90.8796C194.017 91.714 193.284 92.615 192.59 93.3519C192.243 93.7201 191.901 94.0524 191.584 94.3162C191.273 94.5744 190.96 94.7896 190.671 94.8948C190.524 94.9481 190.357 94.9834 190.186 94.9602C190.002 94.9352 189.838 94.8455 189.718 94.6934C189.606 94.5516 189.548 94.3771 189.52 94.2003C189.492 94.0214 189.49 93.8146 189.508 93.5833C189.539 93.2052 189.629 92.7224 189.787 92.1209C189.425 92.6339 189.064 93.0778 188.742 93.3591C188.63 93.4571 188.512 93.5444 188.391 93.6086C188.273 93.6715 188.129 93.7245 187.97 93.7231C187.798 93.7216 187.638 93.6556 187.513 93.5301C187.398 93.4144 187.33 93.266 187.288 93.1189C187.204 92.8287 187.188 92.4271 187.223 91.9219C187.259 91.4075 187.351 90.7503 187.507 89.9298L188.268 90.0745C188.115 90.8787 188.028 91.5031 187.995 91.9758C187.962 92.4576 187.986 92.7485 188.031 92.9046C188.033 92.9105 188.035 92.9159 188.036 92.9211C188.087 92.8931 188.152 92.8468 188.233 92.7764C188.583 92.4703 189.043 91.8677 189.53 91.1218Z" fill="#001A39"/>
<path fill-rule="evenodd" clip-rule="evenodd" d="M189.437 82.4264C189.264 84.0133 188.968 85.8453 188.655 87.4954L187.894 87.3513C188.205 85.7134 188.498 83.9027 188.667 82.3427C188.752 81.5623 188.806 80.8501 188.817 80.2564C188.827 79.653 188.792 79.2055 188.718 78.9359C188.704 78.8867 188.69 78.8481 188.677 78.8185C188.642 78.8433 188.592 78.8839 188.528 78.9496C188.405 79.0748 188.254 79.264 188.075 79.5326C187.354 80.6147 186.286 82.7977 184.763 86.5376L184.046 86.246C185.568 82.5072 186.662 80.2578 187.431 79.1035C187.625 78.8131 187.806 78.5805 187.975 78.4078C188.138 78.2415 188.322 78.0987 188.526 78.0396C188.765 77.9706 189 78.0263 189.178 78.1965C189.328 78.3405 189.411 78.5416 189.463 78.7291C189.57 79.1124 189.601 79.6541 189.59 80.2701C189.579 80.8958 189.523 81.6332 189.437 82.4264Z" fill="#001A39"/>
<path fill-rule="evenodd" clip-rule="evenodd" d="M202.677 40.6034C203.787 39.2679 205.218 38.0807 206.577 37.1787L206.863 37.6084C205.534 38.4901 204.145 39.6454 203.074 40.9331C202 42.2246 201.269 43.6235 201.209 44.9964C201.149 46.3498 201.74 47.7288 203.421 49.0046C205.113 50.2882 207.898 51.4572 212.191 52.3564L213.484 52.6275L212.183 52.8626C208.382 53.5496 203.134 55.0717 200.319 58.8364C197.533 62.5626 197.057 68.6038 203.071 78.5216L202.63 78.789C196.571 68.798 196.933 62.5037 199.906 58.5277C202.551 54.9908 207.203 53.383 210.883 52.5935C207.221 51.7261 204.718 50.6365 203.109 49.4154C201.319 48.0573 200.625 46.5269 200.693 44.9737C200.761 43.44 201.57 41.9351 202.677 40.6034Z" fill="white"/>
<path fill-rule="evenodd" clip-rule="evenodd" d="M187.719 45.3107C186.079 41.301 183.661 37.2752 181.23 33.9348L181.647 33.6313C184.096 36.996 186.537 41.0581 188.197 45.1154C189.854 49.1656 190.749 53.2463 190.059 56.6317C189.713 58.33 188.968 59.8546 187.722 61.106C186.476 62.3565 184.743 63.3214 182.441 63.9224C177.844 65.1222 170.944 64.8805 160.998 62.5305L161.117 62.0285C171.035 64.372 177.836 64.5912 182.31 63.4234C184.543 62.8405 186.188 61.9144 187.356 60.7421C188.523 59.5708 189.225 58.141 189.554 56.5287C190.213 53.2928 189.363 49.3276 187.719 45.3107Z" fill="white"/>
<path fill-rule="evenodd" clip-rule="evenodd" d="M56.7074 136.632C56.8528 137.281 56.9405 137.8 56.979 138.207C57.0179 138.618 57.0112 138.957 56.9366 139.208C56.8983 139.337 56.8338 139.472 56.7212 139.577C56.6001 139.689 56.4504 139.742 56.2978 139.742C56.0333 139.742 55.7911 139.585 55.6129 139.442C55.4163 139.285 55.2104 139.071 55.0075 138.832C54.6676 138.433 54.3105 137.935 53.9864 137.439L53.0075 137.928L52.6614 137.236L53.9513 136.591L54.4518 136.731C54.8121 137.303 55.2225 137.891 55.5969 138.331C55.785 138.552 55.9549 138.725 56.0973 138.839C56.1428 138.875 56.1802 138.902 56.21 138.92C56.2309 138.8 56.2384 138.596 56.2085 138.279C56.1366 137.52 55.8672 136.268 55.3009 134.339L56.0145 134.049C56.322 134.632 56.6846 135.257 57.0342 135.767C57.2091 136.022 57.3767 136.242 57.5287 136.411C57.6416 136.537 57.7339 136.621 57.8035 136.672C57.8147 136.625 57.8265 136.558 57.8347 136.465C57.8796 135.955 57.7945 134.998 57.4852 133.401L58.245 133.254C58.5548 134.854 58.661 135.904 58.6057 136.533C58.5796 136.829 58.5111 137.131 58.3147 137.323C58.2023 137.433 58.0593 137.495 57.9032 137.5C57.7584 137.505 57.6287 137.461 57.5251 137.408C57.3232 137.305 57.1284 137.124 56.9524 136.927C56.8717 136.837 56.7898 136.738 56.7074 136.632Z" fill="#001A39"/>
<path fill-rule="evenodd" clip-rule="evenodd" d="M141.515 241.17C144.168 241.536 147.254 242.284 150.045 243.112L149.913 243.554C147.134 242.73 144.073 241.988 141.452 241.627C140.141 241.446 138.948 241.361 137.958 241.406C136.961 241.451 136.206 241.627 135.742 241.939C135.515 242.091 135.364 242.273 135.281 242.485C135.199 242.699 135.179 242.962 135.249 243.292C135.391 243.959 135.897 244.856 136.898 246.025C138.896 248.357 142.783 251.676 149.304 256.285L149.116 256.697C146.852 256.162 144.398 255.791 142.361 255.826C141.342 255.844 140.44 255.963 139.721 256.208C139.002 256.452 138.489 256.814 138.211 257.302C137.935 257.786 137.867 258.436 138.127 259.312C138.388 260.191 138.973 261.278 139.976 262.606C141.982 265.263 145.619 268.839 151.512 273.584L151.222 273.942C145.319 269.19 141.646 265.586 139.606 262.884C138.587 261.533 137.966 260.395 137.683 259.443C137.4 258.487 137.453 257.698 137.808 257.074C138.162 256.453 138.791 256.037 139.572 255.771C140.353 255.506 141.308 255.383 142.353 255.365C144.108 255.335 146.148 255.597 148.109 256.002C142.136 251.728 138.486 248.587 136.547 246.325C135.531 245.139 134.964 244.17 134.797 243.387C134.712 242.991 134.728 242.633 134.85 242.319C134.972 242.004 135.192 241.752 135.483 241.557C136.055 241.172 136.917 240.992 137.937 240.945C138.966 240.899 140.19 240.987 141.515 241.17Z" fill="white"/>
</svg>
