<svg width="689" height="540" viewBox="0 0 689 540" fill="none" xmlns="http://www.w3.org/2000/svg">
<path d="M638.347 47.712C604.288 40.8795 571.132 62.9574 564.304 97.0266C557.477 131.091 579.559 164.237 613.624 171.065C631.25 174.599 648.63 170.392 662.246 160.787C666.723 157.636 670.792 153.9 674.326 149.664C680.825 141.875 685.532 132.401 687.667 121.755C694.494 87.6908 672.411 54.5396 638.347 47.712ZM657.24 115.654C656.16 121.048 653.774 125.849 650.481 129.795C648.689 131.945 646.628 133.84 644.36 135.435C637.459 140.304 628.653 142.434 619.72 140.643C602.457 137.182 591.271 120.386 594.731 103.123C598.192 85.86 614.988 74.6738 632.251 78.1342C649.514 81.5946 660.7 98.3912 657.24 115.654Z" fill="#BACADF"/>
<path d="M578.676 149.979C585.101 143.966 592.876 141.963 601.52 142.14C611.376 142.341 620.338 146.121 629.625 148.982C643.948 153.4 663.208 153.856 672.161 139.425C675.641 133.815 676.942 126.541 674.331 120.322C671.744 114.157 665.937 110.584 659.871 108.444C652.837 105.965 645.298 105.086 638.406 102.181C630.754 98.9558 624.049 93.316 619.906 86.081C613.108 74.2027 613.457 54.7458 626.273 46.9512C626.896 46.5733 626.341 45.6211 625.703 45.9745C614.571 52.0903 612.146 65.5885 614.532 77.1969C617.437 91.3281 629.232 101.675 642.662 105.729C649.705 107.855 657.299 108.797 663.876 112.243C671.023 115.988 675.033 123.11 673.374 131.189C671.646 139.588 665.265 145.792 657.22 148.344C648.424 151.137 639.211 149.861 630.538 147.318C620.52 144.383 610.973 140.496 600.366 140.618C591.786 140.721 584.198 143.195 578.008 149.296C577.567 149.743 578.229 150.396 578.676 149.979Z" fill="white"/>
<path d="M645.131 49.0472C641.371 58.0787 643.717 67.3359 650.854 73.9426C654.815 77.6092 659.998 79.5726 665.083 81.1187C671.253 82.9937 677.767 85.3105 684.177 86.1056C684.781 86.1793 685.036 85.1926 684.491 84.9472C674.625 80.5198 662.678 80.4954 653.706 74.0163C650.456 71.6701 647.619 68.3127 645.921 64.6756C643.604 59.7083 643.909 54.2943 645.646 49.1945C645.759 48.8558 645.258 48.738 645.131 49.0472Z" fill="white"/>
<path d="M594.172 163.854C608.092 158.445 625.846 161.327 637.199 171.006C637.66 171.399 638.455 170.893 638.087 170.319C634.008 163.933 624.933 161.651 617.987 160.36C609.692 158.818 601.534 159.55 593.823 163.025C593.362 163.241 593.691 164.041 594.172 163.854Z" fill="white"/>
<path d="M585.111 61.8531C586.505 74.2468 587.109 86.8222 584.012 99.0244C582.49 105.023 580.237 110.834 577.169 116.214C574.2 121.421 570.322 125.716 566.7 130.428C566.331 130.904 567.048 131.587 567.524 131.253C572.221 127.955 575.839 122.472 578.681 117.583C581.871 112.1 584.232 106.107 585.783 99.9619C588.949 87.4062 588.532 74.345 585.921 61.7452C585.832 61.2936 585.057 61.3819 585.111 61.8531Z" fill="white"/>
<path d="M589.906 206.209L616.839 256.427L673.472 262.715L634.033 303.842L645.558 359.651L594.255 334.849L544.739 363.052L552.47 306.596L510.346 268.222L566.429 258.13L589.906 206.209Z" fill="#FBC73B"/>
<path d="M577.189 234.276C579.334 235.586 582.245 235.939 584.66 236.578C587.467 237.324 590.285 238.04 593.102 238.752C598.428 240.092 603.837 241.839 609.324 242.281C609.83 242.32 609.82 241.638 609.432 241.476C604.259 239.302 598.516 238.354 593.063 237.068C590.388 236.435 587.713 235.817 585.033 235.218C582.559 234.663 579.854 233.637 577.312 233.814C577.071 233.829 576.968 234.143 577.189 234.276Z" fill="#001A39"/>
<path d="M541.318 268.831C543.134 269.744 545.215 270.117 547.179 270.598C550.035 271.295 552.892 271.982 555.744 272.684C563.293 274.549 570.871 276.301 578.43 278.127C594.564 282.024 610.733 285.828 626.911 289.549C632.732 290.889 638.544 292.263 644.439 293.274C644.949 293.363 645.165 292.646 644.655 292.484C632.369 288.567 619.568 286.074 607.017 283.158C590.873 279.408 574.725 275.712 558.571 272.001C555.165 271.221 551.753 270.45 548.352 269.665C546.104 269.145 543.762 268.394 541.446 268.369C541.21 268.364 541.097 268.718 541.318 268.831Z" fill="#001A39"/>
<path d="M551.213 311.293C554.306 312.932 558.277 313.389 561.659 314.243C565.305 315.166 568.952 316.074 572.599 316.997C580.045 318.891 587.511 320.717 594.972 322.563C609.844 326.234 624.761 330.593 639.884 333.101C640.394 333.185 640.61 332.478 640.1 332.311C625.532 327.574 610.286 324.58 595.404 320.992C588.09 319.23 580.777 317.458 573.453 315.735C569.63 314.837 565.811 313.929 561.992 313.031C558.605 312.235 554.836 310.797 551.341 310.827C551.101 310.832 550.992 311.175 551.213 311.293Z" fill="#001A39"/>
<path d="M596.366 218.892C592.258 233.843 588.586 248.927 584.836 263.986C578.916 287.782 572.85 311.553 567.22 335.418C565.963 340.744 564.564 346.982 563.352 351.895C563.141 352.744 564.456 353.108 564.667 352.259C568.246 337.725 572.334 322.033 575.991 307.111C581.827 283.29 587.668 259.47 593.431 235.63C594.761 230.137 595.973 224.63 597.171 219.118C597.289 218.588 596.508 218.367 596.366 218.892Z" fill="#001A39"/>
<path d="M626.911 257.438C622.847 271.133 619.853 285.195 616.397 299.061C614.669 306.002 612.917 312.933 611.16 319.863C609.417 326.765 607.316 333.685 606.055 340.69C605.903 341.548 607.081 341.892 607.371 341.053C609.658 334.323 611.14 327.231 612.883 320.339C614.635 313.409 616.348 306.463 618.056 299.518C621.463 285.642 625.222 271.731 627.721 257.659C627.809 257.139 627.063 256.913 626.911 257.438Z" fill="#001A39"/>
<path d="M450.037 469.898L437.952 495.388L482.447 540L407.108 510.741L429.883 461.731" fill="#FBC73B"/>
<path fill-rule="evenodd" clip-rule="evenodd" d="M451.207 500.965L434.842 505.171L434.476 503.745L450.84 499.539L451.207 500.965Z" fill="white"/>
<path fill-rule="evenodd" clip-rule="evenodd" d="M457.209 506.463L440.84 510.664L440.474 509.238L456.843 505.036L457.209 506.463Z" fill="white"/>
<path fill-rule="evenodd" clip-rule="evenodd" d="M463.207 511.959L446.838 516.161L446.472 514.735L462.841 510.533L463.207 511.959Z" fill="white"/>
<path d="M285.326 445.238L298.033 470.492L254.638 515.934L329.246 485.262L305.278 436.693" fill="#FBC73B"/>
<path fill-rule="evenodd" clip-rule="evenodd" d="M285.255 474.89L301.722 478.783L301.384 480.216L284.916 476.323L285.255 474.89Z" fill="white"/>
<path fill-rule="evenodd" clip-rule="evenodd" d="M279.389 480.5L295.857 484.393L295.518 485.826L279.05 481.934L279.389 480.5Z" fill="white"/>
<path fill-rule="evenodd" clip-rule="evenodd" d="M273.528 486.106L289.991 489.998L289.652 491.431L273.189 487.539L273.528 486.106Z" fill="white"/>
<path d="M280.152 458.697L232.599 375.76C221.929 357.147 224.093 333.322 237.915 317.335L286.405 261.242C305.008 239.724 331.538 227.929 359.069 228.94C387.558 229.985 414.142 244.622 431.429 268.791L480.218 336.984C489.942 350.57 492.843 368.314 487.998 384.536L456.388 490.352L401.395 465.014L426.638 374.695L353.749 297.132L293.572 353.996L332.51 432.825L280.152 458.697Z" fill="#BACADF"/>
<path d="M371.547 316.177C380.063 311.185 391.612 307.293 401.081 311.882C408.816 315.632 413.749 323.275 418.594 330.038C428.587 343.988 441.256 357.25 459.245 359.165C468.92 360.195 480.386 358.021 487.94 351.522C488.651 350.909 487.743 349.858 486.973 350.266C482.545 352.602 478.354 354.929 473.44 356.146C468.581 357.349 463.501 357.614 458.533 356.995C448.923 355.793 440.451 351.08 433.402 344.587C426.899 338.594 421.887 331.422 416.635 324.369C412.233 318.454 407.167 312.397 400.045 309.767C390.38 306.198 379.474 310.434 371.154 315.519C370.737 315.77 371.12 316.427 371.547 316.177Z" fill="#001A39"/>
<path d="M439.769 280.94C434.581 291.085 430.968 304.407 438.375 314.503C441.708 319.048 446.778 321.718 451.966 323.623C458.504 326.023 465.734 328.06 472.738 327.839C473.367 327.82 473.514 326.902 472.891 326.73C462.21 323.805 448.53 323.108 440.746 314.111C432.735 304.853 436.132 291.458 441.016 281.661C441.423 280.841 440.191 280.11 439.769 280.94Z" fill="#001A39"/>
<path d="M412.149 425.752C417.99 430.67 419.821 438.691 419.629 446.029C419.408 454.658 415.526 462.138 411.899 469.771C411.604 470.389 412.434 471.194 412.929 470.566C422.491 458.432 426.722 435.706 412.694 425.05C412.291 424.741 411.761 425.428 412.149 425.752Z" fill="#001A39"/>
<path d="M258.04 420.706C268.539 419.563 279.063 420.407 288.948 424.289C298.667 428.108 307.139 434.666 314.148 442.333C314.673 442.907 315.449 442.077 314.987 441.493C301.528 424.451 279.357 415.734 257.888 419.563C257.25 419.68 257.387 420.78 258.04 420.706Z" fill="#001A39"/>
<path d="M303.133 373.782C296.88 379.672 291.854 388.694 295.663 397.332C297.43 401.338 300.983 403.968 304.905 405.677C309.637 407.738 315.257 409.289 320.46 408.951C321.181 408.907 321.417 407.812 320.637 407.63C312.975 405.834 302.22 405.009 297.832 397.337C293.253 389.327 298.107 380.33 303.953 374.607C304.493 374.076 303.678 373.266 303.133 373.782Z" fill="#001A39"/>
<path d="M318.658 237.25C325.427 240.646 332.569 243.375 339.765 245.722C346.72 247.989 353.999 249.796 361.366 249.535C370.511 249.211 384.608 245.628 386.016 234.604C386.115 233.838 384.966 233.627 384.622 234.226C383.371 236.425 382.453 238.619 380.627 240.455C378.943 242.148 376.911 243.444 374.742 244.421C369.667 246.703 363.737 247.562 358.215 247.381C344.653 246.944 331.553 241.024 318.992 236.459C318.531 236.292 318.222 237.029 318.658 237.25Z" fill="#001A39"/>
<path d="M266.448 284.444C272.672 287.615 279.519 289.642 286.346 291.026C292.703 292.317 299.471 293.387 305.97 292.837C311.433 292.376 316.803 290.417 320.17 285.882C323.685 281.145 322.561 276.61 321.216 271.344C320.347 267.952 320.327 264.516 324.146 263.024C327.489 261.718 331.651 261.959 335.111 262.587C342.238 263.888 348.649 267.432 354.981 270.769C360.753 273.813 366.692 276.816 373.181 277.955C379.091 278.996 385.167 278.598 390.974 277.15C397.816 275.442 404.305 272.335 410.176 268.462C415.128 265.198 419.305 261.306 420.856 255.396C421.146 254.297 419.531 253.87 419.168 254.93C417.258 260.565 412.959 264.094 408.089 267.191C402.739 270.593 396.938 273.312 390.787 274.902C384.411 276.551 377.711 276.934 371.276 275.364C364.896 273.808 359.109 270.588 353.336 267.559C347.736 264.619 341.934 261.757 335.656 260.604C331.116 259.769 324.519 259.205 320.754 262.548C316.793 266.062 319.09 271.285 320.087 275.565C321.579 282 317.505 287.472 311.482 289.583C304.399 292.067 295.844 290.79 288.624 289.583C281.119 288.326 273.972 286.074 266.767 283.693C266.325 283.556 266.035 284.233 266.448 284.444Z" fill="#001A39"/>
<path d="M422.074 392.076C431.017 387.187 439.768 381.842 450.061 380.354C455.127 379.623 460.467 380.153 464.733 383.196C469.283 386.441 470.843 391.614 469.449 396.959C468.095 402.157 464.919 406.84 462.293 411.464C459.588 416.225 456.879 420.981 454.17 425.737C449.742 433.517 445.055 442.274 446.1 451.541C447.106 460.44 453.968 468.465 461.733 472.51C462.435 472.878 462.961 471.92 462.342 471.469C454.278 465.544 447.097 457.598 447.911 446.907C448.736 436.079 455.883 426.135 461.081 416.956C463.78 412.19 466.75 407.488 469.081 402.526C470.986 398.471 472.409 393.867 471.158 389.405C468.875 381.243 459.765 377.954 452.064 378.548C446.522 378.975 441.094 380.796 436.004 382.946C430.879 385.11 425.77 387.751 421.607 391.487C421.283 391.776 421.705 392.277 422.074 392.076Z" fill="#001A39"/>
<path d="M241.985 394.913C248.822 397.863 259.444 399.728 264.524 392.64C267.665 388.261 266.777 382.686 264.912 377.983C262.624 372.211 259.184 366.959 256.734 361.251C251.924 350.045 249.509 335.668 257.701 325.336C263.788 317.659 274.262 314.93 283.681 315.583C296.561 316.476 307.556 324.055 317.083 332.163C317.697 332.684 318.516 331.884 317.972 331.275C304.979 316.825 281.949 306.934 263.616 317.546C254.599 322.764 250.118 332.492 250.245 342.726C250.319 348.818 251.895 354.772 254.172 360.392C256.469 366.066 259.665 371.259 262.207 376.805C265.049 382.995 266.448 391.756 258.663 394.868C253.554 396.91 247.428 395.624 242.49 393.705C241.803 393.445 241.302 394.618 241.985 394.913Z" fill="#001A39"/>
<path d="M392.397 137.781C398.116 167.492 378.664 196.211 348.953 201.929C319.242 207.647 290.523 188.195 284.805 158.485" fill="white"/>
<path d="M61.2964 165.126C25.2098 162.623 -2.01704 131.341 0.481339 95.2549C2.98462 59.1683 34.2658 31.9415 70.3523 34.4398" fill="#F96155"/>
<path d="M304.973 103.957C305.086 118.093 316.636 129.456 330.772 129.338C343.269 129.235 353.596 120.199 355.746 108.34C356.026 106.784 356.168 105.184 356.153 103.545C356.04 89.4135 344.491 78.0457 330.355 78.1635C323.002 78.2224 316.4 81.3736 311.772 86.3802C307.506 90.9941 304.919 97.1836 304.973 103.957Z" fill="#FBC73B"/>
<path d="M311.772 86.3752C318.747 99.8734 332.888 109.047 349.12 108.919C351.373 108.9 353.587 108.704 355.741 108.34C356.021 106.784 356.164 105.184 356.149 103.545C356.036 89.4135 344.487 78.0457 330.35 78.1635C323.002 78.2175 316.401 81.3736 311.772 86.3752Z" fill="#0768C1"/>
<path d="M341.075 79.6854C346.462 79.6854 350.828 75.3189 350.828 69.9325C350.828 64.5461 346.462 60.1794 341.075 60.1794C335.689 60.1794 331.322 64.5461 331.322 69.9325C331.322 75.3189 335.689 79.6854 341.075 79.6854Z" fill="#0768C1"/>
<path d="M328.235 62.501C343.564 62.501 355.992 50.0739 355.992 34.7441C355.992 19.4143 343.564 6.98706 328.235 6.98706C312.905 6.98706 300.478 19.4143 300.478 34.7441C300.478 50.0739 312.905 62.501 328.235 62.501Z" fill="#0768C1"/>
<path d="M319.226 112.483C319.328 110.279 318.269 108.439 316.861 108.374C315.453 108.308 314.229 110.042 314.126 112.246C314.024 114.45 315.082 116.29 316.49 116.356C317.899 116.421 319.123 114.687 319.226 112.483Z" fill="#001A39"/>
<path d="M327.681 113.156C327.783 110.952 326.725 109.112 325.317 109.046C323.909 108.981 322.684 110.715 322.582 112.919C322.479 115.123 323.538 116.963 324.946 117.029C326.354 117.094 327.579 115.36 327.681 113.156Z" fill="#001A39"/>
<path fill-rule="evenodd" clip-rule="evenodd" d="M315.931 122.552C315.93 122.552 315.93 122.552 315.743 121.588C315.556 120.625 315.556 120.625 315.556 120.625L315.555 120.625L315.554 120.625L315.553 120.625C315.553 120.625 315.553 120.625 315.555 120.625C315.558 120.624 315.565 120.623 315.576 120.62C315.597 120.616 315.632 120.607 315.679 120.595C315.774 120.571 315.914 120.531 316.085 120.471C316.43 120.351 316.882 120.159 317.324 119.868C318.193 119.298 318.978 118.396 318.953 116.882L320.917 116.85C320.956 119.234 319.645 120.693 318.402 121.509C317.788 121.912 317.18 122.169 316.729 122.326C316.502 122.405 316.311 122.46 316.173 122.496C316.103 122.513 316.047 122.527 316.006 122.536C315.985 122.541 315.969 122.544 315.956 122.547L315.94 122.55L315.934 122.551L315.932 122.552L315.931 122.552Z" fill="#001A39"/>
<path fill-rule="evenodd" clip-rule="evenodd" d="M142.193 51.0814L143.931 50.5684L199.71 119.229L265.633 150.145L264.799 151.923L198.673 120.912L198.328 120.642L143.891 53.6329L139.717 92.0778C139.753 92.1549 139.796 92.25 139.848 92.3621C140.009 92.7092 140.247 93.2206 140.555 93.8762C141.172 95.1875 142.071 97.0754 143.196 99.3793C145.448 103.988 148.606 110.258 152.235 116.906C155.865 123.556 159.958 130.571 164.08 136.676C168.215 142.801 172.329 147.934 175.989 150.883C179.672 153.85 186.545 157.64 194.874 161.677C203.177 165.701 212.841 169.932 222.042 173.786C231.243 177.639 239.972 181.113 246.402 183.623C249.616 184.878 252.256 185.893 254.091 186.593C255.009 186.943 255.725 187.215 256.212 187.399C256.456 187.491 256.642 187.561 256.767 187.608L256.953 187.678L256.955 187.678C256.956 187.679 256.956 187.679 256.612 188.598C256.267 189.517 256.267 189.517 256.266 189.517L256.264 189.516L256.076 189.445C255.95 189.398 255.763 189.328 255.518 189.235C255.03 189.05 254.311 188.778 253.391 188.427C251.552 187.725 248.908 186.709 245.688 185.452C239.248 182.938 230.503 179.458 221.284 175.597C212.067 171.736 202.366 167.49 194.018 163.444C185.698 159.411 178.635 155.536 174.757 152.412C170.857 149.27 166.609 143.931 162.453 137.775C158.284 131.599 154.157 124.525 150.511 117.846C146.865 111.165 143.692 104.868 141.432 100.241C140.302 97.9275 139.399 96.0308 138.779 94.7119C138.468 94.0525 138.229 93.5374 138.067 93.1868C137.985 93.0116 137.924 92.8774 137.882 92.7868L137.835 92.6841L137.819 92.6493C137.819 92.6489 137.819 92.6486 138.712 92.2412L137.819 92.6486L137.736 92.1352L142.193 51.0814Z" fill="white"/>
<path fill-rule="evenodd" clip-rule="evenodd" d="M205.25 239.064L259.874 190.919L261.173 192.392L206.38 240.686L205.995 240.895L121.723 264.435L131.522 284.134C131.597 284.132 131.679 284.13 131.766 284.127C132.334 284.112 133.17 284.088 134.241 284.055C136.382 283.988 139.46 283.882 143.208 283.726C150.705 283.416 160.877 282.908 171.585 282.119C182.295 281.33 193.527 280.261 203.145 278.828C212.814 277.388 220.703 275.6 224.835 273.434C229.024 271.239 235.239 266.446 242.261 260.415C249.26 254.405 256.991 247.227 264.193 240.323C271.393 233.42 278.058 226.798 282.923 221.901C285.355 219.453 287.337 217.436 288.711 216.032C289.398 215.33 289.932 214.781 290.295 214.407C290.477 214.221 290.615 214.078 290.708 213.982L290.846 213.839L290.848 213.837C290.848 213.837 290.848 213.837 291.554 214.519C292.26 215.201 292.26 215.201 292.26 215.202L292.118 215.348C292.024 215.445 291.885 215.588 291.703 215.776C291.339 216.15 290.803 216.701 290.114 217.405C288.738 218.812 286.752 220.832 284.316 223.285C279.444 228.189 272.767 234.823 265.552 241.74C258.338 248.656 250.578 255.861 243.54 261.905C236.526 267.929 230.157 272.862 225.747 275.173C221.28 277.515 213.072 279.335 203.435 280.77C193.747 282.213 182.461 283.287 171.729 284.078C160.994 284.868 150.799 285.377 143.289 285.688C139.534 285.844 136.449 285.95 134.302 286.017C133.229 286.051 132.39 286.074 131.82 286.09C131.534 286.098 131.316 286.103 131.169 286.107L130.946 286.113C130.945 286.113 130.945 286.113 130.922 285.131L130.945 286.113L130.043 285.568L119.436 264.246L120.051 262.864L205.25 239.064Z" fill="white"/>
<path fill-rule="evenodd" clip-rule="evenodd" d="M534.204 56.5769L479.455 105.577L479.049 105.795L407.607 124.531L407.109 122.632L478.322 103.956L533.728 54.3677L535.193 54.5452L552.152 79.3571L552.135 80.4892L551.341 79.911C552.135 80.4892 552.135 80.4895 552.134 80.4899L552.133 80.4918L552.026 80.6376C551.955 80.7349 551.849 80.8793 551.711 81.0679C551.433 81.4449 551.024 81.9987 550.498 82.7066C549.446 84.1222 547.924 86.1542 546.044 88.6213C542.285 93.555 537.092 100.232 531.358 107.201C525.627 114.168 519.346 121.438 513.412 127.555C507.503 133.647 501.859 138.677 497.408 141.08C492.992 143.463 485.266 146.017 476.254 148.503C467.213 150.997 456.787 153.446 446.909 155.602C437.03 157.758 427.691 159.623 420.822 160.95C417.387 161.613 414.57 162.141 412.611 162.504C411.631 162.685 410.866 162.825 410.346 162.92C410.085 162.967 409.886 163.003 409.752 163.027L409.552 163.063L409.55 163.064C409.549 163.064 409.549 163.064 409.376 162.097C409.203 161.131 409.203 161.131 409.204 161.131L409.206 161.13L409.404 161.095C409.537 161.071 409.735 161.035 409.994 160.988C410.513 160.894 411.276 160.754 412.253 160.573C414.208 160.211 417.021 159.684 420.45 159.022C427.308 157.698 436.631 155.836 446.491 153.684C456.352 151.531 466.74 149.091 475.732 146.61C484.754 144.122 492.279 141.617 496.475 139.352C500.636 137.106 506.098 132.274 512.003 126.188C517.884 120.125 524.127 112.9 529.842 105.953C535.556 99.0086 540.733 92.3522 544.483 87.4313C546.357 84.9712 547.874 82.9455 548.923 81.5353C549.447 80.8303 549.853 80.2791 550.129 79.9044C550.132 79.9 550.136 79.8955 550.139 79.8911L534.204 56.5769Z" fill="white"/>
<path d="M68.3057 2.11787C103.317 -6.97249 139.075 14.0404 148.165 49.052C157.256 84.0637 136.243 119.821 101.231 128.912" fill="#F96155"/>
<path d="M68.7672 47.9035C52.1719 51.3393 35.5571 54.7016 19.0354 58.5007C16.8708 59.0014 13.9356 59.8848 12.144 60.2775C11.3047 60.464 11.658 61.7501 12.4974 61.5636C18.3384 60.2776 25.485 59.021 31.7235 57.6368C41.879 55.379 52.01 53.0181 62.1409 50.6522C64.4527 50.1123 66.7647 49.5723 69.0765 49.0324C69.8177 48.8606 69.5035 47.7513 68.7672 47.9035Z" fill="white"/>
<path d="M4.43745 74.5463C15.1427 76.0139 26.103 76.22 36.877 76.8581C43.2628 77.236 49.6487 77.6828 56.0345 78.0558C59.6323 78.2669 63.2891 78.046 66.8723 78.2963C67.4711 78.3405 67.4662 77.4078 66.8723 77.3637C63.7456 77.1428 60.0103 76.4164 56.6873 76.171C50.2524 75.6948 43.8076 75.3168 37.3629 75.0076C26.4761 74.4873 15.4421 73.4959 4.53559 73.81C4.13801 73.8198 4.0006 74.4874 4.43745 74.5463Z" fill="white"/>
<path d="M64.6884 114.844C46.1788 113.229 27.6593 111.644 9.12025 110.407C6.49917 110.23 3.83889 110.343 1.22271 110.152C0.550263 110.103 0.555172 111.148 1.22271 111.197C7.96686 111.703 15.5846 112.636 22.6282 113.141C34.0108 113.956 45.3983 114.79 56.7907 115.497C59.4216 115.659 62.0575 115.826 64.6884 115.988C65.4344 116.042 65.4197 114.908 64.6884 114.844Z" fill="white"/>
<path d="M18.4754 145.404C23.6194 144.707 28.7046 143.406 33.7798 142.321C41.9818 140.574 50.2082 138.856 58.361 136.903C59.7108 136.579 61.0705 136.299 62.4105 135.945C62.8571 135.828 63.9468 135.44 63.9468 135.44C64.8991 135.229 64.4966 133.761 63.5443 133.977C63.7652 133.928 62.543 134.061 62.2828 134.105C61.1686 134.296 60.0593 134.586 58.9549 134.817C55.3865 135.567 51.8328 136.382 48.2792 137.197C40.1018 139.067 31.9244 140.932 23.7666 142.876C21.8916 143.323 20.0265 143.779 18.1858 144.363C17.5036 144.579 17.8029 145.497 18.4754 145.404Z" fill="white"/>
<path d="M103.935 2.38782C102.193 2.30928 100.338 3.05537 98.6687 3.50203C94.8597 4.52298 91.0656 5.58807 87.2665 6.65319C83.4723 7.71831 79.6731 8.79334 75.8985 9.937C74.6861 10.3051 73.4836 10.7125 72.2713 11.1002C71.9179 11.2131 71.5449 11.3014 71.2062 11.4438C71.0049 11.5272 70.2686 11.8365 70.9264 11.65C70.0576 11.9004 70.4306 13.2551 71.2994 13.0047C70.6171 13.2011 71.4172 13.0686 71.6381 13.0293C72.0013 12.9655 72.3645 12.8477 72.7228 12.7544C73.9499 12.4354 75.1868 12.1457 76.409 11.8119C80.213 10.7713 83.9974 9.667 87.7817 8.54788C91.5661 7.42877 95.3456 6.3146 99.1153 5.15131C100.764 4.64084 102.738 4.28742 104.171 3.29592C104.569 3.01614 104.431 2.41236 103.935 2.38782Z" fill="white"/>
<path d="M140.327 30.4393C126.568 33.782 112.776 36.987 99.0077 40.2757C92.5237 41.8267 86.0888 43.687 79.6146 45.2037C78.7802 45.4001 79.1335 46.6861 79.968 46.4898C85.9709 45.0811 93.1716 43.6772 99.5182 42.1311C113.272 38.7884 126.966 35.2298 140.636 31.5682C141.367 31.3767 141.058 30.2626 140.327 30.4393Z" fill="white"/>
<path d="M88.0273 80.2204C94.7763 81.4083 101.678 81.8942 108.481 82.6746C114.876 83.406 121.277 84.1226 127.672 84.8638C132.306 85.3988 136.93 85.924 141.568 86.3609C143.266 86.5179 145.397 86.4737 146.923 86.6651C147.517 86.7387 147.512 85.8062 146.923 85.7326C145.284 85.5264 143.158 84.9473 141.362 84.6773C136.93 84.0147 132.488 83.4699 128.026 82.9692C121.802 82.2673 115.578 81.6047 109.345 81.0107C102.316 80.3432 95.1936 79.4744 88.1255 79.4793C87.7181 79.4842 87.6002 80.1419 88.0273 80.2204Z" fill="white"/>
<path d="M120.776 119.674C117.041 119.178 113.31 118.732 109.565 118.329C107.028 118.059 104.495 117.75 101.952 117.554C100.868 117.47 99.1252 117.627 98.3545 117.549C97.6821 117.485 97.687 118.53 98.3545 118.594C99.0859 118.663 100.72 119.144 101.766 119.267C104.357 119.576 106.964 119.767 109.565 119.988C113.301 120.312 117.036 120.587 120.776 120.818C121.532 120.872 121.488 119.767 120.776 119.674Z" fill="white"/>
<path d="M149.284 81.6096C149.284 81.6096 133.465 56.1546 135.614 52.7531C137.764 49.3565 153.648 67.709 153.648 67.709" fill="#001125"/>
<path fill-rule="evenodd" clip-rule="evenodd" d="M136.431 53.3155C136.485 53.3147 136.585 53.3227 136.745 53.3668C137.221 53.4982 137.907 53.8584 138.779 54.4636C140.499 55.6567 142.637 57.5834 144.749 59.6577C146.852 61.7224 148.891 63.8961 150.407 65.5564C151.165 66.3859 151.79 67.0858 152.226 67.5779C152.444 67.8239 152.614 68.0178 152.73 68.15C152.788 68.2161 152.832 68.2668 152.861 68.3008L152.895 68.3391L152.905 68.3508L152.905 68.3513C152.905 68.3514 152.905 68.3514 153.648 67.709C154.39 67.0666 154.39 67.0664 154.39 67.0662L154.343 67.0121C154.312 66.9768 154.267 66.9248 154.208 66.8574C154.09 66.7224 153.917 66.5254 153.696 66.2762C153.255 65.7779 152.622 65.0705 151.857 64.2325C150.328 62.5579 148.262 60.3558 146.125 58.2569C143.997 56.1676 141.762 54.1431 139.898 52.8504C138.979 52.2127 138.072 51.6964 137.268 51.4743C136.862 51.3622 136.406 51.3033 135.958 51.4031C135.474 51.5107 135.062 51.7904 134.785 52.2281L134.784 52.2286C134.51 52.6623 134.434 53.1726 134.432 53.6319C134.429 54.1055 134.504 54.6318 134.626 55.1824C134.871 56.2847 135.337 57.6182 135.935 59.071C137.136 61.9846 138.932 65.5217 140.78 68.9253C142.631 72.3348 144.549 75.6347 146.002 78.0806C146.729 79.304 147.34 80.3148 147.77 81.0202C147.985 81.3729 148.155 81.6493 148.271 81.8377C148.329 81.932 148.374 82.0042 148.404 82.053L148.45 82.1274C148.45 82.1276 148.45 82.1278 149.284 81.6096C150.118 81.0914 150.118 81.0914 150.118 81.0912L150.073 81.0199C150.044 80.9722 150 80.9011 149.943 80.8081C149.828 80.622 149.66 80.3482 149.447 79.9982C149.02 79.2982 148.412 78.2938 147.69 77.0777C146.244 74.6445 144.341 71.368 142.506 67.9885C140.667 64.6032 138.911 61.1388 137.751 58.3229C137.169 56.911 136.752 55.6977 136.543 54.7569C136.438 54.2859 136.393 53.9166 136.395 53.6436C136.396 53.466 136.417 53.3648 136.431 53.3155Z" fill="white"/>
<path d="M495.876 18.8624L482.582 39.4924L603.494 117.411L616.788 96.7809L495.876 18.8624Z" fill="#617FA8"/>
<path d="M538.246 41.2673C538.246 41.2673 522.161 67.5126 526.014 69.8637C529.867 72.2148 547.371 48.3208 547.371 48.3208C547.371 48.3208 527.236 72.4946 531.345 76.7502C535.453 81.0058 555.445 51.9824 555.445 51.9824C555.445 51.9824 538.707 76.8828 542.212 80.0143C545.716 83.1459 562.906 58.5401 562.906 58.5401" fill="#001125"/>
<path fill-rule="evenodd" clip-rule="evenodd" d="M537.408 40.7547C537.409 40.7544 537.409 40.7542 538.246 41.2672C539.083 41.7802 539.083 41.7802 539.083 41.7803L539.038 41.8535C539.008 41.9026 538.964 41.9757 538.906 42.0714C538.79 42.2627 538.62 42.5442 538.404 42.9037C537.974 43.6226 537.363 44.653 536.642 45.8971C535.199 48.3866 533.317 51.7257 531.557 55.1341C529.793 58.5515 528.17 62.002 527.227 64.7246C526.753 66.0942 526.474 67.2177 526.412 68.0336C526.382 68.4414 526.41 68.714 526.459 68.8798C526.482 68.9579 526.505 68.9976 526.516 69.0138C526.521 69.0217 526.525 69.0248 526.525 69.0253C526.53 69.0282 526.783 69.1472 527.595 68.7368C528.333 68.3636 529.261 67.6862 530.33 66.7505C532.458 64.8889 534.97 62.1662 537.391 59.3357C538.23 58.3546 539.055 57.3643 539.846 56.3975C541.172 54.5924 542.442 52.9333 543.515 51.5597C544.431 50.3881 545.205 49.4226 545.751 48.7495C546.024 48.4129 546.239 48.1494 546.387 47.9696C546.461 47.8797 546.518 47.8108 546.557 47.7641L546.601 47.711L546.616 47.6928C546.616 47.6925 546.616 47.6924 547.371 48.3206C548.163 48.9007 548.162 48.9009 548.162 48.9011L548.111 48.9712C548.077 49.017 548.027 49.0846 547.962 49.1725C547.832 49.3484 547.641 49.6054 547.397 49.9314C546.908 50.5833 546.206 51.5113 545.353 52.6173C544.247 54.0491 542.885 55.7815 541.398 57.6006C540.484 58.8463 539.544 60.1603 538.626 61.4956C536.375 64.7702 534.282 68.1349 533.008 70.9208C532.369 72.3191 531.962 73.5151 531.825 74.4497C531.683 75.4154 531.857 75.8676 532.051 76.0682C532.139 76.1597 532.377 76.3326 533.186 75.9997C533.977 75.6747 534.998 74.974 536.201 73.9332C538.587 71.8678 541.428 68.6925 544.176 65.3397C546.916 61.9971 549.532 58.518 551.464 55.8717C552.43 54.5493 553.224 53.4365 553.776 52.6547C554.052 52.2638 554.268 51.9558 554.414 51.7459C554.487 51.6409 554.543 51.5604 554.58 51.5064L554.623 51.4454L554.636 51.4256C554.636 51.4254 554.636 51.4254 555.445 51.9823C556.26 52.5299 556.259 52.53 556.259 52.5301L556.213 52.5994C556.182 52.6459 556.136 52.7153 556.075 52.8061C555.954 52.9878 555.777 53.2552 555.553 53.5969C555.105 54.2805 554.467 55.2613 553.713 56.4484C552.204 58.8237 550.23 62.0189 548.368 65.3076C546.501 68.6047 544.766 71.9612 543.716 74.6681C543.189 76.0278 542.856 77.1698 542.748 78.0321C542.631 78.9697 542.82 79.241 542.866 79.2822C542.866 79.2824 542.866 79.2827 542.867 79.283C542.872 79.2883 542.893 79.3104 542.996 79.3077C543.132 79.3043 543.359 79.2553 543.694 79.0998C544.368 78.7876 545.242 78.1594 546.272 77.2455C548.317 75.4322 550.754 72.699 553.115 69.828C555.467 66.966 557.715 64.003 559.375 61.7528C560.205 60.6283 560.887 59.6834 561.362 59.02C561.599 58.6883 561.784 58.4271 561.91 58.2492C561.973 58.1602 562.021 58.092 562.053 58.0462L562.089 57.9946L562.1 57.9786L562.101 57.9779C562.101 57.9778 562.101 57.9778 562.906 58.5399C563.71 59.1021 563.71 59.1023 563.71 59.1025L563.709 59.1035L563.66 59.1746C563.626 59.2218 563.577 59.2914 563.514 59.3819C563.386 59.5628 563.198 59.8272 562.959 60.1622C562.479 60.8322 561.791 61.7852 560.955 62.9186C559.283 65.1841 557.014 68.1768 554.631 71.0748C552.256 73.9638 549.739 76.7949 547.575 78.7144C546.501 79.667 545.457 80.4473 544.52 80.8813C543.637 81.2904 542.463 81.5549 541.558 80.7462C540.728 80.0045 540.672 78.8126 540.8 77.7891C540.937 76.6903 541.337 75.3732 541.886 73.9581C542.636 72.0241 543.705 69.8063 544.904 67.5407C542.379 70.5684 539.765 73.4448 537.486 75.4176C536.236 76.4993 535.022 77.3679 533.933 77.8156C532.863 78.2553 531.577 78.4042 530.638 77.4319C529.805 76.5686 529.71 75.3344 529.882 74.1636C530.059 72.9616 530.552 71.5709 531.223 70.1044C531.633 69.2059 532.121 68.2578 532.665 67.2801C532.311 67.6139 531.963 67.9309 531.623 68.2282C530.51 69.202 529.437 70.0055 528.481 70.489C527.598 70.9353 526.461 71.2863 525.503 70.7015C524.498 70.0883 524.381 68.8628 524.454 67.886C524.535 66.8165 524.88 65.5038 525.372 64.0824C526.362 61.2227 528.038 57.6711 529.813 54.2333C531.592 50.7865 533.491 47.4174 534.943 44.9124C535.67 43.6592 536.286 42.6209 536.72 41.8953C536.937 41.5325 537.109 41.2479 537.227 41.0536C537.285 40.9565 537.331 40.882 537.361 40.8316L537.408 40.7547ZM555.445 51.9823L556.259 52.5301L554.636 51.4256L555.445 51.9823ZM547.371 48.3206L548.162 48.9011L546.616 47.6924L547.371 48.3206Z" fill="white"/>
<path d="M168.845 299.542L37.2455 215.049L25.9219 369.742L168.845 299.542Z" fill="#617FA8"/>
<path d="M30.0639 311.975C36.0964 313.939 42.3889 314.95 48.603 316.153C55.1262 317.419 61.6249 318.779 68.0991 320.276C74.4211 321.738 80.6989 323.353 86.9572 325.061C90.1623 325.935 93.3528 326.863 96.5335 327.83C99.8319 328.831 103.155 330.181 106.576 330.662C107.234 330.755 107.769 329.862 107.067 329.493C104.225 327.991 101 327.226 97.9373 326.308C94.9039 325.4 91.8656 324.531 88.8224 323.667C82.2795 321.807 75.6875 320.123 69.0661 318.572C62.5968 317.056 56.0932 315.676 49.5601 314.484C43.1497 313.31 36.6755 312.51 30.3044 311.116C29.74 310.989 29.5142 311.794 30.0639 311.975Z" fill="white"/>
<path d="M141.46 312.957C132.831 300.136 118.818 290.565 105.339 283.448C91.4584 276.119 76.3799 271.088 60.9773 268.138C56.8199 267.343 52.6428 266.666 48.4412 266.145C43.4788 265.532 38.2563 264.899 33.3037 265.88C32.5674 266.028 32.7834 267.098 33.4755 267.137C37.6918 267.373 41.9032 267.319 46.1146 267.746C50.2524 268.168 54.3754 268.781 58.4691 269.518C65.758 270.828 72.9735 272.644 80.0268 274.902C94.3888 279.501 108.118 286.137 120.398 294.919C127.805 300.215 135.104 306.164 140.69 313.408C141.028 313.85 141.789 313.448 141.46 312.957Z" fill="white"/>
<path d="M102.149 256.609C92.0918 266.72 81.9952 276.527 73.97 288.41C66.0871 300.082 60.5111 313.252 59.3135 327.383C58.6508 335.197 58.533 344.798 62.2782 351.935C62.6316 352.607 63.5888 352.121 63.4464 351.444C62.4451 346.575 61.218 341.912 60.9677 336.915C60.7271 332.154 60.9775 327.383 61.7285 322.671C63.1274 313.89 66.2147 305.506 70.4801 297.721C78.9274 282.304 91.439 270.416 102.782 257.237C103.15 256.81 102.561 256.196 102.149 256.609Z" fill="white"/>
<path d="M34.8401 251.317C39.9301 248.093 44.7403 244.451 49.8107 241.196C52.2944 239.601 54.8172 238.075 57.3696 236.592C59.7845 235.193 62.71 234.153 64.7518 232.239C65.2476 231.777 64.7224 231.051 64.1285 231.168C61.3994 231.728 58.8422 233.652 56.442 235.007C53.7472 236.533 51.0967 238.138 48.4855 239.807C43.4887 243.013 38.5262 246.419 34.2952 250.616C33.9467 250.969 34.4032 251.592 34.8401 251.317Z" fill="white"/>
<path d="M135.462 274.034C135.462 274.034 105.668 270.75 104.328 266.96C102.988 263.171 127.231 262.018 127.231 262.018" fill="#001125"/>
<path fill-rule="evenodd" clip-rule="evenodd" d="M105.275 266.666C105.308 266.623 105.376 266.549 105.51 266.45C105.908 266.157 106.615 265.84 107.63 265.528C109.631 264.913 112.467 264.421 115.403 264.042C118.325 263.664 121.294 263.403 123.537 263.236C124.657 263.153 125.593 263.094 126.25 263.055C126.578 263.035 126.835 263.021 127.011 263.012C127.098 263.007 127.165 263.004 127.21 263.002L127.277 262.998C127.277 262.998 127.277 262.998 127.231 262.018C127.184 261.037 127.184 261.037 127.184 261.037L127.165 261.038L127.112 261.041C127.065 261.043 126.997 261.047 126.907 261.051C126.728 261.061 126.466 261.075 126.134 261.095C125.47 261.134 124.523 261.194 123.391 261.278C121.13 261.446 118.122 261.711 115.151 262.095C112.194 262.477 109.221 262.985 107.053 263.651C105.983 263.98 105.017 264.375 104.345 264.87C104.006 265.12 103.678 265.442 103.48 265.856C103.265 266.302 103.23 266.799 103.403 267.288C103.574 267.772 103.928 268.147 104.287 268.433C104.658 268.727 105.118 268.994 105.626 269.238C106.644 269.726 107.98 270.183 109.492 270.609C112.524 271.464 116.415 272.237 120.233 272.886C124.058 273.536 127.838 274.067 130.659 274.435C132.07 274.619 133.243 274.762 134.063 274.86C134.474 274.909 134.796 274.946 135.016 274.971C135.126 274.984 135.21 274.993 135.267 275L135.354 275.009C135.354 275.009 135.355 275.009 135.462 274.034C135.57 273.058 135.57 273.058 135.569 273.058L135.486 273.049C135.43 273.042 135.347 273.033 135.239 273.021C135.022 272.996 134.702 272.959 134.295 272.91C133.481 272.814 132.316 272.671 130.913 272.488C128.106 272.122 124.353 271.595 120.562 270.95C116.765 270.305 112.955 269.546 110.025 268.72C108.555 268.305 107.344 267.884 106.475 267.467C106.041 267.259 105.723 267.066 105.51 266.896C105.371 266.786 105.305 266.708 105.275 266.666Z" fill="white"/>
<path d="M134.181 118.599C134.402 118.599 134.402 118.256 134.181 118.256C133.96 118.256 133.96 118.599 134.181 118.599Z" fill="white"/>
<path d="M471.32 232.592L409.719 179.336L380.514 209.768C429.844 259.588 513.532 282.658 556.971 296.892C591.723 308.279 580.777 298.037 570.96 291.493C566.444 286.977 569.079 279.467 570.96 276.277C590.986 228.96 575.378 252.307 565.07 269.896C579.992 217.081 564.252 244.127 554.517 264.251C566.69 219.879 552.963 247.317 544.209 264.251L471.32 232.592Z" fill="#001125"/>
<path fill-rule="evenodd" clip-rule="evenodd" d="M409.077 180.078L410.361 178.593L471.848 231.751L543.758 262.985C543.958 262.598 544.16 262.206 544.364 261.81C546.287 258.082 548.387 254.013 550.363 250.396C552.678 246.158 554.885 242.426 556.472 240.614C556.868 240.162 557.285 239.759 557.707 239.509C558.109 239.272 558.822 239.013 559.485 239.489C560.025 239.876 560.189 240.544 560.256 241.049C560.332 241.622 560.325 242.353 560.251 243.233C560.046 245.655 559.29 249.597 557.84 255.457C559.07 253.108 560.315 250.821 561.52 248.726C562.833 246.444 564.105 244.379 565.261 242.709C566.403 241.061 567.483 239.722 568.42 238.96C568.872 238.592 569.424 238.245 570.028 238.189C570.357 238.159 570.702 238.215 571.02 238.397C571.331 238.575 571.552 238.834 571.708 239.108C572.004 239.627 572.131 240.316 572.175 241.073C572.22 241.856 572.182 242.831 572.061 244.003C571.671 247.796 570.387 253.972 567.921 263.228C569.415 260.794 570.92 258.413 572.337 256.276C573.643 254.305 574.879 252.533 575.964 251.113C577.03 249.717 578.004 248.59 578.782 247.976C578.983 247.817 579.197 247.672 579.418 247.564C579.631 247.46 579.918 247.358 580.244 247.369C580.611 247.382 580.958 247.538 581.211 247.831C581.436 248.091 581.533 248.397 581.58 248.647C581.671 249.138 581.626 249.758 581.512 250.447C581.395 251.161 581.185 252.046 580.882 253.113C579.672 257.367 576.871 264.83 571.864 276.659L571.839 276.719L571.805 276.775C570.919 278.279 569.846 280.824 569.536 283.501C569.23 286.142 569.675 288.77 571.588 290.732C574.037 292.368 576.571 294.244 578.465 295.974C579.419 296.846 580.243 297.71 580.812 298.512C581.096 298.913 581.336 299.327 581.491 299.741C581.645 300.152 581.736 300.623 581.642 301.104C581.429 302.202 580.447 302.696 579.431 302.879C578.39 303.067 576.942 303.018 575.057 302.744C571.263 302.193 565.365 300.676 556.665 297.825C552.511 296.463 547.984 295.02 543.151 293.479C522.753 286.975 496.897 278.731 470.568 267.578C438.001 253.783 404.612 235.501 379.816 210.458L381.212 209.077C405.746 233.855 438.865 252.017 471.334 265.771C497.571 276.884 523.318 285.094 543.714 291.597C548.558 293.142 553.101 294.591 557.277 295.959C565.952 298.802 571.719 300.275 575.339 300.801C577.162 301.066 578.358 301.078 579.083 300.947C579.442 300.883 579.617 300.794 579.689 300.743C579.702 300.733 579.711 300.726 579.716 300.721C579.718 300.693 579.717 300.604 579.652 300.428C579.576 300.226 579.435 299.965 579.21 299.647C578.758 299.01 578.05 298.254 577.14 297.423C575.328 295.768 572.849 293.932 570.415 292.309L570.335 292.255L570.266 292.187C567.719 289.64 567.237 286.284 567.586 283.275C567.93 280.304 569.093 277.528 570.081 275.835C575.072 264.04 577.822 256.695 578.993 252.576C579.286 251.547 579.474 250.74 579.575 250.127C579.591 250.029 579.605 249.938 579.616 249.854C579.078 250.37 578.371 251.196 577.524 252.305C576.476 253.676 575.267 255.409 573.973 257.361C571.387 261.264 568.488 266.004 565.917 270.392L564.125 269.629C567.856 256.424 569.647 248.286 570.108 243.802C570.223 242.686 570.252 241.826 570.215 241.187C570.186 240.686 570.119 240.379 570.058 240.207C569.955 240.262 569.823 240.35 569.659 240.483C568.953 241.058 568.005 242.196 566.875 243.827C565.761 245.434 564.52 247.448 563.222 249.705C560.626 254.219 557.828 259.66 555.4 264.678L553.57 263.991C556.616 252.888 558.015 246.367 558.294 243.067C558.353 242.38 558.359 241.869 558.33 241.504C558.22 241.611 558.093 241.744 557.949 241.908C556.531 243.527 554.425 247.055 552.086 251.338C550.122 254.932 548.036 258.976 546.112 262.705C545.763 263.382 545.418 264.05 545.081 264.702L544.66 265.517L470.791 233.432L409.077 180.078ZM580.306 249.317C580.305 249.317 580.304 249.318 580.301 249.319C580.305 249.317 580.306 249.317 580.306 249.317Z" fill="white"/>
</svg>
