<svg width="686" height="540" viewBox="0 0 686 540" fill="none" xmlns="http://www.w3.org/2000/svg">
<path d="M211.447 125.317L71.2258 162.89C66.9955 164.023 62.644 161.51 61.5105 157.28L32.5878 49.3391C31.4543 45.1089 33.9665 40.7572 38.1968 39.6237L70.2494 31.0352C72.7123 30.3753 75.3387 30.9426 77.3158 32.5515L85.6832 39.3774C87.6603 40.9864 90.2872 41.5535 92.7502 40.8936L182.384 16.8761C186.615 15.7426 190.966 18.2552 192.1 22.4855L217.051 115.603C218.19 119.832 215.677 124.184 211.447 125.317Z" fill="#032349"/>
<path d="M71.4423 162.831L211.225 125.377C215.575 124.211 218.158 119.737 216.992 115.387L195.386 34.7487C194.22 30.3987 189.746 27.8151 185.396 28.9807L45.6131 66.4353C41.263 67.6009 38.68 72.0755 39.8456 76.4255L61.4524 157.063C62.618 161.413 67.0923 163.997 71.4423 162.831Z" fill="#194D87"/>
<path d="M174.57 332.585H29.4026C25.0231 332.585 21.4702 329.032 21.4702 324.652V212.903C21.4702 208.524 25.0231 204.971 29.4026 204.971H62.5859C65.1357 204.971 67.5258 206.198 69.0191 208.264L75.3347 217.023C76.828 219.089 79.2187 220.317 81.7685 220.317H174.565C178.944 220.317 182.497 223.87 182.497 228.249V324.652C182.503 329.032 178.95 332.585 174.57 332.585Z" fill="#032349"/>
<path d="M405.02 537.948L264.799 500.376C260.569 499.242 258.057 494.891 259.19 490.661L288.113 382.72C289.246 378.489 293.598 375.977 297.828 377.11L329.881 385.699C332.344 386.359 334.335 388.163 335.242 390.545L339.076 400.64C339.983 403.022 341.975 404.827 344.438 405.487L434.072 429.504C438.302 430.638 440.815 434.989 439.681 439.219L414.73 532.337C413.602 536.569 409.251 539.082 405.02 537.948Z" fill="#032349"/>
<path d="M29.6268 332.585H174.34C178.844 332.585 182.497 328.931 182.497 324.428V240.945C182.497 236.442 178.844 232.788 174.34 232.788H29.6268C25.1234 232.788 21.4702 236.442 21.4702 240.945V324.428C21.4702 328.931 25.1234 332.585 29.6268 332.585Z" fill="#194D87"/>
<path d="M265.016 500.434L404.798 537.889C409.148 539.054 413.623 536.471 414.788 532.121L436.395 451.483C437.561 447.133 434.978 442.658 430.628 441.493L290.845 404.038C286.495 402.873 282.021 405.456 280.855 409.806L259.248 490.444C258.088 494.796 260.666 499.269 265.016 500.434Z" fill="#194D87"/>
<path d="M376.85 142H309.823C291.655 142 276.929 127.274 276.929 109.107C276.929 90.9392 291.655 76.2129 309.823 76.2129H376.855C395.023 76.2129 409.749 90.9392 409.749 109.107C409.743 127.274 395.017 142 376.85 142Z" fill="#BACADF"/>
<path d="M602.259 401.921L541.565 452.427L343.106 241.195L144.434 452.87L84.4131 401.614L283.428 185.294C298.532 168.891 319.721 159.424 342.02 159.129C365.074 158.822 387.172 168.336 402.79 185.294L602.259 401.921Z" fill="#FBC73B"/>
<path d="M580.361 436.669C596.936 422.515 606.838 406.902 602.477 401.795C598.116 396.688 581.144 404.022 564.569 418.175C547.994 432.329 538.093 447.943 542.453 453.049C546.814 458.156 563.786 450.822 580.361 436.669Z" fill="#001A39"/>
<path d="M572.688 418.365L609.307 462.821L685.806 380.578L606.131 424.161L591.505 406.672" fill="#F96155"/>
<path fill-rule="evenodd" clip-rule="evenodd" d="M192.176 334.424C196.379 338.056 199.254 342.895 199.283 349.249C199.323 358.025 192.585 364.677 183.176 369.701C173.708 374.757 161.138 378.388 148.657 380.989C136.157 383.594 123.663 385.183 114.301 386.12C109.618 386.589 105.715 386.896 102.981 387.085C101.614 387.18 100.539 387.245 99.8044 387.287C99.4373 387.308 99.1554 387.323 98.9648 387.332C98.8695 387.337 98.797 387.341 98.7481 387.343L98.6744 387.347C98.6734 387.347 98.6728 387.347 98.6186 386.168C98.5643 384.988 98.5645 384.988 98.565 384.988L98.5809 384.988L98.6335 384.985C98.6803 384.983 98.7507 384.979 98.8439 384.974C99.0303 384.965 99.3078 384.95 99.6704 384.93C100.396 384.888 101.461 384.824 102.818 384.73C105.532 384.542 109.411 384.237 114.066 383.771C123.38 382.839 135.785 381.26 148.175 378.678C160.583 376.092 172.893 372.515 182.064 367.619C191.294 362.691 196.955 356.647 196.922 349.26C196.897 343.715 194.423 339.486 190.632 336.21C186.811 332.908 181.666 330.594 176.427 328.987C171.2 327.384 165.962 326.508 162.02 326.034C160.052 325.797 158.413 325.661 157.269 325.585C156.697 325.546 156.25 325.523 155.946 325.509C155.795 325.502 155.679 325.498 155.602 325.495C155.564 325.493 155.535 325.492 155.517 325.492L155.496 325.491L155.491 325.491C155.491 325.491 155.491 325.491 155.523 324.311C155.555 323.131 155.555 323.131 155.556 323.131L155.565 323.131L155.591 323.132C155.613 323.133 155.645 323.134 155.687 323.135C155.771 323.138 155.894 323.143 156.054 323.151C156.373 323.165 156.837 323.189 157.427 323.229C158.606 323.308 160.287 323.447 162.302 323.69C166.327 324.174 171.714 325.072 177.119 326.73C182.511 328.384 188.004 330.819 192.176 334.424Z" fill="#F96155"/>
<path fill-rule="evenodd" clip-rule="evenodd" d="M215.097 377.321C215.097 377.322 215.098 377.322 214.428 378.294C213.758 379.266 213.758 379.266 213.758 379.266L213.728 379.245C213.707 379.231 213.675 379.209 213.633 379.181C213.549 379.123 213.424 379.038 213.258 378.927C212.928 378.705 212.441 378.379 211.814 377.969C210.561 377.148 208.753 375.987 206.54 374.631C202.109 371.917 196.065 368.429 189.594 365.322C183.11 362.208 176.255 359.505 170.193 358.32C164.067 357.122 159.095 357.541 156.016 360.195C154.511 361.492 153.496 363.428 152.934 365.952C152.37 368.479 152.279 371.523 152.564 374.924C153.136 381.725 155.197 389.737 157.719 397.44C160.237 405.131 163.194 412.452 165.524 417.856C166.689 420.557 167.695 422.775 168.41 424.317C168.768 425.088 169.052 425.69 169.247 426.098C169.344 426.302 169.419 426.458 169.469 426.562C169.495 426.614 169.514 426.654 169.526 426.68L169.545 426.717C169.545 426.718 169.545 426.718 168.484 427.236C167.424 427.754 167.424 427.754 167.423 427.753L167.422 427.751L167.403 427.711C167.389 427.684 167.37 427.643 167.344 427.589C167.292 427.481 167.215 427.322 167.116 427.114C166.918 426.699 166.63 426.089 166.268 425.31C165.546 423.752 164.53 421.514 163.356 418.791C161.009 413.348 158.023 405.956 155.475 398.175C152.932 390.407 150.806 382.193 150.212 375.121C149.915 371.585 149.996 368.281 150.629 365.438C151.263 362.592 152.468 360.135 154.475 358.406C158.42 355.007 164.358 354.774 170.646 356.002C176.997 357.244 184.06 360.045 190.616 363.193C197.184 366.347 203.301 369.878 207.773 372.617C210.01 373.988 211.838 375.162 213.108 375.994C213.743 376.41 214.239 376.741 214.577 376.968C214.746 377.082 214.875 377.17 214.963 377.23C215.007 377.259 215.04 377.282 215.062 377.298L215.088 377.315L215.097 377.321Z" fill="#F96155"/>
<path fill-rule="evenodd" clip-rule="evenodd" d="M308.736 165.703C308.736 165.702 308.737 165.702 309.757 166.294C310.778 166.887 310.778 166.887 310.778 166.887L310.778 166.888L310.775 166.892L310.764 166.912C310.753 166.931 310.737 166.959 310.715 166.997C310.672 167.074 310.607 167.189 310.523 167.342C310.354 167.647 310.109 168.1 309.803 168.687C309.191 169.862 308.339 171.571 307.387 173.695C305.481 177.948 303.181 183.849 301.589 190.459C298.39 203.743 298.128 219.526 309.131 230.747C314.307 236.026 321.728 235.681 330.496 231.572C339.229 227.48 348.848 219.832 357.837 211.374C366.808 202.933 375.076 193.757 381.106 186.685C384.119 183.15 386.571 180.144 388.268 178.024C389.117 176.963 389.776 176.124 390.224 175.551C390.447 175.264 390.618 175.044 390.732 174.896C390.789 174.822 390.832 174.766 390.86 174.729L390.893 174.687L390.9 174.677L390.902 174.674C390.903 174.674 390.903 174.674 391.841 175.39C392.78 176.106 392.779 176.106 392.779 176.107L392.768 176.121L392.734 176.166C392.704 176.205 392.66 176.262 392.601 176.338C392.484 176.489 392.311 176.713 392.085 177.003C391.632 177.584 390.966 178.43 390.111 179.499C388.401 181.636 385.934 184.66 382.902 188.216C376.841 195.325 368.512 204.571 359.455 213.093C350.416 221.599 340.577 229.455 331.498 233.71C322.455 237.947 313.711 238.791 307.445 232.4C295.565 220.284 296.037 203.428 299.294 189.906C300.93 183.114 303.287 177.07 305.233 172.73C306.206 170.557 307.078 168.807 307.709 167.597C308.024 166.991 308.279 166.521 308.456 166.2C308.545 166.04 308.614 165.917 308.661 165.833C308.685 165.791 308.703 165.759 308.716 165.737L308.731 165.712L308.736 165.703Z" fill="#F96155"/>
<path fill-rule="evenodd" clip-rule="evenodd" d="M238.684 353.505C238.684 353.505 238.684 353.505 237.519 353.693C236.353 353.881 236.353 353.881 236.353 353.88L236.353 353.877L236.351 353.867L236.346 353.832C236.341 353.802 236.334 353.758 236.326 353.702C236.309 353.588 236.286 353.422 236.257 353.205C236.2 352.772 236.122 352.137 236.041 351.323C235.878 349.693 235.699 347.342 235.629 344.436C235.489 338.625 235.787 330.581 237.54 321.644C241.047 303.767 250.397 282.245 273.769 267.975L275 269.99C252.364 283.81 243.281 304.643 239.857 322.099C238.144 330.828 237.852 338.695 237.989 344.379C238.057 347.219 238.233 349.511 238.39 351.088C238.469 351.876 238.543 352.486 238.597 352.896C238.625 353.101 238.647 353.255 238.662 353.358C238.669 353.409 238.675 353.447 238.679 353.472L238.683 353.499L238.684 353.504L238.684 353.505Z" fill="#F96155"/>
<path fill-rule="evenodd" clip-rule="evenodd" d="M192.291 284.704C192.29 284.704 192.289 284.703 192.897 283.691C193.505 282.679 193.505 282.679 193.505 282.68L193.518 282.687L193.563 282.714C193.602 282.737 193.662 282.773 193.742 282.82C193.901 282.914 194.138 283.052 194.449 283.231C195.07 283.59 195.984 284.108 197.15 284.748C199.48 286.027 202.815 287.787 206.823 289.71C214.849 293.559 225.533 298.038 236.248 300.613C247.008 303.2 257.571 303.81 265.504 300.187C273.287 296.633 278.845 288.851 279.319 273.844L281.679 273.919C281.185 289.545 275.309 298.305 266.485 302.335C257.811 306.295 246.595 305.529 235.696 302.909C224.752 300.279 213.899 295.722 205.802 291.838C201.749 289.894 198.375 288.113 196.014 286.818C194.833 286.17 193.904 285.643 193.27 285.277C192.953 285.094 192.709 284.951 192.544 284.854C192.461 284.806 192.398 284.768 192.356 284.743L192.307 284.714L192.291 284.704Z" fill="#F96155"/>
<path fill-rule="evenodd" clip-rule="evenodd" d="M621.592 409.258L613.559 430.046L611.357 429.195L619.39 408.407L621.592 409.258Z" fill="#001A39"/>
<path fill-rule="evenodd" clip-rule="evenodd" d="M632.199 404.837L624.166 425.625L621.963 424.774L629.997 403.986L632.199 404.837Z" fill="#001A39"/>
<path fill-rule="evenodd" clip-rule="evenodd" d="M643.307 399.46L635.275 420.248L633.072 419.397L641.105 398.609L643.307 399.46Z" fill="#001A39"/>
<path fill-rule="evenodd" clip-rule="evenodd" d="M422.786 235.85C422.797 235.94 422.829 236.204 422.923 236.975C423.066 238.146 423.065 238.146 423.064 238.147L423.06 238.147L423.046 238.149L422.994 238.155C422.949 238.16 422.884 238.167 422.798 238.176C422.628 238.194 422.378 238.22 422.055 238.249C421.408 238.306 420.468 238.379 419.282 238.44C416.91 238.562 413.551 238.638 409.589 238.453C401.678 238.084 391.301 236.675 381.569 232.477C371.82 228.272 362.677 221.249 357.368 209.655C352.065 198.074 350.663 182.099 356.054 160.134L358.347 160.697C353.038 182.329 354.501 197.723 359.514 208.672C364.522 219.607 373.147 226.274 382.504 230.309C391.877 234.352 401.943 235.733 409.699 236.095C413.571 236.275 416.851 236.201 419.16 236.082C420.315 236.023 421.225 235.952 421.845 235.897C422.154 235.869 422.391 235.845 422.549 235.829C422.589 235.824 422.624 235.821 422.654 235.817C422.683 235.814 422.707 235.811 422.726 235.809L422.768 235.804L422.78 235.803C422.78 235.803 422.78 235.803 422.786 235.85Z" fill="#F96155"/>
<path d="M144.665 452.751C149.026 447.644 139.124 432.031 122.549 417.877C105.974 403.724 89.0025 396.39 84.6417 401.497C80.281 406.604 90.1822 422.218 106.757 436.371C123.332 450.525 140.304 457.858 144.665 452.751Z" fill="#001A39"/>
<path d="M113.959 418.129L77.3411 462.579L0.84082 380.342L80.5164 423.919L95.1368 406.436" fill="#F96155"/>
<path fill-rule="evenodd" clip-rule="evenodd" d="M67.2575 408.165L75.2907 428.959L73.0884 429.81L65.0552 409.016L67.2575 408.165Z" fill="#001A39"/>
<path fill-rule="evenodd" clip-rule="evenodd" d="M56.652 403.744L64.6853 424.538L62.483 425.389L54.4497 404.595L56.652 403.744Z" fill="#001A39"/>
<path fill-rule="evenodd" clip-rule="evenodd" d="M45.5431 398.367L53.5764 419.161L51.3741 420.012L43.3408 399.218L45.5431 398.367Z" fill="#001A39"/>
<path d="M423.123 340.354H277.955C273.575 340.354 270.022 336.801 270.022 332.421V220.672C270.022 216.293 273.575 212.74 277.955 212.74H311.138C313.688 212.74 316.078 213.967 317.571 216.033L323.887 224.792C325.38 226.858 327.771 228.086 330.321 228.086H423.117C427.496 228.086 431.049 231.639 431.049 236.018V332.421C431.055 336.801 427.502 340.354 423.123 340.354Z" fill="#001A39"/>
<path fill-rule="evenodd" clip-rule="evenodd" d="M408.106 208.702L378.376 256.853L374.86 254.682L404.59 206.531L408.106 208.702Z" fill="#001A39"/>
<path fill-rule="evenodd" clip-rule="evenodd" d="M456.725 149.635C463.745 159.613 469.127 169.149 470.729 176.666C471.532 180.435 471.153 184.943 469.964 189.873C468.771 194.817 466.741 200.273 464.155 205.98C458.982 217.393 451.534 229.918 443.92 241.526C436.302 253.14 428.499 263.867 422.602 271.688C419.653 275.599 417.179 278.786 415.442 280.995C414.574 282.1 413.889 282.96 413.422 283.545C413.188 283.837 413.008 284.061 412.887 284.212C412.826 284.287 412.78 284.344 412.749 284.383L412.713 284.426L412.704 284.437L412.702 284.44C412.701 284.441 412.701 284.441 411.785 283.697L412.701 284.441L412.023 285.276L374.272 260.071L419.958 186.083L393.765 148.525L395.701 147.174L422.782 186.004L377.478 259.373L411.542 282.116C411.553 282.101 411.566 282.086 411.578 282.071C412.042 281.49 412.722 280.635 413.586 279.536C415.315 277.337 417.778 274.163 420.717 270.266C426.594 262.471 434.365 251.788 441.946 240.231C449.53 228.667 456.905 216.258 462.004 205.005C464.554 199.379 466.523 194.07 467.669 189.319C468.818 184.554 469.119 180.439 468.42 177.159C466.926 170.147 461.798 160.947 454.794 150.993C447.819 141.078 439.083 130.552 430.522 120.912C421.965 111.276 413.598 102.544 407.37 96.2192C404.256 93.0575 401.678 90.4987 399.878 88.7309C398.979 87.8471 398.274 87.161 397.795 86.6963C397.555 86.464 397.371 86.287 397.248 86.1682L397.109 86.0342L397.063 85.9904C397.063 85.99 397.063 85.9899 397.879 85.1372C398.695 84.2846 398.696 84.2849 398.696 84.2854L398.744 84.3313L398.886 84.4678C399.011 84.5882 399.196 84.7669 399.438 85.001C399.921 85.4692 400.629 86.159 401.533 87.0468C403.34 88.8225 405.928 91.3905 409.052 94.5626C415.299 100.906 423.695 109.669 432.287 119.345C440.877 129.017 449.678 139.618 456.725 149.635Z" fill="#E4EDFA"/>
<path fill-rule="evenodd" clip-rule="evenodd" d="M234.583 158.241L280.549 135.926L279.518 133.802L231.259 157.231L250.199 189.667L252.237 188.476L234.583 158.241Z" fill="#E4EDFA"/>
<path d="M293.857 215.419C294.217 231.999 281.072 245.728 264.487 246.088C249.831 246.406 237.401 236.166 234.467 222.331C234.084 220.513 233.86 218.642 233.818 216.718C233.458 200.144 246.603 186.409 263.188 186.049C271.817 185.86 279.667 189.331 285.269 195.033C290.439 200.303 293.685 207.469 293.857 215.419Z" fill="#F96155"/>
<path d="M375.286 64.9336C372.175 79.8133 357.597 89.3514 342.717 86.2409C329.561 83.4904 320.583 71.7802 320.825 58.8187C320.86 57.1188 321.049 55.4013 321.409 53.6719C324.52 38.798 339.099 29.2539 353.978 32.3644C361.722 33.9817 368.014 38.7036 371.833 44.9541C375.363 50.7266 376.779 57.8035 375.286 64.9336Z" fill="#FBC73B"/>
<path d="M379.092 35.1859C377.799 41.3656 371.744 45.3261 365.564 44.0394C360.098 42.9003 356.368 38.0308 356.468 32.6479C356.48 31.9396 356.563 31.2255 356.71 30.5113C358.003 24.3316 364.059 20.3711 370.238 21.6578C373.455 22.3307 376.07 24.2902 377.657 26.8872C379.127 29.2836 379.712 32.2229 379.092 35.1859Z" fill="#0768C1"/>
<path d="M361.208 28.1619C360.423 31.9276 356.734 34.3416 352.969 33.5566C349.64 32.8601 347.367 29.8971 347.426 26.6154C347.432 26.1846 347.485 25.7478 347.573 25.3111C348.358 21.5454 352.047 19.1314 355.813 19.9164C357.773 20.3237 359.366 21.5218 360.334 23.1036C361.226 24.5674 361.586 26.3617 361.208 28.1619Z" fill="#0768C1"/>
<path fill-rule="evenodd" clip-rule="evenodd" d="M365.039 77.4921C365.038 77.492 365.038 77.4919 364.714 78.6271C364.39 79.7622 364.389 79.7621 364.389 79.7619L364.388 79.7616L364.385 79.7608L364.378 79.7588L364.358 79.7528C364.342 79.7479 364.32 79.7413 364.294 79.733C364.241 79.7163 364.169 79.6925 364.08 79.6609C363.902 79.5978 363.655 79.5034 363.364 79.3731C362.785 79.1142 362.011 78.7045 361.247 78.1021C359.701 76.8835 358.147 74.8183 358.47 71.689L360.818 71.9307C360.603 74.0191 361.585 75.3625 362.708 76.248C363.279 76.6977 363.872 77.014 364.328 77.2181C364.554 77.3193 364.742 77.3906 364.868 77.4354C364.931 77.4577 364.979 77.4733 365.008 77.4826C365.023 77.4873 365.033 77.4903 365.038 77.4919L365.041 77.4927L365.039 77.4921Z" fill="#001A39"/>
<path d="M367.282 68.6646C367.298 66.047 365.977 63.9165 364.331 63.9062C362.684 63.8959 361.337 66.0096 361.32 68.6272C361.304 71.2448 362.625 73.3753 364.271 73.3856C365.917 73.396 367.265 71.2822 367.282 68.6646Z" fill="#001A39"/>
<path d="M357.369 68.9297C357.385 66.3121 356.064 64.1816 354.418 64.1713C352.772 64.161 351.424 66.2748 351.408 68.8924C351.391 71.5099 352.712 73.6404 354.359 73.6508C356.005 73.6611 357.353 71.5473 357.369 68.9297Z" fill="#001A39"/>
<path d="M331.194 55.7201C330.067 61.1266 324.773 64.5913 319.366 63.4581C314.591 62.4606 311.327 58.2049 311.416 53.4949C311.428 52.8751 311.499 52.2554 311.629 51.6239C312.756 46.2233 318.05 42.7526 323.457 43.8859C326.266 44.4761 328.556 46.1878 329.943 48.4602C331.224 50.5614 331.737 53.1289 331.194 55.7201Z" fill="#FBC73B"/>
<path d="M370.734 43.9744C370.734 43.9744 359.903 48.0705 343.259 41.2947L338.672 57.2781L328.621 52.7451C328.621 52.7451 327.853 42.8057 318.091 44.2399C318.091 44.2399 321.201 25.5768 332.823 24.2075C353.139 21.8229 368.196 33.6984 370.734 43.9744Z" fill="#0768C1"/>
<path fill-rule="evenodd" clip-rule="evenodd" d="M569.639 414.464C569.639 414.465 569.64 414.466 568.509 414.806C567.379 415.146 567.379 415.146 567.379 415.146L567.378 415.145L567.376 415.136L567.365 415.099C567.354 415.066 567.338 415.014 567.316 414.946C567.272 414.808 567.206 414.602 567.115 414.334C566.934 413.797 566.658 413.011 566.282 412.023C565.529 410.046 564.375 407.267 562.777 404.069C559.577 397.665 554.621 389.631 547.576 383.004C540.542 376.388 531.454 371.197 519.947 370.383C508.434 369.569 494.342 373.125 477.286 384.304L475.992 382.33C493.35 370.953 507.949 367.168 520.114 368.028C532.285 368.889 541.863 374.39 549.193 381.285C556.512 388.169 561.618 396.466 564.889 403.014C566.528 406.293 567.712 409.146 568.488 411.182C568.876 412.201 569.162 413.016 569.352 413.579C569.447 413.861 569.518 414.08 569.566 414.229C569.59 414.304 569.608 414.362 569.62 414.402L569.634 414.447L569.638 414.46L569.639 414.464Z" fill="#F96155"/>
<path fill-rule="evenodd" clip-rule="evenodd" d="M514.811 422.341C514.812 422.341 514.812 422.341 513.718 422.785C512.624 423.23 512.624 423.229 512.624 423.228L512.616 423.21L512.594 423.155C512.575 423.107 512.546 423.035 512.509 422.941C512.434 422.754 512.325 422.477 512.185 422.116C511.906 421.395 511.503 420.338 511.009 418.992C510.021 416.299 508.667 412.447 507.202 407.801C504.273 398.515 500.889 386.032 499.091 373.287C497.297 360.571 497.063 347.458 500.549 336.987C502.297 331.734 504.994 327.109 508.933 323.545C512.878 319.975 518.009 317.524 524.531 316.533L524.885 318.868C518.772 319.796 514.083 322.069 510.517 325.296C506.944 328.529 504.439 332.774 502.789 337.732C499.476 347.684 499.652 360.362 501.429 372.958C503.201 385.525 506.546 397.873 509.454 407.091C510.906 411.697 512.248 415.514 513.225 418.178C513.714 419.51 514.112 420.554 514.387 421.263C514.524 421.617 514.631 421.888 514.703 422.07C514.739 422.161 514.767 422.229 514.785 422.275L514.805 422.326L514.811 422.341Z" fill="#F96155"/>
<path fill-rule="evenodd" clip-rule="evenodd" d="M428.877 268.289C428.877 268.289 428.877 268.289 429.238 267.165C429.598 266.041 429.599 266.041 429.599 266.041L429.609 266.044L429.637 266.054C429.662 266.061 429.697 266.073 429.744 266.089C429.837 266.119 429.974 266.165 430.152 266.225C430.507 266.346 431.025 266.525 431.683 266.763C432.999 267.238 434.874 267.945 437.123 268.879C441.616 270.743 447.615 273.516 453.618 277.143C459.612 280.764 465.66 285.268 470.209 290.61C474.762 295.958 477.868 302.215 477.82 309.304C477.724 323.334 468.418 332.673 459.402 338.431C454.877 341.321 450.368 343.349 446.995 344.655C445.306 345.308 443.898 345.783 442.908 346.094C442.413 346.25 442.022 346.366 441.753 346.443C441.619 346.481 441.515 346.51 441.443 346.529C441.419 346.536 441.399 346.541 441.383 346.546C441.375 346.548 441.367 346.55 441.361 346.552L441.338 346.558L441.332 346.559L441.33 346.56C441.329 346.56 441.328 346.56 441.03 345.418C440.732 344.276 440.732 344.276 440.732 344.276L440.752 344.271C440.767 344.267 440.79 344.261 440.821 344.252C440.884 344.235 440.979 344.209 441.104 344.173C441.354 344.101 441.724 343.992 442.198 343.842C443.147 343.544 444.507 343.086 446.142 342.453C449.417 341.186 453.776 339.223 458.131 336.442C466.873 330.859 475.371 322.137 475.459 309.288C475.502 302.94 472.729 297.212 468.411 292.141C464.089 287.065 458.275 282.715 452.397 279.163C446.526 275.616 440.641 272.895 436.218 271.059C434.008 270.142 432.167 269.448 430.881 268.983C430.238 268.751 429.735 268.577 429.393 268.461C429.222 268.403 429.092 268.359 429.005 268.331C428.961 268.316 428.929 268.306 428.907 268.299L428.884 268.291L428.877 268.289Z" fill="#F96155"/>
<path d="M280.31 340.354H423.719C426.759 340.354 429.533 338.613 430.861 335.874L464.51 266.292C467.054 261.027 463.218 254.906 457.369 254.906H313.954C310.914 254.906 308.14 256.647 306.812 259.386L273.163 328.968C270.625 334.239 274.461 340.354 280.31 340.354Z" fill="#194D87"/>
<path fill-rule="evenodd" clip-rule="evenodd" d="M288.49 198.039C288.491 198.039 288.491 198.039 289.217 198.969C289.943 199.9 289.943 199.9 289.943 199.9L289.943 199.901L289.939 199.903L289.922 199.917C289.906 199.929 289.882 199.948 289.851 199.973C289.788 200.023 289.695 200.098 289.576 200.195C289.339 200.389 288.999 200.672 288.594 201.022C287.784 201.725 286.725 202.691 285.716 203.755C284.698 204.828 283.776 205.956 283.199 206.981C282.585 208.073 282.543 208.723 282.679 209.048C282.789 209.309 283.242 209.704 284.532 209.943C285.727 210.164 287.259 210.176 288.824 210.076C290.375 209.977 291.89 209.773 293.023 209.592C293.588 209.502 294.055 209.418 294.379 209.357C294.541 209.326 294.667 209.301 294.751 209.284C294.794 209.276 294.826 209.269 294.847 209.265L294.87 209.26L294.875 209.259L294.876 209.259C294.876 209.259 294.876 209.259 295.119 210.414C295.363 211.569 295.362 211.569 295.362 211.569L295.361 211.57L295.351 211.572L295.322 211.578C295.297 211.583 295.262 211.59 295.215 211.599C295.122 211.618 294.987 211.644 294.816 211.677C294.474 211.741 293.986 211.829 293.396 211.923C292.219 212.111 290.625 212.327 288.975 212.433C287.34 212.537 285.581 212.538 284.103 212.265C282.721 212.009 281.119 211.428 280.503 209.963C279.913 208.561 280.462 207.031 281.141 205.823C281.858 204.55 282.933 203.259 284.003 202.13C285.082 200.992 286.202 199.971 287.048 199.238C287.472 198.87 287.83 198.573 288.083 198.366C288.209 198.263 288.31 198.182 288.379 198.127C288.414 198.099 288.441 198.078 288.46 198.063L288.482 198.046L288.49 198.039Z" fill="#E4EDFA"/>
<path fill-rule="evenodd" clip-rule="evenodd" d="M195.515 128.006C236.989 97.9074 282.894 83.0736 300.737 79.406L301.212 81.7186C283.641 85.3304 238.063 100.046 196.907 129.913C195.215 131.17 192.539 133.323 190.029 135.68C187.482 138.073 185.238 140.555 184.279 142.474C183.345 144.342 183.125 146.566 183.272 148.659C183.418 150.746 183.921 152.591 184.322 153.616L184.336 153.652L184.348 153.689C187.538 163.742 200.965 192.332 228.98 225.29L229.012 225.328L229.041 225.368C229.378 225.84 231.057 227.518 234.482 229.117C235.507 229.595 240.504 231.399 246.495 233.304C252.468 235.202 259.281 237.153 263.915 237.95C265.07 238.149 266.062 238.27 266.857 238.306C267.38 238.329 267.766 238.312 268.034 238.275C267.913 238.106 267.739 237.898 267.496 237.647C266.276 236.384 263.75 234.474 259.433 231.749C255.143 229.041 249.159 225.573 241.092 221.19L241.992 219.021C249.332 221.206 257.421 223.429 264.348 225.031C267.812 225.832 270.971 226.474 273.592 226.879C276.247 227.29 278.246 227.438 279.443 227.308C279.631 227.288 279.778 227.263 279.89 227.238C279.719 227.007 279.423 226.682 278.936 226.256C278.252 225.655 277.278 224.928 275.967 224.061C270.711 220.586 260.455 215.142 243.22 207.055L243.834 204.812C249.199 205.326 255.113 205.714 260.181 205.755C262.716 205.776 265.021 205.709 266.931 205.532C268.871 205.352 270.294 205.067 271.134 204.704C271.46 204.563 271.619 204.443 271.687 204.378C271.632 204.254 271.467 204.001 271.042 203.624C270.594 203.226 269.933 202.757 269.012 202.215C265.298 200.034 257.935 197.016 245.422 192.944L246.153 190.699C258.665 194.771 266.25 197.855 270.207 200.18C271.203 200.765 272.006 201.322 272.61 201.859C273.198 202.381 273.685 202.959 273.919 203.605C274.181 204.327 274.098 205.069 273.656 205.695C273.266 206.249 272.666 206.614 272.071 206.871C270.871 207.39 269.135 207.699 267.148 207.883C265.131 208.07 262.74 208.137 260.162 208.116C257.006 208.091 253.541 207.933 250.088 207.696C263.861 214.287 272.499 218.937 277.27 222.092C278.627 222.99 279.697 223.783 280.493 224.481C281.263 225.156 281.873 225.824 282.186 226.487C282.349 226.833 282.467 227.251 282.415 227.705C282.361 228.187 282.129 228.586 281.807 228.88C281.243 229.396 280.419 229.577 279.698 229.656C278.167 229.822 275.9 229.625 273.232 229.213C270.531 228.795 267.31 228.139 263.816 227.331C259.873 226.419 255.565 225.31 251.236 224.122C255.016 226.277 258.144 228.143 260.694 229.753C265.018 232.483 267.759 234.521 269.194 236.006C269.872 236.708 270.457 237.48 270.574 238.287C270.643 238.755 270.555 239.249 270.243 239.672C269.954 240.064 269.555 240.284 269.203 240.413C268.524 240.662 267.647 240.704 266.752 240.664C265.821 240.623 264.722 240.484 263.516 240.277C258.707 239.45 251.76 237.454 245.78 235.554C239.819 233.659 234.671 231.81 233.483 231.256C229.884 229.576 227.833 227.708 227.152 226.785C199.029 193.69 185.431 164.875 182.109 154.439C181.628 153.197 181.078 151.136 180.916 148.824C180.753 146.495 180.976 143.801 182.167 141.419C183.332 139.088 185.86 136.357 188.413 133.959C191.001 131.528 193.752 129.315 195.504 128.014L195.509 128.01L195.515 128.006Z" fill="#E4EDFA"/>
</svg>
