<svg width="315" height="240" viewBox="0 0 315 240" fill="none" xmlns="http://www.w3.org/2000/svg">
<path fill-rule="evenodd" clip-rule="evenodd" d="M193.704 23.8735L189.578 36.294L189.481 36.3605L189.274 36.0796C189.481 36.3605 189.481 36.3606 189.481 36.3607L189.48 36.3612L189.478 36.3629L189.469 36.3687C189.462 36.3737 189.451 36.3809 189.437 36.3902C189.409 36.4089 189.368 36.436 189.314 36.4708C189.207 36.5404 189.048 36.6407 188.842 36.7652C188.429 37.0141 187.825 37.3601 187.053 37.7515C185.511 38.534 183.298 39.4994 180.612 40.2326C175.239 41.6991 167.958 42.2398 160.378 38.5096L160.703 37.8949C168.077 41.5239 175.162 41.0033 180.418 39.5687C183.046 38.8513 185.212 37.9062 186.721 37.1408C187.475 36.7582 188.064 36.4209 188.463 36.1801C188.663 36.0597 188.815 35.9634 188.917 35.8977C188.937 35.8847 188.955 35.8729 188.971 35.8624L192.406 25.5202C192.136 25.6418 191.778 25.7952 191.305 25.9864C189.727 26.625 186.86 27.6897 181.692 29.4008C175.805 31.349 170.469 30.8273 166.611 29.8209C164.682 29.3178 163.12 28.6929 162.039 28.193C161.498 27.9429 161.077 27.7239 160.789 27.5667C160.646 27.488 160.536 27.4248 160.461 27.3808C160.423 27.3589 160.395 27.3417 160.375 27.3298C160.365 27.3238 160.358 27.3192 160.353 27.316L160.346 27.3122L160.345 27.311L160.344 27.3107C160.344 27.3106 160.344 27.3105 160.538 27.0209C160.732 26.7313 160.732 26.7312 160.732 26.7312L160.733 26.7317L160.737 26.7343C160.741 26.7367 160.747 26.7405 160.755 26.7455C160.772 26.7557 160.798 26.7712 160.832 26.7914C160.901 26.8319 161.005 26.8916 161.142 26.9666C161.416 27.1167 161.823 27.3282 162.347 27.5707C163.397 28.0559 164.918 28.6646 166.798 29.1549C170.557 30.1355 175.742 30.6405 181.461 28.7482C186.621 27.0395 189.471 25.9804 191.029 25.3501C191.808 25.035 192.26 24.8284 192.515 24.7026C192.642 24.6398 192.718 24.5979 192.76 24.5736C192.781 24.5614 192.793 24.554 192.798 24.5507C192.798 24.5505 192.798 24.5504 192.798 24.5502L193.704 23.8735Z" fill="#001A39"/>
<path d="M131.826 33.98L142.308 48.6456C144.276 51.3961 148.178 52.0861 151.027 50.1865C152.011 49.531 152.778 48.618 153.243 47.5555L159.64 32.8899C160.983 29.8106 159.485 26.262 156.295 24.965C155.525 24.6522 154.699 24.4912 153.862 24.4912H136.983C131.93 24.4912 128.955 29.9669 131.826 33.98Z" fill="#0768C1"/>
<path d="M161.193 46.4996L172.045 35.7183L186.594 32.6481L190.389 16.5659L207.887 52.4789L203.84 68.0806L188.433 69.9387L176.111 79.9865L161.193 46.4996Z" fill="#F96155"/>
<path d="M203.84 68.081L188.433 69.9391L172.045 35.7186L186.594 32.6484L203.84 68.081Z" fill="#001A39"/>
<path d="M84.0795 161.851L55.9669 220.316L99.154 239.667L127.267 181.202L84.0795 161.851Z" fill="#BACADF"/>
<path d="M202.522 207.446V239.254H185.002V207.446H202.522ZM203.237 206.756H184.287V239.944H203.237V206.756Z" fill="#001A39"/>
<path d="M168.6 147.719C154.765 156.382 168.955 166.724 163.47 173.672C157.986 180.619 152.914 189.835 161.124 197.155C169.333 204.475 183.594 207.292 193.762 206.687C214.636 205.448 232.375 191.217 234.867 175.606C237.359 159.995 228.857 147.425 208.33 142.867C187.804 138.308 177.836 141.933 168.6 147.719Z" fill="#FBC73B"/>
<path d="M30.3441 189.704C47.1027 189.704 60.6883 176.589 60.6883 160.412C60.6883 144.234 47.1027 131.12 30.3441 131.12C13.5855 131.12 0 144.234 0 160.412C0 176.589 13.5855 189.704 30.3441 189.704Z" fill="#FBC73B"/>
<path d="M54.6085 239.944H6.08223L30.3466 189.704L54.6085 239.944Z" fill="#0768C1"/>
<path d="M139.389 25.7833L144.74 13.8959C144.74 13.8959 141.038 9.54249 143.385 6.60569C145.731 3.6689 148.552 6.60569 148.552 6.60569C148.552 6.60569 152.254 2.78581 157.46 4.55432C162.665 6.32284 162.899 13.0864 160.781 16.8074C157.655 22.3038 153.536 23.7664 148.185 19.981L144.998 26.5607" fill="#FBC73B"/>
<path d="M146.291 5.35232C146.291 5.35232 147.087 -0.433915 154.82 0.0260372C162.553 0.48599 163.03 3.3078 166.181 2.67537C169.333 2.04293 169.7 11.0995 161.267 10.1796C152.833 9.25968 153.238 8.83644 153.238 8.83644C153.238 8.83644 152.214 12.3736 150.165 11.6307C148.116 10.8879 148.369 7.03122 148.369 7.03122" fill="#001A39"/>
<path fill-rule="evenodd" clip-rule="evenodd" d="M196.351 24.7202C197.983 26.0022 199.472 27.4402 200.8 29.0154L200.802 29.0169L200.803 29.0185C201.362 29.6974 201.666 30.7668 201.814 31.9265C201.963 33.1004 201.958 34.4248 201.851 35.6643C201.744 36.9028 201.534 38.0729 201.268 38.9374C201.135 39.3669 200.983 39.7399 200.811 40.0108C200.725 40.1459 200.624 40.2719 200.504 40.3656C200.381 40.461 200.219 40.5374 200.026 40.5268C199.634 40.5051 199.444 40.1725 199.353 39.9284C199.251 39.6555 199.195 39.2958 199.165 38.9017C199.104 38.1063 199.145 37.0665 199.223 36.0455C199.225 36.0267 199.226 36.0078 199.227 35.989C198.929 36.8506 198.597 37.7046 198.263 38.3454C198.087 38.6844 197.9 38.985 197.704 39.1962C197.527 39.3863 197.239 39.6143 196.882 39.5281C196.672 39.4773 196.544 39.3269 196.47 39.1934C196.396 39.0588 196.349 38.8963 196.318 38.7291C196.256 38.3921 196.24 37.9482 196.254 37.4503C196.282 36.4522 196.43 35.1598 196.613 33.8872C196.315 34.69 196.001 35.4579 195.694 36.0603C195.498 36.4461 195.295 36.7836 195.092 37.0202C194.99 37.1381 194.875 37.2477 194.744 37.3225C194.609 37.3992 194.434 37.452 194.242 37.4052C194.022 37.3517 193.892 37.1819 193.818 37.0517C193.738 36.9107 193.678 36.7348 193.63 36.545C193.533 36.1625 193.466 35.6492 193.421 35.0628C193.331 33.8854 193.322 32.3511 193.35 30.8358C193.378 29.3182 193.442 27.8105 193.5 26.6829C193.529 26.1189 193.556 25.6496 193.575 25.3212C193.585 25.1569 193.593 25.0279 193.599 24.9399C193.602 24.8959 193.604 24.8621 193.606 24.8393L193.608 24.8046C193.608 24.8045 193.608 24.8044 193.965 24.8268C194.321 24.8493 194.321 24.8493 194.321 24.8494L194.319 24.8831C194.317 24.9055 194.315 24.9389 194.312 24.9826C194.307 25.0698 194.299 25.198 194.289 25.3613C194.269 25.688 194.242 26.1552 194.214 26.7168C194.156 27.8403 194.092 29.3402 194.065 30.8479C194.037 32.358 194.046 33.8668 194.134 35.0118C194.178 35.5866 194.241 36.0544 194.324 36.3805C194.36 36.5232 194.397 36.6251 194.43 36.6923C194.46 36.6674 194.497 36.6311 194.542 36.5794C194.691 36.4061 194.864 36.1267 195.053 35.7561C195.427 35.0205 195.824 34.0025 196.19 32.9619C196.554 31.9243 196.882 30.8766 197.12 30.0873C197.238 29.693 197.334 29.3636 197.4 29.1331C197.433 29.0178 197.459 28.9273 197.476 28.8656C197.485 28.8348 197.492 28.8112 197.496 28.7954L197.503 28.7718C197.503 28.7718 197.503 28.7718 197.848 28.8606C198.198 28.9273 198.198 28.9273 198.198 28.9274L198.198 28.9277L198.193 28.9555C198.189 28.9744 198.183 29.0024 198.176 29.039C198.161 29.1122 198.14 29.2198 198.113 29.357C198.06 29.6313 197.984 30.0237 197.897 30.4956C197.724 31.4398 197.505 32.7003 197.323 33.9684C197.14 35.2392 196.996 36.5066 196.969 37.4689C196.955 37.9529 196.972 38.3406 197.022 38.6073C197.04 38.7046 197.06 38.7747 197.079 38.8225C197.103 38.8045 197.133 38.7772 197.171 38.7358C197.304 38.5929 197.458 38.3567 197.625 38.0357C197.956 37.3991 198.298 36.5122 198.608 35.6008C198.917 34.6928 199.19 33.7745 199.386 33.0823C199.484 32.7364 199.562 32.4475 199.617 32.2453C199.644 32.1442 199.664 32.0648 199.679 32.0108C199.686 31.9838 199.691 31.9631 199.694 31.9493L199.7 31.9289C199.7 31.9289 199.7 31.9287 200.047 32.0113C200.4 32.0619 200.4 32.0619 200.4 32.0619L200.397 32.0843C200.395 32.0994 200.391 32.1219 200.387 32.1512C200.378 32.21 200.365 32.2964 200.35 32.4066C200.318 32.6269 200.275 32.9421 200.226 33.3206C200.129 34.0781 200.013 35.087 199.936 36.0964C199.858 37.1096 199.821 38.1082 199.877 38.8513C199.906 39.2265 199.957 39.5112 200.025 39.6945C200.046 39.7489 200.063 39.7852 200.078 39.8089C200.11 39.7784 200.152 39.7281 200.202 39.65C200.326 39.4536 200.458 39.1463 200.583 38.7405C200.831 37.9344 201.034 36.8138 201.138 35.6071C201.242 34.4013 201.246 33.1259 201.104 32.0105C200.961 30.882 200.675 29.9734 200.245 29.4492C198.948 27.9112 197.493 26.5072 195.9 25.2553L196.351 24.7202ZM200.106 39.8475C200.109 39.8491 200.11 39.8503 200.11 39.8505C200.11 39.8507 200.109 39.8499 200.106 39.8475ZM200.047 32.0113L200.4 32.0619L199.7 31.9287L200.047 32.0113ZM197.848 28.8606L198.198 28.9274L197.503 28.7718L197.848 28.8606ZM194.475 36.7645C194.475 36.7646 194.475 36.764 194.473 36.7626C194.475 36.7637 194.475 36.7645 194.475 36.7645Z" fill="#001A39"/>
<path fill-rule="evenodd" clip-rule="evenodd" d="M129.382 34.1949C129.382 34.1948 129.382 34.1947 129.734 34.1339C130.085 34.0732 130.085 34.0732 130.085 34.0732L130.087 34.0836L130.094 34.1162C130.099 34.1452 130.107 34.1886 130.119 34.2455C130.141 34.3593 130.174 34.5274 130.219 34.7434C130.309 35.1754 130.444 35.799 130.625 36.5635C130.986 38.093 131.529 40.1844 132.256 42.4333C132.983 44.6832 133.893 47.0843 134.987 49.2356C136.084 51.3917 137.352 53.2719 138.786 54.5027C140.225 55.7384 142.429 56.8907 145.002 57.907C147.57 58.921 150.481 59.7897 153.313 60.4678C156.146 61.1458 158.894 61.6314 161.134 61.8814C162.254 62.0064 163.242 62.0719 164.048 62.074C164.863 62.076 165.459 62.0126 165.813 61.8984C167.415 61.3822 169.047 60.4485 170.242 59.5471C170.839 59.0963 171.314 58.6628 171.618 58.3046C171.771 58.1245 171.871 57.9753 171.923 57.8621C171.93 57.8474 171.936 57.8342 171.941 57.8223C171.927 57.8213 171.911 57.8205 171.894 57.8199C171.714 57.814 171.446 57.841 171.104 57.9003C170.428 58.0179 169.541 58.2477 168.651 58.5055C167.763 58.7625 166.884 59.044 166.226 59.2615C165.897 59.3702 165.623 59.4628 165.432 59.5281C165.337 59.5608 165.262 59.5867 165.211 59.6043C165.186 59.6131 165.166 59.6199 165.153 59.6245L165.134 59.6312C165.134 59.6312 165.134 59.6313 165.012 59.3071C164.856 58.9966 164.856 58.9966 164.856 58.9966L164.879 58.9856C164.895 58.9782 164.919 58.9672 164.949 58.9527C165.01 58.9237 165.1 58.881 165.215 58.826C165.444 58.7161 165.77 58.5574 166.161 58.3629C166.943 57.9735 167.978 57.4415 168.997 56.8691C170.018 56.295 171.01 55.6874 171.711 55.147C172.063 54.8753 172.325 54.6336 172.481 54.4332C172.641 54.2287 172.627 54.151 172.628 54.1509C172.628 54.1509 172.628 54.1509 172.628 54.1511C172.606 54.0956 172.546 54.0217 172.326 53.9795C172.099 53.9361 171.772 53.9437 171.354 54.0068C170.526 54.132 169.461 54.4559 168.394 54.8413C167.331 55.2249 166.287 55.6621 165.507 56.0041C165.117 56.1749 164.794 56.3216 164.569 56.4255C164.456 56.4775 164.368 56.5187 164.308 56.5468C164.278 56.5609 164.255 56.5717 164.24 56.579L164.223 56.5872L164.218 56.5897L164.217 56.5898C164.217 56.5898 164.217 56.5898 164.177 56.5111L164.217 56.5898L163.878 55.9831L164.059 56.2807C163.878 55.9831 163.878 55.9831 163.878 55.9831L163.878 55.983L163.879 55.9825L163.883 55.9804L163.897 55.9721C163.911 55.9646 163.93 55.9535 163.955 55.9389C164.006 55.9098 164.081 55.8668 164.176 55.8116C164.367 55.7013 164.639 55.5423 164.964 55.3481C165.615 54.9595 166.478 54.431 167.327 53.8699C168.179 53.307 169.007 52.7185 169.595 52.2091C169.891 51.953 170.111 51.7292 170.244 51.5482C170.31 51.4578 170.345 51.391 170.36 51.3468C170.364 51.3358 170.366 51.3277 170.367 51.3223C170.353 51.299 170.309 51.2538 170.158 51.2177C169.974 51.1736 169.704 51.1635 169.354 51.193C168.66 51.2514 167.76 51.455 166.855 51.7078C165.954 51.9594 165.066 52.2542 164.402 52.4866C164.071 52.6027 163.796 52.703 163.604 52.7742C163.508 52.8098 163.433 52.838 163.382 52.8574C163.357 52.867 163.338 52.8745 163.325 52.8794L163.31 52.885L163.306 52.8867L163.178 52.9362L148.294 47.6283L145.86 39.7357L146.545 39.5389L148.877 47.1007L163.168 52.1974C163.216 52.1793 163.276 52.1567 163.348 52.1302C163.543 52.0577 163.822 51.9559 164.159 51.8381C164.831 51.6027 165.735 51.3024 166.656 51.0451C167.573 50.7891 168.527 50.5701 169.292 50.5056C169.672 50.4737 170.034 50.477 170.33 50.5481C170.626 50.6189 170.929 50.7779 171.048 51.1082C171.106 51.2706 171.084 51.4315 171.038 51.564C170.993 51.6964 170.916 51.8256 170.827 51.947C170.649 52.1899 170.382 52.4539 170.073 52.7225C169.525 53.1974 168.795 53.7254 168.042 54.2317C168.076 54.2194 168.11 54.2073 168.143 54.1951C169.221 53.8058 170.342 53.4615 171.244 53.3252C171.692 53.2574 172.116 53.236 172.465 53.3027C172.818 53.3702 173.159 53.5446 173.299 53.915C173.43 54.2598 173.245 54.6007 173.052 54.8482C172.842 55.1173 172.526 55.4015 172.156 55.6862C171.414 56.2588 170.386 56.8867 169.356 57.4653C169.208 57.5486 169.06 57.631 168.912 57.7122C169.654 57.5057 170.384 57.3244 170.978 57.2213C171.334 57.1595 171.661 57.1219 171.919 57.1304C172.046 57.1345 172.181 57.1504 172.301 57.1944C172.422 57.2387 172.573 57.33 172.64 57.5081C172.725 57.7327 172.659 57.9652 172.575 58.1446C172.487 58.3351 172.345 58.5375 172.171 58.7419C171.822 59.153 171.303 59.6216 170.682 60.0907C169.438 61.0291 167.735 62.0065 166.04 62.5528C165.57 62.7042 164.877 62.766 164.046 62.7639C163.205 62.7617 162.189 62.6937 161.051 62.5668C158.777 62.3129 155.999 61.8214 153.141 61.1374C150.284 60.4534 147.339 59.5751 144.732 58.5456C142.131 57.5184 139.84 56.3307 138.311 55.0183C136.776 53.7009 135.459 51.7287 134.346 49.5396C133.23 47.3456 132.308 44.9085 131.574 42.6389C130.839 40.3682 130.292 38.2585 129.928 36.7168C129.746 35.9457 129.609 35.3162 129.519 34.879C129.473 34.6604 129.439 34.4898 129.416 34.3737C129.405 34.3156 129.396 34.2711 129.391 34.241L129.384 34.2067L129.382 34.1949ZM165.012 59.3071L164.856 58.9966L165.134 59.6313L165.012 59.3071Z" fill="#001A39"/>
<path d="M202.879 207.102H184.645V239.599H202.879V207.102Z" fill="white"/>
<path d="M202.522 207.446V239.254H185.002V207.446H202.522ZM203.237 206.756H184.287V239.944H203.237V206.756Z" fill="#001A39"/>
<path fill-rule="evenodd" clip-rule="evenodd" d="M158.163 18.7056L158.351 15.5366L159.065 15.5761L158.877 18.7451L158.163 18.7056Z" fill="#001A39"/>
<path d="M156.85 15.0778C157.343 15.0778 157.743 14.6917 157.743 14.2154C157.743 13.7391 157.343 13.353 156.85 13.353C156.356 13.353 155.956 13.7391 155.956 14.2154C155.956 14.6917 156.356 15.0778 156.85 15.0778Z" fill="#001A39"/>
<path d="M160.538 16.1887C161.031 16.1887 161.431 15.8026 161.431 15.3263C161.431 14.85 161.031 14.4639 160.538 14.4639C160.044 14.4639 159.644 14.85 159.644 15.3263C159.644 15.8026 160.044 16.1887 160.538 16.1887Z" fill="#001A39"/>
<path d="M23.1309 179.998C25.0062 178.374 25.379 175.823 23.9635 174.3C22.548 172.777 19.8802 172.859 18.0048 174.483C16.1295 176.108 15.7567 178.659 17.1722 180.182C18.5877 181.705 21.2555 181.623 23.1309 179.998Z" fill="white"/>
<path fill-rule="evenodd" clip-rule="evenodd" d="M34.5287 151.78C34.8587 152.454 34.9357 153.115 34.632 153.715C33.8171 155.32 31.8217 156.164 29.4039 156.563C26.9699 156.965 24.0253 156.93 21.1913 156.71C18.3545 156.489 15.6148 156.08 13.5854 155.727C12.7278 155.578 11.9966 155.438 11.4378 155.327C11.6306 155.456 11.8455 155.602 12.0781 155.763C13.0691 156.448 14.383 157.401 15.6714 158.471C16.9579 159.539 18.2278 160.73 19.1243 161.893C20.0097 163.041 20.5794 164.223 20.3421 165.25C20.1638 166.024 19.3725 166.613 18.2737 167.074C17.1576 167.542 15.6447 167.911 13.8824 168.202C10.3548 168.786 5.77482 169.068 1.24513 169.183L1.23259 168.723C5.75588 168.608 10.3086 168.327 13.8019 167.749C15.55 167.46 17.0194 167.098 18.0839 166.652C19.1655 166.198 19.7527 165.689 19.877 165.15C20.0648 164.337 19.6191 163.305 18.7421 162.168C17.8762 161.045 16.6367 159.879 15.3607 158.82C14.0865 157.762 12.7847 156.818 11.8007 156.137C11.3089 155.797 10.897 155.524 10.6082 155.335C10.4639 155.241 10.3503 155.168 10.273 155.118C10.2344 155.094 10.2048 155.075 10.1849 155.062L10.1625 155.048L10.1556 155.044L10.1553 155.044C10.1553 155.044 10.1552 155.044 10.2847 154.851C10.3389 154.627 10.3389 154.627 10.3391 154.627L10.3397 154.627L10.3536 154.63L10.3983 154.64C10.4379 154.649 10.4969 154.662 10.5741 154.678C10.7285 154.711 10.9556 154.759 11.2459 154.818C11.8267 154.936 12.6601 155.098 13.67 155.274C15.6902 155.626 18.4135 156.032 21.2296 156.251C24.0487 156.471 26.9473 156.502 29.3235 156.109C31.7159 155.715 33.4977 154.904 34.204 153.512C34.4232 153.08 34.3897 152.572 34.098 151.977C33.8046 151.378 33.2608 150.715 32.5085 150.008C31.0057 148.596 28.723 147.052 26.1353 145.529C20.9639 142.485 14.6277 139.554 11.0237 137.954L11.2228 137.536C14.8303 139.138 21.1873 142.078 26.3833 145.136C28.9793 146.664 31.2989 148.229 32.8409 149.679C33.6111 150.403 34.2004 151.11 34.5287 151.78ZM10.2847 154.851L10.3391 154.627C10.2263 154.601 10.1107 154.658 10.0654 154.761C10.0201 154.864 10.0581 154.983 10.1553 155.044L10.2847 154.851Z" fill="white"/>
<path d="M314.024 232.424C314.026 234.963 313.798 237.498 313.345 240H288.36C292.686 229.476 287.359 217.558 276.461 213.38C265.562 209.202 253.22 214.346 248.894 224.87C246.895 229.729 246.895 235.141 248.894 240H224.173C223.72 237.498 223.492 234.963 223.494 232.424C223.494 208.285 243.76 188.715 268.76 188.715C293.76 188.715 314.024 208.285 314.024 232.424Z" fill="#BACADF"/>
<path fill-rule="evenodd" clip-rule="evenodd" d="M44.087 140.759C45.7134 139.615 47.7463 138.548 49.5942 137.681L49.8025 138.094C47.9648 138.957 45.9608 140.01 44.3675 141.13C43.5708 141.691 42.8834 142.263 42.3718 142.832C41.8582 143.403 41.5361 143.954 41.4423 144.472C41.3688 144.88 41.5318 145.291 41.9404 145.714C42.3513 146.139 42.9891 146.552 43.7984 146.946C45.4146 147.734 47.649 148.417 49.922 148.978C52.1915 149.537 54.4853 149.972 56.2127 150.267C57.0761 150.414 57.7975 150.526 58.3027 150.602C58.5554 150.639 58.7539 150.668 58.8892 150.687C58.9569 150.696 59.0087 150.703 59.0435 150.708L59.0829 150.714L59.0958 150.715C59.0959 150.715 59.096 150.715 59.0634 150.943C59.0308 151.171 59.0307 151.171 59.0305 151.171L59.0169 151.169L58.9767 151.164C58.9412 151.159 58.8888 151.152 58.8205 151.142C58.684 151.123 58.484 151.094 58.2299 151.056C57.7218 150.98 56.9971 150.868 56.1298 150.72C54.3957 150.424 52.0893 149.987 49.804 149.423C47.5222 148.861 45.2472 148.168 43.5836 147.357C42.753 146.952 42.0583 146.51 41.592 146.027C41.1235 145.543 40.8648 144.993 40.9729 144.393C41.0876 143.759 41.4703 143.132 42.012 142.53C42.5556 141.926 43.2738 141.33 44.087 140.759Z" fill="white"/>
<path fill-rule="evenodd" clip-rule="evenodd" d="M232.988 193.059C232.988 193.059 232.988 193.059 232.781 193.172C232.573 193.284 232.573 193.284 232.573 193.284L232.572 193.283L232.56 193.263C232.552 193.249 232.539 193.227 232.523 193.199C232.49 193.142 232.44 193.058 232.375 192.949C232.245 192.73 232.052 192.408 231.805 192.001C231.309 191.185 230.591 190.022 229.701 188.637C227.923 185.866 225.46 182.204 222.724 178.641C219.985 175.074 216.981 171.616 214.119 169.243C212.688 168.057 211.303 167.15 210.013 166.635C208.724 166.119 207.551 166.002 206.525 166.361C205.489 166.723 204.618 167.499 203.885 168.61C203.152 169.721 202.566 171.155 202.096 172.807C201.156 176.111 200.692 180.243 200.417 184.306C200.28 186.335 200.19 188.344 200.11 190.22C200.1 190.465 200.09 190.708 200.08 190.948C200.013 192.546 199.951 194.033 199.87 195.332C199.776 196.825 199.657 198.081 199.473 198.977C199.381 199.424 199.27 199.797 199.13 200.068C198.996 200.33 198.799 200.563 198.504 200.598C198.103 200.646 197.696 200.548 197.295 200.365C196.895 200.182 196.488 199.906 196.08 199.578C195.322 198.968 194.532 198.152 193.753 197.347C193.696 197.288 193.638 197.229 193.581 197.17C192.739 196.301 191.914 195.465 191.135 194.893C190.343 194.313 189.67 194.058 189.109 194.22C188.108 194.509 187.106 195.529 186.161 196.978C185.224 198.413 184.375 200.218 183.658 201.992C182.942 203.765 182.361 205.5 181.959 206.792C181.758 207.438 181.602 207.973 181.497 208.346C181.444 208.532 181.403 208.678 181.376 208.778C181.363 208.827 181.353 208.865 181.346 208.891L181.338 208.919L181.336 208.929C181.336 208.929 181.336 208.929 181.105 208.872C180.874 208.816 180.874 208.816 180.874 208.816L180.874 208.815L180.877 208.806L180.884 208.776C180.891 208.75 180.902 208.711 180.916 208.661C180.943 208.56 180.984 208.412 181.037 208.224C181.144 207.848 181.301 207.31 181.503 206.66C181.907 205.36 182.492 203.613 183.214 201.825C183.936 200.039 184.797 198.204 185.758 196.733C186.709 195.275 187.791 194.121 188.972 193.779C189.772 193.549 190.617 193.936 191.423 194.527C192.241 195.126 193.093 195.993 193.929 196.855C193.984 196.913 194.04 196.97 194.095 197.027C194.881 197.838 195.651 198.634 196.385 199.224C196.777 199.54 197.149 199.789 197.5 199.949C197.85 200.11 198.164 200.175 198.445 200.142C198.491 200.136 198.586 200.091 198.704 199.864C198.815 199.647 198.916 199.321 199.005 198.888C199.183 198.025 199.301 196.796 199.394 195.305C199.475 194.011 199.537 192.528 199.604 190.93C199.614 190.689 199.624 190.446 199.634 190.201C199.713 188.325 199.804 186.311 199.941 184.276C200.217 180.207 200.683 176.036 201.637 172.685C202.113 171.009 202.715 169.528 203.483 168.363C204.252 167.198 205.197 166.336 206.362 165.929C207.538 165.518 208.84 165.668 210.195 166.21C211.55 166.751 212.979 167.691 214.43 168.894C217.332 171.3 220.361 174.791 223.106 178.367C225.853 181.944 228.323 185.617 230.106 188.395C230.998 189.784 231.718 190.949 232.216 191.768C232.464 192.177 232.657 192.5 232.788 192.72C232.827 192.785 232.86 192.841 232.887 192.887C232.907 192.92 232.923 192.948 232.937 192.972C232.954 193.001 232.967 193.022 232.975 193.037L232.987 193.058L232.988 193.059Z" fill="#F96155"/>
<path fill-rule="evenodd" clip-rule="evenodd" d="M193.519 127.354C193.519 127.353 193.519 127.353 193.753 127.309C193.987 127.264 193.987 127.264 193.987 127.265L194.004 127.353C194.016 127.411 194.034 127.498 194.056 127.61C194.101 127.836 194.166 128.166 194.247 128.588C194.409 129.431 194.634 130.637 194.889 132.089C195.399 134.994 196.027 138.888 196.499 142.84C196.97 146.79 197.287 150.808 197.17 153.957C197.112 155.53 196.945 156.9 196.629 157.941C196.318 158.967 195.84 159.743 195.102 160.013C194.126 160.369 192.89 160.05 191.643 159.45C190.382 158.843 189.044 157.917 187.826 156.958C186.606 155.999 185.497 154.999 184.694 154.241C184.516 154.073 184.353 153.916 184.207 153.775C184.386 154.237 184.611 154.835 184.86 155.533C185.47 157.243 186.227 159.56 186.811 161.99C187.395 164.418 187.811 166.971 187.73 169.146C187.651 171.308 187.077 173.17 185.601 174.117C184.904 174.564 183.996 174.433 183.022 173.982C182.038 173.528 180.913 172.716 179.713 171.672C177.311 169.581 174.56 166.517 171.963 163.367C169.365 160.215 166.915 156.97 165.115 154.513C164.215 153.285 163.477 152.253 162.964 151.529C162.707 151.166 162.507 150.881 162.371 150.686C162.303 150.588 162.251 150.513 162.215 150.462L162.176 150.405L162.162 150.386C162.162 150.386 162.162 150.385 162.36 150.258C162.559 150.131 162.559 150.131 162.559 150.131L162.572 150.15L162.611 150.207C162.646 150.257 162.698 150.331 162.766 150.429C162.901 150.623 163.101 150.908 163.357 151.269C163.869 151.992 164.605 153.022 165.504 154.248C167.301 156.701 169.745 159.938 172.336 163.081C174.928 166.225 177.66 169.266 180.032 171.33C181.22 172.363 182.305 173.141 183.228 173.568C184.161 173.999 184.858 174.041 185.337 173.733C186.612 172.917 187.176 171.257 187.254 169.129C187.332 167.014 186.927 164.507 186.347 162.094C185.768 159.685 185.016 157.383 184.41 155.683C184.106 154.833 183.839 154.135 183.648 153.648C183.553 153.405 183.476 153.216 183.424 153.087C183.397 153.022 183.377 152.973 183.363 152.94L183.348 152.903L183.344 152.893L183.343 152.891L183.343 152.891C183.343 152.891 183.343 152.891 183.563 152.804C183.738 152.648 183.738 152.648 183.738 152.648L183.738 152.648L183.743 152.653L183.76 152.67C183.775 152.686 183.797 152.709 183.827 152.738C183.885 152.798 183.972 152.886 184.083 152.997C184.306 153.219 184.629 153.536 185.027 153.912C185.824 154.665 186.922 155.654 188.127 156.602C189.334 157.552 190.641 158.454 191.856 159.038C193.085 159.63 194.158 159.865 194.933 159.582C195.447 159.394 195.868 158.812 196.172 157.811C196.471 156.825 196.636 155.499 196.694 153.941C196.809 150.827 196.496 146.836 196.026 142.893C195.555 138.952 194.929 135.067 194.419 132.166C194.165 130.716 193.94 129.513 193.778 128.672C193.697 128.251 193.633 127.921 193.588 127.697C193.566 127.585 193.548 127.499 193.537 127.441L193.524 127.375L193.519 127.354ZM183.563 152.804L183.738 152.648L182.853 151.726L183.343 152.891L183.563 152.804Z" fill="#F96155"/>
<path fill-rule="evenodd" clip-rule="evenodd" d="M165.024 169.966C165.024 169.966 165.024 169.966 165.241 169.872C165.458 169.778 165.458 169.778 165.458 169.778L165.459 169.779L165.46 169.781L165.464 169.79C165.467 169.798 165.473 169.809 165.479 169.824C165.493 169.854 165.513 169.898 165.538 169.956C165.588 170.073 165.66 170.243 165.748 170.465C165.923 170.908 166.162 171.554 166.417 172.367C166.926 173.992 167.499 176.289 167.756 178.978C168.27 184.356 167.518 191.314 162.439 197.588L162.063 197.304C167.045 191.152 167.788 184.324 167.282 179.021C167.028 176.369 166.463 174.103 165.961 172.5C165.71 171.698 165.475 171.063 165.303 170.629C165.217 170.412 165.147 170.246 165.098 170.134C165.074 170.078 165.055 170.036 165.042 170.007C165.036 169.993 165.031 169.983 165.028 169.976L165.025 169.969L165.024 169.967L165.024 169.966Z" fill="#F96155"/>
<path fill-rule="evenodd" clip-rule="evenodd" d="M208.785 139.162C208.785 139.161 208.785 139.161 209.017 139.215L209.248 139.268L209.248 139.269L209.247 139.274L209.242 139.294C209.238 139.312 209.232 139.339 209.224 139.375C209.207 139.446 209.184 139.553 209.156 139.69C209.101 139.966 209.026 140.368 208.952 140.868C208.804 141.869 208.655 143.265 208.658 144.841C208.662 148.003 209.271 151.855 211.645 154.733C217.163 161.421 225.26 163.064 232.016 163.024C235.391 163.004 238.421 162.563 240.608 162.127C241.701 161.909 242.582 161.692 243.189 161.531C243.493 161.45 243.728 161.382 243.887 161.335C243.966 161.312 244.027 161.294 244.067 161.281C244.087 161.275 244.102 161.27 244.112 161.267L244.123 161.264L244.126 161.263C244.126 161.263 244.126 161.263 244.202 161.481C244.277 161.699 244.277 161.699 244.276 161.699L244.272 161.701L244.26 161.704C244.249 161.708 244.233 161.713 244.212 161.719C244.17 161.732 244.108 161.751 244.026 161.775C243.864 161.823 243.624 161.892 243.316 161.974C242.7 162.138 241.808 162.357 240.704 162.577C238.496 163.018 235.434 163.463 232.019 163.484C225.194 163.524 216.92 161.865 211.272 155.019C208.798 152.021 208.186 148.042 208.181 144.842C208.179 143.238 208.329 141.82 208.481 140.803C208.556 140.294 208.632 139.885 208.689 139.602C208.717 139.461 208.741 139.352 208.758 139.277C208.766 139.24 208.773 139.211 208.777 139.192L208.783 139.17L208.784 139.164L208.785 139.162Z" fill="#F96155"/>
<path fill-rule="evenodd" clip-rule="evenodd" d="M149.57 93.0152L151.178 76.9196L151.89 76.9858L150.564 90.2528L168.123 103.515L168.6 146.273L203.237 134.385C203.237 134.385 198.508 130.547 188.466 133.254C188.466 133.254 195.137 97.697 191.613 90.9035C188.09 84.11 152.035 47.7553 135.614 54.2637C118.284 61.1354 119.78 111.323 119.78 111.323L87.4351 136.259L91.6876 155.083L105.467 168.422C105.467 168.422 104.588 158.993 101.069 152.372C101.069 152.372 137.136 137.244 142.413 123.376C146.393 112.918 148.684 99.1515 149.57 93.0152Z" fill="#001A39"/>
<path fill-rule="evenodd" clip-rule="evenodd" d="M137.207 53.9172C137.207 53.9169 137.207 53.9166 137.498 53.7166C137.789 53.5167 137.789 53.5165 137.789 53.5162L137.789 53.5159C137.789 53.5161 137.789 53.5163 137.789 53.5166C137.79 53.5179 137.792 53.5205 137.795 53.5245C137.801 53.5324 137.812 53.5455 137.827 53.5636C137.857 53.5998 137.906 53.656 137.976 53.73C138.115 53.878 138.339 54.0976 138.668 54.3727C139.325 54.9226 140.402 55.6948 142.065 56.5583C145.391 58.2855 151.06 60.3786 160.391 61.7883L160.28 62.4699C150.888 61.0509 145.138 58.9377 141.726 57.1659C140.02 56.2799 138.899 55.4793 138.199 54.8939C137.85 54.6013 137.606 54.3626 137.447 54.1942C137.368 54.11 137.31 54.0434 137.27 53.9965C137.251 53.973 137.236 53.9544 137.225 53.941C137.22 53.9343 137.216 53.9289 137.213 53.9248L137.209 53.9197L137.208 53.9179L137.207 53.9172ZM137.789 53.5159C137.788 53.5157 137.788 53.5156 137.788 53.5156L137.789 53.5159L137.789 53.5159Z" fill="white"/>
<path fill-rule="evenodd" clip-rule="evenodd" d="M34.4076 178.414C35.5419 181.806 37.3359 185.4 39.1864 188.485L38.7741 188.716C36.9121 185.611 35.1018 181.987 33.9542 178.555C32.8105 175.135 32.3089 171.859 33.1227 169.478C33.533 168.277 34.2788 167.301 35.4406 166.658C36.5975 166.017 38.1451 165.718 40.1407 165.829C44.1254 166.048 49.9704 167.902 58.2682 172.068L58.0483 172.476C49.7649 168.317 43.9939 166.502 40.1135 166.288C38.1767 166.181 36.7295 166.474 35.6776 167.057C34.6306 167.636 33.9536 168.515 33.5752 169.622C32.8117 171.856 33.2695 175.01 34.4076 178.414Z" fill="white"/>
</svg>
