<svg width="729" height="540" viewBox="0 0 729 540" fill="none" xmlns="http://www.w3.org/2000/svg">
<path fill-rule="evenodd" clip-rule="evenodd" d="M293.5 45.2582C293.337 46.0899 293.213 46.9372 293.13 47.7985C292.974 49.4447 292.979 51.0655 293.12 52.651C294.231 64.7396 303.8 74.7224 316.333 75.9242C330.507 77.2825 343.1 66.8958 344.459 52.7218C345.11 45.9252 343.06 39.4871 339.182 34.478C334.976 29.0497 328.633 25.3028 321.256 24.5959C314.508 23.9492 308.118 25.9659 303.128 29.7856C301.534 32.6853 300.796 35.5744 300.492 38.0377C300.029 41.7655 297.154 44.6955 293.5 45.2582Z" fill="#FBC73B"/>
<path fill-rule="evenodd" clip-rule="evenodd" d="M283.966 45.8917C283.898 46.2209 283.847 46.557 283.814 46.8992C283.758 47.4951 283.758 48.086 283.809 48.6616C284.213 53.0547 287.692 56.6801 292.242 57.1144C297.392 57.6092 301.962 53.8373 302.457 48.6868C302.694 46.2226 301.947 43.8796 300.538 42.0617C300.239 41.6752 299.911 41.3122 299.556 40.9766C298.224 43.447 295.693 45.1535 292.751 45.339L283.966 45.8917Z" fill="#FBC73B"/>
<path d="M719.234 0H640.461V78.7724H719.234V0Z" fill="#234977"/>
<path d="M602.863 77.7624V1.00977H674.798C695.961 1.00977 713.175 18.2236 713.175 39.3861C713.175 60.5486 695.961 77.7624 674.798 77.7624H602.863Z" fill="#001A39"/>
<path d="M674.798 2.01981C695.4 2.01981 712.165 18.7842 712.165 39.3862C712.165 59.9882 695.4 76.7526 674.798 76.7526H603.873V2.01981H674.798ZM674.798 0H601.853V78.7724H674.798C696.552 78.7724 714.185 61.1395 714.185 39.3862C714.185 17.6329 696.552 0 674.798 0Z" fill="#D5E2F3"/>
<path d="M506.995 398.908L451.646 491.523L530.339 538.552L585.688 445.937L506.995 398.908Z" fill="#001A39"/>
<path d="M507.295 400.361L584.25 446.357L529.932 537.233L452.978 491.237L507.295 400.361ZM506.599 397.588L450.211 491.934L530.635 540L587.022 445.655L506.599 397.588Z" fill="#D5E2F3"/>
<path d="M630.913 268.477H728.777L679.848 186.443L630.913 268.477Z" fill="#234977"/>
<path d="M506.599 397.589L587.017 445.655L587.103 354.208L506.599 397.589Z" fill="#FBC73B"/>
<path d="M679.848 483.657C704.119 483.657 723.794 463.982 723.794 439.711C723.794 415.441 704.119 395.766 679.848 395.766C655.577 395.766 635.902 415.441 635.902 439.711C635.902 463.982 655.577 483.657 679.848 483.657Z" fill="#BACADF"/>
<path d="M565.719 185.819L548.488 265.134L654.917 288.256L672.149 208.941L565.719 185.819Z" fill="#001A39"/>
<path d="M566.516 187.003L670.976 209.696L654.171 287.034L549.711 264.337L566.516 187.003ZM564.971 184.6L547.308 265.887L655.711 289.438L673.374 208.151L564.971 184.6Z" fill="#D5E2F3"/>
<path d="M499.976 170.499L482.316 251.788L547.297 265.906L564.957 184.616L499.976 170.499Z" fill="#F96155"/>
<path d="M344.939 24.6265C344.373 30.5142 339.141 34.8264 333.254 34.2659C328.048 33.766 324.074 29.6204 323.609 24.5961C323.549 23.9347 323.549 23.2632 323.614 22.5815C324.18 16.6938 329.411 12.3813 335.299 12.9418C338.364 13.2347 341 14.7901 342.747 17.0473C344.358 19.1277 345.206 21.8038 344.939 24.6265Z" fill="#D5E2F3"/>
<path d="M327.558 19.9349C327.215 23.52 324.028 26.1507 320.438 25.8074C317.267 25.5044 314.843 22.9798 314.566 19.9198C314.53 19.5159 314.53 19.1068 314.57 18.6927C314.914 15.1075 318.1 12.4768 321.691 12.8202C323.559 12.9969 325.164 13.9461 326.225 15.3195C327.204 16.587 327.72 18.213 327.558 19.9349Z" fill="#D5E2F3"/>
<path fill-rule="evenodd" clip-rule="evenodd" d="M337.459 67.5037C337.459 67.5036 337.459 67.5034 337.097 68.4462C336.734 69.3889 336.734 69.3888 336.733 69.3886L336.733 69.3882L336.73 69.3873L336.724 69.3849L336.706 69.3779C336.692 69.3722 336.673 69.3645 336.65 69.3547C336.603 69.3351 336.538 69.3073 336.459 69.2708C336.3 69.1981 336.08 69.0906 335.821 68.9461C335.308 68.659 334.626 68.2166 333.97 67.5974C332.645 66.3459 331.389 64.3198 331.944 61.4668L333.927 61.8525C333.543 63.8269 334.367 65.194 335.357 66.1289C335.859 66.603 336.394 66.9521 336.807 67.1831C337.012 67.2978 337.183 67.3811 337.3 67.4343C337.358 67.4609 337.402 67.4798 337.429 67.4913C337.443 67.4971 337.452 67.5009 337.457 67.5029L337.461 67.5044L337.46 67.504L337.459 67.5037Z" fill="#001A39"/>
<path d="M339.724 58.4299C339.956 56.0148 338.899 53.9375 337.364 53.7903C335.829 53.643 334.397 55.4815 334.165 57.8966C333.933 60.3116 334.99 62.3889 336.525 62.5362C338.06 62.6835 339.493 60.845 339.724 58.4299Z" fill="#001A39"/>
<path d="M329.254 57.6616C329.486 55.2465 328.429 53.1692 326.894 53.022C325.359 52.8747 323.927 54.7132 323.695 57.1283C323.463 59.5433 324.52 61.6201 326.055 61.7674C327.59 61.9147 329.023 60.0767 329.254 57.6616Z" fill="#001A39"/>
<path d="M76.451 272.305L27.2784 251.36L0.476074 351.926L46.3808 281.722L79.536 295.669" fill="white"/>
<path fill-rule="evenodd" clip-rule="evenodd" d="M38.5196 306.631L29.5015 290.775L31.2572 289.777L40.2753 305.633L38.5196 306.631Z" fill="#001A39"/>
<path fill-rule="evenodd" clip-rule="evenodd" d="M34.5457 314.129L25.532 298.279L27.2877 297.281L36.3014 313.131L34.5457 314.129Z" fill="#001A39"/>
<path fill-rule="evenodd" clip-rule="evenodd" d="M42.4886 299.128L33.47 283.272L35.2256 282.273L44.2442 298.129L42.4886 299.128Z" fill="#001A39"/>
<path d="M173.644 413.065L125.118 432.728L176.416 520.837L159.399 440.449L191.999 427.073" fill="white"/>
<path fill-rule="evenodd" clip-rule="evenodd" d="M171.253 463.141L154.014 458.45L154.544 456.501L171.783 461.192L171.253 463.141Z" fill="#001A39"/>
<path fill-rule="evenodd" clip-rule="evenodd" d="M173.722 471.084L156.483 466.388L157.014 464.439L174.252 469.135L173.722 471.084Z" fill="#001A39"/>
<path fill-rule="evenodd" clip-rule="evenodd" d="M168.788 455.203L151.549 450.507L152.08 448.558L169.319 453.254L168.788 455.203Z" fill="#001A39"/>
<path d="M237.772 167.573C183.384 177.389 167.897 288.211 167.897 288.211L83.7574 258.605C83.7574 258.605 64.6801 258.984 56.7321 290.493C50.4505 315.387 65.483 326.077 65.483 326.077L161.722 358.934C187.166 365.852 211.934 357.748 222.311 333.51C236.687 299.936 252.184 268.805 252.184 268.805L275.407 355.162L173.3 399.305C173.3 399.305 165.297 417.453 175.128 436.545C186.53 458.687 210.303 455.885 210.303 455.885L319.115 408.222C342.353 398.043 355.022 372.735 349.24 348.027C338.036 300.158 318.742 231.328 308.729 205.848C296.65 175.147 264.545 162.735 237.772 167.573Z" fill="#F96155"/>
<path d="M264.58 168.81C265.136 173.258 265.727 177.813 264.944 182.272C263.929 188.033 260.819 193.138 256.724 197.249C249.063 204.934 238.742 209.161 229.502 214.548C220.882 219.573 212.424 226.723 208.819 236.297C205.032 246.35 209.243 255.732 215.671 263.544C219.786 268.543 224.371 273.097 228.133 278.394C232.122 284.015 235.238 290.15 238.444 296.229C238.944 297.173 240.459 296.527 240.166 295.502C236.955 284.403 229.83 275.031 222.225 266.548C214.903 258.378 207.374 249.021 211.54 237.428C215.211 227.208 224.906 220.401 233.97 215.311C242.918 210.286 252.633 205.772 259.551 197.946C263.399 193.593 266.267 188.362 267.07 182.56C267.732 177.763 266.726 173.319 265.929 168.628C265.802 167.876 264.484 168.042 264.58 168.81Z" fill="#D5E2F3"/>
<path d="M309.365 208.555C305.891 216.316 300.538 223.057 296.615 230.586C293.045 237.443 291.212 244.851 291.48 252.607C292.01 267.861 300.473 282.333 313.298 290.594C319.979 294.896 328.134 297.103 336.036 295.755C337.076 295.578 336.774 294.013 335.794 293.977C328.826 293.72 322.221 292.816 316.096 289.261C309.941 285.691 304.618 280.227 300.781 274.264C292.57 261.509 291.5 244.704 298.377 231.141C302.18 223.643 307.209 216.801 310.425 208.999C310.673 208.398 309.632 207.954 309.365 208.555Z" fill="#D5E2F3"/>
<path d="M259.551 292.993C273.321 291.084 287.5 295.366 297.67 304.91C306.481 313.176 313.268 326.208 312.041 338.58C311.314 345.947 306.319 350.724 300.815 355.061C295.816 359 290.732 362.833 285.849 366.913C276.416 374.79 267.221 383.844 261.909 395.114C256.536 406.511 254.552 422.382 261.712 433.501C262.293 434.399 263.975 433.839 263.54 432.728C258.471 419.827 259.006 405.875 265.797 393.645C272.311 381.915 282.597 372.912 292.969 364.666C298.104 360.581 303.795 356.839 308.375 352.118C312.93 347.422 315.086 341.645 314.833 335.116C314.374 323.194 308.314 311.504 299.705 303.42C288.843 293.215 273.745 289.196 259.132 291.468C258.117 291.619 258.556 293.129 259.551 292.993Z" fill="#D5E2F3"/>
<path d="M346.64 337.252C333.885 340.257 326.705 353.527 323.584 365.287C320.262 377.825 320.444 392.751 325.589 404.805C325.998 405.764 327.351 405.037 327.18 404.133C326.018 398.003 324.685 392.075 324.332 385.813C323.978 379.582 324.422 373.301 325.846 367.216C328.487 355.925 334.926 342.039 346.984 338.479C347.772 338.252 347.443 337.06 346.64 337.252Z" fill="#D5E2F3"/>
<path d="M234.854 372.563C240.05 389.736 235.611 409.566 222.139 421.806C215.888 427.486 207.995 431.208 199.644 432.445C190.332 433.829 180.854 431.536 172.426 427.613C171.523 427.193 170.74 428.451 171.634 428.971C184.783 436.656 200.088 437.893 213.853 430.996C226.901 424.452 235.879 411.858 238.6 397.598C240.216 389.12 239.792 380.147 236.49 372.113C236.081 371.139 234.525 371.492 234.854 372.563Z" fill="#D5E2F3"/>
<path d="M176.088 250.541C183.778 255.636 188.974 263.716 192.635 272.027C196.19 280.086 198.815 288.968 199.32 297.785C199.926 308.308 196.846 318.18 188.454 324.946C180.112 331.672 169.392 334.151 159.182 336.489C150.502 338.474 138.105 339.857 134.086 349.204C133.515 350.537 135.358 351.724 136.09 350.375C138.363 346.199 142.488 344.063 146.866 342.685C152.203 341.003 157.707 339.898 163.151 338.62C173.341 336.227 183.713 333.116 191.726 326.047C207.198 312.393 203.118 289.428 195.826 272.557C191.781 263.201 185.672 254.627 176.754 249.41C176.017 248.976 175.391 250.077 176.088 250.541Z" fill="#D5E2F3"/>
<path d="M145.574 281.515C144.584 289.13 140.372 296.906 134.581 301.945C127.34 308.242 117.978 308.57 109.601 304.354C101.481 300.264 94.7051 293.528 88.7164 286.802C82.3692 279.672 77.2385 271.729 71.8355 263.897C71.4568 263.352 70.3964 263.675 70.6792 264.387C73.6584 271.88 78.2033 278.637 83.2477 284.888C88.2872 291.129 93.9524 297.022 100.325 301.915C106.329 306.525 113.565 310.393 121.341 310.236C128.34 310.095 134.753 306.465 139.216 301.188C141.671 298.289 143.751 294.825 145.256 291.336C146.654 288.099 146.685 284.989 146.851 281.52C146.892 280.672 145.675 280.722 145.574 281.515Z" fill="#D5E2F3"/>
<path d="M91.6097 334.333C87.2874 327.506 81.7079 321.739 75.5474 316.533C72.6642 314.099 69.6442 311.807 66.5135 309.706C63.3172 307.56 59.7021 305.142 55.8948 304.283C55.1626 304.117 54.4503 305.081 55.1068 305.637C57.8941 308.005 61.3276 309.686 64.3926 311.676C67.7203 313.837 70.9015 316.195 73.9665 318.715C80.0209 323.683 85.4748 329.324 91.2212 334.636C91.4181 334.818 91.7663 334.58 91.6097 334.333Z" fill="#D5E2F3"/>
<path fill-rule="evenodd" clip-rule="evenodd" d="M268.204 238.31L252.323 273.773L250.48 272.947L266.361 237.485L268.204 238.31Z" fill="#001A39"/>
<path fill-rule="evenodd" clip-rule="evenodd" d="M321.167 53.7009L327.717 50.8176L328.53 52.6662L321.981 55.5495L321.167 53.7009Z" fill="#001A39"/>
<path fill-rule="evenodd" clip-rule="evenodd" d="M341.399 46.337L335.264 43.9739L335.99 42.0891L342.125 44.4521L341.399 46.337Z" fill="#001A39"/>
<path d="M363.091 112.392L515.163 174.955C515.163 174.955 529.609 172.794 534.447 173.026C542.349 173.41 563.204 178.737 565.218 180.434C568.324 183.049 568.299 185.322 568.299 185.322L543.591 182.03C543.591 182.03 536.002 192.411 536.931 195.431C538.562 200.738 553.857 198.844 553.897 203.833C553.938 208.817 538.875 210.933 506.71 206.166C480.811 202.328 350.64 155.04 350.64 155.04" fill="#001A39"/>
<path fill-rule="evenodd" clip-rule="evenodd" d="M514.875 175.656L362.803 113.093L363.38 111.692L515.258 174.176C515.363 174.16 515.507 174.139 515.684 174.114C516.09 174.055 516.675 173.971 517.391 173.871C518.824 173.672 520.786 173.408 522.9 173.152C527.098 172.643 531.988 172.15 534.483 172.27C538.516 172.466 545.769 173.911 552.222 175.503C555.459 176.301 558.518 177.142 560.899 177.893C562.089 178.267 563.119 178.622 563.921 178.941C564.686 179.244 565.347 179.552 565.706 179.855C567.346 181.236 568.189 182.553 568.62 183.562C568.834 184.064 568.944 184.485 569 184.791C569.027 184.944 569.042 185.068 569.049 185.159C569.053 185.205 569.055 185.242 569.056 185.271C569.056 185.285 569.056 185.298 569.056 185.308L569.056 185.321L569.056 185.326L569.056 185.328V185.33C569.056 185.33 569.056 185.331 568.299 185.322L569.056 185.331L568.199 186.073L543.941 182.841C543.923 182.866 543.905 182.893 543.885 182.92C543.681 183.207 543.391 183.621 543.046 184.127C542.354 185.139 541.443 186.518 540.563 187.988C539.68 189.461 538.84 191.006 538.28 192.354C537.999 193.029 537.798 193.633 537.693 194.142C537.584 194.666 537.594 195.01 537.655 195.209C537.956 196.186 538.924 196.948 540.539 197.576C542.13 198.194 544.126 198.599 546.161 199.009L546.216 199.02C548.19 199.419 550.215 199.827 551.749 200.463C553.267 201.092 554.641 202.089 554.655 203.828C554.669 205.541 553.364 206.803 551.365 207.666C549.341 208.541 546.357 209.132 542.435 209.412C534.573 209.974 522.704 209.303 506.599 206.916C500.054 205.946 487.002 202.25 471.171 197.282C455.316 192.306 436.609 186.032 418.716 179.881C400.823 173.728 383.739 167.696 371.129 163.203C364.824 160.956 359.638 159.093 356.027 157.792C354.222 157.142 352.81 156.632 351.85 156.285C351.37 156.111 351.003 155.978 350.756 155.888L350.383 155.753C350.382 155.752 350.381 155.752 350.64 155.04C350.898 154.328 350.899 154.329 350.9 154.329L351.272 154.464C351.519 154.554 351.886 154.686 352.366 154.86C353.325 155.207 354.736 155.717 356.54 156.367C360.15 157.667 365.335 159.529 371.638 161.776C384.244 166.268 401.322 172.298 419.209 178.448C437.096 184.598 455.788 190.866 471.625 195.836C487.485 200.814 500.416 204.468 506.821 205.417C522.881 207.797 534.626 208.451 542.327 207.901C546.186 207.625 548.971 207.051 550.764 206.276C552.583 205.49 553.146 204.618 553.14 203.84C553.134 203.084 552.581 202.447 551.169 201.862C549.787 201.29 547.903 200.906 545.861 200.494L545.818 200.486C543.832 200.085 541.715 199.658 539.99 198.988C538.278 198.322 536.723 197.33 536.207 195.654C536.036 195.097 536.08 194.457 536.209 193.835C536.341 193.198 536.58 192.496 536.881 191.773C537.482 190.325 538.365 188.708 539.263 187.209C540.164 185.706 541.092 184.3 541.795 183.272C542.146 182.758 542.442 182.337 542.65 182.044C542.754 181.897 542.836 181.783 542.892 181.704C542.92 181.665 542.942 181.635 542.957 181.615L542.978 181.585L542.979 181.584L542.98 181.583C542.98 181.583 542.98 181.583 543.591 182.03L542.98 181.583L543.691 181.279L567.334 184.43C567.303 184.344 567.268 184.253 567.227 184.156C566.893 183.375 566.197 182.248 564.731 181.014C564.587 180.893 564.155 180.663 563.363 180.349C562.608 180.049 561.616 179.707 560.444 179.338C558.102 178.6 555.076 177.767 551.859 176.974C545.406 175.382 538.281 173.971 534.41 173.783C532.068 173.671 527.316 174.143 523.082 174.656C520.98 174.911 519.027 175.173 517.6 175.372C516.887 175.471 516.305 175.554 515.902 175.613C515.7 175.642 515.543 175.665 515.437 175.681L515.275 175.705C515.275 175.705 515.275 175.705 515.163 174.956L515.275 175.705L514.875 175.656Z" fill="#D5E2F3"/>
<path d="M356.128 134.009C351.467 149.218 335.365 157.767 320.155 153.112L258.38 134.186C243.171 129.525 234.622 113.422 239.277 98.2132C243.938 83.0041 260.041 74.4552 275.25 79.1109L337.026 98.0364C352.235 102.697 360.788 118.8 356.128 134.009Z" fill="#BACADF"/>
<path d="M601.853 78.7724C623.605 78.7724 641.239 61.1386 641.239 39.3862C641.239 17.6338 623.605 0 601.853 0C580.101 0 562.467 17.6338 562.467 39.3862C562.467 61.1386 580.101 78.7724 601.853 78.7724Z" fill="#617FA8"/>
<path fill-rule="evenodd" clip-rule="evenodd" d="M305.763 15.0173C308.536 14.9767 310.981 15.002 313.088 15.0629L313.209 15.0763C314.212 15.2696 314.975 15.588 315.483 16.0593C316.027 16.5633 316.221 17.1899 316.159 17.8132C316.101 18.394 315.827 18.9291 315.525 19.3599C315.216 19.7993 314.837 20.1891 314.485 20.4878L314.341 20.5837C311.216 22.1909 307.956 24.3872 305.709 27.2496C302.798 30.9646 301.64 34.9153 301.244 38.1306L301.244 38.1313C300.704 42.4694 297.169 45.8198 292.799 46.0954L228.136 50.163L251.672 76.3677L250.545 77.3799L225.964 50.0114L226.48 48.7494L292.704 44.5835C296.342 44.3541 299.29 41.5648 299.74 37.9452M305.763 15.0173C299.491 15.1054 294.876 17.0076 291.824 18.9017C290.299 19.8476 289.166 20.7902 288.41 21.5013C288.031 21.857 287.747 22.1552 287.555 22.3674C287.547 22.3764 287.539 22.3852 287.531 22.3939C287.33 22.3738 287.053 22.3465 286.705 22.3129C285.91 22.236 284.744 22.1262 283.259 21.9941C280.288 21.73 276.04 21.3768 270.928 21.0207C260.707 20.3084 247.024 19.5835 233.194 19.5346C219.373 19.4856 205.366 20.1113 194.51 22.1123C189.086 23.112 184.4 24.4634 180.907 26.2741C177.426 28.0786 174.995 30.4126 174.352 33.4369C172.949 40.0389 175.618 48.3153 180.211 56.8832C184.824 65.49 191.469 74.5555 198.261 82.8042C205.056 91.0574 212.017 98.5152 217.278 103.908C219.908 106.606 222.115 108.788 223.665 110.296C224.44 111.05 225.05 111.636 225.468 112.034C225.676 112.232 225.837 112.384 225.945 112.486C225.978 112.517 226.006 112.544 226.029 112.566L226.1 112.632L226.108 112.639L226.11 112.641C226.11 112.642 226.11 112.642 226.628 112.089C227.145 111.536 227.145 111.536 227.145 111.535L227.105 111.498C227.078 111.473 227.038 111.435 226.985 111.385C226.878 111.284 226.719 111.134 226.513 110.937C226.099 110.543 225.492 109.961 224.721 109.21C223.18 107.71 220.983 105.537 218.362 102.851C213.12 97.4767 206.19 90.0514 199.43 81.8413C192.667 73.6268 186.092 64.6488 181.546 56.1676C176.979 47.6475 174.55 39.7914 175.834 33.7519C176.338 31.377 178.291 29.3364 181.604 27.619C184.905 25.908 189.423 24.5903 194.784 23.602C205.5 21.627 219.395 21.0006 233.189 21.0494C246.974 21.0982 260.62 21.8209 270.823 22.5318C275.924 22.8873 280.162 23.2396 283.124 23.503C284.606 23.6347 285.768 23.7442 286.559 23.8207C286.955 23.8589 287.258 23.889 287.462 23.9094C287.564 23.9196 287.641 23.9274 287.693 23.9327L287.769 23.9405C287.77 23.9405 287.77 23.9406 287.848 23.1872L287.77 23.9406L288.443 23.6555C288.443 23.6555 288.443 23.6557 288.443 23.6555L288.444 23.6552L288.444 23.6548L288.453 23.6442C288.458 23.637 288.467 23.6267 288.478 23.6135C288.483 23.6074 288.489 23.6008 288.495 23.5935C288.534 23.5472 288.595 23.4761 288.678 23.384C288.845 23.1996 289.101 22.9307 289.447 22.6049C290.141 21.953 291.195 21.0747 292.622 20.1889C295.474 18.4197 299.822 16.6157 305.785 16.532C308.508 16.4922 310.911 16.5163 312.981 16.5753C313.814 16.7428 314.245 16.9773 314.453 17.1702C314.631 17.335 314.669 17.4866 314.652 17.6627C314.63 17.8813 314.512 18.1667 314.285 18.4895C314.081 18.7796 313.822 19.0547 313.568 19.2781C310.373 20.93 306.935 23.2348 304.517 26.3148L304.516 26.3154C301.398 30.2955 300.162 34.5247 299.741 37.9444" fill="#D5E2F3"/>
<path fill-rule="evenodd" clip-rule="evenodd" d="M298.324 42.6968C299.427 44.4628 299.756 46.1924 299.756 46.1924L309.582 49.3737L312.203 34.018C328.397 38.603 338.061 33.6746 338.061 33.6746C335.58 26.9286 326.886 20.0766 315.182 18.4634C314.908 19.0169 314.432 19.5391 313.995 19.9099C310.824 21.5409 307.456 23.7979 305.113 26.7822C302.099 30.6299 300.902 34.72 300.493 38.0376C300.269 39.8347 299.485 41.4464 298.324 42.6968Z" fill="#D5E2F3"/>
<path d="M301.745 16.0974C301.745 16.0974 295.433 17.673 291.792 25.5048L301.745 16.0974Z" fill="#001A39"/>
<path fill-rule="evenodd" clip-rule="evenodd" d="M301.561 15.3626C301.561 15.3624 301.562 15.3623 301.745 16.0972C301.929 16.8321 301.929 16.832 301.929 16.8319L301.922 16.8337C301.914 16.8359 301.901 16.8396 301.881 16.8452C301.843 16.8562 301.782 16.8743 301.701 16.9006C301.539 16.9532 301.297 17.0383 300.993 17.165C300.385 17.4185 299.527 17.8372 298.558 18.4917C296.623 19.7983 294.234 22.0491 292.479 25.8239L291.106 25.1854C292.992 21.1284 295.579 18.6755 297.71 17.2363C298.774 16.5179 299.722 16.0533 300.411 15.7666C300.755 15.6231 301.035 15.524 301.233 15.4599C301.332 15.4278 301.41 15.4044 301.465 15.3885C301.493 15.3806 301.515 15.3745 301.531 15.3702L301.551 15.365L301.558 15.3634L301.56 15.3628L301.561 15.3626Z" fill="#D5E2F3"/>
<path d="M311.268 15.7339C311.268 15.7339 300.705 16.1277 296.504 27.2568L311.268 15.7339Z" fill="#001A39"/>
<path fill-rule="evenodd" clip-rule="evenodd" d="M311.239 14.9771C311.24 14.977 311.24 14.977 311.268 15.7339C311.296 16.4908 311.297 16.4908 311.297 16.4908L311.295 16.4909L311.279 16.4917C311.263 16.4926 311.237 16.4941 311.202 16.4966C311.133 16.5015 311.027 16.5103 310.888 16.5255C310.611 16.5559 310.204 16.6115 309.7 16.7121C308.691 16.9136 307.3 17.2938 305.784 18.0073C302.762 19.4289 299.231 22.1761 297.212 27.5243L295.795 26.9893C297.977 21.2084 301.829 18.1941 305.139 16.6366C306.788 15.8605 308.301 15.4467 309.404 15.2266C309.956 15.1164 310.407 15.0543 310.724 15.0196C310.882 15.0023 311.007 14.9918 311.095 14.9856C311.138 14.9824 311.173 14.9804 311.197 14.9791L311.226 14.9776L311.235 14.9772L311.238 14.9771L311.239 14.9771Z" fill="#D5E2F3"/>
</svg>
