<svg width="352" height="240" viewBox="0 0 352 240" fill="none" xmlns="http://www.w3.org/2000/svg">
<path d="M0 8.00019C0 3.58191 3.58172 0.000183105 8 0.000183105H344C348.418 0.000183105 352 3.58191 352 8.00018V232C352 236.418 348.418 240 344 240H7.99999C3.58171 240 0 236.418 0 232V8.00019Z" fill="white"/>
<path fill-rule="evenodd" clip-rule="evenodd" d="M344 1.00018H8C4.13401 1.00018 1 4.1342 1 8.00019V232C1 235.866 4.134 239 7.99999 239H344C347.866 239 351 235.866 351 232V8.00018C351 4.13419 347.866 1.00018 344 1.00018ZM8 0.000183105C3.58172 0.000183105 0 3.58191 0 8.00019V232C0 236.418 3.58171 240 7.99999 240H344C348.418 240 352 236.418 352 232V8.00018C352 3.58191 348.418 0.000183105 344 0.000183105H8Z" fill="#D7D7D7"/>
<path d="M153 204C153 201.791 154.791 200 157 200H177C179.209 200 181 201.791 181 204V212C181 214.209 179.209 216 177 216H157C154.791 216 153 214.209 153 212V204Z" fill="#0768C1"/>
<path d="M155.868 33.6722C155.564 33.6722 155.284 33.6002 155.028 33.4562C154.772 33.3042 154.568 33.1002 154.416 32.8442C154.272 32.5882 154.2 32.3082 154.2 32.0042C154.2 31.6922 154.272 31.4082 154.416 31.1522C154.568 30.8962 154.772 30.6962 155.028 30.5522C155.284 30.4002 155.564 30.3242 155.868 30.3242C156.18 30.3242 156.464 30.4002 156.72 30.5522C156.984 30.6962 157.188 30.8962 157.332 31.1522C157.484 31.4082 157.56 31.6922 157.56 32.0042C157.56 32.3082 157.484 32.5882 157.332 32.8442C157.188 33.1002 156.984 33.3042 156.72 33.4562C156.464 33.6002 156.18 33.6722 155.868 33.6722Z" fill="#001A39"/>
<path d="M161.634 33.6722C161.33 33.6722 161.05 33.6002 160.794 33.4562C160.538 33.3042 160.334 33.1002 160.182 32.8442C160.038 32.5882 159.966 32.3082 159.966 32.0042C159.966 31.6922 160.038 31.4082 160.182 31.1522C160.334 30.8962 160.538 30.6962 160.794 30.5522C161.05 30.4002 161.33 30.3242 161.634 30.3242C161.946 30.3242 162.23 30.4002 162.486 30.5522C162.75 30.6962 162.954 30.8962 163.098 31.1522C163.25 31.4082 163.326 31.6922 163.326 32.0042C163.326 32.3082 163.25 32.5882 163.098 32.8442C162.954 33.1002 162.75 33.3042 162.486 33.4562C162.23 33.6002 161.946 33.6722 161.634 33.6722Z" fill="#001A39"/>
<path d="M167.399 33.6722C167.095 33.6722 166.815 33.6002 166.559 33.4562C166.303 33.3042 166.099 33.1002 165.947 32.8442C165.803 32.5882 165.731 32.3082 165.731 32.0042C165.731 31.6922 165.803 31.4082 165.947 31.1522C166.099 30.8962 166.303 30.6962 166.559 30.5522C166.815 30.4002 167.095 30.3242 167.399 30.3242C167.711 30.3242 167.995 30.4002 168.251 30.5522C168.515 30.6962 168.719 30.8962 168.863 31.1522C169.015 31.4082 169.091 31.6922 169.091 32.0042C169.091 32.3082 169.015 32.5882 168.863 32.8442C168.719 33.1002 168.515 33.3042 168.251 33.4562C167.995 33.6002 167.711 33.6722 167.399 33.6722Z" fill="#001A39"/>
<path d="M176.024 33.6722C175.72 33.6722 175.44 33.6002 175.184 33.4562C174.928 33.3042 174.724 33.1002 174.572 32.8442C174.428 32.5882 174.356 32.3082 174.356 32.0042C174.356 31.6922 174.428 31.4082 174.572 31.1522C174.724 30.8962 174.928 30.6962 175.184 30.5522C175.44 30.4002 175.72 30.3242 176.024 30.3242C176.336 30.3242 176.62 30.4002 176.876 30.5522C177.14 30.6962 177.344 30.8962 177.488 31.1522C177.64 31.4082 177.716 31.6922 177.716 32.0042C177.716 32.3082 177.64 32.5882 177.488 32.8442C177.344 33.1002 177.14 33.3042 176.876 33.4562C176.62 33.6002 176.336 33.6722 176.024 33.6722Z" fill="#001A39"/>
<path d="M181.79 33.6722C181.486 33.6722 181.206 33.6002 180.95 33.4562C180.694 33.3042 180.49 33.1002 180.338 32.8442C180.194 32.5882 180.122 32.3082 180.122 32.0042C180.122 31.6922 180.194 31.4082 180.338 31.1522C180.49 30.8962 180.694 30.6962 180.95 30.5522C181.206 30.4002 181.486 30.3242 181.79 30.3242C182.102 30.3242 182.386 30.4002 182.642 30.5522C182.906 30.6962 183.11 30.8962 183.254 31.1522C183.406 31.4082 183.482 31.6922 183.482 32.0042C183.482 32.3082 183.406 32.5882 183.254 32.8442C183.11 33.1002 182.906 33.3042 182.642 33.4562C182.386 33.6002 182.102 33.6722 181.79 33.6722Z" fill="#001A39"/>
<path d="M190.415 33.6722C190.111 33.6722 189.831 33.6002 189.575 33.4562C189.319 33.3042 189.115 33.1002 188.963 32.8442C188.819 32.5882 188.747 32.3082 188.747 32.0042C188.747 31.6922 188.819 31.4082 188.963 31.1522C189.115 30.8962 189.319 30.6962 189.575 30.5522C189.831 30.4002 190.111 30.3242 190.415 30.3242C190.727 30.3242 191.011 30.4002 191.267 30.5522C191.531 30.6962 191.735 30.8962 191.879 31.1522C192.031 31.4082 192.107 31.6922 192.107 32.0042C192.107 32.3082 192.031 32.5882 191.879 32.8442C191.735 33.1002 191.531 33.3042 191.267 33.4562C191.011 33.6002 190.727 33.6722 190.415 33.6722Z" fill="#001A39"/>
<path d="M196.181 33.6722C195.877 33.6722 195.597 33.6002 195.341 33.4562C195.085 33.3042 194.881 33.1002 194.729 32.8442C194.585 32.5882 194.513 32.3082 194.513 32.0042C194.513 31.6922 194.585 31.4082 194.729 31.1522C194.881 30.8962 195.085 30.6962 195.341 30.5522C195.597 30.4002 195.877 30.3242 196.181 30.3242C196.493 30.3242 196.777 30.4002 197.033 30.5522C197.297 30.6962 197.501 30.8962 197.645 31.1522C197.797 31.4082 197.873 31.6922 197.873 32.0042C197.873 32.3082 197.797 32.5882 197.645 32.8442C197.501 33.1002 197.297 33.3042 197.033 33.4562C196.777 33.6002 196.493 33.6722 196.181 33.6722Z" fill="#001A39"/>
<path d="M201.946 33.6722C201.642 33.6722 201.362 33.6002 201.106 33.4562C200.85 33.3042 200.646 33.1002 200.494 32.8442C200.35 32.5882 200.278 32.3082 200.278 32.0042C200.278 31.6922 200.35 31.4082 200.494 31.1522C200.646 30.8962 200.85 30.6962 201.106 30.5522C201.362 30.4002 201.642 30.3242 201.946 30.3242C202.258 30.3242 202.542 30.4002 202.798 30.5522C203.062 30.6962 203.266 30.8962 203.41 31.1522C203.562 31.4082 203.638 31.6922 203.638 32.0042C203.638 32.3082 203.562 32.5882 203.41 32.8442C203.266 33.1002 203.062 33.3042 202.798 33.4562C202.542 33.6002 202.258 33.6722 201.946 33.6722Z" fill="#001A39"/>
<path d="M207.712 33.6722C207.408 33.6722 207.128 33.6002 206.872 33.4562C206.616 33.3042 206.412 33.1002 206.26 32.8442C206.116 32.5882 206.044 32.3082 206.044 32.0042C206.044 31.6922 206.116 31.4082 206.26 31.1522C206.412 30.8962 206.616 30.6962 206.872 30.5522C207.128 30.4002 207.408 30.3242 207.712 30.3242C208.024 30.3242 208.308 30.4002 208.564 30.5522C208.828 30.6962 209.032 30.8962 209.176 31.1522C209.328 31.4082 209.404 31.6922 209.404 32.0042C209.404 32.3082 209.328 32.5882 209.176 32.8442C209.032 33.1002 208.828 33.3042 208.564 33.4562C208.308 33.6002 208.024 33.6722 207.712 33.6722Z" fill="#001A39"/>
<path d="M213.478 33.6722C213.174 33.6722 212.894 33.6002 212.638 33.4562C212.382 33.3042 212.178 33.1002 212.026 32.8442C211.882 32.5882 211.81 32.3082 211.81 32.0042C211.81 31.6922 211.882 31.4082 212.026 31.1522C212.178 30.8962 212.382 30.6962 212.638 30.5522C212.894 30.4002 213.174 30.3242 213.478 30.3242C213.79 30.3242 214.074 30.4002 214.33 30.5522C214.594 30.6962 214.798 30.8962 214.942 31.1522C215.094 31.4082 215.17 31.6922 215.17 32.0042C215.17 32.3082 215.094 32.5882 214.942 32.8442C214.798 33.1002 214.594 33.3042 214.33 33.4562C214.074 33.6002 213.79 33.6722 213.478 33.6722Z" fill="#001A39"/>
<path d="M154.23 51.7342C154.026 51.7342 153.852 51.6642 153.708 51.5242C153.568 51.3802 153.498 51.2062 153.498 51.0022C153.498 50.7942 153.568 50.6202 153.708 50.4802C153.852 50.3362 154.026 50.2642 154.23 50.2642C154.438 50.2642 154.614 50.3362 154.758 50.4802C154.902 50.6202 154.974 50.7942 154.974 51.0022C154.974 51.2062 154.902 51.3802 154.758 51.5242C154.614 51.6642 154.438 51.7342 154.23 51.7342Z" fill="#001A39"/>
<path d="M156.703 51.7342C156.499 51.7342 156.325 51.6642 156.181 51.5242C156.041 51.3802 155.971 51.2062 155.971 51.0022C155.971 50.7942 156.041 50.6202 156.181 50.4802C156.325 50.3362 156.499 50.2642 156.703 50.2642C156.911 50.2642 157.087 50.3362 157.231 50.4802C157.375 50.6202 157.447 50.7942 157.447 51.0022C157.447 51.2062 157.375 51.3802 157.231 51.5242C157.087 51.6642 156.911 51.7342 156.703 51.7342Z" fill="#001A39"/>
<path d="M160.775 51.7342C160.571 51.7342 160.397 51.6642 160.253 51.5242C160.113 51.3802 160.043 51.2062 160.043 51.0022C160.043 50.7942 160.113 50.6202 160.253 50.4802C160.397 50.3362 160.571 50.2642 160.775 50.2642C160.983 50.2642 161.159 50.3362 161.303 50.4802C161.447 50.6202 161.519 50.7942 161.519 51.0022C161.519 51.2062 161.447 51.3802 161.303 51.5242C161.159 51.6642 160.983 51.7342 160.775 51.7342Z" fill="#001A39"/>
<path d="M163.248 51.7342C163.044 51.7342 162.87 51.6642 162.726 51.5242C162.586 51.3802 162.516 51.2062 162.516 51.0022C162.516 50.7942 162.586 50.6202 162.726 50.4802C162.87 50.3362 163.044 50.2642 163.248 50.2642C163.456 50.2642 163.632 50.3362 163.776 50.4802C163.92 50.6202 163.992 50.7942 163.992 51.0022C163.992 51.2062 163.92 51.3802 163.776 51.5242C163.632 51.6642 163.456 51.7342 163.248 51.7342Z" fill="#001A39"/>
<path d="M165.72 51.7342C165.516 51.7342 165.342 51.6642 165.198 51.5242C165.058 51.3802 164.988 51.2062 164.988 51.0022C164.988 50.7942 165.058 50.6202 165.198 50.4802C165.342 50.3362 165.516 50.2642 165.72 50.2642C165.928 50.2642 166.104 50.3362 166.248 50.4802C166.392 50.6202 166.464 50.7942 166.464 51.0022C166.464 51.2062 166.392 51.3802 166.248 51.5242C166.104 51.6642 165.928 51.7342 165.72 51.7342Z" fill="#001A39"/>
<path d="M168.193 51.7342C167.989 51.7342 167.815 51.6642 167.671 51.5242C167.531 51.3802 167.461 51.2062 167.461 51.0022C167.461 50.7942 167.531 50.6202 167.671 50.4802C167.815 50.3362 167.989 50.2642 168.193 50.2642C168.401 50.2642 168.577 50.3362 168.721 50.4802C168.865 50.6202 168.937 50.7942 168.937 51.0022C168.937 51.2062 168.865 51.3802 168.721 51.5242C168.577 51.6642 168.401 51.7342 168.193 51.7342Z" fill="#001A39"/>
<path d="M172.265 51.7342C172.061 51.7342 171.887 51.6642 171.743 51.5242C171.603 51.3802 171.533 51.2062 171.533 51.0022C171.533 50.7942 171.603 50.6202 171.743 50.4802C171.887 50.3362 172.061 50.2642 172.265 50.2642C172.473 50.2642 172.649 50.3362 172.793 50.4802C172.937 50.6202 173.009 50.7942 173.009 51.0022C173.009 51.2062 172.937 51.3802 172.793 51.5242C172.649 51.6642 172.473 51.7342 172.265 51.7342Z" fill="#001A39"/>
<path d="M174.738 51.7342C174.534 51.7342 174.36 51.6642 174.216 51.5242C174.076 51.3802 174.006 51.2062 174.006 51.0022C174.006 50.7942 174.076 50.6202 174.216 50.4802C174.36 50.3362 174.534 50.2642 174.738 50.2642C174.946 50.2642 175.122 50.3362 175.266 50.4802C175.41 50.6202 175.482 50.7942 175.482 51.0022C175.482 51.2062 175.41 51.3802 175.266 51.5242C175.122 51.6642 174.946 51.7342 174.738 51.7342Z" fill="#001A39"/>
<path d="M177.211 51.7342C177.007 51.7342 176.833 51.6642 176.689 51.5242C176.549 51.3802 176.479 51.2062 176.479 51.0022C176.479 50.7942 176.549 50.6202 176.689 50.4802C176.833 50.3362 177.007 50.2642 177.211 50.2642C177.419 50.2642 177.595 50.3362 177.739 50.4802C177.883 50.6202 177.955 50.7942 177.955 51.0022C177.955 51.2062 177.883 51.3802 177.739 51.5242C177.595 51.6642 177.419 51.7342 177.211 51.7342Z" fill="#001A39"/>
<path d="M181.283 51.7342C181.079 51.7342 180.905 51.6642 180.761 51.5242C180.621 51.3802 180.551 51.2062 180.551 51.0022C180.551 50.7942 180.621 50.6202 180.761 50.4802C180.905 50.3362 181.079 50.2642 181.283 50.2642C181.491 50.2642 181.667 50.3362 181.811 50.4802C181.955 50.6202 182.027 50.7942 182.027 51.0022C182.027 51.2062 181.955 51.3802 181.811 51.5242C181.667 51.6642 181.491 51.7342 181.283 51.7342Z" fill="#001A39"/>
<path d="M183.755 51.7342C183.551 51.7342 183.377 51.6642 183.233 51.5242C183.093 51.3802 183.023 51.2062 183.023 51.0022C183.023 50.7942 183.093 50.6202 183.233 50.4802C183.377 50.3362 183.551 50.2642 183.755 50.2642C183.963 50.2642 184.139 50.3362 184.283 50.4802C184.427 50.6202 184.499 50.7942 184.499 51.0022C184.499 51.2062 184.427 51.3802 184.283 51.5242C184.139 51.6642 183.963 51.7342 183.755 51.7342Z" fill="#001A39"/>
<path d="M186.228 51.7342C186.024 51.7342 185.85 51.6642 185.706 51.5242C185.566 51.3802 185.496 51.2062 185.496 51.0022C185.496 50.7942 185.566 50.6202 185.706 50.4802C185.85 50.3362 186.024 50.2642 186.228 50.2642C186.436 50.2642 186.612 50.3362 186.756 50.4802C186.9 50.6202 186.972 50.7942 186.972 51.0022C186.972 51.2062 186.9 51.3802 186.756 51.5242C186.612 51.6642 186.436 51.7342 186.228 51.7342Z" fill="#001A39"/>
<path d="M190.3 51.7342C190.096 51.7342 189.922 51.6642 189.778 51.5242C189.638 51.3802 189.568 51.2062 189.568 51.0022C189.568 50.7942 189.638 50.6202 189.778 50.4802C189.922 50.3362 190.096 50.2642 190.3 50.2642C190.508 50.2642 190.684 50.3362 190.828 50.4802C190.972 50.6202 191.044 50.7942 191.044 51.0022C191.044 51.2062 190.972 51.3802 190.828 51.5242C190.684 51.6642 190.508 51.7342 190.3 51.7342Z" fill="#001A39"/>
<path d="M192.773 51.7342C192.569 51.7342 192.395 51.6642 192.251 51.5242C192.111 51.3802 192.041 51.2062 192.041 51.0022C192.041 50.7942 192.111 50.6202 192.251 50.4802C192.395 50.3362 192.569 50.2642 192.773 50.2642C192.981 50.2642 193.157 50.3362 193.301 50.4802C193.445 50.6202 193.517 50.7942 193.517 51.0022C193.517 51.2062 193.445 51.3802 193.301 51.5242C193.157 51.6642 192.981 51.7342 192.773 51.7342Z" fill="#001A39"/>
<path d="M195.246 51.7342C195.042 51.7342 194.868 51.6642 194.724 51.5242C194.584 51.3802 194.514 51.2062 194.514 51.0022C194.514 50.7942 194.584 50.6202 194.724 50.4802C194.868 50.3362 195.042 50.2642 195.246 50.2642C195.454 50.2642 195.63 50.3362 195.774 50.4802C195.918 50.6202 195.99 50.7942 195.99 51.0022C195.99 51.2062 195.918 51.3802 195.774 51.5242C195.63 51.6642 195.454 51.7342 195.246 51.7342Z" fill="#001A39"/>
<path d="M197.718 51.7342C197.514 51.7342 197.34 51.6642 197.196 51.5242C197.056 51.3802 196.986 51.2062 196.986 51.0022C196.986 50.7942 197.056 50.6202 197.196 50.4802C197.34 50.3362 197.514 50.2642 197.718 50.2642C197.926 50.2642 198.102 50.3362 198.246 50.4802C198.39 50.6202 198.462 50.7942 198.462 51.0022C198.462 51.2062 198.39 51.3802 198.246 51.5242C198.102 51.6642 197.926 51.7342 197.718 51.7342Z" fill="#001A39"/>
<path d="M201.791 51.7342C201.587 51.7342 201.413 51.6642 201.269 51.5242C201.129 51.3802 201.059 51.2062 201.059 51.0022C201.059 50.7942 201.129 50.6202 201.269 50.4802C201.413 50.3362 201.587 50.2642 201.791 50.2642C201.999 50.2642 202.175 50.3362 202.319 50.4802C202.463 50.6202 202.535 50.7942 202.535 51.0022C202.535 51.2062 202.463 51.3802 202.319 51.5242C202.175 51.6642 201.999 51.7342 201.791 51.7342Z" fill="#001A39"/>
<path d="M204.263 51.7342C204.059 51.7342 203.885 51.6642 203.741 51.5242C203.601 51.3802 203.531 51.2062 203.531 51.0022C203.531 50.7942 203.601 50.6202 203.741 50.4802C203.885 50.3362 204.059 50.2642 204.263 50.2642C204.471 50.2642 204.647 50.3362 204.791 50.4802C204.935 50.6202 205.007 50.7942 205.007 51.0022C205.007 51.2062 204.935 51.3802 204.791 51.5242C204.647 51.6642 204.471 51.7342 204.263 51.7342Z" fill="#001A39"/>
<path d="M206.736 51.7342C206.532 51.7342 206.358 51.6642 206.214 51.5242C206.074 51.3802 206.004 51.2062 206.004 51.0022C206.004 50.7942 206.074 50.6202 206.214 50.4802C206.358 50.3362 206.532 50.2642 206.736 50.2642C206.944 50.2642 207.12 50.3362 207.264 50.4802C207.408 50.6202 207.48 50.7942 207.48 51.0022C207.48 51.2062 207.408 51.3802 207.264 51.5242C207.12 51.6642 206.944 51.7342 206.736 51.7342Z" fill="#001A39"/>
<path d="M209.209 51.7342C209.005 51.7342 208.831 51.6642 208.687 51.5242C208.547 51.3802 208.477 51.2062 208.477 51.0022C208.477 50.7942 208.547 50.6202 208.687 50.4802C208.831 50.3362 209.005 50.2642 209.209 50.2642C209.417 50.2642 209.593 50.3362 209.737 50.4802C209.881 50.6202 209.953 50.7942 209.953 51.0022C209.953 51.2062 209.881 51.3802 209.737 51.5242C209.593 51.6642 209.417 51.7342 209.209 51.7342Z" fill="#001A39"/>
<path d="M213.281 51.7342C213.077 51.7342 212.903 51.6642 212.759 51.5242C212.619 51.3802 212.549 51.2062 212.549 51.0022C212.549 50.7942 212.619 50.6202 212.759 50.4802C212.903 50.3362 213.077 50.2642 213.281 50.2642C213.489 50.2642 213.665 50.3362 213.809 50.4802C213.953 50.6202 214.025 50.7942 214.025 51.0022C214.025 51.2062 213.953 51.3802 213.809 51.5242C213.665 51.6642 213.489 51.7342 213.281 51.7342Z" fill="#001A39"/>
<path d="M215.753 51.7342C215.549 51.7342 215.375 51.6642 215.231 51.5242C215.091 51.3802 215.021 51.2062 215.021 51.0022C215.021 50.7942 215.091 50.6202 215.231 50.4802C215.375 50.3362 215.549 50.2642 215.753 50.2642C215.961 50.2642 216.137 50.3362 216.281 50.4802C216.425 50.6202 216.497 50.7942 216.497 51.0022C216.497 51.2062 216.425 51.3802 216.281 51.5242C216.137 51.6642 215.961 51.7342 215.753 51.7342Z" fill="#001A39"/>
<path d="M218.226 51.7342C218.022 51.7342 217.848 51.6642 217.704 51.5242C217.564 51.3802 217.494 51.2062 217.494 51.0022C217.494 50.7942 217.564 50.6202 217.704 50.4802C217.848 50.3362 218.022 50.2642 218.226 50.2642C218.434 50.2642 218.61 50.3362 218.754 50.4802C218.898 50.6202 218.97 50.7942 218.97 51.0022C218.97 51.2062 218.898 51.3802 218.754 51.5242C218.61 51.6642 218.434 51.7342 218.226 51.7342Z" fill="#001A39"/>
<path d="M222.298 51.7342C222.094 51.7342 221.92 51.6642 221.776 51.5242C221.636 51.3802 221.566 51.2062 221.566 51.0022C221.566 50.7942 221.636 50.6202 221.776 50.4802C221.92 50.3362 222.094 50.2642 222.298 50.2642C222.506 50.2642 222.682 50.3362 222.826 50.4802C222.97 50.6202 223.042 50.7942 223.042 51.0022C223.042 51.2062 222.97 51.3802 222.826 51.5242C222.682 51.6642 222.506 51.7342 222.298 51.7342Z" fill="#001A39"/>
<path d="M224.771 51.7342C224.567 51.7342 224.393 51.6642 224.249 51.5242C224.109 51.3802 224.039 51.2062 224.039 51.0022C224.039 50.7942 224.109 50.6202 224.249 50.4802C224.393 50.3362 224.567 50.2642 224.771 50.2642C224.979 50.2642 225.155 50.3362 225.299 50.4802C225.443 50.6202 225.515 50.7942 225.515 51.0022C225.515 51.2062 225.443 51.3802 225.299 51.5242C225.155 51.6642 224.979 51.7342 224.771 51.7342Z" fill="#001A39"/>
<path d="M227.244 51.7342C227.04 51.7342 226.866 51.6642 226.722 51.5242C226.582 51.3802 226.512 51.2062 226.512 51.0022C226.512 50.7942 226.582 50.6202 226.722 50.4802C226.866 50.3362 227.04 50.2642 227.244 50.2642C227.452 50.2642 227.628 50.3362 227.772 50.4802C227.916 50.6202 227.988 50.7942 227.988 51.0022C227.988 51.2062 227.916 51.3802 227.772 51.5242C227.628 51.6642 227.452 51.7342 227.244 51.7342Z" fill="#001A39"/>
<path d="M229.716 51.7342C229.512 51.7342 229.338 51.6642 229.194 51.5242C229.054 51.3802 228.984 51.2062 228.984 51.0022C228.984 50.7942 229.054 50.6202 229.194 50.4802C229.338 50.3362 229.512 50.2642 229.716 50.2642C229.924 50.2642 230.1 50.3362 230.244 50.4802C230.388 50.6202 230.46 50.7942 230.46 51.0022C230.46 51.2062 230.388 51.3802 230.244 51.5242C230.1 51.6642 229.924 51.7342 229.716 51.7342Z" fill="#001A39"/>
<path d="M233.789 51.7342C233.585 51.7342 233.411 51.6642 233.267 51.5242C233.127 51.3802 233.057 51.2062 233.057 51.0022C233.057 50.7942 233.127 50.6202 233.267 50.4802C233.411 50.3362 233.585 50.2642 233.789 50.2642C233.997 50.2642 234.173 50.3362 234.317 50.4802C234.461 50.6202 234.533 50.7942 234.533 51.0022C234.533 51.2062 234.461 51.3802 234.317 51.5242C234.173 51.6642 233.997 51.7342 233.789 51.7342Z" fill="#001A39"/>
<path d="M236.261 51.7342C236.057 51.7342 235.883 51.6642 235.739 51.5242C235.599 51.3802 235.529 51.2062 235.529 51.0022C235.529 50.7942 235.599 50.6202 235.739 50.4802C235.883 50.3362 236.057 50.2642 236.261 50.2642C236.469 50.2642 236.645 50.3362 236.789 50.4802C236.933 50.6202 237.005 50.7942 237.005 51.0022C237.005 51.2062 236.933 51.3802 236.789 51.5242C236.645 51.6642 236.469 51.7342 236.261 51.7342Z" fill="#001A39"/>
<path d="M240.334 51.7342C240.13 51.7342 239.956 51.6642 239.812 51.5242C239.672 51.3802 239.602 51.2062 239.602 51.0022C239.602 50.7942 239.672 50.6202 239.812 50.4802C239.956 50.3362 240.13 50.2642 240.334 50.2642C240.542 50.2642 240.718 50.3362 240.862 50.4802C241.006 50.6202 241.078 50.7942 241.078 51.0022C241.078 51.2062 241.006 51.3802 240.862 51.5242C240.718 51.6642 240.542 51.7342 240.334 51.7342Z" fill="#001A39"/>
<path d="M242.806 51.7342C242.602 51.7342 242.428 51.6642 242.284 51.5242C242.144 51.3802 242.074 51.2062 242.074 51.0022C242.074 50.7942 242.144 50.6202 242.284 50.4802C242.428 50.3362 242.602 50.2642 242.806 50.2642C243.014 50.2642 243.19 50.3362 243.334 50.4802C243.478 50.6202 243.55 50.7942 243.55 51.0022C243.55 51.2062 243.478 51.3802 243.334 51.5242C243.19 51.6642 243.014 51.7342 242.806 51.7342Z" fill="#001A39"/>
<path d="M245.279 51.7342C245.075 51.7342 244.901 51.6642 244.757 51.5242C244.617 51.3802 244.547 51.2062 244.547 51.0022C244.547 50.7942 244.617 50.6202 244.757 50.4802C244.901 50.3362 245.075 50.2642 245.279 50.2642C245.487 50.2642 245.663 50.3362 245.807 50.4802C245.951 50.6202 246.023 50.7942 246.023 51.0022C246.023 51.2062 245.951 51.3802 245.807 51.5242C245.663 51.6642 245.487 51.7342 245.279 51.7342Z" fill="#001A39"/>
<path d="M247.752 51.7342C247.548 51.7342 247.374 51.6642 247.23 51.5242C247.09 51.3802 247.02 51.2062 247.02 51.0022C247.02 50.7942 247.09 50.6202 247.23 50.4802C247.374 50.3362 247.548 50.2642 247.752 50.2642C247.96 50.2642 248.136 50.3362 248.28 50.4802C248.424 50.6202 248.496 50.7942 248.496 51.0022C248.496 51.2062 248.424 51.3802 248.28 51.5242C248.136 51.6642 247.96 51.7342 247.752 51.7342Z" fill="#001A39"/>
<path d="M250.224 51.7342C250.02 51.7342 249.846 51.6642 249.702 51.5242C249.562 51.3802 249.492 51.2062 249.492 51.0022C249.492 50.7942 249.562 50.6202 249.702 50.4802C249.846 50.3362 250.02 50.2642 250.224 50.2642C250.432 50.2642 250.608 50.3362 250.752 50.4802C250.896 50.6202 250.968 50.7942 250.968 51.0022C250.968 51.2062 250.896 51.3802 250.752 51.5242C250.608 51.6642 250.432 51.7342 250.224 51.7342Z" fill="#001A39"/>
<path d="M252.697 51.7342C252.493 51.7342 252.319 51.6642 252.175 51.5242C252.035 51.3802 251.965 51.2062 251.965 51.0022C251.965 50.7942 252.035 50.6202 252.175 50.4802C252.319 50.3362 252.493 50.2642 252.697 50.2642C252.905 50.2642 253.081 50.3362 253.225 50.4802C253.369 50.6202 253.441 50.7942 253.441 51.0022C253.441 51.2062 253.369 51.3802 253.225 51.5242C253.081 51.6642 252.905 51.7342 252.697 51.7342Z" fill="#001A39"/>
<path d="M255.17 51.7342C254.966 51.7342 254.791 51.6642 254.647 51.5242C254.507 51.3802 254.438 51.2062 254.438 51.0022C254.438 50.7942 254.507 50.6202 254.647 50.4802C254.791 50.3362 254.966 50.2642 255.17 50.2642C255.378 50.2642 255.554 50.3362 255.698 50.4802C255.842 50.6202 255.913 50.7942 255.913 51.0022C255.913 51.2062 255.842 51.3802 255.698 51.5242C255.554 51.6642 255.378 51.7342 255.17 51.7342Z" fill="#001A39"/>
<path d="M257.642 51.7342C257.438 51.7342 257.264 51.6642 257.12 51.5242C256.98 51.3802 256.91 51.2062 256.91 51.0022C256.91 50.7942 256.98 50.6202 257.12 50.4802C257.264 50.3362 257.438 50.2642 257.642 50.2642C257.85 50.2642 258.026 50.3362 258.17 50.4802C258.314 50.6202 258.386 50.7942 258.386 51.0022C258.386 51.2062 258.314 51.3802 258.17 51.5242C258.026 51.6642 257.85 51.7342 257.642 51.7342Z" fill="#001A39"/>
<path d="M260.115 51.7342C259.911 51.7342 259.737 51.6642 259.593 51.5242C259.453 51.3802 259.383 51.2062 259.383 51.0022C259.383 50.7942 259.453 50.6202 259.593 50.4802C259.737 50.3362 259.911 50.2642 260.115 50.2642C260.323 50.2642 260.499 50.3362 260.643 50.4802C260.787 50.6202 260.859 50.7942 260.859 51.0022C260.859 51.2062 260.787 51.3802 260.643 51.5242C260.499 51.6642 260.323 51.7342 260.115 51.7342Z" fill="#001A39"/>
<path d="M262.587 51.7342C262.383 51.7342 262.209 51.6642 262.065 51.5242C261.925 51.3802 261.855 51.2062 261.855 51.0022C261.855 50.7942 261.925 50.6202 262.065 50.4802C262.209 50.3362 262.383 50.2642 262.587 50.2642C262.795 50.2642 262.971 50.3362 263.115 50.4802C263.259 50.6202 263.331 50.7942 263.331 51.0022C263.331 51.2062 263.259 51.3802 263.115 51.5242C262.971 51.6642 262.795 51.7342 262.587 51.7342Z" fill="#001A39"/>
<path d="M265.06 51.7342C264.856 51.7342 264.682 51.6642 264.538 51.5242C264.398 51.3802 264.328 51.2062 264.328 51.0022C264.328 50.7942 264.398 50.6202 264.538 50.4802C264.682 50.3362 264.856 50.2642 265.06 50.2642C265.268 50.2642 265.444 50.3362 265.588 50.4802C265.732 50.6202 265.804 50.7942 265.804 51.0022C265.804 51.2062 265.732 51.3802 265.588 51.5242C265.444 51.6642 265.268 51.7342 265.06 51.7342Z" fill="#001A39"/>
<path d="M267.533 51.7342C267.329 51.7342 267.155 51.6642 267.011 51.5242C266.871 51.3802 266.801 51.2062 266.801 51.0022C266.801 50.7942 266.871 50.6202 267.011 50.4802C267.155 50.3362 267.329 50.2642 267.533 50.2642C267.741 50.2642 267.917 50.3362 268.061 50.4802C268.205 50.6202 268.277 50.7942 268.277 51.0022C268.277 51.2062 268.205 51.3802 268.061 51.5242C267.917 51.6642 267.741 51.7342 267.533 51.7342Z" fill="#001A39"/>
<path d="M270.005 51.7342C269.801 51.7342 269.627 51.6642 269.483 51.5242C269.343 51.3802 269.273 51.2062 269.273 51.0022C269.273 50.7942 269.343 50.6202 269.483 50.4802C269.627 50.3362 269.801 50.2642 270.005 50.2642C270.213 50.2642 270.389 50.3362 270.533 50.4802C270.677 50.6202 270.749 50.7942 270.749 51.0022C270.749 51.2062 270.677 51.3802 270.533 51.5242C270.389 51.6642 270.213 51.7342 270.005 51.7342Z" fill="#001A39"/>
<path d="M274.078 51.7342C273.874 51.7342 273.7 51.6642 273.556 51.5242C273.416 51.3802 273.346 51.2062 273.346 51.0022C273.346 50.7942 273.416 50.6202 273.556 50.4802C273.7 50.3362 273.874 50.2642 274.078 50.2642C274.286 50.2642 274.462 50.3362 274.606 50.4802C274.75 50.6202 274.822 50.7942 274.822 51.0022C274.822 51.2062 274.75 51.3802 274.606 51.5242C274.462 51.6642 274.286 51.7342 274.078 51.7342Z" fill="#001A39"/>
<path d="M276.55 51.7342C276.346 51.7342 276.172 51.6642 276.028 51.5242C275.888 51.3802 275.818 51.2062 275.818 51.0022C275.818 50.7942 275.888 50.6202 276.028 50.4802C276.172 50.3362 276.346 50.2642 276.55 50.2642C276.758 50.2642 276.934 50.3362 277.078 50.4802C277.222 50.6202 277.294 50.7942 277.294 51.0022C277.294 51.2062 277.222 51.3802 277.078 51.5242C276.934 51.6642 276.758 51.7342 276.55 51.7342Z" fill="#001A39"/>
<path d="M279.023 51.7342C278.819 51.7342 278.645 51.6642 278.501 51.5242C278.361 51.3802 278.291 51.2062 278.291 51.0022C278.291 50.7942 278.361 50.6202 278.501 50.4802C278.645 50.3362 278.819 50.2642 279.023 50.2642C279.231 50.2642 279.407 50.3362 279.551 50.4802C279.695 50.6202 279.767 50.7942 279.767 51.0022C279.767 51.2062 279.695 51.3802 279.551 51.5242C279.407 51.6642 279.231 51.7342 279.023 51.7342Z" fill="#001A39"/>
<path d="M281.496 51.7342C281.292 51.7342 281.118 51.6642 280.974 51.5242C280.834 51.3802 280.764 51.2062 280.764 51.0022C280.764 50.7942 280.834 50.6202 280.974 50.4802C281.118 50.3362 281.292 50.2642 281.496 50.2642C281.704 50.2642 281.88 50.3362 282.024 50.4802C282.168 50.6202 282.24 50.7942 282.24 51.0022C282.24 51.2062 282.168 51.3802 282.024 51.5242C281.88 51.6642 281.704 51.7342 281.496 51.7342Z" fill="#001A39"/>
<path d="M285.568 51.7342C285.364 51.7342 285.19 51.6642 285.046 51.5242C284.906 51.3802 284.836 51.2062 284.836 51.0022C284.836 50.7942 284.906 50.6202 285.046 50.4802C285.19 50.3362 285.364 50.2642 285.568 50.2642C285.776 50.2642 285.952 50.3362 286.096 50.4802C286.24 50.6202 286.312 50.7942 286.312 51.0022C286.312 51.2062 286.24 51.3802 286.096 51.5242C285.952 51.6642 285.776 51.7342 285.568 51.7342Z" fill="#001A39"/>
<path d="M288.041 51.7342C287.837 51.7342 287.663 51.6642 287.519 51.5242C287.379 51.3802 287.309 51.2062 287.309 51.0022C287.309 50.7942 287.379 50.6202 287.519 50.4802C287.663 50.3362 287.837 50.2642 288.041 50.2642C288.249 50.2642 288.425 50.3362 288.569 50.4802C288.713 50.6202 288.785 50.7942 288.785 51.0022C288.785 51.2062 288.713 51.3802 288.569 51.5242C288.425 51.6642 288.249 51.7342 288.041 51.7342Z" fill="#001A39"/>
<path d="M290.513 51.7342C290.309 51.7342 290.135 51.6642 289.991 51.5242C289.851 51.3802 289.781 51.2062 289.781 51.0022C289.781 50.7942 289.851 50.6202 289.991 50.4802C290.135 50.3362 290.309 50.2642 290.513 50.2642C290.721 50.2642 290.897 50.3362 291.041 50.4802C291.185 50.6202 291.257 50.7942 291.257 51.0022C291.257 51.2062 291.185 51.3802 291.041 51.5242C290.897 51.6642 290.721 51.7342 290.513 51.7342Z" fill="#001A39"/>
<path d="M292.986 51.7342C292.782 51.7342 292.608 51.6642 292.464 51.5242C292.324 51.3802 292.254 51.2062 292.254 51.0022C292.254 50.7942 292.324 50.6202 292.464 50.4802C292.608 50.3362 292.782 50.2642 292.986 50.2642C293.194 50.2642 293.37 50.3362 293.514 50.4802C293.658 50.6202 293.73 50.7942 293.73 51.0022C293.73 51.2062 293.658 51.3802 293.514 51.5242C293.37 51.6642 293.194 51.7342 292.986 51.7342Z" fill="#001A39"/>
<path d="M295.459 51.7342C295.255 51.7342 295.081 51.6642 294.937 51.5242C294.797 51.3802 294.727 51.2062 294.727 51.0022C294.727 50.7942 294.797 50.6202 294.937 50.4802C295.081 50.3362 295.255 50.2642 295.459 50.2642C295.667 50.2642 295.843 50.3362 295.987 50.4802C296.131 50.6202 296.203 50.7942 296.203 51.0022C296.203 51.2062 296.131 51.3802 295.987 51.5242C295.843 51.6642 295.667 51.7342 295.459 51.7342Z" fill="#001A39"/>
<path d="M297.931 51.7342C297.727 51.7342 297.553 51.6642 297.409 51.5242C297.269 51.3802 297.199 51.2062 297.199 51.0022C297.199 50.7942 297.269 50.6202 297.409 50.4802C297.553 50.3362 297.727 50.2642 297.931 50.2642C298.139 50.2642 298.315 50.3362 298.459 50.4802C298.603 50.6202 298.675 50.7942 298.675 51.0022C298.675 51.2062 298.603 51.3802 298.459 51.5242C298.315 51.6642 298.139 51.7342 297.931 51.7342Z" fill="#001A39"/>
<path d="M300.404 51.7342C300.2 51.7342 300.026 51.6642 299.882 51.5242C299.742 51.3802 299.672 51.2062 299.672 51.0022C299.672 50.7942 299.742 50.6202 299.882 50.4802C300.026 50.3362 300.2 50.2642 300.404 50.2642C300.612 50.2642 300.788 50.3362 300.932 50.4802C301.076 50.6202 301.148 50.7942 301.148 51.0022C301.148 51.2062 301.076 51.3802 300.932 51.5242C300.788 51.6642 300.612 51.7342 300.404 51.7342Z" fill="#001A39"/>
<path d="M302.877 51.7342C302.673 51.7342 302.499 51.6642 302.355 51.5242C302.215 51.3802 302.145 51.2062 302.145 51.0022C302.145 50.7942 302.215 50.6202 302.355 50.4802C302.499 50.3362 302.673 50.2642 302.877 50.2642C303.085 50.2642 303.261 50.3362 303.405 50.4802C303.549 50.6202 303.621 50.7942 303.621 51.0022C303.621 51.2062 303.549 51.3802 303.405 51.5242C303.261 51.6642 303.085 51.7342 302.877 51.7342Z" fill="#001A39"/>
<path d="M305.349 51.7342C305.145 51.7342 304.971 51.6642 304.827 51.5242C304.687 51.3802 304.617 51.2062 304.617 51.0022C304.617 50.7942 304.687 50.6202 304.827 50.4802C304.971 50.3362 305.145 50.2642 305.349 50.2642C305.557 50.2642 305.733 50.3362 305.877 50.4802C306.021 50.6202 306.093 50.7942 306.093 51.0022C306.093 51.2062 306.021 51.3802 305.877 51.5242C305.733 51.6642 305.557 51.7342 305.349 51.7342Z" fill="#001A39"/>
<path d="M309.421 51.7342C309.217 51.7342 309.043 51.6642 308.899 51.5242C308.759 51.3802 308.689 51.2062 308.689 51.0022C308.689 50.7942 308.759 50.6202 308.899 50.4802C309.043 50.3362 309.217 50.2642 309.421 50.2642C309.629 50.2642 309.805 50.3362 309.949 50.4802C310.093 50.6202 310.165 50.7942 310.165 51.0022C310.165 51.2062 310.093 51.3802 309.949 51.5242C309.805 51.6642 309.629 51.7342 309.421 51.7342Z" fill="#001A39"/>
<path d="M311.894 51.7342C311.69 51.7342 311.516 51.6642 311.372 51.5242C311.232 51.3802 311.162 51.2062 311.162 51.0022C311.162 50.7942 311.232 50.6202 311.372 50.4802C311.516 50.3362 311.69 50.2642 311.894 50.2642C312.102 50.2642 312.278 50.3362 312.422 50.4802C312.566 50.6202 312.638 50.7942 312.638 51.0022C312.638 51.2062 312.566 51.3802 312.422 51.5242C312.278 51.6642 312.102 51.7342 311.894 51.7342Z" fill="#001A39"/>
<path d="M314.367 51.7342C314.163 51.7342 313.989 51.6642 313.845 51.5242C313.705 51.3802 313.635 51.2062 313.635 51.0022C313.635 50.7942 313.705 50.6202 313.845 50.4802C313.989 50.3362 314.163 50.2642 314.367 50.2642C314.575 50.2642 314.751 50.3362 314.895 50.4802C315.039 50.6202 315.111 50.7942 315.111 51.0022C315.111 51.2062 315.039 51.3802 314.895 51.5242C314.751 51.6642 314.575 51.7342 314.367 51.7342Z" fill="#001A39"/>
<path d="M318.439 51.7342C318.235 51.7342 318.061 51.6642 317.917 51.5242C317.777 51.3802 317.707 51.2062 317.707 51.0022C317.707 50.7942 317.777 50.6202 317.917 50.4802C318.061 50.3362 318.235 50.2642 318.439 50.2642C318.647 50.2642 318.823 50.3362 318.967 50.4802C319.111 50.6202 319.183 50.7942 319.183 51.0022C319.183 51.2062 319.111 51.3802 318.967 51.5242C318.823 51.6642 318.647 51.7342 318.439 51.7342Z" fill="#001A39"/>
<path d="M320.912 51.7342C320.708 51.7342 320.534 51.6642 320.39 51.5242C320.25 51.3802 320.18 51.2062 320.18 51.0022C320.18 50.7942 320.25 50.6202 320.39 50.4802C320.534 50.3362 320.708 50.2642 320.912 50.2642C321.12 50.2642 321.296 50.3362 321.44 50.4802C321.584 50.6202 321.656 50.7942 321.656 51.0022C321.656 51.2062 321.584 51.3802 321.44 51.5242C321.296 51.6642 321.12 51.7342 320.912 51.7342Z" fill="#001A39"/>
<path d="M154.23 61.7342C154.026 61.7342 153.852 61.6642 153.708 61.5242C153.568 61.3802 153.498 61.2062 153.498 61.0022C153.498 60.7942 153.568 60.6202 153.708 60.4802C153.852 60.3362 154.026 60.2642 154.23 60.2642C154.438 60.2642 154.614 60.3362 154.758 60.4802C154.902 60.6202 154.974 60.7942 154.974 61.0022C154.974 61.2062 154.902 61.3802 154.758 61.5242C154.614 61.6642 154.438 61.7342 154.23 61.7342Z" fill="#001A39"/>
<path d="M156.703 61.7342C156.499 61.7342 156.325 61.6642 156.181 61.5242C156.041 61.3802 155.971 61.2062 155.971 61.0022C155.971 60.7942 156.041 60.6202 156.181 60.4802C156.325 60.3362 156.499 60.2642 156.703 60.2642C156.911 60.2642 157.087 60.3362 157.231 60.4802C157.375 60.6202 157.447 60.7942 157.447 61.0022C157.447 61.2062 157.375 61.3802 157.231 61.5242C157.087 61.6642 156.911 61.7342 156.703 61.7342Z" fill="#001A39"/>
<path d="M159.175 61.7342C158.971 61.7342 158.797 61.6642 158.653 61.5242C158.513 61.3802 158.443 61.2062 158.443 61.0022C158.443 60.7942 158.513 60.6202 158.653 60.4802C158.797 60.3362 158.971 60.2642 159.175 60.2642C159.383 60.2642 159.559 60.3362 159.703 60.4802C159.847 60.6202 159.919 60.7942 159.919 61.0022C159.919 61.2062 159.847 61.3802 159.703 61.5242C159.559 61.6642 159.383 61.7342 159.175 61.7342Z" fill="#001A39"/>
<path d="M161.648 61.7342C161.444 61.7342 161.27 61.6642 161.126 61.5242C160.986 61.3802 160.916 61.2062 160.916 61.0022C160.916 60.7942 160.986 60.6202 161.126 60.4802C161.27 60.3362 161.444 60.2642 161.648 60.2642C161.856 60.2642 162.032 60.3362 162.176 60.4802C162.32 60.6202 162.392 60.7942 162.392 61.0022C162.392 61.2062 162.32 61.3802 162.176 61.5242C162.032 61.6642 161.856 61.7342 161.648 61.7342Z" fill="#001A39"/>
<path d="M165.72 61.7342C165.516 61.7342 165.342 61.6642 165.198 61.5242C165.058 61.3802 164.988 61.2062 164.988 61.0022C164.988 60.7942 165.058 60.6202 165.198 60.4802C165.342 60.3362 165.516 60.2642 165.72 60.2642C165.928 60.2642 166.104 60.3362 166.248 60.4802C166.392 60.6202 166.464 60.7942 166.464 61.0022C166.464 61.2062 166.392 61.3802 166.248 61.5242C166.104 61.6642 165.928 61.7342 165.72 61.7342Z" fill="#001A39"/>
<path d="M168.193 61.7342C167.989 61.7342 167.815 61.6642 167.671 61.5242C167.531 61.3802 167.461 61.2062 167.461 61.0022C167.461 60.7942 167.531 60.6202 167.671 60.4802C167.815 60.3362 167.989 60.2642 168.193 60.2642C168.401 60.2642 168.577 60.3362 168.721 60.4802C168.865 60.6202 168.937 60.7942 168.937 61.0022C168.937 61.2062 168.865 61.3802 168.721 61.5242C168.577 61.6642 168.401 61.7342 168.193 61.7342Z" fill="#001A39"/>
<path d="M170.666 61.7342C170.462 61.7342 170.288 61.6642 170.144 61.5242C170.004 61.3802 169.934 61.2062 169.934 61.0022C169.934 60.7942 170.004 60.6202 170.144 60.4802C170.288 60.3362 170.462 60.2642 170.666 60.2642C170.874 60.2642 171.05 60.3362 171.194 60.4802C171.338 60.6202 171.41 60.7942 171.41 61.0022C171.41 61.2062 171.338 61.3802 171.194 61.5242C171.05 61.6642 170.874 61.7342 170.666 61.7342Z" fill="#001A39"/>
<path d="M173.138 61.7342C172.934 61.7342 172.76 61.6642 172.616 61.5242C172.476 61.3802 172.406 61.2062 172.406 61.0022C172.406 60.7942 172.476 60.6202 172.616 60.4802C172.76 60.3362 172.934 60.2642 173.138 60.2642C173.346 60.2642 173.522 60.3362 173.666 60.4802C173.81 60.6202 173.882 60.7942 173.882 61.0022C173.882 61.2062 173.81 61.3802 173.666 61.5242C173.522 61.6642 173.346 61.7342 173.138 61.7342Z" fill="#001A39"/>
<path d="M158.23 94.7342C158.026 94.7342 157.852 94.6642 157.708 94.5242C157.568 94.3802 157.498 94.2062 157.498 94.0022C157.498 93.7942 157.568 93.6202 157.708 93.4802C157.852 93.3362 158.026 93.2642 158.23 93.2642C158.438 93.2642 158.614 93.3362 158.758 93.4802C158.902 93.6202 158.974 93.7942 158.974 94.0022C158.974 94.2062 158.902 94.3802 158.758 94.5242C158.614 94.6642 158.438 94.7342 158.23 94.7342Z" fill="#001A39"/>
<path d="M160.703 94.7342C160.499 94.7342 160.325 94.6642 160.181 94.5242C160.041 94.3802 159.971 94.2062 159.971 94.0022C159.971 93.7942 160.041 93.6202 160.181 93.4802C160.325 93.3362 160.499 93.2642 160.703 93.2642C160.911 93.2642 161.087 93.3362 161.231 93.4802C161.375 93.6202 161.447 93.7942 161.447 94.0022C161.447 94.2062 161.375 94.3802 161.231 94.5242C161.087 94.6642 160.911 94.7342 160.703 94.7342Z" fill="#001A39"/>
<path d="M163.175 94.7342C162.971 94.7342 162.797 94.6642 162.653 94.5242C162.513 94.3802 162.443 94.2062 162.443 94.0022C162.443 93.7942 162.513 93.6202 162.653 93.4802C162.797 93.3362 162.971 93.2642 163.175 93.2642C163.383 93.2642 163.559 93.3362 163.703 93.4802C163.847 93.6202 163.919 93.7942 163.919 94.0022C163.919 94.2062 163.847 94.3802 163.703 94.5242C163.559 94.6642 163.383 94.7342 163.175 94.7342Z" fill="#001A39"/>
<path d="M165.648 94.7342C165.444 94.7342 165.27 94.6642 165.126 94.5242C164.986 94.3802 164.916 94.2062 164.916 94.0022C164.916 93.7942 164.986 93.6202 165.126 93.4802C165.27 93.3362 165.444 93.2642 165.648 93.2642C165.856 93.2642 166.032 93.3362 166.176 93.4802C166.32 93.6202 166.392 93.7942 166.392 94.0022C166.392 94.2062 166.32 94.3802 166.176 94.5242C166.032 94.6642 165.856 94.7342 165.648 94.7342Z" fill="#001A39"/>
<path d="M168.121 94.7342C167.917 94.7342 167.743 94.6642 167.599 94.5242C167.459 94.3802 167.389 94.2062 167.389 94.0022C167.389 93.7942 167.459 93.6202 167.599 93.4802C167.743 93.3362 167.917 93.2642 168.121 93.2642C168.329 93.2642 168.505 93.3362 168.649 93.4802C168.793 93.6202 168.865 93.7942 168.865 94.0022C168.865 94.2062 168.793 94.3802 168.649 94.5242C168.505 94.6642 168.329 94.7342 168.121 94.7342Z" fill="#001A39"/>
<path d="M170.593 94.7342C170.389 94.7342 170.215 94.6642 170.071 94.5242C169.931 94.3802 169.861 94.2062 169.861 94.0022C169.861 93.7942 169.931 93.6202 170.071 93.4802C170.215 93.3362 170.389 93.2642 170.593 93.2642C170.801 93.2642 170.977 93.3362 171.121 93.4802C171.265 93.6202 171.337 93.7942 171.337 94.0022C171.337 94.2062 171.265 94.3802 171.121 94.5242C170.977 94.6642 170.801 94.7342 170.593 94.7342Z" fill="#001A39"/>
<path d="M173.066 94.7342C172.862 94.7342 172.688 94.6642 172.544 94.5242C172.404 94.3802 172.334 94.2062 172.334 94.0022C172.334 93.7942 172.404 93.6202 172.544 93.4802C172.688 93.3362 172.862 93.2642 173.066 93.2642C173.274 93.2642 173.45 93.3362 173.594 93.4802C173.738 93.6202 173.81 93.7942 173.81 94.0022C173.81 94.2062 173.738 94.3802 173.594 94.5242C173.45 94.6642 173.274 94.7342 173.066 94.7342Z" fill="#001A39"/>
<path d="M175.539 94.7342C175.335 94.7342 175.161 94.6642 175.017 94.5242C174.877 94.3802 174.807 94.2062 174.807 94.0022C174.807 93.7942 174.877 93.6202 175.017 93.4802C175.161 93.3362 175.335 93.2642 175.539 93.2642C175.747 93.2642 175.923 93.3362 176.067 93.4802C176.211 93.6202 176.283 93.7942 176.283 94.0022C176.283 94.2062 176.211 94.3802 176.067 94.5242C175.923 94.6642 175.747 94.7342 175.539 94.7342Z" fill="#001A39"/>
<path d="M178.011 94.7342C177.807 94.7342 177.633 94.6642 177.489 94.5242C177.349 94.3802 177.279 94.2062 177.279 94.0022C177.279 93.7942 177.349 93.6202 177.489 93.4802C177.633 93.3362 177.807 93.2642 178.011 93.2642C178.219 93.2642 178.395 93.3362 178.539 93.4802C178.683 93.6202 178.755 93.7942 178.755 94.0022C178.755 94.2062 178.683 94.3802 178.539 94.5242C178.395 94.6642 178.219 94.7342 178.011 94.7342Z" fill="#001A39"/>
<path d="M180.484 94.7342C180.28 94.7342 180.106 94.6642 179.962 94.5242C179.822 94.3802 179.752 94.2062 179.752 94.0022C179.752 93.7942 179.822 93.6202 179.962 93.4802C180.106 93.3362 180.28 93.2642 180.484 93.2642C180.692 93.2642 180.868 93.3362 181.012 93.4802C181.156 93.6202 181.228 93.7942 181.228 94.0022C181.228 94.2062 181.156 94.3802 181.012 94.5242C180.868 94.6642 180.692 94.7342 180.484 94.7342Z" fill="#001A39"/>
<path d="M182.957 94.7342C182.753 94.7342 182.579 94.6642 182.435 94.5242C182.295 94.3802 182.225 94.2062 182.225 94.0022C182.225 93.7942 182.295 93.6202 182.435 93.4802C182.579 93.3362 182.753 93.2642 182.957 93.2642C183.165 93.2642 183.341 93.3362 183.485 93.4802C183.629 93.6202 183.701 93.7942 183.701 94.0022C183.701 94.2062 183.629 94.3802 183.485 94.5242C183.341 94.6642 183.165 94.7342 182.957 94.7342Z" fill="#001A39"/>
<path d="M185.429 94.7342C185.225 94.7342 185.051 94.6642 184.907 94.5242C184.767 94.3802 184.697 94.2062 184.697 94.0022C184.697 93.7942 184.767 93.6202 184.907 93.4802C185.051 93.3362 185.225 93.2642 185.429 93.2642C185.637 93.2642 185.813 93.3362 185.957 93.4802C186.101 93.6202 186.173 93.7942 186.173 94.0022C186.173 94.2062 186.101 94.3802 185.957 94.5242C185.813 94.6642 185.637 94.7342 185.429 94.7342Z" fill="#001A39"/>
<path d="M187.902 94.7342C187.698 94.7342 187.524 94.6642 187.38 94.5242C187.24 94.3802 187.17 94.2062 187.17 94.0022C187.17 93.7942 187.24 93.6202 187.38 93.4802C187.524 93.3362 187.698 93.2642 187.902 93.2642C188.11 93.2642 188.286 93.3362 188.43 93.4802C188.574 93.6202 188.646 93.7942 188.646 94.0022C188.646 94.2062 188.574 94.3802 188.43 94.5242C188.286 94.6642 188.11 94.7342 187.902 94.7342Z" fill="#001A39"/>
<path d="M190.375 94.7342C190.171 94.7342 189.997 94.6642 189.853 94.5242C189.713 94.3802 189.643 94.2062 189.643 94.0022C189.643 93.7942 189.713 93.6202 189.853 93.4802C189.997 93.3362 190.171 93.2642 190.375 93.2642C190.583 93.2642 190.759 93.3362 190.903 93.4802C191.047 93.6202 191.119 93.7942 191.119 94.0022C191.119 94.2062 191.047 94.3802 190.903 94.5242C190.759 94.6642 190.583 94.7342 190.375 94.7342Z" fill="#001A39"/>
<path d="M192.847 94.7342C192.643 94.7342 192.469 94.6642 192.325 94.5242C192.185 94.3802 192.115 94.2062 192.115 94.0022C192.115 93.7942 192.185 93.6202 192.325 93.4802C192.469 93.3362 192.643 93.2642 192.847 93.2642C193.055 93.2642 193.231 93.3362 193.375 93.4802C193.519 93.6202 193.591 93.7942 193.591 94.0022C193.591 94.2062 193.519 94.3802 193.375 94.5242C193.231 94.6642 193.055 94.7342 192.847 94.7342Z" fill="#001A39"/>
<path d="M195.32 94.7342C195.116 94.7342 194.942 94.6642 194.798 94.5242C194.658 94.3802 194.588 94.2062 194.588 94.0022C194.588 93.7942 194.658 93.6202 194.798 93.4802C194.942 93.3362 195.116 93.2642 195.32 93.2642C195.528 93.2642 195.704 93.3362 195.848 93.4802C195.992 93.6202 196.064 93.7942 196.064 94.0022C196.064 94.2062 195.992 94.3802 195.848 94.5242C195.704 94.6642 195.528 94.7342 195.32 94.7342Z" fill="#001A39"/>
<path d="M158.23 126.734C158.026 126.734 157.852 126.664 157.708 126.524C157.568 126.38 157.498 126.206 157.498 126.002C157.498 125.794 157.568 125.62 157.708 125.48C157.852 125.336 158.026 125.264 158.23 125.264C158.438 125.264 158.614 125.336 158.758 125.48C158.902 125.62 158.974 125.794 158.974 126.002C158.974 126.206 158.902 126.38 158.758 126.524C158.614 126.664 158.438 126.734 158.23 126.734Z" fill="#001A39"/>
<path d="M160.703 126.734C160.499 126.734 160.325 126.664 160.181 126.524C160.041 126.38 159.971 126.206 159.971 126.002C159.971 125.794 160.041 125.62 160.181 125.48C160.325 125.336 160.499 125.264 160.703 125.264C160.911 125.264 161.087 125.336 161.231 125.48C161.375 125.62 161.447 125.794 161.447 126.002C161.447 126.206 161.375 126.38 161.231 126.524C161.087 126.664 160.911 126.734 160.703 126.734Z" fill="#001A39"/>
<path d="M163.175 126.734C162.971 126.734 162.797 126.664 162.653 126.524C162.513 126.38 162.443 126.206 162.443 126.002C162.443 125.794 162.513 125.62 162.653 125.48C162.797 125.336 162.971 125.264 163.175 125.264C163.383 125.264 163.559 125.336 163.703 125.48C163.847 125.62 163.919 125.794 163.919 126.002C163.919 126.206 163.847 126.38 163.703 126.524C163.559 126.664 163.383 126.734 163.175 126.734Z" fill="#001A39"/>
<path d="M165.648 126.734C165.444 126.734 165.27 126.664 165.126 126.524C164.986 126.38 164.916 126.206 164.916 126.002C164.916 125.794 164.986 125.62 165.126 125.48C165.27 125.336 165.444 125.264 165.648 125.264C165.856 125.264 166.032 125.336 166.176 125.48C166.32 125.62 166.392 125.794 166.392 126.002C166.392 126.206 166.32 126.38 166.176 126.524C166.032 126.664 165.856 126.734 165.648 126.734Z" fill="#001A39"/>
<path d="M168.121 126.734C167.917 126.734 167.743 126.664 167.599 126.524C167.459 126.38 167.389 126.206 167.389 126.002C167.389 125.794 167.459 125.62 167.599 125.48C167.743 125.336 167.917 125.264 168.121 125.264C168.329 125.264 168.505 125.336 168.649 125.48C168.793 125.62 168.865 125.794 168.865 126.002C168.865 126.206 168.793 126.38 168.649 126.524C168.505 126.664 168.329 126.734 168.121 126.734Z" fill="#001A39"/>
<path d="M170.593 126.734C170.389 126.734 170.215 126.664 170.071 126.524C169.931 126.38 169.861 126.206 169.861 126.002C169.861 125.794 169.931 125.62 170.071 125.48C170.215 125.336 170.389 125.264 170.593 125.264C170.801 125.264 170.977 125.336 171.121 125.48C171.265 125.62 171.337 125.794 171.337 126.002C171.337 126.206 171.265 126.38 171.121 126.524C170.977 126.664 170.801 126.734 170.593 126.734Z" fill="#001A39"/>
<path d="M173.066 126.734C172.862 126.734 172.688 126.664 172.544 126.524C172.404 126.38 172.334 126.206 172.334 126.002C172.334 125.794 172.404 125.62 172.544 125.48C172.688 125.336 172.862 125.264 173.066 125.264C173.274 125.264 173.45 125.336 173.594 125.48C173.738 125.62 173.81 125.794 173.81 126.002C173.81 126.206 173.738 126.38 173.594 126.524C173.45 126.664 173.274 126.734 173.066 126.734Z" fill="#001A39"/>
<path d="M175.539 126.734C175.335 126.734 175.161 126.664 175.017 126.524C174.877 126.38 174.807 126.206 174.807 126.002C174.807 125.794 174.877 125.62 175.017 125.48C175.161 125.336 175.335 125.264 175.539 125.264C175.747 125.264 175.923 125.336 176.067 125.48C176.211 125.62 176.283 125.794 176.283 126.002C176.283 126.206 176.211 126.38 176.067 126.524C175.923 126.664 175.747 126.734 175.539 126.734Z" fill="#001A39"/>
<path d="M178.011 126.734C177.807 126.734 177.633 126.664 177.489 126.524C177.349 126.38 177.279 126.206 177.279 126.002C177.279 125.794 177.349 125.62 177.489 125.48C177.633 125.336 177.807 125.264 178.011 125.264C178.219 125.264 178.395 125.336 178.539 125.48C178.683 125.62 178.755 125.794 178.755 126.002C178.755 126.206 178.683 126.38 178.539 126.524C178.395 126.664 178.219 126.734 178.011 126.734Z" fill="#001A39"/>
<path d="M180.484 126.734C180.28 126.734 180.106 126.664 179.962 126.524C179.822 126.38 179.752 126.206 179.752 126.002C179.752 125.794 179.822 125.62 179.962 125.48C180.106 125.336 180.28 125.264 180.484 125.264C180.692 125.264 180.868 125.336 181.012 125.48C181.156 125.62 181.228 125.794 181.228 126.002C181.228 126.206 181.156 126.38 181.012 126.524C180.868 126.664 180.692 126.734 180.484 126.734Z" fill="#001A39"/>
<path d="M154.434 79.8362C154.282 79.8362 154.142 79.8002 154.014 79.7282C153.886 79.6522 153.784 79.5502 153.708 79.4222C153.636 79.2942 153.6 79.1542 153.6 79.0022C153.6 78.8462 153.636 78.7042 153.708 78.5762C153.784 78.4482 153.886 78.3482 154.014 78.2762C154.142 78.2002 154.282 78.1622 154.434 78.1622C154.59 78.1622 154.732 78.2002 154.86 78.2762C154.992 78.3482 155.094 78.4482 155.166 78.5762C155.242 78.7042 155.28 78.8462 155.28 79.0022C155.28 79.1542 155.242 79.2942 155.166 79.4222C155.094 79.5502 154.992 79.6522 154.86 79.7282C154.732 79.8002 154.59 79.8362 154.434 79.8362Z" fill="#001A39"/>
<path d="M157.317 79.8362C157.165 79.8362 157.025 79.8002 156.897 79.7282C156.769 79.6522 156.667 79.5502 156.591 79.4222C156.519 79.2942 156.483 79.1542 156.483 79.0022C156.483 78.8462 156.519 78.7042 156.591 78.5762C156.667 78.4482 156.769 78.3482 156.897 78.2762C157.025 78.2002 157.165 78.1622 157.317 78.1622C157.473 78.1622 157.615 78.2002 157.743 78.2762C157.875 78.3482 157.977 78.4482 158.049 78.5762C158.125 78.7042 158.163 78.8462 158.163 79.0022C158.163 79.1542 158.125 79.2942 158.049 79.4222C157.977 79.5502 157.875 79.6522 157.743 79.7282C157.615 79.8002 157.473 79.8362 157.317 79.8362Z" fill="#001A39"/>
<path d="M160.2 79.8362C160.048 79.8362 159.908 79.8002 159.78 79.7282C159.652 79.6522 159.55 79.5502 159.474 79.4222C159.402 79.2942 159.366 79.1542 159.366 79.0022C159.366 78.8462 159.402 78.7042 159.474 78.5762C159.55 78.4482 159.652 78.3482 159.78 78.2762C159.908 78.2002 160.048 78.1622 160.2 78.1622C160.356 78.1622 160.498 78.2002 160.626 78.2762C160.758 78.3482 160.86 78.4482 160.932 78.5762C161.008 78.7042 161.046 78.8462 161.046 79.0022C161.046 79.1542 161.008 79.2942 160.932 79.4222C160.86 79.5502 160.758 79.6522 160.626 79.7282C160.498 79.8002 160.356 79.8362 160.2 79.8362Z" fill="#001A39"/>
<path d="M163.083 79.8362C162.931 79.8362 162.791 79.8002 162.663 79.7282C162.535 79.6522 162.433 79.5502 162.357 79.4222C162.285 79.2942 162.249 79.1542 162.249 79.0022C162.249 78.8462 162.285 78.7042 162.357 78.5762C162.433 78.4482 162.535 78.3482 162.663 78.2762C162.791 78.2002 162.931 78.1622 163.083 78.1622C163.239 78.1622 163.381 78.2002 163.509 78.2762C163.641 78.3482 163.743 78.4482 163.815 78.5762C163.891 78.7042 163.929 78.8462 163.929 79.0022C163.929 79.1542 163.891 79.2942 163.815 79.4222C163.743 79.5502 163.641 79.6522 163.509 79.7282C163.381 79.8002 163.239 79.8362 163.083 79.8362Z" fill="#001A39"/>
<path d="M154.434 111.836C154.282 111.836 154.142 111.8 154.014 111.728C153.886 111.652 153.784 111.55 153.708 111.422C153.636 111.294 153.6 111.154 153.6 111.002C153.6 110.846 153.636 110.704 153.708 110.576C153.784 110.448 153.886 110.348 154.014 110.276C154.142 110.2 154.282 110.162 154.434 110.162C154.59 110.162 154.732 110.2 154.86 110.276C154.992 110.348 155.094 110.448 155.166 110.576C155.242 110.704 155.28 110.846 155.28 111.002C155.28 111.154 155.242 111.294 155.166 111.422C155.094 111.55 154.992 111.652 154.86 111.728C154.732 111.8 154.59 111.836 154.434 111.836Z" fill="#001A39"/>
<path d="M157.317 111.836C157.165 111.836 157.025 111.8 156.897 111.728C156.769 111.652 156.667 111.55 156.591 111.422C156.519 111.294 156.483 111.154 156.483 111.002C156.483 110.846 156.519 110.704 156.591 110.576C156.667 110.448 156.769 110.348 156.897 110.276C157.025 110.2 157.165 110.162 157.317 110.162C157.473 110.162 157.615 110.2 157.743 110.276C157.875 110.348 157.977 110.448 158.049 110.576C158.125 110.704 158.163 110.846 158.163 111.002C158.163 111.154 158.125 111.294 158.049 111.422C157.977 111.55 157.875 111.652 157.743 111.728C157.615 111.8 157.473 111.836 157.317 111.836Z" fill="#001A39"/>
<path d="M160.2 111.836C160.048 111.836 159.908 111.8 159.78 111.728C159.652 111.652 159.55 111.55 159.474 111.422C159.402 111.294 159.366 111.154 159.366 111.002C159.366 110.846 159.402 110.704 159.474 110.576C159.55 110.448 159.652 110.348 159.78 110.276C159.908 110.2 160.048 110.162 160.2 110.162C160.356 110.162 160.498 110.2 160.626 110.276C160.758 110.348 160.86 110.448 160.932 110.576C161.008 110.704 161.046 110.846 161.046 111.002C161.046 111.154 161.008 111.294 160.932 111.422C160.86 111.55 160.758 111.652 160.626 111.728C160.498 111.8 160.356 111.836 160.2 111.836Z" fill="#001A39"/>
<path d="M163.083 111.836C162.931 111.836 162.791 111.8 162.663 111.728C162.535 111.652 162.433 111.55 162.357 111.422C162.285 111.294 162.249 111.154 162.249 111.002C162.249 110.846 162.285 110.704 162.357 110.576C162.433 110.448 162.535 110.348 162.663 110.276C162.791 110.2 162.931 110.162 163.083 110.162C163.239 110.162 163.381 110.2 163.509 110.276C163.641 110.348 163.743 110.448 163.815 110.576C163.891 110.704 163.929 110.846 163.929 111.002C163.929 111.154 163.891 111.294 163.815 111.422C163.743 111.55 163.641 111.652 163.509 111.728C163.381 111.8 163.239 111.836 163.083 111.836Z" fill="#001A39"/>
<path d="M165.965 111.836C165.813 111.836 165.673 111.8 165.545 111.728C165.417 111.652 165.315 111.55 165.239 111.422C165.167 111.294 165.131 111.154 165.131 111.002C165.131 110.846 165.167 110.704 165.239 110.576C165.315 110.448 165.417 110.348 165.545 110.276C165.673 110.2 165.813 110.162 165.965 110.162C166.121 110.162 166.263 110.2 166.391 110.276C166.523 110.348 166.625 110.448 166.697 110.576C166.773 110.704 166.811 110.846 166.811 111.002C166.811 111.154 166.773 111.294 166.697 111.422C166.625 111.55 166.523 111.652 166.391 111.728C166.263 111.8 166.121 111.836 165.965 111.836Z" fill="#001A39"/>
<path d="M170.278 111.836C170.126 111.836 169.986 111.8 169.858 111.728C169.73 111.652 169.628 111.55 169.552 111.422C169.48 111.294 169.444 111.154 169.444 111.002C169.444 110.846 169.48 110.704 169.552 110.576C169.628 110.448 169.73 110.348 169.858 110.276C169.986 110.2 170.126 110.162 170.278 110.162C170.434 110.162 170.576 110.2 170.704 110.276C170.836 110.348 170.938 110.448 171.01 110.576C171.086 110.704 171.124 110.846 171.124 111.002C171.124 111.154 171.086 111.294 171.01 111.422C170.938 111.55 170.836 111.652 170.704 111.728C170.576 111.8 170.434 111.836 170.278 111.836Z" fill="#001A39"/>
<path d="M173.161 111.836C173.009 111.836 172.869 111.8 172.741 111.728C172.613 111.652 172.511 111.55 172.435 111.422C172.363 111.294 172.327 111.154 172.327 111.002C172.327 110.846 172.363 110.704 172.435 110.576C172.511 110.448 172.613 110.348 172.741 110.276C172.869 110.2 173.009 110.162 173.161 110.162C173.317 110.162 173.459 110.2 173.587 110.276C173.719 110.348 173.821 110.448 173.893 110.576C173.969 110.704 174.007 110.846 174.007 111.002C174.007 111.154 173.969 111.294 173.893 111.422C173.821 111.55 173.719 111.652 173.587 111.728C173.459 111.8 173.317 111.836 173.161 111.836Z" fill="#001A39"/>
<path d="M176.043 111.836C175.891 111.836 175.751 111.8 175.623 111.728C175.495 111.652 175.393 111.55 175.317 111.422C175.245 111.294 175.209 111.154 175.209 111.002C175.209 110.846 175.245 110.704 175.317 110.576C175.393 110.448 175.495 110.348 175.623 110.276C175.751 110.2 175.891 110.162 176.043 110.162C176.199 110.162 176.341 110.2 176.469 110.276C176.601 110.348 176.703 110.448 176.775 110.576C176.851 110.704 176.889 110.846 176.889 111.002C176.889 111.154 176.851 111.294 176.775 111.422C176.703 111.55 176.601 111.652 176.469 111.728C176.341 111.8 176.199 111.836 176.043 111.836Z" fill="#001A39"/>
<path d="M178.926 111.836C178.774 111.836 178.634 111.8 178.506 111.728C178.378 111.652 178.276 111.55 178.2 111.422C178.128 111.294 178.092 111.154 178.092 111.002C178.092 110.846 178.128 110.704 178.2 110.576C178.276 110.448 178.378 110.348 178.506 110.276C178.634 110.2 178.774 110.162 178.926 110.162C179.082 110.162 179.224 110.2 179.352 110.276C179.484 110.348 179.586 110.448 179.658 110.576C179.734 110.704 179.772 110.846 179.772 111.002C179.772 111.154 179.734 111.294 179.658 111.422C179.586 111.55 179.484 111.652 179.352 111.728C179.224 111.8 179.082 111.836 178.926 111.836Z" fill="#001A39"/>
<path d="M181.809 111.836C181.657 111.836 181.517 111.8 181.389 111.728C181.261 111.652 181.159 111.55 181.083 111.422C181.011 111.294 180.975 111.154 180.975 111.002C180.975 110.846 181.011 110.704 181.083 110.576C181.159 110.448 181.261 110.348 181.389 110.276C181.517 110.2 181.657 110.162 181.809 110.162C181.965 110.162 182.107 110.2 182.235 110.276C182.367 110.348 182.469 110.448 182.541 110.576C182.617 110.704 182.655 110.846 182.655 111.002C182.655 111.154 182.617 111.294 182.541 111.422C182.469 111.55 182.367 111.652 182.235 111.728C182.107 111.8 181.965 111.836 181.809 111.836Z" fill="#001A39"/>
<path d="M184.692 111.836C184.54 111.836 184.4 111.8 184.272 111.728C184.144 111.652 184.042 111.55 183.966 111.422C183.894 111.294 183.858 111.154 183.858 111.002C183.858 110.846 183.894 110.704 183.966 110.576C184.042 110.448 184.144 110.348 184.272 110.276C184.4 110.2 184.54 110.162 184.692 110.162C184.848 110.162 184.99 110.2 185.118 110.276C185.25 110.348 185.352 110.448 185.424 110.576C185.5 110.704 185.538 110.846 185.538 111.002C185.538 111.154 185.5 111.294 185.424 111.422C185.352 111.55 185.25 111.652 185.118 111.728C184.99 111.8 184.848 111.836 184.692 111.836Z" fill="#001A39"/>
<path d="M187.575 111.836C187.423 111.836 187.283 111.8 187.155 111.728C187.027 111.652 186.925 111.55 186.849 111.422C186.777 111.294 186.741 111.154 186.741 111.002C186.741 110.846 186.777 110.704 186.849 110.576C186.925 110.448 187.027 110.348 187.155 110.276C187.283 110.2 187.423 110.162 187.575 110.162C187.731 110.162 187.873 110.2 188.001 110.276C188.133 110.348 188.235 110.448 188.307 110.576C188.383 110.704 188.421 110.846 188.421 111.002C188.421 111.154 188.383 111.294 188.307 111.422C188.235 111.55 188.133 111.652 188.001 111.728C187.873 111.8 187.731 111.836 187.575 111.836Z" fill="#001A39"/>
<path d="M154.434 143.836C154.282 143.836 154.142 143.8 154.014 143.728C153.886 143.652 153.784 143.55 153.708 143.422C153.636 143.294 153.6 143.154 153.6 143.002C153.6 142.846 153.636 142.704 153.708 142.576C153.784 142.448 153.886 142.348 154.014 142.276C154.142 142.2 154.282 142.162 154.434 142.162C154.59 142.162 154.732 142.2 154.86 142.276C154.992 142.348 155.094 142.448 155.166 142.576C155.242 142.704 155.28 142.846 155.28 143.002C155.28 143.154 155.242 143.294 155.166 143.422C155.094 143.55 154.992 143.652 154.86 143.728C154.732 143.8 154.59 143.836 154.434 143.836Z" fill="#001A39"/>
<path d="M157.317 143.836C157.165 143.836 157.025 143.8 156.897 143.728C156.769 143.652 156.667 143.55 156.591 143.422C156.519 143.294 156.483 143.154 156.483 143.002C156.483 142.846 156.519 142.704 156.591 142.576C156.667 142.448 156.769 142.348 156.897 142.276C157.025 142.2 157.165 142.162 157.317 142.162C157.473 142.162 157.615 142.2 157.743 142.276C157.875 142.348 157.977 142.448 158.049 142.576C158.125 142.704 158.163 142.846 158.163 143.002C158.163 143.154 158.125 143.294 158.049 143.422C157.977 143.55 157.875 143.652 157.743 143.728C157.615 143.8 157.473 143.836 157.317 143.836Z" fill="#001A39"/>
<path d="M160.2 143.836C160.048 143.836 159.908 143.8 159.78 143.728C159.652 143.652 159.55 143.55 159.474 143.422C159.402 143.294 159.366 143.154 159.366 143.002C159.366 142.846 159.402 142.704 159.474 142.576C159.55 142.448 159.652 142.348 159.78 142.276C159.908 142.2 160.048 142.162 160.2 142.162C160.356 142.162 160.498 142.2 160.626 142.276C160.758 142.348 160.86 142.448 160.932 142.576C161.008 142.704 161.046 142.846 161.046 143.002C161.046 143.154 161.008 143.294 160.932 143.422C160.86 143.55 160.758 143.652 160.626 143.728C160.498 143.8 160.356 143.836 160.2 143.836Z" fill="#001A39"/>
<path d="M163.083 143.836C162.931 143.836 162.791 143.8 162.663 143.728C162.535 143.652 162.433 143.55 162.357 143.422C162.285 143.294 162.249 143.154 162.249 143.002C162.249 142.846 162.285 142.704 162.357 142.576C162.433 142.448 162.535 142.348 162.663 142.276C162.791 142.2 162.931 142.162 163.083 142.162C163.239 142.162 163.381 142.2 163.509 142.276C163.641 142.348 163.743 142.448 163.815 142.576C163.891 142.704 163.929 142.846 163.929 143.002C163.929 143.154 163.891 143.294 163.815 143.422C163.743 143.55 163.641 143.652 163.509 143.728C163.381 143.8 163.239 143.836 163.083 143.836Z" fill="#001A39"/>
<path d="M165.965 143.836C165.813 143.836 165.673 143.8 165.545 143.728C165.417 143.652 165.315 143.55 165.239 143.422C165.167 143.294 165.131 143.154 165.131 143.002C165.131 142.846 165.167 142.704 165.239 142.576C165.315 142.448 165.417 142.348 165.545 142.276C165.673 142.2 165.813 142.162 165.965 142.162C166.121 142.162 166.263 142.2 166.391 142.276C166.523 142.348 166.625 142.448 166.697 142.576C166.773 142.704 166.811 142.846 166.811 143.002C166.811 143.154 166.773 143.294 166.697 143.422C166.625 143.55 166.523 143.652 166.391 143.728C166.263 143.8 166.121 143.836 165.965 143.836Z" fill="#001A39"/>
<path d="M168.848 143.836C168.696 143.836 168.556 143.8 168.428 143.728C168.3 143.652 168.198 143.55 168.122 143.422C168.05 143.294 168.014 143.154 168.014 143.002C168.014 142.846 168.05 142.704 168.122 142.576C168.198 142.448 168.3 142.348 168.428 142.276C168.556 142.2 168.696 142.162 168.848 142.162C169.004 142.162 169.146 142.2 169.274 142.276C169.406 142.348 169.508 142.448 169.58 142.576C169.656 142.704 169.694 142.846 169.694 143.002C169.694 143.154 169.656 143.294 169.58 143.422C169.508 143.55 169.406 143.652 169.274 143.728C169.146 143.8 169.004 143.836 168.848 143.836Z" fill="#001A39"/>
<path d="M171.731 143.836C171.579 143.836 171.439 143.8 171.311 143.728C171.183 143.652 171.081 143.55 171.005 143.422C170.933 143.294 170.897 143.154 170.897 143.002C170.897 142.846 170.933 142.704 171.005 142.576C171.081 142.448 171.183 142.348 171.311 142.276C171.439 142.2 171.579 142.162 171.731 142.162C171.887 142.162 172.029 142.2 172.157 142.276C172.289 142.348 172.391 142.448 172.463 142.576C172.539 142.704 172.577 142.846 172.577 143.002C172.577 143.154 172.539 143.294 172.463 143.422C172.391 143.55 172.289 143.652 172.157 143.728C172.029 143.8 171.887 143.836 171.731 143.836Z" fill="#001A39"/>
<path d="M162.668 208.836C162.516 208.836 162.376 208.8 162.248 208.728C162.12 208.652 162.018 208.55 161.942 208.422C161.87 208.294 161.834 208.154 161.834 208.002C161.834 207.846 161.87 207.704 161.942 207.576C162.018 207.448 162.12 207.348 162.248 207.276C162.376 207.2 162.516 207.162 162.668 207.162C162.824 207.162 162.966 207.2 163.094 207.276C163.226 207.348 163.328 207.448 163.4 207.576C163.476 207.704 163.514 207.846 163.514 208.002C163.514 208.154 163.476 208.294 163.4 208.422C163.328 208.55 163.226 208.652 163.094 208.728C162.966 208.8 162.824 208.836 162.668 208.836Z" fill="white"/>
<path d="M165.551 208.836C165.399 208.836 165.259 208.8 165.131 208.728C165.003 208.652 164.901 208.55 164.825 208.422C164.753 208.294 164.717 208.154 164.717 208.002C164.717 207.846 164.753 207.704 164.825 207.576C164.901 207.448 165.003 207.348 165.131 207.276C165.259 207.2 165.399 207.162 165.551 207.162C165.707 207.162 165.849 207.2 165.977 207.276C166.109 207.348 166.211 207.448 166.283 207.576C166.359 207.704 166.397 207.846 166.397 208.002C166.397 208.154 166.359 208.294 166.283 208.422C166.211 208.55 166.109 208.652 165.977 208.728C165.849 208.8 165.707 208.836 165.551 208.836Z" fill="white"/>
<path d="M168.434 208.836C168.282 208.836 168.142 208.8 168.014 208.728C167.886 208.652 167.784 208.55 167.708 208.422C167.636 208.294 167.6 208.154 167.6 208.002C167.6 207.846 167.636 207.704 167.708 207.576C167.784 207.448 167.886 207.348 168.014 207.276C168.142 207.2 168.282 207.162 168.434 207.162C168.59 207.162 168.732 207.2 168.86 207.276C168.992 207.348 169.094 207.448 169.166 207.576C169.242 207.704 169.28 207.846 169.28 208.002C169.28 208.154 169.242 208.294 169.166 208.422C169.094 208.55 168.992 208.652 168.86 208.728C168.732 208.8 168.59 208.836 168.434 208.836Z" fill="white"/>
<path d="M171.317 208.836C171.165 208.836 171.025 208.8 170.897 208.728C170.769 208.652 170.667 208.55 170.591 208.422C170.519 208.294 170.483 208.154 170.483 208.002C170.483 207.846 170.519 207.704 170.591 207.576C170.667 207.448 170.769 207.348 170.897 207.276C171.025 207.2 171.165 207.162 171.317 207.162C171.473 207.162 171.615 207.2 171.743 207.276C171.875 207.348 171.977 207.448 172.049 207.576C172.125 207.704 172.163 207.846 172.163 208.002C172.163 208.154 172.125 208.294 172.049 208.422C171.977 208.55 171.875 208.652 171.743 208.728C171.615 208.8 171.473 208.836 171.317 208.836Z" fill="white"/>
<path fill-rule="evenodd" clip-rule="evenodd" d="M330 87.0002H156C154.895 87.0002 154 87.8956 154 89.0002V99.0002C154 100.105 154.895 101 156 101H330C331.105 101 332 100.105 332 99.0002V89.0002C332 87.8956 331.105 87.0002 330 87.0002ZM156 86.0002C154.343 86.0002 153 87.3433 153 89.0002V99.0002C153 100.657 154.343 102 156 102H330C331.657 102 333 100.657 333 99.0002V89.0002C333 87.3433 331.657 86.0002 330 86.0002H156Z" fill="#D7D7D7"/>
<path fill-rule="evenodd" clip-rule="evenodd" d="M330 119H156C154.895 119 154 119.896 154 121V131C154 132.105 154.895 133 156 133H330C331.105 133 332 132.105 332 131V121C332 119.896 331.105 119 330 119ZM156 118C154.343 118 153 119.343 153 121V131C153 132.657 154.343 134 156 134H330C331.657 134 333 132.657 333 131V121C333 119.343 331.657 118 330 118H156Z" fill="#0768C1"/>
<path fill-rule="evenodd" clip-rule="evenodd" d="M330 151H156C154.895 151 154 151.896 154 153V193C154 194.105 154.895 195 156 195H330C331.105 195 332 194.105 332 193V153C332 151.896 331.105 151 330 151ZM156 150C154.343 150 153 151.343 153 153V193C153 194.657 154.343 196 156 196H330C331.657 196 333 194.657 333 193V153C333 151.343 331.657 150 330 150H156Z" fill="#D7D7D7"/>
<path d="M183 121H183.5V131H183V121Z" fill="#001A39"/>
</svg>
