<svg width="352" height="240" viewBox="0 0 352 240" fill="none" xmlns="http://www.w3.org/2000/svg">
<path d="M0 8.00001C0 3.58173 3.58172 0 8 0H344C348.418 0 352 3.58172 352 8V232C352 236.418 348.418 240 344 240H7.99999C3.58171 240 0 236.418 0 232V8.00001Z" fill="white"/>
<path fill-rule="evenodd" clip-rule="evenodd" d="M344 1H8C4.13401 1 1 4.13401 1 8.00001V232C1 235.866 4.134 239 7.99999 239H344C347.866 239 351 235.866 351 232V8C351 4.13401 347.866 1 344 1ZM8 0C3.58172 0 0 3.58173 0 8.00001V232C0 236.418 3.58171 240 7.99999 240H344C348.418 240 352 236.418 352 232V8C352 3.58172 348.418 0 344 0H8Z" fill="#D7D7D7"/>
<path d="M153 204C153 201.791 154.791 200 157 200H177C179.209 200 181 201.791 181 204V212C181 214.209 179.209 216 177 216H157C154.791 216 153 214.209 153 212V204Z" fill="#0768C1"/>
<path d="M159.66 30.144C159.468 29.792 159.204 29.524 158.868 29.34C158.532 29.156 158.14 29.064 157.692 29.064C157.196 29.064 156.756 29.176 156.372 29.4C155.988 29.624 155.688 29.944 155.472 30.36C155.256 30.776 155.148 31.256 155.148 31.8C155.148 32.36 155.256 32.848 155.472 33.264C155.696 33.68 156.004 34 156.396 34.224C156.788 34.448 157.244 34.56 157.764 34.56C158.404 34.56 158.928 34.392 159.336 34.056C159.744 33.712 160.012 33.236 160.14 32.628H157.26V31.344H161.796V32.808C161.684 33.392 161.444 33.932 161.076 34.428C160.708 34.924 160.232 35.324 159.648 35.628C159.072 35.924 158.424 36.072 157.704 36.072C156.896 36.072 156.164 35.892 155.508 35.532C154.86 35.164 154.348 34.656 153.972 34.008C153.604 33.36 153.42 32.624 153.42 31.8C153.42 30.976 153.604 30.24 153.972 29.592C154.348 28.936 154.86 28.428 155.508 28.068C156.164 27.7 156.892 27.516 157.692 27.516C158.636 27.516 159.456 27.748 160.152 28.212C160.848 28.668 161.328 29.312 161.592 30.144H159.66Z" fill="#001A39"/>
<path d="M169.219 32.532C169.219 32.772 169.203 32.988 169.171 33.18H164.311C164.351 33.66 164.519 34.036 164.815 34.308C165.111 34.58 165.475 34.716 165.907 34.716C166.531 34.716 166.975 34.448 167.239 33.912H169.051C168.859 34.552 168.491 35.08 167.947 35.496C167.403 35.904 166.735 36.108 165.943 36.108C165.303 36.108 164.727 35.968 164.215 35.688C163.711 35.4 163.315 34.996 163.027 34.476C162.747 33.956 162.607 33.356 162.607 32.676C162.607 31.988 162.747 31.384 163.027 30.864C163.307 30.344 163.699 29.944 164.203 29.664C164.707 29.384 165.287 29.244 165.943 29.244C166.575 29.244 167.139 29.38 167.635 29.652C168.139 29.924 168.527 30.312 168.799 30.816C169.079 31.312 169.219 31.884 169.219 32.532ZM167.479 32.052C167.471 31.62 167.315 31.276 167.011 31.02C166.707 30.756 166.335 30.624 165.895 30.624C165.479 30.624 165.127 30.752 164.839 31.008C164.559 31.256 164.387 31.604 164.323 32.052H167.479Z" fill="#001A39"/>
<path d="M172.401 30.732V33.948C172.401 34.172 172.453 34.336 172.557 34.44C172.669 34.536 172.853 34.584 173.109 34.584H173.889V36H172.833C171.417 36 170.709 35.312 170.709 33.936V30.732H169.917V29.352H170.709V27.708H172.401V29.352H173.889V30.732H172.401Z" fill="#001A39"/>
<path d="M178.809 28.56C178.513 28.56 178.265 28.468 178.065 28.284C177.873 28.092 177.777 27.856 177.777 27.576C177.777 27.296 177.873 27.064 178.065 26.88C178.265 26.688 178.513 26.592 178.809 26.592C179.105 26.592 179.349 26.688 179.541 26.88C179.741 27.064 179.841 27.296 179.841 27.576C179.841 27.856 179.741 28.092 179.541 28.284C179.349 28.468 179.105 28.56 178.809 28.56ZM179.637 29.352V36H177.957V29.352H179.637Z" fill="#001A39"/>
<path d="M184.981 29.256C185.773 29.256 186.413 29.508 186.901 30.012C187.389 30.508 187.633 31.204 187.633 32.1V36H185.953V32.328C185.953 31.8 185.821 31.396 185.557 31.116C185.293 30.828 184.933 30.684 184.477 30.684C184.013 30.684 183.645 30.828 183.373 31.116C183.109 31.396 182.977 31.8 182.977 32.328V36H181.297V29.352H182.977V30.18C183.201 29.892 183.485 29.668 183.829 29.508C184.181 29.34 184.565 29.256 184.981 29.256Z" fill="#001A39"/>
<path d="M194.046 30.732V33.948C194.046 34.172 194.098 34.336 194.202 34.44C194.314 34.536 194.498 34.584 194.754 34.584H195.534V36H194.478C193.062 36 192.354 35.312 192.354 33.936V30.732H191.562V29.352H192.354V27.708H194.046V29.352H195.534V30.732H194.046Z" fill="#001A39"/>
<path d="M199.694 36.108C199.054 36.108 198.478 35.968 197.966 35.688C197.454 35.4 197.05 34.996 196.754 34.476C196.466 33.956 196.322 33.356 196.322 32.676C196.322 31.996 196.47 31.396 196.766 30.876C197.07 30.356 197.482 29.956 198.002 29.676C198.522 29.388 199.102 29.244 199.742 29.244C200.382 29.244 200.962 29.388 201.482 29.676C202.002 29.956 202.41 30.356 202.706 30.876C203.01 31.396 203.162 31.996 203.162 32.676C203.162 33.356 203.006 33.956 202.694 34.476C202.39 34.996 201.974 35.4 201.446 35.688C200.926 35.968 200.342 36.108 199.694 36.108ZM199.694 34.644C199.998 34.644 200.282 34.572 200.546 34.428C200.818 34.276 201.034 34.052 201.194 33.756C201.354 33.46 201.434 33.1 201.434 32.676C201.434 32.044 201.266 31.56 200.93 31.224C200.602 30.88 200.198 30.708 199.718 30.708C199.238 30.708 198.834 30.88 198.506 31.224C198.186 31.56 198.026 32.044 198.026 32.676C198.026 33.308 198.182 33.796 198.494 34.14C198.814 34.476 199.214 34.644 199.694 34.644Z" fill="#001A39"/>
<path d="M210.67 29.352V36H208.978V35.16C208.762 35.448 208.478 35.676 208.126 35.844C207.782 36.004 207.406 36.084 206.998 36.084C206.478 36.084 206.018 35.976 205.618 35.76C205.218 35.536 204.902 35.212 204.67 34.788C204.446 34.356 204.334 33.844 204.334 33.252V29.352H206.014V33.012C206.014 33.54 206.146 33.948 206.41 34.236C206.674 34.516 207.034 34.656 207.49 34.656C207.954 34.656 208.318 34.516 208.582 34.236C208.846 33.948 208.978 33.54 208.978 33.012V29.352H210.67Z" fill="#001A39"/>
<path d="M211.896 32.676C211.896 31.988 212.036 31.388 212.316 30.876C212.596 30.356 212.984 29.956 213.48 29.676C213.976 29.388 214.544 29.244 215.184 29.244C216.008 29.244 216.688 29.452 217.224 29.868C217.768 30.276 218.132 30.852 218.316 31.596H216.504C216.408 31.308 216.244 31.084 216.012 30.924C215.788 30.756 215.508 30.672 215.172 30.672C214.692 30.672 214.312 30.848 214.032 31.2C213.752 31.544 213.612 32.036 213.612 32.676C213.612 33.308 213.752 33.8 214.032 34.152C214.312 34.496 214.692 34.668 215.172 34.668C215.852 34.668 216.296 34.364 216.504 33.756H218.316C218.132 34.476 217.768 35.048 217.224 35.472C216.68 35.896 216 36.108 215.184 36.108C214.544 36.108 213.976 35.968 213.48 35.688C212.984 35.4 212.596 35 212.316 34.488C212.036 33.968 211.896 33.364 211.896 32.676Z" fill="#001A39"/>
<path d="M223.291 29.256C223.795 29.256 224.243 29.368 224.635 29.592C225.027 29.808 225.331 30.132 225.547 30.564C225.771 30.988 225.883 31.5 225.883 32.1V36H224.203V32.328C224.203 31.8 224.071 31.396 223.807 31.116C223.543 30.828 223.183 30.684 222.727 30.684C222.263 30.684 221.895 30.828 221.623 31.116C221.359 31.396 221.227 31.8 221.227 32.328V36H219.547V27.12H221.227V30.18C221.443 29.892 221.731 29.668 222.091 29.508C222.451 29.34 222.851 29.256 223.291 29.256Z" fill="#001A39"/>
<path d="M156.036 48.818V49.262H154.896V53H154.35V49.262H153.204V48.818H156.036Z" fill="#001A39"/>
<path d="M158.142 53.054C157.834 53.054 157.554 52.984 157.302 52.844C157.054 52.704 156.858 52.506 156.714 52.25C156.574 51.99 156.504 51.69 156.504 51.35C156.504 51.014 156.576 50.718 156.72 50.462C156.868 50.202 157.068 50.004 157.32 49.868C157.572 49.728 157.854 49.658 158.166 49.658C158.478 49.658 158.76 49.728 159.012 49.868C159.264 50.004 159.462 50.2 159.606 50.456C159.754 50.712 159.828 51.01 159.828 51.35C159.828 51.69 159.752 51.99 159.6 52.25C159.452 52.506 159.25 52.704 158.994 52.844C158.738 52.984 158.454 53.054 158.142 53.054ZM158.142 52.574C158.338 52.574 158.522 52.528 158.694 52.436C158.866 52.344 159.004 52.206 159.108 52.022C159.216 51.838 159.27 51.614 159.27 51.35C159.27 51.086 159.218 50.862 159.114 50.678C159.01 50.494 158.874 50.358 158.706 50.27C158.538 50.178 158.356 50.132 158.16 50.132C157.96 50.132 157.776 50.178 157.608 50.27C157.444 50.358 157.312 50.494 157.212 50.678C157.112 50.862 157.062 51.086 157.062 51.35C157.062 51.618 157.11 51.844 157.206 52.028C157.306 52.212 157.438 52.35 157.602 52.442C157.766 52.53 157.946 52.574 158.142 52.574Z" fill="#001A39"/>
<path d="M163.484 50.162H162.794V53H162.248V50.162H161.822V49.712H162.248V49.478C162.248 49.11 162.342 48.842 162.53 48.674C162.722 48.502 163.028 48.416 163.448 48.416V48.872C163.208 48.872 163.038 48.92 162.938 49.016C162.842 49.108 162.794 49.262 162.794 49.478V49.712H163.484V50.162Z" fill="#001A39"/>
<path d="M164.402 49.178C164.298 49.178 164.21 49.142 164.138 49.07C164.066 48.998 164.03 48.91 164.03 48.806C164.03 48.702 164.066 48.614 164.138 48.542C164.21 48.47 164.298 48.434 164.402 48.434C164.502 48.434 164.586 48.47 164.654 48.542C164.726 48.614 164.762 48.702 164.762 48.806C164.762 48.91 164.726 48.998 164.654 49.07C164.586 49.142 164.502 49.178 164.402 49.178ZM164.666 49.712V53H164.12V49.712H164.666Z" fill="#001A39"/>
<path d="M167.199 49.652C167.599 49.652 167.923 49.774 168.171 50.018C168.419 50.258 168.543 50.606 168.543 51.062V53H168.003V51.14C168.003 50.812 167.921 50.562 167.757 50.39C167.593 50.214 167.369 50.126 167.085 50.126C166.797 50.126 166.567 50.216 166.395 50.396C166.227 50.576 166.143 50.838 166.143 51.182V53H165.597V49.712H166.143V50.18C166.251 50.012 166.397 49.882 166.581 49.79C166.769 49.698 166.975 49.652 167.199 49.652Z" fill="#001A39"/>
<path d="M169.231 51.344C169.231 51.008 169.299 50.714 169.435 50.462C169.571 50.206 169.757 50.008 169.993 49.868C170.233 49.728 170.501 49.658 170.797 49.658C171.053 49.658 171.291 49.718 171.511 49.838C171.731 49.954 171.899 50.108 172.015 50.3V48.56H172.567V53H172.015V52.382C171.907 52.578 171.747 52.74 171.535 52.868C171.323 52.992 171.075 53.054 170.791 53.054C170.499 53.054 170.233 52.982 169.993 52.838C169.757 52.694 169.571 52.492 169.435 52.232C169.299 51.972 169.231 51.676 169.231 51.344ZM172.015 51.35C172.015 51.102 171.965 50.886 171.865 50.702C171.765 50.518 171.629 50.378 171.457 50.282C171.289 50.182 171.103 50.132 170.899 50.132C170.695 50.132 170.509 50.18 170.341 50.276C170.173 50.372 170.039 50.512 169.939 50.696C169.839 50.88 169.789 51.096 169.789 51.344C169.789 51.596 169.839 51.816 169.939 52.004C170.039 52.188 170.173 52.33 170.341 52.43C170.509 52.526 170.695 52.574 170.899 52.574C171.103 52.574 171.289 52.526 171.457 52.43C171.629 52.33 171.765 52.188 171.865 52.004C171.965 51.816 172.015 51.598 172.015 51.35Z" fill="#001A39"/>
<path d="M176.523 53.054C176.215 53.054 175.935 52.984 175.683 52.844C175.435 52.704 175.239 52.506 175.095 52.25C174.955 51.99 174.885 51.69 174.885 51.35C174.885 51.014 174.957 50.718 175.101 50.462C175.249 50.202 175.449 50.004 175.701 49.868C175.953 49.728 176.235 49.658 176.547 49.658C176.859 49.658 177.141 49.728 177.393 49.868C177.645 50.004 177.843 50.2 177.987 50.456C178.135 50.712 178.209 51.01 178.209 51.35C178.209 51.69 178.133 51.99 177.981 52.25C177.833 52.506 177.631 52.704 177.375 52.844C177.119 52.984 176.835 53.054 176.523 53.054ZM176.523 52.574C176.719 52.574 176.903 52.528 177.075 52.436C177.247 52.344 177.385 52.206 177.489 52.022C177.597 51.838 177.651 51.614 177.651 51.35C177.651 51.086 177.599 50.862 177.495 50.678C177.391 50.494 177.255 50.358 177.087 50.27C176.919 50.178 176.737 50.132 176.541 50.132C176.341 50.132 176.157 50.178 175.989 50.27C175.825 50.358 175.693 50.494 175.593 50.678C175.493 50.862 175.443 51.086 175.443 51.35C175.443 51.618 175.491 51.844 175.587 52.028C175.687 52.212 175.819 52.35 175.983 52.442C176.147 52.53 176.327 52.574 176.523 52.574Z" fill="#001A39"/>
<path d="M181.843 49.712V53H181.297V52.514C181.193 52.682 181.047 52.814 180.859 52.91C180.675 53.002 180.471 53.048 180.247 53.048C179.991 53.048 179.761 52.996 179.557 52.892C179.353 52.784 179.191 52.624 179.071 52.412C178.955 52.2 178.897 51.942 178.897 51.638V49.712H179.437V51.566C179.437 51.89 179.519 52.14 179.683 52.316C179.847 52.488 180.071 52.574 180.355 52.574C180.647 52.574 180.877 52.484 181.045 52.304C181.213 52.124 181.297 51.862 181.297 51.518V49.712H181.843Z" fill="#001A39"/>
<path d="M183.431 50.162V52.1C183.431 52.26 183.465 52.374 183.533 52.442C183.601 52.506 183.719 52.538 183.887 52.538H184.289V53H183.797C183.493 53 183.265 52.93 183.113 52.79C182.961 52.65 182.885 52.42 182.885 52.1V50.162H182.459V49.712H182.885V48.884H183.431V49.712H184.289V50.162H183.431Z" fill="#001A39"/>
<path d="M188.182 49.652C188.43 49.652 188.654 49.706 188.854 49.814C189.054 49.918 189.21 50.076 189.322 50.288C189.438 50.5 189.496 50.758 189.496 51.062V53H188.956V51.14C188.956 50.812 188.874 50.562 188.71 50.39C188.546 50.214 188.322 50.126 188.038 50.126C187.75 50.126 187.52 50.216 187.348 50.396C187.18 50.576 187.096 50.838 187.096 51.182V53H186.55V48.56H187.096V50.18C187.204 50.012 187.352 49.882 187.54 49.79C187.732 49.698 187.946 49.652 188.182 49.652Z" fill="#001A39"/>
<path d="M191.822 53.054C191.514 53.054 191.234 52.984 190.982 52.844C190.734 52.704 190.538 52.506 190.394 52.25C190.254 51.99 190.184 51.69 190.184 51.35C190.184 51.014 190.256 50.718 190.4 50.462C190.548 50.202 190.748 50.004 191 49.868C191.252 49.728 191.534 49.658 191.846 49.658C192.158 49.658 192.44 49.728 192.692 49.868C192.944 50.004 193.142 50.2 193.286 50.456C193.434 50.712 193.508 51.01 193.508 51.35C193.508 51.69 193.432 51.99 193.28 52.25C193.132 52.506 192.93 52.704 192.674 52.844C192.418 52.984 192.134 53.054 191.822 53.054ZM191.822 52.574C192.018 52.574 192.202 52.528 192.374 52.436C192.546 52.344 192.684 52.206 192.788 52.022C192.896 51.838 192.95 51.614 192.95 51.35C192.95 51.086 192.898 50.862 192.794 50.678C192.69 50.494 192.554 50.358 192.386 50.27C192.218 50.178 192.036 50.132 191.84 50.132C191.64 50.132 191.456 50.178 191.288 50.27C191.124 50.358 190.992 50.494 190.892 50.678C190.792 50.862 190.742 51.086 190.742 51.35C190.742 51.618 190.79 51.844 190.886 52.028C190.986 52.212 191.118 52.35 191.282 52.442C191.446 52.53 191.626 52.574 191.822 52.574Z" fill="#001A39"/>
<path d="M198.606 49.712L197.58 53H197.016L196.224 50.39L195.432 53H194.868L193.836 49.712H194.394L195.15 52.472L195.966 49.712H196.524L197.322 52.478L198.066 49.712H198.606Z" fill="#001A39"/>
<path d="M203.219 52.07H201.395L201.059 53H200.483L201.995 48.842H202.625L204.131 53H203.555L203.219 52.07ZM203.063 51.626L202.307 49.514L201.551 51.626H203.063Z" fill="#001A39"/>
<path d="M204.586 50.906C204.586 50.498 204.678 50.132 204.862 49.808C205.046 49.48 205.296 49.224 205.612 49.04C205.932 48.856 206.286 48.764 206.674 48.764C207.13 48.764 207.528 48.874 207.868 49.094C208.208 49.314 208.456 49.626 208.612 50.03H207.958C207.842 49.778 207.674 49.584 207.454 49.448C207.238 49.312 206.978 49.244 206.674 49.244C206.382 49.244 206.12 49.312 205.888 49.448C205.656 49.584 205.474 49.778 205.342 50.03C205.21 50.278 205.144 50.57 205.144 50.906C205.144 51.238 205.21 51.53 205.342 51.782C205.474 52.03 205.656 52.222 205.888 52.358C206.12 52.494 206.382 52.562 206.674 52.562C206.978 52.562 207.238 52.496 207.454 52.364C207.674 52.228 207.842 52.034 207.958 51.782H208.612C208.456 52.182 208.208 52.492 207.868 52.712C207.528 52.928 207.13 53.036 206.674 53.036C206.286 53.036 205.932 52.946 205.612 52.766C205.296 52.582 205.046 52.328 204.862 52.004C204.678 51.68 204.586 51.314 204.586 50.906Z" fill="#001A39"/>
<path d="M213.667 48.848V53H213.121V49.904L211.741 53H211.357L209.971 49.898V53H209.425V48.848H210.013L211.549 52.28L213.085 48.848H213.667Z" fill="#001A39"/>
<path d="M215.139 49.262V50.66H216.663V51.11H215.139V52.55H216.843V53H214.593V48.812H216.843V49.262H215.139Z" fill="#001A39"/>
<path d="M219.065 50.906C219.065 50.498 219.157 50.132 219.341 49.808C219.525 49.48 219.775 49.224 220.091 49.04C220.411 48.856 220.765 48.764 221.153 48.764C221.609 48.764 222.007 48.874 222.347 49.094C222.687 49.314 222.935 49.626 223.091 50.03H222.437C222.321 49.778 222.153 49.584 221.933 49.448C221.717 49.312 221.457 49.244 221.153 49.244C220.861 49.244 220.599 49.312 220.367 49.448C220.135 49.584 219.953 49.778 219.821 50.03C219.689 50.278 219.623 50.57 219.623 50.906C219.623 51.238 219.689 51.53 219.821 51.782C219.953 52.03 220.135 52.222 220.367 52.358C220.599 52.494 220.861 52.562 221.153 52.562C221.457 52.562 221.717 52.496 221.933 52.364C222.153 52.228 222.321 52.034 222.437 51.782H223.091C222.935 52.182 222.687 52.492 222.347 52.712C222.007 52.928 221.609 53.036 221.153 53.036C220.765 53.036 220.411 52.946 220.091 52.766C219.775 52.582 219.525 52.328 219.341 52.004C219.157 51.68 219.065 51.314 219.065 50.906Z" fill="#001A39"/>
<path d="M225.338 53.054C225.03 53.054 224.75 52.984 224.498 52.844C224.25 52.704 224.054 52.506 223.91 52.25C223.77 51.99 223.7 51.69 223.7 51.35C223.7 51.014 223.772 50.718 223.916 50.462C224.064 50.202 224.264 50.004 224.516 49.868C224.768 49.728 225.05 49.658 225.362 49.658C225.674 49.658 225.956 49.728 226.208 49.868C226.46 50.004 226.658 50.2 226.802 50.456C226.95 50.712 227.024 51.01 227.024 51.35C227.024 51.69 226.948 51.99 226.796 52.25C226.648 52.506 226.446 52.704 226.19 52.844C225.934 52.984 225.65 53.054 225.338 53.054ZM225.338 52.574C225.534 52.574 225.718 52.528 225.89 52.436C226.062 52.344 226.2 52.206 226.304 52.022C226.412 51.838 226.466 51.614 226.466 51.35C226.466 51.086 226.414 50.862 226.31 50.678C226.206 50.494 226.07 50.358 225.902 50.27C225.734 50.178 225.552 50.132 225.356 50.132C225.156 50.132 224.972 50.178 224.804 50.27C224.64 50.358 224.508 50.494 224.408 50.678C224.308 50.862 224.258 51.086 224.258 51.35C224.258 51.618 224.306 51.844 224.402 52.028C224.502 52.212 224.634 52.35 224.798 52.442C224.962 52.53 225.142 52.574 225.338 52.574Z" fill="#001A39"/>
<path d="M228.287 50.246C228.383 50.058 228.519 49.912 228.695 49.808C228.875 49.704 229.093 49.652 229.349 49.652V50.216H229.205C228.593 50.216 228.287 50.548 228.287 51.212V53H227.741V49.712H228.287V50.246Z" fill="#001A39"/>
<path d="M230.526 50.318C230.634 50.13 230.794 49.974 231.006 49.85C231.222 49.722 231.472 49.658 231.756 49.658C232.048 49.658 232.312 49.728 232.548 49.868C232.788 50.008 232.976 50.206 233.112 50.462C233.248 50.714 233.316 51.008 233.316 51.344C233.316 51.676 233.248 51.972 233.112 52.232C232.976 52.492 232.788 52.694 232.548 52.838C232.312 52.982 232.048 53.054 231.756 53.054C231.476 53.054 231.228 52.992 231.012 52.868C230.8 52.74 230.638 52.582 230.526 52.394V54.56H229.98V49.712H230.526V50.318ZM232.758 51.344C232.758 51.096 232.708 50.88 232.608 50.696C232.508 50.512 232.372 50.372 232.2 50.276C232.032 50.18 231.846 50.132 231.642 50.132C231.442 50.132 231.256 50.182 231.084 50.282C230.916 50.378 230.78 50.52 230.676 50.708C230.576 50.892 230.526 51.106 230.526 51.35C230.526 51.598 230.576 51.816 230.676 52.004C230.78 52.188 230.916 52.33 231.084 52.43C231.256 52.526 231.442 52.574 231.642 52.574C231.846 52.574 232.032 52.526 232.2 52.43C232.372 52.33 232.508 52.188 232.608 52.004C232.708 51.816 232.758 51.596 232.758 51.344Z" fill="#001A39"/>
<path d="M235.43 51.35C235.43 51.01 235.498 50.714 235.634 50.462C235.77 50.206 235.958 50.008 236.198 49.868C236.442 49.728 236.72 49.658 237.032 49.658C237.436 49.658 237.768 49.756 238.028 49.952C238.292 50.148 238.466 50.42 238.55 50.768H237.962C237.906 50.568 237.796 50.41 237.632 50.294C237.472 50.178 237.272 50.12 237.032 50.12C236.72 50.12 236.468 50.228 236.276 50.444C236.084 50.656 235.988 50.958 235.988 51.35C235.988 51.746 236.084 52.052 236.276 52.268C236.468 52.484 236.72 52.592 237.032 52.592C237.272 52.592 237.472 52.536 237.632 52.424C237.792 52.312 237.902 52.152 237.962 51.944H238.55C238.462 52.28 238.286 52.55 238.022 52.754C237.758 52.954 237.428 53.054 237.032 53.054C236.72 53.054 236.442 52.984 236.198 52.844C235.958 52.704 235.77 52.506 235.634 52.25C235.498 51.994 235.43 51.694 235.43 51.35Z" fill="#001A39"/>
<path d="M239.075 51.344C239.075 51.008 239.143 50.714 239.279 50.462C239.415 50.206 239.601 50.008 239.837 49.868C240.077 49.728 240.343 49.658 240.635 49.658C240.923 49.658 241.173 49.72 241.385 49.844C241.597 49.968 241.755 50.124 241.859 50.312V49.712H242.411V53H241.859V52.388C241.751 52.58 241.589 52.74 241.373 52.868C241.161 52.992 240.913 53.054 240.629 53.054C240.337 53.054 240.073 52.982 239.837 52.838C239.601 52.694 239.415 52.492 239.279 52.232C239.143 51.972 239.075 51.676 239.075 51.344ZM241.859 51.35C241.859 51.102 241.809 50.886 241.709 50.702C241.609 50.518 241.473 50.378 241.301 50.282C241.133 50.182 240.947 50.132 240.743 50.132C240.539 50.132 240.353 50.18 240.185 50.276C240.017 50.372 239.883 50.512 239.783 50.696C239.683 50.88 239.633 51.096 239.633 51.344C239.633 51.596 239.683 51.816 239.783 52.004C239.883 52.188 240.017 52.33 240.185 52.43C240.353 52.526 240.539 52.574 240.743 52.574C240.947 52.574 241.133 52.526 241.301 52.43C241.473 52.33 241.609 52.188 241.709 52.004C241.809 51.816 241.859 51.598 241.859 51.35Z" fill="#001A39"/>
<path d="M244.935 49.652C245.335 49.652 245.659 49.774 245.907 50.018C246.155 50.258 246.279 50.606 246.279 51.062V53H245.739V51.14C245.739 50.812 245.657 50.562 245.493 50.39C245.329 50.214 245.105 50.126 244.821 50.126C244.533 50.126 244.303 50.216 244.131 50.396C243.963 50.576 243.879 50.838 243.879 51.182V53H243.333V49.712H243.879V50.18C243.987 50.012 244.133 49.882 244.317 49.79C244.505 49.698 244.711 49.652 244.935 49.652Z" fill="#001A39"/>
<path d="M250.403 49.652C250.651 49.652 250.875 49.706 251.075 49.814C251.275 49.918 251.431 50.076 251.543 50.288C251.659 50.5 251.717 50.758 251.717 51.062V53H251.177V51.14C251.177 50.812 251.095 50.562 250.931 50.39C250.767 50.214 250.543 50.126 250.259 50.126C249.971 50.126 249.741 50.216 249.569 50.396C249.401 50.576 249.317 50.838 249.317 51.182V53H248.771V48.56H249.317V50.18C249.425 50.012 249.573 49.882 249.761 49.79C249.953 49.698 250.167 49.652 250.403 49.652Z" fill="#001A39"/>
<path d="M255.609 51.23C255.609 51.334 255.603 51.444 255.591 51.56H252.963C252.983 51.884 253.093 52.138 253.293 52.322C253.497 52.502 253.743 52.592 254.031 52.592C254.267 52.592 254.463 52.538 254.619 52.43C254.779 52.318 254.891 52.17 254.955 51.986H255.543C255.455 52.302 255.279 52.56 255.015 52.76C254.751 52.956 254.423 53.054 254.031 53.054C253.719 53.054 253.439 52.984 253.191 52.844C252.947 52.704 252.755 52.506 252.615 52.25C252.475 51.99 252.405 51.69 252.405 51.35C252.405 51.01 252.473 50.712 252.609 50.456C252.745 50.2 252.935 50.004 253.179 49.868C253.427 49.728 253.711 49.658 254.031 49.658C254.343 49.658 254.619 49.726 254.859 49.862C255.099 49.998 255.283 50.186 255.411 50.426C255.543 50.662 255.609 50.93 255.609 51.23ZM255.045 51.116C255.045 50.908 254.999 50.73 254.907 50.582C254.815 50.43 254.689 50.316 254.529 50.24C254.373 50.16 254.199 50.12 254.007 50.12C253.731 50.12 253.495 50.208 253.299 50.384C253.107 50.56 252.997 50.804 252.969 51.116H255.045Z" fill="#001A39"/>
<path d="M256.875 48.56V53H256.329V48.56H256.875Z" fill="#001A39"/>
<path d="M258.352 50.318C258.46 50.13 258.62 49.974 258.832 49.85C259.048 49.722 259.298 49.658 259.582 49.658C259.874 49.658 260.138 49.728 260.374 49.868C260.614 50.008 260.802 50.206 260.938 50.462C261.074 50.714 261.142 51.008 261.142 51.344C261.142 51.676 261.074 51.972 260.938 52.232C260.802 52.492 260.614 52.694 260.374 52.838C260.138 52.982 259.874 53.054 259.582 53.054C259.302 53.054 259.054 52.992 258.838 52.868C258.626 52.74 258.464 52.582 258.352 52.394V54.56H257.806V49.712H258.352V50.318ZM260.584 51.344C260.584 51.096 260.534 50.88 260.434 50.696C260.334 50.512 260.198 50.372 260.026 50.276C259.858 50.18 259.672 50.132 259.468 50.132C259.268 50.132 259.082 50.182 258.91 50.282C258.742 50.378 258.606 50.52 258.502 50.708C258.402 50.892 258.352 51.106 258.352 51.35C258.352 51.598 258.402 51.816 258.502 52.004C258.606 52.188 258.742 52.33 258.91 52.43C259.082 52.526 259.268 52.574 259.468 52.574C259.672 52.574 259.858 52.526 260.026 52.43C260.198 52.33 260.334 52.188 260.434 52.004C260.534 51.816 260.584 51.596 260.584 51.344Z" fill="#001A39"/>
<path d="M264.126 50.162V52.1C264.126 52.26 264.16 52.374 264.228 52.442C264.296 52.506 264.414 52.538 264.582 52.538H264.984V53H264.492C264.188 53 263.96 52.93 263.808 52.79C263.656 52.65 263.58 52.42 263.58 52.1V50.162H263.154V49.712H263.58V48.884H264.126V49.712H264.984V50.162H264.126Z" fill="#001A39"/>
<path d="M267.08 53.054C266.772 53.054 266.492 52.984 266.24 52.844C265.992 52.704 265.796 52.506 265.652 52.25C265.512 51.99 265.442 51.69 265.442 51.35C265.442 51.014 265.514 50.718 265.658 50.462C265.806 50.202 266.006 50.004 266.258 49.868C266.51 49.728 266.792 49.658 267.104 49.658C267.416 49.658 267.698 49.728 267.95 49.868C268.202 50.004 268.4 50.2 268.544 50.456C268.692 50.712 268.766 51.01 268.766 51.35C268.766 51.69 268.69 51.99 268.538 52.25C268.39 52.506 268.188 52.704 267.932 52.844C267.676 52.984 267.392 53.054 267.08 53.054ZM267.08 52.574C267.276 52.574 267.46 52.528 267.632 52.436C267.804 52.344 267.942 52.206 268.046 52.022C268.154 51.838 268.208 51.614 268.208 51.35C268.208 51.086 268.156 50.862 268.052 50.678C267.948 50.494 267.812 50.358 267.644 50.27C267.476 50.178 267.294 50.132 267.098 50.132C266.898 50.132 266.714 50.178 266.546 50.27C266.382 50.358 266.25 50.494 266.15 50.678C266.05 50.862 266 51.086 266 51.35C266 51.618 266.048 51.844 266.144 52.028C266.244 52.212 266.376 52.35 266.54 52.442C266.704 52.53 266.884 52.574 267.08 52.574Z" fill="#001A39"/>
<path d="M271.629 50.246C271.725 50.058 271.861 49.912 272.037 49.808C272.217 49.704 272.435 49.652 272.691 49.652V50.216H272.547C271.935 50.216 271.629 50.548 271.629 51.212V53H271.083V49.712H271.629V50.246Z" fill="#001A39"/>
<path d="M276.321 51.23C276.321 51.334 276.315 51.444 276.303 51.56H273.675C273.695 51.884 273.805 52.138 274.005 52.322C274.209 52.502 274.455 52.592 274.743 52.592C274.979 52.592 275.175 52.538 275.331 52.43C275.491 52.318 275.603 52.17 275.667 51.986H276.255C276.167 52.302 275.991 52.56 275.727 52.76C275.463 52.956 275.135 53.054 274.743 53.054C274.431 53.054 274.151 52.984 273.903 52.844C273.659 52.704 273.467 52.506 273.327 52.25C273.187 51.99 273.117 51.69 273.117 51.35C273.117 51.01 273.185 50.712 273.321 50.456C273.457 50.2 273.647 50.004 273.891 49.868C274.139 49.728 274.423 49.658 274.743 49.658C275.055 49.658 275.331 49.726 275.571 49.862C275.811 49.998 275.995 50.186 276.123 50.426C276.255 50.662 276.321 50.93 276.321 51.23ZM275.757 51.116C275.757 50.908 275.711 50.73 275.619 50.582C275.527 50.43 275.401 50.316 275.241 50.24C275.085 50.16 274.911 50.12 274.719 50.12C274.443 50.12 274.207 50.208 274.011 50.384C273.819 50.56 273.709 50.804 273.681 51.116H275.757Z" fill="#001A39"/>
<path d="M278.266 52.496L279.286 49.712H279.868L278.578 53H277.942L276.652 49.712H277.24L278.266 52.496Z" fill="#001A39"/>
<path d="M281.839 53.054C281.531 53.054 281.251 52.984 280.999 52.844C280.751 52.704 280.555 52.506 280.411 52.25C280.271 51.99 280.201 51.69 280.201 51.35C280.201 51.014 280.273 50.718 280.417 50.462C280.565 50.202 280.765 50.004 281.017 49.868C281.269 49.728 281.551 49.658 281.863 49.658C282.175 49.658 282.457 49.728 282.709 49.868C282.961 50.004 283.159 50.2 283.303 50.456C283.451 50.712 283.525 51.01 283.525 51.35C283.525 51.69 283.449 51.99 283.297 52.25C283.149 52.506 282.947 52.704 282.691 52.844C282.435 52.984 282.151 53.054 281.839 53.054ZM281.839 52.574C282.035 52.574 282.219 52.528 282.391 52.436C282.563 52.344 282.701 52.206 282.805 52.022C282.913 51.838 282.967 51.614 282.967 51.35C282.967 51.086 282.915 50.862 282.811 50.678C282.707 50.494 282.571 50.358 282.403 50.27C282.235 50.178 282.053 50.132 281.857 50.132C281.657 50.132 281.473 50.178 281.305 50.27C281.141 50.358 281.009 50.494 280.909 50.678C280.809 50.862 280.759 51.086 280.759 51.35C280.759 51.618 280.807 51.844 280.903 52.028C281.003 52.212 281.135 52.35 281.299 52.442C281.463 52.53 281.643 52.574 281.839 52.574Z" fill="#001A39"/>
<path d="M284.789 48.56V53H284.243V48.56H284.789Z" fill="#001A39"/>
<path d="M288.636 49.712V53H288.09V52.514C287.986 52.682 287.84 52.814 287.652 52.91C287.468 53.002 287.264 53.048 287.04 53.048C286.784 53.048 286.554 52.996 286.35 52.892C286.146 52.784 285.984 52.624 285.864 52.412C285.748 52.2 285.69 51.942 285.69 51.638V49.712H286.23V51.566C286.23 51.89 286.312 52.14 286.476 52.316C286.64 52.488 286.864 52.574 287.148 52.574C287.44 52.574 287.67 52.484 287.838 52.304C288.006 52.124 288.09 51.862 288.09 51.518V49.712H288.636Z" fill="#001A39"/>
<path d="M290.224 50.162V52.1C290.224 52.26 290.258 52.374 290.326 52.442C290.394 52.506 290.512 52.538 290.68 52.538H291.082V53H290.59C290.286 53 290.058 52.93 289.906 52.79C289.754 52.65 289.678 52.42 289.678 52.1V50.162H289.252V49.712H289.678V48.884H290.224V49.712H291.082V50.162H290.224Z" fill="#001A39"/>
<path d="M292.025 49.178C291.921 49.178 291.833 49.142 291.761 49.07C291.689 48.998 291.653 48.91 291.653 48.806C291.653 48.702 291.689 48.614 291.761 48.542C291.833 48.47 291.921 48.434 292.025 48.434C292.125 48.434 292.209 48.47 292.277 48.542C292.349 48.614 292.385 48.702 292.385 48.806C292.385 48.91 292.349 48.998 292.277 49.07C292.209 49.142 292.125 49.178 292.025 49.178ZM292.289 49.712V53H291.743V49.712H292.289Z" fill="#001A39"/>
<path d="M294.654 53.054C294.346 53.054 294.066 52.984 293.814 52.844C293.566 52.704 293.37 52.506 293.226 52.25C293.086 51.99 293.016 51.69 293.016 51.35C293.016 51.014 293.088 50.718 293.232 50.462C293.38 50.202 293.58 50.004 293.832 49.868C294.084 49.728 294.366 49.658 294.678 49.658C294.99 49.658 295.272 49.728 295.524 49.868C295.776 50.004 295.974 50.2 296.118 50.456C296.266 50.712 296.34 51.01 296.34 51.35C296.34 51.69 296.264 51.99 296.112 52.25C295.964 52.506 295.762 52.704 295.506 52.844C295.25 52.984 294.966 53.054 294.654 53.054ZM294.654 52.574C294.85 52.574 295.034 52.528 295.206 52.436C295.378 52.344 295.516 52.206 295.62 52.022C295.728 51.838 295.782 51.614 295.782 51.35C295.782 51.086 295.73 50.862 295.626 50.678C295.522 50.494 295.386 50.358 295.218 50.27C295.05 50.178 294.868 50.132 294.672 50.132C294.472 50.132 294.288 50.178 294.12 50.27C293.956 50.358 293.824 50.494 293.724 50.678C293.624 50.862 293.574 51.086 293.574 51.35C293.574 51.618 293.622 51.844 293.718 52.028C293.818 52.212 293.95 52.35 294.114 52.442C294.278 52.53 294.458 52.574 294.654 52.574Z" fill="#001A39"/>
<path d="M298.66 49.652C299.06 49.652 299.384 49.774 299.632 50.018C299.88 50.258 300.004 50.606 300.004 51.062V53H299.464V51.14C299.464 50.812 299.382 50.562 299.218 50.39C299.054 50.214 298.83 50.126 298.546 50.126C298.258 50.126 298.028 50.216 297.856 50.396C297.688 50.576 297.604 50.838 297.604 51.182V53H297.058V49.712H297.604V50.18C297.712 50.012 297.858 49.882 298.042 49.79C298.23 49.698 298.436 49.652 298.66 49.652Z" fill="#001A39"/>
<path d="M301.178 49.178C301.074 49.178 300.986 49.142 300.914 49.07C300.842 48.998 300.806 48.91 300.806 48.806C300.806 48.702 300.842 48.614 300.914 48.542C300.986 48.47 301.074 48.434 301.178 48.434C301.278 48.434 301.362 48.47 301.43 48.542C301.502 48.614 301.538 48.702 301.538 48.806C301.538 48.91 301.502 48.998 301.43 49.07C301.362 49.142 301.278 49.178 301.178 49.178ZM301.442 49.712V53H300.896V49.712H301.442Z" fill="#001A39"/>
<path d="M303.536 53.054C303.284 53.054 303.058 53.012 302.858 52.928C302.658 52.84 302.5 52.72 302.384 52.568C302.268 52.412 302.204 52.234 302.192 52.034H302.756C302.772 52.198 302.848 52.332 302.984 52.436C303.124 52.54 303.306 52.592 303.53 52.592C303.738 52.592 303.902 52.546 304.022 52.454C304.142 52.362 304.202 52.246 304.202 52.106C304.202 51.962 304.138 51.856 304.01 51.788C303.882 51.716 303.684 51.646 303.416 51.578C303.172 51.514 302.972 51.45 302.816 51.386C302.664 51.318 302.532 51.22 302.42 51.092C302.312 50.96 302.258 50.788 302.258 50.576C302.258 50.408 302.308 50.254 302.408 50.114C302.508 49.974 302.65 49.864 302.834 49.784C303.018 49.7 303.228 49.658 303.464 49.658C303.828 49.658 304.122 49.75 304.346 49.934C304.57 50.118 304.69 50.37 304.706 50.69H304.16C304.148 50.518 304.078 50.38 303.95 50.276C303.826 50.172 303.658 50.12 303.446 50.12C303.25 50.12 303.094 50.162 302.978 50.246C302.862 50.33 302.804 50.44 302.804 50.576C302.804 50.684 302.838 50.774 302.906 50.846C302.978 50.914 303.066 50.97 303.17 51.014C303.278 51.054 303.426 51.1 303.614 51.152C303.85 51.216 304.042 51.28 304.19 51.344C304.338 51.404 304.464 51.496 304.568 51.62C304.676 51.744 304.732 51.906 304.736 52.106C304.736 52.286 304.686 52.448 304.586 52.592C304.486 52.736 304.344 52.85 304.16 52.934C303.98 53.014 303.772 53.054 303.536 53.054Z" fill="#001A39"/>
<path d="M308.507 51.23C308.507 51.334 308.501 51.444 308.489 51.56H305.861C305.881 51.884 305.991 52.138 306.191 52.322C306.395 52.502 306.641 52.592 306.929 52.592C307.165 52.592 307.361 52.538 307.517 52.43C307.677 52.318 307.789 52.17 307.853 51.986H308.441C308.353 52.302 308.177 52.56 307.913 52.76C307.649 52.956 307.321 53.054 306.929 53.054C306.617 53.054 306.337 52.984 306.089 52.844C305.845 52.704 305.653 52.506 305.513 52.25C305.373 51.99 305.303 51.69 305.303 51.35C305.303 51.01 305.371 50.712 305.507 50.456C305.643 50.2 305.833 50.004 306.077 49.868C306.325 49.728 306.609 49.658 306.929 49.658C307.241 49.658 307.517 49.726 307.757 49.862C307.997 49.998 308.181 50.186 308.309 50.426C308.441 50.662 308.507 50.93 308.507 51.23ZM307.943 51.116C307.943 50.908 307.897 50.73 307.805 50.582C307.713 50.43 307.587 50.316 307.427 50.24C307.271 50.16 307.097 50.12 306.905 50.12C306.629 50.12 306.393 50.208 306.197 50.384C306.005 50.56 305.895 50.804 305.867 51.116H307.943Z" fill="#001A39"/>
<path d="M313.659 49.712L311.679 54.548H311.115L311.763 52.964L310.437 49.712H311.043L312.075 52.376L313.095 49.712H313.659Z" fill="#001A39"/>
<path d="M315.642 53.054C315.334 53.054 315.054 52.984 314.802 52.844C314.554 52.704 314.358 52.506 314.214 52.25C314.074 51.99 314.004 51.69 314.004 51.35C314.004 51.014 314.076 50.718 314.22 50.462C314.368 50.202 314.568 50.004 314.82 49.868C315.072 49.728 315.354 49.658 315.666 49.658C315.978 49.658 316.26 49.728 316.512 49.868C316.764 50.004 316.962 50.2 317.106 50.456C317.254 50.712 317.328 51.01 317.328 51.35C317.328 51.69 317.252 51.99 317.1 52.25C316.952 52.506 316.75 52.704 316.494 52.844C316.238 52.984 315.954 53.054 315.642 53.054ZM315.642 52.574C315.838 52.574 316.022 52.528 316.194 52.436C316.366 52.344 316.504 52.206 316.608 52.022C316.716 51.838 316.77 51.614 316.77 51.35C316.77 51.086 316.718 50.862 316.614 50.678C316.51 50.494 316.374 50.358 316.206 50.27C316.038 50.178 315.856 50.132 315.66 50.132C315.46 50.132 315.276 50.178 315.108 50.27C314.944 50.358 314.812 50.494 314.712 50.678C314.612 50.862 314.562 51.086 314.562 51.35C314.562 51.618 314.61 51.844 314.706 52.028C314.806 52.212 314.938 52.35 315.102 52.442C315.266 52.53 315.446 52.574 315.642 52.574Z" fill="#001A39"/>
<path d="M320.962 49.712V53H320.416V52.514C320.312 52.682 320.166 52.814 319.978 52.91C319.794 53.002 319.59 53.048 319.366 53.048C319.11 53.048 318.88 52.996 318.676 52.892C318.472 52.784 318.31 52.624 318.19 52.412C318.074 52.2 318.016 51.942 318.016 51.638V49.712H318.556V51.566C318.556 51.89 318.638 52.14 318.802 52.316C318.966 52.488 319.19 52.574 319.474 52.574C319.766 52.574 319.996 52.484 320.164 52.304C320.332 52.124 320.416 51.862 320.416 51.518V49.712H320.962Z" fill="#001A39"/>
<path d="M322.43 50.246C322.526 50.058 322.662 49.912 322.838 49.808C323.018 49.704 323.236 49.652 323.492 49.652V50.216H323.348C322.736 50.216 322.43 50.548 322.43 51.212V53H321.884V49.712H322.43V50.246Z" fill="#001A39"/>
<path d="M154.008 60.324C154.12 60.128 154.284 59.968 154.5 59.844C154.716 59.72 154.962 59.658 155.238 59.658C155.534 59.658 155.8 59.728 156.036 59.868C156.272 60.008 156.458 60.206 156.594 60.462C156.73 60.714 156.798 61.008 156.798 61.344C156.798 61.676 156.73 61.972 156.594 62.232C156.458 62.492 156.27 62.694 156.03 62.838C155.794 62.982 155.53 63.054 155.238 63.054C154.954 63.054 154.704 62.992 154.488 62.868C154.276 62.744 154.116 62.586 154.008 62.394V63H153.462V58.56H154.008V60.324ZM156.24 61.344C156.24 61.096 156.19 60.88 156.09 60.696C155.99 60.512 155.854 60.372 155.682 60.276C155.514 60.18 155.328 60.132 155.124 60.132C154.924 60.132 154.738 60.182 154.566 60.282C154.398 60.378 154.262 60.52 154.158 60.708C154.058 60.892 154.008 61.106 154.008 61.35C154.008 61.598 154.058 61.816 154.158 62.004C154.262 62.188 154.398 62.33 154.566 62.43C154.738 62.526 154.924 62.574 155.124 62.574C155.328 62.574 155.514 62.526 155.682 62.43C155.854 62.33 155.99 62.188 156.09 62.004C156.19 61.816 156.24 61.596 156.24 61.344Z" fill="#001A39"/>
<path d="M160.433 59.712V63H159.887V62.514C159.783 62.682 159.637 62.814 159.449 62.91C159.265 63.002 159.061 63.048 158.837 63.048C158.581 63.048 158.351 62.996 158.147 62.892C157.943 62.784 157.781 62.624 157.661 62.412C157.545 62.2 157.487 61.942 157.487 61.638V59.712H158.027V61.566C158.027 61.89 158.109 62.14 158.273 62.316C158.437 62.488 158.661 62.574 158.945 62.574C159.237 62.574 159.467 62.484 159.635 62.304C159.803 62.124 159.887 61.862 159.887 61.518V59.712H160.433Z" fill="#001A39"/>
<path d="M162.519 63.054C162.267 63.054 162.041 63.012 161.841 62.928C161.641 62.84 161.483 62.72 161.367 62.568C161.251 62.412 161.187 62.234 161.175 62.034H161.739C161.755 62.198 161.831 62.332 161.967 62.436C162.107 62.54 162.289 62.592 162.513 62.592C162.721 62.592 162.885 62.546 163.005 62.454C163.125 62.362 163.185 62.246 163.185 62.106C163.185 61.962 163.121 61.856 162.993 61.788C162.865 61.716 162.667 61.646 162.399 61.578C162.155 61.514 161.955 61.45 161.799 61.386C161.647 61.318 161.515 61.22 161.403 61.092C161.295 60.96 161.241 60.788 161.241 60.576C161.241 60.408 161.291 60.254 161.391 60.114C161.491 59.974 161.633 59.864 161.817 59.784C162.001 59.7 162.211 59.658 162.447 59.658C162.811 59.658 163.105 59.75 163.329 59.934C163.553 60.118 163.673 60.37 163.689 60.69H163.143C163.131 60.518 163.061 60.38 162.933 60.276C162.809 60.172 162.641 60.12 162.429 60.12C162.233 60.12 162.077 60.162 161.961 60.246C161.845 60.33 161.787 60.44 161.787 60.576C161.787 60.684 161.821 60.774 161.889 60.846C161.961 60.914 162.049 60.97 162.153 61.014C162.261 61.054 162.409 61.1 162.597 61.152C162.833 61.216 163.025 61.28 163.173 61.344C163.321 61.404 163.447 61.496 163.551 61.62C163.659 61.744 163.715 61.906 163.719 62.106C163.719 62.286 163.669 62.448 163.569 62.592C163.469 62.736 163.327 62.85 163.143 62.934C162.963 63.014 162.755 63.054 162.519 63.054Z" fill="#001A39"/>
<path d="M164.771 59.178C164.667 59.178 164.579 59.142 164.507 59.07C164.435 58.998 164.399 58.91 164.399 58.806C164.399 58.702 164.435 58.614 164.507 58.542C164.579 58.47 164.667 58.434 164.771 58.434C164.871 58.434 164.955 58.47 165.023 58.542C165.095 58.614 165.131 58.702 165.131 58.806C165.131 58.91 165.095 58.998 165.023 59.07C164.955 59.142 164.871 59.178 164.771 59.178ZM165.035 59.712V63H164.489V59.712H165.035Z" fill="#001A39"/>
<path d="M167.568 59.652C167.968 59.652 168.292 59.774 168.54 60.018C168.788 60.258 168.912 60.606 168.912 61.062V63H168.372V61.14C168.372 60.812 168.29 60.562 168.126 60.39C167.962 60.214 167.738 60.126 167.454 60.126C167.166 60.126 166.936 60.216 166.764 60.396C166.596 60.576 166.512 60.838 166.512 61.182V63H165.966V59.712H166.512V60.18C166.62 60.012 166.766 59.882 166.95 59.79C167.138 59.698 167.344 59.652 167.568 59.652Z" fill="#001A39"/>
<path d="M172.804 61.23C172.804 61.334 172.798 61.444 172.786 61.56H170.158C170.178 61.884 170.288 62.138 170.488 62.322C170.692 62.502 170.938 62.592 171.226 62.592C171.462 62.592 171.658 62.538 171.814 62.43C171.974 62.318 172.086 62.17 172.15 61.986H172.738C172.65 62.302 172.474 62.56 172.21 62.76C171.946 62.956 171.618 63.054 171.226 63.054C170.914 63.054 170.634 62.984 170.386 62.844C170.142 62.704 169.95 62.506 169.81 62.25C169.67 61.99 169.6 61.69 169.6 61.35C169.6 61.01 169.668 60.712 169.804 60.456C169.94 60.2 170.13 60.004 170.374 59.868C170.622 59.728 170.906 59.658 171.226 59.658C171.538 59.658 171.814 59.726 172.054 59.862C172.294 59.998 172.478 60.186 172.606 60.426C172.738 60.662 172.804 60.93 172.804 61.23ZM172.24 61.116C172.24 60.908 172.194 60.73 172.102 60.582C172.01 60.43 171.884 60.316 171.724 60.24C171.568 60.16 171.394 60.12 171.202 60.12C170.926 60.12 170.69 60.208 170.494 60.384C170.302 60.56 170.192 60.804 170.164 61.116H172.24Z" fill="#001A39"/>
<path d="M174.689 63.054C174.437 63.054 174.211 63.012 174.011 62.928C173.811 62.84 173.653 62.72 173.537 62.568C173.421 62.412 173.357 62.234 173.345 62.034H173.909C173.925 62.198 174.001 62.332 174.137 62.436C174.277 62.54 174.459 62.592 174.683 62.592C174.891 62.592 175.055 62.546 175.175 62.454C175.295 62.362 175.355 62.246 175.355 62.106C175.355 61.962 175.291 61.856 175.163 61.788C175.035 61.716 174.837 61.646 174.569 61.578C174.325 61.514 174.125 61.45 173.969 61.386C173.817 61.318 173.685 61.22 173.573 61.092C173.465 60.96 173.411 60.788 173.411 60.576C173.411 60.408 173.461 60.254 173.561 60.114C173.661 59.974 173.803 59.864 173.987 59.784C174.171 59.7 174.381 59.658 174.617 59.658C174.981 59.658 175.275 59.75 175.499 59.934C175.723 60.118 175.843 60.37 175.859 60.69H175.313C175.301 60.518 175.231 60.38 175.103 60.276C174.979 60.172 174.811 60.12 174.599 60.12C174.403 60.12 174.247 60.162 174.131 60.246C174.015 60.33 173.957 60.44 173.957 60.576C173.957 60.684 173.991 60.774 174.059 60.846C174.131 60.914 174.219 60.97 174.323 61.014C174.431 61.054 174.579 61.1 174.767 61.152C175.003 61.216 175.195 61.28 175.343 61.344C175.491 61.404 175.617 61.496 175.721 61.62C175.829 61.744 175.885 61.906 175.889 62.106C175.889 62.286 175.839 62.448 175.739 62.592C175.639 62.736 175.497 62.85 175.313 62.934C175.133 63.014 174.925 63.054 174.689 63.054Z" fill="#001A39"/>
<path d="M177.823 63.054C177.571 63.054 177.345 63.012 177.145 62.928C176.945 62.84 176.787 62.72 176.671 62.568C176.555 62.412 176.491 62.234 176.479 62.034H177.043C177.059 62.198 177.135 62.332 177.271 62.436C177.411 62.54 177.593 62.592 177.817 62.592C178.025 62.592 178.189 62.546 178.309 62.454C178.429 62.362 178.489 62.246 178.489 62.106C178.489 61.962 178.425 61.856 178.297 61.788C178.169 61.716 177.971 61.646 177.703 61.578C177.459 61.514 177.259 61.45 177.103 61.386C176.951 61.318 176.819 61.22 176.707 61.092C176.599 60.96 176.545 60.788 176.545 60.576C176.545 60.408 176.595 60.254 176.695 60.114C176.795 59.974 176.937 59.864 177.121 59.784C177.305 59.7 177.515 59.658 177.751 59.658C178.115 59.658 178.409 59.75 178.633 59.934C178.857 60.118 178.977 60.37 178.993 60.69H178.447C178.435 60.518 178.365 60.38 178.237 60.276C178.113 60.172 177.945 60.12 177.733 60.12C177.537 60.12 177.381 60.162 177.265 60.246C177.149 60.33 177.091 60.44 177.091 60.576C177.091 60.684 177.125 60.774 177.193 60.846C177.265 60.914 177.353 60.97 177.457 61.014C177.565 61.054 177.713 61.1 177.901 61.152C178.137 61.216 178.329 61.28 178.477 61.344C178.625 61.404 178.751 61.496 178.855 61.62C178.963 61.744 179.019 61.906 179.023 62.106C179.023 62.286 178.973 62.448 178.873 62.592C178.773 62.736 178.631 62.85 178.447 62.934C178.267 63.014 178.059 63.054 177.823 63.054Z" fill="#001A39"/>
<path d="M180.358 62.244L179.686 63.858H179.32L179.758 62.244H180.358Z" fill="#001A39"/>
<path d="M183.939 59.658C184.223 59.658 184.471 59.72 184.683 59.844C184.899 59.968 185.059 60.124 185.163 60.312V59.712H185.715V63.072C185.715 63.372 185.651 63.638 185.523 63.87C185.395 64.106 185.211 64.29 184.971 64.422C184.735 64.554 184.459 64.62 184.143 64.62C183.711 64.62 183.351 64.518 183.063 64.314C182.775 64.11 182.605 63.832 182.553 63.48H183.093C183.153 63.68 183.277 63.84 183.465 63.96C183.653 64.084 183.879 64.146 184.143 64.146C184.443 64.146 184.687 64.052 184.875 63.864C185.067 63.676 185.163 63.412 185.163 63.072V62.382C185.055 62.574 184.895 62.734 184.683 62.862C184.471 62.99 184.223 63.054 183.939 63.054C183.647 63.054 183.381 62.982 183.141 62.838C182.905 62.694 182.719 62.492 182.583 62.232C182.447 61.972 182.379 61.676 182.379 61.344C182.379 61.008 182.447 60.714 182.583 60.462C182.719 60.206 182.905 60.008 183.141 59.868C183.381 59.728 183.647 59.658 183.939 59.658ZM185.163 61.35C185.163 61.102 185.113 60.886 185.013 60.702C184.913 60.518 184.777 60.378 184.605 60.282C184.437 60.182 184.251 60.132 184.047 60.132C183.843 60.132 183.657 60.18 183.489 60.276C183.321 60.372 183.187 60.512 183.087 60.696C182.987 60.88 182.937 61.096 182.937 61.344C182.937 61.596 182.987 61.816 183.087 62.004C183.187 62.188 183.321 62.33 183.489 62.43C183.657 62.526 183.843 62.574 184.047 62.574C184.251 62.574 184.437 62.526 184.605 62.43C184.777 62.33 184.913 62.188 185.013 62.004C185.113 61.816 185.163 61.598 185.163 61.35Z" fill="#001A39"/>
<path d="M189.638 61.23C189.638 61.334 189.632 61.444 189.62 61.56H186.992C187.012 61.884 187.122 62.138 187.322 62.322C187.526 62.502 187.772 62.592 188.06 62.592C188.296 62.592 188.492 62.538 188.648 62.43C188.808 62.318 188.92 62.17 188.984 61.986H189.572C189.484 62.302 189.308 62.56 189.044 62.76C188.78 62.956 188.452 63.054 188.06 63.054C187.748 63.054 187.468 62.984 187.22 62.844C186.976 62.704 186.784 62.506 186.644 62.25C186.504 61.99 186.434 61.69 186.434 61.35C186.434 61.01 186.502 60.712 186.638 60.456C186.774 60.2 186.964 60.004 187.208 59.868C187.456 59.728 187.74 59.658 188.06 59.658C188.372 59.658 188.648 59.726 188.888 59.862C189.128 59.998 189.312 60.186 189.44 60.426C189.572 60.662 189.638 60.93 189.638 61.23ZM189.074 61.116C189.074 60.908 189.028 60.73 188.936 60.582C188.844 60.43 188.718 60.316 188.558 60.24C188.402 60.16 188.228 60.12 188.036 60.12C187.76 60.12 187.524 60.208 187.328 60.384C187.136 60.56 187.026 60.804 186.998 61.116H189.074Z" fill="#001A39"/>
<path d="M191.025 60.162V62.1C191.025 62.26 191.059 62.374 191.127 62.442C191.195 62.506 191.313 62.538 191.481 62.538H191.883V63H191.391C191.087 63 190.859 62.93 190.707 62.79C190.555 62.65 190.479 62.42 190.479 62.1V60.162H190.053V59.712H190.479V58.884H191.025V59.712H191.883V60.162H191.025Z" fill="#001A39"/>
<path d="M194.426 59.178C194.322 59.178 194.234 59.142 194.162 59.07C194.09 58.998 194.054 58.91 194.054 58.806C194.054 58.702 194.09 58.614 194.162 58.542C194.234 58.47 194.322 58.434 194.426 58.434C194.526 58.434 194.61 58.47 194.678 58.542C194.75 58.614 194.786 58.702 194.786 58.806C194.786 58.91 194.75 58.998 194.678 59.07C194.61 59.142 194.526 59.178 194.426 59.178ZM194.69 59.712V63H194.144V59.712H194.69Z" fill="#001A39"/>
<path d="M197.222 59.652C197.622 59.652 197.946 59.774 198.194 60.018C198.442 60.258 198.566 60.606 198.566 61.062V63H198.026V61.14C198.026 60.812 197.944 60.562 197.78 60.39C197.616 60.214 197.392 60.126 197.108 60.126C196.82 60.126 196.59 60.216 196.418 60.396C196.25 60.576 196.166 60.838 196.166 61.182V63H195.62V59.712H196.166V60.18C196.274 60.012 196.42 59.882 196.604 59.79C196.792 59.698 196.998 59.652 197.222 59.652Z" fill="#001A39"/>
<path d="M201.724 60.162V62.1C201.724 62.26 201.758 62.374 201.826 62.442C201.894 62.506 202.012 62.538 202.18 62.538H202.582V63H202.09C201.786 63 201.558 62.93 201.406 62.79C201.254 62.65 201.178 62.42 201.178 62.1V60.162H200.752V59.712H201.178V58.884H201.724V59.712H202.582V60.162H201.724Z" fill="#001A39"/>
<path d="M204.677 63.054C204.369 63.054 204.089 62.984 203.837 62.844C203.589 62.704 203.393 62.506 203.249 62.25C203.109 61.99 203.039 61.69 203.039 61.35C203.039 61.014 203.111 60.718 203.255 60.462C203.403 60.202 203.603 60.004 203.855 59.868C204.107 59.728 204.389 59.658 204.701 59.658C205.013 59.658 205.295 59.728 205.547 59.868C205.799 60.004 205.997 60.2 206.141 60.456C206.289 60.712 206.363 61.01 206.363 61.35C206.363 61.69 206.287 61.99 206.135 62.25C205.987 62.506 205.785 62.704 205.529 62.844C205.273 62.984 204.989 63.054 204.677 63.054ZM204.677 62.574C204.873 62.574 205.057 62.528 205.229 62.436C205.401 62.344 205.539 62.206 205.643 62.022C205.751 61.838 205.805 61.614 205.805 61.35C205.805 61.086 205.753 60.862 205.649 60.678C205.545 60.494 205.409 60.358 205.241 60.27C205.073 60.178 204.891 60.132 204.695 60.132C204.495 60.132 204.311 60.178 204.143 60.27C203.979 60.358 203.847 60.494 203.747 60.678C203.647 60.862 203.597 61.086 203.597 61.35C203.597 61.618 203.645 61.844 203.741 62.028C203.841 62.212 203.973 62.35 204.137 62.442C204.301 62.53 204.481 62.574 204.677 62.574Z" fill="#001A39"/>
<path d="M160.63 93.03C160.514 92.786 160.346 92.598 160.126 92.466C159.906 92.33 159.65 92.262 159.358 92.262C159.066 92.262 158.802 92.33 158.566 92.466C158.334 92.598 158.15 92.79 158.014 93.042C157.882 93.29 157.816 93.578 157.816 93.906C157.816 94.234 157.882 94.522 158.014 94.77C158.15 95.018 158.334 95.21 158.566 95.346C158.802 95.478 159.066 95.544 159.358 95.544C159.766 95.544 160.102 95.422 160.366 95.178C160.63 94.934 160.784 94.604 160.828 94.188H159.16V93.744H161.41V94.164C161.378 94.508 161.27 94.824 161.086 95.112C160.902 95.396 160.66 95.622 160.36 95.79C160.06 95.954 159.726 96.036 159.358 96.036C158.97 96.036 158.616 95.946 158.296 95.766C157.976 95.582 157.722 95.328 157.534 95.004C157.35 94.68 157.258 94.314 157.258 93.906C157.258 93.498 157.35 93.132 157.534 92.808C157.722 92.48 157.976 92.226 158.296 92.046C158.616 91.862 158.97 91.77 159.358 91.77C159.802 91.77 160.194 91.88 160.534 92.1C160.878 92.32 161.128 92.63 161.284 93.03H160.63Z" fill="#001A39"/>
<path d="M165.132 94.23C165.132 94.334 165.126 94.444 165.114 94.56H162.486C162.506 94.884 162.616 95.138 162.816 95.322C163.02 95.502 163.266 95.592 163.554 95.592C163.79 95.592 163.986 95.538 164.142 95.43C164.302 95.318 164.414 95.17 164.478 94.986H165.066C164.978 95.302 164.802 95.56 164.538 95.76C164.274 95.956 163.946 96.054 163.554 96.054C163.242 96.054 162.962 95.984 162.714 95.844C162.47 95.704 162.278 95.506 162.138 95.25C161.998 94.99 161.928 94.69 161.928 94.35C161.928 94.01 161.996 93.712 162.132 93.456C162.268 93.2 162.458 93.004 162.702 92.868C162.95 92.728 163.234 92.658 163.554 92.658C163.866 92.658 164.142 92.726 164.382 92.862C164.622 92.998 164.806 93.186 164.934 93.426C165.066 93.662 165.132 93.93 165.132 94.23ZM164.568 94.116C164.568 93.908 164.522 93.73 164.43 93.582C164.338 93.43 164.212 93.316 164.052 93.24C163.896 93.16 163.722 93.12 163.53 93.12C163.254 93.12 163.018 93.208 162.822 93.384C162.63 93.56 162.52 93.804 162.492 94.116H164.568Z" fill="#001A39"/>
<path d="M167.286 96.054C166.978 96.054 166.698 95.984 166.446 95.844C166.198 95.704 166.002 95.506 165.858 95.25C165.718 94.99 165.648 94.69 165.648 94.35C165.648 94.014 165.72 93.718 165.864 93.462C166.012 93.202 166.212 93.004 166.464 92.868C166.716 92.728 166.998 92.658 167.31 92.658C167.622 92.658 167.904 92.728 168.156 92.868C168.408 93.004 168.606 93.2 168.75 93.456C168.898 93.712 168.972 94.01 168.972 94.35C168.972 94.69 168.896 94.99 168.744 95.25C168.596 95.506 168.394 95.704 168.138 95.844C167.882 95.984 167.598 96.054 167.286 96.054ZM167.286 95.574C167.482 95.574 167.666 95.528 167.838 95.436C168.01 95.344 168.148 95.206 168.252 95.022C168.36 94.838 168.414 94.614 168.414 94.35C168.414 94.086 168.362 93.862 168.258 93.678C168.154 93.494 168.018 93.358 167.85 93.27C167.682 93.178 167.5 93.132 167.304 93.132C167.104 93.132 166.92 93.178 166.752 93.27C166.588 93.358 166.456 93.494 166.356 93.678C166.256 93.862 166.206 94.086 166.206 94.35C166.206 94.618 166.254 94.844 166.35 95.028C166.45 95.212 166.582 95.35 166.746 95.442C166.91 95.53 167.09 95.574 167.286 95.574Z" fill="#001A39"/>
<path d="M171.028 93.162H170.338V96H169.792V93.162H169.366V92.712H169.792V92.478C169.792 92.11 169.886 91.842 170.074 91.674C170.266 91.502 170.572 91.416 170.992 91.416V91.872C170.752 91.872 170.582 91.92 170.482 92.016C170.386 92.108 170.338 92.262 170.338 92.478V92.712H171.028V93.162Z" fill="#001A39"/>
<path d="M173.003 93.162H172.313V96H171.767V93.162H171.341V92.712H171.767V92.478C171.767 92.11 171.861 91.842 172.049 91.674C172.241 91.502 172.547 91.416 172.967 91.416V91.872C172.727 91.872 172.557 91.92 172.457 92.016C172.361 92.108 172.313 92.262 172.313 92.478V92.712H173.003V93.162Z" fill="#001A39"/>
<path d="M175.035 93.906C175.035 93.498 175.127 93.132 175.311 92.808C175.495 92.48 175.745 92.224 176.061 92.04C176.381 91.856 176.735 91.764 177.123 91.764C177.579 91.764 177.977 91.874 178.317 92.094C178.657 92.314 178.905 92.626 179.061 93.03H178.407C178.291 92.778 178.123 92.584 177.903 92.448C177.687 92.312 177.427 92.244 177.123 92.244C176.831 92.244 176.569 92.312 176.337 92.448C176.105 92.584 175.923 92.778 175.791 93.03C175.659 93.278 175.593 93.57 175.593 93.906C175.593 94.238 175.659 94.53 175.791 94.782C175.923 95.03 176.105 95.222 176.337 95.358C176.569 95.494 176.831 95.562 177.123 95.562C177.427 95.562 177.687 95.496 177.903 95.364C178.123 95.228 178.291 95.034 178.407 94.782H179.061C178.905 95.182 178.657 95.492 178.317 95.712C177.977 95.928 177.579 96.036 177.123 96.036C176.735 96.036 176.381 95.946 176.061 95.766C175.745 95.582 175.495 95.328 175.311 95.004C175.127 94.68 175.035 94.314 175.035 93.906Z" fill="#001A39"/>
<path d="M180.42 91.56V96H179.874V91.56H180.42Z" fill="#001A39"/>
<path d="M184.35 94.23C184.35 94.334 184.344 94.444 184.332 94.56H181.704C181.724 94.884 181.834 95.138 182.034 95.322C182.238 95.502 182.484 95.592 182.772 95.592C183.008 95.592 183.204 95.538 183.36 95.43C183.52 95.318 183.632 95.17 183.696 94.986H184.284C184.196 95.302 184.02 95.56 183.756 95.76C183.492 95.956 183.164 96.054 182.772 96.054C182.46 96.054 182.18 95.984 181.932 95.844C181.688 95.704 181.496 95.506 181.356 95.25C181.216 94.99 181.146 94.69 181.146 94.35C181.146 94.01 181.214 93.712 181.35 93.456C181.486 93.2 181.676 93.004 181.92 92.868C182.168 92.728 182.452 92.658 182.772 92.658C183.084 92.658 183.36 92.726 183.6 92.862C183.84 92.998 184.024 93.186 184.152 93.426C184.284 93.662 184.35 93.93 184.35 94.23ZM183.786 94.116C183.786 93.908 183.74 93.73 183.648 93.582C183.556 93.43 183.43 93.316 183.27 93.24C183.114 93.16 182.94 93.12 182.748 93.12C182.472 93.12 182.236 93.208 182.04 93.384C181.848 93.56 181.738 93.804 181.71 94.116H183.786Z" fill="#001A39"/>
<path d="M184.867 94.344C184.867 94.008 184.935 93.714 185.071 93.462C185.207 93.206 185.393 93.008 185.629 92.868C185.869 92.728 186.135 92.658 186.427 92.658C186.715 92.658 186.965 92.72 187.177 92.844C187.389 92.968 187.547 93.124 187.651 93.312V92.712H188.203V96H187.651V95.388C187.543 95.58 187.381 95.74 187.165 95.868C186.953 95.992 186.705 96.054 186.421 96.054C186.129 96.054 185.865 95.982 185.629 95.838C185.393 95.694 185.207 95.492 185.071 95.232C184.935 94.972 184.867 94.676 184.867 94.344ZM187.651 94.35C187.651 94.102 187.601 93.886 187.501 93.702C187.401 93.518 187.265 93.378 187.093 93.282C186.925 93.182 186.739 93.132 186.535 93.132C186.331 93.132 186.145 93.18 185.977 93.276C185.809 93.372 185.675 93.512 185.575 93.696C185.475 93.88 185.425 94.096 185.425 94.344C185.425 94.596 185.475 94.816 185.575 95.004C185.675 95.188 185.809 95.33 185.977 95.43C186.145 95.526 186.331 95.574 186.535 95.574C186.739 95.574 186.925 95.526 187.093 95.43C187.265 95.33 187.401 95.188 187.501 95.004C187.601 94.816 187.651 94.598 187.651 94.35Z" fill="#001A39"/>
<path d="M189.672 93.246C189.768 93.058 189.904 92.912 190.08 92.808C190.26 92.704 190.478 92.652 190.734 92.652V93.216H190.59C189.978 93.216 189.672 93.548 189.672 94.212V96H189.126V92.712H189.672V93.246Z" fill="#001A39"/>
<path d="M195.744 92.712L194.718 96H194.154L193.362 93.39L192.57 96H192.006L190.974 92.712H191.532L192.288 95.472L193.104 92.712H193.662L194.46 95.478L195.204 92.712H195.744Z" fill="#001A39"/>
<path d="M196.082 94.344C196.082 94.008 196.15 93.714 196.286 93.462C196.422 93.206 196.608 93.008 196.844 92.868C197.084 92.728 197.35 92.658 197.642 92.658C197.93 92.658 198.18 92.72 198.392 92.844C198.604 92.968 198.762 93.124 198.866 93.312V92.712H199.418V96H198.866V95.388C198.758 95.58 198.596 95.74 198.38 95.868C198.168 95.992 197.92 96.054 197.636 96.054C197.344 96.054 197.08 95.982 196.844 95.838C196.608 95.694 196.422 95.492 196.286 95.232C196.15 94.972 196.082 94.676 196.082 94.344ZM198.866 94.35C198.866 94.102 198.816 93.886 198.716 93.702C198.616 93.518 198.48 93.378 198.308 93.282C198.14 93.182 197.954 93.132 197.75 93.132C197.546 93.132 197.36 93.18 197.192 93.276C197.024 93.372 196.89 93.512 196.79 93.696C196.69 93.88 196.64 94.096 196.64 94.344C196.64 94.596 196.69 94.816 196.79 95.004C196.89 95.188 197.024 95.33 197.192 95.43C197.36 95.526 197.546 95.574 197.75 95.574C197.954 95.574 198.14 95.526 198.308 95.43C198.48 95.33 198.616 95.188 198.716 95.004C198.816 94.816 198.866 94.598 198.866 94.35Z" fill="#001A39"/>
<path d="M201.007 93.162V95.1C201.007 95.26 201.041 95.374 201.109 95.442C201.177 95.506 201.295 95.538 201.463 95.538H201.865V96H201.373C201.069 96 200.841 95.93 200.689 95.79C200.537 95.65 200.461 95.42 200.461 95.1V93.162H200.035V92.712H200.461V91.884H201.007V92.712H201.865V93.162H201.007Z" fill="#001A39"/>
<path d="M205.526 94.23C205.526 94.334 205.52 94.444 205.508 94.56H202.88C202.9 94.884 203.01 95.138 203.21 95.322C203.414 95.502 203.66 95.592 203.948 95.592C204.184 95.592 204.38 95.538 204.536 95.43C204.696 95.318 204.808 95.17 204.872 94.986H205.46C205.372 95.302 205.196 95.56 204.932 95.76C204.668 95.956 204.34 96.054 203.948 96.054C203.636 96.054 203.356 95.984 203.108 95.844C202.864 95.704 202.672 95.506 202.532 95.25C202.392 94.99 202.322 94.69 202.322 94.35C202.322 94.01 202.39 93.712 202.526 93.456C202.662 93.2 202.852 93.004 203.096 92.868C203.344 92.728 203.628 92.658 203.948 92.658C204.26 92.658 204.536 92.726 204.776 92.862C205.016 92.998 205.2 93.186 205.328 93.426C205.46 93.662 205.526 93.93 205.526 94.23ZM204.962 94.116C204.962 93.908 204.916 93.73 204.824 93.582C204.732 93.43 204.606 93.316 204.446 93.24C204.29 93.16 204.116 93.12 203.924 93.12C203.648 93.12 203.412 93.208 203.216 93.384C203.024 93.56 202.914 93.804 202.886 94.116H204.962Z" fill="#001A39"/>
<path d="M206.793 93.246C206.889 93.058 207.025 92.912 207.201 92.808C207.381 92.704 207.599 92.652 207.855 92.652V93.216H207.711C207.099 93.216 206.793 93.548 206.793 94.212V96H206.247V92.712H206.793V93.246Z" fill="#001A39"/>
<path d="M158.818 124.658C159.102 124.658 159.35 124.72 159.562 124.844C159.778 124.968 159.938 125.124 160.042 125.312V124.712H160.594V128.072C160.594 128.372 160.53 128.638 160.402 128.87C160.274 129.106 160.09 129.29 159.85 129.422C159.614 129.554 159.338 129.62 159.022 129.62C158.59 129.62 158.23 129.518 157.942 129.314C157.654 129.11 157.484 128.832 157.432 128.48H157.972C158.032 128.68 158.156 128.84 158.344 128.96C158.532 129.084 158.758 129.146 159.022 129.146C159.322 129.146 159.566 129.052 159.754 128.864C159.946 128.676 160.042 128.412 160.042 128.072V127.382C159.934 127.574 159.774 127.734 159.562 127.862C159.35 127.99 159.102 128.054 158.818 128.054C158.526 128.054 158.26 127.982 158.02 127.838C157.784 127.694 157.598 127.492 157.462 127.232C157.326 126.972 157.258 126.676 157.258 126.344C157.258 126.008 157.326 125.714 157.462 125.462C157.598 125.206 157.784 125.008 158.02 124.868C158.26 124.728 158.526 124.658 158.818 124.658ZM160.042 126.35C160.042 126.102 159.992 125.886 159.892 125.702C159.792 125.518 159.656 125.378 159.484 125.282C159.316 125.182 159.13 125.132 158.926 125.132C158.722 125.132 158.536 125.18 158.368 125.276C158.2 125.372 158.066 125.512 157.966 125.696C157.866 125.88 157.816 126.096 157.816 126.344C157.816 126.596 157.866 126.816 157.966 127.004C158.066 127.188 158.2 127.33 158.368 127.43C158.536 127.526 158.722 127.574 158.926 127.574C159.13 127.574 159.316 127.526 159.484 127.43C159.656 127.33 159.792 127.188 159.892 127.004C159.992 126.816 160.042 126.598 160.042 126.35Z" fill="#001A39"/>
<path d="M164.516 126.23C164.516 126.334 164.511 126.444 164.499 126.56H161.871C161.891 126.884 162 127.138 162.201 127.322C162.405 127.502 162.65 127.592 162.938 127.592C163.174 127.592 163.371 127.538 163.527 127.43C163.687 127.318 163.799 127.17 163.863 126.986H164.451C164.363 127.302 164.187 127.56 163.923 127.76C163.659 127.956 163.331 128.054 162.938 128.054C162.626 128.054 162.347 127.984 162.099 127.844C161.855 127.704 161.663 127.506 161.523 127.25C161.383 126.99 161.312 126.69 161.312 126.35C161.312 126.01 161.38 125.712 161.516 125.456C161.653 125.2 161.843 125.004 162.087 124.868C162.335 124.728 162.618 124.658 162.938 124.658C163.25 124.658 163.526 124.726 163.766 124.862C164.007 124.998 164.191 125.186 164.319 125.426C164.451 125.662 164.516 125.93 164.516 126.23ZM163.953 126.116C163.953 125.908 163.907 125.73 163.815 125.582C163.723 125.43 163.597 125.316 163.437 125.24C163.281 125.16 163.107 125.12 162.915 125.12C162.639 125.12 162.403 125.208 162.207 125.384C162.015 125.56 161.905 125.804 161.877 126.116H163.953Z" fill="#001A39"/>
<path d="M166.671 128.054C166.363 128.054 166.083 127.984 165.831 127.844C165.583 127.704 165.387 127.506 165.243 127.25C165.103 126.99 165.033 126.69 165.033 126.35C165.033 126.014 165.105 125.718 165.249 125.462C165.397 125.202 165.597 125.004 165.849 124.868C166.101 124.728 166.383 124.658 166.695 124.658C167.007 124.658 167.289 124.728 167.541 124.868C167.793 125.004 167.991 125.2 168.135 125.456C168.283 125.712 168.357 126.01 168.357 126.35C168.357 126.69 168.281 126.99 168.129 127.25C167.981 127.506 167.779 127.704 167.523 127.844C167.267 127.984 166.983 128.054 166.671 128.054ZM166.671 127.574C166.867 127.574 167.051 127.528 167.223 127.436C167.395 127.344 167.533 127.206 167.637 127.022C167.745 126.838 167.799 126.614 167.799 126.35C167.799 126.086 167.747 125.862 167.643 125.678C167.539 125.494 167.403 125.358 167.235 125.27C167.067 125.178 166.885 125.132 166.689 125.132C166.489 125.132 166.305 125.178 166.137 125.27C165.973 125.358 165.841 125.494 165.741 125.678C165.641 125.862 165.591 126.086 165.591 126.35C165.591 126.618 165.639 126.844 165.735 127.028C165.835 127.212 165.967 127.35 166.131 127.442C166.295 127.53 166.475 127.574 166.671 127.574Z" fill="#001A39"/>
<path d="M170.413 125.162H169.723V128H169.177V125.162H168.751V124.712H169.177V124.478C169.177 124.11 169.271 123.842 169.459 123.674C169.651 123.502 169.957 123.416 170.377 123.416V123.872C170.137 123.872 169.967 123.92 169.867 124.016C169.771 124.108 169.723 124.262 169.723 124.478V124.712H170.413V125.162Z" fill="#001A39"/>
<path d="M172.388 125.162H171.698V128H171.152V125.162H170.726V124.712H171.152V124.478C171.152 124.11 171.246 123.842 171.434 123.674C171.626 123.502 171.932 123.416 172.352 123.416V123.872C172.112 123.872 171.942 123.92 171.842 124.016C171.746 124.108 171.698 124.262 171.698 124.478V124.712H172.388V125.162Z" fill="#001A39"/>
<path d="M173.198 128.036C173.094 128.036 173.006 128 172.934 127.928C172.862 127.856 172.826 127.768 172.826 127.664C172.826 127.56 172.862 127.472 172.934 127.4C173.006 127.328 173.094 127.292 173.198 127.292C173.298 127.292 173.382 127.328 173.45 127.4C173.522 127.472 173.558 127.56 173.558 127.664C173.558 127.768 173.522 127.856 173.45 127.928C173.382 128 173.298 128.036 173.198 128.036Z" fill="#001A39"/>
<path d="M174.08 126.35C174.08 126.01 174.148 125.714 174.284 125.462C174.42 125.206 174.608 125.008 174.848 124.868C175.092 124.728 175.37 124.658 175.682 124.658C176.086 124.658 176.418 124.756 176.678 124.952C176.942 125.148 177.116 125.42 177.2 125.768H176.612C176.556 125.568 176.446 125.41 176.282 125.294C176.122 125.178 175.922 125.12 175.682 125.12C175.37 125.12 175.118 125.228 174.926 125.444C174.734 125.656 174.638 125.958 174.638 126.35C174.638 126.746 174.734 127.052 174.926 127.268C175.118 127.484 175.37 127.592 175.682 127.592C175.922 127.592 176.122 127.536 176.282 127.424C176.442 127.312 176.552 127.152 176.612 126.944H177.2C177.112 127.28 176.936 127.55 176.672 127.754C176.408 127.954 176.078 128.054 175.682 128.054C175.37 128.054 175.092 127.984 174.848 127.844C174.608 127.704 174.42 127.506 174.284 127.25C174.148 126.994 174.08 126.694 174.08 126.35Z" fill="#001A39"/>
<path d="M178.475 123.56V128H177.929V123.56H178.475Z" fill="#001A39"/>
<path d="M182.405 126.23C182.405 126.334 182.399 126.444 182.387 126.56H179.759C179.779 126.884 179.889 127.138 180.089 127.322C180.293 127.502 180.539 127.592 180.827 127.592C181.063 127.592 181.259 127.538 181.415 127.43C181.575 127.318 181.687 127.17 181.751 126.986H182.339C182.251 127.302 182.075 127.56 181.811 127.76C181.547 127.956 181.219 128.054 180.827 128.054C180.515 128.054 180.235 127.984 179.987 127.844C179.743 127.704 179.551 127.506 179.411 127.25C179.271 126.99 179.201 126.69 179.201 126.35C179.201 126.01 179.269 125.712 179.405 125.456C179.541 125.2 179.731 125.004 179.975 124.868C180.223 124.728 180.507 124.658 180.827 124.658C181.139 124.658 181.415 124.726 181.655 124.862C181.895 124.998 182.079 125.186 182.207 125.426C182.339 125.662 182.405 125.93 182.405 126.23ZM181.841 126.116C181.841 125.908 181.795 125.73 181.703 125.582C181.611 125.43 181.485 125.316 181.325 125.24C181.169 125.16 180.995 125.12 180.803 125.12C180.527 125.12 180.291 125.208 180.095 125.384C179.903 125.56 179.793 125.804 179.765 126.116H181.841Z" fill="#001A39"/>
<path d="M156.996 81H156.156L154.254 78.126V81H153.414V76.806H154.254L156.156 79.686V76.806H156.996V81Z" fill="#001A39"/>
<path d="M157.61 79.326C157.61 78.99 157.676 78.692 157.808 78.432C157.944 78.172 158.126 77.972 158.354 77.832C158.586 77.692 158.844 77.622 159.128 77.622C159.376 77.622 159.592 77.672 159.776 77.772C159.964 77.872 160.114 77.998 160.226 78.15V77.676H161.072V81H160.226V80.514C160.118 80.67 159.968 80.8 159.776 80.904C159.588 81.004 159.37 81.054 159.122 81.054C158.842 81.054 158.586 80.982 158.354 80.838C158.126 80.694 157.944 80.492 157.808 80.232C157.676 79.968 157.61 79.666 157.61 79.326ZM160.226 79.338C160.226 79.134 160.186 78.96 160.106 78.816C160.026 78.668 159.918 78.556 159.782 78.48C159.646 78.4 159.5 78.36 159.344 78.36C159.188 78.36 159.044 78.398 158.912 78.474C158.78 78.55 158.672 78.662 158.588 78.81C158.508 78.954 158.468 79.126 158.468 79.326C158.468 79.526 158.508 79.702 158.588 79.854C158.672 80.002 158.78 80.116 158.912 80.196C159.048 80.276 159.192 80.316 159.344 80.316C159.5 80.316 159.646 80.278 159.782 80.202C159.918 80.122 160.026 80.01 160.106 79.866C160.186 79.718 160.226 79.542 160.226 79.338Z" fill="#001A39"/>
<path d="M166.021 77.628C166.429 77.628 166.757 77.754 167.005 78.006C167.257 78.254 167.383 78.602 167.383 79.05V81H166.543V79.164C166.543 78.904 166.477 78.706 166.345 78.57C166.213 78.43 166.033 78.36 165.805 78.36C165.577 78.36 165.395 78.43 165.259 78.57C165.127 78.706 165.061 78.904 165.061 79.164V81H164.221V79.164C164.221 78.904 164.155 78.706 164.023 78.57C163.891 78.43 163.711 78.36 163.483 78.36C163.251 78.36 163.067 78.43 162.931 78.57C162.799 78.706 162.733 78.904 162.733 79.164V81H161.893V77.676H162.733V78.078C162.841 77.938 162.979 77.828 163.147 77.748C163.319 77.668 163.507 77.628 163.711 77.628C163.971 77.628 164.203 77.684 164.407 77.796C164.611 77.904 164.769 78.06 164.881 78.264C164.989 78.072 165.145 77.918 165.349 77.802C165.557 77.686 165.781 77.628 166.021 77.628Z" fill="#001A39"/>
<path d="M171.27 79.266C171.27 79.386 171.262 79.494 171.246 79.59H168.816C168.836 79.83 168.92 80.018 169.068 80.154C169.216 80.29 169.398 80.358 169.614 80.358C169.926 80.358 170.148 80.224 170.28 79.956H171.186C171.09 80.276 170.906 80.54 170.634 80.748C170.362 80.952 170.028 81.054 169.632 81.054C169.312 81.054 169.024 80.984 168.768 80.844C168.516 80.7 168.318 80.498 168.174 80.238C168.034 79.978 167.964 79.678 167.964 79.338C167.964 78.994 168.034 78.692 168.174 78.432C168.314 78.172 168.51 77.972 168.762 77.832C169.014 77.692 169.304 77.622 169.632 77.622C169.948 77.622 170.23 77.69 170.478 77.826C170.73 77.962 170.924 78.156 171.06 78.408C171.2 78.656 171.27 78.942 171.27 79.266ZM170.4 79.026C170.396 78.81 170.318 78.638 170.166 78.51C170.014 78.378 169.828 78.312 169.608 78.312C169.4 78.312 169.224 78.376 169.08 78.504C168.94 78.628 168.854 78.802 168.822 79.026H170.4Z" fill="#001A39"/>
<path d="M154.254 109.49V110.54H155.664V111.206H154.254V112.316H155.844V113H153.414V108.806H155.844V109.49H154.254Z" fill="#001A39"/>
<path d="M160.735 109.628C161.143 109.628 161.471 109.754 161.719 110.006C161.971 110.254 162.097 110.602 162.097 111.05V113H161.257V111.164C161.257 110.904 161.191 110.706 161.059 110.57C160.927 110.43 160.747 110.36 160.519 110.36C160.291 110.36 160.109 110.43 159.973 110.57C159.841 110.706 159.775 110.904 159.775 111.164V113H158.935V111.164C158.935 110.904 158.869 110.706 158.737 110.57C158.605 110.43 158.425 110.36 158.197 110.36C157.965 110.36 157.781 110.43 157.645 110.57C157.513 110.706 157.447 110.904 157.447 111.164V113H156.607V109.676H157.447V110.078C157.555 109.938 157.693 109.828 157.861 109.748C158.033 109.668 158.221 109.628 158.425 109.628C158.685 109.628 158.917 109.684 159.121 109.796C159.325 109.904 159.483 110.06 159.595 110.264C159.703 110.072 159.859 109.918 160.063 109.802C160.271 109.686 160.495 109.628 160.735 109.628Z" fill="#001A39"/>
<path d="M162.679 111.326C162.679 110.99 162.745 110.692 162.877 110.432C163.013 110.172 163.195 109.972 163.423 109.832C163.655 109.692 163.913 109.622 164.197 109.622C164.445 109.622 164.661 109.672 164.845 109.772C165.033 109.872 165.183 109.998 165.295 110.15V109.676H166.141V113H165.295V112.514C165.187 112.67 165.037 112.8 164.845 112.904C164.657 113.004 164.439 113.054 164.191 113.054C163.911 113.054 163.655 112.982 163.423 112.838C163.195 112.694 163.013 112.492 162.877 112.232C162.745 111.968 162.679 111.666 162.679 111.326ZM165.295 111.338C165.295 111.134 165.255 110.96 165.175 110.816C165.095 110.668 164.987 110.556 164.851 110.48C164.715 110.4 164.569 110.36 164.413 110.36C164.257 110.36 164.113 110.398 163.981 110.474C163.849 110.55 163.741 110.662 163.657 110.81C163.577 110.954 163.537 111.126 163.537 111.326C163.537 111.526 163.577 111.702 163.657 111.854C163.741 112.002 163.849 112.116 163.981 112.196C164.117 112.276 164.261 112.316 164.413 112.316C164.569 112.316 164.715 112.278 164.851 112.202C164.987 112.122 165.095 112.01 165.175 111.866C165.255 111.718 165.295 111.542 165.295 111.338Z" fill="#001A39"/>
<path d="M167.387 109.28C167.239 109.28 167.115 109.234 167.015 109.142C166.919 109.046 166.871 108.928 166.871 108.788C166.871 108.648 166.919 108.532 167.015 108.44C167.115 108.344 167.239 108.296 167.387 108.296C167.535 108.296 167.657 108.344 167.753 108.44C167.853 108.532 167.903 108.648 167.903 108.788C167.903 108.928 167.853 109.046 167.753 109.142C167.657 109.234 167.535 109.28 167.387 109.28ZM167.801 109.676V113H166.961V109.676H167.801Z" fill="#001A39"/>
<path d="M169.471 108.56V113H168.631V108.56H169.471Z" fill="#001A39"/>
<path d="M171.514 111.326C171.514 110.99 171.58 110.692 171.712 110.432C171.848 110.172 172.03 109.972 172.258 109.832C172.49 109.692 172.748 109.622 173.032 109.622C173.28 109.622 173.496 109.672 173.68 109.772C173.868 109.872 174.018 109.998 174.13 110.15V109.676H174.976V113H174.13V112.514C174.022 112.67 173.872 112.8 173.68 112.904C173.492 113.004 173.274 113.054 173.026 113.054C172.746 113.054 172.49 112.982 172.258 112.838C172.03 112.694 171.848 112.492 171.712 112.232C171.58 111.968 171.514 111.666 171.514 111.326ZM174.13 111.338C174.13 111.134 174.09 110.96 174.01 110.816C173.93 110.668 173.822 110.556 173.686 110.48C173.55 110.4 173.404 110.36 173.248 110.36C173.092 110.36 172.948 110.398 172.816 110.474C172.684 110.55 172.576 110.662 172.492 110.81C172.412 110.954 172.372 111.126 172.372 111.326C172.372 111.526 172.412 111.702 172.492 111.854C172.576 112.002 172.684 112.116 172.816 112.196C172.952 112.276 173.096 112.316 173.248 112.316C173.404 112.316 173.55 112.278 173.686 112.202C173.822 112.122 173.93 112.01 174.01 111.866C174.09 111.718 174.13 111.542 174.13 111.338Z" fill="#001A39"/>
<path d="M175.581 111.326C175.581 110.99 175.647 110.692 175.779 110.432C175.915 110.172 176.099 109.972 176.331 109.832C176.563 109.692 176.821 109.622 177.105 109.622C177.321 109.622 177.527 109.67 177.723 109.766C177.919 109.858 178.075 109.982 178.191 110.138V108.56H179.043V113H178.191V112.508C178.087 112.672 177.941 112.804 177.753 112.904C177.565 113.004 177.347 113.054 177.099 113.054C176.819 113.054 176.563 112.982 176.331 112.838C176.099 112.694 175.915 112.492 175.779 112.232C175.647 111.968 175.581 111.666 175.581 111.326ZM178.197 111.338C178.197 111.134 178.157 110.96 178.077 110.816C177.997 110.668 177.889 110.556 177.753 110.48C177.617 110.4 177.471 110.36 177.315 110.36C177.159 110.36 177.015 110.398 176.883 110.474C176.751 110.55 176.643 110.662 176.559 110.81C176.479 110.954 176.439 111.126 176.439 111.326C176.439 111.526 176.479 111.702 176.559 111.854C176.643 112.002 176.751 112.116 176.883 112.196C177.019 112.276 177.163 112.316 177.315 112.316C177.471 112.316 177.617 112.278 177.753 112.202C177.889 112.122 177.997 112.01 178.077 111.866C178.157 111.718 178.197 111.542 178.197 111.338Z" fill="#001A39"/>
<path d="M179.647 111.326C179.647 110.99 179.713 110.692 179.845 110.432C179.981 110.172 180.165 109.972 180.397 109.832C180.629 109.692 180.887 109.622 181.171 109.622C181.387 109.622 181.593 109.67 181.789 109.766C181.985 109.858 182.141 109.982 182.257 110.138V108.56H183.109V113H182.257V112.508C182.153 112.672 182.007 112.804 181.819 112.904C181.631 113.004 181.413 113.054 181.165 113.054C180.885 113.054 180.629 112.982 180.397 112.838C180.165 112.694 179.981 112.492 179.845 112.232C179.713 111.968 179.647 111.666 179.647 111.326ZM182.263 111.338C182.263 111.134 182.223 110.96 182.143 110.816C182.063 110.668 181.955 110.556 181.819 110.48C181.683 110.4 181.537 110.36 181.381 110.36C181.225 110.36 181.081 110.398 180.949 110.474C180.817 110.55 180.709 110.662 180.625 110.81C180.545 110.954 180.505 111.126 180.505 111.326C180.505 111.526 180.545 111.702 180.625 111.854C180.709 112.002 180.817 112.116 180.949 112.196C181.085 112.276 181.229 112.316 181.381 112.316C181.537 112.316 181.683 112.278 181.819 112.202C181.955 112.122 182.063 112.01 182.143 111.866C182.223 111.718 182.263 111.542 182.263 111.338Z" fill="#001A39"/>
<path d="M184.77 110.192C184.878 110.016 185.018 109.878 185.19 109.778C185.366 109.678 185.566 109.628 185.79 109.628V110.51H185.568C185.304 110.51 185.104 110.572 184.968 110.696C184.836 110.82 184.77 111.036 184.77 111.344V113H183.93V109.676H184.77V110.192Z" fill="#001A39"/>
<path d="M189.445 111.266C189.445 111.386 189.437 111.494 189.421 111.59H186.991C187.011 111.83 187.095 112.018 187.243 112.154C187.391 112.29 187.573 112.358 187.789 112.358C188.101 112.358 188.323 112.224 188.455 111.956H189.361C189.265 112.276 189.081 112.54 188.809 112.748C188.537 112.952 188.203 113.054 187.807 113.054C187.487 113.054 187.199 112.984 186.943 112.844C186.691 112.7 186.493 112.498 186.349 112.238C186.209 111.978 186.139 111.678 186.139 111.338C186.139 110.994 186.209 110.692 186.349 110.432C186.489 110.172 186.685 109.972 186.937 109.832C187.189 109.692 187.479 109.622 187.807 109.622C188.123 109.622 188.405 109.69 188.653 109.826C188.905 109.962 189.099 110.156 189.235 110.408C189.375 110.656 189.445 110.942 189.445 111.266ZM188.575 111.026C188.571 110.81 188.493 110.638 188.341 110.51C188.189 110.378 188.003 110.312 187.783 110.312C187.575 110.312 187.399 110.376 187.255 110.504C187.115 110.628 187.029 110.802 186.997 111.026H188.575Z" fill="#001A39"/>
<path d="M191.331 113.054C191.059 113.054 190.815 113.006 190.599 112.91C190.383 112.81 190.211 112.676 190.083 112.508C189.959 112.34 189.891 112.154 189.879 111.95H190.725C190.741 112.078 190.803 112.184 190.911 112.268C191.023 112.352 191.161 112.394 191.325 112.394C191.485 112.394 191.609 112.362 191.697 112.298C191.789 112.234 191.835 112.152 191.835 112.052C191.835 111.944 191.779 111.864 191.667 111.812C191.559 111.756 191.385 111.696 191.145 111.632C190.897 111.572 190.693 111.51 190.533 111.446C190.377 111.382 190.241 111.284 190.125 111.152C190.013 111.02 189.957 110.842 189.957 110.618C189.957 110.434 190.009 110.266 190.113 110.114C190.221 109.962 190.373 109.842 190.569 109.754C190.769 109.666 191.003 109.622 191.271 109.622C191.667 109.622 191.983 109.722 192.219 109.922C192.455 110.118 192.585 110.384 192.609 110.72H191.805C191.793 110.588 191.737 110.484 191.637 110.408C191.541 110.328 191.411 110.288 191.247 110.288C191.095 110.288 190.977 110.316 190.893 110.372C190.813 110.428 190.773 110.506 190.773 110.606C190.773 110.718 190.829 110.804 190.941 110.864C191.053 110.92 191.227 110.978 191.463 111.038C191.703 111.098 191.901 111.16 192.057 111.224C192.213 111.288 192.347 111.388 192.459 111.524C192.575 111.656 192.635 111.832 192.639 112.052C192.639 112.244 192.585 112.416 192.477 112.568C192.373 112.72 192.221 112.84 192.021 112.928C191.825 113.012 191.595 113.054 191.331 113.054Z" fill="#001A39"/>
<path d="M194.6 113.054C194.328 113.054 194.084 113.006 193.868 112.91C193.652 112.81 193.48 112.676 193.352 112.508C193.228 112.34 193.16 112.154 193.148 111.95H193.994C194.01 112.078 194.072 112.184 194.18 112.268C194.292 112.352 194.43 112.394 194.594 112.394C194.754 112.394 194.878 112.362 194.966 112.298C195.058 112.234 195.104 112.152 195.104 112.052C195.104 111.944 195.048 111.864 194.936 111.812C194.828 111.756 194.654 111.696 194.414 111.632C194.166 111.572 193.962 111.51 193.802 111.446C193.646 111.382 193.51 111.284 193.394 111.152C193.282 111.02 193.226 110.842 193.226 110.618C193.226 110.434 193.278 110.266 193.382 110.114C193.49 109.962 193.642 109.842 193.838 109.754C194.038 109.666 194.272 109.622 194.54 109.622C194.936 109.622 195.252 109.722 195.488 109.922C195.724 110.118 195.854 110.384 195.878 110.72H195.074C195.062 110.588 195.006 110.484 194.906 110.408C194.81 110.328 194.68 110.288 194.516 110.288C194.364 110.288 194.246 110.316 194.162 110.372C194.082 110.428 194.042 110.506 194.042 110.606C194.042 110.718 194.098 110.804 194.21 110.864C194.322 110.92 194.496 110.978 194.732 111.038C194.972 111.098 195.17 111.16 195.326 111.224C195.482 111.288 195.616 111.388 195.728 111.524C195.844 111.656 195.904 111.832 195.908 112.052C195.908 112.244 195.854 112.416 195.746 112.568C195.642 112.72 195.49 112.84 195.29 112.928C195.094 113.012 194.864 113.054 194.6 113.054Z" fill="#001A39"/>
<path d="M157.98 140.812V145H157.14V142.276L156.018 145H155.382L154.254 142.276V145H153.414V140.812H154.368L155.7 143.926L157.032 140.812H157.98Z" fill="#001A39"/>
<path d="M161.901 143.266C161.901 143.386 161.893 143.494 161.877 143.59H159.447C159.467 143.83 159.551 144.018 159.699 144.154C159.847 144.29 160.029 144.358 160.245 144.358C160.557 144.358 160.779 144.224 160.911 143.956H161.817C161.721 144.276 161.537 144.54 161.265 144.748C160.993 144.952 160.659 145.054 160.263 145.054C159.943 145.054 159.655 144.984 159.399 144.844C159.147 144.7 158.949 144.498 158.805 144.238C158.665 143.978 158.595 143.678 158.595 143.338C158.595 142.994 158.665 142.692 158.805 142.432C158.945 142.172 159.141 141.972 159.393 141.832C159.645 141.692 159.935 141.622 160.263 141.622C160.579 141.622 160.861 141.69 161.109 141.826C161.361 141.962 161.555 142.156 161.691 142.408C161.831 142.656 161.901 142.942 161.901 143.266ZM161.031 143.026C161.027 142.81 160.949 142.638 160.797 142.51C160.645 142.378 160.459 142.312 160.239 142.312C160.031 142.312 159.855 142.376 159.711 142.504C159.571 142.628 159.485 142.802 159.453 143.026H161.031Z" fill="#001A39"/>
<path d="M163.786 145.054C163.514 145.054 163.27 145.006 163.054 144.91C162.838 144.81 162.666 144.676 162.538 144.508C162.414 144.34 162.346 144.154 162.334 143.95H163.18C163.196 144.078 163.258 144.184 163.366 144.268C163.478 144.352 163.616 144.394 163.78 144.394C163.94 144.394 164.064 144.362 164.152 144.298C164.244 144.234 164.29 144.152 164.29 144.052C164.29 143.944 164.234 143.864 164.122 143.812C164.014 143.756 163.84 143.696 163.6 143.632C163.352 143.572 163.148 143.51 162.988 143.446C162.832 143.382 162.696 143.284 162.58 143.152C162.468 143.02 162.412 142.842 162.412 142.618C162.412 142.434 162.464 142.266 162.568 142.114C162.676 141.962 162.828 141.842 163.024 141.754C163.224 141.666 163.458 141.622 163.726 141.622C164.122 141.622 164.438 141.722 164.674 141.922C164.91 142.118 165.04 142.384 165.064 142.72H164.26C164.248 142.588 164.192 142.484 164.092 142.408C163.996 142.328 163.866 142.288 163.702 142.288C163.55 142.288 163.432 142.316 163.348 142.372C163.268 142.428 163.228 142.506 163.228 142.606C163.228 142.718 163.284 142.804 163.396 142.864C163.508 142.92 163.682 142.978 163.918 143.038C164.158 143.098 164.356 143.16 164.512 143.224C164.668 143.288 164.802 143.388 164.914 143.524C165.03 143.656 165.09 143.832 165.094 144.052C165.094 144.244 165.04 144.416 164.932 144.568C164.828 144.72 164.676 144.84 164.476 144.928C164.28 145.012 164.05 145.054 163.786 145.054Z" fill="#001A39"/>
<path d="M167.055 145.054C166.783 145.054 166.539 145.006 166.323 144.91C166.107 144.81 165.935 144.676 165.807 144.508C165.683 144.34 165.615 144.154 165.603 143.95H166.449C166.465 144.078 166.527 144.184 166.635 144.268C166.747 144.352 166.885 144.394 167.049 144.394C167.209 144.394 167.333 144.362 167.421 144.298C167.513 144.234 167.559 144.152 167.559 144.052C167.559 143.944 167.503 143.864 167.391 143.812C167.283 143.756 167.109 143.696 166.869 143.632C166.621 143.572 166.417 143.51 166.257 143.446C166.101 143.382 165.965 143.284 165.849 143.152C165.737 143.02 165.681 142.842 165.681 142.618C165.681 142.434 165.733 142.266 165.837 142.114C165.945 141.962 166.097 141.842 166.293 141.754C166.493 141.666 166.727 141.622 166.995 141.622C167.391 141.622 167.707 141.722 167.943 141.922C168.179 142.118 168.309 142.384 168.333 142.72H167.529C167.517 142.588 167.461 142.484 167.361 142.408C167.265 142.328 167.135 142.288 166.971 142.288C166.819 142.288 166.701 142.316 166.617 142.372C166.537 142.428 166.497 142.506 166.497 142.606C166.497 142.718 166.553 142.804 166.665 142.864C166.777 142.92 166.951 142.978 167.187 143.038C167.427 143.098 167.625 143.16 167.781 143.224C167.937 143.288 168.071 143.388 168.183 143.524C168.299 143.656 168.359 143.832 168.363 144.052C168.363 144.244 168.309 144.416 168.201 144.568C168.097 144.72 167.945 144.84 167.745 144.928C167.549 145.012 167.319 145.054 167.055 145.054Z" fill="#001A39"/>
<path d="M168.837 143.326C168.837 142.99 168.903 142.692 169.035 142.432C169.171 142.172 169.353 141.972 169.581 141.832C169.813 141.692 170.071 141.622 170.355 141.622C170.603 141.622 170.819 141.672 171.003 141.772C171.191 141.872 171.341 141.998 171.453 142.15V141.676H172.299V145H171.453V144.514C171.345 144.67 171.195 144.8 171.003 144.904C170.815 145.004 170.597 145.054 170.349 145.054C170.069 145.054 169.813 144.982 169.581 144.838C169.353 144.694 169.171 144.492 169.035 144.232C168.903 143.968 168.837 143.666 168.837 143.326ZM171.453 143.338C171.453 143.134 171.413 142.96 171.333 142.816C171.253 142.668 171.145 142.556 171.009 142.48C170.873 142.4 170.727 142.36 170.571 142.36C170.415 142.36 170.271 142.398 170.139 142.474C170.007 142.55 169.899 142.662 169.815 142.81C169.735 142.954 169.695 143.126 169.695 143.326C169.695 143.526 169.735 143.702 169.815 143.854C169.899 144.002 170.007 144.116 170.139 144.196C170.275 144.276 170.419 144.316 170.571 144.316C170.727 144.316 170.873 144.278 171.009 144.202C171.145 144.122 171.253 144.01 171.333 143.866C171.413 143.718 171.453 143.542 171.453 143.338Z" fill="#001A39"/>
<path d="M174.421 141.622C174.669 141.622 174.887 141.672 175.075 141.772C175.263 141.868 175.411 141.994 175.519 142.15V141.676H176.365V145.024C176.365 145.332 176.303 145.606 176.179 145.846C176.055 146.09 175.869 146.282 175.621 146.422C175.373 146.566 175.073 146.638 174.721 146.638C174.249 146.638 173.861 146.528 173.557 146.308C173.257 146.088 173.087 145.788 173.047 145.408H173.881C173.925 145.56 174.019 145.68 174.163 145.768C174.311 145.86 174.489 145.906 174.697 145.906C174.941 145.906 175.139 145.832 175.291 145.684C175.443 145.54 175.519 145.32 175.519 145.024V144.508C175.411 144.664 175.261 144.794 175.069 144.898C174.881 145.002 174.665 145.054 174.421 145.054C174.141 145.054 173.885 144.982 173.653 144.838C173.421 144.694 173.237 144.492 173.101 144.232C172.969 143.968 172.903 143.666 172.903 143.326C172.903 142.99 172.969 142.692 173.101 142.432C173.237 142.172 173.419 141.972 173.647 141.832C173.879 141.692 174.137 141.622 174.421 141.622ZM175.519 143.338C175.519 143.134 175.479 142.96 175.399 142.816C175.319 142.668 175.211 142.556 175.075 142.48C174.939 142.4 174.793 142.36 174.637 142.36C174.481 142.36 174.337 142.398 174.205 142.474C174.073 142.55 173.965 142.662 173.881 142.81C173.801 142.954 173.761 143.126 173.761 143.326C173.761 143.526 173.801 143.702 173.881 143.854C173.965 144.002 174.073 144.116 174.205 144.196C174.341 144.276 174.485 144.316 174.637 144.316C174.793 144.316 174.939 144.278 175.075 144.202C175.211 144.122 175.319 144.01 175.399 143.866C175.479 143.718 175.519 143.542 175.519 143.338Z" fill="#001A39"/>
<path d="M180.276 143.266C180.276 143.386 180.268 143.494 180.252 143.59H177.822C177.842 143.83 177.926 144.018 178.074 144.154C178.222 144.29 178.404 144.358 178.62 144.358C178.932 144.358 179.154 144.224 179.286 143.956H180.192C180.096 144.276 179.912 144.54 179.64 144.748C179.368 144.952 179.034 145.054 178.638 145.054C178.318 145.054 178.03 144.984 177.774 144.844C177.522 144.7 177.324 144.498 177.18 144.238C177.04 143.978 176.97 143.678 176.97 143.338C176.97 142.994 177.04 142.692 177.18 142.432C177.32 142.172 177.516 141.972 177.768 141.832C178.02 141.692 178.31 141.622 178.638 141.622C178.954 141.622 179.236 141.69 179.484 141.826C179.736 141.962 179.93 142.156 180.066 142.408C180.206 142.656 180.276 142.942 180.276 143.266ZM179.406 143.026C179.402 142.81 179.324 142.638 179.172 142.51C179.02 142.378 178.834 142.312 178.614 142.312C178.406 142.312 178.23 142.376 178.086 142.504C177.946 142.628 177.86 142.802 177.828 143.026H179.406Z" fill="#001A39"/>
<path d="M160.86 210.042C160.568 210.042 160.304 209.992 160.068 209.892C159.836 209.792 159.652 209.648 159.516 209.46C159.38 209.272 159.31 209.05 159.306 208.794H160.206C160.218 208.966 160.278 209.102 160.386 209.202C160.498 209.302 160.65 209.352 160.842 209.352C161.038 209.352 161.192 209.306 161.304 209.214C161.416 209.118 161.472 208.994 161.472 208.842C161.472 208.718 161.434 208.616 161.358 208.536C161.282 208.456 161.186 208.394 161.07 208.35C160.958 208.302 160.802 208.25 160.602 208.194C160.33 208.114 160.108 208.036 159.936 207.96C159.768 207.88 159.622 207.762 159.498 207.606C159.378 207.446 159.318 207.234 159.318 206.97C159.318 206.722 159.38 206.506 159.504 206.322C159.628 206.138 159.802 205.998 160.026 205.902C160.25 205.802 160.506 205.752 160.794 205.752C161.226 205.752 161.576 205.858 161.844 206.07C162.116 206.278 162.266 206.57 162.294 206.946H161.37C161.362 206.802 161.3 206.684 161.184 206.592C161.072 206.496 160.922 206.448 160.734 206.448C160.57 206.448 160.438 206.49 160.338 206.574C160.242 206.658 160.194 206.78 160.194 206.94C160.194 207.052 160.23 207.146 160.302 207.222C160.378 207.294 160.47 207.354 160.578 207.402C160.69 207.446 160.846 207.498 161.046 207.558C161.318 207.638 161.54 207.718 161.712 207.798C161.884 207.878 162.032 207.998 162.156 208.158C162.28 208.318 162.342 208.528 162.342 208.788C162.342 209.012 162.284 209.22 162.168 209.412C162.052 209.604 161.882 209.758 161.658 209.874C161.434 209.986 161.168 210.042 160.86 210.042Z" fill="white"/>
<path d="M166.16 208.266C166.16 208.386 166.152 208.494 166.136 208.59H163.706C163.726 208.83 163.81 209.018 163.958 209.154C164.106 209.29 164.288 209.358 164.504 209.358C164.816 209.358 165.038 209.224 165.17 208.956H166.076C165.98 209.276 165.796 209.54 165.524 209.748C165.252 209.952 164.918 210.054 164.522 210.054C164.202 210.054 163.914 209.984 163.658 209.844C163.406 209.7 163.208 209.498 163.064 209.238C162.924 208.978 162.854 208.678 162.854 208.338C162.854 207.994 162.924 207.692 163.064 207.432C163.204 207.172 163.4 206.972 163.652 206.832C163.904 206.692 164.194 206.622 164.522 206.622C164.838 206.622 165.12 206.69 165.368 206.826C165.62 206.962 165.814 207.156 165.95 207.408C166.09 207.656 166.16 207.942 166.16 208.266ZM165.29 208.026C165.286 207.81 165.208 207.638 165.056 207.51C164.904 207.378 164.718 207.312 164.498 207.312C164.29 207.312 164.114 207.376 163.97 207.504C163.83 207.628 163.744 207.802 163.712 208.026H165.29Z" fill="white"/>
<path d="M168.616 206.628C169.012 206.628 169.332 206.754 169.576 207.006C169.82 207.254 169.942 207.602 169.942 208.05V210H169.102V208.164C169.102 207.9 169.036 207.698 168.904 207.558C168.772 207.414 168.592 207.342 168.364 207.342C168.132 207.342 167.948 207.414 167.812 207.558C167.68 207.698 167.614 207.9 167.614 208.164V210H166.774V206.676H167.614V207.09C167.726 206.946 167.868 206.834 168.04 206.754C168.216 206.67 168.408 206.628 168.616 206.628Z" fill="white"/>
<path d="M170.524 208.326C170.524 207.99 170.59 207.692 170.722 207.432C170.858 207.172 171.042 206.972 171.274 206.832C171.506 206.692 171.764 206.622 172.048 206.622C172.264 206.622 172.47 206.67 172.666 206.766C172.862 206.858 173.018 206.982 173.134 207.138V205.56H173.986V210H173.134V209.508C173.03 209.672 172.884 209.804 172.696 209.904C172.508 210.004 172.29 210.054 172.042 210.054C171.762 210.054 171.506 209.982 171.274 209.838C171.042 209.694 170.858 209.492 170.722 209.232C170.59 208.968 170.524 208.666 170.524 208.326ZM173.14 208.338C173.14 208.134 173.1 207.96 173.02 207.816C172.94 207.668 172.832 207.556 172.696 207.48C172.56 207.4 172.414 207.36 172.258 207.36C172.102 207.36 171.958 207.398 171.826 207.474C171.694 207.55 171.586 207.662 171.502 207.81C171.422 207.954 171.382 208.126 171.382 208.326C171.382 208.526 171.422 208.702 171.502 208.854C171.586 209.002 171.694 209.116 171.826 209.196C171.962 209.276 172.106 209.316 172.258 209.316C172.414 209.316 172.56 209.278 172.696 209.202C172.832 209.122 172.94 209.01 173.02 208.866C173.1 208.718 173.14 208.542 173.14 208.338Z" fill="white"/>
<path fill-rule="evenodd" clip-rule="evenodd" d="M330 87H156C154.895 87 154 87.8954 154 89V99C154 100.105 154.895 101 156 101H330C331.105 101 332 100.105 332 99V89C332 87.8954 331.105 87 330 87ZM156 86C154.343 86 153 87.3431 153 89V99C153 100.657 154.343 102 156 102H330C331.657 102 333 100.657 333 99V89C333 87.3431 331.657 86 330 86H156Z" fill="#D7D7D7"/>
<path fill-rule="evenodd" clip-rule="evenodd" d="M330 119H156C154.895 119 154 119.895 154 121V131C154 132.105 154.895 133 156 133H330C331.105 133 332 132.105 332 131V121C332 119.895 331.105 119 330 119ZM156 118C154.343 118 153 119.343 153 121V131C153 132.657 154.343 134 156 134H330C331.657 134 333 132.657 333 131V121C333 119.343 331.657 118 330 118H156Z" fill="#0768C1"/>
<path fill-rule="evenodd" clip-rule="evenodd" d="M330 151H156C154.895 151 154 151.895 154 153V193C154 194.105 154.895 195 156 195H330C331.105 195 332 194.105 332 193V153C332 151.895 331.105 151 330 151ZM156 150C154.343 150 153 151.343 153 153V193C153 194.657 154.343 196 156 196H330C331.657 196 333 194.657 333 193V153C333 151.343 331.657 150 330 150H156Z" fill="#D7D7D7"/>
<path d="M183 121H183.5V131H183V121Z" fill="#001A39"/>
</svg>
