<svg width="32" height="32" viewBox="0 0 32 32" fill="none" xmlns="http://www.w3.org/2000/svg">
<g clip-path="url(#clip0)">
<path d="M31.708 11.2292C31.312 8.25636 30.2605 5.56265 28.4106 3.58942C26.4374 1.73952 23.7437 0.688001 20.7708 0.292057C17.9343 -0.0844133 16.0001 0.00645892 16.0001 0.00645892C16.0001 0.00645892 14.0658 -0.0844133 11.2293 0.292057C8.25645 0.688001 5.56274 1.73952 3.596 3.58942C1.73961 5.56265 0.688092 8.25636 0.292149 11.2292C-0.0843217 14.0657 0.00655048 16 0.00655048 16C0.00655048 16 -0.0843217 17.9342 0.292149 20.7708C0.688092 23.7436 1.73961 26.4373 3.58951 28.4105C5.56274 30.2669 8.25645 31.3184 11.2228 31.7144C14.0593 32.0908 15.9936 32 15.9936 32C15.9936 32 17.9278 32.0908 20.7644 31.7144C23.7372 31.3184 26.4309 30.2669 28.3976 28.4105C30.254 26.4373 31.3055 23.7436 31.695 20.7708C32.0715 17.9342 31.9806 16 31.9806 16C31.9806 16 32.0844 14.0657 31.708 11.2292Z" fill="#7882FF"/>
<path d="M24.1916 13.6308C25.4573 18.1744 22.7961 22.8868 18.2524 24.1525C13.7088 25.4182 8.99645 22.757 7.73073 18.2134C6.46501 13.6697 9.12627 8.95736 13.6699 7.69164C18.2135 6.42592 22.9259 9.08718 24.1916 13.6308Z" fill="white"/>
<path d="M24.1915 13.6308C24.6654 15.3379 24.5875 17.0645 24.0682 18.6223C24.0293 18.7456 23.9838 18.8754 23.9319 18.9987" fill="white"/>
<path d="M24.0552 13.6308C24.3862 14.8251 24.4511 16.0324 24.2759 17.1813L24.0552 13.6308Z" fill="white"/>
<path d="M21.6731 21.9197C19.5116 21.9197 16.8828 21.3679 14.2605 20.3748C11.6382 19.3817 9.30798 18.0446 7.69175 16.6101C5.06944 14.2799 5.23171 12.4755 5.56274 11.6057C5.89378 10.7359 6.97126 9.27545 10.4763 9.27545C12.6378 9.27545 15.2666 9.82718 17.8889 10.8203C20.5112 11.8134 22.8414 13.1505 24.4577 14.585C27.08 16.9152 26.9177 18.7197 26.5867 19.5894C26.2621 20.4592 25.1847 21.9197 21.6731 21.9197ZM10.4828 11.9821C8.86011 11.9821 8.16558 12.3846 8.09418 12.5663C8.02278 12.7481 8.28242 13.514 9.49621 14.5915C10.8528 15.7923 12.9429 16.9866 15.2277 17.8499C17.5124 18.7197 19.8686 19.2195 21.6796 19.2195C23.3023 19.2195 23.9968 18.817 24.0682 18.6353C24.1396 18.4535 23.88 17.6876 22.6727 16.6101C21.3161 15.4093 19.226 14.215 16.9412 13.3517C14.6435 12.4819 12.2938 11.9821 10.4828 11.9821Z" fill="#4D5CC1"/>
<path d="M8.09418 12.5922L24.0552 18.6547C24.5875 17.0839 24.6719 15.3444 24.1915 13.6308C22.9258 9.08718 18.2199 6.42592 13.6698 7.69164C11.0605 8.41862 9.0743 10.2815 8.09418 12.5922Z" fill="white"/>
</g>
<defs>
<clipPath id="clip0">
<rect width="32" height="32" fill="white"/>
</clipPath>
</defs>
</svg>
