<svg width="16" height="16" viewBox="0 0 16 16" fill="none" xmlns="http://www.w3.org/2000/svg">
<rect x="5.33301" y="4.66699" width="1.33333" height="5.33333" fill="#001A39"/>
<rect x="4" y="4.66699" width="4" height="1.33333" fill="#001A39"/>
<rect x="4" y="10" width="4" height="1.33333" fill="#001A39"/>
<path fill-rule="evenodd" clip-rule="evenodd" d="M2.00033 2H1.33366C0.965469 2 0.666992 2.29848 0.666992 2.66667V3.33333H2.00033V2ZM0.666992 4.66667V6H2.00033V4.66667H0.666992ZM14.0003 4.66667V6H15.3337V4.66667H14.0003ZM15.3337 3.33333V2.66667C15.3337 2.29848 15.0352 2 14.667 2H14.0003V3.33333H15.3337ZM12.667 2H11.3337V3.33333H12.667V2ZM10.0003 2H8.66699V3.33333H10.0003V2ZM7.33366 2H6.00033V3.33333H7.33366V2ZM4.66699 2V3.33333H3.33366V2H4.66699ZM15.3337 7.33333H14.0003V8.66667H15.3337V7.33333ZM15.3337 10H14.0003V11.3333H15.3337V10ZM15.3337 12.6667H14.0003V14L14.667 14C15.0352 14 15.3337 13.7015 15.3337 13.3333V12.6667ZM12.667 14V12.6667H11.3337V14H12.667ZM10.0003 14V12.6667H8.66699V14H10.0003ZM7.33366 14V12.6667H6.00033V14H7.33366ZM4.66699 14V12.6667H3.33366V14H4.66699ZM2.00033 14V12.6667H0.666992V13.3333C0.666992 13.7015 0.965469 14 1.33366 14L2.00033 14ZM0.666992 11.3333H2.00033V10H0.666992V11.3333ZM0.666992 8.66667H2.00033V7.33333H0.666992V8.66667Z" fill="#001A39"/>
</svg>
