<svg width="12" height="14" viewBox="0 0 12 14" fill="none" xmlns="http://www.w3.org/2000/svg">
<path d="M10.643 9.70767L6.00029 6.99967L6.02428 12.375L7.50629 10.9417L8.92295 13.395L10.0776 12.7283L8.66095 10.2743L10.643 9.70767Z" fill="#001A39"/>
<path d="M6.47169 0.52827C6.34667 0.403246 6.1771 0.333008 6.00029 0.333008C5.82347 0.333008 5.65391 0.403246 5.52888 0.52827C5.40386 0.653294 5.33362 0.822864 5.33362 0.999674V2.99967C5.33362 3.17649 5.40386 3.34605 5.52888 3.47108C5.65391 3.5961 5.82347 3.66634 6.00029 3.66634C6.1771 3.66634 6.34667 3.5961 6.47169 3.47108C6.59671 3.34605 6.66695 3.17649 6.66695 2.99967V0.999674C6.66695 0.822864 6.59671 0.653294 6.47169 0.52827Z" fill="#001A39"/>
<path d="M11.8402 4.17221C11.886 4.00142 11.862 3.81946 11.7736 3.66634C11.6852 3.51323 11.5396 3.4015 11.3688 3.35574C11.198 3.30998 11.0161 3.33394 10.863 3.42234L9.13095 4.42234C9.05452 4.4658 8.98744 4.52394 8.93357 4.59343C8.87971 4.66291 8.84011 4.74236 8.81708 4.82721C8.79404 4.91206 8.78802 5.00063 8.79935 5.08782C8.81068 5.175 8.83915 5.25909 8.88311 5.33523C8.92707 5.41137 8.98566 5.47806 9.0555 5.53147C9.12534 5.58487 9.20506 5.62393 9.29006 5.64641C9.37506 5.66888 9.46366 5.67432 9.55077 5.66241C9.63788 5.6505 9.72177 5.62147 9.79762 5.57701L11.5296 4.57701C11.6827 4.4886 11.7945 4.34299 11.8402 4.17221Z" fill="#001A39"/>
<path d="M3.18022 9.17221C3.22598 9.00142 3.20202 8.81946 3.11362 8.66634C3.02521 8.51323 2.8796 8.4015 2.70882 8.35574C2.53804 8.30998 2.35607 8.33394 2.20295 8.42234L0.470952 9.42234C0.394522 9.4658 0.327442 9.52394 0.273574 9.59343C0.219706 9.66291 0.180115 9.74236 0.157079 9.82721C0.134043 9.91206 0.128018 10.0006 0.13935 10.0878C0.150683 10.175 0.179149 10.2591 0.22311 10.3352C0.267071 10.4114 0.325658 10.4781 0.395499 10.5315C0.46534 10.5849 0.545055 10.6239 0.630055 10.6464C0.715054 10.6689 0.803659 10.6743 0.890769 10.6624C0.977878 10.6505 1.06177 10.6215 1.13762 10.577L2.86962 9.57701C3.02273 9.4886 3.13446 9.34299 3.18022 9.17221Z" fill="#001A39"/>
<path d="M2.70882 5.64361C2.8796 5.59785 3.02521 5.48612 3.11362 5.33301C3.20202 5.17989 3.22598 4.99792 3.18022 4.82714C3.13446 4.65636 3.02273 4.51075 2.86962 4.42234L1.13762 3.42234C1.06177 3.37788 0.977878 3.34885 0.890769 3.33694C0.803659 3.32503 0.715054 3.33047 0.630055 3.35294C0.545055 3.37541 0.46534 3.41448 0.395499 3.46788C0.325658 3.52129 0.267071 3.58798 0.22311 3.66412C0.179149 3.74026 0.150683 3.82435 0.13935 3.91153C0.128018 3.99872 0.134043 4.08729 0.157079 4.17214C0.180115 4.25698 0.219706 4.33644 0.273574 4.40592C0.327442 4.47541 0.394522 4.53355 0.470952 4.57701L2.20295 5.57701C2.35607 5.66541 2.53804 5.68937 2.70882 5.64361Z" fill="#001A39"/>
</svg>
