<svg width="16" height="16" viewBox="0 0 16 16" fill="none" xmlns="http://www.w3.org/2000/svg">
<path d="M12.6427 10.708L8 8L8.024 13.3753L9.506 11.942L10.9227 14.3953L12.0773 13.7287L10.6607 11.2747L12.6427 10.708Z" fill="#001A39"/>
<path d="M14.5866 6.96541C14.0896 3.77467 11.3298 1.33301 7.99967 1.33301C4.31778 1.33301 1.33301 4.31778 1.33301 7.99967C1.33301 9.46738 1.8073 10.8243 2.61098 11.9256C2.8371 12.2354 3.28309 12.2449 3.55432 11.9736C3.80485 11.7231 3.81327 11.3232 3.61159 11.0319C3.01554 10.1709 2.66634 9.12609 2.66634 7.99967C2.66634 5.05416 5.05416 2.66634 7.99967 2.66634C10.6177 2.66634 12.7951 4.55263 13.2469 7.04026C13.3103 7.389 13.599 7.66634 13.9535 7.66634C14.3369 7.66634 14.6456 7.34428 14.5866 6.96541Z" fill="#001A39"/>
</svg>
