<svg width="24" height="24" viewBox="0 0 24 24" fill="none" xmlns="http://www.w3.org/2000/svg">
<g clip-path="url(#clip0_11235_190950)">
<path d="M20 11C20 15.9705 15.9705 20 11 20C6.03 20 2 15.9705 2 11C2 6.03 6.03 2 11 2C15.9705 2 20 6.03 20 11Z" fill="#F96155"/>
<path d="M14.7425 16.9395C14.72 16.85 14.1585 14.75 11 14.75C7.84099 14.75 7.27999 16.85 7.25749 16.9395C7.22999 17.048 7.27899 17.1605 7.37599 17.2165C7.47349 17.271 7.59549 17.256 7.67599 17.178C7.68549 17.1685 8.65299 16.25 11 16.25C13.347 16.25 14.315 17.1685 14.324 17.1775C14.372 17.225 14.436 17.25 14.5 17.25C14.542 17.25 14.5845 17.2395 14.623 17.218C14.721 17.162 14.77 17.0485 14.7425 16.9395V16.9395ZM9.85349 10.6465C8.22599 9.019 5.61049 9 5.49999 9C5.22399 9 5.00049 9.2235 5.00049 9.499C4.99999 9.775 5.22349 9.999 5.49949 10C5.51399 10 6.46199 10.011 7.49099 10.3685C7.19449 10.6885 6.99999 11.1855 6.99999 11.75C6.99999 12.717 7.55949 13.5 8.24999 13.5C8.94049 13.5 9.49999 12.717 9.49999 11.75C9.49999 11.663 9.49049 11.58 9.48149 11.4965C9.48799 11.4965 9.49399 11.5 9.49999 11.5C9.62799 11.5 9.75599 11.451 9.85349 11.3535C10.049 11.158 10.049 10.842 9.85349 10.6465V10.6465ZM16.5 9C16.3895 9 13.7745 9.019 12.1465 10.6465C11.951 10.842 11.951 11.158 12.1465 11.3535C12.244 11.451 12.372 11.5 12.5 11.5C12.5065 11.5 12.512 11.4965 12.518 11.4965C12.51 11.58 12.5 11.663 12.5 11.75C12.5 12.717 13.0595 13.5 13.75 13.5C14.4405 13.5 15 12.717 15 11.75C15 11.1855 14.8055 10.6885 14.509 10.3685C15.538 10.011 16.486 10 16.501 10C16.7765 9.999 17 9.775 16.9995 9.499C16.999 9.2235 16.776 9 16.5 9V9Z" fill="#001A39"/>
</g>
<path d="M22 17.8109L16 14L16.031 21.5646L17.9463 19.5475L19.7771 23L21.2694 22.0618L19.4385 18.6084L22 17.8109Z" fill="#001A39"/>
<defs>
<clipPath id="clip0_11235_190950">
<rect width="18" height="18" fill="white" transform="translate(2 2)"/>
</clipPath>
</defs>
</svg>
