<svg width="16" height="16" viewBox="0 0 16 16" fill="none" xmlns="http://www.w3.org/2000/svg">
<path d="M7.42766 2.66634C6.37299 2.66634 5.83632 2.77901 5.34232 3.04301C4.93034 3.25977 4.59376 3.59636 4.37699 4.00834C4.11299 4.50167 4.00033 5.03901 4.00033 6.09301V9.90501C4.00033 10.9597 4.11299 11.4963 4.37699 11.9903C4.60166 12.4103 4.92233 12.731 5.34232 12.9557C5.83566 13.2197 6.37299 13.3323 7.42766 13.3323H8.57299C9.62766 13.3323 10.1643 13.2197 10.6583 12.9557C11.0703 12.7389 11.4069 12.4023 11.6237 11.9903C11.8877 11.497 12.0003 10.9597 12.0003 9.90501V6.09301C12.0003 5.03834 11.8877 4.50167 11.6237 4.00767C11.4069 3.59569 11.0703 3.25911 10.6583 3.04234C10.165 2.77901 9.62766 2.66634 8.57366 2.66634H7.42699H7.42766ZM7.42766 1.33301H8.57299C9.91566 1.33301 10.6357 1.51834 11.2877 1.86701C11.9319 2.208 12.4587 2.7348 12.7997 3.37901C13.1483 4.03101 13.3337 4.75101 13.3337 6.09367V9.90567C13.3337 11.2483 13.1483 11.9683 12.7997 12.6203C12.4587 13.2645 11.9319 13.7913 11.2877 14.1323C10.6357 14.481 9.91566 14.6663 8.57299 14.6663H7.42699C6.08433 14.6663 5.36433 14.481 4.71233 14.1323C4.06812 13.7913 3.54132 13.2645 3.20033 12.6203C2.85233 11.9683 2.66699 11.2483 2.66699 9.90567V6.09301C2.66699 4.75034 2.85233 4.03034 3.20099 3.37834C3.54227 2.73429 4.0693 2.20772 4.71366 1.86701C5.36499 1.51834 6.08499 1.33301 7.42766 1.33301ZM7.33366 3.99967H8.66699V7.33301H7.33366V3.99967Z" fill="#001A39"/>
</svg>
