<svg width="16" height="13" viewBox="0 0 16 13" fill="none" xmlns="http://www.w3.org/2000/svg">
<path fill-rule="evenodd" clip-rule="evenodd" d="M8.00074 4.11486C6.07963 4.11486 4.52225 5.67795 4.52225 7.60613C4.52225 8.57039 4.91089 9.44232 5.54108 10.0748C5.79198 10.3266 5.79198 10.7349 5.54108 10.9868C5.29018 11.2386 4.88339 11.2386 4.63248 10.9868C3.77117 10.1223 3.2373 8.92616 3.2373 7.60613C3.2373 4.96569 5.36997 2.8252 8.00074 2.8252C10.6315 2.8252 12.7642 4.96569 12.7642 7.60613C12.7642 8.92617 12.2303 10.1223 11.369 10.9868C11.1181 11.2386 10.7113 11.2386 10.4604 10.9868C10.2095 10.7349 10.2095 10.3266 10.4604 10.0748C11.0906 9.44232 11.4792 8.57039 11.4792 7.60613C11.4792 5.67795 9.92186 4.11486 8.00074 4.11486Z" fill="#001A39"/>
<path fill-rule="evenodd" clip-rule="evenodd" d="M8.00033 1.53576C4.65989 1.53576 1.95194 4.25366 1.95194 7.60636C1.95194 9.28288 2.62822 10.7997 3.72347 11.8989C3.97437 12.1507 3.97437 12.559 3.72347 12.8109C3.47257 13.0627 3.06578 13.0627 2.81488 12.8109C1.48851 11.4796 0.666992 9.63866 0.666992 7.60636C0.666992 3.5414 3.95024 0.246094 8.00033 0.246094C12.0504 0.246094 15.3337 3.5414 15.3337 7.60636C15.3337 9.63866 14.5121 11.4796 13.1858 12.8109C12.9349 13.0627 12.5281 13.0627 12.2772 12.8109C12.0263 12.559 12.0263 12.1507 12.2772 11.8989C13.3724 10.7997 14.0487 9.28288 14.0487 7.60636C14.0487 4.25366 11.3408 1.53576 8.00033 1.53576Z" fill="#001A39"/>
<path fill-rule="evenodd" clip-rule="evenodd" d="M8.00018 6.69396C7.49838 6.69396 7.09159 7.10225 7.09159 7.60589C7.09159 7.8579 7.19258 8.08499 7.35771 8.25073C7.60861 8.50255 7.60861 8.91084 7.35771 9.16266C7.10681 9.41448 6.70002 9.41448 6.44911 9.16266C6.05286 8.76495 5.80664 8.21367 5.80664 7.60589C5.80664 6.38999 6.78872 5.4043 8.00018 5.4043C9.21164 5.4043 10.1937 6.38999 10.1937 7.60589C10.1937 8.21367 9.9475 8.76495 9.55125 9.16266C9.30035 9.41448 8.89356 9.41448 8.64266 9.16266C8.39176 8.91084 8.39176 8.50255 8.64266 8.25073C8.80778 8.08499 8.90878 7.8579 8.90878 7.60589C8.90878 7.10225 8.50199 6.69396 8.00018 6.69396Z" fill="#001A39"/>
</svg>
