<svg width="24" height="24" viewBox="0 0 24 24" fill="none" xmlns="http://www.w3.org/2000/svg">
<path d="M22 12C22 17.5228 17.5228 22 12 22C6.47778 22 2 17.5228 2 12C2 6.47778 6.47778 2 12 2C17.5228 2 22 6.47778 22 12Z" fill="#F96155"/>
<path fill-rule="evenodd" clip-rule="evenodd" d="M6.75732 9.65687L10.4142 13.3137V10.6569H13C14.3807 10.6569 15.5 11.7762 15.5 13.1569C15.5 14.5376 14.3807 15.6569 13 15.6569H9V17.6569H13C15.4853 17.6569 17.5 15.6422 17.5 13.1569C17.5 10.6716 15.4853 8.65687 13 8.65687H10.4142V6L6.75732 9.65687Z" fill="#001A39"/>
</svg>
