<svg width="285" height="256" viewBox="0 0 285 256" fill="none" xmlns="http://www.w3.org/2000/svg">
<path fill-rule="evenodd" clip-rule="evenodd" d="M135.991 49.7717L119.33 50.7851L119.282 50.0018L135.943 48.9883L135.991 49.7717Z" fill="#222222"/>
<path fill-rule="evenodd" clip-rule="evenodd" d="M101.009 33.8711L130.966 31.2969L131.034 32.0788L101.076 34.653L101.009 33.8711Z" fill="#222222"/>
<path d="M134.363 29.5889C131.879 45.1821 142.508 59.8358 158.101 62.3203C173.694 64.8049 188.348 54.1761 190.832 38.5829" fill="#222222"/>
<path d="M243.202 113.378L262.264 99.126L284.791 138.504L257.266 114.02L244.395 123.556" fill="#222222"/>
<path fill-rule="evenodd" clip-rule="evenodd" d="M261.054 121.769L261.422 112.636L262.318 112.672L261.95 121.805L261.054 121.769Z" fill="white"/>
<path fill-rule="evenodd" clip-rule="evenodd" d="M264.323 125.161L264.693 116.028L265.59 116.065L265.22 125.198L264.323 125.161Z" fill="white"/>
<path fill-rule="evenodd" clip-rule="evenodd" d="M267.629 128.996L267.996 119.863L268.893 119.899L268.525 129.032L267.629 128.996Z" fill="white"/>
<path d="M214.312 175.771L236.027 185.514L212.543 224.329L220.582 188.378L205.995 181.756" fill="#222222"/>
<path fill-rule="evenodd" clip-rule="evenodd" d="M215.646 195.451L223.808 191.339L224.212 192.14L216.05 196.252L215.646 195.451Z" fill="white"/>
<path fill-rule="evenodd" clip-rule="evenodd" d="M214.269 199.958L222.432 195.844L222.835 196.645L214.673 200.759L214.269 199.958Z" fill="white"/>
<path fill-rule="evenodd" clip-rule="evenodd" d="M212.521 204.708L220.683 200.596L221.086 201.397L212.924 205.509L212.521 204.708Z" fill="white"/>
<path d="M196.703 97.1839L207.823 135.335L241.716 109.795C241.716 109.795 249.667 110.358 255.771 117.345C262.173 124.673 260.623 133.898 260.623 133.898L196.981 183.604L170.876 126.68L170.622 151.967L217.635 173.724C217.635 173.724 220.743 182.236 216.256 190.591C211.899 198.704 204.932 199.746 204.932 199.746L155.287 180.848C147.629 177.933 142.409 170.775 141.976 162.591L139.034 106.958C138.171 90.6385 150.766 76.7382 167.093 75.9915C180.67 75.3749 192.907 84.1313 196.703 97.1839Z" fill="#F0438C"/>
<path d="M141.914 160.059C146.685 158.454 151.937 158.003 156.946 158.241C161.857 158.474 166.853 159.436 171.367 161.429C179.699 165.109 184.662 172.623 188.24 180.684C190.494 185.763 192.467 190.965 194.9 195.964C195.088 196.349 195.665 196.011 195.476 195.627C191.27 186.988 188.615 177.339 182.695 169.63C179.98 166.093 176.609 163.194 172.58 161.257C168.366 159.232 163.718 158.158 159.081 157.723C153.354 157.185 147.217 157.568 141.736 159.413C141.33 159.553 141.503 160.198 141.914 160.059Z" fill="#FDE50B"/>
<path d="M218.221 179.11C209.105 181.169 205.719 191.067 205.784 199.448C205.787 199.877 206.455 199.879 206.453 199.448C206.39 191.36 209.576 181.745 218.398 179.754C218.815 179.66 218.638 179.014 218.221 179.11Z" fill="#FDE50B"/>
<path d="M145.918 173.597C151.04 169.005 158.088 167.531 164.653 169.478C170.672 171.26 175.849 175.478 179.358 180.62C181.72 184.078 183.379 187.946 184.561 191.948C184.682 192.359 185.327 192.184 185.204 191.771C183.152 184.824 179.578 178.295 173.878 173.691C168.891 169.662 162.391 167.161 155.926 168.137C152.024 168.727 148.376 170.496 145.445 173.124C145.127 173.413 145.6 173.884 145.918 173.597Z" fill="#FDE50B"/>
<path d="M149.602 82.9207C154.885 85.7124 157.26 91.4281 157.464 97.1775C157.677 103.216 155.58 108.997 153.365 114.515C151.15 120.036 148.712 125.57 147.986 131.53C147.651 134.275 147.56 137.277 148.665 139.872C149.569 141.993 151.315 143.574 153.282 144.711C158.531 147.749 165.07 148.133 170.77 146.247C171.176 146.112 171.001 145.469 170.593 145.603C165.153 147.401 158.98 147.092 153.917 144.303C151.331 142.879 149.358 140.789 148.728 137.838C148.1 134.896 148.504 131.683 149.12 128.777C151.472 117.699 159.078 107.654 158.056 95.9307C157.569 90.3675 155.027 85.0307 149.941 82.3422C149.56 82.1426 149.223 82.7188 149.602 82.9207Z" fill="#FDE50B"/>
<path d="M140.404 95.6733C144.367 97.4447 143.824 102.631 143.245 106.165C142.595 110.13 141.236 113.928 139.31 117.449C139.104 117.825 139.68 118.164 139.886 117.785C142.046 113.838 143.503 109.544 144.073 105.075C144.528 101.51 144.586 96.8146 140.743 95.0947C140.353 94.9243 140.012 95.4984 140.404 95.6733Z" fill="#FDE50B"/>
<path d="M163.057 76.6467C166.539 79.6066 168.165 84.107 169.51 88.3383C171.095 93.332 172.649 98.3302 174.596 103.196C178.002 111.713 182.605 120.579 190.898 125.238C195.358 127.745 200.502 128.689 205.482 127.326C205.897 127.212 205.719 126.568 205.305 126.682C195.481 129.373 186.473 122.837 181.271 115.004C175.816 106.791 173.033 97.1194 170.046 87.8271C168.687 83.6003 167.003 79.129 163.528 76.1736C163.205 75.9001 162.729 76.3687 163.057 76.6467Z" fill="#FDE50B"/>
<path d="M178.486 78.8123C178.925 90.7662 188.579 99.1436 198.452 104.279C198.833 104.476 199.169 103.902 198.788 103.702C189.137 98.6817 179.585 90.5241 179.154 78.8123C179.136 78.384 178.47 78.3818 178.486 78.8123Z" fill="#FDE50B"/>
<path d="M182.226 152.27C188.635 149.068 195.066 154.165 199.326 158.528C201.513 160.766 203.632 163.062 206.119 164.977C208.706 166.973 211.547 168.588 214.532 169.911C214.922 170.083 215.261 169.509 214.868 169.334C211.556 167.866 208.404 166.036 205.607 163.722C202.923 161.502 200.676 158.829 198.163 156.427C193.949 152.405 187.718 148.783 181.892 151.694C181.504 151.884 181.843 152.461 182.226 152.27Z" fill="#FDE50B"/>
<path d="M177.325 141.397C184.361 140.408 191.483 140.838 198.308 142.841C205.307 144.892 211.648 148.42 217.682 152.449C221.196 154.795 224.674 157.203 228.41 159.185C228.789 159.387 229.127 158.811 228.746 158.609C221.889 154.972 215.877 149.96 208.955 146.426C202.816 143.291 196.212 141.085 189.33 140.419C185.265 140.024 181.184 140.184 177.145 140.753C176.724 140.811 176.905 141.455 177.325 141.397Z" fill="#FDE50B"/>
<path d="M220.617 125.442C220.068 130.954 221.68 136.542 224.775 141.107C228.087 145.996 233.006 149.397 238.498 151.433C238.901 151.584 239.074 150.938 238.675 150.79C233.242 148.776 228.365 145.361 225.156 140.477C222.248 136.053 220.759 130.732 221.286 125.442C221.328 125.014 220.66 125.016 220.617 125.442Z" fill="#FDE50B"/>
<path d="M260.244 125.066C255.874 122.7 250.25 123.518 247.499 127.909C246.073 130.187 246.07 132.952 246.425 135.537C246.792 138.208 247.793 140.567 249.838 142.37C250.158 142.652 250.634 142.181 250.308 141.899C248.515 140.318 247.555 138.298 247.16 135.959C246.745 133.508 246.64 130.736 247.914 128.514C250.371 124.229 255.766 123.402 259.906 125.642C260.285 125.846 260.623 125.27 260.244 125.066Z" fill="#FDE50B"/>
<path d="M230.071 118.52C231.029 119.865 232.177 121.105 233.746 121.722C235.522 122.417 237.491 122.108 239.164 121.276C240.985 120.37 242.408 118.843 243.675 117.287C245.167 115.452 246.552 113.533 247.855 111.562C248.093 111.203 247.514 110.867 247.279 111.226C245.294 114.228 243.139 117.652 240.218 119.834C238.671 120.991 236.693 121.756 234.744 121.33C232.964 120.94 231.668 119.619 230.647 118.186C230.399 117.836 229.82 118.17 230.071 118.52Z" fill="#FDE50B"/>
<path fill-rule="evenodd" clip-rule="evenodd" d="M188.957 166.46L163.233 108.934L162.619 109.208L188.348 166.745L188.351 166.751C192.737 175.703 204.249 178.352 212.106 172.216L211.692 171.686C204.173 177.558 193.157 175.025 188.957 166.46Z" fill="white"/>
<path fill-rule="evenodd" clip-rule="evenodd" d="M206.495 140.054L207.493 135.267L208.152 135.404L207.154 140.191L206.495 140.054Z" fill="white"/>
<path fill-rule="evenodd" clip-rule="evenodd" d="M166.484 154.433L170.43 151.69L170.814 152.243L166.868 154.985L166.484 154.433Z" fill="white"/>
<path d="M152.446 17.2536C152.582 23.5524 157.798 28.5483 164.097 28.4115C169.665 28.2904 174.214 24.2004 175.1 18.9017C175.214 18.2066 175.268 17.4913 175.253 16.7603C175.116 10.4638 169.9 5.46557 163.601 5.60235C160.323 5.67411 157.401 7.11819 155.37 9.37623C153.495 11.4594 152.381 14.2332 152.446 17.2536Z" fill="#F0438C"/>
<path d="M152.912 4.84232C152.968 7.45914 155.134 9.53329 157.751 9.47723C160.065 9.4279 161.953 7.72823 162.321 5.52625C162.368 5.23699 162.39 4.941 162.384 4.63604C162.328 2.01923 160.162 -0.0549485 157.545 0.00111006C156.184 0.0302605 154.968 0.631207 154.125 1.56851C153.349 2.43629 152.885 3.58885 152.912 4.84232Z" fill="#222222"/>
<path d="M160.736 3.34006C160.769 4.93436 162.09 6.19901 163.684 6.16313C165.093 6.13174 166.245 5.09802 166.469 3.7571C166.499 3.5822 166.512 3.40059 166.508 3.21447C166.474 1.62017 165.153 0.355492 163.559 0.39137C162.729 0.409309 161.989 0.774813 161.476 1.34661C161 1.8758 160.718 2.57766 160.736 3.34006Z" fill="#222222"/>
<path d="M157.105 23.5296C157.787 23.5149 158.321 22.6227 158.297 21.5368C158.274 20.4509 157.702 19.5826 157.02 19.5973C156.337 19.6121 155.803 20.5043 155.827 21.5902C155.85 22.676 156.422 23.5444 157.105 23.5296Z" fill="#222222"/>
<path d="M161.213 23.5765C161.895 23.5618 162.429 22.6695 162.406 21.5837C162.382 20.4978 161.81 19.6295 161.128 19.6442C160.446 19.6589 159.912 20.5512 159.935 21.637C159.959 22.7229 160.531 23.5912 161.213 23.5765Z" fill="#222222"/>
<path d="M170.869 16.8498C170.918 19.137 172.813 20.9511 175.1 20.9017C177.123 20.8569 178.775 19.3724 179.096 17.4462C179.139 17.1928 179.156 16.935 179.152 16.6681C179.103 14.381 177.208 12.5669 174.921 12.6162C173.73 12.6409 172.669 13.1679 171.929 13.9863C171.25 14.7442 170.846 15.7533 170.869 16.8498Z" fill="#F0438C"/>
<path d="M155.652 9.0598C155.652 9.0598 159.753 11.551 167.05 10.0576L167.705 16.9192L172.145 15.8362C172.145 15.8362 173.212 11.8448 177.08 13.17C177.08 13.17 177.23 5.32853 172.598 3.8867C164.505 1.36855 157.466 5.06619 155.652 9.0598Z" fill="#222222"/>
<path fill-rule="evenodd" clip-rule="evenodd" d="M158.606 23.5814C158.606 23.5815 158.606 23.5817 159.016 23.7633C159.426 23.9449 159.426 23.9451 159.426 23.9453L159.426 23.9457L159.425 23.9467L159.424 23.9491L159.421 23.9558C159.418 23.9611 159.415 23.9681 159.411 23.9766C159.403 23.9936 159.392 24.0169 159.377 24.0453C159.347 24.102 159.304 24.18 159.247 24.271C159.134 24.4517 158.961 24.6912 158.724 24.9184C158.244 25.3787 157.476 25.8048 156.439 25.5485L156.655 24.6778C157.305 24.8386 157.771 24.5897 158.103 24.2709C158.273 24.1085 158.401 23.9323 158.487 23.7947C158.53 23.7267 158.561 23.6699 158.581 23.6316C158.591 23.6125 158.598 23.5981 158.602 23.5895C158.604 23.5852 158.605 23.5823 158.606 23.5809L158.606 23.5811L158.606 23.5814ZM158.606 23.5809C158.606 23.5803 158.607 23.58 158.606 23.5801L158.606 23.5806L158.606 23.5809Z" fill="#222222"/>
<path d="M0 98.3819L109.397 106.932V36.0089C109.397 31.8157 105.998 28.4141 101.802 28.4141H7.59482C3.40163 28.4141 0 31.8134 0 36.0089V98.3819Z" fill="#FDE50B"/>
<path d="M109.341 107.407C108.256 112.047 94.9162 112.426 76.9483 108.896C68.1202 107.159 61.8775 107.598 63.1915 111.361C65.1558 116.987 49.0311 116.962 31.1148 113.197C13.2007 109.432 -1.02695 102.499 0.0583397 97.8595C1.14363 93.2201 14.5416 92.8501 32.5073 96.3818C41.3354 98.1174 47.5781 97.6779 46.2663 93.9152C44.2998 88.2892 60.4222 88.3138 78.3408 92.0787C96.2549 95.8459 110.426 102.768 109.341 107.407Z" fill="#222222"/>
<path d="M99.4345 182.844C103.474 182.844 106.749 179.569 106.749 175.529C106.749 171.49 103.474 168.215 99.4345 168.215C95.3948 168.215 92.1199 171.49 92.1199 175.529C92.1199 179.569 95.3948 182.844 99.4345 182.844Z" fill="#BFBFBF"/>
<path d="M40.0683 238.039C44.108 238.039 47.3828 234.764 47.3828 230.725C47.3828 226.685 44.108 223.41 40.0683 223.41C36.0286 223.41 32.7538 226.685 32.7538 230.725C32.7538 234.764 36.0286 238.039 40.0683 238.039Z" fill="#FDE50B"/>
<path d="M47.3853 123.149C51.425 123.149 54.6998 119.874 54.6998 115.834C54.6998 111.794 51.425 108.52 47.3853 108.52C43.3456 108.52 40.0707 111.794 40.0707 115.834C40.0707 119.874 43.3456 123.149 47.3853 123.149Z" fill="#F0438C"/>
<path d="M18.8756 153.49L6.3689 156.306L9.18405 168.812L21.6907 165.997L18.8756 153.49Z" fill="#BFBFBF"/>
<path d="M37.7061 185.03L31.2964 196.132L42.398 202.542L48.8078 191.44L37.7061 185.03Z" fill="#F0438C"/>
<path d="M68.9678 132.555L68.2973 147.509L81.9218 141.421L68.9678 132.555Z" fill="#FDE50B"/>
<path d="M88.4852 239.091L78.5336 250.271L92.9474 254.141L88.4852 239.091Z" fill="#F0438C"/>
<path fill-rule="evenodd" clip-rule="evenodd" d="M93.9598 116.449L80.9879 103.477L82.0978 102.367L95.0697 115.339L93.9598 116.449Z" fill="white"/>
<path fill-rule="evenodd" clip-rule="evenodd" d="M21.2064 211.55L8.2345 198.58L8.7894 198.025L21.7614 210.995L21.2064 211.55Z" fill="#222222"/>
<path fill-rule="evenodd" clip-rule="evenodd" d="M99.157 222.044L86.1851 209.073L86.74 208.518L99.712 221.49L99.157 222.044Z" fill="#222222"/>
<path fill-rule="evenodd" clip-rule="evenodd" d="M16.0855 120.735L29.0575 107.763L30.1674 108.873L17.1954 121.845L16.0855 120.735Z" fill="white"/>
<path fill-rule="evenodd" clip-rule="evenodd" d="M61.5327 185.827L74.5047 172.855L75.0596 173.41L62.0877 186.382L61.5327 185.827Z" fill="#222222"/>
<path fill-rule="evenodd" clip-rule="evenodd" d="M4.82837 255.445L17.8003 242.476L18.3552 243.031L5.38327 256L4.82837 255.445Z" fill="#222222"/>
<path fill-rule="evenodd" clip-rule="evenodd" d="M59.3173 240.244L72.2892 227.272L72.8442 227.827L59.8722 240.799L59.3173 240.244Z" fill="#222222"/>
<path fill-rule="evenodd" clip-rule="evenodd" d="M48.1437 154.274L35.1717 141.302L35.7266 140.747L48.6986 153.719L48.1437 154.274Z" fill="#222222"/>
<path fill-rule="evenodd" clip-rule="evenodd" d="M168.588 52.6076L160.197 64.3373L158.92 63.4241L167.311 51.6943L168.588 52.6076Z" fill="white"/>
<path fill-rule="evenodd" clip-rule="evenodd" d="M150.042 75.6207L171.386 45.6826L172.025 46.1382L150.435 76.4211L149.864 76.494L150.116 76.1933C149.864 76.494 149.864 76.4939 149.863 76.4937L149.862 76.4928L149.772 76.4175C149.712 76.3669 149.622 76.2917 149.504 76.1935C149.268 75.9973 148.92 75.7092 148.475 75.3423C147.585 74.6084 146.303 73.5593 144.739 72.2985C141.609 69.7768 137.349 66.4095 132.826 63.0257C128.301 59.641 123.518 56.2444 119.342 53.6616C117.253 52.37 115.323 51.286 113.656 50.5093C111.98 49.7277 110.608 49.2758 109.625 49.2126L109.676 48.4294C110.811 48.5025 112.293 49.0081 113.988 49.7979C115.693 50.5927 117.652 51.694 119.755 52.9941C123.96 55.5946 128.764 59.007 133.296 62.3973C137.829 65.7885 142.097 69.162 145.231 71.6874C146.798 72.9503 148.082 74.0012 148.974 74.7367C149.42 75.1044 149.769 75.3932 150.005 75.5902C150.018 75.6006 150.03 75.6108 150.042 75.6207Z" fill="#222222"/>
<path fill-rule="evenodd" clip-rule="evenodd" d="M16.0468 120.698L29.0188 107.727L29.5737 108.282L16.6018 121.253L16.0468 120.698Z" fill="#222222"/>
<path fill-rule="evenodd" clip-rule="evenodd" d="M94.6162 115.791L81.6443 102.819L82.1992 102.264L95.1712 115.236L94.6162 115.791Z" fill="#222222"/>
<path fill-rule="evenodd" clip-rule="evenodd" d="M99.5476 52.3225C103.356 51.0528 107.969 50.994 109.779 51.0694L109.746 51.8535C107.968 51.7795 103.469 51.8425 99.7958 53.067C98.5411 53.4853 97.6704 53.8356 97.1077 54.1273C96.8256 54.2735 96.6352 54.3978 96.5154 54.4992C96.4705 54.5373 96.4406 54.5678 96.4211 54.5905C96.4654 54.6203 96.5388 54.6593 96.6531 54.7024C96.975 54.8237 97.4786 54.9259 98.1251 55.0105C99.4041 55.1778 101.122 55.2624 102.793 55.3448L102.813 55.3457C104.474 55.4276 106.097 55.5077 107.132 55.6706L107.143 56.4442C105.739 56.7027 101.478 57.6483 95.7476 59.3495C94.3204 59.7732 93.3979 60.1295 92.839 60.4219C92.5583 60.5687 92.3886 60.6895 92.2942 60.7808C92.2757 60.7988 92.2615 60.8141 92.2507 60.8268C92.3043 60.864 92.394 60.9089 92.527 60.9542C92.8231 61.0549 93.2334 61.1244 93.6474 61.1607C94.7851 61.2333 99.4336 61.2269 108.84 60.5999L108.951 61.3745C107.291 61.7434 102.884 62.9523 98.6107 64.8202C98.2438 65.0178 97.846 65.2614 97.511 65.513C97.1587 65.7777 96.9239 66.0162 96.8331 66.1902C96.809 66.2364 96.8029 66.2633 96.8014 66.2749C96.8092 66.2839 96.8275 66.3007 96.8668 66.3232C97.0583 66.4327 97.5091 66.538 98.3974 66.5411L104.078 65.3159L104.082 65.3152C104.866 65.1621 106.114 64.9959 107.321 64.994C107.924 64.993 108.529 65.033 109.066 65.1411C109.596 65.2478 110.1 65.4284 110.465 65.7371C110.684 65.9224 111.272 66.4721 112.149 67.2923C112.767 67.8702 113.529 68.5825 114.407 69.3962C116.541 71.3743 119.38 73.9713 122.564 76.7568C128.94 82.3338 136.679 88.646 142.922 92.2691L142.936 92.2768L142.948 92.2857C144.422 93.3047 146.962 94.5494 149.758 94.9558C152.546 95.361 155.555 94.9304 158.045 92.6551C158.678 92.0767 159.313 91.5101 159.96 90.9338C162.648 88.5384 165.523 85.9762 169.166 81.7027C173.688 76.4003 179.393 68.4606 187.346 54.9621L188.022 55.3605C180.055 68.8822 174.324 76.8632 169.764 82.2119C166.082 86.5296 163.164 89.1302 160.472 91.5287C159.829 92.1019 159.199 92.6636 158.574 93.2345C155.862 95.713 152.592 96.1607 149.645 95.7324C146.715 95.3066 144.07 94.0122 142.515 92.9401C136.203 89.2744 128.421 82.9223 122.047 77.3475C118.855 74.5553 116.011 71.9528 113.874 69.9718C112.967 69.1313 112.191 68.406 111.571 67.8258C110.722 67.0321 110.163 66.51 109.958 66.3362C109.74 66.1516 109.386 66.0061 108.911 65.9105C108.443 65.8164 107.895 65.7779 107.322 65.7788C106.178 65.7806 104.984 65.9391 104.236 66.0847L98.4807 67.326H98.4389C97.5159 67.326 96.8669 67.2273 96.4772 67.0045C96.2682 66.885 96.0972 66.7082 96.0375 66.4627C95.9799 66.2257 96.0456 66.003 96.1373 65.8271C96.3147 65.4872 96.6737 65.1605 97.0396 64.8856C97.4187 64.6008 97.8579 64.3334 98.2533 64.1213L98.2672 64.1138L98.2816 64.1075C100.661 63.0666 103.08 62.2278 105.059 61.6204C98.1761 62.0117 94.606 62.009 93.5926 61.9436L93.5882 61.9433L93.5838 61.9429C93.1398 61.9043 92.6568 61.8273 92.2743 61.6972C92.0851 61.6328 91.8941 61.5468 91.7433 61.427C91.5911 61.3062 91.4359 61.1128 91.4371 60.8439C91.4383 60.5878 91.5823 60.3775 91.7487 60.2166C91.9197 60.0512 92.1633 59.8896 92.4752 59.7264C93.1015 59.3989 94.0812 59.0255 95.5242 58.5971C99.234 57.4958 102.335 56.7084 104.455 56.2171C103.921 56.1863 103.354 56.1582 102.774 56.1296L102.729 56.1274C101.077 56.046 99.3339 55.9601 98.0233 55.7887C97.3665 55.7027 96.7875 55.5918 96.3762 55.4368C96.1738 55.3604 95.9745 55.26 95.8291 55.1175C95.669 54.9604 95.5605 54.7331 95.6206 54.4644C95.6721 54.2338 95.8337 54.048 96.0083 53.9002C96.191 53.7455 96.4387 53.5901 96.7466 53.4305C97.3636 53.1107 98.2798 52.7451 99.5476 52.3225ZM96.7963 66.2676C96.7964 66.2676 96.7971 66.2686 96.798 66.2707C96.7966 66.2687 96.7961 66.2676 96.7963 66.2676Z" fill="#222222"/>
<path fill-rule="evenodd" clip-rule="evenodd" d="M48.4154 28.5723C48.6606 29.6258 48.9687 30.6482 49.3063 31.5718C49.6265 32.448 49.9755 33.2415 50.3262 33.8924C50.6728 34.5358 51.0356 35.0676 51.3922 35.3959C51.5695 35.5591 51.7739 35.6989 52.0005 35.7549C52.2487 35.8162 52.5011 35.7698 52.7122 35.5991C52.904 35.4441 53.0315 35.2112 53.1208 34.9518C53.212 34.687 53.2763 34.3561 53.3166 33.961C53.4766 32.3922 53.2786 29.5647 52.5214 25.0498L51.7474 25.1796C52.5038 29.6902 52.6842 32.4265 52.5359 33.8814C52.4991 34.2421 52.4434 34.5084 52.3787 34.6963C52.3121 34.8898 52.2478 34.9653 52.2188 34.9888C52.2174 34.9899 52.2162 34.991 52.2152 34.9918C52.2094 34.997 52.2085 34.9978 52.1887 34.9929C52.1437 34.9818 52.0547 34.939 51.9237 34.8184C51.6636 34.5791 51.3502 34.1386 51.0171 33.5202C50.6881 32.9095 50.3538 32.1517 50.0434 31.3024C49.4221 29.6024 48.9053 27.5605 48.7129 25.6362L47.9319 25.6371C47.3489 31.602 46.7841 35.2033 46.2596 37.108C46.1289 37.5823 46.0038 37.94 45.8863 38.1979C45.7792 38.4332 45.6913 38.556 45.6346 38.6126C45.6289 38.6069 45.6227 38.6002 45.6159 38.5926C45.5808 38.5527 45.5386 38.4933 45.4911 38.4093C45.2944 38.0614 45.0907 37.4462 44.8924 36.6059C44.6966 35.7763 44.5137 34.7618 44.3464 33.6394C44.0119 31.3954 43.7427 28.7416 43.5563 26.3179L42.773 26.3304C42.5769 30.702 42.2624 33.4276 41.8894 34.9042C41.7967 35.2711 41.7032 35.5493 41.6123 35.7512C41.522 35.9517 41.4468 36.0485 41.4021 36.0884C41.3972 36.085 41.3916 36.0808 41.3851 36.0757C41.3562 36.0526 41.3184 36.015 41.2729 35.9574C41.0816 35.7146 40.8596 35.2522 40.6247 34.5708C40.3937 33.9008 40.162 33.0555 39.9369 32.0778C39.4869 30.1231 39.0685 27.6628 38.7332 25.0645L37.9548 25.1649C38.2923 27.78 38.7147 30.2669 39.1721 32.2539C39.4007 33.2469 39.6395 34.1211 39.8828 34.8267C40.1221 35.5209 40.3785 36.0904 40.6566 36.4432C40.794 36.6176 40.9726 36.7858 41.2008 36.8537C41.4619 36.9315 41.7085 36.8563 41.902 36.6936C42.0776 36.546 42.2144 36.3256 42.3279 36.0734C42.4443 35.8149 42.5512 35.4889 42.6503 35.0964C42.8729 34.2153 43.0705 32.9409 43.2358 31.2114C43.3383 32.0912 43.45 32.9488 43.5702 33.7551C43.7392 34.8891 43.9258 35.9272 44.1285 36.7862C44.3287 37.6345 44.5524 38.3437 44.8079 38.7955C44.9315 39.014 45.0962 39.2348 45.3239 39.3473C45.4478 39.4085 45.5899 39.437 45.7399 39.4132C45.886 39.39 46.0105 39.3217 46.1124 39.2378C46.3066 39.0777 46.4637 38.8236 46.6006 38.5232C46.7417 38.2134 46.8796 37.8123 47.0162 37.3163C47.4675 35.6776 47.9361 32.8801 48.4154 28.5723Z" fill="#222222"/>
</svg>
