<svg width="204" height="310" viewBox="0 0 204 310" fill="none" xmlns="http://www.w3.org/2000/svg">
<path fill-rule="evenodd" clip-rule="evenodd" d="M200.488 44.7049C200.989 44.6484 201.571 44.7555 201.921 45.2956C202.136 45.6258 202.088 45.9885 202.016 46.2318C201.941 46.4863 201.799 46.7467 201.636 46.9968C201.305 47.5021 200.789 48.1024 200.171 48.7511C198.928 50.0553 197.175 51.6531 195.382 53.2431C194.635 53.9049 193.883 54.564 193.155 55.2026C192.121 56.1087 191.134 56.9735 190.277 57.7459C189.549 58.4023 188.928 58.9807 188.463 59.4489C188.231 59.6832 188.044 59.8836 187.905 60.048C187.758 60.222 187.694 60.3223 187.675 60.3613L187.675 60.3617C184.882 66.1451 180.47 74.9952 175.526 83.2341C173.054 87.3535 170.443 91.3299 167.829 94.698C165.222 98.0582 162.584 100.849 160.051 102.564C158.796 103.414 156.983 104.201 154.812 104.932C152.632 105.667 150.052 106.358 147.236 107.004C141.604 108.296 134.995 109.414 128.693 110.33C122.389 111.246 116.383 111.962 111.953 112.448C109.738 112.692 107.917 112.878 106.649 113.003C106.015 113.066 105.519 113.113 105.182 113.145C105.013 113.161 104.884 113.173 104.797 113.181L104.665 113.193C104.665 113.193 104.665 113.193 104.607 112.55C104.548 111.907 104.549 111.907 104.549 111.907L104.55 111.907L104.678 111.895C104.765 111.887 104.893 111.875 105.061 111.859C105.396 111.827 105.89 111.78 106.522 111.718C107.786 111.593 109.602 111.407 111.812 111.165C116.232 110.679 122.223 109.965 128.507 109.052C134.794 108.138 141.364 107.026 146.947 105.745C149.738 105.105 152.274 104.424 154.4 103.708C156.534 102.989 158.216 102.246 159.326 101.495C161.692 99.8935 164.231 97.2277 166.808 93.9065C169.379 90.5932 171.961 86.6639 174.418 82.5698C179.331 74.382 183.723 65.5742 186.51 59.8008C186.603 59.6085 186.756 59.406 186.917 59.2147C187.087 59.0138 187.301 58.7863 187.546 58.5394C188.036 58.0451 188.679 57.4475 189.412 56.7868C190.272 56.0113 191.274 55.1335 192.315 54.2203C193.044 53.5821 193.791 52.9267 194.524 52.2769C196.319 50.6862 198.034 49.1208 199.235 47.8603C199.839 47.2266 200.289 46.6943 200.554 46.2892C200.638 46.1623 200.694 46.0606 200.731 45.9825C200.704 45.9824 200.672 45.984 200.633 45.9884C200.38 46.0169 200.007 46.1455 199.519 46.3962C198.557 46.8908 197.36 47.7486 196.17 48.6976C194.988 49.6405 193.844 50.6488 192.993 51.4233C192.568 51.8101 192.218 52.1376 191.974 52.3681C191.852 52.4833 191.756 52.5742 191.692 52.6361C191.659 52.667 191.635 52.6907 191.618 52.7066L191.6 52.7244L191.595 52.7297C191.594 52.7298 191.594 52.73 191.144 52.2667C190.694 51.8035 190.694 51.8034 190.694 51.8033L190.694 51.8029L190.696 51.8016L190.701 51.7965L190.721 51.7773C190.738 51.7605 190.764 51.7359 190.797 51.7039C190.864 51.64 190.962 51.5469 191.086 51.4294C191.335 51.1943 191.691 50.8614 192.123 50.4684C192.985 49.6835 194.152 48.6549 195.364 47.6881C196.568 46.7275 197.848 45.8032 198.928 45.2476C199.462 44.9732 200.002 44.7598 200.488 44.7049ZM200.835 45.9957C200.836 45.9967 200.836 45.9977 200.837 45.9987L200.837 45.9978C200.835 45.9958 200.836 45.9957 200.836 45.9957C200.836 45.9958 200.836 45.9958 200.835 45.9957ZM200.785 45.8333C200.785 45.8296 200.786 45.8276 200.786 45.8276C200.786 45.8275 200.786 45.8293 200.785 45.8333Z" fill="#222222"/>
<path d="M174.573 59.2385C190.825 59.2385 203.999 46.0711 203.999 29.8283C203.999 13.5855 190.825 0.418213 174.573 0.418213C158.321 0.418213 145.146 13.5855 145.146 29.8283C145.146 46.0711 158.321 59.2385 174.573 59.2385Z" fill="#F0438C"/>
<path d="M30.641 234.056L0 236.071L10.8975 294.904L17.3817 246.746L37.9976 245.296" fill="#222222"/>
<path d="M100.985 249.239L77.7266 269.731L121.065 310L97.8772 267.545L113.472 253.682" fill="#222222"/>
<path d="M109.197 139.49C94.3285 132.606 74.0809 135.396 66.0071 148.279C57.006 162.639 56.4116 175.856 78.6719 221.559L31.5602 225.534C31.5602 225.534 21.2926 228.76 22.5688 245.009C23.8062 260.763 31.8121 263.812 31.8121 263.812L95.314 259.397C111.016 258.306 121.758 242.726 117.497 227.223L105.662 184.186L138.827 199.03L100.477 247.544C100.477 247.544 97.2556 255.025 107.717 262.862C116.75 269.63 127.796 267.373 127.796 267.373L169.219 218.269C182.459 202.318 178.268 186.502 165.681 175.859C143.825 157.385 126.314 147.417 109.197 139.49Z" fill="#0074E0"/>
<path d="M38.2199 263.398C37.9517 258.619 37.2441 253.139 34.7144 248.967C32.2654 244.928 27.1284 242.984 22.6182 244.114C22.0173 244.262 22.2725 245.192 22.8735 245.041C27.4515 243.897 32.3882 246.226 34.4366 250.482C36.3363 254.421 37.0148 259.077 37.2571 263.398C37.2926 264.014 38.2554 264.018 38.2199 263.398Z" fill="#222222"/>
<path d="M31.875 225.492C31.9687 234.553 39.5676 242.461 46.824 246.859C51.8997 249.936 57.7572 252.135 63.7827 251.628C69.4172 251.153 74.2117 248.082 76.5346 242.851C77.9045 239.764 78.3795 236.306 78.1534 232.948C77.8949 229.079 76.5249 225.492 75.2423 221.872C75.0388 221.294 74.1084 221.543 74.3152 222.127C76.3991 228.011 78.2631 233.823 76.5088 240.078C74.8643 245.938 70.3024 249.958 64.235 250.62C58.5616 251.237 53.0466 249.326 48.1842 246.542C43.7838 244.024 39.8002 240.656 36.8957 236.48C34.6729 233.284 32.8766 229.451 32.8378 225.489C32.8281 224.872 31.8686 224.872 31.875 225.492Z" fill="#222222"/>
<path d="M103.208 256.724C103.246 251.29 101.114 246.32 97.7023 242.155C94.4004 238.122 90.0906 234.405 85.2121 232.445C80.3465 230.491 74.9541 230.62 70.0918 232.526C64.4475 234.737 60.1764 239.022 56.5192 243.727C51.9249 249.636 47.9187 256.03 44.3648 262.611C44.0708 263.156 44.901 263.641 45.195 263.095C48.0446 257.822 51.1947 252.72 54.6711 247.835C58.0537 243.078 61.7822 238.241 66.8578 235.186C71.3648 232.471 76.8572 231.224 82.0426 232.448C87.2055 233.665 91.5154 237.014 95.1469 240.747C99.3825 245.1 102.29 250.55 102.245 256.731C102.242 257.344 103.201 257.344 103.208 256.724Z" fill="#222222"/>
<path d="M106.241 190.506C100.507 188.782 94.4651 188.275 88.5301 189.095C84.3171 189.676 77.8361 190.697 75.3839 194.736C72.7669 199.05 77.9039 203.645 80.9053 206.106C85.3412 209.741 90.6009 212.357 95.851 214.598C102.174 217.294 108.774 219.274 115.53 220.546C116.134 220.659 116.393 219.732 115.785 219.619C105.498 217.685 95.2696 214.152 86.2944 208.715C84.1265 207.4 82.049 205.928 80.1816 204.21C78.3594 202.534 75.8394 200.216 75.6294 197.597C75.2191 192.479 83.4383 190.955 87.0439 190.303C93.3537 189.159 99.8574 189.592 105.989 191.436C106.581 191.61 106.836 190.684 106.241 190.506Z" fill="#222222"/>
<path d="M62.0804 181.409C67.072 182.827 72.4286 183.017 77.2813 180.964C81.8238 179.042 84.8737 175.303 86.7315 170.818C88.9284 165.516 89.9107 159.62 90.8605 153.991C91.8685 148.024 92.9895 141.75 91.9492 135.715C91.8458 135.108 90.9187 135.363 91.0221 135.97C92.0301 141.818 90.909 147.953 89.9333 153.733C89.0868 158.738 88.1757 163.866 86.515 168.677C84.9125 173.324 82.2309 177.499 77.6981 179.724C72.8939 182.081 67.3757 181.916 62.3356 180.482C61.7412 180.315 61.4859 181.241 62.0804 181.409Z" fill="#222222"/>
<path d="M67.4488 146.164C75.542 154.931 87.4895 157.97 99.0558 158.309C109.514 158.612 120.657 156.633 128.915 149.807C129.393 149.413 128.708 148.734 128.237 149.128C120.182 155.783 109.236 157.647 99.0558 157.35C87.735 157.02 76.0557 154.072 68.1305 145.486C67.7105 145.028 67.032 145.709 67.4488 146.164Z" fill="#222222"/>
<path d="M145.663 160.111C141.592 161.964 138.526 165.074 137.215 169.397C135.993 173.427 136.326 177.903 137.79 181.826C141.224 191.042 150.458 196.476 158.916 200.425C161.766 201.756 164.67 202.976 167.613 204.084C170.411 205.133 173.258 206.18 176.291 206.037C176.908 206.008 176.912 205.046 176.291 205.075C173.745 205.195 171.358 204.433 168.996 203.574C166.495 202.663 164.024 201.668 161.588 200.59C157.362 198.72 153.178 196.654 149.366 194.029C142.219 189.107 136.459 181.51 137.567 172.4C138.21 167.121 141.337 163.133 146.151 160.941C146.713 160.685 146.225 159.856 145.663 160.111Z" fill="#222222"/>
<path d="M118.735 237.75C128.418 236.4 138.921 239.226 143.005 248.932C143.241 249.494 144.171 249.249 143.932 248.677C139.626 238.435 128.744 235.393 118.48 236.823C117.869 236.907 118.128 237.834 118.735 237.75Z" fill="#222222"/>
<path d="M151.707 238.564C144.063 239.261 136.157 241.153 129.796 245.632C122.536 250.743 119.26 258.735 118.01 267.286C117.922 267.89 118.847 268.151 118.937 267.541C120.171 259.091 123.379 251.154 130.658 246.2C136.82 242.006 144.373 240.191 151.707 239.523C152.318 239.468 152.324 238.505 151.707 238.564Z" fill="#222222"/>
<path d="M128.237 194.596C134.314 190.321 141.793 188.322 149.175 188.206C155.337 188.109 162.777 189.472 166.464 194.968C170.466 200.935 168.131 208.953 163.672 213.958C158.884 219.331 151.938 222.505 145.421 225.25C137.225 228.705 128.188 231.181 119.323 228.982C118.722 228.834 118.467 229.761 119.067 229.909C127.435 231.985 135.981 230.032 143.832 226.929C150.956 224.113 158.7 220.732 164.002 215.017C168.454 210.218 171.09 202.882 168.412 196.556C165.782 190.344 158.92 187.877 152.655 187.354C144.064 186.637 134.834 188.781 127.752 193.763C127.248 194.118 127.726 194.951 128.237 194.596Z" fill="#222222"/>
<path fill-rule="evenodd" clip-rule="evenodd" d="M116.132 218.073C117.693 224.165 118.853 228.986 119.135 230.9C120.032 236.989 118.912 244.458 113.905 250.522C108.885 256.6 100.065 261.141 85.8163 261.571L85.7676 259.957C99.6911 259.537 108.014 255.119 112.659 249.494C117.316 243.854 118.382 236.874 117.537 231.135C117.27 229.325 116.137 224.602 114.567 218.473C113.004 212.367 111.021 204.922 109.072 197.707C107.123 190.493 105.208 183.51 103.781 178.332C103.067 175.743 102.475 173.604 102.062 172.113C101.855 171.368 101.693 170.784 101.583 170.387L101.414 169.78C101.413 169.779 101.413 169.779 102.191 169.563C102.97 169.346 102.97 169.346 102.97 169.347L103.139 169.955C103.249 170.352 103.412 170.936 103.619 171.682C104.032 173.174 104.624 175.313 105.338 177.903C106.766 183.083 108.682 190.068 110.632 197.286C112.581 204.504 114.566 211.957 116.132 218.073Z" fill="white"/>
<path fill-rule="evenodd" clip-rule="evenodd" d="M19.2579 258.604L11.2422 249.75L12.2005 248.883L20.2162 257.737L19.2579 258.604Z" fill="white"/>
<path fill-rule="evenodd" clip-rule="evenodd" d="M18.8893 264.81L10.877 255.956L11.8354 255.089L19.8478 263.943L18.8893 264.81Z" fill="white"/>
<path fill-rule="evenodd" clip-rule="evenodd" d="M18.8639 271.49L10.8516 262.636L11.81 261.77L19.8224 270.624L18.8639 271.49Z" fill="white"/>
<path fill-rule="evenodd" clip-rule="evenodd" d="M106.136 275.366L94.5664 273.012L94.8242 271.746L106.394 274.1L106.136 275.366Z" fill="white"/>
<path fill-rule="evenodd" clip-rule="evenodd" d="M109.404 280.613L97.834 278.259L98.0918 276.993L109.661 279.347L109.404 280.613Z" fill="white"/>
<path fill-rule="evenodd" clip-rule="evenodd" d="M113.219 286.037L101.652 283.683L101.91 282.417L113.476 284.771L113.219 286.037Z" fill="white"/>
<path d="M105.848 87.2629C108.888 104.58 97.3089 121.084 79.9788 124.126C62.6519 127.164 46.1391 115.591 43.0957 98.2707" fill="#FDE50B"/>
<path d="M83.7205 65.5577C84.609 74.2826 78.254 82.0743 69.5243 82.9623C61.8059 83.7469 54.8175 78.8743 52.6884 71.7059C52.4106 70.7662 52.2136 69.7878 52.1102 68.7739C51.2218 60.0522 57.5768 52.2572 66.3064 51.3692C70.849 50.9075 75.1362 52.4026 78.3315 55.1763C81.278 57.7337 83.2941 61.3729 83.7205 65.5577Z" fill="#F0438C"/>
<path d="M78.3277 55.1763C74.9386 63.9722 66.8357 70.5918 56.8104 71.6122C55.4179 71.7543 54.0416 71.7801 52.6847 71.7059C52.4068 70.7662 52.2097 69.7878 52.1063 68.7739C51.2179 60.0522 57.5729 52.2572 66.3025 51.3692C70.8483 50.9075 75.1324 52.4026 78.3277 55.1763Z" fill="#222222"/>
<path d="M51.9706 58.2665C55.3145 58.2665 58.0251 55.5573 58.0251 52.2153C58.0251 48.8733 55.3145 46.1641 51.9706 46.1641C48.6268 46.1641 45.916 48.8733 45.916 52.2153C45.916 55.5573 48.6268 58.2665 51.9706 58.2665Z" fill="#222222"/>
<path d="M52.5009 46.5098C62.0185 46.5098 69.734 38.7984 69.734 29.286C69.734 19.7736 62.0185 12.0623 52.5009 12.0623C42.9832 12.0623 35.2676 19.7736 35.2676 29.286C35.2676 38.7984 42.9832 46.5098 52.5009 46.5098Z" fill="#222222"/>
<path d="M81.2398 68.2666C82.1097 68.1781 82.7023 67.0017 82.5635 65.6391C82.4246 64.2765 81.607 63.2436 80.7371 63.3322C79.8672 63.4207 79.2746 64.597 79.4135 65.9597C79.5523 67.3223 80.3699 68.3552 81.2398 68.2666Z" fill="#222222"/>
<path d="M76.0212 68.9706C76.8911 68.882 77.4837 67.7056 77.3449 66.343C77.206 64.9803 76.3884 63.9475 75.5185 64.036C74.6486 64.1245 74.0559 65.3009 74.1947 66.6635C74.3335 68.0262 75.1514 69.0591 76.0212 68.9706Z" fill="#222222"/>
<path fill-rule="evenodd" clip-rule="evenodd" d="M81.5204 71.5888C81.5201 71.5887 81.5198 71.5887 81.4322 72.2285C81.3445 72.8684 81.3442 72.8683 81.3439 72.8683L81.3432 72.8682L81.3418 72.868L81.3381 72.8675L81.3277 72.8659C81.3196 72.8647 81.3089 72.863 81.2958 72.8608C81.2696 72.8565 81.2339 72.8501 81.19 72.8413C81.1022 72.8236 80.9807 72.796 80.8363 72.7546C80.5497 72.6726 80.1609 72.5332 79.7635 72.3028C78.9581 71.8358 78.0853 70.9674 78.0273 69.4734L79.3187 69.4233C79.3544 70.3447 79.8612 70.8663 80.412 71.1856C80.6926 71.3483 80.976 71.4511 81.1921 71.5129C81.299 71.5435 81.3865 71.5633 81.4449 71.575C81.474 71.5809 81.4957 71.5847 81.5086 71.5868C81.5151 71.5879 81.5194 71.5886 81.5213 71.5889L81.5208 71.5888L81.5204 71.5888ZM81.5213 71.5889C81.5221 71.589 81.5225 71.5891 81.5225 71.5891L81.5224 71.589L81.5216 71.5889L81.5213 71.5889Z" fill="#222222"/>
<path fill-rule="evenodd" clip-rule="evenodd" d="M156.905 27.5938C157.157 27.5459 157.452 27.5381 157.736 27.6569L157.736 27.6571C158.086 27.8041 158.239 28.11 158.291 28.3662C158.339 28.604 158.316 28.8563 158.275 29.0798C158.191 29.5358 157.987 30.1022 157.725 30.7102C157.195 31.9395 156.356 33.4999 155.483 35.0194C155.009 35.846 154.521 36.6663 154.062 37.4228C155.145 36.5269 156.413 35.5133 157.717 34.5418C159.503 33.2117 161.387 31.9395 162.977 31.163C163.768 30.777 164.531 30.4909 165.197 30.4008C165.855 30.3118 166.579 30.3991 167.056 30.9762C167.286 31.254 167.353 31.5859 167.342 31.8889C167.332 32.185 167.248 32.4899 167.132 32.7832C166.9 33.3701 166.485 34.0465 165.975 34.7563C164.949 36.1846 163.439 37.8814 161.899 39.4963C161.004 40.4349 160.092 41.3521 159.249 42.1813C159.673 41.9619 160.11 41.7415 160.551 41.5263C162.043 40.798 163.613 40.1151 164.919 39.7381C165.568 39.5507 166.192 39.427 166.728 39.4277C167.242 39.4285 167.837 39.5466 168.208 40.0297L168.208 40.0302C168.468 40.3689 168.448 40.7681 168.379 41.0588C168.308 41.3577 168.158 41.6713 167.974 41.9795C167.604 42.6016 167.01 43.3485 166.288 44.1573C164.839 45.7827 162.784 47.76 160.7 49.6648C158.613 51.573 156.483 53.4215 154.875 54.7921C154.071 55.4777 153.397 56.0442 152.924 56.4395C152.688 56.6372 152.502 56.7921 152.374 56.8976C152.349 56.9184 152.326 56.9372 152.306 56.9541C152.284 57.0093 152.256 57.0788 152.222 57.1622C152.126 57.3986 151.985 57.7462 151.8 58.192C151.431 59.0836 150.889 60.3685 150.199 61.9442C148.82 65.095 146.847 69.411 144.475 74.0708C139.746 83.3579 133.372 94.1251 126.887 99.6847C125.73 100.677 123.917 101.678 121.685 102.67C119.44 103.668 116.724 104.677 113.723 105.673C107.72 107.666 100.542 109.621 93.646 111.341C86.7479 113.061 80.1225 114.549 75.2222 115.606C72.7719 116.134 70.7523 116.555 69.3451 116.845C68.6415 116.989 68.0909 117.101 67.7161 117.176C67.5287 117.214 67.3852 117.242 67.2885 117.262L67.1439 117.29L67.1421 117.291C67.1417 117.291 67.1414 117.291 67.0162 116.657C66.891 116.024 66.8911 116.024 66.8915 116.024L66.8932 116.023L67.0358 115.995C67.1318 115.976 67.2745 115.947 67.4611 115.91C67.8343 115.835 68.3832 115.723 69.085 115.579C70.4886 115.291 72.5039 114.871 74.9496 114.343C79.8413 113.288 86.4526 111.804 93.3331 110.088C100.216 108.372 107.358 106.426 113.315 104.447C116.294 103.458 118.968 102.464 121.16 101.49C123.364 100.51 125.035 99.5709 126.046 98.7044C132.314 93.3305 138.59 82.781 143.323 73.485C145.681 68.8532 147.643 64.561 149.015 61.4265C149.701 59.8595 150.239 58.5824 150.606 57.6978C150.789 57.2554 150.93 56.9112 151.024 56.678C151.071 56.5613 151.107 56.4725 151.131 56.4129L151.158 56.3458L151.164 56.3291L151.166 56.325L151.166 56.3241C151.166 56.3239 151.166 56.3238 151.767 56.5614C151.356 56.0629 151.356 56.0629 151.356 56.0628L151.357 56.0624L151.359 56.0605L151.369 56.0529L151.405 56.0226C151.422 56.0087 151.443 55.9912 151.468 55.9703C151.492 55.951 151.519 55.9287 151.549 55.9035C151.675 55.799 151.86 55.6452 152.095 55.4487C152.566 55.0557 153.236 54.4919 154.036 53.8095C155.638 52.4443 157.756 50.6062 159.828 48.7118C161.904 46.814 163.92 44.8726 165.324 43.298C166.029 42.5067 166.557 41.8332 166.864 41.3189C167.012 41.0699 167.088 40.891 167.118 40.7759C167.056 40.7495 166.938 40.7196 166.726 40.7194C166.368 40.7189 165.88 40.8053 165.277 40.979C164.081 41.3244 162.591 41.9678 161.118 42.6869C159.651 43.4028 158.227 44.1802 157.168 44.7798C156.639 45.0793 156.202 45.3338 155.897 45.5132C155.745 45.6029 155.626 45.6737 155.546 45.722C155.506 45.7462 155.475 45.7647 155.454 45.7771L155.426 45.7944L155.424 45.7952L155.424 45.7954C155.424 45.7954 155.424 45.7954 155.381 45.7244L155.424 45.7954L154.654 44.7658L155.088 45.2436C154.654 44.7658 154.654 44.7658 154.654 44.7658L154.654 44.7653L154.656 44.7638L154.69 44.7326C154.714 44.7104 154.751 44.6772 154.798 44.6338C154.893 44.5469 155.032 44.419 155.208 44.2553C155.561 43.9278 156.064 43.4575 156.663 42.8869C157.86 41.7451 159.438 40.2045 160.964 38.6051C162.493 37.0011 163.953 35.3564 164.925 34.003C165.414 33.3219 165.756 32.7474 165.93 32.3086C166.016 32.089 166.047 31.9374 166.05 31.8439C166.051 31.8146 166.05 31.7963 166.048 31.7861C165.98 31.7144 165.815 31.6207 165.37 31.6808C164.906 31.7435 164.289 31.96 163.545 32.3235C162.065 33.0458 160.259 34.2593 158.489 35.5775C156.726 36.8905 155.027 38.2864 153.766 39.3557C153.136 39.89 152.617 40.3418 152.256 40.6598C152.075 40.8187 151.934 40.9442 151.839 41.0297C151.791 41.0724 151.754 41.1052 151.73 41.1271L151.702 41.1519L151.694 41.1595L151.693 41.1598C151.693 41.1598 151.693 41.1598 151.26 40.681C150.718 40.3287 150.718 40.3287 150.718 40.3286L150.719 40.3283L150.72 40.3268L150.74 40.2958C150.754 40.2737 150.775 40.2409 150.803 40.1979C150.859 40.1119 150.94 39.9855 151.043 39.8243C151.25 39.5017 151.543 39.0398 151.891 38.4836C152.587 37.3703 153.498 35.882 154.362 34.3765C155.23 32.866 156.039 31.3578 156.538 30.1989C156.776 29.648 156.928 29.2107 156.992 28.9044C156.909 28.9323 156.81 28.9727 156.694 29.0285C156.297 29.2199 155.797 29.5485 155.218 29.9926C154.065 30.8768 152.695 32.1448 151.369 33.4561C150.047 34.7637 148.785 36.0991 147.853 37.1087C147.387 37.6132 147.004 38.0356 146.738 38.3317C146.605 38.4797 146.501 38.5961 146.43 38.6754C146.395 38.715 146.368 38.7453 146.35 38.7656L146.33 38.7885L146.325 38.7942L146.324 38.7955L146.323 38.7958C146.323 38.7959 146.323 38.7959 145.839 38.369L146.323 38.7958L145.207 38.5063L145.206 38.5022L145.203 38.488C145.2 38.4752 145.196 38.4559 145.19 38.4305C145.179 38.3797 145.162 38.3046 145.139 38.2087C145.094 38.0169 145.028 37.7423 144.943 37.4133C144.774 36.7539 144.532 35.8822 144.242 35.0227C143.949 34.1549 143.618 33.3344 143.277 32.7582C143.105 32.4676 142.953 32.2774 142.831 32.1726C142.78 32.1285 142.747 32.1103 142.731 32.1033C142.652 32.1213 142.55 32.1762 142.422 32.3498C142.275 32.5486 142.129 32.859 141.987 33.3027C141.707 34.1775 141.499 35.3793 141.251 36.8166L141.238 36.8939C140.739 39.7789 140.09 43.4799 138.316 46.5036C137.097 48.5795 131.209 57.482 125.645 65.8359C122.86 70.0195 120.149 74.0745 118.135 77.0835C117.128 78.5881 116.295 79.8312 115.714 80.6982C115.424 81.1317 115.196 81.4711 115.041 81.7022L114.804 82.0557C114.804 82.056 114.804 82.0561 114.267 81.6964L114.804 82.0561L114.409 82.3265L62.9805 93.8703L62.6973 92.6101L113.874 81.1227L113.968 80.983C114.122 80.752 114.35 80.4127 114.641 79.9793C115.221 79.1125 116.054 77.8697 117.061 76.3654C119.075 73.3568 121.784 69.3027 124.57 65.1202C130.149 56.7421 136.006 47.8849 137.201 45.85C138.838 43.0615 139.459 39.5972 139.964 36.674L139.99 36.5262C140.228 35.1497 140.448 33.8714 140.756 32.9093C140.916 32.4096 141.114 31.946 141.382 31.5827C141.658 31.2093 142.036 30.9075 142.542 30.8247L142.543 30.8246C143.008 30.7492 143.397 30.9556 143.673 31.193C143.949 31.4298 144.186 31.7564 144.39 32.1009C144.8 32.795 145.166 33.7177 145.467 34.6098C145.761 35.4806 146.005 36.3556 146.178 37.0247C146.387 36.794 146.631 36.5271 146.903 36.2327C147.843 35.2148 149.119 33.8641 150.46 32.5381C151.797 31.2156 153.213 29.9022 154.431 28.968C155.038 28.5028 155.619 28.113 156.132 27.8654C156.388 27.7416 156.65 27.6423 156.905 27.5938ZM142.719 32.0993C142.719 32.0991 142.72 32.0993 142.724 32.1005C142.721 32.1001 142.719 32.0995 142.719 32.0993ZM151.26 40.681L150.718 40.3286L151.693 41.1598L151.26 40.681ZM166.047 31.7787C166.046 31.7769 166.046 31.776 166.046 31.7759C166.046 31.7758 166.046 31.7767 166.047 31.7787ZM166.06 31.7994C166.06 31.7993 166.06 31.7992 166.06 31.7991L166.06 31.7994ZM167.132 40.6962C167.132 40.696 167.132 40.6975 167.132 40.7009C167.132 40.698 167.132 40.6963 167.132 40.6962ZM151.767 56.5614L151.356 56.0628L151.166 56.3241L151.767 56.5614Z" fill="#222222"/>
<path fill-rule="evenodd" clip-rule="evenodd" d="M67.1412 117.29C67.141 117.29 67.1409 117.29 67.0157 116.657C66.8905 116.023 66.8905 116.023 66.8906 116.023L66.9435 116.013C66.9789 116.006 67.0318 115.995 67.1016 115.981C67.2411 115.953 67.4481 115.912 67.7175 115.858C68.2563 115.749 69.045 115.588 70.0434 115.381C72.0402 114.967 74.8757 114.368 78.2293 113.627C84.9379 112.144 93.7143 110.095 101.997 107.829L102.338 109.074C94.0265 111.349 85.2271 113.403 78.5083 114.888C75.1483 115.63 72.3072 116.231 70.3059 116.646C69.3052 116.853 68.5144 117.014 67.9735 117.124C67.7031 117.178 67.4952 117.22 67.3547 117.248C67.2845 117.262 67.2312 117.272 67.1953 117.28L67.1412 117.29Z" fill="#222222"/>
<path fill-rule="evenodd" clip-rule="evenodd" d="M149.85 83.8283L168.74 58.4875L169.776 59.2592L150.679 84.8784L150.124 85.1374L142.244 84.695L142.317 83.4055L149.85 83.8283Z" fill="#222222"/>
<path fill-rule="evenodd" clip-rule="evenodd" d="M170.144 11.667C172.217 7.11371 175.587 2.688 178.059 0L178.773 0.655562C176.345 3.29548 173.044 7.63664 171.026 12.0682C168.989 16.5442 168.36 20.881 170.865 23.7423C173.406 26.6443 177.62 27.0798 182.026 26.3325C186.408 25.5894 190.813 23.7004 193.526 22.1854L194.144 22.9069C192.898 24.4959 191.155 27.1552 189.981 29.9481C189.394 31.3439 188.957 32.757 188.79 34.0758C188.622 35.3962 188.728 36.5911 189.193 37.5785C190.102 39.509 192.317 40.2504 194.951 40.2994C197.555 40.3479 200.373 39.7091 202.169 39.1019L202.479 40.0195C200.614 40.6501 197.681 41.3191 194.933 41.268C192.214 41.2174 189.475 40.4519 188.316 37.991C187.747 36.7826 187.646 35.3862 187.828 33.9538C188.01 32.5199 188.48 31.0187 189.087 29.573C189.951 27.5179 191.107 25.5422 192.166 23.9825C189.44 25.3022 185.817 26.6722 182.188 27.2875C177.694 28.0498 173.023 27.678 170.136 24.3802C167.213 21.0418 168.092 16.1758 170.144 11.667Z" fill="#222222"/>
<path fill-rule="evenodd" clip-rule="evenodd" d="M163.603 57.2308C163.603 57.2307 163.603 57.2306 163.202 56.9588C162.8 56.6871 162.801 56.6868 162.801 56.6865L162.801 56.6855L162.804 56.6823L162.811 56.6713C162.818 56.6619 162.827 56.6485 162.839 56.6313C162.863 56.5968 162.899 56.5468 162.946 56.4829C163.039 56.3551 163.177 56.1714 163.358 55.9436C163.72 55.4883 164.254 54.8562 164.949 54.1423C166.337 52.7165 168.376 50.9545 170.97 49.6299C173.567 48.3036 176.727 47.4129 180.342 47.7458C183.959 48.0789 187.991 49.6326 192.337 53.1297L191.73 53.8843C187.506 50.4857 183.649 49.0232 180.253 48.7105C176.856 48.3977 173.879 49.2319 171.411 50.4925C168.939 51.7547 166.984 53.4415 165.644 54.8179C164.975 55.5051 164.462 56.1122 164.117 56.546C163.945 56.7629 163.815 56.9362 163.728 57.0542C163.685 57.1132 163.653 57.1584 163.632 57.1883C163.622 57.2032 163.614 57.2143 163.609 57.2215L163.604 57.2291L163.603 57.2306L163.603 57.2308Z" fill="#222222"/>
<path fill-rule="evenodd" clip-rule="evenodd" d="M147.751 18.2454C147.75 18.2454 147.75 18.2454 147.735 17.7613C147.721 17.2771 147.721 17.2771 147.721 17.2771L147.721 17.2771L147.722 17.2771L147.728 17.2769C147.734 17.2766 147.744 17.2763 147.756 17.2757C147.782 17.2746 147.821 17.2727 147.872 17.2697C147.974 17.2636 148.126 17.253 148.319 17.235C148.705 17.1991 149.257 17.1336 149.91 17.016C151.219 16.78 152.921 16.3372 154.523 15.5134C156.124 14.6901 157.602 13.4991 158.508 11.7763C159.41 10.0606 159.774 7.76158 159.053 4.66094L159.997 4.44141C160.761 7.72459 160.395 10.2687 159.366 12.2269C158.34 14.1779 156.684 15.4915 154.966 16.3748C153.25 17.2576 151.447 17.7233 150.081 17.9693C149.397 18.0926 148.818 18.1615 148.409 18.1996C148.204 18.2186 148.042 18.23 147.929 18.2367C147.873 18.24 147.829 18.2422 147.799 18.2435C147.784 18.2441 147.772 18.2446 147.764 18.2449L147.754 18.2453L147.752 18.2453L147.751 18.2454Z" fill="#222222"/>
<path fill-rule="evenodd" clip-rule="evenodd" d="M185.28 2.35475C185.28 2.35449 185.281 2.35428 185.701 2.59459C186.122 2.8349 186.122 2.83483 186.122 2.83482L186.122 2.83514L186.121 2.83694L186.116 2.84514C186.112 2.85264 186.106 2.86417 186.097 2.87956C186.08 2.91033 186.054 2.95653 186.022 3.01682C185.956 3.13742 185.863 3.31422 185.75 3.5365C185.525 3.98147 185.226 4.60658 184.931 5.32639C184.333 6.78404 183.782 8.56115 183.838 10.0099C183.866 10.7264 184.041 11.3177 184.389 11.7531C184.728 12.1793 185.278 12.5128 186.175 12.6339C188.014 12.8823 191.169 12.218 196.34 9.82095L196.748 10.6997C191.561 13.1043 188.182 13.8826 186.045 13.5939C184.955 13.4465 184.157 13.0166 183.631 12.3569C183.112 11.7064 182.903 10.8893 182.87 10.0475C182.805 8.37934 183.427 6.43941 184.034 4.95924C184.341 4.21013 184.651 3.56113 184.885 3.09922C185.002 2.86806 185.1 2.68322 185.169 2.55555C185.204 2.4917 185.231 2.4421 185.25 2.40812C185.26 2.39112 185.267 2.37803 185.272 2.369L185.278 2.35853L185.28 2.35475Z" fill="#222222"/>
</svg>
