<svg width="80" height="80" viewBox="0 0 80 80" fill="none" xmlns="http://www.w3.org/2000/svg">
<path fill-rule="evenodd" clip-rule="evenodd" d="M67.0755 39.308C65.9733 39.2344 65.0202 40.0681 64.9466 41.1702C64.9024 41.8319 64.8322 42.4973 64.7352 43.1654C64.6381 43.8335 64.5161 44.4914 64.3702 45.1383C64.1273 46.2158 64.8038 47.2863 65.8813 47.5292C66.9588 47.7722 68.0293 47.0956 68.2723 46.0181C68.4408 45.2705 68.5817 44.5109 68.6936 43.7404C68.8055 42.9699 68.8866 42.2016 68.9377 41.4369C69.0113 40.3348 68.1776 39.3816 67.0755 39.308ZM64.1599 51.8521C63.211 51.2868 61.9835 51.5977 61.4181 52.5466C59.345 56.026 56.4785 58.9385 53.1011 61.0705C52.167 61.6601 51.8878 62.8953 52.4774 63.8293C53.067 64.7634 54.3022 65.0426 55.2362 64.453C59.1386 61.9896 62.454 58.6226 64.8544 54.594C65.4197 53.6451 65.1088 52.4175 64.1599 51.8521Z" fill="#222222"/>
<path d="M61.5194 70.6466L34.8804 71.8609L53.3133 51.6672L53.9895 62.8425L61.5194 70.6466Z" fill="#FDE50B"/>
<path fill-rule="evenodd" clip-rule="evenodd" d="M53.3133 51.6672L53.9895 62.8425L61.5194 70.6466L34.8804 71.8609L53.3133 51.6672ZM52.0378 63.7L57.007 68.8502L39.6127 69.6431L43.067 65.8588C43.6813 66.4222 44.5111 66.7504 45.4096 66.7094C47.2011 66.6277 48.5871 65.1093 48.5055 63.3178C48.4645 62.4193 48.0622 61.6228 47.4453 61.0623L51.6026 56.508L52.0378 63.7ZM46.5696 62.0216L43.9427 64.8995C44.3115 65.2388 44.8103 65.4365 45.3504 65.4119C46.4253 65.3629 47.257 64.4518 47.208 63.3769C47.1834 62.8368 46.941 62.358 46.5696 62.0216Z" fill="#222222"/>
<path d="M50.9539 65.7893C51.5056 65.7642 51.9733 66.191 51.9984 66.7428C52.0236 67.2945 51.5967 67.7621 51.045 67.7873C50.4933 67.8124 50.0256 67.3855 50.0005 66.8338C49.9753 66.2821 50.4022 65.8145 50.9539 65.7893Z" fill="#222222"/>
<path d="M65.4052 29.7195C64.3431 30.0227 63.7279 31.1295 64.0311 32.1916C64.2053 32.802 64.357 33.4197 64.4856 34.0437C64.7085 35.1255 65.7662 35.8219 66.848 35.599C67.9298 35.3761 68.6262 34.3184 68.4033 33.2366C68.2545 32.5144 68.079 31.7997 67.8774 31.0936C67.5742 30.0315 66.4674 29.4163 65.4052 29.7195Z" fill="#222222"/>
</svg>