<svg width="203" height="274" viewBox="0 0 203 274" fill="none" xmlns="http://www.w3.org/2000/svg">
<path d="M165.429 206.557L202.999 217.21L177.82 274L182.665 223.952L165.211 216.028" fill="#F96155"/>
<path d="M63.692 230.335L71.5922 261.8L9.95703 254.288L55.483 247.685L50.2573 226.482" fill="#F96155"/>
<path d="M111.08 103.552C132.233 98.8068 147.861 103.211 155.075 118.554C161.022 131.205 154.903 153.69 140.975 179.362L179.332 197.729C179.332 197.729 186.432 206.222 179.179 218.113C172.104 229.708 161.601 230.861 161.601 230.861L113.498 206.472C102.273 200.782 97.1059 187.579 101.487 175.786L113.833 142.547L83.1058 173.308L75.6347 232.524C75.6347 232.524 72.5603 239.884 59.337 240.673C44.8105 241.54 38.9707 235.519 38.9707 235.519L44.0177 171.294C44.6481 163.285 47.6054 155.639 52.5288 149.293C63.9388 134.583 86.7619 109.009 111.08 103.552Z" fill="#FBC73B"/>
<path d="M53.5203 219.138C55.2459 219.138 56.6693 220.542 56.6953 222.266C56.7083 223.114 56.3898 223.916 55.8016 224.527C55.2134 225.137 54.4172 225.478 53.569 225.491H53.5171C51.7915 225.491 50.3681 224.088 50.3421 222.364C50.3128 220.613 51.7168 219.164 53.4684 219.138H53.5203ZM53.5203 218.164C53.4975 218.164 53.4748 218.164 53.452 218.164C51.1577 218.2 49.328 220.087 49.3638 222.38C49.3995 224.65 51.2519 226.466 53.5138 226.466C53.5365 226.466 53.5592 226.466 53.582 226.466C55.8763 226.43 57.706 224.543 57.6702 222.25C57.6345 219.98 55.7821 218.164 53.5203 218.164Z" fill="#001A39"/>
<path d="M54.5671 168.072C56.2928 168.072 57.7162 169.475 57.7422 171.2C57.7714 172.95 56.3675 174.399 54.6159 174.425H54.5638C52.8382 174.425 51.4148 173.022 51.3888 171.297C51.3758 170.449 51.6943 169.647 52.2825 169.037C52.8707 168.426 53.6669 168.085 54.5151 168.072H54.5671ZM54.5671 167.098C54.5444 167.098 54.5217 167.098 54.4989 167.098C52.2046 167.133 50.3749 169.02 50.4107 171.313C50.4464 173.584 52.2988 175.399 54.5606 175.399C54.5834 175.399 54.6061 175.399 54.6289 175.399C56.9232 175.364 58.7528 173.477 58.7171 171.183C58.6814 168.913 56.829 167.098 54.5671 167.098Z" fill="#001A39"/>
<path d="M73.1648 146.872C74.8904 146.872 76.3138 148.275 76.3398 150C76.3691 151.751 74.9651 153.199 73.2135 153.225H73.1615C71.4358 153.225 70.0124 151.822 69.9864 150.097C69.9734 149.25 70.2919 148.448 70.8801 147.837C71.4683 147.226 72.2646 146.885 73.1127 146.872H73.1648ZM73.1648 145.898C73.142 145.898 73.1193 145.898 73.0966 145.898C70.8022 145.934 68.9726 147.821 69.0083 150.114C69.0441 152.384 70.8965 154.2 73.1583 154.2C73.181 154.2 73.2038 154.2 73.2265 154.2C75.5209 154.164 77.3505 152.277 77.3148 149.984C77.2823 147.713 75.4299 145.898 73.1648 145.898Z" fill="#001A39"/>
<path fill-rule="evenodd" clip-rule="evenodd" d="M55.3769 151.627C56.6041 150.02 56.2921 147.72 54.6824 146.493L55.2738 145.718C57.3103 147.271 57.7067 150.181 56.1521 152.218C54.5983 154.253 51.6862 154.65 49.6484 153.096L50.2398 152.321C51.8482 153.548 54.1488 153.236 55.3769 151.627Z" fill="#001A39"/>
<path d="M105.852 114.592C107.578 114.592 109.001 115.995 109.027 117.719C109.04 118.567 108.722 119.369 108.134 119.98C107.545 120.591 106.749 120.932 105.901 120.945H105.849C104.123 120.945 102.7 119.541 102.674 117.817C102.645 116.066 104.049 114.618 105.8 114.592H105.852ZM105.852 113.617C105.83 113.617 105.807 113.617 105.784 113.617C103.49 113.653 101.66 115.54 101.696 117.833C101.732 120.103 103.584 121.919 105.846 121.919C105.869 121.919 105.891 121.919 105.914 121.919C108.208 121.883 110.038 119.996 110.002 117.703C109.97 115.433 108.117 113.617 105.852 113.617Z" fill="#001A39"/>
<path fill-rule="evenodd" clip-rule="evenodd" d="M79.4112 125.405C79.388 124.101 78.6888 122.966 77.6465 122.331L78.1535 121.499C79.4703 122.3 80.3569 123.737 80.3859 125.388L80.386 125.389C80.4259 127.951 78.3817 130.06 75.8181 130.1L75.8105 129.613L75.8181 130.1C75.8181 130.1 75.8181 130.1 75.8181 130.1C73.9545 130.129 72.3285 129.054 71.5664 127.484L72.4436 127.058C73.0464 128.301 74.3322 129.149 75.8029 129.126L75.8029 129.126C77.8278 129.094 79.4426 127.429 79.4112 125.405ZM79.4112 125.405C79.4112 125.405 79.4112 125.405 79.4112 125.405L79.8986 125.397L79.4111 125.405C79.4111 125.405 79.4111 125.405 79.4112 125.405Z" fill="#001A39"/>
<path d="M99.5828 135.174C101.308 135.174 102.732 136.577 102.758 138.301C102.771 139.149 102.452 139.951 101.864 140.562C101.276 141.172 100.48 141.513 99.6315 141.526H99.5794C97.8538 141.526 96.4304 140.123 96.4044 138.399C96.3914 137.551 96.7099 136.749 97.2981 136.138C97.8863 135.528 98.6825 135.187 99.5307 135.174H99.5828ZM99.5828 134.199C99.56 134.199 99.5373 134.199 99.5145 134.199C97.2202 134.235 95.3905 136.122 95.4263 138.415C95.462 140.685 97.3144 142.501 99.5763 142.501C99.599 142.501 99.6217 142.501 99.6445 142.501C101.939 142.465 103.768 140.578 103.733 138.285C103.697 136.015 101.845 134.199 99.5828 134.199Z" fill="#001A39"/>
<path fill-rule="evenodd" clip-rule="evenodd" d="M125.233 101.573C125.744 103.013 127.133 104.035 128.747 104.01L128.747 104.01C130.204 103.987 131.449 103.119 132.02 101.877L132.906 102.284C132.183 103.854 130.608 104.955 128.763 104.984M125.233 101.573L124.314 101.899L125.233 101.573ZM124.314 101.899C124.961 103.72 126.717 105.017 128.763 104.984L124.314 101.899Z" fill="#001A39"/>
<path d="M130.028 145.034C131.754 145.034 133.177 146.437 133.203 148.162C133.216 149.009 132.898 149.812 132.309 150.422C131.721 151.033 130.925 151.374 130.077 151.387H130.025C128.299 151.387 126.876 149.984 126.85 148.259C126.82 146.509 128.224 145.06 129.976 145.034H130.028ZM130.028 144.06C130.005 144.06 129.983 144.06 129.96 144.06C127.666 144.095 125.836 145.982 125.872 148.275C125.907 150.546 127.76 152.361 130.022 152.361C130.044 152.361 130.067 152.361 130.09 152.361C132.384 152.326 134.214 150.439 134.178 148.145C134.142 145.875 132.29 144.06 130.028 144.06Z" fill="#001A39"/>
<path d="M119.135 174.714C120.861 174.714 122.285 176.117 122.311 177.841C122.34 179.592 120.936 181.041 119.184 181.067H119.132C117.407 181.067 115.983 179.663 115.957 177.939C115.944 177.091 116.263 176.289 116.851 175.678C117.439 175.068 118.235 174.727 119.083 174.714H119.135ZM119.135 173.739C119.113 173.739 119.09 173.739 119.067 173.739C116.773 173.775 114.943 175.662 114.979 177.955C115.015 180.225 116.867 182.041 119.129 182.041C119.152 182.041 119.174 182.041 119.197 182.041C121.492 182.005 123.321 180.118 123.285 177.825C123.25 175.555 121.397 173.739 119.135 173.739Z" fill="#001A39"/>
<path fill-rule="evenodd" clip-rule="evenodd" d="M154.48 185.759C154.357 186.133 154.294 186.534 154.3 186.954C154.331 188.978 155.998 190.592 158.023 190.56M154.48 185.759L153.554 185.455L154.48 185.759ZM153.554 185.455C153.397 185.932 153.317 186.44 153.325 186.968L153.554 185.455ZM158.038 191.535C155.474 191.575 153.365 189.531 153.325 186.969L153.325 186.968M158.023 190.56C159.288 190.54 160.395 189.884 161.037 188.898L161.854 189.43C161.041 190.678 159.639 191.509 158.038 191.535L158.038 191.535" fill="#001A39"/>
<path fill-rule="evenodd" clip-rule="evenodd" d="M181.079 200.978C179.087 201.353 177.777 203.266 178.15 205.255C178.526 207.245 180.439 208.555 182.43 208.182L182.609 209.14C180.089 209.612 177.667 207.953 177.192 205.435L177.192 205.435C176.719 202.916 178.379 200.495 180.898 200.02L181.079 200.978Z" fill="#001A39"/>
<path fill-rule="evenodd" clip-rule="evenodd" d="M102.68 193.678C102.356 193.684 102.04 193.733 101.74 193.816L101.479 192.878C101.855 192.773 102.253 192.711 102.664 192.704L102.665 192.704C105.228 192.664 107.338 194.707 107.378 197.269C107.399 198.57 106.879 199.753 106.031 200.608L105.339 199.922C106.011 199.244 106.42 198.311 106.403 197.285L106.403 197.285C106.371 195.261 104.705 193.647 102.68 193.678Z" fill="#001A39"/>
<path d="M132.846 116.865C134.571 116.865 135.995 118.268 136.021 119.993C136.05 121.743 134.646 123.192 132.894 123.218H132.843C131.117 123.218 129.693 121.815 129.667 120.09C129.654 119.242 129.973 118.44 130.561 117.83C131.149 117.219 131.945 116.878 132.794 116.865H132.846ZM132.843 115.891C132.82 115.891 132.797 115.891 132.774 115.891C130.48 115.926 128.65 117.813 128.686 120.106C128.722 122.377 130.574 124.192 132.836 124.192C132.859 124.192 132.882 124.192 132.904 124.192C135.199 124.157 137.028 122.27 136.992 119.977C136.96 117.706 135.108 115.891 132.843 115.891Z" fill="#001A39"/>
<path fill-rule="evenodd" clip-rule="evenodd" d="M147.484 160.621C148.246 160.609 148.953 160.827 149.543 161.214L147.484 160.621ZM147.484 160.621C145.459 160.652 143.844 162.318 143.876 164.342C143.905 166.05 145.095 167.467 146.684 167.848L146.456 168.795C144.444 168.313 142.937 166.52 142.901 164.358L142.901 164.357C142.861 161.795 144.905 159.686 147.469 159.647L147.469 159.647C148.43 159.632 149.328 159.908 150.077 160.399L149.543 161.214" fill="#001A39"/>
<path fill-rule="evenodd" clip-rule="evenodd" d="M137.844 218.11C137.813 216.087 136.146 214.473 134.121 214.504L134.12 214.504C133.06 214.518 132.108 214.985 131.451 215.719L130.725 215.069C131.556 214.141 132.762 213.548 134.106 213.53C136.669 213.49 138.778 215.533 138.819 218.094C138.826 218.449 138.79 218.794 138.721 219.124L137.767 218.927C137.822 218.66 137.85 218.388 137.844 218.113L137.844 218.11L137.844 218.11Z" fill="#001A39"/>
<path fill-rule="evenodd" clip-rule="evenodd" d="M154.3 134.256C154.271 132.402 155.628 130.845 157.414 130.576L154.3 134.256ZM154.3 134.257C154.326 135.862 155.378 137.209 156.824 137.682L156.52 138.608C154.691 138.01 153.357 136.305 153.325 134.272L153.325 134.272C153.288 131.923 155.006 129.953 157.269 129.612L157.414 130.576" fill="#001A39"/>
<path d="M65.4402 195.569C67.1658 195.569 68.5892 196.972 68.6152 198.696C68.6445 200.447 67.2405 201.896 65.4889 201.922H65.4369C63.7112 201.922 62.2878 200.518 62.2618 198.794C62.2488 197.946 62.5673 197.144 63.1555 196.533C63.7437 195.923 64.5399 195.582 65.3881 195.569H65.4402ZM65.4402 194.594C65.4174 194.594 65.3947 194.594 65.372 194.594C63.0776 194.63 61.248 196.517 61.2837 198.81C61.3195 201.08 63.1718 202.896 65.4337 202.896C65.4564 202.896 65.4792 202.896 65.5019 202.896C67.7962 202.86 69.6259 200.973 69.5901 198.68C69.5577 196.41 67.7053 194.594 65.4402 194.594Z" fill="#001A39"/>
<path fill-rule="evenodd" clip-rule="evenodd" d="M81.9048 183.551C79.8977 183.302 78.0674 184.729 77.8178 186.736C77.5683 188.742 78.9964 190.571 81.0046 190.821L80.8844 191.788C78.3429 191.472 76.5343 189.157 76.8503 186.616C77.1662 184.076 79.4825 182.268 82.0251 182.584L81.9048 183.551Z" fill="#001A39"/>
<path fill-rule="evenodd" clip-rule="evenodd" d="M45.3717 200.933C45.5408 198.918 44.0409 197.146 42.0242 196.977L42.1057 196.006C44.6582 196.22 46.5575 198.463 46.3432 201.014C46.129 203.565 43.8853 205.464 41.332 205.25L41.4136 204.279C43.4295 204.448 45.2024 202.948 45.3717 200.933Z" fill="#001A39"/>
<path fill-rule="evenodd" clip-rule="evenodd" d="M90.4119 163.433C91.1738 163.422 91.8811 163.64 92.4705 164.026L90.4119 163.433ZM86.8035 167.154C86.772 165.13 88.3868 163.465 90.4117 163.433L86.8035 167.154ZM92.4705 164.026L93.0049 163.211L92.4705 164.026ZM93.0049 163.211C92.2555 162.72 91.3574 162.445 90.397 162.459L93.0049 163.211ZM90.397 162.459L90.3967 162.459L90.397 162.459ZM90.3967 162.459C87.8331 162.499 85.7888 164.608 85.8287 167.17L90.3967 162.459ZM86.8035 167.154C86.815 167.885 87.0413 168.561 87.4175 169.127L86.6057 169.666C86.1304 168.952 85.8432 168.095 85.8287 167.17L85.8287 167.17" fill="#001A39"/>
<path d="M128.694 189.355C130.42 189.355 131.843 190.758 131.869 192.483C131.898 194.234 130.494 195.682 128.743 195.708H128.691C126.965 195.708 125.542 194.305 125.516 192.58C125.503 191.733 125.821 190.931 126.409 190.32C126.998 189.709 127.794 189.368 128.642 189.355H128.694ZM128.694 188.381C128.671 188.381 128.649 188.381 128.626 188.381C126.332 188.417 124.502 190.304 124.538 192.597C124.573 194.867 126.426 196.683 128.688 196.683C128.71 196.683 128.733 196.683 128.756 196.683C131.05 196.647 132.88 194.76 132.844 192.467C132.808 190.196 130.956 188.381 128.694 188.381Z" fill="#001A39"/>
<path d="M155.852 205.959C157.577 205.959 159.001 207.362 159.027 209.086C159.056 210.837 157.652 212.286 155.9 212.312H155.848C154.123 212.312 152.699 210.909 152.673 209.184C152.66 208.336 152.979 207.534 153.567 206.923C154.155 206.313 154.951 205.972 155.8 205.959H155.852ZM155.848 204.984C155.826 204.984 155.803 204.984 155.78 204.984C153.486 205.02 151.656 206.907 151.692 209.2C151.728 211.47 153.58 213.286 155.842 213.286C155.865 213.286 155.887 213.286 155.91 213.286C158.204 213.25 160.034 211.363 159.998 209.07C159.966 206.8 158.113 204.984 155.848 204.984Z" fill="#001A39"/>
<path fill-rule="evenodd" clip-rule="evenodd" d="M167.445 222.803C165.423 222.751 163.739 224.348 163.687 226.372L163.687 226.372C163.653 227.684 164.314 228.854 165.337 229.529L164.8 230.342C163.509 229.49 162.669 228.01 162.713 226.347M162.713 226.347C162.778 223.785 164.91 221.763 167.47 221.829C170.033 221.894 172.056 224.024 171.99 226.583L171.016 226.558C171.067 224.537 169.47 222.854 167.445 222.803L167.445 222.803" fill="#001A39"/>
<path fill-rule="evenodd" clip-rule="evenodd" d="M78.0204 212.682C76.0098 212.467 74.2025 213.921 73.9844 215.933C73.7694 217.943 75.2237 219.749 77.2375 219.966L77.1326 220.935C74.5838 220.659 72.7426 218.373 73.015 215.829L73.0151 215.829C73.291 213.281 75.5786 211.441 78.1241 211.713L78.0204 212.682Z" fill="#001A39"/>
<path fill-rule="evenodd" clip-rule="evenodd" d="M66.812 239.359C66.4564 237.367 64.5522 236.042 62.5581 236.397C60.5651 236.753 59.2395 238.656 59.5953 240.649L58.6355 240.82C58.1854 238.298 59.8627 235.888 62.3868 235.438C64.9099 234.988 67.3214 236.665 67.7718 239.187L66.812 239.359Z" fill="#001A39"/>
<path fill-rule="evenodd" clip-rule="evenodd" d="M177.094 236.045L187.353 228.971L188.091 230.041L177.832 237.115L177.094 236.045Z" fill="#001A39"/>
<path fill-rule="evenodd" clip-rule="evenodd" d="M176.07 242.386L186.333 235.315L187.071 236.385L176.808 243.455L176.07 242.386Z" fill="#001A39"/>
<path fill-rule="evenodd" clip-rule="evenodd" d="M174.596 249.125L184.855 242.055L185.593 243.124L175.334 250.195L174.596 249.125Z" fill="#001A39"/>
<path fill-rule="evenodd" clip-rule="evenodd" d="M41.08 245.909L52.4738 250.962L51.9464 252.15L40.5527 247.096L41.08 245.909Z" fill="#001A39"/>
<path fill-rule="evenodd" clip-rule="evenodd" d="M35.1367 248.349L46.5304 253.402L46.0031 254.59L34.6094 249.536L35.1367 248.349Z" fill="#001A39"/>
<path d="M97.4072 22.0613C97.7061 30.0739 104.446 36.3197 112.46 36.0209C119.545 35.7546 125.254 30.4605 126.275 23.7015C126.408 22.8148 126.463 21.9054 126.428 20.9765C126.129 12.9671 119.389 6.71807 111.371 7.01688C107.202 7.17278 103.51 9.06958 100.969 11.983C98.6258 14.669 97.2609 18.2223 97.4072 22.0613Z" fill="#FBC73B"/>
<path d="M98.0593 6.2567C98.1828 9.58583 100.984 12.181 104.312 12.0543C107.256 11.9439 109.625 9.74501 110.051 6.93555C110.106 6.56853 110.129 6.18853 110.113 5.80203C109.989 2.47615 107.188 -0.122228 103.86 0.00444141C102.128 0.0694 100.594 0.858678 99.538 2.06691C98.5631 3.18744 97.9975 4.66197 98.0593 6.2567Z" fill="#001A39"/>
<path d="M107.985 4.19094C108.06 6.21765 109.766 7.79935 111.794 7.72465C113.588 7.65644 115.03 6.31834 115.29 4.60668C115.323 4.38258 115.339 4.15194 115.329 3.91809C115.255 1.89138 113.549 0.309674 111.521 0.384377C110.464 0.423352 109.532 0.904004 108.888 1.64128C108.294 2.3201 107.949 3.21981 107.985 4.19094Z" fill="#001A39"/>
<path d="M99.3129 22.9784C100.181 22.9459 100.846 21.8865 100.798 20.612C100.751 19.3375 100.008 18.3306 99.1401 18.3631C98.272 18.3956 97.6071 19.4551 97.6548 20.7296C97.7025 22.0041 98.4449 23.0109 99.3129 22.9784Z" fill="#001A39"/>
<path d="M104.542 22.943C105.41 22.9105 106.075 21.851 106.027 20.5765C105.979 19.302 105.237 18.2952 104.369 18.3277C103.501 18.3601 102.836 19.4196 102.883 20.6941C102.931 21.9686 103.674 22.9755 104.542 22.943Z" fill="#001A39"/>
<path d="M121.158 21.1711C121.269 24.0812 123.715 26.3515 126.627 26.2411C129.201 26.1436 131.274 24.2208 131.645 21.7654C131.694 21.4439 131.713 21.1126 131.7 20.7748C131.59 17.8647 129.143 15.5944 126.231 15.7048C124.716 15.76 123.374 16.4518 122.451 17.5074C121.603 18.4883 121.106 19.7777 121.158 21.1711Z" fill="#FBC73B"/>
<path d="M101.629 11.5672C101.629 11.5672 106.9 14.6559 116.159 12.6065L117.13 21.324L122.759 19.8559C122.759 19.8559 124.039 14.7567 128.989 16.3644C128.989 16.3644 129.021 6.38672 123.097 4.64583C112.743 1.60576 103.858 6.45169 101.629 11.5672Z" fill="#001A39"/>
<path fill-rule="evenodd" clip-rule="evenodd" d="M101.278 22.459C101.278 22.4592 101.278 22.4595 101.876 22.7134C102.474 22.9674 102.474 22.9676 102.474 22.9679L102.474 22.9685L102.473 22.9699L102.472 22.9732L102.468 22.9823C102.465 22.9895 102.46 22.9988 102.455 23.0101C102.445 23.0327 102.43 23.0632 102.412 23.1005C102.374 23.1749 102.32 23.2768 102.248 23.3958C102.105 23.6318 101.886 23.9455 101.583 24.2451C100.968 24.853 99.9717 25.4265 98.6133 25.1132L98.9056 23.8473C99.7018 24.031 100.264 23.7211 100.669 23.3213C100.875 23.1171 101.031 22.8959 101.136 22.723C101.188 22.6375 101.226 22.5665 101.249 22.519C101.261 22.4953 101.269 22.4777 101.274 22.4674C101.277 22.4622 101.278 22.4589 101.279 22.4575C101.279 22.4568 101.279 22.4566 101.279 22.4569L101.279 22.4578L101.278 22.4586L101.278 22.459Z" fill="#001A39"/>
<path d="M138.901 76.945L102.139 83.2492C92.6404 84.8797 83.6191 78.504 81.9909 69.0103C80.3595 59.5166 86.7388 50.5004 96.2379 48.8732L132.999 42.5689C142.498 40.9384 151.52 47.3142 153.148 56.8079C154.779 66.3016 148.4 75.3178 138.901 76.945Z" fill="#0074E0"/>
<path fill-rule="evenodd" clip-rule="evenodd" d="M23.4574 22.8254C23.9513 20.3312 24.556 18.6925 25.1573 17.6495C25.5023 17.051 25.8609 16.6228 26.2213 16.3468C26.5315 16.1093 26.8868 15.9539 27.2484 15.9625C27.613 15.9031 27.9407 16.0815 28.1632 16.281C28.4285 16.5189 28.6713 16.8846 28.8975 17.3713C29.3535 18.3523 29.8251 20.0075 30.2186 22.6949C30.9764 27.8705 33.5909 31.5673 34.7472 32.723L34.7709 32.7467L59.9852 63.7621L65.5923 64.696L65.3786 65.9775L59.2864 64.9628L33.8038 33.6172C32.4597 32.2596 29.7296 28.3276 28.9324 22.883C28.5459 20.2437 28.0968 18.7322 27.7186 17.9187C27.5507 17.5576 27.4124 17.3683 27.3271 17.2792L27.2201 17.2627C27.2026 17.2663 27.1339 17.2846 27.012 17.378C26.8291 17.5181 26.5736 17.795 26.2836 18.2981C25.7031 19.305 25.0432 21.1142 24.5295 24.1948L24.3335 25.3698L23.4513 24.5688C21.3873 22.6946 19.0463 20.6796 16.9333 19.036C15.8765 18.2139 14.883 17.4897 14.0138 16.9238C13.1345 16.3514 12.4188 15.9653 11.9095 15.791C11.7426 15.7338 11.6224 15.7083 11.5417 15.6988C11.5432 15.7415 11.5483 15.7987 11.5609 15.8733C11.6003 16.1079 11.7003 16.4393 11.8882 16.8864C12.6462 18.6907 14.6305 21.9172 18.4025 27.117L17.4506 27.9892C16.258 26.9561 14.1087 25.3042 11.5674 23.7353C9.02066 22.1631 6.11958 20.699 3.41637 20.0079C2.74229 19.8355 2.25273 19.7644 1.9113 19.7599C1.66359 19.7566 1.53913 19.789 1.48629 19.8089C1.48664 19.8142 1.48714 19.8203 1.48783 19.8271C1.49965 19.944 1.56405 20.145 1.72527 20.4366C2.04251 21.0105 2.61802 21.7308 3.31385 22.4813C3.99979 23.2211 4.7736 23.9594 5.46335 24.5696L14.2302 31.8712L13.5639 32.9698C10.8801 31.851 7.99127 30.7655 5.62415 30.072C4.43807 29.7245 3.40421 29.4819 2.60222 29.3787C2.20061 29.327 1.87782 29.3131 1.63392 29.3314C1.46306 29.3443 1.36151 29.3708 1.30689 29.3911C1.32298 29.4661 1.37228 29.6071 1.50783 29.829C1.85191 30.3924 2.59137 31.2235 3.87647 32.3791C6.42964 34.6752 10.9663 38.1043 18.2412 43.0381L18.3589 43.1179L31.5885 64.9916C33.3934 67.7639 36.406 72.0411 39.5773 75.8636C41.1649 77.7772 42.7839 79.5667 44.3046 80.9937C45.8386 82.4333 47.2219 83.4551 48.3378 83.8953C54.4271 86.2976 60.1971 87.5861 70.8574 87.7475L70.8377 89.0465C60.0495 88.8832 54.1203 87.5733 47.8605 85.1037C46.5065 84.5696 44.9758 83.4057 43.4148 81.9408C41.8404 80.4633 40.1833 78.6294 38.5766 76.6928C35.3629 72.8192 32.3177 68.4946 30.493 65.691L30.4871 65.682L17.3936 44.0333C10.1777 39.1358 5.61525 35.6905 3.00698 33.3449C1.70427 32.1734 0.845682 31.2384 0.398274 30.5059C0.177091 30.1437 0.0144971 29.7647 0.000912521 29.3895C-0.0145344 28.9627 0.166567 28.5922 0.510999 28.3509C0.81086 28.1408 1.18579 28.0622 1.53652 28.0359C1.90063 28.0086 2.31881 28.0323 2.76822 28.0901C3.66825 28.206 4.77663 28.4699 5.9898 28.8253C7.31099 29.2123 8.78168 29.7155 10.2834 30.2752L4.61639 25.5553L4.60921 25.5489C3.89252 24.9153 3.08369 24.1445 2.36038 23.3644C1.64459 22.5924 0.982484 21.7794 0.587481 21.0649C0.392582 20.7124 0.232202 20.3305 0.19451 19.9577C0.154067 19.5576 0.256182 19.1127 0.649796 18.8031C0.996298 18.5306 1.4603 18.4546 1.92859 18.4608C2.4144 18.4673 3.01521 18.5643 3.73853 18.7492C6.62493 19.4872 9.65463 21.0274 12.2506 22.63C13.175 23.2007 14.0495 23.7825 14.8486 24.3437C12.6308 21.1123 11.3083 18.8619 10.6896 17.3894C10.4822 16.8955 10.3415 16.461 10.2789 16.0885C10.219 15.7318 10.2141 15.338 10.3909 14.9997C10.5953 14.6088 10.9614 14.435 11.3232 14.4016C11.6519 14.3713 12.0022 14.4494 12.3308 14.5619C12.9975 14.7902 13.8229 15.2491 14.7233 15.8352C15.6337 16.4279 16.6583 17.1758 17.7317 18.0107C19.5852 19.4525 21.6026 21.1685 23.4574 22.8254Z" fill="#001A39"/>
<path fill-rule="evenodd" clip-rule="evenodd" d="M105.508 158.322L118.868 129.123L120.345 129.798L106.986 158.997L105.508 158.322Z" fill="#001A39"/>
<path fill-rule="evenodd" clip-rule="evenodd" d="M65.5557 26.3342C65.1589 25.0635 64.8794 23.9969 64.7061 23.1151C64.4601 21.8631 64.4057 20.8824 64.6163 20.2091C64.728 19.8523 64.933 19.5229 65.2792 19.3236C65.6223 19.1261 66 19.1165 66.336 19.1837C66.9744 19.3115 67.691 19.7615 68.4083 20.3308C69.8777 21.4972 71.7068 23.4618 73.544 25.6489C75.3893 27.8456 77.2708 30.301 78.8482 32.4755L78.8852 32.5264L78.9117 32.5835C82.9741 41.3382 89.7063 61.9327 92.8152 71.9247L122.633 51.0007L123.38 52.064L92.1012 74.0132L91.8376 73.1605C88.8615 63.5345 81.8997 42.138 77.7588 33.1871C76.2025 31.0437 74.355 28.6349 72.5485 26.4843C70.7195 24.307 68.9604 22.4282 67.5998 21.3481C66.902 20.7942 66.3932 20.5201 66.0808 20.4576C65.9847 20.4384 65.941 20.446 65.9283 20.4497C65.9176 20.4603 65.8881 20.4975 65.857 20.5969C65.7511 20.9352 65.7399 21.6343 65.9817 22.8647C66.2174 24.0642 66.6731 25.675 67.3995 27.7724L68.0602 29.6799L66.4104 28.5155C63.791 26.6668 60.839 24.6848 58.2046 23.0784C55.5407 21.4539 53.2844 20.2661 52.0221 19.9377C51.825 19.8864 51.6791 19.8638 51.5768 19.857C51.5867 19.8958 51.6007 19.9431 51.6208 19.9998C51.7095 20.2502 51.8839 20.5982 52.1752 21.0603C53.3478 22.9199 56.1334 26.1967 61.2388 31.4292L60.4335 32.4364C58.0822 30.9944 52.0456 27.9646 46.7226 27.3312C46.0635 27.2528 45.6057 27.2479 45.3048 27.2854C45.2109 27.2971 45.1426 27.3116 45.0942 27.325C45.1547 27.4496 45.2764 27.628 45.4811 27.8577C46.4149 28.9051 48.4235 30.3164 50.0451 31.3173L58.4731 35.6911L58.0082 36.8958C55.2932 36.1817 52.3897 35.5335 50.0411 35.201C48.8639 35.0344 47.8496 34.9505 47.0775 34.9711C46.6909 34.9813 46.3871 35.0174 46.1638 35.0726C45.9959 35.1141 45.9071 35.1584 45.8654 35.185C45.885 35.2574 45.9503 35.4055 46.1367 35.6402C46.5475 36.1575 47.3728 36.8832 48.7641 37.8525C51.5292 39.7788 56.3472 42.5437 63.9915 46.4061L64.2896 46.5567L64.3406 46.8867C65.6902 55.6276 70.2352 76.9429 77.5982 92.3171C78.3272 93.586 79.708 95.4192 81.4674 96.7876C83.2398 98.1661 85.2983 99.0022 87.4304 98.4839C92.1683 97.332 98.1853 94.7952 100.619 93.6612C109.555 88.9512 130.817 76.8651 144.542 66.1243L145.343 67.1472C131.517 77.967 110.157 90.1035 101.211 94.8177L101.197 94.8251L101.183 94.8318C98.7326 95.9746 92.6098 98.5618 87.7376 99.7462C85.0601 100.397 82.596 99.3116 80.6691 97.8129C78.7385 96.3114 77.2486 94.3243 76.458 92.9415L76.4463 92.921L76.4361 92.8998C69.0778 77.5464 64.5266 56.4059 63.1074 47.415C55.6232 43.6251 50.8274 40.8735 48.0207 38.9183C46.6077 37.9338 45.6522 37.1199 45.1185 36.4478C44.8536 36.1143 44.6479 35.7612 44.5815 35.3953C44.5074 34.9875 44.615 34.5974 44.9061 34.2994C45.1633 34.0362 45.5153 33.8946 45.8515 33.8115C46.1991 33.7255 46.6048 33.684 47.043 33.6723C47.9204 33.649 49.0166 33.7439 50.2234 33.9147C51.1658 34.0481 52.19 34.23 53.2512 34.445L49.4035 32.4482L49.3831 32.4356C47.7585 31.4344 45.5877 29.9301 44.5106 28.722C44.2402 28.4187 43.9981 28.0903 43.8652 27.7578C43.7305 27.4209 43.6649 26.9493 43.9848 26.5416C44.2657 26.1836 44.72 26.0491 45.1439 25.9963C45.5945 25.9401 46.1705 25.9572 46.8763 26.0412C50.565 26.4801 54.5273 27.9943 57.4915 29.3998C54.1151 25.8095 52.0778 23.3426 51.0754 21.7529C50.7598 21.2523 50.5295 20.8122 50.3953 20.4331C50.2693 20.0771 50.186 19.6603 50.3264 19.2783C50.4947 18.8198 50.8936 18.6233 51.2596 18.5723C51.5976 18.5251 51.9781 18.5837 52.3496 18.6804C53.8279 19.0651 56.2445 20.3612 58.8817 21.9694C61.019 23.2727 63.3558 24.8157 65.5557 26.3342ZM65.9325 20.4462C65.9325 20.4463 65.9316 20.4471 65.9297 20.4483C65.9315 20.4467 65.9324 20.4461 65.9325 20.4462Z" fill="#001A39"/>
</svg>
