<svg width="29" height="40" viewBox="0 0 29 40" fill="none" xmlns="http://www.w3.org/2000/svg">
<path d="M0 40V0L29 29L12.2083 29.25L0 40Z" fill="#FDE50B"/>
<path fill-rule="evenodd" clip-rule="evenodd" d="M29 29L12.2083 29.25L0 40V0L29 29ZM11.0567 26.2668L3 33.3611V7.24264L8.43456 12.6772C7.54846 13.5592 7 14.7802 7 16.1293C7 18.8193 9.1807 21 11.8707 21C13.2198 21 14.4408 20.4515 15.3228 19.5654L21.8633 26.1059L11.0567 26.2668ZM13.9451 18.1878L9.81222 14.0549C9.27868 14.5843 8.94829 15.3182 8.94829 16.1293C8.94829 17.7433 10.2567 19.0517 11.8707 19.0517C12.6818 19.0517 13.4157 18.7213 13.9451 18.1878Z" fill="#222222"/>
<path d="M8 24.5C8 25.3284 7.32843 26 6.5 26C5.67157 26 5 25.3284 5 24.5C5 23.6716 5.67157 23 6.5 23C7.32843 23 8 23.6716 8 24.5Z" fill="#222222"/>
</svg>
