<svg width="389" height="255" viewBox="0 0 389 255" fill="none" xmlns="http://www.w3.org/2000/svg">
<path d="M24.5885 183.308L0 184.538L7.99068 231.861L13.7979 193.319L30.3439 192.418" fill="#222222"/>
<path d="M80.7058 201.349L61.8027 217.488L96.0345 250.337L77.9862 215.991L90.6599 205.068" fill="#222222"/>
<path d="M87.7498 114.425C75.9179 108.714 61.4362 110.309 53.9455 119.929C47.0116 128.837 43.9085 137.457 59.39 176.133L26.0803 177.983C26.0803 177.983 19.4521 181.065 18.0534 194.065C16.6547 207.065 25.0676 212.158 25.0676 212.158L76.0267 209.422C88.6279 208.746 97.4345 196.386 94.2149 183.899L85.2788 149.234L106.964 162.983L79.3551 198.093C79.3551 198.093 77.6456 205.944 85.9315 212.36C93.0882 217.903 101.97 216.232 101.97 216.232L135.798 177.371C144.506 167.368 143.454 152.006 133.498 143.311C116.211 128.22 101.372 120.999 87.7498 114.425Z" fill="#F0438C"/>
<path d="M63.553 113.014C70.4273 116.782 77.2913 120.774 84.7561 123.276C91.6667 125.594 100.002 127.024 107.089 124.573C107.34 124.488 107.236 124.138 106.98 124.182C103.126 124.812 99.4321 125.335 95.5105 124.993C91.747 124.667 88.0457 123.776 84.4738 122.561C77.1695 120.072 70.6786 115.969 63.7188 112.731C63.5297 112.643 63.3665 112.91 63.553 113.014Z" fill="white"/>
<path d="M49.3379 145.52C61.0948 148.755 70.7095 156.741 82.1632 160.768C88.0507 162.84 94.3578 164.029 100.608 163.345C106.418 162.711 111.823 160.45 116.89 157.629C119.933 155.935 122.889 154.08 125.857 152.259C129.255 150.177 132.708 148.149 136.021 145.934C136.236 145.789 136.047 145.455 135.816 145.582C130.089 148.758 124.608 152.381 118.972 155.715C113.864 158.738 108.482 161.421 102.587 162.465C89.9027 164.71 77.7263 158.945 66.9667 152.902C61.3564 149.75 55.7253 146.724 49.4234 145.204C49.2188 145.155 49.1333 145.465 49.3379 145.52Z" fill="white"/>
<path d="M20.0148 186.049C26.555 183.381 33.6288 182.003 40.6922 182.065C48.1519 182.13 55.2282 184.046 61.9731 187.157C68.2413 190.048 74.1184 193.721 80.4307 196.523C86.7455 199.328 93.5473 201.375 100.51 201.357C108.257 201.336 115.618 198.396 122.091 194.304C122.311 194.164 122.117 193.83 121.886 193.951C115.419 197.407 108.928 200.491 101.45 200.719C94.055 200.947 86.7921 198.751 80.1147 195.728C73.7558 192.85 67.8165 189.136 61.4421 186.29C55.2775 183.536 48.8124 181.77 42.0443 181.544C34.4784 181.293 26.8192 182.692 19.8853 185.748C19.7195 185.823 19.8413 186.119 20.0148 186.049Z" fill="white"/>
<path d="M51.6075 153.249C54.1718 148.442 56.1869 143.197 57.0443 137.801C58.0078 131.73 57.4613 124.83 54.2391 119.453C54.1251 119.264 53.7807 119.388 53.8661 119.611C55.1068 122.773 56.2672 125.832 56.6661 129.236C57.0184 132.238 56.8889 135.281 56.3786 138.257C55.485 143.471 53.3844 148.255 51.32 153.086C51.2449 153.273 51.5065 153.441 51.6075 153.249Z" fill="white"/>
<path d="M42.4372 211.194C40.6396 205.742 39.2876 200.225 38.8239 194.485C38.5986 191.695 38.5571 188.89 38.7203 186.095C38.8913 183.184 39.4663 180.366 39.8548 177.486C39.8885 177.232 39.5492 177.123 39.4637 177.377C38.5701 179.99 38.3059 182.917 38.1298 185.66C37.9355 188.672 37.9899 191.7 38.2567 194.708C38.754 200.349 39.8937 206.102 42.1394 211.321C42.2093 211.489 42.4942 211.37 42.4372 211.194Z" fill="white"/>
<path d="M78.4425 209.404C76.3471 202.957 75.1737 196.241 75.6166 189.449C76.0544 182.733 78.0436 176.291 80.7918 170.181C83.3379 164.514 86.4617 159.126 88.9975 153.454C91.4711 147.919 93.4086 142.093 94.1079 136.05C94.916 129.072 93.7686 121.994 90.694 115.666C90.5956 115.461 90.2382 115.606 90.321 115.824C92.7351 122.014 94.1804 128.192 93.6028 134.882C93.0304 141.516 90.865 147.939 88.1116 153.967C85.5888 159.484 82.5687 164.757 80.1132 170.305C77.6162 175.949 75.7617 181.863 75.1815 188.03C74.4951 195.332 75.6529 202.623 78.1265 209.5C78.1964 209.686 78.5073 209.606 78.4425 209.404Z" fill="white"/>
<path d="M113.909 202.659C112.047 193.855 111.832 184.707 114.277 175.991C116.546 167.902 120.773 160.636 124.435 153.138C126.5 148.911 128.512 144.443 129.504 139.822C129.559 139.565 129.196 139.467 129.113 139.713C127.629 144.049 126.093 148.289 124.096 152.423C122.265 156.217 120.265 159.927 118.444 163.726C114.751 171.435 112.137 179.464 111.93 188.074C111.811 193.011 112.355 197.963 113.596 202.745C113.647 202.952 113.953 202.864 113.909 202.659Z" fill="white"/>
<path fill-rule="evenodd" clip-rule="evenodd" d="M93.2412 176.546C94.4149 181.452 95.2839 185.334 95.4862 186.873C96.1276 191.767 95.1357 197.743 91.0451 202.543C86.9447 207.354 79.8173 210.885 68.3897 211.049L68.3711 209.754C79.5375 209.594 86.2649 206.155 90.0594 201.703C93.8636 197.239 94.8066 191.654 94.2022 187.042C94.0108 185.586 93.1624 181.783 91.9817 176.847C90.8054 171.93 89.3104 165.933 87.8394 160.122C86.3686 154.311 84.9222 148.687 83.8436 144.515C83.3043 142.429 82.8569 140.707 82.5444 139.506C82.3881 138.905 82.2656 138.435 82.1821 138.115L82.0544 137.626C82.0543 137.626 82.0542 137.626 82.6807 137.462C83.3072 137.298 83.3072 137.298 83.3073 137.299L83.4352 137.788C83.5188 138.109 83.6414 138.579 83.7977 139.18C84.1104 140.381 84.558 142.105 85.0975 144.191C86.1764 148.364 87.6233 153.99 89.0949 159.804C90.5664 165.618 92.063 171.621 93.2412 176.546Z" fill="white"/>
<path fill-rule="evenodd" clip-rule="evenodd" d="M15.1521 202.853L8.83984 195.65L9.61906 194.967L15.9313 202.17L15.1521 202.853Z" fill="white"/>
<path fill-rule="evenodd" clip-rule="evenodd" d="M14.7816 207.829L8.4668 200.626L9.24588 199.943L15.5607 207.146L14.7816 207.829Z" fill="white"/>
<path fill-rule="evenodd" clip-rule="evenodd" d="M14.6755 213.185L8.36328 205.982L9.1425 205.299L15.4548 212.502L14.6755 213.185Z" fill="white"/>
<path fill-rule="evenodd" clip-rule="evenodd" d="M84.5041 222.369L75.2598 220.336L75.4823 219.324L84.7267 221.357L84.5041 222.369Z" fill="white"/>
<path fill-rule="evenodd" clip-rule="evenodd" d="M87.0588 226.619L77.8145 224.583L78.0373 223.572L87.2816 225.607L87.0588 226.619Z" fill="white"/>
<path fill-rule="evenodd" clip-rule="evenodd" d="M90.0471 231.018L80.8027 228.984L81.0253 227.972L90.2696 230.006L90.0471 231.018Z" fill="white"/>
<path fill-rule="evenodd" clip-rule="evenodd" d="M124.115 20.3054C125.728 17.7719 127.44 16.1412 128.551 15.541L129.533 17.3129C128.853 17.6807 127.368 18.9919 125.848 21.3804C124.349 23.7336 122.865 27.0604 122.121 31.3692C121.367 35.7333 121.341 39.1121 121.602 41.5443C121.867 44.0104 122.417 45.4295 122.743 45.9347L122.75 45.9459L122.757 45.9573C123.139 46.5855 123.738 47.1775 124.368 47.3779C124.658 47.4702 124.964 47.4844 125.303 47.3751C125.653 47.2624 126.101 46.9975 126.621 46.4306C126.824 46.2083 127.074 45.7978 127.343 45.1595C127.606 44.5365 127.862 43.7608 128.109 42.8633C128.601 41.0687 129.034 38.8598 129.405 36.5612C130.146 31.968 130.624 27.1054 130.836 24.6734L132.875 24.8469C132.661 27.297 132.178 32.2152 131.426 36.8789C131.05 39.2088 130.604 41.4974 130.084 43.3915C129.824 44.3383 129.541 45.2047 129.232 45.9369C128.929 46.6539 128.573 47.3117 128.138 47.786C127.443 48.5447 126.707 49.048 125.938 49.2957C125.158 49.5467 124.409 49.5136 123.74 49.3007C122.457 48.8927 121.524 47.8506 121.009 47.0076C120.442 46.12 119.845 44.349 119.567 41.757C119.284 39.1199 119.322 35.5543 120.104 31.0297C120.894 26.4497 122.48 22.8743 124.115 20.3054Z" fill="#222222"/>
<path d="M133.653 15.4116C123.422 37.0395 126.66 22.7936 130.415 11.1378L141.163 21.1099C128.343 41.5723 132.487 27.9739 137.02 18.2608C123.164 44.033 128.568 26.1608 133.653 15.4116Z" fill="white"/>
<path fill-rule="evenodd" clip-rule="evenodd" d="M129.953 9.68081C128.22 9.15741 126.667 9.19377 125.471 9.95361C125.212 10.1181 124.898 10.4411 124.538 10.9541C124.182 11.4597 123.806 12.1166 123.412 12.9101C122.624 14.497 121.788 16.5896 120.932 19.021C119.221 23.8815 117.45 30.0454 115.848 36.1115C114.246 42.1753 112.815 48.1314 111.785 52.5723C111.27 54.7925 110.855 56.6335 110.568 57.9193C110.425 58.5621 110.314 59.0662 110.239 59.4094C110.217 59.5097 110.199 59.5963 110.183 59.6686C110.172 59.7199 110.162 59.7641 110.154 59.8008L110.125 59.9339C110.125 59.9343 110.125 59.9344 109.619 59.8253L110.125 59.9344L110.031 60.372L77.9688 58.2364L78.0376 57.2026L109.207 59.2788C109.214 59.2499 109.22 59.2196 109.227 59.188C109.303 58.8436 109.414 58.3384 109.557 57.6942C109.844 56.4058 110.26 54.5618 110.775 52.3381C111.807 47.8912 113.241 41.9242 114.846 35.8469C116.451 29.7719 118.23 23.5766 119.955 18.6771C120.816 16.2285 121.669 14.0909 122.484 12.4495C122.891 11.6289 123.294 10.9221 123.69 10.3586C124.08 9.8024 124.488 9.35077 124.916 9.07912C126.465 8.09448 128.367 8.1195 130.253 8.689C132.142 9.2598 134.09 10.397 135.821 11.7589C137.555 13.1224 139.099 14.7326 140.174 16.2772C140.712 17.0495 141.141 17.8166 141.414 18.538C141.686 19.2535 141.82 19.9621 141.72 20.5993C141.544 21.7287 140.943 23.0188 140.184 24.2874C139.419 25.5667 138.466 26.8704 137.54 28.0356C136.613 29.2021 135.707 30.2376 135.033 30.9812C134.696 31.3532 134.417 31.6526 134.221 31.8594C134.145 31.9405 134.081 32.0073 134.032 32.0588C134.021 32.132 134.008 32.2287 133.991 32.3475C133.949 32.645 133.887 33.0816 133.806 33.6385C133.644 34.7524 133.409 36.3476 133.111 38.274C132.516 42.1263 131.675 47.3049 130.69 52.6069C129.705 57.9067 128.574 63.3397 127.399 67.6973C126.812 69.875 126.211 71.7961 125.607 73.302C125.305 74.0549 124.999 74.7133 124.689 75.252C124.383 75.7848 124.056 76.2303 123.703 76.5305C123.018 77.1117 121.799 77.523 120.311 77.8356C118.794 78.1542 116.897 78.3887 114.77 78.5583C110.514 78.8978 105.283 78.9815 100.208 78.9431C95.1302 78.9046 90.1981 78.7439 86.5361 78.5929C84.7048 78.5173 83.1907 78.4442 82.1341 78.3899C81.6058 78.3628 81.1919 78.3404 80.9099 78.3247C80.7689 78.3169 80.6609 78.3108 80.5881 78.3066L80.5055 78.3018L80.4778 78.3002C80.4775 78.3002 80.4773 78.3002 80.5079 77.7831C80.5384 77.2659 80.5385 77.2659 80.5388 77.2659L80.5401 77.266L80.6474 77.2722C80.7196 77.2764 80.827 77.2825 80.9673 77.2902C81.248 77.3058 81.6605 77.3282 82.1873 77.3552C83.2409 77.4093 84.7515 77.4823 86.5788 77.5577C90.2337 77.7085 95.1535 77.8687 100.216 77.907C105.28 77.9453 110.476 77.8614 114.688 77.5256C116.794 77.3575 118.642 77.1274 120.098 76.8216C121.583 76.5097 122.566 76.1366 123.032 75.7407C123.254 75.5523 123.51 75.2241 123.791 74.7356C124.069 74.253 124.354 73.6425 124.645 72.9165C125.227 71.4646 125.816 69.5876 126.399 67.4276C127.563 63.1096 128.688 57.708 129.671 52.4176C130.654 47.1294 131.493 41.962 132.087 38.1159C132.384 36.1931 132.619 34.601 132.781 33.4898C132.861 32.9343 132.923 32.4989 132.965 32.2026C132.986 32.0545 133.002 31.9411 133.013 31.8648L133.028 31.7513L133.028 31.75C133.028 31.7497 133.029 31.7496 133.542 31.8203L133.029 31.7496L133.052 31.5803L133.171 31.4582L133.176 31.4537L133.19 31.4389C133.203 31.4257 133.222 31.4057 133.247 31.3794C133.298 31.3269 133.373 31.2488 133.468 31.1477C133.659 30.9455 133.934 30.6514 134.265 30.2855C134.929 29.5532 135.819 28.5352 136.729 27.391C137.639 26.2454 138.562 24.9811 139.295 23.7557C140.034 22.5195 140.552 21.3681 140.697 20.4395C140.758 20.0478 140.683 19.5318 140.446 18.9057C140.21 18.2855 139.829 17.594 139.324 16.8692C138.315 15.4197 136.845 13.8823 135.181 12.5733C133.515 11.2628 131.681 10.2029 129.953 9.68081Z" fill="#222222"/>
<path d="M84.5573 62.1925C86.8521 76.6017 77.0327 90.1456 62.6209 92.4405C48.2118 94.7354 34.6679 84.9161 32.373 70.5044" fill="#0074E0"/>
<path d="M68.573 46.3643C68.731 53.6402 62.9628 59.665 55.6844 59.823C49.253 59.9628 43.798 55.4689 42.5106 49.3975C42.3423 48.5997 42.244 47.7786 42.2258 46.9342C42.0678 39.661 47.8361 33.6337 55.1145 33.4757C58.9013 33.3928 62.3463 34.9158 64.8044 37.4179C67.0734 39.731 68.4979 42.8754 68.573 46.3643Z" fill="#FDE50B"/>
<path d="M64.8063 37.4179C61.4235 44.471 54.2851 49.4104 45.9291 49.5918C44.7688 49.6177 43.6264 49.5477 42.5126 49.3975C42.3442 48.5997 42.2459 47.7786 42.2278 46.9342C42.0698 39.661 47.838 33.6337 55.1164 33.4757C58.9033 33.3928 62.3456 34.9158 64.8063 37.4179Z" fill="#222222"/>
<path d="M43.2092 38.2467C45.9815 38.2467 48.2289 35.9992 48.2289 33.2269C48.2289 30.4545 45.9815 28.2071 43.2092 28.2071C40.4368 28.2071 38.1895 30.4545 38.1895 33.2269C38.1895 35.9992 40.4368 38.2467 43.2092 38.2467Z" fill="#222222"/>
<path d="M45.1656 28.5852C53.0591 28.5852 59.4581 22.1862 59.4581 14.2926C59.4581 6.39906 53.0591 0 45.1656 0C37.272 0 30.873 6.39906 30.873 14.2926C30.873 22.1862 37.272 28.5852 45.1656 28.5852Z" fill="#222222"/>
<path d="M66.1676 49.1682C66.9556 49.1511 67.5727 48.1205 67.5456 46.8662C67.5185 45.6119 66.8575 44.6089 66.0694 44.6259C65.2814 44.6429 64.6645 45.6735 64.6916 46.9279C64.7187 48.1822 65.3795 49.1852 66.1676 49.1682Z" fill="#222222"/>
<path d="M61.4293 49.4247C62.2173 49.4077 62.8344 48.3771 62.8073 47.1227C62.7802 45.8684 62.1192 44.8654 61.3311 44.8824C60.5431 44.8995 59.9263 45.9301 59.9534 47.1844C59.9805 48.4387 60.6412 49.4417 61.4293 49.4247Z" fill="#222222"/>
<path d="M309.616 22.115C309.774 29.3908 315.799 35.1617 323.075 35.0037C329.506 34.8638 334.762 30.1394 335.785 24.0188C335.917 23.2158 335.979 22.3896 335.961 21.5452C335.803 14.272 329.778 8.49846 322.503 8.65646C318.716 8.73934 315.341 10.4074 312.994 13.0157C310.829 15.422 309.541 18.6286 309.616 22.115Z" fill="#F0438C"/>
<path d="M310.433 7.7784C310.498 10.8011 313 13.1971 316.023 13.1323C318.696 13.0753 320.877 11.112 321.301 8.56841C321.356 8.23428 321.382 7.89239 321.374 7.54012C321.309 4.51739 318.807 2.12149 315.784 2.18625C314.212 2.21992 312.808 2.91409 311.834 3.99678C310.938 4.99918 310.402 6.33049 310.433 7.7784Z" fill="#222222"/>
<path d="M319.472 6.04568C319.51 7.88729 321.036 9.34818 322.878 9.30673C324.504 9.27047 325.836 8.0764 326.095 6.52748C326.128 6.32545 326.144 6.1156 326.139 5.90061C326.1 4.059 324.574 2.59818 322.733 2.63962C321.774 2.66035 320.919 3.08255 320.326 3.74304C319.777 4.35173 319.451 5.16243 319.472 6.04568Z" fill="#222222"/>
<path d="M314.052 26.7258C314.84 26.7087 315.457 25.6781 315.43 24.4238C315.403 23.1695 314.742 22.1665 313.954 22.1835C313.166 22.2005 312.549 23.2311 312.576 24.4855C312.604 25.7398 313.264 26.7428 314.052 26.7258Z" fill="#222222"/>
<path d="M318.799 26.7778C319.587 26.7608 320.204 25.7302 320.176 24.4759C320.149 23.2216 319.489 22.2186 318.701 22.2356C317.912 22.2526 317.295 23.2832 317.323 24.5376C317.35 25.7919 318.011 26.7948 318.799 26.7778Z" fill="#222222"/>
<path d="M284.387 122.422C277.938 120.43 272.333 116.708 267.981 111.549C263.676 106.446 260.827 100.398 258.369 94.2462C255.73 87.6387 253.699 80.8084 251.552 74.0325C250.472 70.6212 249.366 67.2176 248.153 63.853C246.781 60.0454 245.568 56.1602 245.501 52.0755C245.434 48.0555 246.615 44.0719 249.692 41.3366C252.515 38.8267 256.393 37.8451 260.081 37.6068C264.163 37.34 268.248 37.9124 272.245 38.7128C276.759 39.6168 281.199 40.9092 285.524 42.4841C294.196 45.6389 302.407 49.9438 310.333 54.6424C318.186 59.2995 325.879 64.2753 333.386 69.4737C340.804 74.6101 347.999 80.0909 354.617 86.2348C361.16 92.3113 367.382 99.0769 372.041 106.728C376.639 114.281 379.553 123.94 375.686 132.438C372.135 140.248 363.528 144.068 355.356 144.55C345.44 145.135 335.352 142.022 326.017 139.002C316.653 135.971 307.531 132.244 298.543 128.247C280.603 120.267 262.744 111.836 245.584 102.281C237.415 97.7325 229.325 92.9278 221.718 87.4755C214.818 82.5308 208.239 76.8712 203.175 70.0099C200.678 66.6245 197.992 62.7185 197.005 58.5769C196 54.36 198.168 51.1068 202.056 49.6148C205.744 48.198 209.834 48.1151 213.725 47.8587C218.765 47.5245 223.813 47.3096 228.862 47.2293C248.643 46.9185 268.559 48.7212 287.674 53.9845C304.355 58.5769 320.354 65.8267 334.367 76.0268C348.139 86.0508 361.241 99.4162 366.794 115.864C371.876 130.923 369.314 149.694 355.69 159.488C342.234 169.162 323.929 167.919 308.74 163.805C290.741 158.931 274.296 149.508 258.682 139.538C243.465 129.825 228.662 118.55 218.662 103.263C213.968 96.0877 210.389 88.1618 208.633 79.7463C207.312 73.4107 205.861 62.3662 213.543 59.3228C215.564 58.5224 217.781 58.4266 219.926 58.4085C222.386 58.3851 224.847 58.4784 227.3 58.6649C232.273 59.0405 237.207 59.8253 242.079 60.8847C251.42 62.9128 260.584 65.863 269.468 69.3779C278.293 72.8694 286.856 77.024 295.072 81.7744C302.576 86.113 309.903 90.8841 316.516 96.5048C328.475 106.674 338.359 120.378 338.268 136.665C338.229 143.698 336.408 150.81 332.399 156.646C327.812 163.321 320.567 167.147 312.719 168.597C304.194 170.172 295.232 169.286 286.778 167.698C278.37 166.118 270.128 163.562 262.311 160.083C254.528 156.62 247.138 152.274 240.339 147.138C233.47 141.949 226.992 135.922 221.902 128.949C216.981 122.205 213.183 114.294 212.854 105.827C212.696 101.745 213.277 97.5098 215.191 93.855C217.177 90.0604 220.514 87.5402 224.598 86.3539C228.603 85.1909 232.838 85.1728 236.972 85.3774C241.665 85.6105 246.343 86.1778 250.953 87.0869C260.146 88.8949 269.097 91.8762 277.658 95.6604C294.219 102.983 309.893 113.022 322.805 125.774C329.001 131.894 335.22 138.8 338.292 147.088C340.915 154.167 340.835 162.461 336.372 168.817C331.187 176.207 321.23 176.559 313.032 176.671C303.459 176.8 293.911 175.552 284.633 173.231C266.331 168.652 249.368 159.967 233.874 149.329C226.204 144.063 218.877 138.321 211.787 132.301C205.612 127.059 198.391 121.171 196.2 112.999C193.972 104.703 198.73 96.8156 205.157 91.8605C212.147 86.4704 220.871 83.9062 229.52 82.8287C238.572 81.6994 247.832 81.79 256.908 82.5489C266.386 83.3389 275.778 85.0406 284.939 87.5868C294.051 90.1199 302.956 93.4743 311.426 97.6911C318.544 101.234 325.385 105.482 331.365 110.746C337.235 115.91 342.296 122.109 345.427 129.32C348.595 136.616 350.566 146.819 342.811 151.968C335.673 156.706 326.892 154.595 319.875 150.792C312.372 146.728 305.381 141.395 298.703 136.109C285.729 125.833 273.848 114.144 263.552 101.177C253.295 88.2603 244.664 73.9936 238.127 58.8462C236.467 54.9972 234.884 51.0757 233.604 47.0816C232.296 42.9995 231.312 38.1067 233.848 34.2732C238.127 27.8055 248.013 28.0776 254.787 28.4842C272.545 29.5514 290.601 35.804 305.163 46.0533C317.974 55.0697 328.348 68.2564 330.461 84.129C332.409 98.7505 327.288 114.962 314.2 122.943C300.374 131.374 282.611 130.985 267.344 127.235C259.991 125.427 252.779 122.577 246.656 118.052C240.142 113.237 235.495 106.459 233.754 98.5122C231.773 89.4724 233.457 80.0727 236.876 71.6003C240.173 63.4283 244.936 55.5464 250.459 48.685C255.424 42.5126 261.42 36.8038 268.611 33.32C275.736 29.8648 283.838 28.9297 291.469 31.1857C298.773 33.3434 305.357 38.13 309.471 44.564C314.423 52.3112 315.091 61.7653 314.876 70.7222C314.389 90.9566 311.1 111.1 306.538 130.783C302.754 147.117 298.107 163.899 288.19 177.694C283.494 184.224 277.357 190.787 269.564 193.465C265.834 194.747 261.63 195.066 258.056 193.139C254.626 191.292 252.508 187.876 251.251 184.288C249.814 180.183 249.254 175.782 248.938 171.462C248.575 166.528 248.664 161.57 249.075 156.641C249.891 146.837 251.948 137.132 254.53 127.652C259.465 109.533 266.852 92.086 276.469 75.9544C284.418 62.6201 295.093 48.5373 310.47 43.5383C318.111 41.0543 327.61 40.5907 333.458 47.0324C338.501 52.5883 339.641 60.8096 340.035 68.0025C340.959 84.9422 337.688 102.084 330.772 117.566C323.937 132.866 313.462 147.479 299.654 157.208C292.86 161.995 285.009 165.678 276.656 166.489C268.574 167.271 260.599 165.233 253.707 160.992C238.756 151.792 231.708 134.661 231.457 117.602C231.183 99.0898 238.469 81.132 247.552 65.3164C251.606 58.2582 256.374 51.3735 262.537 45.986C269.087 40.2617 277.137 36.6692 285.822 35.8662C294.766 35.0374 303.751 36.8272 312.177 39.7515C320.406 42.6084 328.355 46.5532 335.696 51.2415C342.723 55.7302 349.318 61.2188 354.053 68.1475C359.308 75.8352 361.66 84.9267 362.512 94.1089C364.201 112.331 360.79 131.06 352.493 147.391C344.702 162.728 332.526 176.168 315.829 181.649C298.96 187.189 280.525 185.078 263.518 181.31C246.718 177.588 228.561 171.374 219.581 155.499C215.369 148.055 214.067 139.447 216.815 131.262C219.7 122.666 225.917 115.335 232.138 108.922C238.596 102.265 245.802 96.3856 253.259 90.8892C260.467 85.5768 267.958 80.64 275.721 76.1746C291.3 67.21 308.036 60.105 325.574 56.0281C334.315 53.9948 343.223 52.7697 352.196 52.4718C356.622 52.3241 361.056 52.4018 365.475 52.7127C368.296 52.9121 373.751 53.4923 373.753 57.3595C373.753 59.372 371.99 60.9857 370.547 62.1513C368.638 63.6925 366.555 65.0471 364.556 66.4691C360.417 69.409 356.259 72.3254 352.092 75.2239C343.684 81.0699 335.227 86.8486 326.745 92.5832C309.906 103.97 292.958 115.201 275.967 126.357C267.815 131.71 259.568 136.958 250.884 141.411C246.563 143.628 242.113 145.817 237.342 146.871C233.208 147.783 227.191 148.122 224.256 144.41C221.705 141.183 221.925 136.308 222.451 132.472C223.08 127.903 224.616 123.489 226.567 119.327C230.423 111.106 235.604 103.395 241.017 96.1292C251.767 81.7019 264.8 68.5801 279.616 58.3256C294.202 48.2317 311.211 41.1294 329.202 41.6008C337.905 41.8288 346.642 43.8879 354.317 48.0503C361.476 51.933 368.081 57.8075 371.166 65.5107C374.621 74.1386 372.958 83.7222 369.544 92.0859C366.338 99.9393 361.567 107.225 355.964 113.574C344.319 126.766 328.848 135.992 312.092 141.123C303.241 143.835 294.064 145.467 284.83 146.091C276.57 146.648 268.095 146.335 260.13 143.902C252.352 141.527 245.454 136.917 240.865 130.136C236.497 123.678 234.218 115.913 233.48 108.199C232.786 100.949 233.19 93.5131 234.785 86.4031C236.454 78.9693 239.619 71.7427 245.296 66.5002C246.159 65.7024 244.869 64.4177 244.009 65.2128C237.736 71.0071 234.288 79.0367 232.594 87.2812C230.931 95.3651 230.628 103.801 231.859 111.966C233.06 119.935 235.917 127.742 241.004 134.065C246.278 140.621 253.782 144.775 261.871 146.803C270.535 148.979 279.616 148.969 288.456 148.117C298.12 147.184 307.696 145.203 316.863 141.993C333.932 136.015 349.548 125.706 360.753 111.398C371.295 97.9345 380.869 77.7727 371.464 61.2759C362.629 45.7788 343.109 39.3474 326.188 39.64C307.476 39.9638 289.995 48.1177 275.164 59.0741C259.99 70.2844 246.757 84.217 235.969 99.6726C230.571 107.407 225.251 115.646 222.257 124.652C220.822 128.967 219.876 133.679 220.213 138.248C220.493 142.048 221.876 146.034 225.443 147.92C229.509 150.07 234.718 149.624 239.015 148.5C243.828 147.241 248.355 144.964 252.751 142.682C261.993 137.883 270.74 132.208 279.427 126.486C297.356 114.68 315.278 102.864 333.041 90.8064C341.936 84.7687 350.773 78.6481 359.546 72.4342C363.673 69.5125 367.998 66.7203 371.914 63.5189C374.634 61.2965 377.134 57.5693 374.606 54.2331C372.453 51.3943 368.296 51.0368 365.032 50.8322C360.393 50.5421 355.736 50.5136 351.092 50.726C341.837 51.1534 332.611 52.5392 323.603 54.6942C305.285 59.0768 287.814 66.7203 271.639 76.3014C263.454 81.1502 255.572 86.5067 248.026 92.3009C240.357 98.191 233.014 104.565 226.642 111.864C220.687 118.687 214.991 126.592 213.582 135.756C212.282 144.208 214.919 152.727 219.739 159.669C230.494 175.15 249.671 180.753 267.246 184.268C285.063 187.829 304.409 189.163 321.487 181.81C338.167 174.624 349.939 159.275 356.928 142.936C364.38 125.517 367.027 105.573 363.597 86.8771C361.916 77.7208 358.189 69.2872 352.03 62.2678C346.3 55.738 339.066 50.6716 331.513 46.4704C315.863 37.7622 296.577 30.5744 278.559 35.4284C261.337 40.0674 250.41 55.5075 242.486 70.4658C233.529 87.3719 227.181 106.508 229.804 125.844C231.011 134.733 234.099 143.501 239.445 150.764C244.333 157.405 250.907 162.8 258.542 165.968C266.378 169.219 274.99 169.69 283.188 167.564C291.684 165.359 299.366 160.687 306.026 155.061C319.495 143.682 329.493 128.053 335.559 111.593C338.623 103.281 340.667 94.6166 341.677 85.8178C342.645 77.3608 342.84 68.5231 341.366 60.1102C340.081 52.7697 336.836 44.8929 329.684 41.5387C321.963 37.9176 312.447 39.9042 305.041 43.3958C289.516 50.7156 279.3 66.1972 271.271 80.7306C261.762 97.9398 254.647 116.478 250.272 135.648C247.946 145.837 246.317 156.286 246.498 166.766C246.581 171.581 246.983 176.476 248.042 181.183C248.894 184.975 250.311 188.746 252.842 191.748C258.561 198.534 267.808 197.478 274.85 193.533C282.258 189.386 288.058 182.346 292.533 175.259C302.252 159.871 306.585 141.571 310.31 123.968C312.506 113.595 314.278 103.125 315.469 92.5884C316.073 87.2449 316.521 81.8884 316.788 76.5189C317.034 71.5639 317.187 66.5779 316.762 61.6281C316.006 52.8293 313.156 44.4423 306.816 38.1041C301.275 32.5663 293.836 28.9763 286.037 28.1863C268.971 26.4587 254.655 38.9355 245.345 51.8734C234.64 66.7488 225.823 86.8823 233.441 105.05C239.797 120.208 256.17 127.553 271.416 130.366C287.467 133.329 306.248 132.801 319.316 121.785C331.194 111.771 334.657 94.8652 331.57 80.1478C328.169 63.9437 316.391 50.954 302.749 42.2691C295.25 37.498 287.04 33.8484 278.578 31.1676C269.059 28.1526 258.913 26.2903 248.899 26.5001C242.03 26.6451 233.537 28.593 230.999 35.8895C229.476 40.2669 230.765 45.0898 232.2 49.3066C233.576 53.3499 235.13 57.3336 236.811 61.2603C243.639 77.2002 253.01 91.9616 264.021 105.335C275.091 118.78 287.868 130.773 301.788 141.227C305.321 143.879 308.927 146.438 312.607 148.878C316.56 151.499 320.681 153.973 325.201 155.486C332.381 157.892 341.363 157.32 346.738 151.378C352.84 144.633 350.211 134.567 346.761 127.204C343.298 119.809 337.833 113.494 331.601 108.285C325.183 102.921 317.943 98.6106 310.387 95.0517C301.431 90.8297 292.065 87.478 282.463 85.0561C272.869 82.6343 263.031 81.1295 253.152 80.5648C243.742 80.0287 234.115 80.1557 224.824 81.8729C216.209 83.4659 207.547 86.5844 201.082 92.7102C194.995 98.4785 191.491 106.876 194.425 115.105C197.388 123.409 204.68 129.338 211.207 134.834C218.646 141.097 226.352 147.065 234.426 152.494C250.839 163.533 268.963 172.35 288.397 176.469C298.022 178.507 307.919 179.406 317.749 178.802C322.326 178.523 327.011 178.025 331.215 176.067C334.764 174.412 337.626 171.589 339.498 168.165C348.556 151.611 334.968 134.513 323.514 123.484C309.869 110.349 293.284 100.061 275.855 92.7465C266.753 88.9286 257.336 86.1493 247.607 84.4916C242.981 83.7042 238.256 83.2224 233.563 83.1861C229.359 83.1524 225.044 83.5849 221.169 85.3152C213.069 88.9285 210.192 97.9372 210.614 106.233C211.062 115.022 214.921 123.256 220.063 130.265C225.337 137.45 231.934 143.607 239.013 148.982C246.193 154.434 254.041 159.006 262.316 162.58C270.558 166.142 279.194 168.76 288.047 170.268C296.828 171.762 306.02 172.488 314.791 170.542C322.825 168.76 329.985 164.414 334.603 157.527C338.696 151.422 340.555 143.957 340.594 136.658C340.685 119.697 330.492 105.306 317.997 94.7253C310.978 88.7834 303.207 83.7352 295.227 79.1869C286.672 74.3122 277.746 70.0928 268.561 66.5494C259.089 62.8947 249.298 59.8564 239.313 57.9707C234.218 57.0072 229.053 56.3596 223.868 56.1628C219.568 55.9996 214.447 55.6784 210.718 58.2349C204.082 62.7859 204.916 72.4239 206.224 79.3008C207.902 88.1282 211.596 96.5203 216.462 104.042C226.81 120.037 242.235 131.762 258.12 141.851C274.49 152.248 291.824 162.041 310.82 166.644C326.669 170.483 345.629 170.814 358.857 159.816C372.101 148.806 374.176 129.271 368.428 113.862C362.129 96.9788 348.491 83.4426 334.005 73.2554C319.124 62.7911 302.058 55.5126 284.45 51.0912C264.137 45.9911 243.038 44.5976 222.161 45.4006C217.193 45.5923 212.158 45.7503 207.221 46.3719C203.82 46.7993 200.191 47.6204 197.557 49.9567C190.545 56.1732 198.075 66.7204 202.346 72.2193C207.793 79.2335 214.68 84.9733 221.925 90.0449C230.056 95.7355 238.668 100.763 247.379 105.506C256.489 110.468 265.792 115.066 275.159 119.521C284.504 123.966 293.878 128.374 303.399 132.431C312.895 136.476 322.564 140.152 332.51 142.928C341.884 145.545 352.128 147.974 361.787 145.412C369.982 143.242 376.934 137.45 378.76 128.926C380.716 119.806 377.098 110.8 372.041 103.343C361.479 87.7707 346.217 75.9077 330.762 65.5185C314.967 54.9014 298.39 44.1884 279.961 38.8242C275.552 37.542 271.012 36.5759 266.443 36.0915C262.578 35.6823 258.545 35.7315 254.792 36.8297C251.228 37.871 248.016 39.9742 246.068 43.1886C243.996 46.6077 243.646 50.7571 244.131 54.6476C244.636 58.7012 246.063 62.4336 247.405 66.2593C248.671 69.8648 249.834 73.5066 250.995 77.1484C253.225 84.1471 255.419 91.1768 258.429 97.8854C260.967 103.545 264.106 109.026 268.403 113.543C272.742 118.102 278.166 121.339 284.201 123.096C284.639 123.235 284.822 122.557 284.387 122.422Z" fill="#222222"/>
<path fill-rule="evenodd" clip-rule="evenodd" d="M180.571 75.4749C197.806 91.1232 215.413 105.212 226.354 113.397L225.113 115.057C214.125 106.837 196.467 92.7061 179.178 77.009C161.908 61.328 144.934 44.0189 135.377 29.4488L137.11 28.3123C146.513 42.6486 163.319 59.8104 180.571 75.4749Z" fill="#222222"/>
<path fill-rule="evenodd" clip-rule="evenodd" d="M282.96 86.5637C293.31 89.9788 303.506 93.343 314.026 97.1948L313.314 99.1407C302.852 95.3103 292.691 91.9581 282.362 88.5501C244.694 76.1227 204.781 62.9547 139.846 23.159L140.928 21.3922C205.644 61.0534 245.32 74.1445 282.96 86.5637Z" fill="#222222"/>
<path fill-rule="evenodd" clip-rule="evenodd" d="M257.153 88.1126C235.724 105.453 174.908 136.372 105.531 113.176L106.188 111.211C174.676 134.11 234.764 103.564 255.85 86.5017L257.153 88.1126Z" fill="#222222"/>
<path fill-rule="evenodd" clip-rule="evenodd" d="M96.1007 133.48C96.5343 130.319 96.3215 125.963 96.0112 121.884L98.0387 121.22C98.3474 125.278 98.6214 130.351 98.1536 133.761C97.9224 135.446 97.5009 137.012 96.7036 138.087C96.2904 138.644 95.7546 139.099 95.0729 139.341C94.3898 139.584 93.6528 139.581 92.8947 139.379C90.2609 138.677 88.8165 135.923 88.1353 132.889C87.4337 129.764 87.4732 126.585 88.0665 122.904L90.0662 122.548C89.5043 126.034 89.5262 129.625 90.1571 132.435C90.8085 135.336 92.0008 136.996 93.4284 137.377C93.865 137.493 94.1648 137.465 94.3788 137.389C94.5942 137.312 94.8159 137.154 95.0391 136.853C95.5146 136.212 95.8811 135.08 96.1007 133.48Z" fill="#222222"/>
<path fill-rule="evenodd" clip-rule="evenodd" d="M283.134 121.6C283.134 121.6 283.134 121.6 283.568 122.541C284.001 123.482 284.001 123.482 284 123.483L283.995 123.485L283.98 123.492C283.966 123.498 283.947 123.507 283.921 123.519C283.869 123.542 283.792 123.577 283.691 123.622C283.488 123.713 283.188 123.845 282.795 124.016C282.009 124.356 280.849 124.847 279.347 125.452C276.343 126.662 271.973 128.328 266.494 130.159C255.537 133.819 240.135 138.14 222.353 140.779C186.813 146.053 141.615 144.631 103.441 117.608L104.639 115.916C142.191 142.5 186.758 143.967 222.049 138.729C239.683 136.112 254.965 131.826 265.837 128.194C271.273 126.378 275.603 124.726 278.572 123.53C280.057 122.932 281.201 122.448 281.972 122.114C282.357 121.947 282.65 121.818 282.845 121.731C282.942 121.687 283.016 121.654 283.064 121.632C283.088 121.621 283.106 121.613 283.118 121.607L283.131 121.601L283.134 121.6Z" fill="#222222"/>
<path fill-rule="evenodd" clip-rule="evenodd" d="M58.1375 98.8447L63.7069 73.0226L62.6942 72.8041L56.8669 99.8216L57.4776 99.8506C69.3046 100.412 94.2595 101.586 99.4423 101.793C102.007 101.896 103.783 102.173 104.953 102.471C105.538 102.62 105.965 102.772 106.261 102.906C106.571 103.047 106.694 103.149 106.719 103.176L106.873 103.348H107.042C107.045 103.351 107.048 103.355 107.051 103.359C107.101 103.421 107.186 103.571 107.252 103.873C107.385 104.479 107.417 105.569 107.111 107.407C106.503 111.058 104.39 115.905 103.403 117.88L103.401 117.884L103.399 117.888C101.509 121.823 100.232 124.221 99.4124 125.514C99.2911 125.706 99.1829 125.868 99.0874 126.004C99.0969 125.936 99.1078 125.864 99.1203 125.788C99.203 125.284 99.3407 124.655 99.5172 123.949C99.8696 122.539 100.368 120.854 100.863 119.306L101.347 117.791L100.064 118.73C99.1856 119.372 97.846 120.302 96.6802 121.003C96.0943 121.355 95.5707 121.639 95.179 121.802C95.0771 121.845 94.9919 121.876 94.9225 121.897C94.9311 121.844 94.951 121.776 94.9897 121.688C95.0946 121.451 95.2835 121.211 95.426 121.068L94.8414 120.232C93.0135 121.082 91.5401 121.675 90.3712 122.054C89.1947 122.436 88.3581 122.592 87.7929 122.591C87.2177 122.591 87.0556 122.435 87.0062 122.354C86.9384 122.243 86.8958 121.986 87.0573 121.482C87.3729 120.496 88.2964 119.089 89.5341 117.544C90.7575 116.017 92.2407 114.411 93.6129 113.039L94.9833 111.669L93.1119 112.172C74.3118 117.234 56.8736 117.894 50.5332 117.594L50.5239 117.594L50.5145 117.594C48.6641 117.573 45.8828 116.933 43.6013 115.09C41.3433 113.265 39.5294 110.227 39.6299 105.301C39.8353 95.2378 44.0056 81.6287 46.0729 76.0727L45.1019 75.7114C43.0249 81.2932 38.8031 95.0363 38.594 105.28C38.4873 110.508 40.4291 113.859 42.9501 115.896C45.4435 117.91 48.4587 118.605 50.4935 118.63C56.7332 118.924 73.3699 118.304 91.577 113.646C90.5867 114.693 89.5944 115.811 88.7255 116.896C87.4864 118.443 86.45 119.98 86.0706 121.166C85.8846 121.747 85.8107 122.383 86.1213 122.893C86.4503 123.433 87.0763 123.627 87.7924 123.627C88.5186 123.628 89.4764 123.434 90.6911 123.04C91.5931 122.747 92.6541 122.337 93.8917 121.797C93.8561 122.091 93.9026 122.416 94.1372 122.709C94.3774 123.01 94.7478 122.985 94.9112 122.961C95.1187 122.932 95.3496 122.854 95.5774 122.759C96.0408 122.566 96.6164 122.25 97.2144 121.891C97.9361 121.456 98.7173 120.941 99.4194 120.457C99.0809 121.574 98.7614 122.7 98.512 123.698C98.3323 124.417 98.187 125.076 98.0979 125.621C98.0129 126.139 97.9646 126.629 98.0281 126.963C98.0545 127.103 98.1394 127.433 98.4723 127.563C98.8093 127.696 99.1003 127.508 99.2266 127.412C99.5224 127.186 99.8723 126.724 100.287 126.069C101.142 124.721 102.441 122.276 104.332 118.34C105.331 116.341 107.499 111.384 108.133 107.577C108.448 105.685 108.438 104.444 108.264 103.651C108.177 103.254 108.042 102.938 107.858 102.709C107.722 102.541 107.547 102.407 107.344 102.347C107.177 102.21 106.952 102.082 106.689 101.962C106.325 101.797 105.837 101.626 105.208 101.467C103.95 101.147 102.099 100.863 99.4837 100.758C94.3934 100.555 70.1941 99.4164 58.1375 98.8447ZM94.7233 121.939C94.7238 121.938 94.7295 121.938 94.7394 121.939C94.7277 121.939 94.7228 121.939 94.7233 121.939ZM98.5711 126.606C98.5712 126.605 98.5757 126.602 98.5842 126.598C98.5753 126.604 98.5711 126.606 98.5711 126.606ZM99.0483 126.781C99.0516 126.79 99.0529 126.796 99.0527 126.796C99.0525 126.797 99.0507 126.792 99.0483 126.781Z" fill="#222222"/>
<path d="M351.256 229.5C351.256 229.5 347.099 234.763 337.034 237.379C327.302 239.907 320.682 237.441 320.682 237.441L308.158 189.22C308.158 189.22 312.321 188.756 322.997 184.312C333.993 179.735 337.303 175.769 337.303 175.769L351.256 229.5Z" fill="#0074E0"/>
<path d="M188.562 204.779C188.562 204.779 190.438 211.218 198.786 217.424C206.854 223.421 213.918 223.625 213.918 223.625L244.394 181.947C244.394 181.947 240.05 180.991 230.402 174.438C220.549 167.747 218.932 163.919 218.932 163.919L188.562 204.779Z" fill="#0074E0"/>
<path d="M214.22 223.282C215.967 220.909 211.703 214.804 204.696 209.646C197.688 204.488 190.592 202.231 188.845 204.605C187.098 206.978 191.362 213.083 198.37 218.241C205.377 223.398 212.474 225.655 214.22 223.282Z" fill="#222222"/>
<path d="M337.306 238.71C345.751 236.535 352.001 232.458 351.266 229.605C350.531 226.751 343.089 226.201 334.644 228.375C326.199 230.55 319.949 234.627 320.684 237.481C321.419 240.334 328.861 240.885 337.306 238.71Z" fill="#222222"/>
<path d="M203.024 211.752L187.094 233.3L151.857 198.835L187.682 216.288L194.714 206.932" fill="#FDE50B"/>
<path d="M336.441 230.417L342.313 255L388.32 237.322L348.509 239.148L346.118 229.435" fill="#FDE50B"/>
<path d="M331.175 21.6486C331.232 24.2906 333.42 26.3861 336.062 26.3291C338.399 26.2773 340.308 24.5626 340.678 22.3376C340.727 22.0449 340.748 21.747 340.743 21.4388C340.686 18.7968 338.497 16.7014 335.855 16.7584C334.48 16.7869 333.255 17.3955 332.4 18.3409C331.615 19.219 331.151 20.382 331.175 21.6486Z" fill="#F0438C"/>
<path d="M313.596 12.6502C313.596 12.6502 318.333 15.5278 326.762 13.8028L327.518 21.7287L332.646 20.4777C332.646 20.4777 333.88 15.8672 338.348 17.398C338.348 17.398 338.521 8.34009 333.17 6.6746C323.824 3.76584 315.694 8.03705 313.596 12.6502Z" fill="#222222"/>
<path fill-rule="evenodd" clip-rule="evenodd" d="M61.6267 43.9803L59.3914 44.3274L59.2324 43.3036L61.4677 42.9565L61.6267 43.9803Z" fill="#222222"/>
<path fill-rule="evenodd" clip-rule="evenodd" d="M66.6495 41.7016L64.3416 41.7534L64.3184 40.7176L66.6262 40.6658L66.6495 41.7016Z" fill="#222222"/>
<path fill-rule="evenodd" clip-rule="evenodd" d="M357.481 236.252L350.306 242.901L349.602 242.141L356.776 235.492L357.481 236.252Z" fill="white"/>
<path fill-rule="evenodd" clip-rule="evenodd" d="M362.511 236.552L355.341 243.201L354.637 242.441L361.806 235.793L362.511 236.552Z" fill="white"/>
<path fill-rule="evenodd" clip-rule="evenodd" d="M367.93 236.576L360.755 243.222L360.051 242.462L367.226 235.816L367.93 236.576Z" fill="white"/>
<path fill-rule="evenodd" clip-rule="evenodd" d="M180.695 208.848L184.124 218.009L183.154 218.373L179.725 209.211L180.695 208.848Z" fill="white"/>
<path fill-rule="evenodd" clip-rule="evenodd" d="M176.062 206.856L179.486 216.018L178.516 216.38L175.092 207.219L176.062 206.856Z" fill="white"/>
<path fill-rule="evenodd" clip-rule="evenodd" d="M171.211 204.445L174.638 213.606L173.667 213.969L170.24 204.808L171.211 204.445Z" fill="white"/>
<path fill-rule="evenodd" clip-rule="evenodd" d="M66.3524 51.2252C66.3522 51.2251 66.3519 51.2251 66.2412 51.7312C66.1305 52.2372 66.1303 52.2372 66.13 52.2371L66.1295 52.237L66.1283 52.2368L66.1253 52.2361L66.117 52.2342C66.1104 52.2326 66.1018 52.2306 66.0912 52.2279C66.0701 52.2226 66.0412 52.2151 66.0056 52.2049C65.9346 52.1847 65.8365 52.154 65.7203 52.1104C65.4898 52.024 65.1791 51.8837 64.8672 51.6679C64.2355 51.2304 63.5763 50.4592 63.6257 49.2265L64.6609 49.2679C64.6299 50.0425 65.0198 50.5133 65.457 50.816C65.6797 50.9702 65.9085 51.0745 66.0839 51.1402C66.1707 51.1728 66.2421 51.195 66.2899 51.2086C66.3138 51.2154 66.3316 51.2201 66.3423 51.2227C66.3477 51.2241 66.3513 51.2249 66.3529 51.2253L66.3527 51.2253L66.3524 51.2252ZM66.3529 51.2253C66.3534 51.2254 66.3537 51.2255 66.3538 51.2255L66.3533 51.2254L66.3529 51.2253ZM66.3539 51.2255C66.354 51.2256 66.354 51.2256 66.3539 51.2255L66.3539 51.2255Z" fill="#222222"/>
<path fill-rule="evenodd" clip-rule="evenodd" d="M315.698 26.7694C315.698 26.7695 315.698 26.7697 316.171 26.9795C316.645 27.1893 316.645 27.1895 316.645 27.1897L316.645 27.1902L316.644 27.1913L316.643 27.1941L316.639 27.2018C316.637 27.208 316.633 27.2161 316.628 27.2259C316.619 27.2456 316.605 27.2724 316.588 27.3052C316.554 27.3707 316.505 27.4608 316.439 27.5659C316.308 27.7747 316.108 28.0513 315.834 28.3138C315.28 28.8455 314.392 29.3378 313.195 29.0417L313.444 28.0359C314.195 28.2216 314.733 27.9342 315.117 27.5659C315.313 27.3783 315.461 27.1747 315.561 27.0158C315.61 26.9372 315.646 26.8716 315.669 26.8273C315.681 26.8053 315.689 26.7887 315.693 26.7787C315.696 26.7737 315.697 26.7704 315.698 26.7689L315.698 26.769L315.698 26.7694ZM315.698 26.7689C315.698 26.7681 315.699 26.7678 315.699 26.7679L315.698 26.7685L315.698 26.7689Z" fill="#222222"/>
<path fill-rule="evenodd" clip-rule="evenodd" d="M127.396 19.6364C128.071 16.9867 128.981 13.9003 129.923 10.9789L130.909 11.2967C129.972 14.2032 129.069 17.2684 128.4 19.8922C127.726 22.5391 127.308 24.6742 127.308 25.7561C127.308 25.8171 127.309 25.8717 127.311 25.9205C127.461 25.7656 127.65 25.5339 127.88 25.2083C128.927 23.7261 130.626 20.5998 133.185 15.1901L134.122 15.6331C132.858 18.3045 131.573 21.4217 130.573 24.1917C129.566 26.982 128.87 29.3607 128.75 30.5824C128.742 30.6621 128.737 30.7328 128.735 30.795C128.935 30.6075 129.196 30.3123 129.523 29.8851C130.857 28.1413 133.1 24.4602 136.564 18.0155L137.49 18.4799C136.363 20.8954 135.26 23.5513 134.441 25.8549C134.031 27.0069 133.694 28.065 133.46 28.9574C133.224 29.8611 133.103 30.5572 133.103 31.0013C133.103 31.0731 133.106 31.1336 133.111 31.1837C133.163 31.1541 133.225 31.1134 133.298 31.0585C133.503 30.9044 133.765 30.6623 134.09 30.3113C135.397 28.9 137.519 25.9511 140.725 20.8349L141.603 21.385C138.398 26.5 136.231 29.5247 134.851 31.0152C134.504 31.3897 134.194 31.6811 133.92 31.887C133.659 32.0827 133.373 32.2463 133.078 32.2771C132.917 32.2938 132.745 32.272 132.583 32.1852C132.422 32.0991 132.311 31.9699 132.237 31.8368C132.101 31.5897 132.067 31.2836 132.067 31.0012C132.067 30.4173 132.217 29.6139 132.458 28.6948C132.671 27.8826 132.963 26.9502 133.31 25.9486C132.049 28.0755 131.075 29.561 130.345 30.5147C129.997 30.9703 129.692 31.3208 129.428 31.5653C129.295 31.6877 129.163 31.7932 129.031 31.8726C128.904 31.9493 128.746 32.0209 128.568 32.0355C128.37 32.0518 128.168 31.9945 128.008 31.8484C127.864 31.7172 127.793 31.551 127.755 31.4155C127.682 31.1506 127.686 30.8187 127.719 30.4811C127.83 29.3472 128.359 27.4407 129.108 25.2399C128.973 25.4483 128.846 25.6368 128.726 25.8061C128.449 26.1989 128.198 26.5072 127.972 26.7249C127.77 26.9194 127.497 27.1324 127.178 27.154C126.989 27.1667 126.806 27.1112 126.656 26.988C126.518 26.8752 126.439 26.7305 126.391 26.6061C126.298 26.3646 126.271 26.0621 126.271 25.7561C126.271 24.5231 126.727 22.2629 127.396 19.6364ZM128.758 31.1501C128.758 31.1502 128.757 31.1493 128.757 31.1475C128.757 31.1492 128.758 31.1501 128.758 31.1501ZM127.362 26.2427C127.362 26.2427 127.362 26.2421 127.361 26.2408C127.362 26.242 127.362 26.2427 127.362 26.2427Z" fill="#222222"/>
</svg>
