<svg width="184" height="140" viewBox="0 0 184 140" fill="none" xmlns="http://www.w3.org/2000/svg">
<path d="M156.644 66.7381L169.107 59.9438L183.428 82.964L165.75 68.4155L156.429 73.4453" fill="#F0438C"/>
<path fill-rule="evenodd" clip-rule="evenodd" d="M168.322 73.5773L169.096 67.9413L168.518 67.8053L167.744 73.4413L168.322 73.5773Z" fill="white"/>
<path fill-rule="evenodd" clip-rule="evenodd" d="M170.641 75.6334L171.414 69.9975L170.836 69.8617L170.063 75.4976L170.641 75.6334Z" fill="white"/>
<path fill-rule="evenodd" clip-rule="evenodd" d="M173.016 77.6575L173.706 72.006L173.1 71.9507L172.41 77.6022L173.016 77.6575Z" fill="white"/>
<path d="M134.995 74.5329L134.095 69.0104C132.675 60.2946 123.383 55.2619 115.5 58.9393C111.737 60.6943 108.365 63.1871 105.579 66.2754L89.1586 84.4681C85.1465 88.9127 85.3668 95.8094 89.6582 100.112L115.937 126.457L129.52 111.684L107.357 90.1337L114.446 82.4327L115.922 89.5438C117.358 97.0971 125.638 101.176 132.323 97.6244L163.726 80.9433C163.726 80.9433 165.122 76.9471 161.864 71.1051C158.278 64.6719 154.781 64.4214 154.781 64.4214L134.995 74.5329Z" fill="#0074E0"/>
<path fill-rule="evenodd" clip-rule="evenodd" d="M114.992 85.1274L113.089 72.8698L112.628 72.9107L114.531 85.1682L114.992 85.1274Z" fill="white"/>
<path d="M115.45 126.078C114.129 124.833 116.156 120.538 119.977 116.486C123.798 112.433 127.966 110.157 129.287 111.403C130.608 112.648 128.581 116.943 124.76 120.996C120.94 125.048 116.771 127.324 115.45 126.078Z" fill="#222222"/>
<path d="M127.263 111.996L139.092 119.868L117.649 135.654L128.523 120.029L122.611 116.049" fill="#F0438C"/>
<path d="M116.287 138.1C115.458 137.051 119.959 132.117 126.339 127.08C132.719 122.043 138.562 118.81 139.391 119.86C140.219 120.909 135.719 125.843 129.339 130.88C122.959 135.917 117.115 139.149 116.287 138.1Z" fill="#222222"/>
<path fill-rule="evenodd" clip-rule="evenodd" d="M123.324 123.921L128.12 122.818L128.031 122.272L123.235 123.375L123.324 123.921Z" fill="white"/>
<path fill-rule="evenodd" clip-rule="evenodd" d="M121.268 126.241L126.879 124.667L126.823 124.101L121.212 125.675L121.268 126.241Z" fill="white"/>
<path fill-rule="evenodd" clip-rule="evenodd" d="M160.652 78.7994L156.584 76.9589L156.438 77.3813L160.505 79.2218L160.652 78.7994Z" fill="white"/>
<path fill-rule="evenodd" clip-rule="evenodd" d="M157.222 72.0635L157.224 68.9426L156.76 68.9348L156.758 72.0557L157.222 72.0635Z" fill="white"/>
<path fill-rule="evenodd" clip-rule="evenodd" d="M149.955 75.9553L146.738 73.5889L146.56 73.9951L149.777 76.3615L149.955 75.9553Z" fill="white"/>
<path fill-rule="evenodd" clip-rule="evenodd" d="M149.797 83.5215L152.578 82.6669L152.504 82.3295L149.722 83.1841L149.797 83.5215Z" fill="white"/>
<path fill-rule="evenodd" clip-rule="evenodd" d="M143.35 83.4678L143.815 79.0412L143.374 78.9267L142.909 83.3534L143.35 83.4678Z" fill="white"/>
<path fill-rule="evenodd" clip-rule="evenodd" d="M143.679 71.9599L144.164 69.8451L143.56 69.765L143.075 71.8798L143.679 71.9599Z" fill="white"/>
<path fill-rule="evenodd" clip-rule="evenodd" d="M137.382 75.7413L139.324 77.8697L139.575 77.5789L137.633 75.4505L137.382 75.7413Z" fill="white"/>
<path fill-rule="evenodd" clip-rule="evenodd" d="M136.449 83.9266L134.001 80.943L133.753 81.2161L136.201 84.1997L136.449 83.9266Z" fill="white"/>
<path fill-rule="evenodd" clip-rule="evenodd" d="M138.528 87.5269L141.095 89.2969L141.572 88.8779L139.005 87.1079L138.528 87.5269Z" fill="white"/>
<path fill-rule="evenodd" clip-rule="evenodd" d="M121.048 94.0801L123.923 89.6744L123.462 89.2912L120.587 93.697L121.048 94.0801Z" fill="white"/>
<path fill-rule="evenodd" clip-rule="evenodd" d="M127.916 92.6701L130.981 92.8727L131.19 92.4599L128.126 92.2573L127.916 92.6701Z" fill="white"/>
<path fill-rule="evenodd" clip-rule="evenodd" d="M147.931 88.1305L149.338 89.0645L149.312 88.5626L147.905 87.6286L147.931 88.1305Z" fill="white"/>
<path fill-rule="evenodd" clip-rule="evenodd" d="M131.355 85.8659L132.361 88.6062L132.809 88.4216L131.804 85.6813L131.355 85.8659Z" fill="white"/>
<path fill-rule="evenodd" clip-rule="evenodd" d="M126.525 84.1276L129.151 81.086L128.722 80.5955L126.096 83.6371L126.525 84.1276Z" fill="white"/>
<path fill-rule="evenodd" clip-rule="evenodd" d="M102.166 71.029L102.39 70.0202L102.037 69.9715L101.812 70.9803L102.166 71.029Z" fill="white"/>
<path fill-rule="evenodd" clip-rule="evenodd" d="M119.755 81.2455L119.746 84.3988L120.178 84.3969L120.188 81.2435L119.755 81.2455Z" fill="white"/>
<path fill-rule="evenodd" clip-rule="evenodd" d="M120.343 75.633L124.84 78.3093L125.006 77.8277L120.509 75.1513L120.343 75.633Z" fill="white"/>
<path fill-rule="evenodd" clip-rule="evenodd" d="M132.568 67.4019L134.019 68.4831L134.098 68.093L132.647 67.0117L132.568 67.4019Z" fill="white"/>
<path fill-rule="evenodd" clip-rule="evenodd" d="M125.978 68.5983L123.915 64.1758L123.414 64.4203L125.477 68.8428L125.978 68.5983Z" fill="white"/>
<path fill-rule="evenodd" clip-rule="evenodd" d="M126.688 60.2667L126.732 59.2542L126.292 59.3632L126.248 60.3757L126.688 60.2667Z" fill="white"/>
<path fill-rule="evenodd" clip-rule="evenodd" d="M114.3 67.1246L110.778 66.0566L110.538 66.4897L114.059 67.5578L114.3 67.1246Z" fill="white"/>
<path fill-rule="evenodd" clip-rule="evenodd" d="M106.033 72.4084L108.633 74.0861L109.013 73.6499L106.413 71.9723L106.033 72.4084Z" fill="white"/>
<path fill-rule="evenodd" clip-rule="evenodd" d="M108.251 80.1721L110.277 82.1908L110.391 81.9177L108.366 79.8989L108.251 80.1721Z" fill="white"/>
<path fill-rule="evenodd" clip-rule="evenodd" d="M86.0446 90.7155L86.8753 91.1745L87.2162 90.7845L86.3856 90.3255L86.0446 90.7155Z" fill="white"/>
<path fill-rule="evenodd" clip-rule="evenodd" d="M89.7235 100.848L91.9887 99.0509L91.641 98.6091L89.3758 100.406L89.7235 100.848Z" fill="white"/>
<path fill-rule="evenodd" clip-rule="evenodd" d="M95.114 102.504L97.792 104.112L98.0726 103.708L95.3947 102.1L95.114 102.504Z" fill="white"/>
<path fill-rule="evenodd" clip-rule="evenodd" d="M103.399 99.743L101.888 102.475L102.293 102.645L103.804 99.9128L103.399 99.743Z" fill="white"/>
<path fill-rule="evenodd" clip-rule="evenodd" d="M100.581 110.424L100.221 111.349L100.578 111.557L100.939 110.632L100.581 110.424Z" fill="white"/>
<path fill-rule="evenodd" clip-rule="evenodd" d="M96.3053 96.7261L99.8184 95.0195L99.4892 94.3997L95.976 96.1062L96.3053 96.7261Z" fill="white"/>
<path fill-rule="evenodd" clip-rule="evenodd" d="M122.923 107.544L124.669 106.703L124.275 105.966L122.529 106.806L122.923 107.544Z" fill="white"/>
<path fill-rule="evenodd" clip-rule="evenodd" d="M91.8454 89.4368L91.6158 92.5244L91.995 92.7458L92.2246 89.6582L91.8454 89.4368Z" fill="white"/>
<path fill-rule="evenodd" clip-rule="evenodd" d="M96.2247 84.8248L99.2328 88.567L99.3681 88.309L96.3599 84.5669L96.2247 84.8248Z" fill="white"/>
<path fill-rule="evenodd" clip-rule="evenodd" d="M106.556 85.0775L103.81 85.9244L103.86 86.2887L106.606 85.4418L106.556 85.0775Z" fill="white"/>
<path fill-rule="evenodd" clip-rule="evenodd" d="M97.6039 77.4124L93.6935 78.184L93.9018 78.8412L97.8122 78.0696L97.6039 77.4124Z" fill="white"/>
<path fill-rule="evenodd" clip-rule="evenodd" d="M127.987 96.8649L125.749 98.7176L126.063 99.1075L128.3 97.2548L127.987 96.8649Z" fill="white"/>
<path fill-rule="evenodd" clip-rule="evenodd" d="M105.143 95.3404L105.019 92.2154L104.495 92.3195L104.62 95.4445L105.143 95.3404Z" fill="white"/>
<path fill-rule="evenodd" clip-rule="evenodd" d="M118.379 104.675L119.283 101.241L118.693 101.099L117.789 104.533L118.379 104.675Z" fill="white"/>
<path fill-rule="evenodd" clip-rule="evenodd" d="M115.998 109.272L112.783 106.774L112.49 107.116L115.705 109.614L115.998 109.272Z" fill="white"/>
<path fill-rule="evenodd" clip-rule="evenodd" d="M105.331 110.4L108.075 109.493L107.974 109.096L105.231 110.003L105.331 110.4Z" fill="white"/>
<path fill-rule="evenodd" clip-rule="evenodd" d="M111.77 118.677L111.212 114.705L110.716 114.759L111.273 118.731L111.77 118.677Z" fill="white"/>
<path fill-rule="evenodd" clip-rule="evenodd" d="M115.882 114.952L118.938 114.538L118.618 113.81L115.562 114.224L115.882 114.952Z" fill="white"/>
<path d="M89.0758 62.2443C92.1013 65.5276 97.2098 65.7384 100.486 62.7152L111.951 52.1356C115.227 49.1124 115.43 43.9999 112.405 40.7166C109.379 37.4333 104.271 37.2225 100.994 40.2457L89.5295 50.8253C86.2534 53.8485 86.0504 58.9611 89.0758 62.2443Z" fill="#F0438C"/>
<path fill-rule="evenodd" clip-rule="evenodd" d="M86.0225 56.5822L39.6968 96.6108L39.6755 96.6423L39.9078 96.793C39.6755 96.6423 39.6754 96.6424 39.6753 96.6426L39.675 96.643L39.6744 96.644L39.6725 96.6468C39.671 96.6491 39.669 96.6521 39.6666 96.6559C39.6617 96.6634 39.6549 96.674 39.6466 96.6874C39.6299 96.7144 39.6067 96.753 39.5788 96.8027C39.523 96.9022 39.4483 97.0463 39.3687 97.2303C39.2097 97.598 39.0307 98.1268 38.9471 98.7774C38.7791 100.086 39.0006 101.866 40.5025 103.793C42.0136 105.732 43.7919 106.272 45.1981 106.315C45.8967 106.337 46.4992 106.237 46.9275 106.131C47.142 106.078 47.3137 106.023 47.4331 105.981C47.4928 105.96 47.5395 105.942 47.572 105.93C47.5882 105.923 47.6009 105.918 47.61 105.914C47.6145 105.912 47.6181 105.911 47.6207 105.91L47.624 105.908L47.6255 105.908C47.6256 105.907 47.6258 105.907 47.5164 105.654L47.6258 105.907L47.6658 105.89L94.9505 64.9753L94.5858 64.5615L47.3697 105.417C47.3439 105.427 47.3054 105.441 47.255 105.459C47.1509 105.496 46.9968 105.545 46.802 105.593C46.412 105.689 45.8627 105.781 45.2275 105.761C43.9663 105.722 42.3495 105.245 40.9499 103.449C39.5412 101.642 39.3535 100.008 39.504 98.8358C39.5797 98.2462 39.7418 97.7682 39.8841 97.4391C39.9552 97.2747 40.0212 97.148 40.0685 97.0637C40.091 97.0234 40.1093 96.9929 40.1218 96.9726L86.387 56.9964L86.0225 56.5822Z" fill="#222222"/>
<path fill-rule="evenodd" clip-rule="evenodd" d="M34.8058 88.7469C19.9391 69.7112 14.9787 46.0856 19.1876 24.1849L17.3321 23.8081C13.0234 46.2276 18.1014 70.4207 33.3235 89.9115C48.5456 109.402 70.7486 120.142 93.4813 121.314L93.5608 119.416C71.3542 118.272 49.6724 107.783 34.8058 88.7469Z" fill="#222222"/>
<path fill-rule="evenodd" clip-rule="evenodd" d="M27.4998 94.8977L86.1055 49.6555L85.5369 48.9406L26.9311 94.1827L27.4998 94.8977Z" fill="#222222"/>
<path d="M30.8432 97.6331L27.3125 95.292C26.9605 95.0582 26.7424 94.6673 26.7304 94.2448L26.6041 90.0123C26.5723 88.9496 25.3459 88.3675 24.5289 89.0292L21.274 91.659C20.9497 91.9203 20.5153 92.0038 20.1132 91.8807L16.0809 90.6405C15.0683 90.3283 14.1566 91.3184 14.5386 92.3138L16.0564 96.2806C16.2079 96.6758 16.1572 97.1193 15.9208 97.4647L13.5557 100.93C12.9623 101.801 13.6248 102.993 14.6777 102.948L18.8709 102.769C19.2892 102.751 19.6929 102.942 19.9476 103.28L22.5175 106.662C23.163 107.511 24.4842 107.259 24.7535 106.235L25.8261 102.158C25.9339 101.752 26.2328 101.427 26.6264 101.289L30.58 99.9149C31.5752 99.5684 31.7283 98.2203 30.8432 97.6331Z" fill="#FDE50B"/>
<path fill-rule="evenodd" clip-rule="evenodd" d="M18.2638 23.27L17.5833 25.0647L84.904 50.0839L92.7627 120.847L94.6724 120.626L86.6844 48.698L18.2638 23.27Z" fill="#222222"/>
<path d="M40.4051 97.9177C40.4051 97.9177 45.7431 94.1046 46.2772 94.6747C46.8113 95.2447 42.0313 100.37 42.0313 100.37C42.0313 100.37 48.5908 94.8012 49.2378 95.5793C49.8855 96.3554 43.8025 102.687 43.8025 102.687C43.8025 102.687 49.5646 97.5592 50.2773 98.3545C50.99 99.1498 45.2113 105.043 45.2113 105.043" fill="white"/>
<path fill-rule="evenodd" clip-rule="evenodd" d="M40.4117 97.9293C40.4117 97.9293 40.4116 97.9293 40.5743 98.1594C40.7369 98.3896 40.7369 98.3896 40.7369 98.3895L40.7512 98.3792C40.7608 98.3722 40.7752 98.3619 40.7939 98.3484C40.8313 98.3214 40.8865 98.2819 40.9569 98.2317C41.0977 98.1313 41.2997 97.9884 41.5439 97.8188C42.0324 97.4795 42.6886 97.0339 43.361 96.6077C44.0353 96.1803 44.7185 95.7769 45.2631 95.5187C45.5372 95.3887 45.7636 95.3016 45.93 95.2635C45.9661 95.2553 45.9967 95.25 46.0222 95.2468C46.0155 95.2727 46.006 95.3036 45.9928 95.3399C45.9304 95.5115 45.8092 95.7423 45.6377 96.0194C45.297 96.5699 44.7881 97.2551 44.2562 97.9287C43.7257 98.6007 43.1776 99.2545 42.7617 99.7408C42.5539 99.9838 42.3793 100.185 42.2568 100.325C42.1955 100.395 42.1473 100.45 42.1144 100.487C42.0979 100.506 42.0853 100.52 42.0769 100.529L42.0642 100.544C42.0642 100.544 42.0642 100.544 42.2664 100.738C42.4465 100.954 42.4465 100.954 42.4465 100.954L42.4641 100.939C42.4759 100.928 42.4934 100.913 42.5164 100.893C42.5623 100.853 42.6298 100.795 42.716 100.721C42.8884 100.573 43.1356 100.362 43.4344 100.112C44.0322 99.6107 44.8354 98.952 45.6585 98.3195C46.4834 97.6855 47.3211 97.0836 47.9899 96.6922C48.3264 96.4954 48.6064 96.36 48.8137 96.297C48.8964 96.2719 48.9569 96.2618 48.998 96.2598C48.9928 96.3122 48.9745 96.3892 48.9351 96.4937C48.8504 96.7189 48.6905 97.0143 48.4693 97.3623C48.029 98.0551 47.376 98.9098 46.6962 99.7462C46.0177 100.581 45.3179 101.391 44.7873 101.992C44.5221 102.293 44.2994 102.541 44.1431 102.715C44.065 102.801 44.0034 102.869 43.9615 102.915C43.9405 102.938 43.9244 102.956 43.9136 102.967L43.8974 102.985C43.8974 102.985 43.8973 102.985 44.0969 103.182C44.2816 103.394 44.2816 103.394 44.2817 103.394L44.297 103.38C44.3015 103.376 44.3069 103.371 44.3133 103.365C44.3216 103.358 44.3314 103.349 44.3428 103.338C44.383 103.302 44.4422 103.248 44.5178 103.18C44.6692 103.044 44.8864 102.85 45.1494 102.62C45.6756 102.159 46.3838 101.555 47.1139 100.977C47.8461 100.398 48.5919 99.8523 49.1952 99.5048C49.4989 99.3299 49.7516 99.214 49.9402 99.1644C50.0347 99.1396 50.0974 99.1358 50.1339 99.14C50.1349 99.1401 50.1359 99.1402 50.1368 99.1403C50.137 99.144 50.1372 99.1483 50.1372 99.1532C50.1371 99.2004 50.1249 99.2751 50.0894 99.3813C50.0188 99.5929 49.8766 99.8705 49.6737 100.199C49.2701 100.852 48.6599 101.652 48.02 102.435C47.3817 103.215 46.7199 103.97 46.2172 104.531C45.966 104.811 45.7548 105.042 45.6064 105.203C45.5323 105.284 45.4739 105.347 45.4341 105.39C45.4141 105.411 45.3989 105.428 45.3886 105.439L45.3735 105.455L45.3733 105.455C45.3733 105.455 45.3733 105.455 45.5709 105.654C45.7686 105.853 45.7687 105.853 45.7687 105.853L45.7689 105.853L45.7848 105.836C45.7953 105.825 45.8108 105.808 45.831 105.787C45.8714 105.743 45.9304 105.68 46.0052 105.598C46.1547 105.436 46.3674 105.203 46.6203 104.921C47.1259 104.357 47.7932 103.596 48.4381 102.807C49.0815 102.02 49.7089 101.199 50.1307 100.517C50.3404 100.177 50.5077 99.8592 50.5978 99.5893C50.6427 99.4547 50.6736 99.3172 50.6737 99.1861C50.6739 99.0536 50.6418 98.9019 50.5333 98.7769C50.4275 98.6551 50.2901 98.603 50.1616 98.5883C50.037 98.5742 49.9062 98.5929 49.78 98.626C49.5272 98.6924 49.2294 98.8343 48.9137 99.0162C48.2823 99.3798 47.5194 99.9387 46.7871 100.517C46.8965 100.385 47.0061 100.252 47.1152 100.118C47.7981 99.2773 48.4662 98.4042 48.9229 97.6857C49.1501 97.3281 49.3328 96.997 49.4367 96.7208C49.4884 96.5834 49.5264 96.4451 49.5345 96.3151C49.5426 96.1872 49.5237 96.0279 49.4157 95.8949C49.3054 95.7588 49.1544 95.7134 49.0264 95.7058C48.9006 95.6982 48.7663 95.724 48.6353 95.7638C48.3716 95.8439 48.0516 96.0028 47.7054 96.2053C47.009 96.6128 46.1513 97.2303 45.3226 97.8672C45.0503 98.0764 44.7804 98.2883 44.5193 98.4965C44.5729 98.4294 44.6264 98.362 44.6797 98.2945C45.2145 97.6172 45.738 96.9136 46.0945 96.3375C46.2717 96.0513 46.4154 95.7844 46.4965 95.5612C46.5367 95.4507 46.5674 95.3352 46.5724 95.2245C46.5773 95.1156 46.5584 94.9685 46.4498 94.8485C46.3477 94.7357 46.2157 94.6997 46.1119 94.6907C46.0064 94.6815 45.8942 94.6964 45.7851 94.7214C45.5658 94.7716 45.301 94.8769 45.0165 95.0118C44.4439 95.2833 43.7402 95.6997 43.0616 96.1299C42.3813 96.5611 41.719 97.0109 41.2272 97.3525C40.9811 97.5234 40.7775 97.6674 40.6353 97.7688C40.5642 97.8195 40.5084 97.8595 40.4703 97.8869C40.4513 97.9006 40.4367 97.9112 40.4268 97.9183L40.4117 97.9293ZM44.0969 103.182L44.2817 103.394L43.8974 102.985L44.0969 103.182ZM42.2664 100.738L42.4465 100.954L42.0642 100.544L42.2664 100.738Z" fill="#222222"/>
<path d="M81.5347 39.7754C83.0933 42.625 86.6661 43.6728 89.5158 42.1142C92.0352 40.7372 93.1461 37.7833 92.2931 35.149C92.1807 34.8042 92.0362 34.4633 91.8546 34.1331C90.296 31.2834 86.7232 30.2357 83.8735 31.7943C82.3903 32.6055 81.3965 33.9609 81.002 35.4758C80.6384 36.8754 80.7872 38.4088 81.5347 39.7754Z" fill="#FDE50B"/>
<path d="M78.3887 34.3281C79.0383 35.5159 80.5266 35.9514 81.7144 35.3018C82.7648 34.728 83.2276 33.4973 82.8708 32.3994C82.8243 32.2561 82.7638 32.1136 82.6881 31.9762C82.0385 30.7884 80.5502 30.3529 79.3624 31.0024C78.7448 31.3409 78.3297 31.9048 78.166 32.5371C78.0147 33.1188 78.0763 33.7587 78.3887 34.3281Z" fill="#222222"/>
<path d="M82.1537 31.0486C82.5437 31.7611 83.4364 32.0229 84.149 31.6329C84.7792 31.2887 85.056 30.5513 84.8428 29.8917C84.814 29.8049 84.7779 29.7207 84.7334 29.6376C84.3434 28.925 83.4506 28.6632 82.738 29.0532C82.367 29.2567 82.1183 29.5947 82.0213 29.9733C81.9296 30.324 81.9672 30.707 82.1537 31.0486Z" fill="#222222"/>
<path fill-rule="evenodd" clip-rule="evenodd" d="M83.5825 41.3625C83.5826 41.3624 83.5827 41.3623 83.8383 41.6067C84.0938 41.8511 84.0939 41.851 84.0941 41.8509L84.095 41.85L84.0967 41.8484L84.1013 41.8441C84.1049 41.8407 84.1097 41.8363 84.1154 41.8308C84.1268 41.8198 84.1423 41.8046 84.1609 41.7855C84.1982 41.7475 84.2487 41.6936 84.306 41.6259C84.4197 41.4918 84.5651 41.2981 84.6858 41.0633C84.9306 40.5873 85.0808 39.9193 84.6326 39.2764L83.9623 39.7232C84.2325 40.111 84.1531 40.4964 83.9887 40.8162C83.9048 40.9794 83.8007 41.1191 83.7161 41.219C83.6742 41.2683 83.6383 41.3065 83.614 41.3314C83.6019 41.3438 83.5927 41.3527 83.5872 41.358C83.5845 41.3606 83.5827 41.3623 83.5819 41.3631C83.5815 41.3634 83.5814 41.3636 83.5815 41.3634L83.5819 41.3631L83.5823 41.3627L83.5825 41.3625Z" fill="#222222"/>
<path d="M83.1943 40.3451C82.7079 40.6111 82.1991 40.6173 82.0579 40.359C81.9167 40.1008 82.1965 39.6758 82.6828 39.4099C83.1692 39.1439 83.6779 39.1377 83.8192 39.3959C83.9604 39.6542 83.6806 40.0792 83.1943 40.3451Z" fill="#222222"/>
<path d="M85.7296 39.0177C85.2433 39.2836 84.7345 39.2899 84.5933 39.0316C84.4521 38.7734 84.7319 38.3484 85.2183 38.0825C85.7046 37.8165 86.2133 37.8103 86.3546 38.0685C86.4958 38.3268 86.216 38.7517 85.7296 39.0177Z" fill="#222222"/>
<path d="M90.3068 35.3684C90.9614 36.5539 92.2648 37.0955 93.2177 36.5826C94.0608 36.129 94.3461 34.9993 93.9498 33.9257C93.8978 33.7838 93.834 33.6446 93.7585 33.508C93.1048 32.3241 91.8005 31.7809 90.8476 32.2938C90.3513 32.5617 90.0485 33.0617 89.9639 33.6468C89.885 34.1873 89.9922 34.8005 90.3068 35.3684Z" fill="#FDE50B"/>
<path d="M81.2248 35.321C81.2248 35.321 83.6394 35.4541 86.5838 33.0875L88.4377 35.9478L90.1901 34.4322C90.1901 34.4322 89.764 32.4289 91.8076 32.1044C91.8076 32.1044 90.0924 28.6255 87.6801 29.078C83.4635 29.8692 81.1329 33.142 81.2248 35.321Z" fill="#222222"/>
<path fill-rule="evenodd" clip-rule="evenodd" d="M103.37 19.8463C107.42 13.4879 117.246 17.6769 115.362 24.958L115.361 24.9599L111.177 41.6206L111.712 41.7505L115.895 25.0916C115.896 25.0913 115.896 25.091 115.896 25.0907C117.936 17.2043 107.293 12.6664 102.905 19.5543C102.905 19.5543 102.905 19.5543 102.905 19.5543L86.2629 45.6743C86.2566 45.6781 86.2498 45.6823 86.2425 45.6867C86.193 45.7168 86.1205 45.7611 86.0287 45.8178C85.8451 45.9311 85.5837 46.0941 85.2724 46.2932C84.6502 46.6911 83.8264 47.2343 83.0234 47.8134C82.223 48.3907 81.4324 49.0114 80.8832 49.5641C80.6103 49.8388 80.3827 50.1107 80.2466 50.3631C80.1164 50.6045 80.0279 50.911 80.1956 51.1804C80.3628 51.4492 80.6677 51.5033 80.9355 51.4866C81.2106 51.4695 81.5362 51.3756 81.8787 51.2424C81.9626 51.2098 82.0488 51.1743 82.1369 51.1363C82.0561 51.2131 81.9792 51.2886 81.9068 51.3626C81.6489 51.6261 81.4333 51.8841 81.3037 52.1189C81.1844 52.3351 81.0824 52.6368 81.2603 52.8935C81.4338 53.1437 81.7498 53.1681 81.9996 53.1455C82.2717 53.1208 82.6002 53.029 82.952 52.901C83.6598 52.6435 84.5304 52.2135 85.3693 51.7603C86.2106 51.3057 87.0303 50.8221 87.639 50.4525C87.8318 50.3355 88.0036 50.2298 88.1484 50.1399C88.1423 50.3266 88.1544 50.5411 88.2101 50.7505C88.2908 51.054 88.4694 51.3657 88.8293 51.5437C89.1267 51.6908 89.5116 51.7284 89.9968 51.6412C90.0424 51.7887 90.1213 51.9802 90.2573 52.1571C90.403 52.3466 90.6162 52.5212 90.9185 52.6001C91.2187 52.6785 91.578 52.6549 92.0042 52.5011C92.0042 52.5011 92.0042 52.5011 92.0042 52.5011C92.1765 52.439 92.3817 52.2863 92.5967 52.0996C92.8216 51.9043 93.0892 51.6427 93.3912 51.3275C93.9957 50.6964 94.7515 49.836 95.6013 48.8274C97.3016 46.8092 99.3892 44.1845 101.416 41.5836C103.443 38.9822 105.41 36.4023 106.871 34.473C107.601 33.5083 108.205 32.7061 108.626 32.1451C108.837 31.8646 109.002 31.6443 109.114 31.4942C109.17 31.4191 109.213 31.3616 109.242 31.3228L109.286 31.2642C109.286 31.264 109.286 31.2639 109.065 31.1012C108.844 30.9384 108.844 30.9385 108.844 30.9386L108.801 30.997C108.772 31.0356 108.729 31.0931 108.673 31.168C108.561 31.3179 108.396 31.5379 108.186 31.8182C107.765 32.3787 107.161 33.1802 106.432 34.1443C104.972 36.0724 103.006 38.6501 100.981 41.2488C98.9559 43.848 96.8734 46.4661 95.18 48.4761C94.333 49.4815 93.586 50.3314 92.9936 50.9499C92.6971 51.2594 92.4428 51.5073 92.2361 51.6867C92.0197 51.8747 91.8839 51.9618 91.8196 51.985C91.4691 52.1114 91.2269 52.112 91.0616 52.0689C90.8985 52.0263 90.7824 51.9339 90.6958 51.8213C90.6069 51.7057 90.5516 51.5712 90.5188 51.4598C90.5027 51.4052 90.4928 51.3589 90.487 51.3272C90.4841 51.3114 90.4823 51.2994 90.4813 51.2921C90.4808 51.2885 90.4805 51.286 90.4804 51.2848L90.4804 51.285C90.4804 51.285 90.4804 51.2851 90.4801 51.2851L90.4804 51.2853L90.2062 51.315C90.4533 51.2882 90.4777 51.2855 90.4801 51.2851L90.1396 51.049C89.5882 51.1896 89.2645 51.1443 89.0772 51.0516C88.8982 50.9631 88.7965 50.8075 88.7431 50.6065C88.6883 50.4004 88.6913 50.1674 88.7123 49.9755C88.7226 49.8816 88.7367 49.802 88.7481 49.7465C88.7537 49.7188 88.7587 49.6973 88.762 49.6834C88.7637 49.6764 88.765 49.6713 88.7658 49.6682L88.7665 49.6654L88.5006 49.595C88.3524 49.3645 88.3524 49.3645 88.3523 49.3646L88.3522 49.3647L88.3514 49.3652L88.3347 49.3758C88.3228 49.3834 88.3051 49.3947 88.282 49.4094C88.2357 49.4388 88.1675 49.4819 88.0804 49.5366C87.9062 49.6458 87.6563 49.8009 87.3544 49.9842C86.7503 50.351 85.9392 50.8294 85.109 51.278C84.2762 51.728 83.4344 52.1422 82.766 52.3854C82.4296 52.5078 82.1541 52.5804 81.9533 52.5986C81.788 52.6136 81.731 52.5878 81.7168 52.5794C81.715 52.5627 81.7168 52.5069 81.7864 52.3809C81.8796 52.212 82.0537 51.9964 82.3002 51.7446C82.7896 51.2446 83.5098 50.656 84.2614 50.0888C84.5377 49.8803 84.8169 49.6756 85.0885 49.4805C85.5734 49.1688 86.0226 48.8665 86.3907 48.6133C86.6821 48.4128 86.9232 48.2428 87.0916 48.1228C87.1758 48.0628 87.2418 48.0153 87.2869 47.9827C87.3094 47.9664 87.3268 47.9538 87.3385 47.9453L87.3518 47.9356L87.3562 47.9324L87.3564 47.9322C87.3565 47.9322 87.3565 47.9322 87.1944 47.7113C87.0462 47.4808 87.0461 47.4808 87.0461 47.4809L87.0449 47.4816L87.0274 47.4929C87.0152 47.5008 86.9971 47.5124 86.9737 47.5276C86.9269 47.558 86.8584 47.6026 86.7716 47.6597C86.598 47.7738 86.351 47.9377 86.0567 48.1373C85.6885 48.387 85.2458 48.6929 84.7798 49.0274C84.5051 49.2039 84.2193 49.3831 83.9308 49.5576C83.1319 50.0409 82.3248 50.481 81.6813 50.7311C81.3571 50.8571 81.0946 50.9268 80.9049 50.9386C80.7079 50.9508 80.6712 50.8993 80.6648 50.8889L80.6646 50.8886C80.6582 50.8784 80.6275 50.814 80.7318 50.6203C80.8303 50.4377 81.0139 50.2104 81.2737 49.949C81.7899 49.4295 82.5504 48.8302 83.3447 48.2574C84.1363 47.6865 84.9507 47.1495 85.568 46.7547C85.8764 46.5575 86.1352 46.396 86.3167 46.284C86.4075 46.228 86.4789 46.1843 86.5275 46.1548C86.5518 46.14 86.5705 46.1287 86.5829 46.1211L86.597 46.1126L86.6005 46.1105L86.6013 46.11L86.6015 46.1099C86.6016 46.1099 86.6016 46.1099 86.4604 45.8751L86.6015 46.1099L86.6928 46.021L103.37 19.8463ZM87.1944 47.7113L87.0461 47.4809L87.3564 47.9322L87.1944 47.7113ZM88.7662 49.6651L88.7665 49.6654L88.7666 49.6652C88.7666 49.6652 88.7666 49.6652 88.7662 49.6651ZM88.7662 49.6651L88.3523 49.3646L88.5006 49.595" fill="#222222"/>
<path d="M86.3711 46.1951C86.3711 46.1951 79.6044 50.2454 80.2439 51.2643C80.8814 52.2828 87.0186 47.8844 87.0186 47.8844C87.0186 47.8844 80.6102 51.959 81.2144 52.8151C81.8186 53.6712 88.2263 49.5954 88.2263 49.5954" fill="white"/>
<path fill-rule="evenodd" clip-rule="evenodd" d="M86.6126 46.6135C86.6127 46.6134 86.6127 46.6134 86.4884 46.4063C86.3641 46.1991 86.3641 46.1991 86.364 46.1991L86.3591 46.2021L86.3448 46.2108C86.3323 46.2184 86.3137 46.2296 86.2896 46.2444C86.2414 46.2738 86.1709 46.317 86.0815 46.3723C85.9028 46.483 85.6485 46.6423 85.3457 46.8371C84.7403 47.2263 83.9394 47.7581 83.16 48.3268C82.3829 48.8938 81.618 49.5041 81.0904 50.0501C80.828 50.3216 80.6124 50.5892 80.4863 50.8373C80.3651 51.0759 80.2927 51.3675 80.4528 51.6258C80.6125 51.8837 80.8962 51.9452 81.1556 51.9347C81.421 51.924 81.7363 51.8379 82.0704 51.7112C82.2178 51.6553 82.3721 51.5902 82.5316 51.5176C82.3919 51.6482 82.2618 51.776 82.1441 51.8996C81.8962 52.1603 81.6919 52.4142 81.5718 52.6448C81.46 52.8595 81.3762 53.1441 81.544 53.3884C81.7079 53.6269 82.0003 53.6608 82.2448 53.6437C82.5081 53.6253 82.827 53.5411 83.1706 53.4197C83.8613 53.1758 84.7098 52.7606 85.5279 52.3202C86.3481 51.8787 87.1463 51.4072 87.739 51.0464C88.0355 50.8659 88.2808 50.713 88.4522 50.6051C88.5379 50.5511 88.6051 50.5084 88.6509 50.4791C88.6739 50.4645 88.6915 50.4532 88.7034 50.4456L88.7215 50.4339C88.7216 50.4338 88.7216 50.4338 88.5914 50.2303C88.4613 50.0268 88.4613 50.0268 88.4612 50.0268L88.457 50.0295L88.444 50.0379C88.4324 50.0454 88.4151 50.0564 88.3926 50.0708C88.3474 50.0997 88.281 50.1419 88.1961 50.1953C88.0263 50.3023 87.7829 50.454 87.4886 50.6332C86.8997 50.9917 86.1086 51.4589 85.2977 51.8954C84.4847 52.333 83.6604 52.735 83.0027 52.9673C82.672 53.0841 82.3977 53.1527 82.1946 53.1669C81.9728 53.1824 81.9256 53.1285 81.9226 53.1241L81.9225 53.1239C81.9212 53.1221 81.9136 53.1116 81.9175 53.075C81.9219 53.0327 81.9407 52.9692 81.986 52.8824C82.0766 52.7084 82.2465 52.4906 82.485 52.2399C82.9591 51.7415 83.6591 51.1593 84.3891 50.6007C84.6578 50.395 84.9295 50.1934 85.194 50.0012C85.6658 49.6962 86.1027 49.3998 86.4606 49.1513C86.7437 48.9548 86.9778 48.7879 87.1413 48.6701C87.2231 48.6112 87.2872 48.5645 87.3309 48.5326C87.3528 48.5166 87.3696 48.5042 87.3809 48.4959L87.3938 48.4863L87.3983 48.4831C87.3983 48.483 87.3984 48.483 87.2566 48.2875C87.1264 48.084 87.1264 48.084 87.1263 48.0841L87.1082 48.0958C87.0964 48.1035 87.0789 48.1149 87.0561 48.1298C87.0106 48.1595 86.944 48.2032 86.8596 48.259C86.6908 48.3707 86.4507 48.5313 86.1646 48.7269C85.8066 48.9718 85.3761 49.2722 84.9234 49.6008C84.6555 49.7739 84.3766 49.9496 84.0949 50.1204C83.3162 50.5927 82.5264 51.0221 81.893 51.2623C81.5742 51.3832 81.312 51.4494 81.1187 51.4572C80.9193 51.4653 80.8629 51.4114 80.8445 51.3817L80.8444 51.3814C80.826 51.3519 80.8021 51.2684 80.9025 51.0708C80.9981 50.8827 81.1773 50.6531 81.4289 50.3928C81.9292 49.8751 82.669 49.2829 83.4411 48.7196C84.211 48.1578 85.004 47.6312 85.6053 47.2445C85.9057 47.0514 86.1579 46.8934 86.3348 46.7838C86.4233 46.729 86.4929 46.6863 86.5404 46.6574C86.5641 46.6429 86.5823 46.6319 86.5944 46.6245L86.6082 46.6161L86.6126 46.6135ZM87.2566 48.2875L87.1263 48.0841L87.3983 48.4831L87.2566 48.2875Z" fill="#222222"/>
<path fill-rule="evenodd" clip-rule="evenodd" d="M116.957 63.6208L119.934 61.2009L119.632 60.9449L116.656 63.3648L116.957 63.6208Z" fill="white"/>
</svg>
