<svg width="307" height="240" viewBox="0 0 307 240" fill="none" xmlns="http://www.w3.org/2000/svg">
<path d="M283.567 21.2053C268.429 18.1686 253.693 27.981 250.659 43.1229C247.624 58.2626 257.439 72.9944 272.579 76.0288C280.412 77.5995 288.137 75.7299 294.189 71.4607C296.178 70.0602 297.987 68.4001 299.557 66.5174C302.446 63.0554 304.538 58.845 305.487 54.1133C308.521 38.9737 298.706 24.2398 283.567 21.2053ZM291.963 51.4017C291.484 53.7992 290.423 55.9328 288.96 57.6867C288.163 58.6422 287.247 59.4842 286.239 60.1932C283.172 62.3573 279.258 63.3041 275.288 62.5078C267.616 60.9699 262.644 53.5047 264.182 45.8323C265.72 38.16 273.185 33.1883 280.857 34.7263C288.53 36.2642 293.501 43.7294 291.963 51.4017Z" fill="#D7D7D7"/>
<path d="M257.046 66.657C259.902 63.9847 263.357 63.0946 267.199 63.1732C271.579 63.2626 275.563 64.9424 279.69 66.2142C286.056 68.1776 294.616 68.3804 298.595 61.9668C300.142 59.4733 300.72 56.2403 299.559 53.4764C298.41 50.7364 295.829 49.1483 293.133 48.1971C290.007 47.0955 286.656 46.705 283.593 45.4135C280.192 43.9803 277.212 41.4737 275.371 38.2581C272.349 32.9789 272.504 24.3314 278.2 20.8671C278.477 20.6992 278.231 20.276 277.947 20.433C273 23.1512 271.922 29.1504 272.982 34.3096C274.274 40.5902 279.516 45.1888 285.484 46.9907C288.615 47.9353 291.99 48.3542 294.913 49.8856C298.089 51.5501 299.871 54.7155 299.134 58.3063C298.366 62.0388 295.53 64.7962 291.955 65.9306C288.045 67.1719 283.951 66.6047 280.096 65.4747C275.644 64.1701 271.401 62.4424 266.686 62.4969C262.873 62.5427 259.5 63.6422 256.75 66.3538C256.553 66.5523 256.848 66.8425 257.046 66.657Z" fill="white"/>
<path d="M286.582 21.7986C284.911 25.8126 285.953 29.927 289.125 32.8633C290.886 34.4929 293.189 35.3655 295.449 36.0527C298.192 36.886 301.086 37.9157 303.936 38.2691C304.204 38.3018 304.317 37.8633 304.075 37.7542C299.69 35.7865 294.38 35.7756 290.393 32.896C288.949 31.8533 287.688 30.3611 286.933 28.7446C285.903 26.5369 286.038 24.1307 286.811 21.8641C286.861 21.7136 286.638 21.6612 286.582 21.7986Z" fill="white"/>
<path d="M263.933 72.8242C270.12 70.4201 278.011 71.7007 283.056 76.0026C283.261 76.1772 283.615 75.9525 283.451 75.6972C281.638 72.8591 277.605 71.8447 274.518 71.271C270.831 70.586 267.205 70.911 263.778 72.4555C263.573 72.5515 263.719 72.9071 263.933 72.8242Z" fill="white"/>
<path d="M259.906 27.4902C260.526 32.9986 260.794 38.5876 259.418 44.0108C258.741 46.6766 257.74 49.2595 256.377 51.6505C255.057 53.9651 253.333 55.8739 251.723 57.9681C251.56 58.1797 251.878 58.483 252.09 58.3346C254.178 56.8686 255.785 54.4319 257.048 52.2591C258.466 49.8223 259.516 47.1587 260.205 44.4275C261.612 38.8472 261.427 33.0422 260.266 27.4423C260.227 27.2416 259.882 27.2808 259.906 27.4902Z" fill="white"/>
<path d="M262.037 91.6484L274.007 113.967L299.178 116.762L281.649 135.041L286.771 159.845L263.97 148.822L241.963 161.356L245.399 136.265L226.677 119.21L251.603 114.725L262.037 91.6484Z" fill="#FBC73B"/>
<path d="M256.385 104.122C257.338 104.705 258.632 104.862 259.705 105.146C260.953 105.477 262.205 105.796 263.458 106.112C265.824 106.708 268.228 107.484 270.667 107.681C270.892 107.698 270.888 107.395 270.715 107.323C268.416 106.356 265.864 105.935 263.44 105.364C262.251 105.082 261.062 104.807 259.871 104.541C258.772 104.295 257.57 103.839 256.44 103.917C256.333 103.924 256.287 104.064 256.385 104.122Z" fill="white"/>
<path d="M240.443 119.48C241.25 119.886 242.175 120.052 243.048 120.266C244.317 120.575 245.587 120.881 246.854 121.193C250.209 122.022 253.578 122.801 256.937 123.612C264.108 125.344 271.294 127.035 278.484 128.688C281.071 129.284 283.654 129.895 286.274 130.344C286.501 130.383 286.597 130.065 286.37 129.993C280.91 128.252 275.221 127.144 269.642 125.848C262.467 124.181 255.29 122.539 248.111 120.89C246.597 120.543 245.081 120.2 243.569 119.851C242.57 119.62 241.529 119.286 240.5 119.275C240.395 119.273 240.345 119.43 240.443 119.48Z" fill="white"/>
<path d="M244.841 138.352C246.215 139.081 247.98 139.284 249.483 139.664C251.104 140.074 252.725 140.477 254.346 140.887C257.655 141.729 260.973 142.541 264.289 143.361C270.899 144.993 277.528 146.93 284.25 148.045C284.477 148.082 284.573 147.768 284.346 147.694C277.871 145.589 271.095 144.258 264.481 142.663C261.23 141.88 257.98 141.092 254.725 140.327C253.026 139.928 251.328 139.524 249.631 139.125C248.126 138.771 246.451 138.132 244.897 138.145C244.791 138.147 244.742 138.3 244.841 138.352Z" fill="white"/>
<path d="M264.908 97.2855C263.083 103.93 261.451 110.634 259.784 117.327C257.153 127.903 254.457 138.468 251.955 149.075C251.396 151.442 250.774 154.214 250.236 156.398C250.142 156.775 250.726 156.937 250.82 156.559C252.411 150.1 254.228 143.126 255.853 136.494C258.447 125.907 261.043 115.32 263.604 104.724C264.195 102.283 264.734 99.8358 265.266 97.3859C265.319 97.1503 264.972 97.0521 264.908 97.2855Z" fill="white"/>
<path d="M278.484 114.417C276.678 120.503 275.347 126.753 273.811 132.916C273.043 136.001 272.265 139.081 271.484 142.161C270.709 145.229 269.775 148.304 269.215 151.417C269.147 151.799 269.671 151.952 269.799 151.579C270.816 148.588 271.475 145.436 272.249 142.373C273.028 139.293 273.789 136.206 274.548 133.119C276.062 126.952 277.733 120.769 278.844 114.515C278.883 114.284 278.552 114.183 278.484 114.417Z" fill="white"/>
<path d="M199.873 208.844L194.502 220.172L214.278 240L180.794 226.996L190.916 205.214" fill="#FBC73B"/>
<path fill-rule="evenodd" clip-rule="evenodd" d="M200.393 222.651L193.12 224.521L192.957 223.887L200.23 222.017L200.393 222.651Z" fill="white"/>
<path fill-rule="evenodd" clip-rule="evenodd" d="M203.061 225.094L195.786 226.962L195.623 226.328L202.898 224.461L203.061 225.094Z" fill="white"/>
<path fill-rule="evenodd" clip-rule="evenodd" d="M205.727 227.538L198.452 229.405L198.289 228.771L205.564 226.904L205.727 227.538Z" fill="white"/>
<path d="M126.668 197.884L132.316 209.108L113.029 229.304L146.188 215.672L135.536 194.086" fill="#FBC73B"/>
<path fill-rule="evenodd" clip-rule="evenodd" d="M126.636 211.062L133.955 212.792L133.805 213.429L126.486 211.699L126.636 211.062Z" fill="white"/>
<path fill-rule="evenodd" clip-rule="evenodd" d="M124.03 213.556L131.348 215.286L131.198 215.923L123.879 214.193L124.03 213.556Z" fill="white"/>
<path fill-rule="evenodd" clip-rule="evenodd" d="M121.425 216.047L128.742 217.777L128.591 218.414L121.274 216.684L121.425 216.047Z" fill="white"/>
<path d="M124.369 203.865L103.234 167.004C98.4917 158.732 99.4538 148.143 105.597 141.038L127.148 116.108C135.416 106.544 147.207 101.302 159.443 101.751C172.105 102.216 183.92 108.721 191.603 119.463L213.287 149.77C217.609 155.809 218.898 163.695 216.745 170.905L202.696 217.934L178.254 206.673L189.474 166.531L157.078 132.059L130.333 157.331L147.639 192.367L124.369 203.865Z" fill="#001A39"/>
<path d="M164.989 140.523C168.773 138.304 173.907 136.575 178.115 138.614C181.553 140.281 183.745 143.678 185.898 146.684C190.34 152.884 195.97 158.778 203.966 159.629C208.265 160.087 213.361 159.12 216.719 156.232C217.035 155.959 216.631 155.493 216.289 155.674C214.321 156.712 212.458 157.746 210.275 158.287C208.115 158.822 205.857 158.939 203.649 158.665C199.378 158.13 195.613 156.036 192.48 153.15C189.589 150.486 187.362 147.299 185.028 144.164C183.071 141.535 180.82 138.843 177.654 137.674C173.359 136.088 168.512 137.971 164.814 140.231C164.629 140.342 164.799 140.634 164.989 140.523Z" fill="white"/>
<path d="M195.309 124.862C193.003 129.371 191.398 135.292 194.69 139.779C196.171 141.799 198.425 142.986 200.73 143.832C203.636 144.899 206.85 145.805 209.963 145.706C210.242 145.698 210.307 145.29 210.03 145.213C205.283 143.913 199.203 143.603 195.743 139.605C192.183 135.49 193.693 129.537 195.863 125.183C196.044 124.818 195.497 124.493 195.309 124.862Z" fill="white"/>
<path d="M183.034 189.223C185.63 191.409 186.444 194.973 186.359 198.235C186.261 202.07 184.535 205.395 182.923 208.787C182.792 209.062 183.161 209.42 183.381 209.14C187.631 203.748 189.511 193.647 183.276 188.911C183.097 188.774 182.862 189.079 183.034 189.223Z" fill="white"/>
<path d="M114.541 186.981C119.207 186.472 123.884 186.848 128.278 188.573C132.597 190.27 136.363 193.185 139.478 196.592C139.711 196.848 140.056 196.479 139.851 196.219C133.869 188.645 124.015 184.771 114.473 186.472C114.19 186.525 114.251 187.013 114.541 186.981Z" fill="white"/>
<path d="M134.583 166.125C131.803 168.743 129.569 172.753 131.262 176.592C132.048 178.372 133.627 179.542 135.37 180.301C137.473 181.217 139.971 181.906 142.283 181.756C142.604 181.736 142.709 181.25 142.362 181.169C138.957 180.371 134.177 180.004 132.227 176.594C130.191 173.034 132.349 169.035 134.947 166.492C135.187 166.256 134.825 165.896 134.583 166.125Z" fill="white"/>
<path d="M141.483 105.444C144.491 106.954 147.665 108.167 150.863 109.21C153.955 110.218 157.19 111.02 160.464 110.905C164.528 110.761 170.794 109.168 171.42 104.269C171.463 103.928 170.953 103.834 170.8 104.101C170.244 105.078 169.836 106.053 169.024 106.869C168.276 107.622 167.373 108.198 166.409 108.632C164.153 109.646 161.518 110.028 159.064 109.947C153.036 109.753 147.214 107.122 141.631 105.093C141.426 105.019 141.289 105.346 141.483 105.444Z" fill="white"/>
<path d="M118.278 126.42C121.044 127.829 124.088 128.73 127.122 129.345C129.947 129.919 132.955 130.394 135.844 130.15C138.272 129.945 140.658 129.074 142.155 127.059C143.717 124.954 143.217 122.938 142.62 120.597C142.233 119.09 142.225 117.563 143.922 116.899C145.407 116.319 147.257 116.426 148.795 116.705C151.963 117.283 154.812 118.859 157.626 120.342C160.192 121.694 162.831 123.03 165.715 123.536C168.342 123.998 171.042 123.821 173.623 123.178C176.664 122.419 179.548 121.038 182.157 119.317C184.358 117.866 186.215 116.136 186.904 113.509C187.033 113.021 186.315 112.831 186.154 113.302C185.305 115.807 183.394 117.375 181.23 118.752C178.852 120.263 176.274 121.472 173.54 122.179C170.706 122.912 167.729 123.082 164.869 122.384C162.033 121.692 159.461 120.261 156.895 118.915C154.406 117.609 151.828 116.337 149.038 115.824C147.02 115.453 144.088 115.202 142.414 116.688C140.654 118.25 141.675 120.571 142.118 122.473C142.781 125.333 140.97 127.766 138.294 128.704C135.146 129.807 131.343 129.24 128.134 128.704C124.799 128.145 121.622 127.144 118.42 126.086C118.224 126.025 118.095 126.326 118.278 126.42Z" fill="white"/>
<path d="M187.445 174.256C191.42 172.083 195.309 169.707 199.884 169.046C202.135 168.721 204.509 168.957 206.405 170.31C208.427 171.752 209.121 174.051 208.501 176.427C207.899 178.737 206.487 180.818 205.32 182.873C204.118 184.989 202.914 187.103 201.71 189.217C199.742 192.674 197.659 196.566 198.124 200.685C198.571 204.64 201.621 208.207 205.072 210.004C205.384 210.168 205.617 209.743 205.342 209.542C201.758 206.909 198.566 203.377 198.929 198.626C199.295 193.813 202.471 189.393 204.782 185.314C205.981 183.196 207.301 181.106 208.337 178.9C209.184 177.098 209.816 175.052 209.26 173.069C208.246 169.441 204.197 167.98 200.774 168.244C198.311 168.433 195.898 169.243 193.636 170.198C191.359 171.16 189.088 172.334 187.238 173.994C187.094 174.123 187.281 174.345 187.445 174.256Z" fill="white"/>
<path d="M107.405 175.517C110.444 176.828 115.165 177.657 117.423 174.507C118.819 172.561 118.424 170.083 117.595 167.993C116.579 165.427 115.049 163.093 113.961 160.556C111.823 155.576 110.75 149.186 114.391 144.594C117.096 141.182 121.751 139.969 125.937 140.259C131.662 140.656 136.548 144.024 140.782 147.628C141.055 147.859 141.419 147.504 141.177 147.233C135.403 140.811 125.167 136.415 117.019 141.132C113.012 143.451 111.02 147.774 111.077 152.323C111.109 155.03 111.81 157.676 112.822 160.174C113.843 162.696 115.263 165.004 116.393 167.469C117.656 170.22 118.278 174.114 114.818 175.497C112.547 176.405 109.825 175.833 107.63 174.98C107.325 174.864 107.102 175.386 107.405 175.517Z" fill="white"/>
<path d="M174.256 61.2361C176.797 74.4407 168.152 87.2048 154.947 89.7463C141.742 92.2877 128.978 83.6423 126.437 70.4377" fill="#001A39"/>
<path d="M27.0996 73.3892C11.0611 72.2767 -1.03969 58.3739 0.0706993 42.3354C1.18327 26.2969 15.086 14.1961 31.1245 15.3065" fill="#F96155"/>
<path d="M135.401 46.2033C135.451 52.486 140.584 57.5362 146.867 57.4839C152.421 57.438 157.011 53.4219 157.966 48.1513C158.091 47.4598 158.154 46.7486 158.147 46.02C158.097 39.7394 152.964 34.6871 146.681 34.7394C143.413 34.7656 140.479 36.1661 138.422 38.3913C136.526 40.4419 135.377 43.1928 135.401 46.2033Z" fill="#FBC73B"/>
<path d="M138.422 38.3891C141.522 44.3882 147.807 48.4655 155.021 48.4088C156.023 48.4 157.006 48.3128 157.964 48.1514C158.088 47.4598 158.152 46.7486 158.145 46.02C158.095 39.7394 152.962 34.6871 146.679 34.7394C143.413 34.7634 140.479 36.1661 138.422 38.3891Z" fill="#001A39"/>
<path d="M151.446 35.4157C153.84 35.4157 155.78 33.4751 155.78 31.0811C155.78 28.6871 153.84 26.7464 151.446 26.7464C149.052 26.7464 147.111 28.6871 147.111 31.0811C147.111 33.4751 149.052 35.4157 151.446 35.4157Z" fill="#001A39"/>
<path d="M145.739 27.7782C152.552 27.7782 158.075 22.255 158.075 15.4418C158.075 8.62857 152.552 3.10535 145.739 3.10535C138.926 3.10535 133.402 8.62857 133.402 15.4418C133.402 22.255 138.926 27.7782 145.739 27.7782Z" fill="#001A39"/>
<path d="M141.735 49.9925C141.78 49.0128 141.31 48.1951 140.684 48.166C140.058 48.137 139.514 48.9075 139.468 49.8872C139.423 50.8668 139.893 51.6846 140.519 51.7136C141.145 51.7427 141.689 50.9721 141.735 49.9925Z" fill="#001A39"/>
<path d="M145.493 50.2916C145.538 49.312 145.068 48.4943 144.442 48.4652C143.816 48.4362 143.272 49.2067 143.227 50.1864C143.181 51.166 143.651 51.9838 144.277 52.0128C144.903 52.0419 145.447 51.2713 145.493 50.2916Z" fill="#001A39"/>
<path fill-rule="evenodd" clip-rule="evenodd" d="M140.27 54.4675C140.27 54.4676 140.27 54.4676 140.187 54.0393C140.104 53.6109 140.104 53.611 140.104 53.611L140.103 53.6111L140.103 53.6112L140.102 53.6113C140.102 53.6113 140.102 53.6112 140.103 53.6111C140.105 53.6108 140.108 53.6101 140.113 53.609C140.122 53.6069 140.138 53.6033 140.159 53.5978C140.2 53.587 140.263 53.5692 140.339 53.5428C140.492 53.4895 140.693 53.4038 140.89 53.2748C141.276 53.0212 141.625 52.6204 141.614 51.9478L142.486 51.9335C142.503 52.993 141.921 53.6415 141.368 54.0042C141.096 54.1833 140.825 54.2975 140.625 54.3671C140.524 54.4021 140.439 54.4265 140.378 54.4425C140.347 54.4505 140.322 54.4564 140.304 54.4605C140.295 54.4625 140.287 54.4641 140.281 54.4653L140.274 54.4668L140.272 54.4673L140.271 54.4675L140.27 54.4675Z" fill="#001A39"/>
<path fill-rule="evenodd" clip-rule="evenodd" d="M63.0533 22.7027L63.8257 22.4747L88.6167 52.9907L117.916 66.7311L117.545 67.5211L88.1558 53.7384L88.0024 53.6185L63.808 23.8368L61.953 40.9234C61.9688 40.9577 61.9883 40.9999 62.0114 41.0497C62.0828 41.204 62.1885 41.4313 62.3256 41.7227C62.5997 42.3055 62.9991 43.1445 63.4993 44.1685C64.5 46.2167 65.9037 49.0033 67.5165 51.9579C69.1297 54.9135 70.9492 58.0316 72.7811 60.745C74.619 63.4672 76.4473 65.7484 78.0737 67.059C79.7107 68.3777 82.7654 70.062 86.4674 71.8564C90.1573 73.6449 94.4524 75.5251 98.5421 77.238C102.631 78.9506 106.511 80.4945 109.368 81.6102C110.797 82.1681 111.97 82.6188 112.786 82.93C113.194 83.0856 113.512 83.2064 113.729 83.2881C113.837 83.329 113.92 83.3602 113.975 83.3811L114.058 83.4122L114.059 83.4125C114.059 83.4126 114.059 83.4127 113.906 83.8212C113.753 84.2298 113.753 84.2298 113.753 84.2297L113.752 84.2293L113.668 84.1978C113.612 84.1768 113.529 84.1455 113.42 84.1044C113.203 84.0223 112.884 83.9013 112.475 83.7453C111.657 83.4334 110.482 82.9818 109.051 82.4231C106.189 81.3056 102.302 79.7591 98.205 78.0429C94.1084 76.327 89.797 74.44 86.0868 72.6417C82.3889 70.8493 79.25 69.1271 77.5263 67.7386C75.7932 66.3419 73.905 63.9691 72.0579 61.2333C70.2048 58.4885 68.3708 55.3443 66.7505 52.376C65.1297 49.4067 63.7198 46.6078 62.7153 44.5515C62.2129 43.5232 61.8117 42.6803 61.536 42.0941C61.3981 41.801 61.2916 41.5721 61.2195 41.4163C61.1834 41.3384 61.156 41.2787 61.1375 41.2385L61.1165 41.1928L61.1095 41.1774C61.1094 41.1772 61.1093 41.1771 61.5063 40.996L61.1093 41.1771L61.0725 40.9489L63.0533 22.7027Z" fill="#001A39"/>
<path fill-rule="evenodd" clip-rule="evenodd" d="M91.0792 106.251L115.356 84.8531L115.933 85.5077L91.5812 106.972L91.4101 107.064L53.9558 117.527L58.3112 126.282C58.3444 126.281 58.3806 126.28 58.4196 126.279C58.6721 126.272 59.0436 126.261 59.5194 126.247C60.4709 126.217 61.839 126.17 63.5048 126.101C66.8366 125.963 71.3578 125.737 76.1167 125.386C80.8768 125.036 85.8686 124.56 90.1436 123.924C94.4408 123.284 97.9468 122.489 99.7835 121.526C101.645 120.551 104.407 118.42 107.528 115.74C110.639 113.069 114.075 109.879 117.276 106.81C120.476 103.742 123.438 100.799 125.6 98.6228C126.681 97.5347 127.562 96.6384 128.173 96.0142C128.478 95.7021 128.716 95.4581 128.877 95.2922C128.957 95.2092 129.019 95.1458 129.06 95.1031L129.122 95.0396L129.123 95.0389C129.123 95.0387 129.123 95.0387 129.436 95.3419C129.75 95.6451 129.75 95.6452 129.75 95.6453L129.687 95.7103C129.645 95.7533 129.584 95.8171 129.503 95.9003C129.341 96.0669 129.102 96.3116 128.796 96.6244C128.185 97.2499 127.302 98.1478 126.219 99.2378C124.054 101.418 121.087 104.366 117.88 107.44C114.673 110.514 111.225 113.716 108.097 116.402C104.979 119.079 102.149 121.272 100.189 122.299C98.2033 123.34 94.5556 124.149 90.2721 124.787C85.9665 125.428 80.9506 125.905 76.1808 126.257C71.4097 126.608 66.8787 126.834 63.5409 126.973C61.8718 127.042 60.5007 127.089 59.5467 127.119C59.0697 127.134 58.6969 127.144 58.4432 127.151C58.3164 127.155 58.2194 127.157 58.154 127.159L58.055 127.161C58.0547 127.161 58.0546 127.161 58.0444 126.725L58.0546 127.161L57.6537 126.919L52.9395 117.443L53.2127 116.828L91.0792 106.251Z" fill="#001A39"/>
<path fill-rule="evenodd" clip-rule="evenodd" d="M237.281 25.1453L212.948 46.9232L212.767 47.0202L181.016 55.347L180.794 54.503L212.444 46.2028L237.069 24.1635L237.72 24.2424L245.258 35.2699L245.25 35.773L244.897 35.5161C245.25 35.773 245.25 35.7731 245.25 35.7733L245.249 35.7742L245.202 35.839C245.17 35.8822 245.123 35.9464 245.061 36.0302C244.938 36.1978 244.756 36.4439 244.523 36.7585C244.055 37.3877 243.379 38.2908 242.543 39.3873C240.872 41.58 238.564 44.5474 236.016 47.6449C233.469 50.7414 230.677 53.9726 228.04 56.691C225.413 59.3985 222.905 61.6343 220.927 62.7021C218.964 63.7614 215.53 64.8966 211.525 66.0014C207.507 67.1098 202.873 68.1982 198.483 69.1564C194.092 70.1148 189.941 70.9438 186.889 71.5332C185.362 71.8279 184.11 72.0627 183.239 72.2239C182.804 72.3045 182.464 72.3667 182.233 72.4087C182.117 72.4298 182.028 72.4458 181.969 72.4565L181.88 72.4725L181.879 72.4727C181.878 72.4728 181.878 72.4728 181.801 72.0433C181.725 71.6138 181.725 71.6138 181.725 71.6138L181.726 71.6136L181.814 71.5978C181.873 71.5871 181.961 71.5712 182.076 71.5502C182.307 71.5083 182.646 71.4463 183.08 71.3659C183.949 71.205 185.199 70.9706 186.723 70.6764C189.772 70.0879 193.915 69.2603 198.297 68.3039C202.68 67.3472 207.297 66.2626 211.293 65.1602C215.303 64.0541 218.647 62.9408 220.512 61.9342C222.362 60.936 224.789 58.7886 227.414 56.0834C230.027 53.389 232.802 50.178 235.342 47.0905C237.881 44.0039 240.183 41.0455 241.849 38.8584C242.682 37.765 243.356 36.8647 243.822 36.238C244.055 35.9246 244.236 35.6796 244.358 35.5131C244.36 35.5111 244.361 35.5092 244.363 35.5072L237.281 25.1453Z" fill="#001A39"/>
<path d="M30.2147 0.941274C45.7754 -3.09888 61.6677 6.24019 65.7079 21.8009C69.7481 37.3616 60.409 53.2539 44.8483 57.2941" fill="#F96155"/>
<path d="M30.4197 21.2905C23.0441 22.8176 15.6597 24.3119 8.31671 26.0004C7.35466 26.2229 6.05011 26.6156 5.25386 26.7901C4.88082 26.873 5.03788 27.4446 5.41092 27.3617C8.00692 26.7901 11.1832 26.2317 13.9559 25.6165C18.4694 24.613 22.9721 23.5637 27.4747 22.5122C28.5022 22.2722 29.5297 22.0323 30.5572 21.7923C30.8866 21.7159 30.747 21.2229 30.4197 21.2905Z" fill="white"/>
<path d="M1.829 33.1316C6.58688 33.7839 11.4582 33.8755 16.2466 34.1591C19.0847 34.327 21.9229 34.5256 24.761 34.6914C26.3601 34.7852 27.9853 34.687 29.5778 34.7983C29.844 34.8179 29.8418 34.4034 29.5778 34.3838C28.1882 34.2856 26.5281 33.9628 25.0512 33.8537C22.1912 33.6421 19.3269 33.4741 16.4625 33.3366C11.624 33.1054 6.71994 32.6647 1.87262 32.8044C1.69592 32.8087 1.63485 33.1054 1.829 33.1316Z" fill="white"/>
<path d="M28.607 51.042C20.3806 50.3243 12.1497 49.6196 3.91011 49.0699C2.74518 48.9913 1.56284 49.0415 0.400091 48.9564C0.101224 48.9346 0.103405 49.3993 0.400091 49.4211C3.39749 49.6458 6.78316 50.0603 9.91363 50.285C14.9726 50.6471 20.0337 51.0179 25.097 51.3321C26.2663 51.4041 27.4377 51.4782 28.607 51.5502C28.9386 51.5742 28.9321 51.0703 28.607 51.042Z" fill="white"/>
<path d="M8.06807 64.6239C10.3543 64.3141 12.6144 63.736 14.8701 63.2539C18.5154 62.4773 22.1715 61.7137 25.795 60.8455C26.395 60.7015 26.9992 60.5772 27.5948 60.4201C27.7933 60.3677 28.2776 60.1954 28.2776 60.1954C28.7008 60.1016 28.5219 59.4493 28.0987 59.5453C28.1969 59.5235 27.6537 59.5824 27.5381 59.602C27.0429 59.6871 26.5498 59.8158 26.059 59.9183C24.473 60.2521 22.8936 60.6143 21.3142 60.9764C17.6798 61.8076 14.0454 62.6365 10.4197 63.5004C9.58641 63.6989 8.75747 63.9018 7.9394 64.1614C7.63617 64.2574 7.76921 64.6653 8.06807 64.6239Z" fill="white"/>
<path d="M46.0505 1.06124C45.276 1.02633 44.4514 1.35792 43.7097 1.55644C42.0169 2.0102 40.3306 2.48357 38.6421 2.95696C36.9558 3.43034 35.2672 3.90814 33.5897 4.41643C33.0508 4.58004 32.5164 4.76108 31.9775 4.93342C31.8205 4.98359 31.6547 5.02285 31.5042 5.08611C31.4147 5.1232 31.0875 5.26067 31.3798 5.17777C30.9937 5.28903 31.1595 5.89113 31.5456 5.77987C31.2424 5.86713 31.598 5.80824 31.6961 5.79079C31.8576 5.76243 32.019 5.71006 32.1782 5.66861C32.7236 5.52681 33.2734 5.39807 33.8165 5.24973C35.5072 4.78725 37.1891 4.29643 38.8711 3.79904C40.553 3.30166 42.2328 2.80647 43.9082 2.28945C44.6412 2.06258 45.5182 1.9055 46.1552 1.46484C46.3319 1.34049 46.2708 1.07214 46.0505 1.06124Z" fill="white"/>
<path d="M62.224 13.5285C56.1092 15.0141 49.9792 16.4386 43.86 17.9002C40.9783 18.5896 38.1183 19.4164 35.2409 20.0905C34.87 20.1777 35.0271 20.7493 35.3979 20.6621C38.0659 20.036 41.2662 19.412 44.0869 18.7248C50.1995 17.2392 56.2859 15.6576 62.3614 14.0302C62.6865 13.9451 62.549 13.45 62.224 13.5285Z" fill="white"/>
<path d="M38.9801 35.6535C41.9797 36.1814 45.0469 36.3974 48.0705 36.7442C50.913 37.0693 53.7577 37.3878 56.6002 37.7172C58.6595 37.9549 60.7145 38.1884 62.776 38.3825C63.5308 38.4523 64.4776 38.4327 65.1561 38.5178C65.42 38.5505 65.4178 38.136 65.1561 38.1033C64.4274 38.0117 63.4829 37.7543 62.6844 37.6343C60.7145 37.3398 58.7402 37.0976 56.7572 36.8751C53.9911 36.5632 51.225 36.2687 48.4544 36.0047C45.3305 35.708 42.1652 35.3219 39.0238 35.324C38.8427 35.3262 38.7903 35.6186 38.9801 35.6535Z" fill="white"/>
<path d="M53.5353 53.1886C51.8752 52.9682 50.2172 52.7697 48.5527 52.5908C47.4249 52.4709 46.2992 52.3335 45.1692 52.2462C44.6871 52.2091 43.9126 52.2789 43.5701 52.244C43.2713 52.2157 43.2734 52.6803 43.5701 52.7086C43.8952 52.7392 44.6216 52.953 45.0863 53.0075C46.2381 53.145 47.3965 53.23 48.5527 53.3282C50.2129 53.4722 51.873 53.5943 53.5353 53.6969C53.8713 53.7209 53.8516 53.23 53.5353 53.1886Z" fill="white"/>
<path d="M66.2053 36.2709C66.2053 36.2709 59.1743 24.9575 60.1298 23.4457C61.0853 21.9361 68.1447 30.0928 68.1447 30.0928" fill="white"/>
<path fill-rule="evenodd" clip-rule="evenodd" d="M60.4929 23.6957C60.5169 23.6953 60.5615 23.6989 60.6325 23.7185C60.844 23.7769 61.149 23.937 61.5366 24.206C62.3009 24.7362 63.2512 25.5926 64.19 26.5145C65.1244 27.4321 66.0308 28.3982 66.7047 29.1361C67.0413 29.5048 67.3193 29.8158 67.513 30.0345C67.6098 30.1439 67.6855 30.2301 67.7369 30.2888C67.7626 30.3182 67.7822 30.3407 67.7953 30.3558L67.8101 30.3728L67.8147 30.3781L67.8149 30.3783C67.8149 30.3783 67.8149 30.3783 68.1448 30.0928C68.4747 29.8073 68.4747 29.8072 68.4746 29.8071L68.4537 29.7831C68.4401 29.7674 68.4199 29.7443 68.3937 29.7143C68.3412 29.6543 68.2643 29.5668 68.1662 29.456C67.9701 29.2345 67.6891 28.9201 67.349 28.5477C66.6694 27.8034 65.7513 26.8247 64.8014 25.8919C63.8559 24.9633 62.8621 24.0635 62.0341 23.489C61.6255 23.2056 61.2222 22.9761 60.8648 22.8774C60.6843 22.8275 60.482 22.8014 60.2826 22.8457C60.0677 22.8936 59.8844 23.0179 59.7613 23.2124L59.7611 23.2126C59.6393 23.4054 59.6056 23.6322 59.6044 23.8363C59.6031 24.0468 59.6364 24.2807 59.6907 24.5254C59.7995 25.0154 60.0066 25.608 60.2727 26.2537C60.8065 27.5486 61.6046 29.1207 62.4259 30.6334C63.2487 32.1487 64.1008 33.6153 64.7467 34.7024C65.0697 35.2461 65.3415 35.6954 65.5326 36.0089C65.6282 36.1657 65.7036 36.2885 65.7552 36.3722C65.781 36.4141 65.8008 36.4462 65.8143 36.4679L65.8347 36.501C65.8348 36.5011 65.8348 36.5012 66.2054 36.2709C66.576 36.0406 66.576 36.0405 66.5759 36.0405L66.5563 36.0088C66.5432 35.9876 66.5236 35.956 66.4982 35.9146C66.4472 35.8319 66.3725 35.7102 66.2777 35.5547C66.088 35.2436 65.818 34.7972 65.4968 34.2567C64.8543 33.1752 64.0083 31.719 63.1928 30.217C62.3759 28.7125 61.5953 27.1727 61.0795 25.9212C60.8209 25.2937 60.6354 24.7544 60.5426 24.3363C60.4961 24.127 60.4763 23.9628 60.477 23.8415C60.4775 23.7626 60.4866 23.7176 60.4929 23.6957Z" fill="#001A39"/>
<path d="M220.246 8.38314L214.337 17.552L268.076 52.1825L273.985 43.0136L220.246 8.38314Z" fill="#0074E0"/>
<path d="M239.077 18.3409C239.077 18.3409 231.928 30.0055 233.641 31.0504C235.353 32.0954 243.132 21.4758 243.132 21.4758C243.132 21.4758 234.184 32.2197 236.01 34.1111C237.836 36.0025 246.721 23.1032 246.721 23.1032C246.721 23.1032 239.282 34.17 240.84 35.5618C242.397 36.9536 250.037 26.0177 250.037 26.0177" fill="#FBFBFB"/>
<path fill-rule="evenodd" clip-rule="evenodd" d="M238.705 18.1131C238.705 18.113 238.705 18.1129 239.077 18.3409C239.449 18.5689 239.449 18.5689 239.449 18.569L239.429 18.6015C239.416 18.6233 239.396 18.6558 239.37 18.6983C239.319 18.7834 239.243 18.9085 239.147 19.0683C238.956 19.3878 238.685 19.8457 238.364 20.3987C237.723 21.5051 236.886 22.9892 236.104 24.504C235.32 26.0228 234.599 27.5564 234.18 28.7664C233.969 29.3752 233.845 29.8745 233.818 30.2371C233.804 30.4184 233.817 30.5395 233.838 30.6132C233.848 30.6479 233.859 30.6656 233.864 30.6728C233.866 30.6763 233.867 30.6776 233.868 30.6779C233.87 30.6792 233.982 30.7321 234.343 30.5496C234.671 30.3838 235.083 30.0827 235.559 29.6668C236.505 28.8395 237.621 27.6294 238.697 26.3714C239.07 25.9353 239.437 25.4952 239.788 25.0655C240.377 24.2633 240.942 23.5259 241.419 22.9154C241.826 22.3947 242.17 21.9656 242.413 21.6664C242.534 21.5168 242.63 21.3997 242.695 21.3198C242.728 21.2798 242.754 21.2492 242.771 21.2285L242.79 21.2049L242.797 21.1967C242.797 21.1966 242.797 21.1966 243.132 21.4758C243.484 21.7336 243.484 21.7337 243.484 21.7338L243.461 21.7649C243.446 21.7853 243.424 21.8153 243.395 21.8544C243.337 21.9326 243.253 22.0468 243.144 22.1917C242.927 22.4814 242.615 22.8939 242.235 23.3854C241.744 24.0218 241.139 24.7917 240.478 25.6002C240.072 26.1539 239.654 26.7378 239.246 27.3313C238.245 28.7867 237.315 30.2822 236.749 31.5203C236.465 32.1418 236.284 32.6733 236.223 33.0887C236.16 33.5179 236.237 33.7189 236.324 33.8081C236.363 33.8487 236.468 33.9255 236.828 33.7776C237.18 33.6331 237.634 33.3217 238.168 32.8591C239.229 31.9412 240.491 30.5299 241.713 29.0398C242.93 27.5542 244.093 26.008 244.952 24.8318C245.381 24.2441 245.734 23.7495 245.979 23.402C246.102 23.2283 246.198 23.0914 246.263 22.9981C246.295 22.9515 246.32 22.9157 246.337 22.8917L246.355 22.8646L246.362 22.8558C246.362 22.8557 246.362 22.8557 246.721 23.1032C247.083 23.3466 247.083 23.3466 247.083 23.3467L247.062 23.3775C247.049 23.3981 247.028 23.429 247.001 23.4693C246.947 23.5501 246.869 23.6689 246.769 23.8208C246.57 24.1246 246.286 24.5606 245.951 25.0881C245.28 26.1438 244.403 27.5639 243.576 29.0256C242.746 30.4909 241.975 31.9827 241.508 33.1858C241.274 33.7901 241.126 34.2976 241.078 34.6809C241.026 35.0976 241.11 35.2182 241.13 35.2365C241.13 35.2366 241.13 35.2367 241.131 35.2369C241.133 35.2392 241.142 35.249 241.188 35.2478C241.248 35.2463 241.349 35.2245 241.499 35.1554C241.798 35.0167 242.186 34.7375 242.644 34.3313C243.553 33.5254 244.636 32.3106 245.685 31.0346C246.731 29.7626 247.73 28.4457 248.468 27.4456C248.837 26.9459 249.14 26.5259 249.351 26.2311C249.456 26.0837 249.538 25.9676 249.594 25.8885C249.622 25.8489 249.644 25.8186 249.658 25.7983L249.674 25.7753L249.679 25.7682L249.679 25.7679C249.679 25.7679 249.679 25.7678 250.037 26.0177C250.395 26.2676 250.394 26.2676 250.394 26.2678L250.394 26.2682L250.372 26.2998C250.357 26.3208 250.335 26.3517 250.307 26.3919C250.25 26.4723 250.167 26.5898 250.06 26.7387C249.847 27.0365 249.542 27.46 249.17 27.9638C248.427 28.9707 247.418 30.3008 246.359 31.5888C245.304 32.8728 244.185 34.131 243.223 34.9841C242.746 35.4075 242.282 35.7543 241.865 35.9472C241.473 36.129 240.951 36.2466 240.549 35.8872C240.18 35.5575 240.155 35.0278 240.212 34.5729C240.273 34.0845 240.451 33.4991 240.695 32.8702C241.028 32.0107 241.503 31.025 242.036 30.018C240.914 31.3637 239.752 32.6421 238.739 33.5189C238.184 33.9996 237.644 34.3857 237.16 34.5847C236.685 34.7801 236.113 34.8463 235.696 34.4141C235.325 34.0304 235.283 33.4819 235.36 32.9615C235.439 32.4274 235.657 31.8092 235.955 31.1575C236.138 30.7581 236.355 30.3368 236.596 29.9022C236.439 30.0506 236.284 30.1915 236.133 30.3236C235.639 30.7564 235.162 31.1135 234.737 31.3284C234.345 31.5267 233.839 31.6828 233.413 31.4229C232.967 31.1503 232.915 30.6057 232.947 30.1715C232.983 29.6962 233.137 29.1128 233.355 28.481C233.795 27.2101 234.54 25.6316 235.329 24.1037C236.12 22.5717 236.964 21.0743 237.609 19.961C237.932 19.4041 238.206 18.9426 238.399 18.6201C238.495 18.4589 238.572 18.3324 238.624 18.246C238.65 18.2029 238.67 18.1697 238.684 18.1473L238.705 18.1131ZM246.721 23.1032L247.083 23.3467L246.362 22.8558L246.721 23.1032ZM243.132 21.4758L243.484 21.7338L242.797 21.1966L243.132 21.4758Z" fill="#001A39"/>
<path d="M74.8986 133.13L16.4101 95.5775L11.3774 164.33L74.8986 133.13Z" fill="#0074E0"/>
<path d="M13.2187 138.656C15.8998 139.528 18.6965 139.978 21.4583 140.512C24.3575 141.075 27.2458 141.679 30.1232 142.345C32.933 142.995 35.7231 143.712 38.5046 144.472C39.9291 144.86 41.3471 145.272 42.7607 145.702C44.2267 146.147 45.7036 146.747 47.2241 146.961C47.5164 147.002 47.7542 146.605 47.4422 146.441C46.1791 145.774 44.7459 145.434 43.3846 145.026C42.0365 144.622 40.6861 144.236 39.3336 143.852C36.4256 143.025 33.4958 142.277 30.553 141.588C27.6777 140.913 24.7872 140.3 21.8837 139.77C19.0346 139.249 16.1572 138.893 13.3256 138.274C13.0747 138.217 12.9744 138.575 13.2187 138.656Z" fill="white"/>
<path d="M62.728 139.092C58.8929 133.394 52.6647 129.14 46.6743 125.977C40.505 122.72 33.8034 120.484 26.9578 119.173C25.1101 118.819 23.2536 118.518 21.3862 118.287C19.1807 118.014 16.8596 117.733 14.6584 118.169C14.3312 118.235 14.4272 118.71 14.7348 118.728C16.6087 118.832 18.4804 118.808 20.3522 118.998C22.1912 119.186 24.0236 119.458 25.843 119.786C29.0826 120.368 32.2894 121.175 35.4243 122.179C41.8074 124.223 47.909 127.172 53.3672 131.075C56.6591 133.429 59.903 136.073 62.3855 139.293C62.536 139.489 62.8742 139.31 62.728 139.092Z" fill="white"/>
<path d="M45.2562 114.048C40.7863 118.542 36.2989 122.901 32.7321 128.182C29.2286 133.37 26.7504 139.223 26.2181 145.504C25.9236 148.977 25.8713 153.244 27.5358 156.416C27.6928 156.714 28.1183 156.498 28.055 156.197C27.61 154.033 27.0646 151.961 26.9533 149.74C26.8464 147.624 26.9577 145.504 27.2915 143.409C27.9132 139.507 29.2853 135.781 31.1811 132.321C34.9355 125.469 40.4961 120.185 45.5376 114.328C45.7012 114.138 45.4394 113.865 45.2562 114.048Z" fill="white"/>
<path d="M15.3414 111.697C17.6036 110.263 19.7415 108.645 21.995 107.198C23.0988 106.489 24.2201 105.811 25.3545 105.152C26.4278 104.53 27.728 104.068 28.6355 103.217C28.8558 103.012 28.6224 102.689 28.3584 102.741C27.1455 102.99 26.009 103.845 24.9422 104.447C23.7446 105.126 22.5666 105.839 21.406 106.581C19.1852 108.005 16.9797 109.519 15.0992 111.385C14.9443 111.542 15.1472 111.819 15.3414 111.697Z" fill="white"/>
<path d="M60.0623 121.793C60.0623 121.793 46.8205 120.333 46.225 118.649C45.6294 116.965 56.4039 116.452 56.4039 116.452" fill="white"/>
<path fill-rule="evenodd" clip-rule="evenodd" d="M46.6457 118.518C46.6603 118.499 46.6907 118.466 46.7502 118.422C46.9269 118.292 47.2413 118.151 47.6923 118.012C48.5816 117.739 49.8421 117.521 51.147 117.352C52.4458 117.184 53.7654 117.068 54.7619 116.994C55.2598 116.957 55.6761 116.93 55.9677 116.913C56.1135 116.905 56.228 116.898 56.306 116.894C56.345 116.892 56.3748 116.891 56.3948 116.89L56.4245 116.888C56.4245 116.888 56.4245 116.888 56.4038 116.452C56.3831 116.017 56.383 116.017 56.3829 116.017L56.3747 116.017L56.3511 116.018C56.3303 116.019 56.2997 116.021 56.2599 116.023C56.1803 116.027 56.064 116.033 55.9163 116.042C55.621 116.059 55.2002 116.086 54.6973 116.124C53.6922 116.198 52.3554 116.316 51.0351 116.486C49.7208 116.656 48.3993 116.882 47.4358 117.178C46.9605 117.324 46.5309 117.5 46.2324 117.72C46.0817 117.831 45.9361 117.974 45.8477 118.158C45.7524 118.357 45.7368 118.577 45.8135 118.795C45.8896 119.01 46.0471 119.176 46.2068 119.303C46.3714 119.434 46.5758 119.553 46.8017 119.661C47.2539 119.878 47.8478 120.081 48.5198 120.271C49.8676 120.651 51.5967 120.994 53.2938 121.283C54.9937 121.571 56.6735 121.807 57.9274 121.971C58.5547 122.053 59.0759 122.117 59.4405 122.16C59.6229 122.182 59.7661 122.198 59.8638 122.209C59.9127 122.215 59.9502 122.219 59.9755 122.222L60.0142 122.226C60.0143 122.226 60.0144 122.226 60.0622 121.793C60.11 121.359 60.11 121.359 60.1099 121.359L60.0728 121.355C60.048 121.352 60.0111 121.348 59.9629 121.342C59.8664 121.331 59.7245 121.315 59.5436 121.293C59.1817 121.25 58.6638 121.187 58.0403 121.106C56.7928 120.943 55.125 120.709 53.44 120.422C51.7521 120.135 50.0592 119.798 48.7566 119.431C48.1035 119.247 47.5651 119.059 47.1792 118.874C46.986 118.782 46.8449 118.696 46.7501 118.62C46.6885 118.571 46.6589 118.537 46.6457 118.518Z" fill="#001A39"/>
<path d="M59.4928 52.7107C59.591 52.7107 59.591 52.558 59.4928 52.558C59.3946 52.558 59.3946 52.7107 59.4928 52.7107Z" fill="white"/>
<path d="M209.332 103.374L181.954 79.7047L168.974 93.2301C190.898 115.372 228.093 125.626 247.4 131.952C262.845 137.013 257.98 132.461 253.617 129.552C251.61 127.545 252.781 124.208 253.617 122.79C262.518 101.76 255.58 112.137 250.999 119.954C257.631 96.4805 250.636 108.501 246.309 117.445C251.719 97.724 245.618 109.919 241.728 117.445L209.332 103.374Z" fill="#FBFBFB"/>
<path fill-rule="evenodd" clip-rule="evenodd" d="M181.669 80.0347L182.24 79.3746L209.567 103L241.527 116.882C241.616 116.71 241.706 116.536 241.797 116.36C242.651 114.703 243.584 112.895 244.463 111.287C245.492 109.404 246.473 107.745 247.178 106.94C247.354 106.738 247.539 106.559 247.727 106.448C247.906 106.343 248.222 106.228 248.517 106.44C248.757 106.612 248.83 106.908 248.86 107.133C248.894 107.387 248.89 107.713 248.857 108.103C248.766 109.18 248.43 110.932 247.786 113.536C248.333 112.492 248.886 111.476 249.421 110.545C250.005 109.53 250.57 108.613 251.084 107.87C251.592 107.138 252.072 106.543 252.488 106.204C252.689 106.041 252.934 105.887 253.203 105.862C253.349 105.848 253.502 105.873 253.644 105.954C253.782 106.033 253.88 106.149 253.949 106.27C254.081 106.501 254.137 106.807 254.157 107.144C254.177 107.492 254.16 107.925 254.107 108.446C253.933 110.131 253.362 112.876 252.266 116.99C252.93 115.908 253.599 114.85 254.229 113.9C254.809 113.025 255.359 112.237 255.841 111.606C256.315 110.985 256.748 110.484 257.093 110.211C257.183 110.141 257.278 110.076 257.376 110.028C257.471 109.982 257.598 109.937 257.743 109.942C257.906 109.947 258.061 110.017 258.173 110.147C258.273 110.263 258.316 110.399 258.337 110.51C258.378 110.728 258.358 111.004 258.307 111.31C258.255 111.627 258.162 112.02 258.027 112.494C257.489 114.385 256.244 117.702 254.019 122.96L254.007 122.986L253.993 123.011C253.599 123.679 253.122 124.81 252.984 126C252.848 127.174 253.046 128.342 253.896 129.214C254.984 129.941 256.111 130.775 256.952 131.544C257.377 131.931 257.743 132.315 257.996 132.672C258.122 132.85 258.229 133.034 258.298 133.218C258.366 133.401 258.406 133.61 258.365 133.824C258.27 134.312 257.834 134.532 257.382 134.613C256.919 134.696 256.275 134.675 255.438 134.553C253.751 134.308 251.13 133.633 247.264 132.366C245.417 131.761 243.405 131.12 241.257 130.435C232.192 127.544 220.7 123.88 208.999 118.924C194.524 112.793 179.685 104.667 168.664 93.537L169.284 92.923C180.188 103.935 194.908 112.008 209.339 118.12C220.999 123.059 232.443 126.708 241.508 129.599C243.661 130.285 245.68 130.929 247.536 131.537C251.391 132.801 253.954 133.455 255.563 133.689C256.373 133.807 256.905 133.812 257.227 133.754C257.387 133.725 257.465 133.686 257.497 133.663C257.502 133.659 257.506 133.656 257.509 133.653C257.509 133.641 257.509 133.601 257.48 133.523C257.446 133.434 257.384 133.318 257.284 133.176C257.083 132.893 256.768 132.557 256.364 132.188C255.559 131.452 254.457 130.636 253.375 129.915L253.339 129.891L253.308 129.861C252.176 128.729 251.962 127.237 252.117 125.9C252.27 124.579 252.787 123.346 253.226 122.593C255.444 117.351 256.667 114.087 257.187 112.256C257.317 111.799 257.401 111.44 257.446 111.168C257.453 111.124 257.459 111.084 257.464 111.046C257.225 111.276 256.911 111.643 256.534 112.135C256.069 112.745 255.531 113.515 254.956 114.383C253.807 116.117 252.519 118.224 251.376 120.174L250.579 119.835C252.237 113.966 253.034 110.349 253.239 108.356C253.29 107.86 253.302 107.478 253.286 107.194C253.273 106.971 253.243 106.835 253.216 106.759C253.171 106.783 253.112 106.822 253.039 106.881C252.725 107.137 252.303 107.643 251.802 108.367C251.307 109.082 250.755 109.977 250.178 110.98C249.024 112.986 247.781 115.404 246.702 117.635L245.888 117.329C247.242 112.395 247.864 109.496 247.988 108.03C248.014 107.724 248.016 107.497 248.004 107.335C247.955 107.382 247.898 107.442 247.834 107.515C247.204 108.234 246.268 109.802 245.228 111.706C244.356 113.303 243.428 115.101 242.573 116.758C242.418 117.059 242.265 117.355 242.115 117.645L241.928 118.007L209.097 103.748L181.669 80.0347ZM257.771 110.807C257.77 110.808 257.77 110.808 257.769 110.808C257.77 110.807 257.771 110.807 257.771 110.807Z" fill="#001A39"/>
</svg>
