<svg width="305" height="240" viewBox="0 0 305 240" fill="none" xmlns="http://www.w3.org/2000/svg">
<path d="M93.6028 55.6967L31.2822 72.3954C29.402 72.8992 27.4681 71.7825 26.9643 69.9024L14.1098 21.9286C13.606 20.0484 14.7225 18.1144 16.6026 17.6106L30.8482 13.7935C31.9429 13.5002 33.1102 13.7523 33.9889 14.4674L37.7077 17.5011C38.5864 18.2162 39.7539 18.4683 40.8486 18.175L80.686 7.50058C82.5662 6.9968 84.5001 8.11348 85.0039 9.99361L96.0932 51.3793C96.5995 53.2588 95.4829 55.1929 93.6028 55.6967Z" fill="#001A39"/>
<path d="M31.3786 72.3695L93.5043 55.723C95.4376 55.205 96.5856 53.2163 96.0676 51.2829L86.4645 15.4439C85.9465 13.5105 83.9579 12.3623 82.0246 12.8803L19.899 29.5268C17.9656 30.0449 16.8176 32.0336 17.3356 33.9669L26.9387 69.806C27.4567 71.7393 29.4453 72.8876 31.3786 72.3695Z" fill="#0074E0"/>
<path d="M77.2132 147.816H12.6941C10.7477 147.816 9.16863 146.236 9.16863 144.29V94.6238C9.16863 92.6773 10.7477 91.0981 12.6941 91.0981H27.4423C28.5755 91.0981 29.6378 91.6438 30.3015 92.5619L33.1084 96.4548C33.7721 97.373 34.8346 97.9186 35.9679 97.9186H77.2106C79.1571 97.9186 80.7361 99.4978 80.7361 101.444V144.29C80.7388 146.236 79.1596 147.816 77.2132 147.816Z" fill="#001A39"/>
<path d="M179.636 239.088L117.315 222.389C115.435 221.886 114.318 219.952 114.822 218.071L127.677 170.098C128.18 168.218 130.114 167.101 131.995 167.605L146.24 171.422C147.335 171.715 148.22 172.517 148.623 173.576L150.327 178.062C150.73 179.121 151.615 179.923 152.71 180.216L192.547 190.891C194.428 191.395 195.544 193.329 195.04 195.209L183.951 236.594C183.45 238.475 181.516 239.592 179.636 239.088Z" fill="#001A39"/>
<path d="M12.7938 147.816H77.111C79.1125 147.816 80.7361 146.192 80.7361 144.19V107.087C80.7361 105.085 79.1125 103.462 77.111 103.462H12.7938C10.7923 103.462 9.16863 105.085 9.16863 107.087V144.19C9.16863 146.192 10.7923 147.816 12.7938 147.816Z" fill="#0074E0"/>
<path d="M117.411 222.415L179.537 239.062C181.47 239.58 183.459 238.431 183.977 236.498L193.58 200.659C194.098 198.726 192.95 196.737 191.016 196.219L128.891 179.572C126.957 179.054 124.969 180.203 124.451 182.136L114.848 217.975C114.332 219.909 115.478 221.897 117.411 222.415Z" fill="#0074E0"/>
<path d="M167.115 63.1114H137.325C129.251 63.1114 122.706 56.5663 122.706 48.492C122.706 40.4176 129.251 33.8726 137.325 33.8726H167.118C175.192 33.8726 181.737 40.4176 181.737 48.492C181.734 56.5663 175.19 63.1114 167.115 63.1114Z" fill="#001A39"/>
<path d="M267.297 178.632L240.322 201.079L152.118 107.198L63.819 201.275L37.1433 178.495L125.594 82.3528C132.307 75.0628 141.724 70.8551 151.635 70.7239C161.882 70.5875 171.703 74.8162 178.644 82.3528L267.297 178.632Z" fill="#FBC73B"/>
<path d="M257.565 194.075C264.931 187.785 269.332 180.845 267.394 178.575C265.456 176.306 257.913 179.565 250.546 185.856C243.179 192.146 238.779 199.086 240.717 201.355C242.655 203.625 250.198 200.365 257.565 194.075Z" fill="#001A39"/>
<path d="M254.154 185.94L270.429 205.698L304.429 169.146L269.018 188.516L262.517 180.743" fill="#F96155"/>
<path fill-rule="evenodd" clip-rule="evenodd" d="M85.0381 148.633C86.9059 150.247 88.1839 152.398 88.1965 155.222C88.2143 159.122 85.22 162.079 81.038 164.312C76.83 166.559 71.2433 168.172 65.696 169.329C60.1406 170.486 54.5879 171.192 50.427 171.609C48.3457 171.818 46.6109 171.954 45.3957 172.038C44.7881 172.08 44.3103 172.109 43.984 172.127C43.8208 172.137 43.6955 172.143 43.6108 172.148C43.5684 172.15 43.5362 172.151 43.5145 172.153L43.4817 172.154C43.4813 172.154 43.481 172.154 43.4569 171.63C43.4328 171.106 43.4329 171.106 43.4331 171.106L43.4402 171.106L43.4635 171.104C43.4844 171.103 43.5156 171.102 43.5571 171.1C43.6399 171.096 43.7633 171.089 43.9244 171.08C44.2467 171.062 44.7202 171.033 45.3232 170.991C46.5294 170.908 48.2534 170.772 50.3224 170.565C54.4621 170.151 59.9754 169.449 65.4819 168.301C70.9965 167.152 76.4677 165.562 80.5438 163.386C84.646 161.196 87.1622 158.51 87.1472 155.227C87.1362 152.762 86.0368 150.883 84.352 149.427C82.6534 147.959 80.367 146.931 78.0382 146.217C75.7153 145.504 73.3872 145.115 71.6353 144.904C70.7606 144.799 70.0324 144.738 69.5239 144.704C69.2697 144.687 69.0707 144.677 68.9358 144.671C68.8684 144.668 68.8171 144.666 68.783 144.664C68.766 144.664 68.7533 144.663 68.745 144.663L68.7359 144.663L68.7335 144.663C68.7335 144.663 68.7336 144.663 68.7478 144.138C68.7619 143.614 68.7621 143.614 68.7624 143.614L68.7665 143.614L68.7779 143.614C68.7878 143.615 68.8021 143.615 68.8208 143.616C68.8581 143.617 68.9128 143.619 68.9837 143.623C69.1254 143.629 69.3319 143.64 69.594 143.657C70.1181 143.692 70.865 143.754 71.7607 143.862C73.5497 144.077 75.9437 144.476 78.3459 145.213C80.7423 145.948 83.1839 147.031 85.0381 148.633Z" fill="#F96155"/>
<path fill-rule="evenodd" clip-rule="evenodd" d="M95.2252 167.698C95.2254 167.699 95.2255 167.699 94.9279 168.131C94.6302 168.563 94.6302 168.563 94.6301 168.563L94.6167 168.553C94.6075 168.547 94.5934 168.538 94.5747 168.525C94.5374 168.499 94.4815 168.461 94.4081 168.412C94.2613 168.313 94.0446 168.169 93.7662 167.986C93.2092 167.621 92.4058 167.105 91.4219 166.502C89.4529 165.296 86.7667 163.746 83.8904 162.365C81.0086 160.981 77.9623 159.78 75.2677 159.253C72.545 158.721 70.3356 158.907 68.9671 160.087C68.2981 160.663 67.847 161.523 67.597 162.645C67.3467 163.769 67.3059 165.122 67.4328 166.633C67.6868 169.656 68.6029 173.217 69.7239 176.64C70.843 180.058 72.1573 183.312 73.1929 185.714C73.7105 186.914 74.1578 187.9 74.4756 188.585C74.6344 188.928 74.7608 189.195 74.8474 189.377C74.8906 189.468 74.9239 189.537 74.9463 189.583C74.9575 189.606 74.966 189.624 74.9716 189.635L74.9798 189.652C74.9798 189.652 74.9798 189.652 74.5085 189.883C74.0371 190.113 74.037 190.113 74.0369 190.113L74.0364 190.112L74.0278 190.094C74.0218 190.082 74.013 190.063 74.0014 190.04C73.9783 189.992 73.9443 189.921 73.9002 189.829C73.8122 189.644 73.6841 189.373 73.5236 189.027C73.2025 188.334 72.7512 187.339 72.2294 186.129C71.1862 183.71 69.859 180.425 68.7267 176.967C67.5963 173.514 66.6512 169.863 66.3872 166.721C66.2552 165.149 66.2913 163.681 66.5728 162.417C66.8546 161.152 67.3903 160.06 68.2821 159.292C70.0352 157.781 72.6746 157.677 75.469 158.223C78.2916 158.775 81.4309 160.02 84.3446 161.419C87.2637 162.821 89.9826 164.39 91.97 165.608C92.9643 166.217 93.7768 166.739 94.3413 167.108C94.6236 167.293 94.8439 167.441 94.994 167.542C95.0691 167.592 95.1266 167.631 95.1655 167.658C95.185 167.671 95.1998 167.681 95.2099 167.688L95.2213 167.696L95.2252 167.698Z" fill="#F96155"/>
<path fill-rule="evenodd" clip-rule="evenodd" d="M136.842 73.6458C136.842 73.6455 136.843 73.6453 137.296 73.9087C137.75 74.1721 137.75 74.1721 137.75 74.1721L137.75 74.1724L137.749 74.1744L137.744 74.1834C137.739 74.1916 137.732 74.2042 137.722 74.2212C137.703 74.2551 137.674 74.3064 137.636 74.3742C137.562 74.5098 137.452 74.7113 137.316 74.9723C137.044 75.4944 136.666 76.2538 136.243 77.198C135.396 79.088 134.373 81.7106 133.666 84.6485C132.244 90.5524 132.128 97.5674 137.018 102.555C139.318 104.901 142.617 104.747 146.514 102.921C150.395 101.102 154.67 97.7031 158.665 93.944C162.652 90.1924 166.327 86.1143 169.007 82.971C170.346 81.4001 171.436 80.0643 172.19 79.1217C172.567 78.6504 172.86 78.2775 173.059 78.0228C173.158 77.8954 173.234 77.7976 173.285 77.7318C173.31 77.6989 173.329 77.674 173.342 77.6574L173.356 77.6388L173.36 77.6342L173.361 77.6332C173.361 77.633 173.361 77.6329 173.778 77.9511C174.195 78.2694 174.195 78.2696 174.195 78.2699L174.19 78.2763L174.175 78.296C174.161 78.3133 174.142 78.3389 174.116 78.3726C174.064 78.4399 173.987 78.5393 173.886 78.6682C173.685 78.9261 173.389 79.3024 173.009 79.7773C172.249 80.727 171.153 82.0714 169.805 83.6518C167.111 86.8113 163.409 90.9207 159.384 94.7082C155.367 98.4884 150.994 101.98 146.959 103.871C142.94 105.755 139.054 106.129 136.269 103.289C130.988 97.904 131.199 90.4124 132.646 84.4028C133.373 81.3839 134.421 78.6981 135.285 76.7688C135.718 75.8034 136.106 75.0254 136.386 74.4875C136.526 74.2186 136.639 74.0095 136.718 73.867C136.757 73.7957 136.788 73.741 136.809 73.7038C136.82 73.6852 136.828 73.671 136.833 73.6612L136.84 73.6498L136.842 73.6458Z" fill="#F96155"/>
<path fill-rule="evenodd" clip-rule="evenodd" d="M105.708 157.114C105.708 157.114 105.708 157.113 105.19 157.197C104.672 157.281 104.672 157.28 104.672 157.28L104.672 157.279L104.671 157.274L104.669 157.259C104.667 157.245 104.664 157.226 104.66 157.201C104.653 157.15 104.642 157.076 104.63 156.98C104.604 156.788 104.57 156.506 104.534 156.143C104.461 155.419 104.381 154.374 104.35 153.083C104.288 150.5 104.421 146.925 105.2 142.953C106.758 135.008 110.914 125.442 121.302 119.1L121.849 119.996C111.788 126.138 107.751 135.397 106.229 143.155C105.468 147.035 105.339 150.531 105.399 153.057C105.43 154.32 105.508 155.338 105.578 156.039C105.613 156.39 105.646 156.66 105.67 156.843C105.682 156.934 105.692 157.003 105.698 157.048C105.702 157.071 105.704 157.088 105.706 157.099L105.708 157.111L105.708 157.113L105.708 157.114Z" fill="#F96155"/>
<path fill-rule="evenodd" clip-rule="evenodd" d="M85.0888 126.535C85.0884 126.535 85.0881 126.535 85.3583 126.085C85.6284 125.635 85.6285 125.635 85.6286 125.635L85.6344 125.639L85.6541 125.651C85.6718 125.661 85.6984 125.677 85.7338 125.698C85.8045 125.739 85.91 125.801 86.0481 125.881C86.3242 126.04 86.7304 126.27 87.2483 126.555C88.2843 127.123 89.7663 127.905 91.5477 128.76C95.1146 130.471 99.8633 132.461 104.625 133.606C109.407 134.755 114.102 135.027 117.628 133.417C121.087 131.837 123.557 128.378 123.768 121.709L124.817 121.742C124.598 128.687 121.986 132.58 118.064 134.371C114.209 136.131 109.224 135.791 104.38 134.626C99.5163 133.457 94.6927 131.432 91.0939 129.706C89.2924 128.842 87.7931 128.05 86.7436 127.475C86.2187 127.187 85.8061 126.952 85.5241 126.79C85.3831 126.709 85.2747 126.645 85.2013 126.602C85.1646 126.58 85.1366 126.564 85.1177 126.552L85.096 126.54L85.0888 126.535Z" fill="#F96155"/>
<path fill-rule="evenodd" clip-rule="evenodd" d="M275.889 181.892L272.319 191.132L271.34 190.753L274.911 181.514L275.889 181.892Z" fill="white"/>
<path fill-rule="evenodd" clip-rule="evenodd" d="M280.604 179.928L277.033 189.167L276.055 188.788L279.625 179.549L280.604 179.928Z" fill="white"/>
<path fill-rule="evenodd" clip-rule="evenodd" d="M285.541 177.538L281.971 186.777L280.992 186.399L284.562 177.16L285.541 177.538Z" fill="white"/>
<path fill-rule="evenodd" clip-rule="evenodd" d="M187.531 104.822C187.536 104.862 187.55 104.98 187.592 105.322C187.656 105.843 187.655 105.843 187.655 105.843L187.653 105.843L187.647 105.844L187.624 105.847C187.604 105.849 187.575 105.852 187.537 105.856C187.461 105.864 187.35 105.875 187.206 105.888C186.919 105.914 186.501 105.946 185.974 105.974C184.92 106.028 183.427 106.061 181.666 105.979C178.15 105.815 173.538 105.189 169.212 103.323C164.879 101.454 160.816 98.3329 158.456 93.18C156.099 88.033 155.476 80.9331 157.873 71.1708L158.892 71.4209C156.532 81.0353 157.182 87.877 159.41 92.7431C161.636 97.6032 165.469 100.566 169.628 102.36C173.794 104.157 178.268 104.77 181.715 104.931C183.435 105.011 184.893 104.978 185.92 104.926C186.433 104.899 186.837 104.868 187.113 104.843C187.25 104.831 187.356 104.82 187.426 104.813C187.444 104.811 187.459 104.809 187.473 104.808C187.485 104.806 187.496 104.805 187.504 104.804L187.523 104.802L187.528 104.801C187.528 104.801 187.528 104.801 187.531 104.822Z" fill="#F96155"/>
<path d="M63.922 201.223C65.8602 198.953 61.4594 192.014 54.0928 185.723C46.7261 179.433 39.1832 176.173 37.2451 178.443C35.307 180.713 39.7075 187.652 47.0741 193.943C54.4408 200.233 61.9839 203.493 63.922 201.223Z" fill="#001A39"/>
<path d="M50.2748 185.835L34.0001 205.591L0 169.041L35.4114 188.409L41.9093 180.638" fill="#F96155"/>
<path fill-rule="evenodd" clip-rule="evenodd" d="M29.5187 181.407L33.089 190.649L32.1102 191.027L28.5399 181.785L29.5187 181.407Z" fill="white"/>
<path fill-rule="evenodd" clip-rule="evenodd" d="M24.8048 179.442L28.3752 188.684L27.3964 189.062L23.826 179.82L24.8048 179.442Z" fill="white"/>
<path fill-rule="evenodd" clip-rule="evenodd" d="M19.8676 177.052L23.438 186.294L22.4592 186.672L18.8888 177.43L19.8676 177.052Z" fill="white"/>
<path d="M187.681 151.268H123.162C121.215 151.268 119.636 149.689 119.636 147.743V98.0767C119.636 96.1302 121.215 94.551 123.162 94.551H137.91C139.043 94.551 140.105 95.0967 140.769 96.0148L143.576 99.9077C144.24 100.826 145.302 101.371 146.436 101.371H187.678C189.625 101.371 191.204 102.951 191.204 104.897V147.743C191.206 149.689 189.627 151.268 187.681 151.268Z" fill="#001A39"/>
<path fill-rule="evenodd" clip-rule="evenodd" d="M181.007 92.7563L167.793 114.157L166.231 113.192L179.444 91.7916L181.007 92.7563Z" fill="white"/>
<path fill-rule="evenodd" clip-rule="evenodd" d="M202.615 66.5045C205.735 70.9391 208.127 75.1777 208.839 78.5186C209.196 80.1935 209.028 82.1971 208.499 84.3881C207.969 86.5855 207.067 89.0105 205.917 91.5467C203.618 96.6191 200.308 102.186 196.924 107.345C193.538 112.507 190.07 117.274 187.449 120.75C186.139 122.489 185.039 123.905 184.267 124.887C183.881 125.378 183.577 125.76 183.369 126.02C183.265 126.15 183.185 126.249 183.131 126.316C183.104 126.35 183.084 126.375 183.07 126.392L183.054 126.412L183.05 126.417L183.049 126.418C183.049 126.418 183.049 126.419 182.642 126.088L183.049 126.419L182.748 126.79L165.969 115.587L186.274 82.7036L174.633 66.0111L175.494 65.4109L187.529 82.6686L167.394 115.277L182.534 125.385C182.539 125.378 182.544 125.372 182.55 125.365C182.756 125.107 183.058 124.727 183.442 124.238C184.211 123.261 185.306 121.851 186.611 120.119C189.224 116.654 192.677 111.906 196.047 106.769C199.418 101.63 202.695 96.1148 204.962 91.1136C206.095 88.613 206.97 86.2534 207.479 84.142C207.99 82.0243 208.124 80.1951 207.813 78.7373C207.149 75.621 204.87 71.5323 201.757 67.1083C198.657 62.7017 194.774 58.0231 190.97 53.7389C187.166 49.4562 183.448 45.5751 180.679 42.7643C179.296 41.359 178.15 40.2218 177.35 39.4361C176.95 39.0433 176.637 38.7384 176.424 38.5318C176.317 38.4286 176.236 38.3499 176.181 38.2971L176.119 38.2376L176.099 38.2181C176.099 38.2179 176.099 38.2179 176.461 37.8389C176.824 37.46 176.824 37.4601 176.825 37.4603L176.846 37.4807L176.909 37.5414C176.965 37.5949 177.047 37.6743 177.154 37.7784C177.369 37.9865 177.684 38.293 178.085 38.6876C178.889 39.4768 180.039 40.6182 181.427 42.028C184.204 44.8472 187.935 48.742 191.754 53.0422C195.572 57.3409 199.483 62.0525 202.615 66.5045Z" fill="#001A39"/>
<path fill-rule="evenodd" clip-rule="evenodd" d="M103.885 70.3295L124.315 60.4117L123.856 59.4678L102.408 69.8803L110.826 84.2962L111.732 83.7671L103.885 70.3295Z" fill="#001A39"/>
<path d="M130.229 95.742C130.389 103.111 124.547 109.212 117.176 109.372C110.662 109.514 105.138 104.963 103.834 98.8138C103.663 98.0059 103.564 97.1743 103.546 96.3191C103.385 88.953 109.227 82.8487 116.599 82.6887C120.434 82.6047 123.923 84.1472 126.412 86.6813C128.71 89.0238 130.153 92.2085 130.229 95.742Z" fill="#F96155"/>
<path d="M166.42 28.8595C165.037 35.4727 158.558 39.7118 151.945 38.3294C146.098 37.1069 142.107 31.9024 142.215 26.1417C142.231 25.3862 142.315 24.6229 142.475 23.8543C143.857 17.2437 150.337 13.0018 156.95 14.3843C160.392 15.1031 163.188 17.2017 164.885 19.9797C166.454 22.5453 167.084 25.6906 166.42 28.8595Z" fill="#FBC73B"/>
<path d="M168.112 15.6381C167.537 18.3847 164.846 20.1449 162.099 19.573C159.67 19.0667 158.012 16.9025 158.057 14.5101C158.062 14.1953 158.099 13.8779 158.164 13.5605C158.739 10.814 161.43 9.05375 164.177 9.62562C165.606 9.92467 166.768 10.7956 167.474 11.9498C168.127 13.0148 168.387 14.3212 168.112 15.6381Z" fill="#001A39"/>
<path d="M160.163 12.5165C159.814 14.1901 158.175 15.263 156.501 14.9141C155.022 14.6046 154.011 13.2877 154.038 11.8292C154.04 11.6377 154.064 11.4436 154.103 11.2495C154.452 9.57582 156.092 8.50293 157.765 8.85183C158.636 9.03283 159.345 9.56533 159.775 10.2684C160.171 10.9189 160.331 11.7164 160.163 12.5165Z" fill="#001A39"/>
<path fill-rule="evenodd" clip-rule="evenodd" d="M161.866 34.4409C161.865 34.4408 161.865 34.4408 161.721 34.9453C161.577 35.4498 161.577 35.4498 161.577 35.4497L161.576 35.4495L161.575 35.4492L161.572 35.4483L161.563 35.4456C161.556 35.4435 161.546 35.4405 161.535 35.4368C161.511 35.4294 161.479 35.4188 161.44 35.4048C161.36 35.3767 161.251 35.3348 161.121 35.2769C160.864 35.1618 160.52 34.9797 160.18 34.712C159.493 34.1704 158.803 33.2525 158.946 31.8617L159.99 31.9691C159.894 32.8973 160.331 33.4944 160.83 33.8879C161.083 34.0878 161.347 34.2284 161.55 34.3191C161.65 34.3641 161.734 34.3958 161.79 34.4157C161.818 34.4256 161.839 34.4325 161.852 34.4367C161.859 34.4387 161.863 34.4401 161.865 34.4408L161.867 34.4411L161.866 34.4409Z" fill="#001A39"/>
<path d="M162.863 30.5176C162.87 29.3542 162.283 28.4073 161.551 28.4028C160.819 28.3982 160.22 29.3376 160.213 30.501C160.206 31.6644 160.793 32.6113 161.525 32.6159C162.256 32.6204 162.855 31.681 162.863 30.5176Z" fill="#001A39"/>
<path d="M158.457 30.6355C158.464 29.4722 157.877 28.5253 157.145 28.5207C156.414 28.5161 155.815 29.4555 155.807 30.6189C155.8 31.7823 156.387 32.7292 157.119 32.7338C157.85 32.7384 158.449 31.7989 158.457 30.6355Z" fill="#001A39"/>
<path d="M146.824 24.7645C146.323 27.1674 143.97 28.7073 141.567 28.2036C139.444 27.7603 137.994 25.8689 138.033 23.7755C138.038 23.5001 138.07 23.2247 138.128 22.944C138.629 20.5437 140.982 19.0012 143.385 19.5049C144.633 19.7672 145.651 20.5279 146.267 21.5379C146.837 22.4718 147.065 23.6129 146.824 24.7645Z" fill="#FBC73B"/>
<path d="M164.397 19.5442C164.397 19.5442 159.584 21.3647 152.186 18.3532L150.148 25.457L145.68 23.4423C145.68 23.4423 145.339 19.0248 141 19.6622C141 19.6622 142.383 11.3675 147.548 10.7589C156.577 9.69914 163.269 14.9771 164.397 19.5442Z" fill="#001A39"/>
<path fill-rule="evenodd" clip-rule="evenodd" d="M252.8 184.206C252.8 184.207 252.8 184.207 252.297 184.358C251.795 184.509 251.795 184.509 251.795 184.509L251.795 184.509L251.794 184.505L251.789 184.489C251.784 184.474 251.777 184.451 251.767 184.42C251.748 184.359 251.718 184.268 251.678 184.148C251.597 183.91 251.475 183.56 251.307 183.121C250.973 182.243 250.46 181.008 249.75 179.586C248.328 176.74 246.125 173.169 242.994 170.224C239.867 167.284 235.828 164.977 230.714 164.615C225.597 164.253 219.334 165.834 211.754 170.802L211.179 169.924C218.893 164.868 225.382 163.186 230.788 163.568C236.198 163.951 240.455 166.396 243.712 169.46C246.965 172.52 249.235 176.207 250.689 179.118C251.417 180.575 251.943 181.843 252.288 182.748C252.46 183.2 252.588 183.563 252.672 183.813C252.714 183.938 252.746 184.035 252.767 184.102C252.778 184.135 252.786 184.161 252.791 184.179L252.797 184.199L252.799 184.205L252.8 184.206Z" fill="#F96155"/>
<path fill-rule="evenodd" clip-rule="evenodd" d="M228.432 187.707C228.432 187.707 228.432 187.707 227.946 187.905C227.459 188.102 227.459 188.102 227.459 188.101L227.456 188.093L227.446 188.069C227.437 188.047 227.425 188.016 227.408 187.974C227.375 187.891 227.327 187.768 227.264 187.607C227.14 187.287 226.961 186.817 226.742 186.219C226.302 185.022 225.701 183.31 225.05 181.245C223.748 177.118 222.244 171.57 221.445 165.906C220.648 160.254 220.543 154.426 222.093 149.772C222.87 147.437 224.068 145.382 225.819 143.798C227.572 142.211 229.853 141.122 232.751 140.682L232.909 141.719C230.192 142.132 228.108 143.142 226.523 144.576C224.935 146.013 223.822 147.9 223.088 150.103C221.616 154.526 221.694 160.161 222.484 165.759C223.272 171.345 224.758 176.832 226.05 180.929C226.696 182.976 227.292 184.673 227.727 185.857C227.944 186.449 228.121 186.913 228.243 187.228C228.304 187.386 228.351 187.506 228.383 187.587C228.399 187.627 228.412 187.658 228.42 187.678L228.429 187.7L228.432 187.707Z" fill="#F96155"/>
<path fill-rule="evenodd" clip-rule="evenodd" d="M190.239 119.24C190.238 119.24 190.239 119.24 190.399 118.74C190.559 118.24 190.559 118.241 190.559 118.241L190.564 118.242L190.576 118.246C190.587 118.25 190.603 118.255 190.624 118.262C190.665 118.275 190.726 118.296 190.805 118.322C190.963 118.376 191.193 118.456 191.485 118.561C192.07 118.772 192.904 119.087 193.903 119.502C195.9 120.33 198.566 121.563 201.234 123.174C203.899 124.784 206.586 126.786 208.608 129.16C210.631 131.537 212.012 134.318 211.991 137.468C211.948 143.704 207.812 147.855 203.805 150.414C201.794 151.698 199.79 152.6 198.291 153.18C197.54 153.47 196.914 153.681 196.474 153.82C196.254 153.889 196.081 153.94 195.961 153.975C195.901 153.992 195.855 154.004 195.823 154.013C195.813 154.016 195.804 154.018 195.797 154.02C195.793 154.021 195.789 154.022 195.787 154.023L195.777 154.026L195.774 154.026L195.773 154.027C195.773 154.027 195.772 154.027 195.64 153.519C195.507 153.012 195.507 153.012 195.507 153.012L195.516 153.009C195.523 153.007 195.533 153.005 195.547 153.001C195.575 152.993 195.617 152.982 195.672 152.966C195.784 152.934 195.948 152.885 196.159 152.819C196.58 152.686 197.185 152.483 197.912 152.201C199.367 151.638 201.304 150.766 203.24 149.53C207.125 147.048 210.902 143.172 210.941 137.461C210.961 134.64 209.728 132.094 207.809 129.84C205.888 127.584 203.304 125.651 200.692 124.073C198.082 122.496 195.467 121.287 193.501 120.471C192.519 120.063 191.701 119.755 191.129 119.548C190.843 119.445 190.619 119.367 190.468 119.316C190.392 119.29 190.334 119.271 190.295 119.258C190.276 119.252 190.261 119.247 190.252 119.244L190.241 119.241L190.239 119.24Z" fill="#F96155"/>
<path d="M124.209 151.268H187.946C189.297 151.268 190.53 150.495 191.12 149.277L206.075 118.352C207.206 116.012 205.501 113.292 202.901 113.292H139.161C137.81 113.292 136.577 114.065 135.987 115.283L121.032 146.208C119.904 148.551 121.609 151.268 124.209 151.268Z" fill="#0074E0"/>
<path fill-rule="evenodd" clip-rule="evenodd" d="M127.844 88.0175C127.844 88.0174 127.844 88.0173 128.167 88.431C128.49 88.8446 128.49 88.8446 128.49 88.8445L128.49 88.8448L128.488 88.8461L128.48 88.852C128.473 88.8575 128.463 88.8658 128.449 88.8769C128.421 88.8992 128.38 88.9324 128.327 88.9756C128.221 89.0619 128.07 89.1875 127.89 89.3433C127.53 89.6556 127.059 90.0849 126.611 90.5577C126.159 91.0349 125.749 91.5359 125.492 91.9917C125.219 92.4769 125.201 92.7658 125.261 92.9101C125.31 93.0263 125.511 93.2021 126.085 93.3081C126.616 93.4063 127.297 93.4118 127.993 93.3674C128.682 93.3234 129.355 93.2326 129.859 93.1521C130.11 93.112 130.317 93.0747 130.461 93.0475C130.533 93.0339 130.589 93.0229 130.627 93.0154C130.646 93.0116 130.66 93.0087 130.669 93.0068L130.679 93.0047L130.682 93.0042L130.682 93.0041C130.682 93.0041 130.682 93.0041 130.79 93.5175C130.898 94.0309 130.898 94.0309 130.898 94.0309L130.898 94.031L130.893 94.0319L130.881 94.0346C130.87 94.0368 130.854 94.0401 130.833 94.0442C130.792 94.0525 130.732 94.0643 130.656 94.0786C130.504 94.1073 130.287 94.1464 130.024 94.1882C129.501 94.2718 128.793 94.3677 128.059 94.4145C127.333 94.461 126.551 94.4614 125.894 94.3399C125.28 94.2264 124.568 93.968 124.294 93.3169C124.032 92.6938 124.276 92.0138 124.578 91.4772C124.896 90.9111 125.374 90.3374 125.85 89.8358C126.329 89.3298 126.827 88.8762 127.203 88.5503C127.392 88.387 127.551 88.2547 127.663 88.1629C127.719 88.1169 127.764 88.0811 127.795 88.0564C127.81 88.0441 127.822 88.0346 127.831 88.028L127.84 88.0204L127.844 88.0175Z" fill="#001A39"/>
<path fill-rule="evenodd" clip-rule="evenodd" d="M86.5219 56.8916C104.955 43.5145 125.357 36.9216 133.287 35.2916L133.498 36.3194C125.689 37.9247 105.432 44.4652 87.1406 57.7391C86.3889 58.2976 85.1994 59.2545 84.0839 60.3022C82.9517 61.3657 81.9546 62.4691 81.5281 63.322C81.1132 64.1519 81.0154 65.1406 81.0805 66.0707C81.1455 66.9982 81.3692 67.8185 81.5474 68.2739L81.5537 68.29L81.5589 68.3064C82.9766 72.7744 88.9443 85.4809 101.395 100.129L101.41 100.146L101.422 100.164C101.572 100.373 102.319 101.119 103.841 101.83C104.296 102.042 106.517 102.844 109.18 103.691C111.834 104.534 114.862 105.402 116.922 105.756C117.436 105.844 117.876 105.898 118.23 105.914C118.462 105.924 118.634 105.916 118.753 105.9C118.699 105.825 118.622 105.732 118.514 105.621C117.971 105.06 116.849 104.211 114.93 103C113.023 101.796 110.364 100.255 106.778 98.3065L107.179 97.3427C110.441 98.3137 114.036 99.3018 117.114 100.014C118.654 100.37 120.058 100.655 121.223 100.835C122.403 101.018 123.291 101.084 123.823 101.026C123.907 101.017 123.972 101.006 124.022 100.995C123.946 100.892 123.814 100.748 123.598 100.558C123.294 100.291 122.861 99.968 122.279 99.5829C119.943 98.0382 115.384 95.6186 107.724 92.0247L107.997 91.0275C110.382 91.2561 113.01 91.4286 115.262 91.4469C116.389 91.456 117.414 91.4265 118.262 91.3478C119.125 91.2678 119.757 91.1409 120.131 90.9796C120.276 90.9169 120.346 90.8638 120.376 90.8349C120.352 90.7797 120.279 90.6673 120.09 90.4996C119.891 90.3228 119.597 90.1142 119.187 89.8736C117.537 88.9041 114.264 87.5629 108.703 85.7528L109.028 84.755C114.589 86.565 117.96 87.9356 119.719 88.9688C120.161 89.2289 120.518 89.4766 120.786 89.715C121.048 89.9472 121.264 90.204 121.368 90.491C121.485 90.8119 121.448 91.1417 121.251 91.4203C121.078 91.6661 120.811 91.8285 120.547 91.9428C120.013 92.1733 119.242 92.3108 118.359 92.3926C117.463 92.4757 116.4 92.5054 115.254 92.4961C113.851 92.4847 112.311 92.4148 110.777 92.3095C116.898 95.2389 120.737 97.3056 122.857 98.7076C123.461 99.1066 123.937 99.4592 124.29 99.7692C124.632 100.069 124.904 100.366 125.043 100.661C125.115 100.815 125.167 101 125.145 101.202C125.12 101.417 125.017 101.594 124.874 101.724C124.623 101.954 124.257 102.034 123.937 102.069C123.256 102.143 122.249 102.056 121.063 101.872C119.862 101.687 118.431 101.395 116.878 101.036C115.126 100.631 113.211 100.138 111.287 99.61C112.967 100.567 114.357 101.397 115.49 102.112C117.412 103.326 118.63 104.232 119.268 104.892C119.57 105.204 119.829 105.547 119.882 105.905C119.912 106.114 119.873 106.333 119.734 106.521C119.606 106.695 119.429 106.793 119.272 106.85C118.97 106.961 118.581 106.98 118.183 106.962C117.769 106.944 117.281 106.882 116.745 106.79C114.607 106.422 111.52 105.535 108.862 104.691C106.213 103.848 103.925 103.027 103.397 102.78C101.797 102.034 100.886 101.204 100.583 100.794C88.0836 86.0846 82.0401 73.2778 80.5639 68.6398C80.3501 68.0878 80.1058 67.1716 80.0338 66.1441C79.9613 65.109 80.0602 63.9116 80.5896 62.8528C81.1075 61.817 82.2309 60.6031 83.3656 59.5374C84.5159 58.457 85.7384 57.4736 86.5172 56.8951L86.5195 56.8933L86.5219 56.8916Z" fill="#001A39"/>
</svg>
