<svg width="324" height="240" viewBox="0 0 324 240" fill="none" xmlns="http://www.w3.org/2000/svg">
<path fill-rule="evenodd" clip-rule="evenodd" d="M130.233 20.1147C130.16 20.4843 130.105 20.8609 130.068 21.2437C129.999 21.9754 130.001 22.6957 130.064 23.4004C130.558 28.7731 134.811 33.2099 140.381 33.744C146.68 34.3477 152.277 29.7314 152.881 23.4319C153.171 20.4111 152.259 17.5498 150.536 15.3235C148.666 12.9109 145.848 11.2457 142.569 10.9315C139.57 10.644 136.73 11.5404 134.512 13.238C133.804 14.5267 133.476 15.8108 133.341 16.9056C133.135 18.5624 131.857 19.8646 130.233 20.1147Z" fill="#FDE50B"/>
<path fill-rule="evenodd" clip-rule="evenodd" d="M125.995 20.3964C125.965 20.5427 125.943 20.6921 125.928 20.8442C125.903 21.109 125.903 21.3716 125.926 21.6275C126.105 23.58 127.652 25.1913 129.674 25.3843C131.963 25.6042 133.994 23.9278 134.214 21.6387C134.319 20.5435 133.987 19.5021 133.361 18.6942C133.228 18.5224 133.082 18.3611 132.924 18.2119C132.332 19.3099 131.208 20.0683 129.9 20.1508L125.995 20.3964Z" fill="#FDE50B"/>
<path d="M319.447 0H284.438V35.01H319.447V0Z" fill="#222222"/>
<path d="M267.728 34.561V0.44873H299.699C309.104 0.44873 316.755 8.0993 316.755 17.5049C316.755 26.9104 309.104 34.561 299.699 34.561H267.728Z" fill="white"/>
<path d="M299.698 0.897691C308.855 0.897691 316.306 8.34853 316.306 17.505C316.306 26.6614 308.855 34.1123 299.698 34.1123H268.176V0.897691H299.698ZM299.698 0H267.278V35.01H299.698C309.367 35.01 317.203 27.1731 317.203 17.505C317.203 7.83685 309.367 0 299.698 0Z" fill="#222222"/>
<path d="M225.119 177.293L200.52 218.455L235.494 239.357L260.094 198.194L225.119 177.293Z" fill="white"/>
<path d="M225.253 177.938L259.455 198.381L235.314 238.77L201.112 218.328L225.253 177.938ZM224.943 176.706L199.882 218.637L235.626 240L260.687 198.069L224.943 176.706Z" fill="#222222"/>
<path d="M280.194 119.323H323.69L301.943 82.8638L280.194 119.323Z" fill="#222222"/>
<path d="M224.943 176.706L260.685 198.069L260.723 157.426L224.943 176.706Z" fill="#FDE50B"/>
<path d="M301.943 214.959C312.73 214.959 321.474 206.214 321.474 195.427C321.474 184.64 312.73 175.896 301.943 175.896C291.156 175.896 282.411 184.64 282.411 195.427C282.411 206.214 291.156 214.959 301.943 214.959Z" fill="#222222"/>
<path d="M251.219 82.5861L243.561 117.837L290.863 128.114L298.521 92.8626L251.219 82.5861Z" fill="white"/>
<path d="M251.573 83.1126L298 93.1983L290.531 127.571L244.104 117.483L251.573 83.1126ZM250.887 82.0444L243.036 118.172L291.215 128.639L299.066 92.5115L250.887 82.0444Z" fill="#222222"/>
<path d="M222 75.7777L214.151 111.906L243.032 118.181L250.881 82.0521L222 75.7777Z" fill="#F0438C"/>
<path d="M153.094 10.9449C152.843 13.5617 150.518 15.4782 147.901 15.2291C145.587 15.007 143.821 13.1645 143.615 10.9315C143.588 10.6375 143.588 10.339 143.617 10.0361C143.868 7.41929 146.193 5.50265 148.81 5.75176C150.172 5.88192 151.344 6.57323 152.12 7.5764C152.836 8.50102 153.213 9.69041 153.094 10.9449Z" fill="#222222"/>
<path d="M145.37 8.86005C145.217 10.4534 143.801 11.6227 142.206 11.4701C140.796 11.3354 139.719 10.2134 139.596 8.85336C139.58 8.67382 139.58 8.492 139.598 8.30797C139.75 6.71457 141.167 5.54535 142.762 5.69796C143.593 5.77651 144.306 6.19836 144.777 6.80879C145.213 7.37209 145.442 8.09476 145.37 8.86005Z" fill="#222222"/>
<path fill-rule="evenodd" clip-rule="evenodd" d="M149.771 30.0019C149.771 30.0019 149.77 30.0018 149.61 30.4208C149.449 30.8398 149.448 30.8397 149.448 30.8396L149.448 30.8395L149.447 30.8391L149.444 30.838L149.436 30.8349C149.43 30.8324 149.421 30.8289 149.411 30.8246C149.39 30.8159 149.361 30.8035 149.326 30.7873C149.255 30.755 149.158 30.7072 149.043 30.643C148.815 30.5154 148.512 30.3187 148.22 30.0436C147.631 29.4873 147.073 28.5868 147.32 27.3188L148.201 27.4903C148.03 28.3678 148.397 28.9754 148.836 29.3909C149.06 29.6016 149.297 29.7567 149.481 29.8594C149.572 29.9104 149.648 29.9474 149.7 29.9711C149.726 29.9829 149.745 29.9913 149.757 29.9964C149.763 29.999 149.768 30.0007 149.77 30.0016L149.772 30.0022L149.771 30.002L149.771 30.0019Z" fill="#222222"/>
<path d="M150.777 25.9688C150.88 24.8954 150.411 23.9722 149.728 23.9067C149.046 23.8413 148.41 24.6584 148.307 25.7318C148.204 26.8051 148.673 27.7284 149.355 27.7938C150.038 27.8593 150.674 27.0422 150.777 25.9688Z" fill="#222222"/>
<path d="M146.124 25.6277C146.227 24.5543 145.757 23.6311 145.075 23.5656C144.393 23.5002 143.756 24.3173 143.653 25.3907C143.55 26.464 144.02 27.387 144.702 27.4525C145.384 27.518 146.021 26.7011 146.124 25.6277Z" fill="#222222"/>
<path d="M33.7667 121.024L11.9122 111.715L0 156.411L20.4021 125.21L35.1377 131.408" fill="#222222"/>
<path fill-rule="evenodd" clip-rule="evenodd" d="M16.9084 136.28L12.9004 129.233L13.6807 128.79L17.6888 135.837L16.9084 136.28Z" fill="white"/>
<path fill-rule="evenodd" clip-rule="evenodd" d="M15.1418 139.613L11.1357 132.568L11.9161 132.125L15.9222 139.169L15.1418 139.613Z" fill="white"/>
<path fill-rule="evenodd" clip-rule="evenodd" d="M18.6723 132.946L14.6641 125.899L15.4444 125.455L19.4526 132.502L18.6723 132.946Z" fill="white"/>
<path d="M76.9634 183.585L55.3965 192.324L78.1956 231.483L70.6325 195.755L85.1211 189.81" fill="#222222"/>
<path fill-rule="evenodd" clip-rule="evenodd" d="M75.901 205.841L68.2393 203.756L68.475 202.89L76.1367 204.975L75.901 205.841Z" fill="white"/>
<path fill-rule="evenodd" clip-rule="evenodd" d="M76.9977 209.371L69.3359 207.284L69.5719 206.417L77.2336 208.505L76.9977 209.371Z" fill="white"/>
<path fill-rule="evenodd" clip-rule="evenodd" d="M74.8053 202.313L67.1436 200.226L67.3795 199.359L75.0412 201.446L74.8053 202.313Z" fill="white"/>
<path d="M105.465 74.4768C81.2922 78.8396 74.4091 128.094 74.4091 128.094L37.0136 114.936C37.0136 114.936 28.5348 115.104 25.0024 129.108C22.2105 140.172 28.8916 144.923 28.8916 144.923L71.6643 159.526C82.973 162.601 93.981 158.999 98.5929 148.227C104.982 133.305 111.87 119.469 111.87 119.469L122.191 157.85L76.8105 177.469C76.8105 177.469 73.2534 185.535 77.6229 194.02C82.6904 203.861 93.256 202.616 93.256 202.616L141.617 181.432C151.945 176.908 157.576 165.66 155.006 154.679C150.026 133.404 141.451 102.813 137.001 91.4881C131.633 77.8432 117.364 72.3268 105.465 74.4768Z" fill="#F0438C"/>
<path d="M117.38 75.0265C117.627 77.0037 117.89 79.028 117.542 81.0096C117.091 83.5703 115.708 85.8391 113.888 87.6659C110.484 91.0817 105.896 92.9601 101.789 95.3547C97.9585 97.5877 94.1995 100.766 92.5971 105.021C90.9139 109.489 92.7857 113.659 95.6426 117.13C97.4716 119.352 99.5093 121.377 101.181 123.731C102.954 126.229 104.339 128.955 105.764 131.657C105.986 132.077 106.659 131.79 106.529 131.334C105.102 126.401 101.935 122.236 98.5555 118.466C95.3013 114.835 91.9552 110.676 93.8066 105.523C95.4382 100.981 99.7471 97.9557 103.775 95.6936C107.752 93.4605 112.07 91.4543 115.145 87.9757C116.855 86.0412 118.13 83.7161 118.487 81.1375C118.781 79.0055 118.334 77.0306 117.979 74.9457C117.923 74.6113 117.337 74.6854 117.38 75.0265Z" fill="#222222"/>
<path d="M137.284 92.6913C135.74 96.1407 133.361 99.1367 131.617 102.483C130.03 105.531 129.216 108.823 129.335 112.27C129.57 119.05 133.332 125.482 139.032 129.153C142.001 131.065 145.625 132.046 149.138 131.447C149.6 131.368 149.465 130.673 149.03 130.657C145.933 130.542 142.998 130.141 140.275 128.561C137.54 126.974 135.174 124.546 133.468 121.895C129.819 116.227 129.344 108.758 132.4 102.73C134.09 99.3971 136.325 96.3561 137.755 92.8888C137.865 92.6217 137.403 92.4242 137.284 92.6913Z" fill="#222222"/>
<path d="M115.144 130.219C121.264 129.371 127.566 131.274 132.086 135.515C136.002 139.189 139.018 144.982 138.473 150.48C138.15 153.754 135.93 155.877 133.484 157.805C131.262 159.556 129.002 161.259 126.832 163.072C122.64 166.573 118.553 170.597 116.192 175.606C113.804 180.672 112.922 187.725 116.105 192.667C116.363 193.067 117.11 192.817 116.917 192.324C114.664 186.59 114.902 180.389 117.92 174.953C120.815 169.74 125.387 165.739 129.997 162.074C132.279 160.258 134.808 158.595 136.844 156.497C138.868 154.41 139.826 151.842 139.714 148.941C139.51 143.642 136.817 138.446 132.99 134.853C128.163 130.318 121.453 128.532 114.958 129.541C114.507 129.609 114.702 130.28 115.144 130.219Z" fill="#222222"/>
<path d="M153.851 149.89C148.182 151.225 144.991 157.123 143.604 162.35C142.127 167.922 142.208 174.556 144.495 179.913C144.677 180.34 145.278 180.017 145.202 179.615C144.686 176.89 144.093 174.256 143.936 171.473C143.779 168.703 143.976 165.912 144.609 163.207C145.783 158.189 148.644 152.018 154.004 150.435C154.354 150.334 154.208 149.805 153.851 149.89Z" fill="#222222"/>
<path d="M104.167 165.583C106.477 173.216 104.504 182.029 98.5164 187.469C95.7381 189.994 92.2304 191.648 88.5185 192.198C84.3801 192.813 80.1676 191.794 76.422 190.05C76.0203 189.864 75.6725 190.423 76.0698 190.654C81.9137 194.07 88.7159 194.619 94.8336 191.554C100.633 188.645 104.623 183.048 105.833 176.71C106.551 172.942 106.362 168.954 104.895 165.384C104.713 164.951 104.021 165.108 104.167 165.583Z" fill="#222222"/>
<path d="M78.0494 111.352C81.4673 113.616 83.7768 117.207 85.4038 120.901C86.9838 124.483 88.1506 128.431 88.375 132.349C88.6443 137.026 87.2754 141.413 83.5455 144.421C79.8381 147.41 75.0736 148.512 70.5358 149.551C66.678 150.433 61.1684 151.048 59.3819 155.202C59.1283 155.794 59.9474 156.322 60.2728 155.723C61.2827 153.867 63.1162 152.917 65.062 152.305C67.4341 151.557 69.8803 151.066 72.2996 150.498C76.8285 149.434 81.4383 148.052 84.9999 144.91C91.8762 138.842 90.0627 128.635 86.822 121.137C85.0244 116.978 82.309 113.168 78.3457 110.849C78.018 110.656 77.7397 111.146 78.0494 111.352Z" fill="#222222"/>
<path d="M64.4882 125.118C64.0483 128.502 62.1765 131.958 59.6024 134.198C56.3842 136.997 52.2234 137.143 48.5002 135.269C44.8915 133.451 41.8799 130.457 39.2182 127.468C36.3973 124.299 34.117 120.769 31.7156 117.288C31.5473 117.045 31.076 117.189 31.2017 117.505C32.5258 120.836 34.5457 123.839 36.7877 126.617C39.0275 129.391 41.5453 132.01 44.3776 134.185C47.046 136.234 50.262 137.953 53.7181 137.883C56.8286 137.82 59.6788 136.207 61.6627 133.861C62.7534 132.573 63.678 131.034 64.3468 129.483C64.9685 128.044 64.982 126.662 65.056 125.12C65.074 124.743 64.5331 124.766 64.4882 125.118Z" fill="#222222"/>
<path d="M40.5037 148.593C38.5827 145.559 36.1029 142.996 33.3649 140.682C32.0835 139.6 30.7413 138.581 29.3499 137.648C27.9293 136.694 26.3226 135.619 24.6304 135.237C24.305 135.163 23.9885 135.592 24.2802 135.839C25.519 136.892 27.045 137.639 28.4073 138.523C29.8862 139.484 31.3001 140.532 32.6623 141.651C35.3531 143.86 37.7771 146.367 40.331 148.727C40.4186 148.808 40.5733 148.703 40.5037 148.593Z" fill="#222222"/>
<path fill-rule="evenodd" clip-rule="evenodd" d="M118.99 105.916L111.932 121.677L111.112 121.31L118.17 105.549L118.99 105.916Z" fill="white"/>
<path fill-rule="evenodd" clip-rule="evenodd" d="M142.529 23.8674L145.44 22.5859L145.802 23.4075L142.891 24.689L142.529 23.8674Z" fill="#222222"/>
<path fill-rule="evenodd" clip-rule="evenodd" d="M151.522 20.5945L148.795 19.5442L149.118 18.7065L151.844 19.7568L151.522 20.5945Z" fill="#222222"/>
<path d="M161.162 49.9521L228.749 77.7581C228.749 77.7581 235.17 76.7976 237.32 76.9009C240.832 77.0714 250.101 79.4391 250.996 80.1931C252.376 81.3556 252.365 82.3656 252.365 82.3656L241.384 80.9023C241.384 80.9023 238.011 85.5165 238.424 86.8585C239.149 89.2172 245.947 88.3755 245.965 90.5928C245.983 92.8079 239.288 93.7483 224.992 91.6297C213.482 89.9241 155.628 68.9069 155.628 68.9069" fill="white"/>
<path fill-rule="evenodd" clip-rule="evenodd" d="M228.621 78.0692L161.034 50.2633L161.29 49.6406L228.792 77.4113C228.838 77.4045 228.902 77.3951 228.981 77.3837C229.161 77.3575 229.421 77.3203 229.74 77.276C230.377 77.1874 231.248 77.0703 232.188 76.9564C234.054 76.7301 236.227 76.5111 237.336 76.5644C239.128 76.6514 242.352 77.2936 245.22 78.0011C246.659 78.356 248.018 78.7299 249.077 79.0633C249.605 79.2299 250.063 79.3876 250.42 79.529C250.76 79.6639 251.053 79.8008 251.213 79.9354C251.942 80.5491 252.317 81.1346 252.508 81.583C252.603 81.8063 252.652 81.9931 252.677 82.1292C252.689 82.1971 252.696 82.2523 252.699 82.2928C252.7 82.3131 252.701 82.3298 252.702 82.3425C252.702 82.3489 252.702 82.3544 252.702 82.3588L252.702 82.3647L252.702 82.3671L252.702 82.3681V82.3686C252.702 82.3688 252.702 82.3691 252.365 82.3654L252.702 82.3691L252.321 82.6991L241.54 81.2625C241.532 81.2737 241.523 81.2855 241.515 81.2979C241.424 81.4252 241.295 81.6091 241.142 81.8339C240.834 82.2841 240.429 82.8969 240.038 83.55C239.646 84.205 239.272 84.8914 239.023 85.4907C238.899 85.7905 238.809 86.0592 238.763 86.2853C238.714 86.5182 238.719 86.6712 238.746 86.7593C238.879 87.1936 239.31 87.5323 240.028 87.8113C240.735 88.0861 241.622 88.2661 242.526 88.4485L242.551 88.4534C243.428 88.6304 244.328 88.812 245.01 89.0944C245.685 89.374 246.295 89.8173 246.301 90.5899C246.308 91.3516 245.728 91.9122 244.839 92.2961C243.939 92.6848 242.613 92.9474 240.87 93.0719C237.376 93.3216 232.101 93.0232 224.943 91.9625C222.034 91.5315 216.233 89.8889 209.197 87.6807C202.151 85.4692 193.837 82.681 185.884 79.9468C177.932 77.2125 170.339 74.5316 164.734 72.5344C161.932 71.5357 159.627 70.7079 158.022 70.1298C157.22 69.8407 156.593 69.6141 156.166 69.4597C155.953 69.3825 155.789 69.3233 155.68 69.2835L155.514 69.2233C155.513 69.2232 155.513 69.2231 155.628 68.9067C155.743 68.5903 155.743 68.5904 155.744 68.5905L155.909 68.6506C156.019 68.6904 156.182 68.7494 156.395 68.8266C156.821 68.9809 157.448 69.2074 158.25 69.4964C159.855 70.0743 162.159 70.9018 164.961 71.9002C170.563 73.8969 178.154 76.5769 186.103 79.3101C194.053 82.0435 202.361 84.8294 209.399 87.0383C216.448 89.2506 222.195 90.8747 225.042 91.2965C232.18 92.3543 237.399 92.645 240.822 92.4004C242.537 92.2778 243.775 92.0224 244.572 91.678C245.381 91.3288 245.631 90.9412 245.628 90.5954C245.625 90.2594 245.379 89.9763 244.752 89.7164C244.138 89.4619 243.3 89.2915 242.393 89.1085L242.374 89.1046C241.491 88.9266 240.55 88.7367 239.784 88.4388C239.023 88.143 238.331 87.7023 238.102 86.9572C238.026 86.7098 238.046 86.4252 238.103 86.1488C238.162 85.8657 238.268 85.5538 238.402 85.2323C238.669 84.5889 239.061 83.8702 239.461 83.2039C239.861 82.5357 240.274 81.9111 240.586 81.4542C240.742 81.2255 240.873 81.0384 240.966 80.9082C241.012 80.843 241.048 80.7921 241.073 80.7574C241.086 80.74 241.096 80.7267 241.102 80.7176L241.112 80.7045L241.112 80.7038L241.112 80.7036C241.112 80.7035 241.112 80.7035 241.384 80.9021L241.112 80.7036L241.429 80.5684L251.937 81.9686C251.923 81.9304 251.907 81.8899 251.889 81.8472C251.741 81.5 251.431 80.9992 250.779 80.4504C250.716 80.3966 250.524 80.2945 250.171 80.1549C249.836 80.0218 249.395 79.8696 248.874 79.7054C247.833 79.3775 246.488 79.0074 245.059 78.6548C242.191 77.9473 239.024 77.3204 237.304 77.2369C236.263 77.1869 234.151 77.3966 232.269 77.6248C231.335 77.7381 230.467 77.8546 229.833 77.9429C229.515 77.987 229.257 78.024 229.078 78.05C228.988 78.063 228.918 78.0732 228.871 78.0802L228.799 78.0908C228.799 78.0908 228.799 78.0908 228.749 77.7579L228.799 78.0908L228.621 78.0692Z" fill="#222222"/>
<path d="M158.067 59.5597C155.996 66.3194 148.839 70.1189 142.079 68.0497L114.624 59.6383C107.864 57.5669 104.064 50.41 106.134 43.6504C108.205 36.8908 115.362 33.0913 122.121 35.1604L149.577 43.5718C156.337 45.6432 160.139 52.8001 158.067 59.5597Z" fill="#222222"/>
<path d="M267.278 35.01C276.946 35.01 284.783 27.1727 284.783 17.505C284.783 7.83725 276.946 0 267.278 0C257.611 0 249.773 7.83725 249.773 17.505C249.773 27.1727 257.611 35.01 267.278 35.01Z" fill="#0074E0"/>
<path fill-rule="evenodd" clip-rule="evenodd" d="M135.683 6.6743C136.915 6.65628 138.002 6.6675 138.938 6.69457L138.992 6.70052C139.438 6.78646 139.777 6.92795 140.003 7.13743C140.244 7.3614 140.331 7.63991 140.303 7.91691C140.277 8.17504 140.156 8.41289 140.021 8.60433C139.884 8.79962 139.715 8.97287 139.559 9.10564L139.495 9.14827C138.106 9.86256 136.658 10.8387 135.659 12.1109C134.365 13.762 133.85 15.5179 133.674 16.9469L133.674 16.9472C133.434 18.8752 131.863 20.3643 129.921 20.4868L101.182 22.2946L111.642 33.9411L111.141 34.391L100.216 22.2272L100.446 21.6663L129.878 19.8148C131.495 19.7129 132.806 18.4732 133.006 16.8645M135.683 6.6743C132.895 6.71346 130.844 7.55888 129.487 8.40069C128.81 8.82109 128.306 9.24003 127.97 9.5561C127.802 9.71417 127.676 9.84668 127.59 9.94103C127.587 9.94501 127.583 9.94893 127.58 9.95278C127.49 9.94385 127.367 9.93171 127.213 9.91678C126.859 9.88262 126.341 9.8338 125.681 9.7751C124.36 9.6577 122.472 9.50076 120.201 9.34246C115.658 9.02591 109.577 8.70374 103.43 8.68198C97.2873 8.66023 91.0618 8.93828 86.2368 9.82761C83.826 10.272 81.7435 10.8726 80.191 11.6773C78.644 12.4793 77.5633 13.5167 77.2777 14.8608C76.6541 17.795 77.8406 21.4734 79.8817 25.2814C81.932 29.1066 84.8853 33.1357 87.9039 36.8018C90.924 40.4699 94.0178 43.7845 96.3558 46.1815C97.5251 47.3802 98.5058 48.35 99.1945 49.0203C99.5389 49.3555 99.8103 49.6159 99.9958 49.7926C100.088 49.881 100.16 49.9484 100.208 49.9939C100.222 50.0077 100.235 50.0194 100.245 50.0291L100.277 50.0586L100.28 50.0619L100.281 50.0628C100.281 50.063 100.282 50.0631 100.511 49.8172C100.741 49.5714 100.741 49.5713 100.741 49.5712L100.724 49.5547C100.712 49.5435 100.694 49.5266 100.67 49.5042C100.623 49.4595 100.552 49.3928 100.46 49.3052C100.276 49.13 100.007 48.8713 99.6641 48.5379C98.979 47.871 98.0024 46.9054 96.8378 45.7114C94.5081 43.3229 91.4281 40.0228 88.4236 36.3739C85.4176 32.723 82.4955 28.7327 80.4751 24.9633C78.4454 21.1766 77.3658 17.685 77.9362 15.0008C78.1606 13.9453 79.0285 13.0384 80.5009 12.2751C81.9679 11.5146 83.9759 10.929 86.3588 10.4897C91.1213 9.61192 97.2968 9.33353 103.428 9.35524C109.554 9.37694 115.619 9.69814 120.154 10.0141C122.421 10.1721 124.304 10.3286 125.621 10.4457C126.279 10.5043 126.796 10.5529 127.148 10.5869C127.324 10.6039 127.458 10.6173 127.549 10.6263C127.594 10.6309 127.629 10.6344 127.652 10.6367L127.685 10.6402C127.686 10.6402 127.686 10.6402 127.721 10.3054L127.686 10.6402L127.985 10.5135C127.985 10.5135 127.985 10.5136 127.985 10.5135L127.985 10.5134L127.985 10.5132L127.989 10.5085C127.992 10.5053 127.995 10.5007 128 10.4948C128.003 10.4921 128.005 10.4892 128.008 10.486C128.025 10.4653 128.052 10.4338 128.089 10.3928C128.164 10.3109 128.277 10.1914 128.431 10.0466C128.739 9.75683 129.208 9.36646 129.842 8.97279C131.11 8.18647 133.042 7.38468 135.692 7.3475C136.903 7.3298 137.97 7.34054 138.891 7.36676C139.261 7.44121 139.453 7.54541 139.545 7.63115C139.624 7.70439 139.641 7.77175 139.633 7.85004C139.624 7.9472 139.571 8.07405 139.47 8.2175C139.38 8.34642 139.264 8.46871 139.151 8.56799C137.732 9.30217 136.204 10.3265 135.129 11.6954L135.129 11.6957C133.743 13.4646 133.193 15.3443 133.006 16.8641" fill="#222222"/>
<path fill-rule="evenodd" clip-rule="evenodd" d="M132.377 18.9765C132.867 19.7613 133.013 20.53 133.013 20.53L137.381 21.944L138.545 15.1192C145.743 17.157 150.038 14.9666 150.038 14.9666C148.935 11.9684 145.071 8.92303 139.87 8.20605C139.748 8.45206 139.536 8.68415 139.342 8.84894C137.933 9.57382 136.436 10.577 135.394 11.9033C134.055 13.6134 133.523 15.4312 133.341 16.9057C133.241 17.7044 132.893 18.4207 132.377 18.9765Z" fill="#222222"/>
<path d="M133.897 7.1543C133.897 7.1543 131.092 7.85458 129.474 11.3354L133.897 7.1543Z" fill="white"/>
<path fill-rule="evenodd" clip-rule="evenodd" d="M133.816 6.82813C133.816 6.82808 133.816 6.82804 133.898 7.15465C133.979 7.48126 133.979 7.48122 133.979 7.48118L133.976 7.48199C133.973 7.48294 133.967 7.48461 133.958 7.48706C133.941 7.49197 133.914 7.50002 133.878 7.5117C133.806 7.53506 133.699 7.57292 133.563 7.62922C133.293 7.74187 132.912 7.92797 132.481 8.21887C131.621 8.79957 130.559 9.79993 129.779 11.4776L129.169 11.1938C130.007 9.39072 131.157 8.30054 132.104 7.66091C132.577 7.34163 132.999 7.13511 133.305 7.00769C133.458 6.94395 133.582 6.8999 133.67 6.87137C133.714 6.85711 133.749 6.84671 133.773 6.83966C133.786 6.83614 133.795 6.83345 133.803 6.83153L133.811 6.82923L133.814 6.8285L133.815 6.82823L133.816 6.82813Z" fill="#222222"/>
<path d="M138.13 6.99316C138.13 6.99316 133.436 7.16817 131.568 12.1145L138.13 6.99316Z" fill="white"/>
<path fill-rule="evenodd" clip-rule="evenodd" d="M138.117 6.65674C138.117 6.65673 138.117 6.65672 138.13 6.99312C138.142 7.32952 138.143 7.32952 138.143 7.32951L138.142 7.32956L138.134 7.32992C138.127 7.3303 138.116 7.33097 138.101 7.33208C138.07 7.33428 138.023 7.3382 137.961 7.34494C137.838 7.35843 137.657 7.38316 137.433 7.42788C136.985 7.5174 136.366 7.68641 135.692 8.00352C134.349 8.63535 132.78 9.8563 131.883 12.2333L131.253 11.9955C132.223 9.42625 133.934 8.08655 135.406 7.39431C136.139 7.04938 136.811 6.86549 137.301 6.76764C137.547 6.71866 137.747 6.69107 137.888 6.67567C137.958 6.66796 138.014 6.66329 138.053 6.66052C138.072 6.65913 138.087 6.65822 138.098 6.65763L138.111 6.65698L138.115 6.65681L138.116 6.65676L138.117 6.65674Z" fill="#222222"/>
</svg>
