<svg width="315" height="240" viewBox="0 0 315 240" fill="none" xmlns="http://www.w3.org/2000/svg">
<path d="M218.291 47.4271L207.344 60.3098L234.281 84.5578L245.228 71.6751L218.291 47.4271Z" fill="#0074E0"/>
<path d="M144.31 50.3925C146.029 64.802 136.071 77.9178 122.069 79.686C108.066 81.4543 95.3256 71.2055 93.6075 56.796" fill="#F96155"/>
<path d="M40.2933 128.508L21.825 114.298L0 153.563L26.6659 129.148L39.1376 138.657" fill="#F96155"/>
<path fill-rule="evenodd" clip-rule="evenodd" d="M22.1232 136.911L21.7681 127.804L22.6495 127.768L23.0046 136.875L22.1232 136.911Z" fill="white"/>
<path fill-rule="evenodd" clip-rule="evenodd" d="M18.9559 140.293L18.5986 131.186L19.4801 131.15L19.8374 140.257L18.9559 140.293Z" fill="white"/>
<path fill-rule="evenodd" clip-rule="evenodd" d="M15.754 144.118L15.3989 135.011L16.2804 134.975L16.6355 144.082L15.754 144.118Z" fill="white"/>
<path d="M65.5369 192.697L42.7614 202.859L69.2045 240L58.5942 205.268L73.5955 198.665" fill="#F96155"/>
<path fill-rule="evenodd" clip-rule="evenodd" d="M63.8494 213.125L55.9407 209.024L56.3376 208.213L64.2463 212.314L63.8494 213.125Z" fill="white"/>
<path fill-rule="evenodd" clip-rule="evenodd" d="M65.1837 217.62L57.2772 213.518L57.6743 212.707L65.5808 216.809L65.1837 217.62Z" fill="white"/>
<path fill-rule="evenodd" clip-rule="evenodd" d="M66.8774 222.357L58.9709 218.255L59.368 217.445L67.2745 221.546L66.8774 222.357Z" fill="white"/>
<path d="M129.097 36.1192C129.23 42.4182 124.378 47.6346 118.258 47.7708C112.848 47.8911 108.258 44.0003 107.175 38.7454C107.034 38.0554 106.953 37.345 106.937 36.6141C106.805 30.3173 111.657 25.0987 117.777 24.9625C120.962 24.8921 123.86 26.2087 125.926 28.3765C127.836 30.3763 129.036 33.1002 129.097 36.1192Z" fill="#FBC73B"/>
<path d="M125.928 28.3765C123.081 34.4826 117.078 38.7591 110.049 38.9157C109.074 38.9384 108.113 38.8771 107.175 38.7454C107.034 38.0554 106.953 37.345 106.937 36.6141C106.805 30.3173 111.657 25.0987 117.777 24.9625C120.964 24.8921 123.86 26.2087 125.928 28.3765Z" fill="#001A39"/>
<path d="M110.411 27.5071C112.743 27.5071 114.634 25.5609 114.634 23.1602C114.634 20.7595 112.743 18.8132 110.411 18.8132C108.078 18.8132 106.187 20.7595 106.187 23.1602C106.187 25.5609 108.078 27.5071 110.411 27.5071Z" fill="#001A39"/>
<path d="M98.2785 24.7468C104.918 24.7468 110.3 19.2071 110.3 12.3735C110.3 5.53982 104.918 0 98.2785 0C91.6391 0 86.2567 5.53982 86.2567 12.3735C86.2567 19.2071 91.6391 24.7468 98.2785 24.7468Z" fill="#001A39"/>
<path d="M127.009 40.0997C127.673 40.0849 128.192 39.193 128.17 38.1075C128.147 37.0221 127.59 36.1541 126.927 36.1689C126.263 36.1836 125.743 37.0755 125.766 38.161C125.789 39.2464 126.345 40.1144 127.009 40.0997Z" fill="#001A39"/>
<path d="M123.023 40.3243C123.687 40.3095 124.207 39.4177 124.184 38.3323C124.161 37.2468 123.605 36.3788 122.941 36.3936C122.277 36.4083 121.758 37.3003 121.781 38.3857C121.803 39.4711 122.36 40.339 123.023 40.3243Z" fill="#001A39"/>
<path fill-rule="evenodd" clip-rule="evenodd" d="M126.806 40.9829C126.806 40.9828 126.805 40.9828 126.711 41.4263C126.617 41.8698 126.616 41.8697 126.616 41.8697L126.616 41.8696L126.615 41.8693L126.612 41.8688L126.605 41.8671C126.6 41.8658 126.592 41.864 126.583 41.8617C126.566 41.8571 126.541 41.8505 126.511 41.8417C126.451 41.8241 126.369 41.7975 126.271 41.7597C126.077 41.6848 125.815 41.5632 125.552 41.376C125.02 40.9967 124.464 40.3276 124.506 39.2583L125.387 39.2951C125.361 39.9624 125.687 40.368 126.054 40.6294C126.241 40.7626 126.433 40.8527 126.58 40.9095C126.653 40.9376 126.713 40.9568 126.753 40.9686C126.773 40.9745 126.788 40.9785 126.797 40.9808C126.802 40.9819 126.805 40.9827 126.806 40.983L126.806 40.983L126.806 40.9829ZM126.806 40.983C126.807 40.9832 126.807 40.9832 126.807 40.9832L126.807 40.9831L126.806 40.983Z" fill="#001A39"/>
<path d="M87.9505 115.991L77.3887 151.239L43.0633 124.615C43.0633 124.615 34.5834 124.551 29.4469 132.142C24.4362 139.544 28.159 146.672 28.159 146.672L86.4045 198.213L111.696 141.451L111.941 166.668L66.3946 188.364C66.3946 188.364 63.3842 196.851 67.7311 205.182C71.9523 213.269 77.8496 212.995 77.8496 212.995L125.946 194.15C133.365 191.242 138.422 184.105 138.841 175.945L139.346 125.741C140.182 109.467 130.685 96.2406 114.508 94.8628C100.063 93.6347 91.6291 102.976 87.9505 115.991Z" fill="#001A39"/>
<path fill-rule="evenodd" clip-rule="evenodd" d="M118.304 128.032L94.8711 181.456L94.868 181.463C90.556 190.525 77.9538 192.131 70.0613 184.859L70.6497 184.182C78.1977 191.137 90.0674 189.476 94.0728 181.07L117.5 127.658L118.304 128.032Z" fill="white"/>
<path d="M148.761 51.3164L180.206 60.185C180.206 60.185 211.843 48.236 218.709 47.4189C223.887 46.8014 227.949 54.5193 226.911 54.921L222.954 49.4914C222.954 49.4914 228.408 56.1672 226.979 56.8345C225.55 57.5042 220.211 50.649 220.211 50.649C220.211 50.649 224.555 56.6575 223.256 57.0593C221.957 57.4611 217.613 51.9247 214.364 52.7577C211.115 53.5908 210.019 58.0309 211.578 60.5709C213.138 63.111 217.586 61.9964 218.01 63.6785C218.316 64.8951 209.069 63.4922 206.065 64.4433C203.008 65.4103 188.765 73.8499 179.997 74.2563C170.187 74.7102 146.035 66.0188 146.035 66.0188" fill="white"/>
<path fill-rule="evenodd" clip-rule="evenodd" d="M223.143 49.3231C221.865 48.2958 220.353 47.6227 218.753 47.8135C217.078 48.0129 213.847 48.9009 209.909 50.1383C205.983 51.3715 201.39 52.9401 197.008 54.4842C192.626 56.0281 188.459 57.5466 185.387 58.6792C183.851 59.2455 182.589 59.7152 181.711 60.0434C181.272 60.2074 180.929 60.3361 180.695 60.4238C180.579 60.4676 180.49 60.5011 180.43 60.5237L180.339 60.5578C180.339 60.5579 180.339 60.5579 180.206 60.185L180.339 60.5579L180.104 60.5681L148.659 51.6995L148.863 50.9333L180.189 59.7684C180.248 59.7462 180.329 59.7157 180.431 59.6775C180.664 59.5897 181.008 59.4609 181.447 59.2966C182.326 58.9681 183.589 58.498 185.126 57.9312C188.201 56.7979 192.372 55.278 196.758 53.7326C201.143 52.1873 205.746 50.6154 209.683 49.3784C213.608 48.1455 216.907 47.2334 218.664 47.0243C221.453 46.6918 223.879 48.6001 225.438 50.5342C226.225 51.511 226.819 52.527 227.151 53.3381C227.316 53.7396 227.426 54.1151 227.453 54.4223C227.466 54.5745 227.462 54.7401 227.412 54.8922C227.382 54.9826 227.333 55.0723 227.263 55.1472C227.278 55.1799 227.292 55.2124 227.306 55.2445C227.466 55.6172 227.586 55.9865 227.602 56.3069C227.61 56.4703 227.593 56.6463 227.519 56.8092C227.442 56.9814 227.311 57.1154 227.138 57.1963C226.807 57.3512 226.436 57.2617 226.127 57.1268C225.802 56.9848 225.447 56.7496 225.085 56.4669C224.509 56.0163 223.875 55.4118 223.257 54.7719C223.432 55.1183 223.581 55.4502 223.69 55.7494C223.807 56.0718 223.892 56.3982 223.884 56.6796C223.88 56.8242 223.851 56.9848 223.765 57.1294C223.673 57.2831 223.534 57.3883 223.367 57.4397C223.068 57.5322 222.75 57.4402 222.481 57.3201C222.197 57.1937 221.884 56.9967 221.558 56.7678C221.187 56.5077 220.763 56.1791 220.316 55.8331C219.99 55.5809 219.652 55.3196 219.315 55.0689C218.493 54.4581 217.632 53.8773 216.787 53.4992C215.939 53.1199 215.152 52.9651 214.457 53.1432C212.992 53.519 211.99 54.7124 211.535 56.1474C211.078 57.5888 211.198 59.2069 211.905 60.3588C212.581 61.4612 213.905 61.8021 215.287 62.0554C215.398 62.0756 215.509 62.0954 215.62 62.1151C216.171 62.213 216.721 62.3108 217.167 62.4636C217.7 62.6463 218.226 62.9542 218.383 63.5788C218.383 63.5789 218.383 63.5788 218.383 63.5788C218.437 63.7937 218.378 63.9979 218.241 64.1485C218.125 64.2759 217.969 64.3499 217.831 64.3979C217.55 64.4959 217.158 64.5465 216.718 64.574C215.826 64.6298 214.586 64.5973 213.267 64.5576C213.17 64.5547 213.073 64.5517 212.976 64.5487C211.733 64.511 210.429 64.4714 209.248 64.4909C207.963 64.5121 206.871 64.6036 206.178 64.823C205.449 65.0538 204.019 65.7449 202.101 66.686C201.948 66.7613 201.792 66.838 201.633 66.9161C199.821 67.8061 197.65 68.8722 195.328 69.9237C190.292 72.2038 184.479 74.4462 180.014 74.6531C177.513 74.7689 174.126 74.3025 170.476 73.5502C166.818 72.7964 162.869 71.7496 159.232 70.69C155.594 69.6302 152.264 68.5564 149.843 67.7476C148.632 67.3431 147.649 67.0049 146.968 66.7676C146.628 66.649 146.363 66.5556 146.183 66.4919C146.093 66.46 146.024 66.4355 145.978 66.419L145.909 66.3942L145.908 66.3939C145.908 66.3938 145.908 66.3938 146.035 66.0188C146.162 65.6438 146.162 65.6438 146.163 65.6439L146.231 65.6684C146.277 65.6848 146.345 65.709 146.434 65.7407C146.613 65.804 146.877 65.8969 147.216 66.0151C147.894 66.2514 148.874 66.5886 150.081 66.9919C152.496 67.7986 155.816 68.8692 159.442 69.9256C163.069 70.9821 166.997 72.023 170.627 72.7712C174.265 73.5209 177.576 73.9707 179.979 73.8594C184.283 73.66 189.975 71.4795 195.017 69.1965C197.328 68.1502 199.488 67.0891 201.301 66.1987C201.46 66.1207 201.616 66.0441 201.769 65.9689C203.656 65.0429 205.152 64.3164 205.951 64.0637C205.951 64.0637 205.951 64.0637 205.951 64.0637C206.76 63.8076 207.951 63.7177 209.235 63.6965C210.435 63.6767 211.757 63.7169 212.995 63.7545C213.094 63.7575 213.192 63.7605 213.29 63.7634C214.62 63.8035 215.822 63.8341 216.671 63.781C217.101 63.7542 217.405 63.7075 217.582 63.6459C217.607 63.6886 217.624 63.7326 217.636 63.7781C217.62 63.7153 217.643 63.6428 217.677 63.6057C217.679 63.6029 217.681 63.6016 217.681 63.6015C217.681 63.6011 217.657 63.6199 217.584 63.6454C217.583 63.6456 217.583 63.6457 217.582 63.6459C217.489 63.4855 217.294 63.3444 216.923 63.2174C216.538 63.0853 216.06 63 215.509 62.9018C215.393 62.8811 215.274 62.8599 215.152 62.8376C213.815 62.5926 212.135 62.2208 211.252 60.7831C210.4 59.3949 210.287 57.523 210.801 55.9011C211.317 54.2727 212.487 52.8296 214.27 52.3723C215.2 52.1339 216.174 52.3587 217.095 52.7706C218.019 53.1838 218.934 53.8057 219.767 54.4247C220.136 54.6989 220.482 54.9669 220.807 55.2191C221.236 55.5511 221.629 55.8559 221.993 56.1113C222.307 56.3319 222.572 56.495 222.788 56.5912C222.961 56.6683 223.061 56.6836 223.111 56.683C223.109 56.7078 223.105 56.7176 223.105 56.7176C223.105 56.7176 223.105 56.7159 223.107 56.7128C223.112 56.7054 223.119 56.6961 223.13 56.6882C223.139 56.6805 223.146 56.6785 223.145 56.6789C223.139 56.6809 223.127 56.6828 223.111 56.683C223.112 56.6758 223.112 56.6673 223.112 56.6574C223.116 56.5333 223.074 56.3244 222.967 56.027C222.756 55.4449 222.351 54.6832 221.891 53.911C221.435 53.1442 220.937 52.3878 220.553 51.8217C220.361 51.5391 220.197 51.3046 220.082 51.1411C220.024 51.0593 219.979 50.9953 219.948 50.9518C219.939 50.9396 219.932 50.929 219.925 50.9201L219.913 50.9025L219.901 50.887L219.901 50.8863C219.901 50.8863 219.901 50.8861 219.922 50.8701L219.901 50.8863L220.512 50.4005L220.228 50.6342C220.512 50.4005 220.512 50.4005 220.512 50.4005L220.512 50.4007L220.512 50.4015L220.526 50.4193C220.536 50.4319 220.551 50.4508 220.57 50.4755C220.609 50.5249 220.667 50.5975 220.741 50.6898C220.888 50.8745 221.101 51.138 221.361 51.4521C221.881 52.081 222.588 52.9108 223.338 53.7184C224.09 54.5289 224.875 55.305 225.552 55.8342C225.892 56.1 226.188 56.2905 226.428 56.3953C226.684 56.507 226.793 56.4852 226.819 56.473L226.819 56.4728C226.82 56.4727 226.82 56.4726 226.82 56.4725C226.82 56.4728 226.82 56.4731 226.82 56.4735C226.82 56.4737 226.82 56.4739 226.819 56.4741C226.819 56.4744 226.819 56.4747 226.819 56.4749C226.819 56.4758 226.818 56.4762 226.818 56.4762C226.818 56.4762 226.819 56.4756 226.82 56.4746C226.82 56.4744 226.82 56.4743 226.82 56.4741C226.82 56.4737 226.821 56.4731 226.821 56.4725C226.824 56.4695 226.825 56.47 226.82 56.4725C226.825 56.4608 226.835 56.4244 226.831 56.3479C226.822 56.1755 226.75 55.9137 226.6 55.5668C226.391 55.0811 226.062 54.5005 225.678 53.8922L222.645 49.7297L223.143 49.3231ZM226.407 53.5675L226.312 53.4371C226.153 53.1864 225.987 52.9344 225.819 52.6858C225.221 51.8005 224.578 50.9382 224.087 50.2985C223.951 50.1218 223.826 49.9618 223.717 49.8228C224.124 50.204 224.502 50.6168 224.844 51.0414C225.563 51.9338 226.101 52.849 226.407 53.5675Z" fill="#001A39"/>
<path fill-rule="evenodd" clip-rule="evenodd" d="M91.2035 58.8836C91.2038 58.8836 91.204 58.8835 91.2983 59.327C91.3927 59.7705 91.3927 59.7705 91.3926 59.7705L91.3887 59.7714L91.3756 59.7744C91.3638 59.7771 91.346 59.7812 91.3223 59.7867C91.2749 59.7977 91.204 59.8143 91.111 59.8366C90.925 59.8813 90.6504 59.9485 90.298 60.0387C89.5931 60.2192 88.577 60.4914 87.3351 60.8577C84.8507 61.5905 81.4663 62.6989 77.8645 64.2013C74.2611 65.7044 70.4503 67.5977 67.1079 69.8974C63.7619 72.1995 60.9121 74.8908 59.1975 77.9795C57.9774 80.1764 57.319 83.1524 57.0335 86.4206C56.7487 89.6811 56.8382 93.1918 57.0863 96.4305C57.3342 99.6675 57.7398 102.623 58.0836 104.769C58.2554 105.842 58.4117 106.712 58.5248 107.313C58.5814 107.613 58.6272 107.847 58.6588 108.004C58.6746 108.083 58.6868 108.143 58.6951 108.184C58.6992 108.204 58.7023 108.219 58.7044 108.229L58.7074 108.243C58.7074 108.243 58.7074 108.243 58.2764 108.339C57.8453 108.436 57.8453 108.435 57.8452 108.435L57.8418 108.419C57.8396 108.408 57.8363 108.392 57.832 108.371C57.8234 108.33 57.8109 108.268 57.7948 108.188C57.7625 108.027 57.716 107.79 57.6588 107.486C57.5442 106.877 57.3865 105.999 57.2132 104.917C56.8666 102.753 56.4573 99.7713 56.2068 96.5019C55.9565 93.234 55.864 89.6684 56.1549 86.3393C56.445 83.018 57.1197 79.8912 58.4315 77.529C60.2401 74.271 63.2123 71.4855 66.6176 69.1425C70.0266 66.7971 73.8963 64.8769 77.5331 63.3598C81.1714 61.8422 84.5868 60.7238 87.0921 59.9848C88.3451 59.6152 89.3713 59.3403 90.0851 59.1576C90.442 59.0662 90.7208 58.9979 90.9108 58.9524C91.0059 58.9296 91.0787 58.9125 91.128 58.901C91.1526 58.8953 91.1714 58.891 91.1841 58.888L91.1986 58.8847L91.2035 58.8836Z" fill="#001A39"/>
<path fill-rule="evenodd" clip-rule="evenodd" d="M96.2275 73.8527C96.4404 73.7752 96.6065 73.7165 96.6782 73.698L96.8928 74.5787C96.8933 74.5786 96.8932 74.5786 96.8924 74.5788C96.8903 74.5794 96.8823 74.5818 96.8661 74.5871C96.8465 74.5934 96.8205 74.6022 96.7874 74.6137C96.7215 74.6366 96.6326 74.6683 96.5216 74.7087C96.2999 74.7894 95.995 74.9027 95.6182 75.0441C94.8649 75.3268 93.8283 75.7205 92.6044 76.1879C90.1567 77.1228 86.962 78.3514 83.79 79.5743C80.6181 80.7971 77.4692 82.014 75.1133 82.9252C73.9354 83.3808 72.9557 83.76 72.2705 84.0252L71.4803 84.3312V109.942H70.5981V84.017L70.8839 83.5921L71.0392 84.017C70.8839 83.5921 70.8839 83.5921 70.8841 83.592L71.9599 83.1754C72.6452 82.9101 73.625 82.5309 74.803 82.0753C77.1591 81.164 80.3083 79.947 83.4806 78.724C86.6528 77.5011 89.8485 76.272 92.2975 75.3367C93.5219 74.8691 94.5603 74.4746 95.316 74.191C95.6937 74.0493 96.0018 73.9349 96.2275 73.8527Z" fill="#001A39"/>
<path d="M71.0289 121.779C75.0476 117.643 75.0476 110.937 71.029 106.801C67.0103 102.665 60.4947 102.665 56.476 106.801C52.4574 110.937 52.4574 117.643 56.4761 121.779C60.4947 125.916 67.0102 125.916 71.0289 121.779Z" fill="#FBC73B"/>
<path d="M209.117 114.667C217.226 114.667 223.799 107.901 223.799 99.5556C223.799 91.2099 217.226 84.4444 209.117 84.4444C201.009 84.4444 194.436 91.2099 194.436 99.5556C194.436 107.901 201.009 114.667 209.117 114.667Z" fill="#F96155"/>
<path d="M237.486 156.618C240.275 156.618 242.536 154.291 242.536 151.42C242.536 148.549 240.275 146.222 237.486 146.222C234.697 146.222 232.436 148.549 232.436 151.42C232.436 154.291 234.697 156.618 237.486 156.618Z" fill="#F96155"/>
<path d="M251.389 56.8346C253.644 56.8346 255.473 54.9525 255.473 52.6308C255.473 50.309 253.644 48.4268 251.389 48.4268C249.133 48.4268 247.304 50.309 247.304 52.6308C247.304 54.9525 249.133 56.8346 251.389 56.8346Z" fill="#0074E0"/>
<path fill-rule="evenodd" clip-rule="evenodd" d="M60.7462 122.135C60.7461 122.135 60.7461 122.135 60.3407 121.957C59.93 121.791 59.93 121.791 59.93 121.791L59.9301 121.791L59.9324 121.785L59.9401 121.764C59.9469 121.746 59.9571 121.719 59.9703 121.684C59.9967 121.613 60.0354 121.509 60.0841 121.376C60.1817 121.11 60.3195 120.728 60.48 120.266C60.8014 119.341 61.213 118.101 61.5757 116.83C61.9397 115.554 62.249 114.267 62.3733 113.244C62.4357 112.731 62.448 112.309 62.4078 111.999C62.369 111.7 62.2936 111.595 62.2594 111.564C62.2337 111.565 62.1547 111.579 61.988 111.696C61.739 111.871 61.4257 112.191 61.0636 112.64C60.3455 113.532 59.5182 114.832 58.7282 116.183C57.9408 117.53 57.2006 118.911 56.6566 119.957C56.3848 120.48 56.1623 120.918 56.008 121.225C55.9308 121.378 55.8706 121.499 55.8299 121.582C55.8095 121.623 55.7939 121.654 55.7835 121.675L55.768 121.707C55.768 121.707 55.768 121.707 55.3741 121.503C54.9801 121.298 54.9802 121.298 54.9802 121.298L54.9966 121.265C55.0074 121.243 55.0232 121.211 55.044 121.169C55.0855 121.085 55.1464 120.963 55.2244 120.808C55.3804 120.497 55.6048 120.055 55.8789 119.528C56.4267 118.475 57.1746 117.08 57.9723 115.715C58.7675 114.355 59.6224 113.008 60.3843 112.061C60.7622 111.592 61.1384 111.194 61.4909 110.946C61.8145 110.719 62.2938 110.503 62.7319 110.797C63.0929 111.039 63.23 111.477 63.2822 111.879C63.337 112.301 63.3149 112.811 63.2486 113.357C63.1674 114.026 63.0147 114.786 62.8244 115.57C63.5898 114.091 64.422 112.632 65.1891 111.611C65.5738 111.1 65.9652 110.666 66.3454 110.402C66.7163 110.145 67.2137 109.964 67.6735 110.275C68.0449 110.527 68.2339 110.955 68.33 111.394C68.4278 111.841 68.4464 112.376 68.4171 112.946C68.3583 114.088 68.1007 115.469 67.7904 116.787C67.7173 117.098 67.641 117.406 67.5632 117.709C67.9053 117.18 68.2678 116.684 68.6272 116.302C68.8817 116.031 69.1566 115.793 69.4423 115.649C69.7326 115.503 70.0826 115.432 70.4278 115.591L70.428 115.591C70.8087 115.766 70.9651 116.15 71.0262 116.492C71.0889 116.844 71.0748 117.266 71.0213 117.708C70.9135 118.598 70.6284 119.697 70.305 120.749C69.9799 121.806 69.6089 122.84 69.3199 123.608C69.1753 123.992 69.0508 124.311 68.9624 124.534C68.9182 124.645 68.883 124.732 68.8587 124.792C68.8466 124.822 68.8372 124.845 68.8308 124.861L68.8235 124.879L68.821 124.885L68.8209 124.885C68.8208 124.885 68.8208 124.885 68.4148 124.708C68.0088 124.531 68.0088 124.531 68.0088 124.53L68.0109 124.525L68.0177 124.509C68.0237 124.494 68.0327 124.472 68.0445 124.443C68.068 124.385 68.1024 124.299 68.1457 124.19C68.2324 123.972 68.3549 123.658 68.4973 123.28C68.7825 122.522 69.1464 121.508 69.4639 120.475C69.7831 119.437 70.0483 118.402 70.1459 117.596C70.1951 117.19 70.1973 116.874 70.1585 116.656C70.1395 116.55 70.1137 116.486 70.0932 116.451C70.0836 116.435 70.0763 116.427 70.0729 116.424C70.07 116.421 70.0684 116.42 70.067 116.419L70.2475 116.005L70.0673 116.419C70.043 116.408 69.98 116.389 69.8302 116.465C69.676 116.542 69.4839 116.696 69.2613 116.933C68.8186 117.404 68.3411 118.11 67.8943 118.864C67.4508 119.613 67.0511 120.385 66.7616 120.972C66.617 121.265 66.5005 121.511 66.4202 121.683C66.3801 121.769 66.3491 121.836 66.3282 121.882C66.3177 121.905 66.3098 121.923 66.3046 121.934L66.2987 121.947L66.297 121.951C66.297 121.951 66.297 121.951 66.2965 121.951L65.4805 121.61L65.5339 121.629C65.4805 121.61 65.4805 121.61 65.4805 121.61L65.4806 121.609L65.4827 121.603L65.4897 121.583C65.4959 121.565 65.5051 121.537 65.5172 121.502C65.5412 121.43 65.5764 121.325 65.6206 121.191C65.7091 120.921 65.8335 120.535 65.9772 120.067C66.2647 119.129 66.628 117.87 66.933 116.574C67.2392 115.273 67.4817 113.956 67.5361 112.898C67.5635 112.367 67.542 111.926 67.4693 111.593C67.3949 111.253 67.2828 111.098 67.1888 111.034C67.1887 111.034 67.1885 111.034 67.1883 111.034C67.1793 111.027 67.103 110.972 66.8387 111.155C66.5767 111.337 66.2542 111.678 65.8869 112.167C65.1588 113.136 64.3449 114.56 63.5774 116.046C62.8127 117.528 62.1047 119.05 61.5873 120.204C61.3288 120.78 61.1182 121.264 60.9724 121.603C60.8995 121.773 60.8428 121.906 60.8044 121.997C60.7852 122.042 60.7705 122.077 60.7607 122.101L60.7497 122.127L60.7463 122.135L60.7462 122.135ZM62.2693 111.566C62.2692 111.566 62.2674 111.566 62.2642 111.565C62.2678 111.565 62.2694 111.565 62.2693 111.566ZM60.3407 121.957L59.93 121.791L60.7462 122.135L60.3407 121.957Z" fill="#001A39"/>
<path fill-rule="evenodd" clip-rule="evenodd" d="M53.5587 110.661C53.5587 110.661 53.5588 110.661 53.4664 110.217C53.374 109.773 53.3742 109.773 53.3744 109.773L53.3768 109.772L53.3833 109.771L53.4073 109.766C53.4282 109.761 53.4584 109.755 53.497 109.747C53.5743 109.731 53.6854 109.709 53.8223 109.685C54.0958 109.635 54.4743 109.573 54.8937 109.522C55.706 109.425 56.7638 109.361 57.4854 109.583C57.8447 109.694 58.2493 109.916 58.3907 110.375C58.5286 110.822 58.3549 111.303 58.0432 111.771C57.4113 112.72 55.9115 114.067 53.1217 116L52.629 115.247C55.4233 113.311 56.7895 112.048 57.3155 111.258C57.5827 110.856 57.5609 110.685 57.5499 110.65C57.5425 110.626 57.4975 110.535 57.2325 110.453C56.7059 110.291 55.8174 110.326 54.9955 110.424C54.5978 110.472 54.2372 110.531 53.9758 110.579C53.8453 110.602 53.7401 110.623 53.6679 110.638C53.6318 110.645 53.604 110.651 53.5855 110.655L53.5648 110.659L53.5599 110.66L53.5587 110.661Z" fill="#001A39"/>
<path d="M224.109 141.22C221.178 141.882 217.99 141.095 215.623 138.819C211.791 135.133 211.569 128.939 215.125 124.986L245.919 90.7547C249.477 86.8007 255.466 86.5843 259.297 90.2693C263.128 93.9543 263.35 100.148 259.794 104.102L229 138.333C227.64 139.845 225.924 140.81 224.109 141.22Z" fill="#FBC73B"/>
<path d="M266.425 177.284C263.207 177.284 260.173 175.271 258.953 171.99L249.602 146.835C248.023 142.588 250.087 137.828 254.214 136.205C258.34 134.58 262.963 136.707 264.542 140.951L273.893 166.107C275.472 170.354 273.408 175.112 269.281 176.737C268.342 177.109 267.376 177.284 266.425 177.284Z" fill="#F96155"/>
<path d="M275.67 94.3039L267.31 128.624L289.988 134.476L298.349 100.156L275.67 94.3039Z" fill="#BFBFBF"/>
<path d="M312.981 105.333L306.276 106.406L307.318 113.308L314.024 112.235L312.981 105.333Z" fill="#F96155"/>
<path d="M248.535 18.3216L235.017 42.4199L244.013 47.7655L257.531 23.6672L248.535 18.3216Z" fill="#FBC73B"/>
<path d="M185.724 85.8579H161.431L175.246 104.955L185.724 85.8579Z" fill="#FBC73B"/>
<path d="M183.64 141.778L209.57 148.935L190.23 167.09L183.64 141.778Z" fill="#0074E0"/>
<path d="M259.836 186.804L282.79 178.889L278.538 202.955L259.836 186.804Z" fill="#FBC73B"/>
<path fill-rule="evenodd" clip-rule="evenodd" d="M63.4025 157.767L68.1816 151.532L68.7011 151.954L63.9219 158.189L63.4025 157.767Z" fill="white"/>
<path fill-rule="evenodd" clip-rule="evenodd" d="M44.6075 129.35L46.3123 127.126L46.8318 127.547L45.127 129.772L44.6075 129.35Z" fill="white"/>
<path fill-rule="evenodd" clip-rule="evenodd" d="M124.423 172.006L127.5 166.422L128.075 166.758L124.999 172.342L124.423 172.006Z" fill="white"/>
<path fill-rule="evenodd" clip-rule="evenodd" d="M74.0244 181.111L77.101 175.527L77.6765 175.863L74.5999 181.447L74.0244 181.111Z" fill="white"/>
<path fill-rule="evenodd" clip-rule="evenodd" d="M83.5904 155.188L78.0018 156.739L77.8296 156.081L83.4182 154.531L83.5904 155.188Z" fill="white"/>
<path fill-rule="evenodd" clip-rule="evenodd" d="M92.0007 150.628L87.1399 144.71L87.6452 144.27L92.5059 150.188L92.0007 150.628Z" fill="white"/>
<path fill-rule="evenodd" clip-rule="evenodd" d="M76.7367 168.796L71.8782 162.879L72.3835 162.439L77.2421 168.357L76.7367 168.796Z" fill="white"/>
<path fill-rule="evenodd" clip-rule="evenodd" d="M83.3817 135.517L81.9261 133.744L82.4315 133.304L83.8871 135.077L83.3817 135.517Z" fill="white"/>
<path fill-rule="evenodd" clip-rule="evenodd" d="M93.8558 134.237L92.5612 139.058L91.9235 138.877L93.218 134.055L93.8558 134.237Z" fill="white"/>
<path fill-rule="evenodd" clip-rule="evenodd" d="M105.017 144.708L101.539 139.487L102.084 139.102L105.562 144.323L105.017 144.708Z" fill="white"/>
<path fill-rule="evenodd" clip-rule="evenodd" d="M40.049 135.367L36.5732 130.146L37.119 129.761L40.5948 134.982L40.049 135.367Z" fill="white"/>
<path fill-rule="evenodd" clip-rule="evenodd" d="M101.641 152.258L100.02 157.677L99.3872 157.476L101.008 152.058L101.641 152.258Z" fill="white"/>
<path fill-rule="evenodd" clip-rule="evenodd" d="M131.425 146.112L125.356 143.409L125.618 142.784L131.688 145.488L131.425 146.112Z" fill="white"/>
<path fill-rule="evenodd" clip-rule="evenodd" d="M105.588 175.01L101.641 171.705L102.058 171.177L106.006 174.482L105.588 175.01Z" fill="white"/>
<path fill-rule="evenodd" clip-rule="evenodd" d="M120.857 150.254L117.159 154.111L116.688 153.633L120.386 149.776L120.857 150.254Z" fill="white"/>
<path fill-rule="evenodd" clip-rule="evenodd" d="M90.0583 160.769L86.3598 164.625L85.8889 164.147L89.5874 160.29L90.0583 160.769Z" fill="white"/>
<path fill-rule="evenodd" clip-rule="evenodd" d="M118.693 138.778L119.506 144.248L118.852 144.351L118.039 138.881L118.693 138.778Z" fill="white"/>
<path fill-rule="evenodd" clip-rule="evenodd" d="M91.3187 169.649L92.1303 175.119L91.4763 175.222L90.6647 169.752L91.3187 169.649Z" fill="white"/>
<path fill-rule="evenodd" clip-rule="evenodd" d="M107.346 130.616L101.523 132.938L101.284 132.303L107.107 129.981L107.346 130.616Z" fill="white"/>
<path fill-rule="evenodd" clip-rule="evenodd" d="M67.1732 170.844L61.137 169.217L61.3046 168.558L67.3409 170.186L67.1732 170.844Z" fill="white"/>
<path fill-rule="evenodd" clip-rule="evenodd" d="M135.501 113.889L131.476 108.986L131.981 108.546L136.006 113.449L135.501 113.889Z" fill="white"/>
<path fill-rule="evenodd" clip-rule="evenodd" d="M123.288 130.712L127.031 131.921L126.833 132.571L123.09 131.361L123.288 130.712Z" fill="white"/>
<path fill-rule="evenodd" clip-rule="evenodd" d="M85.6392 206.269L87.2999 209.233L86.7267 209.574L85.066 206.609L85.6392 206.269Z" fill="white"/>
<path fill-rule="evenodd" clip-rule="evenodd" d="M125.09 192.642L125.911 194.107L125.337 194.447L124.517 192.983L125.09 192.642Z" fill="white"/>
<path fill-rule="evenodd" clip-rule="evenodd" d="M116.946 119.428L115.642 125.158L114.998 125.002L116.301 119.273L116.946 119.428Z" fill="white"/>
<path fill-rule="evenodd" clip-rule="evenodd" d="M93.9185 121.561L89.6069 127.915L89.0645 127.525L93.3761 121.171L93.9185 121.561Z" fill="white"/>
<path fill-rule="evenodd" clip-rule="evenodd" d="M101.92 121.059L107.208 123.526L106.935 124.146L101.646 121.679L101.92 121.059Z" fill="white"/>
<path fill-rule="evenodd" clip-rule="evenodd" d="M113.203 111.79L118.707 112.01L118.682 112.691L113.177 112.47L113.203 111.79Z" fill="white"/>
<path fill-rule="evenodd" clip-rule="evenodd" d="M104.417 112.788L103.915 106.166L104.574 106.113L105.077 112.735L104.417 112.788Z" fill="white"/>
<path fill-rule="evenodd" clip-rule="evenodd" d="M95.8329 105.936L94.4678 102.66L95.0758 102.392L96.441 105.667L95.8329 105.936Z" fill="white"/>
<path fill-rule="evenodd" clip-rule="evenodd" d="M119.821 105.674L123.564 100.538L124.093 100.946L120.35 106.083L119.821 105.674Z" fill="white"/>
<path fill-rule="evenodd" clip-rule="evenodd" d="M128.913 118.075L127.034 122.69L126.424 122.427L128.303 117.812L128.913 118.075Z" fill="white"/>
<path fill-rule="evenodd" clip-rule="evenodd" d="M136.737 122.808H139.6V123.489H136.737V122.808Z" fill="white"/>
<path fill-rule="evenodd" clip-rule="evenodd" d="M135.994 130.705L132.653 135.209L132.127 134.795L135.468 130.292L135.994 130.705Z" fill="white"/>
<path fill-rule="evenodd" clip-rule="evenodd" d="M54.7071 168.179L54.0367 169.698L53.4343 169.416L54.1048 167.898L54.7071 168.179Z" fill="white"/>
<path fill-rule="evenodd" clip-rule="evenodd" d="M118.543 162.386L117.841 169.733L117.183 169.667L117.884 162.319L118.543 162.386Z" fill="white"/>
<path fill-rule="evenodd" clip-rule="evenodd" d="M124.285 180.06L127.236 184.548L126.688 184.929L123.737 180.442L124.285 180.06Z" fill="white"/>
<path fill-rule="evenodd" clip-rule="evenodd" d="M129.938 155.281L132.887 159.769L132.339 160.151L129.39 155.663L129.938 155.281Z" fill="white"/>
<path fill-rule="evenodd" clip-rule="evenodd" d="M70.7486 191.378L73.6995 195.865L73.1515 196.247L70.2007 191.759L70.7486 191.378Z" fill="white"/>
<path fill-rule="evenodd" clip-rule="evenodd" d="M115.317 190.798L120.107 188.283L120.408 188.889L115.618 191.404L115.317 190.798Z" fill="white"/>
<path fill-rule="evenodd" clip-rule="evenodd" d="M132.842 184.267L137.63 181.752L137.931 182.359L133.143 184.874L132.842 184.267Z" fill="white"/>
<path fill-rule="evenodd" clip-rule="evenodd" d="M114.314 177.515L111.579 183.285L110.984 182.987L113.719 177.216L114.314 177.515Z" fill="white"/>
<path fill-rule="evenodd" clip-rule="evenodd" d="M106.207 199.136L104.456 202.836L103.861 202.538L105.612 198.838L106.207 199.136Z" fill="white"/>
<path fill-rule="evenodd" clip-rule="evenodd" d="M138.939 168.22L134.78 168.435L134.747 167.755L138.906 167.54L138.939 168.22Z" fill="white"/>
<path fill-rule="evenodd" clip-rule="evenodd" d="M136.99 150.854L139.314 153.698L138.808 154.137L136.484 151.292L136.99 150.854Z" fill="white"/>
<path fill-rule="evenodd" clip-rule="evenodd" d="M91.645 192.415L89.3977 199.81L88.7662 199.607L91.0136 192.212L91.645 192.415Z" fill="white"/>
<path fill-rule="evenodd" clip-rule="evenodd" d="M75.7461 201.721L80.3951 200.259L80.5885 200.911L75.9394 202.372L75.7461 201.721Z" fill="white"/>
<path fill-rule="evenodd" clip-rule="evenodd" d="M83.4436 182.914L88.7565 181.416L88.9313 182.073L83.6184 183.571L83.4436 182.914Z" fill="white"/>
<path fill-rule="evenodd" clip-rule="evenodd" d="M137.486 140.833L139.264 140.029L139.53 140.653L137.752 141.456L137.486 140.833Z" fill="white"/>
<path fill-rule="evenodd" clip-rule="evenodd" d="M104.488 187.313L99.1394 186.736L99.2083 186.059L104.557 186.636L104.488 187.313Z" fill="white"/>
<path fill-rule="evenodd" clip-rule="evenodd" d="M30.1577 145.064L33.2144 139.466L33.7912 139.8L30.7345 145.397L30.1577 145.064Z" fill="white"/>
<path fill-rule="evenodd" clip-rule="evenodd" d="M40.0717 155.826L38.4309 156.286L38.2567 155.63L39.8976 155.169L40.0717 155.826Z" fill="white"/>
<path fill-rule="evenodd" clip-rule="evenodd" d="M45.6012 150.978L40.7206 145.079L41.2243 144.637L46.105 150.537L45.6012 150.978Z" fill="white"/>
<path fill-rule="evenodd" clip-rule="evenodd" d="M48.9073 135.897L47.6282 140.723L46.9899 140.544L48.269 135.718L48.9073 135.897Z" fill="white"/>
<path fill-rule="evenodd" clip-rule="evenodd" d="M62.0266 143.099L55.9109 142.441L55.9797 141.764L62.0954 142.422L62.0266 143.099Z" fill="white"/>
<path fill-rule="evenodd" clip-rule="evenodd" d="M54.6652 150.945L53.0641 156.368L52.431 156.17L54.0322 150.747L54.6652 150.945Z" fill="white"/>
<path fill-rule="evenodd" clip-rule="evenodd" d="M112.44 101.382L107.213 100.092L107.367 99.4302L112.594 100.719L112.44 101.382Z" fill="white"/>
<path fill-rule="evenodd" clip-rule="evenodd" d="M91.7904 115.437L86.5613 114.148L86.7154 113.486L91.9445 114.775L91.7904 115.437Z" fill="white"/>
<path fill-rule="evenodd" clip-rule="evenodd" d="M198.325 101.811L203.267 95.2165L203.966 95.7711L199.023 102.365L198.325 101.811Z" fill="#F96155"/>
</svg>
