<svg width="364" height="240" viewBox="0 0 364 240" fill="none" xmlns="http://www.w3.org/2000/svg">
<path d="M235.219 100.74C218.513 105.859 200.158 109.262 180.903 109.262C161.648 109.262 143.294 105.859 126.588 100.74C129.785 73.5824 152.884 52.5146 180.903 52.5146C208.923 52.5146 232.019 73.5824 235.219 100.74Z" fill="#F96155"/>
<path d="M229.225 159.831C235.415 159.831 240.432 154.814 240.432 148.625C240.432 142.435 235.415 137.418 229.225 137.418C223.036 137.418 218.019 142.435 218.019 148.625C218.019 154.814 223.036 159.831 229.225 159.831Z" fill="#001A39"/>
<path d="M232.961 147.684C234.784 159.129 226.985 169.887 215.537 171.71C204.09 173.533 193.334 165.733 191.511 154.286" fill="#F96155"/>
<path d="M170.281 210.495L170.088 230.546L131.53 230.968L161.101 220.671L162.232 207.168" fill="#FBC73B"/>
<path fill-rule="evenodd" clip-rule="evenodd" d="M153.798 220.247L160.425 224.302L159.995 225.004L153.368 220.949L153.798 220.247Z" fill="white"/>
<path fill-rule="evenodd" clip-rule="evenodd" d="M149.923 221.271L156.552 225.324L156.123 226.027L149.494 221.974L149.923 221.271Z" fill="white"/>
<path fill-rule="evenodd" clip-rule="evenodd" d="M145.71 222.136L152.337 226.191L151.908 226.893L145.281 222.838L145.71 222.136Z" fill="white"/>
<path d="M205.722 121.141C200.305 124.814 198.891 132.179 202.564 137.594C205.81 142.382 211.943 144.042 217.064 141.827C217.735 141.534 218.389 141.178 219.017 140.753C224.432 137.082 225.847 129.715 222.175 124.3C220.263 121.481 217.356 119.749 214.239 119.249C211.365 118.79 208.318 119.382 205.722 121.141Z" fill="#FBC73B"/>
<path d="M214.241 119.249C210.832 125.401 210.925 133.204 215.142 139.424C215.729 140.288 216.373 141.088 217.064 141.827C217.735 141.535 218.389 141.179 219.017 140.753C224.432 137.083 225.847 129.715 222.175 124.3C220.266 121.483 217.356 119.749 214.241 119.249Z" fill="#001A39"/>
<path d="M228.555 137.416C231.048 137.416 233.069 135.395 233.069 132.902C233.069 130.409 231.048 128.388 228.555 128.388C226.062 128.388 224.041 130.409 224.041 132.902C224.041 135.395 226.062 137.416 228.555 137.416Z" fill="#001A39"/>
<path d="M207.317 124.346C208.25 123.714 208.684 122.725 208.286 122.138C207.889 121.552 206.81 121.589 205.877 122.221C204.944 122.854 204.51 123.842 204.908 124.429C205.306 125.016 206.384 124.979 207.317 124.346Z" fill="#001A39"/>
<path d="M209.595 127.955C210.528 127.322 210.962 126.334 210.564 125.747C210.166 125.16 209.087 125.197 208.154 125.829C207.221 126.462 206.787 127.45 207.185 128.037C207.583 128.624 208.662 128.587 209.595 127.955Z" fill="#001A39"/>
<path fill-rule="evenodd" clip-rule="evenodd" d="M211.513 124.339L211.967 126.47L211.163 126.642L210.708 124.511L211.513 124.339Z" fill="#001A39"/>
<path fill-rule="evenodd" clip-rule="evenodd" d="M207.729 120.355L209.562 121.213L209.214 121.959L207.38 121.101L207.729 120.355Z" fill="#001A39"/>
<path fill-rule="evenodd" clip-rule="evenodd" d="M202.723 125.95C202.723 125.95 202.723 125.95 203 125.645C203.276 125.341 203.276 125.341 203.276 125.341L203.276 125.34L203.276 125.34L203.275 125.34C203.275 125.34 203.276 125.34 203.276 125.341C203.278 125.342 203.28 125.344 203.284 125.348C203.292 125.355 203.306 125.366 203.323 125.38C203.359 125.409 203.414 125.45 203.485 125.498C203.627 125.594 203.827 125.71 204.061 125.795C204.522 125.963 205.09 126.005 205.659 125.565L206.163 126.215C205.306 126.88 204.418 126.8 203.78 126.569C203.465 126.455 203.204 126.302 203.024 126.18C202.932 126.118 202.86 126.063 202.809 126.022C202.784 126.002 202.764 125.985 202.749 125.973C202.742 125.967 202.736 125.961 202.732 125.958L202.726 125.953L202.724 125.951L202.724 125.95L202.723 125.95Z" fill="#001A39"/>
<path d="M228.188 202.352L213.165 151.131C211.324 144.856 205.666 140.467 199.132 140.247C191.024 139.973 184.137 146.131 183.506 154.219L183.08 159.689L177.418 147.968C175.161 143.298 170.491 140.274 165.304 140.128C157.906 139.92 151.645 145.553 151.073 152.933L146.489 211.98H172.038L172.577 199.284L176.976 213.517C179.761 224.026 188.874 230.096 199.586 230.112L206.695 230.122C221.228 230.143 231.853 216.414 228.188 202.352Z" fill="#0074E0"/>
<path fill-rule="evenodd" clip-rule="evenodd" d="M180.871 211.969L182.871 144.061L183.488 144.079L181.488 211.987L180.871 211.969Z" fill="white"/>
<path fill-rule="evenodd" clip-rule="evenodd" d="M171.73 211.965L173.754 164.252L174.371 164.278L172.346 211.991L171.73 211.965Z" fill="white"/>
<path fill-rule="evenodd" clip-rule="evenodd" d="M204.901 211.92L206.833 164.116L207.45 164.141L205.518 211.945L204.901 211.92Z" fill="white"/>
<path d="M202.979 211.879L202.8 230.546L164.243 230.967L193.814 220.67L194.258 211.918" fill="#FBC73B"/>
<path fill-rule="evenodd" clip-rule="evenodd" d="M186.51 220.247L193.137 224.302L192.708 225.004L186.081 220.949L186.51 220.247Z" fill="white"/>
<path fill-rule="evenodd" clip-rule="evenodd" d="M182.636 221.271L189.265 225.324L188.836 226.027L182.207 221.974L182.636 221.271Z" fill="white"/>
<path fill-rule="evenodd" clip-rule="evenodd" d="M178.423 222.136L185.05 226.191L184.62 226.893L177.993 222.838L178.423 222.136Z" fill="white"/>
<path fill-rule="evenodd" clip-rule="evenodd" d="M205.336 212.178L181.181 212.287L181.178 211.67L205.334 211.561L205.336 212.178Z" fill="white"/>
<path fill-rule="evenodd" clip-rule="evenodd" d="M218.918 153.799L219.729 153.938L216.367 173.467L215.599 173.593L215.6 173.593C215.599 173.593 215.599 173.593 215.599 173.593L215.599 173.593L215.598 173.591L215.594 173.583C215.592 173.58 215.59 173.576 215.587 173.571C215.584 173.565 215.581 173.559 215.577 173.552C215.562 173.524 215.539 173.483 215.508 173.428C215.447 173.319 215.356 173.158 215.237 172.954C214.998 172.546 214.648 171.963 214.203 171.268C213.311 169.878 212.039 168.044 210.516 166.264C208.99 164.481 207.227 162.769 205.355 161.605C203.483 160.441 201.543 159.85 199.637 160.232C197.653 160.631 194.716 161.572 192.308 162.542C191.103 163.027 190.047 163.513 189.316 163.934C188.947 164.147 188.681 164.332 188.52 164.481C188.517 164.483 188.515 164.486 188.512 164.488C188.527 164.492 188.543 164.495 188.561 164.498C188.806 164.54 189.166 164.556 189.619 164.547C190.52 164.527 191.707 164.408 192.899 164.256C194.088 164.103 195.269 163.92 196.154 163.774C196.596 163.701 196.964 163.637 197.221 163.592C197.35 163.57 197.45 163.552 197.519 163.539C197.54 163.536 197.558 163.532 197.573 163.53C197.582 163.528 197.59 163.526 197.597 163.525L197.623 163.52C197.623 163.52 197.623 163.52 197.698 163.925C197.893 164.288 197.893 164.288 197.892 164.288L197.892 164.288L197.859 164.306C197.837 164.318 197.804 164.336 197.761 164.359C197.674 164.406 197.547 164.475 197.385 164.564C197.062 164.742 196.601 164.998 196.05 165.31C194.947 165.934 193.485 166.783 192.046 167.682C190.604 168.583 189.197 169.527 188.197 170.342C187.695 170.752 187.314 171.114 187.082 171.411C186.966 171.559 186.902 171.674 186.873 171.754C186.86 171.791 186.856 171.812 186.856 171.822C186.856 171.823 186.856 171.823 186.857 171.823C186.861 171.828 186.872 171.838 186.896 171.85C186.948 171.876 187.038 171.904 187.182 171.919C187.471 171.95 187.883 171.919 188.399 171.83C189.423 171.651 190.744 171.26 192.062 170.811C193.376 170.363 194.671 169.863 195.639 169.475C196.122 169.281 196.523 169.115 196.803 168.998C196.943 168.939 197.052 168.893 197.127 168.861C197.164 168.845 197.193 168.833 197.212 168.825L197.233 168.815L197.24 168.812C197.24 168.812 197.24 168.812 197.404 169.19L197.24 168.812L197.657 169.514L197.517 169.335C197.657 169.514 197.657 169.514 197.657 169.514L197.657 169.514L197.652 169.518L197.638 169.529C197.625 169.539 197.606 169.554 197.581 169.574C197.531 169.614 197.457 169.673 197.364 169.748C197.176 169.898 196.91 170.114 196.594 170.377C195.96 170.903 195.129 171.615 194.333 172.361C193.533 173.11 192.785 173.879 192.306 174.521C192.064 174.845 191.911 175.11 191.845 175.307C191.812 175.403 191.808 175.462 191.811 175.49C191.811 175.496 191.812 175.5 191.812 175.502C191.82 175.506 191.84 175.515 191.88 175.523C191.951 175.536 192.057 175.54 192.207 175.525C192.506 175.493 192.905 175.39 193.383 175.225C194.334 174.896 195.518 174.349 196.683 173.757C197.844 173.168 198.974 172.542 199.813 172.063C200.233 171.824 200.58 171.622 200.822 171.479C200.943 171.408 201.037 171.352 201.101 171.314C201.133 171.294 201.158 171.28 201.174 171.27L201.197 171.256L201.199 171.255C201.199 171.255 201.199 171.255 201.411 171.608C201.793 171.453 201.793 171.453 201.793 171.453L201.801 171.473C201.806 171.486 201.814 171.505 201.825 171.532C201.846 171.584 201.878 171.661 201.92 171.763C202.004 171.966 202.129 172.264 202.29 172.642C202.612 173.4 203.081 174.483 203.668 175.779C204.841 178.371 206.482 181.816 208.357 185.228C210.235 188.645 212.336 192.012 214.427 194.459C215.473 195.684 216.502 196.663 217.487 197.304C218.473 197.947 219.375 198.226 220.183 198.124C220.979 198.024 221.804 197.487 222.646 196.518C223.482 195.555 224.295 194.212 225.073 192.599C226.628 189.376 228.009 185.151 229.16 180.935C230.31 176.723 231.225 172.538 231.853 169.405C232.167 167.839 232.409 166.536 232.573 165.626C232.655 165.17 232.717 164.813 232.758 164.57C232.779 164.448 232.795 164.355 232.805 164.292C232.81 164.261 232.814 164.237 232.817 164.222L232.821 164.199C232.821 164.198 232.821 164.198 233.227 164.265C233.633 164.331 233.633 164.331 233.633 164.332L233.629 164.356C233.626 164.372 233.622 164.396 233.617 164.428C233.606 164.492 233.59 164.586 233.569 164.709C233.527 164.954 233.465 165.313 233.383 165.771C233.218 166.686 232.975 167.994 232.66 169.567C232.03 172.711 231.11 176.915 229.954 181.151C228.798 185.384 227.402 189.666 225.814 192.957C225.021 194.602 224.171 196.017 223.267 197.058C222.368 198.093 221.374 198.804 220.286 198.941C219.21 199.077 218.111 198.693 217.037 197.993C215.962 197.292 214.873 196.249 213.801 194.994C211.656 192.482 209.523 189.058 207.636 185.625C205.747 182.187 204.096 178.722 202.918 176.118C202.328 174.815 201.857 173.727 201.532 172.965C201.401 172.655 201.294 172.399 201.212 172.204C200.969 172.347 200.629 172.545 200.221 172.778C199.375 173.261 198.233 173.894 197.055 174.491C195.881 175.087 194.658 175.655 193.652 176.003C193.151 176.176 192.684 176.302 192.293 176.343C192.097 176.364 191.904 176.365 191.726 176.331C191.548 176.297 191.36 176.223 191.215 176.07C190.921 175.761 190.96 175.356 191.065 175.044C191.173 174.724 191.387 174.376 191.646 174.029C192.17 173.327 192.962 172.518 193.77 171.76C194.211 171.347 194.662 170.945 195.084 170.579C194.258 170.9 193.299 171.259 192.328 171.59C190.999 172.042 189.63 172.451 188.54 172.64C187.999 172.735 187.498 172.78 187.096 172.738C186.72 172.698 186.271 172.562 186.093 172.134C185.997 171.904 186.028 171.67 186.099 171.474C186.169 171.28 186.29 171.088 186.434 170.904C186.722 170.535 187.159 170.127 187.677 169.705C188.718 168.856 190.16 167.89 191.61 166.984C192.962 166.139 194.332 165.34 195.41 164.727C194.679 164.841 193.844 164.964 193.004 165.072C191.805 165.225 190.583 165.349 189.637 165.369C189.167 165.38 188.744 165.365 188.42 165.308C188.259 165.28 188.098 165.238 187.961 165.169C187.829 165.102 187.658 164.977 187.595 164.755C187.537 164.552 187.596 164.367 187.668 164.234C187.741 164.102 187.847 163.983 187.96 163.877C188.189 163.666 188.518 163.444 188.905 163.221C189.685 162.772 190.781 162.27 192 161.779C194.437 160.797 197.425 159.837 199.474 159.426C201.662 158.986 203.818 159.68 205.79 160.906C207.762 162.132 209.588 163.914 211.141 165.729C212.696 167.547 213.991 169.413 214.895 170.824C215.238 171.357 215.525 171.826 215.749 172.203L218.918 153.799ZM201.411 171.608L201.793 171.453L201.199 171.255L201.411 171.608ZM197.698 163.925L197.892 164.288L197.623 163.52L197.698 163.925Z" fill="#001A39"/>
<path fill-rule="evenodd" clip-rule="evenodd" d="M149.548 161.364L149.501 161.773L149.327 161.4L149.548 161.364ZM149.498 167.03C149.59 167.012 149.688 166.992 149.789 166.971C150.627 166.8 151.759 166.559 152.901 166.277C154.039 165.997 155.201 165.673 156.091 165.335C156.534 165.168 156.928 164.989 157.223 164.802C157.37 164.709 157.508 164.604 157.615 164.485C157.721 164.368 157.824 164.208 157.844 164.01C157.884 163.612 157.597 163.335 157.367 163.174C157.114 162.995 156.769 162.84 156.388 162.703C155.62 162.427 154.599 162.188 153.594 161.992C152.585 161.795 151.574 161.638 150.816 161.53C150.437 161.477 150.121 161.435 149.899 161.407C149.788 161.393 149.701 161.382 149.641 161.375C149.611 161.372 149.588 161.369 149.572 161.367L149.548 161.364C149.548 161.364 149.548 161.364 149.501 161.773C149.327 161.4 149.327 161.4 149.326 161.4L149.326 161.401L149.325 161.401L149.321 161.403L149.312 161.407C149.304 161.411 149.295 161.416 149.283 161.422C149.258 161.435 149.225 161.453 149.183 161.477C149.099 161.525 148.982 161.597 148.836 161.699C148.545 161.903 148.143 162.225 147.676 162.706C146.741 163.669 145.553 165.264 144.48 167.821M148.387 166.428C148.373 166.427 148.364 166.427 148.362 166.427C148.361 166.427 148.361 166.427 148.361 166.427C148.37 166.427 148.379 166.427 148.387 166.428ZM149.498 167.03C149.664 167.134 149.849 167.25 150.047 167.376C150.902 167.922 152.026 168.668 153.134 169.47C154.239 170.271 155.341 171.136 156.144 171.921C156.544 172.312 156.885 172.697 157.114 173.055C157.33 173.392 157.507 173.798 157.413 174.192C157.313 174.613 156.971 174.836 156.624 174.944C156.281 175.052 155.853 175.077 155.4 175.059C154.488 175.021 153.335 174.8 152.221 174.529C151.371 174.323 150.529 174.084 149.814 173.868C150.143 174.156 150.494 174.471 150.84 174.795C151.479 175.392 152.111 176.031 152.546 176.585C152.761 176.859 152.945 177.134 153.051 177.387C153.147 177.615 153.239 177.97 153.019 178.269L153.019 178.269C152.915 178.409 152.773 178.491 152.644 178.54C152.513 178.59 152.368 178.617 152.223 178.632C151.933 178.661 151.583 178.644 151.209 178.602C150.457 178.518 149.531 178.322 148.641 178.101C147.747 177.88 146.876 177.632 146.229 177.439C145.905 177.343 145.637 177.26 145.45 177.201C145.356 177.172 145.282 177.148 145.232 177.132C145.207 177.124 145.188 177.118 145.175 177.114L145.155 177.107L145.154 177.107C145.154 177.107 145.154 177.107 145.281 176.716C144.941 176.948 144.941 176.948 144.941 176.947L144.941 176.947L144.94 176.946L144.938 176.942L144.931 176.931C144.925 176.922 144.916 176.91 144.906 176.893C144.885 176.861 144.857 176.814 144.821 176.754C144.751 176.634 144.655 176.459 144.548 176.235C144.333 175.787 144.071 175.138 143.879 174.326C143.493 172.701 143.386 170.426 144.48 167.821M145.281 176.716L144.941 176.948L145.154 177.107L145.281 176.716ZM145.55 176.37C145.591 176.383 145.64 176.398 145.696 176.416C145.88 176.474 146.145 176.555 146.464 176.651C147.104 176.841 147.962 177.086 148.838 177.303C149.718 177.52 150.603 177.706 151.301 177.784C151.651 177.824 151.936 177.833 152.141 177.813C152.221 177.805 152.279 177.793 152.32 177.781C152.314 177.762 152.305 177.737 152.292 177.706C152.229 177.554 152.098 177.347 151.898 177.093C151.504 176.59 150.908 175.986 150.278 175.396C149.651 174.809 149.002 174.248 148.509 173.833C148.262 173.626 148.055 173.456 147.91 173.337C147.838 173.278 147.781 173.232 147.742 173.201C147.722 173.185 147.708 173.173 147.698 173.165L147.683 173.153L148.076 172.443L148.042 172.539C148.076 172.443 148.076 172.443 148.076 172.443L148.076 172.443L148.082 172.445L148.099 172.452C148.115 172.457 148.139 172.465 148.171 172.476C148.233 172.498 148.325 172.529 148.443 172.569C148.678 172.647 149.015 172.758 149.421 172.886C150.234 173.142 151.319 173.463 152.415 173.729C153.516 173.997 154.605 174.202 155.434 174.236C155.852 174.253 156.169 174.225 156.379 174.159C156.586 174.094 156.607 174.024 156.612 174.002C156.624 173.953 156.613 173.8 156.421 173.498C156.24 173.217 155.95 172.882 155.569 172.51C154.809 171.767 153.746 170.929 152.652 170.137C151.56 169.346 150.45 168.609 149.605 168.07C149.182 167.801 148.827 167.582 148.575 167.431C148.449 167.355 148.35 167.297 148.283 167.259C148.248 167.24 148.226 167.228 148.213 167.221C148.21 167.22 148.208 167.219 148.208 167.219C148.208 167.219 148.21 167.22 148.213 167.221C148.215 167.222 148.225 167.226 148.24 167.231C148.24 167.231 148.24 167.231 148.24 167.231C148.242 167.232 148.251 167.235 148.265 167.238C148.227 167.226 148.136 167.183 148.081 167.141C147.994 167.025 147.958 166.751 148.008 166.625C148.046 166.572 148.117 166.506 148.144 166.488C148.159 166.479 148.186 166.465 148.196 166.461C148.215 166.452 148.231 166.447 148.237 166.445C148.257 166.439 148.277 166.434 148.283 166.433L148.284 166.433C148.303 166.428 148.329 166.423 148.359 166.417C148.419 166.405 148.51 166.387 148.625 166.364L148.63 166.363C148.866 166.317 149.209 166.249 149.625 166.165C150.457 165.995 151.577 165.756 152.704 165.478C153.833 165.2 154.956 164.885 155.799 164.566C156.223 164.405 156.557 164.25 156.782 164.108C156.892 164.038 156.962 163.98 157.002 163.936C156.982 163.916 156.949 163.886 156.893 163.847C156.73 163.732 156.467 163.606 156.11 163.478C155.402 163.224 154.431 162.993 153.437 162.799C152.447 162.606 151.451 162.451 150.701 162.345C150.326 162.292 150.014 162.251 149.796 162.224C149.709 162.213 149.637 162.204 149.582 162.197C149.519 162.234 149.426 162.291 149.308 162.373C149.059 162.548 148.696 162.836 148.266 163.279C147.407 164.164 146.275 165.672 145.239 168.14C144.223 170.557 144.327 172.65 144.679 174.136C144.856 174.881 145.096 175.475 145.29 175.879C145.387 176.082 145.472 176.236 145.532 176.339C145.538 176.35 145.544 176.36 145.55 176.37ZM152.331 177.839C152.331 177.839 152.331 177.838 152.331 177.836C152.332 177.838 152.331 177.839 152.331 177.839ZM148.465 167.236C148.465 167.235 148.465 167.235 148.467 167.235C148.465 167.235 148.464 167.236 148.465 167.236Z" fill="#001A39"/>
<path fill-rule="evenodd" clip-rule="evenodd" d="M181.089 85.6133L241 136.075V232.087H121.177V136.075L181.089 85.6133ZM122.617 136.745V230.647H239.56V136.745L181.089 87.4962L122.617 136.745Z" fill="#001A39"/>
<path d="M341.792 33.0829C341.917 38.8622 337.335 43.6477 331.554 43.7732C326.446 43.8843 322.113 40.3147 321.09 35.4921C320.956 34.8585 320.878 34.2063 320.864 33.5356C320.738 27.7584 325.32 22.9708 331.102 22.8453C334.109 22.7795 336.846 23.9892 338.798 25.9767C340.599 27.8139 341.732 30.3137 341.792 33.0829Z" fill="#F96155"/>
<path d="M320.88 34.735C326.631 38.1688 334.624 40.9956 341.026 37.5824C341.187 37.4959 341.078 37.2347 340.903 37.2861C339.201 37.7902 337.576 38.3621 335.792 38.5267C334.056 38.6872 332.301 38.5493 330.595 38.2016C327.18 37.5042 324.16 35.9303 321.012 34.5107C320.862 34.4428 320.732 34.6465 320.88 34.735Z" fill="white"/>
<path d="M323.273 26.664C328.281 29.6884 335.517 32.3733 341.273 29.9456C341.452 29.8694 341.316 29.6184 341.15 29.6493C339.646 29.9373 338.191 30.2789 336.648 30.3097C335.035 30.3406 333.426 30.1307 331.859 29.7604C328.869 29.0506 326.197 27.668 323.407 26.4397C323.255 26.3739 323.127 26.5755 323.273 26.664Z" fill="white"/>
<path d="M51.602 218.775L26.1623 195.619L16.4843 228.116L51.602 218.775Z" fill="#F96155"/>
<path d="M20.8025 213.745C25.3699 213.134 29.7892 213.374 34.1057 215.092C37.9736 216.633 41.4711 219.252 45.4728 220.431C45.6456 220.483 45.7628 220.219 45.5983 220.135C43.6478 219.147 41.6563 218.24 39.7121 217.23C37.8131 216.242 35.9018 215.269 33.8958 214.512C29.7234 212.936 25.1354 212.492 20.7696 213.489C20.6277 213.52 20.6544 213.763 20.8025 213.745Z" fill="white"/>
<path d="M31.1331 224.219C29.9068 220.576 29.2239 216.819 29.5613 212.965C29.7341 210.986 30.1949 209.056 30.8697 207.19C31.5261 205.376 32.458 203.691 33.172 201.905C33.2419 201.728 32.9704 201.633 32.8757 201.781C28.6992 208.289 27.652 217.218 30.8945 224.322C30.9562 224.454 31.1804 224.359 31.1331 224.219Z" fill="white"/>
<path d="M333.286 186.988C318.697 200.026 296.301 198.769 283.263 184.18C270.225 169.591 271.482 147.194 286.071 134.156" fill="#F96155"/>
<path fill-rule="evenodd" clip-rule="evenodd" d="M299.021 175.169C294.913 178.997 290.964 184.373 288.116 188.662L287.602 188.32C290.458 184.021 294.438 178.596 298.6 174.717C300.68 172.779 302.823 171.211 304.908 170.369C306.999 169.526 309.059 169.404 310.931 170.408L310.931 170.408C313.826 171.962 315.611 175.679 316.705 180.156C317.805 184.655 318.23 190.018 318.329 194.998L317.712 195.011C317.614 190.049 317.19 184.737 316.106 180.302C315.016 175.846 313.282 172.371 310.639 170.952C308.977 170.06 307.118 170.143 305.139 170.942C303.154 171.743 301.076 173.254 299.021 175.169Z" fill="white"/>
<path fill-rule="evenodd" clip-rule="evenodd" d="M284.886 150.168C283.71 153.815 283.444 157.05 284.611 159.363L284.335 159.502L284.611 159.363C285.329 160.787 286.573 161.694 288.212 162.201C289.859 162.712 291.892 162.814 294.146 162.627C298.655 162.252 303.962 160.727 308.64 159.128L308.84 159.712C304.153 161.314 298.786 162.86 294.198 163.242C291.904 163.432 289.782 163.334 288.03 162.791C286.27 162.246 284.87 161.248 284.059 159.641C282.778 157.101 283.111 153.663 284.298 149.979C285.491 146.28 287.57 142.261 289.882 138.505L290.408 138.829C288.108 142.564 286.057 146.535 284.886 150.168Z" fill="white"/>
<path d="M342.076 93.7295L334.365 114.937L355.572 122.647L363.283 101.44L342.076 93.7295Z" fill="#FBC73B"/>
<path d="M32.3642 21.1658L14.3389 34.7412L27.9143 52.7666L45.9397 39.1911L32.3642 21.1658Z" fill="#FBC73B"/>
<path fill-rule="evenodd" clip-rule="evenodd" d="M22.4779 45.9484C22.6319 40.9336 22.5738 34.6273 21.7668 28.962L22.3779 28.875C23.1921 34.5913 23.2493 40.9379 23.0948 45.9673L22.4779 45.9484Z" fill="white"/>
<path fill-rule="evenodd" clip-rule="evenodd" d="M31.7054 35.0155C30.9185 38.0097 30.864 40.6426 31.8671 42.63L31.8671 42.6301C32.7647 44.4099 34.4678 45.4239 36.7272 45.8713L36.6073 46.4768C34.2335 46.0067 32.3277 44.9139 31.316 42.9081C30.2123 40.7211 30.3071 37.908 31.1085 34.8586C31.9119 31.8016 33.4392 28.4555 35.2701 25.1621L35.8095 25.462C33.9906 28.7338 32.4903 32.029 31.7054 35.0155Z" fill="white"/>
<path d="M353.301 229.308C353.426 235.087 348.845 239.872 343.063 239.998C337.955 240.109 333.622 236.539 332.599 231.717C332.466 231.083 332.388 230.431 332.373 229.76C332.248 223.983 336.829 219.195 342.611 219.07C345.619 219.004 348.355 220.214 350.307 222.201C352.108 224.039 353.239 226.536 353.301 229.308Z" fill="#FBC73B"/>
<path d="M20.9303 114.825C21.0558 120.604 16.474 125.39 10.6927 125.515C5.58423 125.626 1.25128 122.057 0.228751 117.234C0.0950204 116.601 0.0169197 115.948 0.00251787 115.278C-0.122983 109.501 4.45879 104.713 10.2401 104.588C13.248 104.522 15.9844 105.731 17.9368 107.719C19.7391 109.556 20.8706 112.056 20.9303 114.825Z" fill="#F96155"/>
<path fill-rule="evenodd" clip-rule="evenodd" d="M71.8035 68.2004C71.3284 68.7415 71.3286 68.7417 71.3289 68.742L71.3344 68.7468L71.3505 68.7609C71.3646 68.7731 71.3853 68.7912 71.4127 68.8149C71.4675 68.8623 71.5487 68.9322 71.656 69.0236C71.8705 69.2065 72.1891 69.4751 72.6079 69.8207C73.4453 70.5119 74.6835 71.5108 76.2913 72.7463C79.5069 75.2172 84.2019 78.6348 90.1278 82.4289C101.977 90.0153 118.762 99.1162 138.493 105.157C151.528 109.15 165.857 111.809 180.901 111.809C195.945 111.809 210.274 109.15 223.309 105.157C243.04 99.1162 259.825 90.0153 271.674 82.4289C277.6 78.6348 282.295 75.2171 285.511 72.7463C287.119 71.5108 288.357 70.5119 289.194 69.8207C289.613 69.4751 289.932 69.2065 290.146 69.0236C290.253 68.9322 290.335 68.8623 290.39 68.8149L290.411 68.7964C290.428 68.7816 290.442 68.7697 290.452 68.7609L290.468 68.7468L290.472 68.7431L290.473 68.742C290.474 68.7417 290.474 68.7415 289.999 68.2004L290.474 68.7415L291.09 68.2004L290.474 67.6594L289.999 68.2004C290.474 67.6594 290.473 67.659 290.473 67.6586L290.471 67.6568L290.464 67.6504L290.436 67.626C290.411 67.6046 290.375 67.5731 290.327 67.5317C290.23 67.449 290.088 67.327 289.9 67.1683C289.523 66.851 288.965 66.387 288.235 65.7972C286.773 64.6177 284.62 62.935 281.85 60.917C276.309 56.8814 268.294 51.5024 258.389 46.1234C238.59 35.3699 211.194 24.5918 180.903 24.5918C150.612 24.5918 123.216 35.3699 103.415 46.1234C93.5102 51.5024 85.4945 56.8814 79.9533 60.917C77.1825 62.935 75.0296 64.6177 73.5679 65.7972C72.837 66.387 72.2788 66.851 71.9026 67.1683C71.7144 67.327 71.5717 67.449 71.4757 67.5317C71.4276 67.573 71.3913 67.6046 71.3667 67.626L71.3386 67.6504L71.3293 67.6586C71.3288 67.659 71.3284 67.6593 71.8035 68.2004ZM72.9127 68.2005C73.0832 68.3438 73.2874 68.5142 73.5246 68.71C74.35 69.3912 75.5751 70.3797 77.1688 71.6043C80.3565 74.0538 85.0178 77.4471 90.9044 81.216C102.68 88.7556 119.345 97.7885 138.915 103.78C151.84 107.74 166.026 110.369 180.901 110.369C195.776 110.369 209.962 107.74 222.887 103.78C242.457 97.7886 259.122 88.7556 270.898 81.216C276.784 77.4471 281.446 74.0538 284.633 71.6043C286.227 70.3797 287.452 69.3912 288.278 68.71C288.515 68.5142 288.719 68.3438 288.89 68.2004C288.523 67.8924 288.001 67.4593 287.33 66.918C285.885 65.752 283.751 64.084 281.002 62.0812C275.502 58.0752 267.54 52.7321 257.702 47.389C238.017 36.6981 210.865 26.032 180.903 26.032C150.941 26.032 123.788 36.6981 104.102 47.389C94.2635 52.7321 86.3017 58.0752 80.8012 62.0812C78.0512 64.084 75.9172 65.752 74.4723 66.918C73.8014 67.4593 73.2791 67.8924 72.9127 68.2005ZM71.3284 67.6593L71.8035 68.2004L71.3284 68.7415L70.7122 68.2004L71.3284 67.6593Z" fill="#001A39"/>
<path d="M216.531 105.499C205.573 108.856 193.533 111.089 180.903 111.089C168.273 111.089 156.235 108.854 145.275 105.499C147.374 87.6857 162.524 73.8662 180.903 73.8662C199.282 73.8662 214.432 87.6837 216.531 105.499Z" fill="#001A39"/>
<path fill-rule="evenodd" clip-rule="evenodd" d="M66.9628 42.0664L87.006 56.5772L86.1615 57.7438L66.1183 43.233L66.9628 42.0664Z" fill="#001A39"/>
<path fill-rule="evenodd" clip-rule="evenodd" d="M97.8311 18.8877L114.299 40.7537L113.148 41.6201L96.6807 19.7541L97.8311 18.8877Z" fill="#001A39"/>
<path fill-rule="evenodd" clip-rule="evenodd" d="M139.39 5.74609L146.953 28.5503L145.586 29.0037L138.023 6.19944L139.39 5.74609Z" fill="#001A39"/>
<path fill-rule="evenodd" clip-rule="evenodd" d="M186.176 0.0287439L185.485 24.7545L184.457 24.7258L185.148 0L186.176 0.0287439Z" fill="#001A39"/>
<path fill-rule="evenodd" clip-rule="evenodd" d="M294.118 41.4966L278.153 59.075L277.087 58.1067L293.052 40.5283L294.118 41.4966Z" fill="#001A39"/>
<path fill-rule="evenodd" clip-rule="evenodd" d="M264.762 21.3784L251.541 43.267L250.309 42.5224L263.53 20.6338L264.762 21.3784Z" fill="#001A39"/>
<path fill-rule="evenodd" clip-rule="evenodd" d="M229.569 8.48827L221.346 30.6526L219.995 30.1516L228.219 7.9873L229.569 8.48827Z" fill="#001A39"/>
<path fill-rule="evenodd" clip-rule="evenodd" d="M181.089 87.6709L207.867 110.226L206.939 111.327L181.089 89.5539L155.238 111.327L154.311 110.226L181.089 87.6709Z" fill="white"/>
<path d="M57.8233 174.181C55.124 174.181 52.4083 173.274 50.1349 171.404C44.8041 167.021 43.9298 159.014 48.1803 153.521L69.8056 125.569C74.0562 120.074 81.8228 119.172 87.1535 123.555C92.4843 127.937 93.3587 135.944 89.1081 141.438L67.4828 169.392C65.0448 172.541 61.4505 174.181 57.8233 174.181Z" fill="#FBC73B"/>
<path fill-rule="evenodd" clip-rule="evenodd" d="M61.3759 149.948C60.4029 146.787 58.9055 144.133 56.6648 142.583L57.0159 142.075C59.4198 143.738 60.9741 146.544 61.9659 149.767C62.9591 152.994 63.4001 156.676 63.5495 160.142C63.6989 163.611 63.5568 166.875 63.3775 169.272C63.2878 170.471 63.1888 171.453 63.1121 172.136C63.0737 172.478 63.041 172.745 63.0178 172.927C63.0062 173.018 62.9969 173.087 62.9906 173.134C62.9895 173.142 62.9885 173.15 62.9875 173.157C62.9858 173.17 62.9844 173.18 62.9833 173.188L62.9814 173.202L62.9809 173.205L62.9807 173.206C62.9807 173.206 62.9807 173.207 62.6751 173.163C62.3695 173.12 62.3696 173.12 62.3696 173.12L62.3701 173.116L62.3719 173.103C62.3735 173.092 62.3758 173.075 62.3789 173.052C62.3851 173.006 62.3941 172.938 62.4055 172.848C62.4284 172.67 62.4607 172.406 62.4987 172.067C62.5747 171.391 62.6729 170.416 62.762 169.226C62.9401 166.845 63.0809 163.606 62.9328 160.169C62.7847 156.73 62.3476 153.105 61.3759 149.948Z" fill="white"/>
<path fill-rule="evenodd" clip-rule="evenodd" d="M71.264 141.943C71.0063 144.015 71.1808 145.844 71.906 147.326C73.3655 150.307 76.9664 151.212 81.5362 150.89L81.5796 151.506C76.9817 151.83 72.9947 150.953 71.3517 147.598L71.3517 147.598C70.5555 145.971 70.3851 144.008 70.6515 141.866C70.9182 139.723 71.6248 137.378 72.6081 134.965C74.5748 130.14 77.6663 125.003 80.6419 120.604L81.1531 120.95C78.187 125.335 75.1227 130.431 73.1797 135.198C72.2083 137.582 71.5216 139.872 71.264 141.943Z" fill="white"/>
</svg>
