<svg width="367" height="240" viewBox="0 0 367 240" fill="none" xmlns="http://www.w3.org/2000/svg">
<path d="M336.472 173.318L366.073 177.961L352.674 223.494L351.212 184.98L329.657 181.592" fill="#FBC73B"/>
<path d="M268.161 191.567L284.685 210.195L245.6 237.123L268.721 206.286L257.657 193.699" fill="#FBC73B"/>
<path d="M343.012 172.535C343.012 172.535 348.883 177.445 345.951 188.106C343.187 198.158 334.905 199.817 334.905 199.817L289.011 190.065C284.206 188.836 280.304 185.339 278.56 180.696L265.457 145.827L244.4 157.934L270.39 190.23C270.39 190.23 272.062 197.731 263.958 203.865C256.96 209.162 248.27 207.567 248.27 207.567L215.184 170.431C206.677 160.881 207.681 146.204 217.409 137.904C234.334 123.465 244.667 115.144 257.995 108.858C269.57 103.401 286.092 106.283 295.244 115.534C302.897 123.274 305.231 132.218 306.311 164.478" fill="#F96155"/>
<path fill-rule="evenodd" clip-rule="evenodd" d="M260.729 130.184L269.453 158.719L268.451 159.025L259.726 130.491L260.729 130.184Z" fill="white"/>
<path d="M325.536 197.645C324.682 192.769 326.815 187.395 331.229 184.932C333.49 183.67 336.15 183.35 338.544 184.44C341.01 185.564 343.211 187.432 345.149 189.295C345.511 189.643 346.064 189.093 345.7 188.745C343.559 186.685 341.028 184.518 338.212 183.465C335.767 182.551 333.076 183.012 330.834 184.259C326.094 186.895 323.87 192.643 324.781 197.854C324.871 198.347 325.622 198.137 325.536 197.645Z" fill="#FBC73B"/>
<path d="M330.464 169.658C326.608 177.487 320.197 185.567 310.521 184.917C305.781 184.598 301.99 181.671 300.279 177.264C298.372 172.352 299.184 166.981 300.329 161.992C301.66 156.199 303.423 150.493 305.624 144.97C305.81 144.504 305.056 144.302 304.872 144.763C302.671 150.286 300.908 155.992 299.577 161.785C298.385 166.978 297.57 172.569 299.601 177.665C301.223 181.734 304.566 184.729 308.923 185.504C313.12 186.248 317.59 185.127 321.106 182.761C325.68 179.682 328.743 174.917 331.138 170.054C331.36 169.603 330.687 169.208 330.464 169.658Z" fill="#FBC73B"/>
<path d="M279.076 181.571C282.073 178.943 286.034 177.754 289.894 177.075C294.214 176.315 298.773 175.972 303.064 177.08C306.654 178.008 310.089 180.007 312.219 183.101C314.695 186.696 315.025 191.488 315.213 195.714C315.237 196.214 316.015 196.217 315.994 195.714C315.8 191.341 315.433 186.431 312.892 182.706C310.738 179.548 307.293 177.445 303.654 176.428C299.111 175.157 294.274 175.511 289.684 176.318C285.683 177.023 281.628 178.293 278.523 181.016C278.146 181.351 278.698 181.901 279.076 181.571Z" fill="#FBC73B"/>
<path d="M267.828 151.949C271.561 149.398 275.748 147.592 280.189 146.717C283.378 146.089 290.685 144.991 290.441 150.233C290.339 152.429 289.241 154.69 288.217 156.589C287.169 158.531 285.89 160.341 284.517 162.065C281.688 165.61 278.481 168.854 275.051 171.817C274.671 172.147 275.224 172.695 275.601 172.367C281.363 167.381 287.436 161.3 290.239 154.066C291.285 151.373 292.068 147.815 288.977 146.185C286.197 144.721 282.45 145.439 279.537 146.054C275.198 146.971 271.09 148.774 267.432 151.273C267.024 151.559 267.411 152.235 267.828 151.949Z" fill="#FBC73B"/>
<path d="M303.387 133.617C299.645 135.852 296.053 137.898 291.565 137.922C287.195 137.943 282.869 136.282 280.194 132.721C277.663 129.349 276.715 125.06 275.848 121.018C274.802 116.145 273.898 111.151 273.613 106.168C273.584 105.67 272.803 105.665 272.832 106.168C273.07 110.307 273.762 114.452 274.546 118.521C275.245 122.152 275.963 125.878 277.399 129.305C278.651 132.294 280.572 134.972 283.406 136.636C286.267 138.312 289.705 138.92 292.988 138.64C297.046 138.294 300.363 136.34 303.782 134.296C304.212 134.034 303.819 133.361 303.387 133.617Z" fill="#FBC73B"/>
<path d="M288.699 110.682C286.135 118.519 280.132 122.417 274.846 123.698C269.056 125.1 262.553 124.505 257.4 119.797C257.122 119.543 256.87 120.216 257.148 120.47C261.264 124.233 266.161 125.323 270.867 125.05C275.657 124.772 280.403 123.048 284.457 118.922C286.415 116.928 288.06 114.345 289.13 111.078C289.275 110.63 288.845 110.237 288.699 110.682Z" fill="#FBC73B"/>
<path d="M228.939 128.603C232.594 130.761 236.115 133.515 236.954 137.927C237.695 141.834 236.236 145.931 233.831 148.997C228.229 156.144 217.99 157.239 209.575 157.679C209.074 157.706 209.072 158.486 209.575 158.46C217.052 158.067 225.219 157.192 231.371 152.505C236.202 148.824 239.448 141.965 237.216 135.975C235.827 132.252 232.631 129.878 229.33 127.929C228.9 127.675 228.507 128.348 228.939 128.603Z" fill="#FBC73B"/>
<path d="M262.653 180.115C256.869 179.056 250.455 179.392 245.597 183.057C240.784 186.688 238.924 192.599 239.964 198.429C240.053 198.921 240.805 198.711 240.716 198.222C239.697 192.513 241.68 186.714 246.522 183.348C251.139 180.138 257.086 179.887 262.449 180.869C262.939 180.956 263.149 180.204 262.653 180.115Z" fill="#FBC73B"/>
<path d="M225.507 182.276C233.186 181.141 242.008 182.147 248.925 185.834C252.189 187.574 255.045 190.034 257.033 193.172C259.399 196.903 260.429 201.26 261.018 205.589C261.087 206.084 261.839 205.872 261.77 205.382C261.155 200.86 260.039 196.298 257.492 192.447C255.446 189.352 252.582 186.9 249.32 185.163C242.207 181.375 233.191 180.361 225.3 181.527C224.805 181.597 225.014 182.349 225.507 182.276Z" fill="#FBC73B"/>
<path d="M258.629 149.751C255.006 144.755 249.346 141.792 243.41 140.479C237.868 139.256 231.392 139.054 226.204 141.682C220.843 144.396 218.876 150.246 220.65 155.864C222.617 162.102 228.219 165.959 233.805 168.746C241.122 172.399 249.323 175.708 257.66 174.861C258.155 174.812 258.16 174.031 257.66 174.081C250.753 174.783 244.015 172.551 237.79 169.765C232.327 167.321 226.314 164.405 223.023 159.154C219.837 154.066 219.748 146.985 225.046 143.277C229.657 140.052 236.094 140.005 241.437 140.893C247.788 141.946 254.094 144.823 257.953 150.147C258.247 150.548 258.923 150.16 258.629 149.751Z" fill="#FBC73B"/>
<path fill-rule="evenodd" clip-rule="evenodd" d="M348.069 194.693L355.23 188.352L355.924 189.137L348.764 195.478L348.069 194.693Z" fill="white"/>
<path fill-rule="evenodd" clip-rule="evenodd" d="M347.878 199.618L355.038 193.278L355.733 194.062L348.573 200.403L347.878 199.618Z" fill="white"/>
<path fill-rule="evenodd" clip-rule="evenodd" d="M347.378 204.89L354.538 198.552L355.233 199.337L348.072 205.675L347.378 204.89Z" fill="white"/>
<path fill-rule="evenodd" clip-rule="evenodd" d="M260.999 211.768L270.544 211.176L270.609 212.222L261.064 212.814L260.999 211.768Z" fill="white"/>
<path fill-rule="evenodd" clip-rule="evenodd" d="M257.818 215.536L267.363 214.943L267.428 215.989L257.883 216.582L257.818 215.536Z" fill="white"/>
<path fill-rule="evenodd" clip-rule="evenodd" d="M254.18 219.382L263.724 218.792L263.789 219.838L254.244 220.428L254.18 219.382Z" fill="white"/>
<path fill-rule="evenodd" clip-rule="evenodd" d="M317.494 92.1803L292.077 81.488L292.484 80.522L317.9 91.2143L317.494 92.1803Z" fill="#001A39"/>
<path fill-rule="evenodd" clip-rule="evenodd" d="M296.77 100.413C296.772 100.41 296.774 100.408 296.777 100.406C296.873 100.302 297.033 100.162 297.266 99.9874C297.728 99.6406 298.406 99.2062 299.24 98.7121C300.906 97.7264 303.142 96.5345 305.39 95.3804C307.636 94.2274 309.885 93.1164 311.574 92.2933C312.418 91.8819 313.122 91.5426 313.614 91.3062C313.86 91.188 314.054 91.0955 314.186 91.0326C314.252 91.0012 314.302 90.9772 314.336 90.961L314.387 90.9367C314.387 90.9367 314.387 90.9366 314.163 90.4632C313.938 89.9898 313.938 89.9898 313.938 89.9899L313.886 90.0146C313.852 90.0309 313.801 90.0551 313.734 90.0868C313.602 90.15 313.408 90.2428 313.161 90.3614C312.667 90.5985 311.961 90.9388 311.115 91.3513C309.422 92.1761 307.166 93.2906 304.911 94.4481C302.659 95.6046 300.4 96.8081 298.707 97.8103C297.862 98.3101 297.145 98.7677 296.636 99.1494C296.384 99.3389 296.166 99.5224 296.008 99.6935C295.929 99.7789 295.851 99.8752 295.792 99.9802C295.736 100.079 295.67 100.234 295.682 100.419C295.696 100.627 295.783 100.81 295.871 100.952C295.963 101.101 296.085 101.247 296.22 101.389C296.489 101.672 296.855 101.978 297.271 102.29C298.107 102.916 299.205 103.606 300.3 104.232C301.396 104.859 302.505 105.431 303.367 105.817C303.795 106.009 304.177 106.163 304.472 106.253C304.616 106.297 304.765 106.334 304.9 106.345C304.966 106.351 305.057 106.354 305.154 106.333C305.247 106.314 305.413 106.257 305.529 106.091L305.53 106.09C306.041 105.357 305.917 104.526 305.59 103.815C305.264 103.107 304.695 102.413 304.114 101.819C303.528 101.218 302.899 100.689 302.419 100.311C302.179 100.122 301.974 99.9691 301.829 99.8635C301.757 99.8106 301.699 99.7694 301.659 99.7412C301.639 99.7271 301.623 99.7161 301.613 99.7086L301.6 99.6999L301.597 99.6975L301.595 99.6965C301.595 99.6964 301.595 99.6963 301.298 100.128C301.002 100.56 301.002 100.56 301.002 100.56L301.004 100.562L301.014 100.569C301.023 100.575 301.037 100.585 301.055 100.597C301.091 100.623 301.144 100.661 301.212 100.711C301.348 100.81 301.542 100.954 301.771 101.134C302.229 101.496 302.821 101.994 303.365 102.551C303.915 103.114 304.386 103.707 304.638 104.254C304.827 104.665 304.868 104.99 304.787 105.253C304.784 105.252 304.781 105.251 304.778 105.25C304.545 105.179 304.21 105.047 303.796 104.861C302.972 104.492 301.895 103.937 300.82 103.323C299.745 102.707 298.687 102.041 297.899 101.451C297.504 101.155 297.191 100.889 296.979 100.666C296.88 100.563 296.813 100.478 296.77 100.413ZM296.706 100.494C296.706 100.494 296.706 100.493 296.706 100.493C296.704 100.496 296.704 100.497 296.706 100.494Z" fill="#001A39"/>
<path fill-rule="evenodd" clip-rule="evenodd" d="M300.217 67.1522C299.354 66.8371 298.773 66.6249 298.593 66.5453L299.016 65.5865C299.162 65.651 299.701 65.848 300.581 66.1694C300.735 66.2253 300.898 66.285 301.071 66.3483C302.225 66.7699 303.79 67.3449 305.625 68.0421C309.296 69.4362 314.053 71.3205 318.773 73.4479C323.489 75.5732 328.187 77.9501 331.732 80.332C333.502 81.5223 335.005 82.727 336.08 83.9169C337.145 85.0969 337.846 86.3256 337.886 87.5591C337.925 88.7614 337.44 89.9791 336.639 91.1643C335.836 92.353 334.687 93.5515 333.326 94.7289C330.603 97.0844 326.964 99.4131 323.339 101.466C319.711 103.521 316.076 105.311 313.35 106.587C311.987 107.225 310.85 107.735 310.053 108.086C309.655 108.261 309.342 108.397 309.128 108.489C309.102 108.5 309.077 108.51 309.054 108.52C309.046 108.561 309.036 108.607 309.026 108.657C308.973 108.916 308.896 109.287 308.801 109.732C308.611 110.62 308.347 111.807 308.055 112.995C307.764 114.18 307.441 115.379 307.13 116.287C306.976 116.738 306.818 117.138 306.66 117.434C306.582 117.58 306.491 117.726 306.385 117.842C306.293 117.942 306.101 118.117 305.818 118.117C305.515 118.117 305.325 117.921 305.235 117.798C305.14 117.668 305.073 117.51 305.023 117.363C304.92 117.063 304.841 116.661 304.776 116.217C304.719 115.829 304.671 115.387 304.63 114.917C304.458 115.844 304.255 116.73 304.017 117.449C303.849 117.956 303.652 118.417 303.414 118.755C303.19 119.074 302.822 119.428 302.301 119.372C301.778 119.316 301.489 118.882 301.333 118.521C301.164 118.134 301.057 117.63 300.986 117.082C300.842 115.977 300.829 114.545 300.871 113.147C300.878 112.922 300.886 112.698 300.895 112.475C300.672 113.112 300.437 113.721 300.203 114.223C300.032 114.589 299.851 114.923 299.662 115.173C299.568 115.298 299.459 115.421 299.332 115.517C299.207 115.611 299.027 115.707 298.804 115.707C298.44 115.707 298.246 115.437 298.168 115.288C298.082 115.126 298.032 114.929 297.998 114.741C297.929 114.355 297.902 113.833 297.899 113.244C297.894 112.055 297.991 110.483 298.12 108.926C298.25 107.366 298.413 105.807 298.544 104.64C298.61 104.056 298.667 103.569 298.708 103.228C298.729 103.057 298.745 102.923 298.757 102.832C298.762 102.786 298.767 102.751 298.77 102.727L298.774 102.691C298.774 102.691 298.774 102.691 299.294 102.756C299.814 102.822 299.814 102.822 299.814 102.822L299.81 102.857C299.807 102.88 299.802 102.915 299.797 102.96C299.786 103.051 299.769 103.184 299.749 103.353C299.708 103.692 299.651 104.176 299.586 104.756C299.455 105.919 299.293 107.467 299.165 109.013C299.036 110.563 298.942 112.098 298.947 113.239C298.949 113.659 298.964 114.012 298.993 114.286C299.074 114.147 299.161 113.977 299.253 113.78C299.57 113.101 299.901 112.18 300.204 111.24C300.506 110.304 300.775 109.367 300.969 108.662C301.066 108.31 301.144 108.017 301.198 107.812C301.224 107.709 301.245 107.629 301.259 107.574C301.263 107.56 301.266 107.548 301.269 107.537C301.271 107.527 301.273 107.519 301.275 107.512L301.28 107.493L301.28 107.492L301.788 107.619C302.309 107.678 302.309 107.678 302.309 107.678L302.308 107.685L302.306 107.708C302.303 107.728 302.3 107.759 302.296 107.799C302.287 107.879 302.275 107.996 302.26 108.146C302.23 108.446 302.189 108.875 302.145 109.391C302.058 110.424 301.96 111.799 301.918 113.178C301.877 114.563 301.893 115.927 302.025 116.947C302.092 117.461 302.184 117.851 302.294 118.104C302.347 118.225 302.389 118.285 302.415 118.314C302.443 118.292 302.491 118.246 302.557 118.152C302.707 117.939 302.865 117.593 303.022 117.12C303.332 116.182 303.59 114.892 303.796 113.568C304 112.25 304.149 110.924 304.247 109.925C304.296 109.426 304.332 109.01 304.356 108.719C304.368 108.573 304.377 108.459 304.383 108.382C304.386 108.343 304.388 108.313 304.389 108.293L304.391 108.271L304.391 108.264C304.391 108.264 304.391 108.264 304.611 108.279L304.391 108.264L305.438 108.3L304.914 108.3C305.438 108.3 305.438 108.3 305.438 108.3L305.438 108.326L305.438 108.403C305.438 108.471 305.439 108.57 305.44 108.696C305.441 108.949 305.445 109.31 305.452 109.744C305.466 110.612 305.493 111.768 305.549 112.922C305.606 114.079 305.689 115.22 305.813 116.066C305.841 116.26 305.871 116.433 305.901 116.583C305.976 116.404 306.055 116.191 306.138 115.948C306.434 115.084 306.748 113.922 307.038 112.744C307.326 111.57 307.587 110.395 307.776 109.512C307.871 109.071 307.947 108.704 308 108.447C308.026 108.318 308.046 108.217 308.06 108.148L308.076 108.07L308.081 108.044L308.081 108.044C308.081 108.044 308.081 108.044 308.595 108.146C308.393 107.662 308.393 107.662 308.393 107.662L308.397 107.66L308.413 107.654C308.424 107.649 308.439 107.643 308.459 107.634L308.474 107.628C308.528 107.605 308.609 107.571 308.715 107.525C308.926 107.435 309.236 107.301 309.631 107.127C310.422 106.779 311.551 106.272 312.906 105.638C315.617 104.369 319.226 102.591 322.823 100.554C326.425 98.5139 329.994 96.225 332.64 93.9364C333.963 92.7918 335.038 91.6617 335.771 90.5775C336.506 89.4897 336.868 88.4902 336.839 87.5931C336.811 86.7267 336.304 85.7295 335.302 84.6192C334.308 83.5188 332.883 82.3689 331.147 81.2019C327.676 78.8692 323.04 76.5207 318.343 74.4033C313.649 72.2879 308.914 70.412 305.253 69.0218C303.424 68.3269 301.863 67.7536 300.711 67.3326C300.538 67.2693 300.373 67.2091 300.217 67.1522ZM308.595 108.146L308.393 107.662L308.081 108.044L308.595 108.146ZM305.604 117.142C305.604 117.142 305.606 117.139 305.61 117.135C305.606 117.14 305.604 117.142 305.604 117.142ZM302.383 118.332C302.383 118.332 302.385 118.331 302.388 118.33C302.385 118.332 302.383 118.332 302.383 118.332ZM301.788 107.619L302.309 107.678L301.28 107.492L301.788 107.619Z" fill="#001A39"/>
<path d="M300.321 63.4041C302.567 77.4944 292.964 90.7333 278.874 92.9786C264.784 95.224 251.545 85.6217 249.299 71.5313" fill="#FBC73B"/>
<path d="M256.544 45.3313C256.389 52.4446 262.03 58.3369 269.143 58.4889C275.431 58.6251 280.766 54.2314 282.023 48.2971C282.188 47.519 282.283 46.7146 282.301 45.8893C282.455 38.776 276.815 32.8836 269.701 32.7317C265.999 32.6505 262.633 34.1386 260.227 36.5883C258.011 38.8441 256.617 41.92 256.544 45.3313Z" fill="#0074E0"/>
<path d="M260.227 36.5857C263.536 43.4815 270.514 48.3102 278.685 48.4884C279.82 48.5119 280.936 48.4464 282.026 48.2971C282.191 47.519 282.285 46.7146 282.304 45.8893C282.458 38.776 276.817 32.8836 269.704 32.7317C265.999 32.6505 262.63 34.136 260.227 36.5857Z" fill="#001A39"/>
<path d="M281.342 37.3979C284.054 37.3979 286.252 35.1997 286.252 32.488C286.252 29.7764 284.054 27.5781 281.342 27.5781C278.63 27.5781 276.432 29.7764 276.432 32.488C276.432 35.1997 278.63 37.3979 281.342 37.3979Z" fill="#001A39"/>
<path d="M279.432 27.9502C287.15 27.9502 293.407 21.6933 293.407 13.9751C293.407 6.25685 287.15 0 279.432 0C271.714 0 265.457 6.25685 265.457 13.9751C265.457 21.6933 271.714 27.9502 279.432 27.9502Z" fill="#001A39"/>
<path d="M260.218 45.1775C260.251 43.6281 259.704 42.3596 258.995 42.3443C258.286 42.329 257.684 43.5726 257.651 45.122C257.617 46.6715 258.165 47.9399 258.874 47.9553C259.583 47.9706 260.184 46.7269 260.218 45.1775Z" fill="#001A39"/>
<path d="M264.476 45.4641C264.51 43.9146 263.962 42.6462 263.253 42.6309C262.544 42.6156 261.942 43.8592 261.909 45.4086C261.876 46.958 262.423 48.2265 263.132 48.2418C263.841 48.2571 264.443 47.0135 264.476 45.4641Z" fill="#001A39"/>
<path d="M258.823 50.8409C258.823 50.8409 260.953 50.3745 260.874 48.4121L258.823 50.8409Z" fill="white"/>
<path fill-rule="evenodd" clip-rule="evenodd" d="M258.936 51.3527C258.935 51.3528 258.935 51.3528 258.823 50.8409C258.711 50.3291 258.711 50.3291 258.711 50.3292L258.71 50.3292L258.71 50.3293C258.711 50.329 258.715 50.3282 258.72 50.3269C258.73 50.3243 258.747 50.3198 258.771 50.3132C258.817 50.3 258.886 50.2784 258.971 50.2467C259.141 50.1828 259.364 50.0814 259.58 49.9317C260.004 49.6378 260.381 49.1826 260.351 48.4332L261.398 48.3912C261.447 49.6042 260.798 50.3633 260.177 50.7933C259.87 51.0054 259.565 51.1432 259.339 51.2281C259.224 51.2708 259.128 51.301 259.058 51.3209C259.023 51.3309 258.995 51.3384 258.974 51.3436C258.964 51.3462 258.955 51.3482 258.949 51.3498L258.94 51.3517L258.937 51.3523L258.936 51.3526L258.936 51.3527ZM258.71 50.3293L258.71 50.3294L258.709 50.3295C258.709 50.3296 258.709 50.3295 258.71 50.3293Z" fill="#001A39"/>
<path fill-rule="evenodd" clip-rule="evenodd" d="M232.435 66.908C232.592 66.7928 232.901 66.6143 233.252 66.7508L233.252 66.751C233.554 66.8685 233.688 67.1331 233.748 67.3304C233.808 67.5324 233.823 67.7641 233.819 67.993C233.809 68.4565 233.713 69.0553 233.568 69.7202C233.336 70.7855 232.961 72.0919 232.539 73.4306C233.058 72.4865 233.572 71.6024 234.032 70.8972C234.372 70.3759 234.698 69.9288 234.987 69.6264C235.128 69.4782 235.287 69.3355 235.458 69.2433C235.622 69.1551 235.918 69.0524 236.217 69.2236C236.496 69.383 236.578 69.6795 236.609 69.8406C236.647 70.0341 236.653 70.2608 236.643 70.4953C236.622 70.9698 236.531 71.5887 236.398 72.2857C236.129 73.6861 235.672 75.4841 235.185 77.2502C234.698 79.0192 234.177 80.7678 233.779 82.0734C233.713 82.2884 233.651 82.4915 233.592 82.6807C234.127 82.2797 234.772 81.7993 235.424 81.3238C236.216 80.7458 237.022 80.1711 237.649 79.7551C237.961 79.5483 238.239 79.3734 238.454 79.2564C238.558 79.1996 238.667 79.1455 238.767 79.1104C238.814 79.0937 238.887 79.0712 238.97 79.064C239.03 79.0588 239.242 79.047 239.419 79.217C239.782 79.5649 239.925 80.0293 239.947 80.5006C239.968 80.9669 239.872 81.4798 239.716 81.9971C239.403 83.033 238.808 84.2071 238.172 85.2936C237.533 86.3864 236.835 87.4184 236.299 88.1752C236.031 88.5542 235.802 88.8655 235.64 89.0824C235.631 89.0947 235.622 89.1068 235.613 89.1185L245.891 104.097L250.455 76.4548L251.489 76.6255L246.713 105.553L245.764 105.764L234.535 89.3995L234.553 88.7816L234.557 88.7768L234.569 88.7612C234.579 88.7472 234.596 88.7261 234.617 88.6984C234.659 88.6429 234.721 88.5608 234.8 88.4553C234.958 88.2443 235.181 87.9403 235.444 87.5695C235.97 86.827 236.649 85.8218 237.268 84.7643C237.89 83.7005 238.436 82.6109 238.713 81.6941C238.851 81.235 238.913 80.8493 238.9 80.5477C238.894 80.4237 238.876 80.3213 238.85 80.2365C238.686 80.3312 238.476 80.464 238.228 80.6284C237.621 81.031 236.831 81.5945 236.042 82.1703C235.254 82.7451 234.474 83.3281 233.891 83.7676C233.599 83.9873 233.357 84.171 233.187 84.2998C233.102 84.3641 233.036 84.4147 232.991 84.4492L232.923 84.5011L232.922 84.5017C232.922 84.5017 232.922 84.5019 232.603 84.0857C232.104 83.9259 232.104 83.9258 232.104 83.9258L232.117 83.887C232.122 83.8719 232.128 83.8525 232.135 83.829C232.141 83.8121 232.147 83.7932 232.153 83.7722C232.185 83.6715 232.232 83.5235 232.291 83.3348C232.41 82.9575 232.578 82.4175 232.776 81.7675C233.173 80.4671 233.691 78.7283 234.175 76.9717C234.66 75.2123 235.108 73.4467 235.368 72.0884C235.491 71.4465 235.569 70.9136 235.592 70.5223C235.399 70.7534 235.169 71.0732 234.91 71.47C234.252 72.4777 233.466 73.8892 232.705 75.3343C231.946 76.7761 231.22 78.2383 230.683 79.3409C230.415 79.892 230.194 80.3527 230.04 80.6755C229.963 80.8369 229.903 80.9638 229.862 81.0502C229.842 81.0935 229.827 81.1266 229.816 81.1488L229.801 81.1817L229.8 81.1821C229.8 81.1822 229.8 81.1822 229.326 80.9601C228.837 80.7709 228.837 80.7708 228.837 80.7708L228.851 80.7338C228.861 80.7092 228.875 80.6724 228.894 80.6243C228.93 80.5282 228.984 80.387 229.053 80.2068C229.189 79.8466 229.382 79.3311 229.61 78.7106C230.067 77.4692 230.66 75.8104 231.21 74.1365C231.761 72.4587 232.264 70.7811 232.544 69.4969C232.675 68.8979 232.752 68.4083 232.768 68.0533C232.758 68.0663 232.747 68.0796 232.736 68.0935C232.45 68.4591 232.094 69.0293 231.69 69.7573C230.886 71.2064 229.936 73.1986 229.023 75.2205C228.111 77.2395 227.241 79.2763 226.599 80.8092C226.278 81.5755 226.014 82.2153 225.83 82.6635C225.739 82.8875 225.667 83.0637 225.618 83.1837C225.594 83.2437 225.575 83.2896 225.563 83.3205L225.544 83.367C225.544 83.3671 225.544 83.3671 225.058 83.1714C224.545 83.0644 224.545 83.0643 224.545 83.0643L224.551 83.0334C224.556 83.0127 224.562 82.9819 224.57 82.9417C224.587 82.8612 224.611 82.7429 224.641 82.5922C224.702 82.2906 224.788 81.8591 224.888 81.3403C225.088 80.3022 225.345 78.9165 225.57 77.5228C225.796 76.1256 225.988 74.7338 226.063 73.6785C226.086 73.3504 226.098 73.0639 226.097 72.8252C225.913 73.122 225.699 73.5164 225.464 73.994C224.859 75.2263 224.15 76.9453 223.504 78.7892C222.859 80.6331 222.283 82.5861 221.939 84.287C221.768 85.1376 221.656 85.9153 221.621 86.579C221.585 87.2515 221.63 87.7672 221.744 88.1154C222.111 89.2429 224.486 94.4716 227.85 100.799C231.208 107.114 235.519 114.461 239.739 119.826L238.916 120.474C234.637 115.035 230.292 107.622 226.925 101.291C223.565 94.9715 221.147 89.6666 220.748 88.4401C220.575 87.9119 220.536 87.2462 220.574 86.5235C220.613 85.792 220.734 84.9606 220.912 84.0795C221.268 82.3168 221.86 80.3153 222.515 78.4429C223.171 76.5704 223.896 74.811 224.523 73.5322C224.836 72.8958 225.132 72.3613 225.392 71.9886C225.519 71.8055 225.655 71.6364 225.795 71.5136C225.865 71.4523 225.956 71.3846 226.066 71.3385C226.18 71.2912 226.345 71.2544 226.527 71.3105L226.528 71.3108C226.826 71.403 226.956 71.6592 227.011 71.8018C227.073 71.9642 227.105 72.1528 227.123 72.3376C227.159 72.7134 227.147 73.2051 227.108 73.753C227.03 74.8563 226.831 76.2854 226.604 77.6899C226.567 77.9201 226.529 78.15 226.491 78.3781C226.973 77.2536 227.512 76.0185 228.068 74.7891C228.984 72.7612 229.948 70.7369 230.774 69.2489C231.185 68.5083 231.572 67.8796 231.911 67.4471C232.078 67.234 232.254 67.041 232.435 66.908ZM226.031 72.1725C226.028 72.1679 226.027 72.1652 226.027 72.165C226.027 72.1648 226.029 72.1671 226.031 72.1725ZM225.058 83.1714L224.545 83.0643L225.544 83.367L225.058 83.1714ZM233.091 67.7297C233.091 67.73 233.088 67.7321 233.082 67.7348C233.088 67.7307 233.091 67.7293 233.091 67.7297ZM229.326 80.9601L228.837 80.7708L229.8 81.1821L229.326 80.9601ZM235.569 69.9975C235.569 69.9971 235.571 70.0006 235.573 70.009C235.57 70.002 235.569 69.9978 235.569 69.9975ZM232.603 84.0857L232.104 83.9258L232.922 84.5019L232.603 84.0857ZM239.119 80.0975C239.119 80.0976 239.118 80.0979 239.116 80.0985C239.118 80.0977 239.119 80.0975 239.119 80.0975ZM265.14 95.7191C264.537 98.8882 263.593 103.171 262.32 107.589L261.313 107.298C262.575 102.919 263.513 98.6683 264.111 95.5232C264.41 93.9507 264.624 92.6577 264.751 91.766C264.815 91.3189 264.857 90.9787 264.876 90.7568C264.886 90.6427 264.89 90.5744 264.889 90.5425C264.889 90.5188 264.887 90.5437 264.897 90.587L264.897 90.5882C264.9 90.6026 264.919 90.6924 264.991 90.7836C265.034 90.8385 265.117 90.9196 265.249 90.9592C265.39 91.0013 265.518 90.9765 265.609 90.9361L265.182 89.979C265.275 89.9374 265.406 89.9124 265.55 89.9552C265.685 89.9955 265.77 90.0784 265.815 90.1361C265.892 90.2345 265.914 90.3354 265.92 90.3603L265.92 90.3613C265.936 90.4316 265.937 90.4994 265.937 90.534C265.938 90.6186 265.931 90.7282 265.92 90.8496C265.898 91.0987 265.854 91.46 265.789 91.9142C265.659 92.8253 265.442 94.1345 265.14 95.7191Z" fill="#001A39"/>
<path fill-rule="evenodd" clip-rule="evenodd" d="M259.804 114.684C258.197 118.589 255.911 123.308 253.231 126.389C252.086 127.706 250.735 128.262 249.316 128.247C247.923 128.233 246.513 127.671 245.206 126.857C242.594 125.23 240.217 122.486 238.901 120.433L239.784 119.868C241.044 121.833 243.318 124.446 245.76 125.968C246.98 126.728 248.199 127.188 249.326 127.199C250.427 127.21 251.489 126.795 252.44 125.702C255 122.757 257.234 118.175 258.835 114.285C259.633 112.348 260.268 110.598 260.703 109.332C260.921 108.699 261.089 108.188 261.202 107.836C261.259 107.659 261.301 107.523 261.33 107.431C261.344 107.385 261.355 107.35 261.362 107.326L261.37 107.3L261.372 107.294L261.373 107.292L261.373 107.292C261.373 107.292 261.373 107.292 261.874 107.444C262.376 107.595 262.376 107.595 262.376 107.595L262.373 107.605L262.364 107.633C262.357 107.658 262.346 107.694 262.331 107.742C262.301 107.837 262.257 107.976 262.2 108.156C262.085 108.515 261.915 109.033 261.694 109.673C261.254 110.954 260.612 112.724 259.804 114.684Z" fill="#001A39"/>
<path d="M28.6662 172.199L3.79456 173.444L11.8772 221.311L17.7513 182.326L34.4878 181.414" fill="#001A39"/>
<path d="M85.4288 190.448L66.308 206.773L100.934 240L82.6778 205.259L95.4974 194.21" fill="#001A39"/>
<path d="M92.5551 102.523C80.587 96.7462 65.9385 98.3601 58.3615 108.091C51.3478 117.101 48.209 125.82 63.8687 164.942L30.1755 166.813C30.1755 166.813 23.471 169.931 22.0562 183.08C20.6414 196.23 29.1511 201.381 29.1511 201.381L80.697 198.614C93.4433 197.931 102.351 185.428 99.0946 172.797L90.0556 137.734L111.99 151.64L84.0637 187.155C84.0637 187.155 82.3345 195.096 90.7159 201.586C97.9549 207.192 106.939 205.502 106.939 205.502L141.156 166.195C149.965 156.076 148.901 140.537 138.83 131.742C121.344 116.477 106.334 109.173 92.5551 102.523Z" fill="#0074E0"/>
<path d="M68.0792 101.096C75.0327 104.908 81.9757 108.945 89.5265 111.476C96.5167 113.821 104.948 115.267 112.116 112.789C112.37 112.702 112.266 112.349 112.006 112.393C108.108 113.03 104.371 113.559 100.405 113.213C96.5979 112.883 92.8539 111.982 89.2409 110.753C81.8525 108.235 75.2868 104.085 68.2469 100.81C68.0556 100.721 67.8906 100.991 68.0792 101.096Z" fill="white"/>
<path d="M53.7004 133.976C65.5926 137.249 75.318 145.326 86.9036 149.4C92.8589 151.496 99.2386 152.699 105.561 152.007C111.437 151.365 116.905 149.078 122.03 146.225C125.108 144.511 128.098 142.635 131.1 140.793C134.538 138.687 138.03 136.636 141.381 134.395C141.599 134.249 141.407 133.911 141.174 134.039C135.381 137.251 129.838 140.917 124.136 144.289C118.97 147.346 113.525 150.06 107.562 151.116C94.7322 153.388 82.4156 147.556 71.5321 141.443C65.8572 138.255 60.1613 135.194 53.7868 133.657C53.5799 133.607 53.4934 133.921 53.7004 133.976Z" fill="white"/>
<path d="M24.0394 174.972C30.6549 172.273 37.8101 170.879 44.9549 170.942C52.5005 171.008 59.6583 172.946 66.4808 176.093C72.8212 179.017 78.766 182.732 85.1509 185.567C91.5385 188.404 98.4186 190.474 105.461 190.456C113.298 190.435 120.744 187.461 127.291 183.322C127.514 183.18 127.317 182.842 127.084 182.965C120.542 186.46 113.976 189.581 106.412 189.811C98.9321 190.042 91.5857 187.82 84.8313 184.763C78.3992 181.852 72.3915 178.095 65.9437 175.215C59.7081 172.43 53.1686 170.643 46.3225 170.416C38.6695 170.161 30.9222 171.576 23.9084 174.668C23.7407 174.744 23.8639 175.042 24.0394 174.972Z" fill="white"/>
<path d="M55.9957 141.795C58.5895 136.932 60.6279 131.626 61.4951 126.169C62.4698 120.028 61.9169 113.048 58.6577 107.609C58.5424 107.418 58.1939 107.543 58.2804 107.769C59.5354 110.968 60.7091 114.062 61.1126 117.505C61.4689 120.541 61.3379 123.62 60.8218 126.63C59.9179 131.904 57.7931 136.743 55.7049 141.63C55.6289 141.818 55.8936 141.989 55.9957 141.795Z" fill="white"/>
<path d="M46.7207 200.407C44.9024 194.892 43.5348 189.311 43.0658 183.505C42.8379 180.683 42.7959 177.846 42.961 175.019C43.1339 172.074 43.7156 169.223 44.1086 166.31C44.1426 166.053 43.7994 165.943 43.7129 166.2C42.809 168.843 42.5418 171.804 42.3636 174.579C42.1671 177.626 42.2222 180.688 42.492 183.73C42.9951 189.437 44.1479 195.256 46.4194 200.535C46.4901 200.705 46.7783 200.585 46.7207 200.407Z" fill="white"/>
<path d="M83.1415 198.596C81.0219 192.075 79.835 185.281 80.2831 178.412C80.7258 171.618 82.738 165.102 85.5178 158.921C88.0933 153.189 91.253 147.739 93.818 142.002C96.3201 136.403 98.2798 130.51 98.9872 124.398C99.8047 117.339 98.644 110.179 95.5341 103.778C95.4345 103.571 95.0729 103.718 95.1568 103.938C97.5986 110.2 99.0606 116.449 98.4763 123.216C97.8973 129.926 95.707 136.424 92.9219 142.52C90.3701 148.101 87.3151 153.435 84.8314 159.047C82.3057 164.756 80.4298 170.738 79.8429 176.976C79.1486 184.362 80.3197 191.737 82.8218 198.693C82.8926 198.882 83.207 198.8 83.1415 198.596Z" fill="white"/>
<path d="M119.015 191.774C117.131 182.868 116.913 173.614 119.387 164.798C121.682 156.616 125.958 149.267 129.662 141.682C131.75 137.406 133.786 132.886 134.79 128.212C134.845 127.953 134.478 127.853 134.394 128.102C132.893 132.488 131.339 136.777 129.319 140.959C127.467 144.797 125.444 148.549 123.602 152.392C119.866 160.189 117.223 168.311 117.013 177.02C116.892 182.014 117.443 187.024 118.698 191.86C118.75 192.07 119.059 191.981 119.015 191.774Z" fill="white"/>
<path fill-rule="evenodd" clip-rule="evenodd" d="M98.1096 165.359C99.2969 170.322 100.176 174.249 100.38 175.806C101.029 180.756 100.026 186.8 95.8882 191.656C91.7406 196.523 84.5311 200.094 72.9719 200.26L72.9531 198.95C84.2482 198.788 91.053 195.31 94.8912 190.806C98.7392 186.29 99.693 180.642 99.0816 175.976C98.888 174.503 98.0299 170.657 96.8356 165.664C95.6458 160.69 94.1335 154.625 92.6456 148.746C91.1578 142.868 89.6949 137.18 88.6038 132.96C88.0583 130.85 87.6058 129.108 87.2896 127.893C87.1316 127.286 87.0076 126.81 86.9232 126.486L86.794 125.992C86.7939 125.991 86.7938 125.991 87.4275 125.825C88.0612 125.66 88.0613 125.66 88.0613 125.66L88.1907 126.156C88.2752 126.48 88.3993 126.955 88.5574 127.563C88.8737 128.779 89.3264 130.522 89.8721 132.632C90.9635 136.853 92.4271 142.544 93.9156 148.425C95.404 154.305 96.9179 160.377 98.1096 165.359Z" fill="white"/>
<path fill-rule="evenodd" clip-rule="evenodd" d="M19.1205 191.969L12.7356 184.683L13.5238 183.993L19.9087 191.279L19.1205 191.969Z" fill="white"/>
<path fill-rule="evenodd" clip-rule="evenodd" d="M18.7461 197.003L12.3585 189.717L13.1466 189.026L19.5341 196.312L18.7461 197.003Z" fill="white"/>
<path fill-rule="evenodd" clip-rule="evenodd" d="M18.6386 202.421L12.2537 195.135L13.0419 194.444L19.4268 201.73L18.6386 202.421Z" fill="white"/>
<path fill-rule="evenodd" clip-rule="evenodd" d="M89.2723 211.71L79.9215 209.653L80.1466 208.63L89.4974 210.687L89.2723 211.71Z" fill="white"/>
<path fill-rule="evenodd" clip-rule="evenodd" d="M91.8557 216.009L82.5049 213.95L82.7303 212.927L92.0811 214.986L91.8557 216.009Z" fill="white"/>
<path fill-rule="evenodd" clip-rule="evenodd" d="M94.8792 220.458L85.5284 218.402L85.7536 217.378L95.1044 219.435L94.8792 220.458Z" fill="white"/>
<path fill-rule="evenodd" clip-rule="evenodd" d="M163.981 68.2197C163.981 68.2197 163.981 68.2197 164.168 68.7095C164.354 69.1993 164.354 69.1993 164.354 69.1994L164.353 69.1997L164.292 69.2226C164.252 69.2379 164.192 69.2605 164.113 69.2901C163.956 69.3493 163.724 69.4362 163.425 69.5475C162.827 69.7699 161.961 70.0895 160.887 70.4785C158.739 71.2563 155.76 72.3116 152.433 73.4218C145.79 75.6382 137.722 78.0869 132.128 78.9683C124.869 80.1129 114.363 80.0379 105.704 79.6819C101.367 79.5037 97.4821 79.2543 94.6811 79.0495C93.2804 78.9471 92.1506 78.8559 91.3706 78.7902C90.9806 78.7573 90.678 78.7308 90.4728 78.7126C90.3702 78.7035 90.2919 78.6964 90.2392 78.6916L90.1593 78.6842C90.1591 78.6842 90.159 78.6842 90.2076 78.1625C90.2563 77.6407 90.2564 77.6407 90.2566 77.6407L90.2574 77.6408L90.3344 77.6479C90.3863 77.6526 90.4639 77.6596 90.5657 77.6687C90.7694 77.6868 91.0703 77.7132 91.4586 77.7459C92.2351 77.8113 93.3611 77.9022 94.7575 78.0043C97.5505 78.2085 101.424 78.4571 105.747 78.6348C114.405 78.9908 124.819 79.0599 131.965 77.933C137.463 77.0668 145.456 74.6449 152.101 72.4277C155.418 71.321 158.389 70.2687 160.53 69.4931C161.601 69.1053 162.464 68.7868 163.06 68.5653C163.357 68.4545 163.588 68.368 163.744 68.3092C163.822 68.2799 163.882 68.2574 163.922 68.2423L163.981 68.2197Z" fill="#001A39"/>
<path fill-rule="evenodd" clip-rule="evenodd" d="M159.448 54.0984L125.858 61.4183C125.783 61.4348 125.705 61.44 125.628 61.4338L87.4541 58.3637L87.5381 57.319L125.673 60.3861L159.225 53.0745L159.448 54.0984Z" fill="#001A39"/>
<path d="M84.7476 84.3901L53.7373 89.2109C45.7253 90.4554 38.219 84.9691 36.9745 76.9572C35.73 68.9452 41.2163 61.4389 49.2282 60.1944L80.2386 55.3736C88.2505 54.1291 95.7568 59.6154 97.0013 67.6274C98.2458 75.6393 92.7622 83.1456 84.7476 84.3901Z" fill="#F96155"/>
<path fill-rule="evenodd" clip-rule="evenodd" d="M170.506 85.054L155.582 34.2129L156.588 33.9177L171.511 84.7588L170.506 85.054Z" fill="#001A39"/>
<path fill-rule="evenodd" clip-rule="evenodd" d="M167.66 84.8156L167.262 31.3204L168.31 31.3126L168.708 84.8077L167.66 84.8156Z" fill="#001A39"/>
<path fill-rule="evenodd" clip-rule="evenodd" d="M162.258 84.5867L177.452 33.4679L178.456 33.7665L163.263 84.8853L162.258 84.5867Z" fill="#001A39"/>
<path d="M174.441 49.5155C174.441 49.5155 160.607 55.0096 160.46 56.4611C160.314 57.9126 173.065 54.6795 173.065 54.6795C173.065 54.6795 157.492 58.6226 157.628 60.6505C157.764 62.6784 173.023 58.9894 173.023 58.9894C173.023 58.9894 159.486 62.2408 159.847 64.232C160.209 66.2232 173.65 63.6321 173.65 63.6321C173.65 63.6321 176.657 62.5972 176.657 57.2498C176.657 51.9023 174.441 49.5155 174.441 49.5155Z" fill="white"/>
<path fill-rule="evenodd" clip-rule="evenodd" d="M174.825 49.1591L174.441 49.5157L174.247 49.0287L174.581 48.8963L174.825 49.1591ZM173.503 63.1267C173.517 63.1211 173.534 63.1133 173.555 63.1033C173.619 63.0733 173.716 63.0228 173.837 62.9457C174.077 62.7917 174.41 62.5314 174.746 62.1163C175.414 61.2937 176.133 59.8187 176.133 57.2499C176.133 54.651 175.595 52.7888 175.069 51.5877C174.806 50.9863 174.544 50.5486 174.353 50.2657C174.324 50.2229 174.297 50.1837 174.271 50.148C174.204 50.1753 174.127 50.2061 174.042 50.2404C173.665 50.393 173.125 50.6127 172.477 50.881C171.181 51.4176 169.452 52.1477 167.72 52.9225C165.985 53.6984 164.257 54.5145 162.958 55.2236C162.306 55.5793 161.778 55.8997 161.414 56.1679C161.348 56.2164 161.29 56.2618 161.238 56.3039C161.506 56.321 161.871 56.3113 162.324 56.2731C163.468 56.1767 165.025 55.9134 166.606 55.6007C168.183 55.289 169.765 54.9317 170.955 54.6521C171.55 54.5123 172.046 54.3921 172.393 54.3069C172.566 54.2643 172.702 54.2304 172.795 54.2073C172.841 54.1957 172.877 54.1868 172.901 54.1808L172.925 54.1747L172.928 54.174L172.936 54.1718C172.936 54.1717 172.937 54.1717 173.065 54.6797C173.194 55.1876 173.194 55.1876 173.194 55.1877L173.191 55.1883L173.184 55.1901L173.183 55.1904L173.15 55.1988C173.121 55.2062 173.078 55.2173 173.021 55.2319C172.908 55.2611 172.741 55.3042 172.529 55.3599C172.106 55.4712 171.5 55.6326 170.773 55.8327C169.319 56.233 167.384 56.7871 165.455 57.4038C163.522 58.0218 161.612 58.6974 160.2 59.3392C159.49 59.6616 158.931 59.9646 158.562 60.2348C158.376 60.3705 158.26 60.4824 158.196 60.5664C158.194 60.5689 158.193 60.5712 158.191 60.5736C158.243 60.5969 158.323 60.6242 158.44 60.6494C158.803 60.7281 159.356 60.7529 160.069 60.7231C161.483 60.6639 163.376 60.3979 165.287 60.0644C167.193 59.7318 169.096 59.3357 170.525 59.0224C171.239 58.8659 171.833 58.7302 172.249 58.6337C172.457 58.5854 172.62 58.547 172.731 58.5207C172.786 58.5075 172.829 58.4973 172.857 58.4905L172.89 58.4828L172.891 58.4826L172.898 58.4809L172.898 58.4807L172.9 58.4804L172.9 58.4803L172.901 58.4801C172.901 58.4801 172.901 58.4801 173.023 58.9896C173.146 59.4989 173.146 59.4989 173.146 59.499L173.146 59.4991L173.144 59.4996L173.108 59.5082C173.083 59.5143 173.045 59.5234 172.996 59.5355C172.898 59.5596 172.754 59.5952 172.57 59.6414C172.202 59.7337 171.677 59.8679 171.048 60.0351C169.789 60.3698 168.117 60.8361 166.459 61.3635C164.795 61.8926 163.165 62.4768 161.98 63.0454C161.384 63.3315 160.931 63.5998 160.645 63.8379C160.502 63.957 160.424 64.0501 160.386 64.1132C160.381 64.1208 160.378 64.1274 160.375 64.133C160.408 64.1612 160.493 64.2162 160.694 64.2759C161.03 64.376 161.531 64.4366 162.171 64.4547C163.443 64.4907 165.126 64.3572 166.823 64.1585C168.514 63.9604 170.196 63.7002 171.457 63.4892C172.087 63.3837 172.611 63.2907 172.978 63.2241C173.161 63.1908 173.304 63.1642 173.402 63.1458C173.43 63.1405 173.455 63.1359 173.475 63.132C173.486 63.13 173.495 63.1282 173.503 63.1267ZM162.92 61.4969C162.418 61.6964 161.948 61.8986 161.527 62.1006C160.905 62.3993 160.36 62.7118 159.974 63.0326C159.782 63.193 159.606 63.3739 159.485 63.5771C159.362 63.785 159.28 64.0428 159.332 64.3258C159.435 64.8965 159.972 65.1546 160.395 65.2803C160.863 65.4196 161.471 65.4833 162.142 65.5023C163.492 65.5405 165.236 65.3995 166.945 65.1994C168.659 64.9985 170.36 64.7354 171.63 64.5228C172.266 64.4164 172.795 64.3226 173.165 64.2552C173.35 64.2215 173.496 64.1945 173.595 64.1758C173.645 64.1665 173.683 64.1593 173.709 64.1544L173.748 64.1468C173.749 64.1468 173.749 64.1467 173.65 63.6322L173.748 64.1468L173.785 64.1397L173.82 64.1277L173.65 63.6322C173.82 64.1277 173.82 64.1276 173.821 64.1274L173.822 64.1271L173.824 64.1264L173.828 64.1248C173.832 64.1235 173.836 64.1219 173.841 64.1201C173.851 64.1164 173.864 64.1115 173.879 64.1053C173.91 64.0928 173.952 64.0751 174.002 64.0513C174.103 64.0038 174.24 63.9317 174.402 63.8282C174.725 63.6211 175.145 63.2884 175.56 62.7764C176.397 61.7447 177.181 60.0285 177.181 57.2499C177.181 54.5014 176.611 52.4964 176.029 51.1673C175.738 50.5035 175.445 50.0103 175.221 49.6786C175.109 49.5128 175.014 49.3874 174.945 49.3012C174.911 49.2581 174.883 49.2248 174.862 49.2012C174.852 49.1893 174.844 49.1799 174.837 49.1729L174.829 49.1642L174.827 49.1612L174.825 49.1595C174.825 49.1593 174.825 49.1591 174.441 49.5157C174.247 49.0287 174.247 49.0286 174.247 49.0287L174.207 49.0447C174.181 49.0553 174.141 49.0709 174.09 49.0913C173.989 49.1321 173.839 49.192 173.65 49.2688C173.27 49.4223 172.728 49.6431 172.077 49.9126C170.775 50.4515 169.036 51.1856 167.292 51.9658C165.55 52.7449 163.792 53.5744 162.456 54.3037C161.79 54.6673 161.213 55.0142 160.792 55.3243C160.583 55.4785 160.396 55.6352 160.254 55.791C160.128 55.9301 159.966 56.1428 159.939 56.4086C159.906 56.7353 160.08 56.9803 160.29 57.1184C160.47 57.2367 160.689 57.2905 160.882 57.3196C161.28 57.3797 161.817 57.3676 162.412 57.3174C162.424 57.3164 162.437 57.3153 162.449 57.3142C161.467 57.6684 160.547 58.03 159.766 58.3851C159.034 58.7176 158.399 59.0554 157.943 59.3889C157.716 59.5551 157.511 59.7359 157.362 59.9324C157.214 60.1264 157.085 60.3842 157.105 60.6858C157.127 61.0053 157.305 61.2412 157.521 61.3939C157.722 61.5365 157.971 61.6202 158.218 61.6736C158.715 61.7814 159.377 61.801 160.113 61.7702C160.935 61.7358 161.898 61.636 162.92 61.4969ZM173.023 58.9896L173.146 59.499L172.901 58.4801L173.023 58.9896ZM173.065 54.6797L173.194 55.1877L172.937 54.1717L173.065 54.6797Z" fill="#001A39"/>
<path fill-rule="evenodd" clip-rule="evenodd" d="M39.4782 65.1011C28.4359 68.9555 13.9147 77.8404 8.02736 81.8089L8.01178 81.8194L7.99549 81.8288C3.17922 84.5956 1.43361 87.607 1.10748 90.1745C0.778055 92.768 1.8788 95.0397 3.00421 96.3384C3.03839 96.3778 3.06838 96.4201 3.09471 96.4667C5.61333 100.928 10.4206 106.394 15.4596 111.45C20.4892 116.497 25.7114 121.099 29.0241 123.827C29.2981 124.053 29.3555 124.408 29.2646 124.685C27.0855 131.32 25.8799 135.566 25.348 138.098C25.0906 139.324 25.0009 140.104 25.018 140.549C25.0283 140.54 25.0389 140.53 25.0498 140.519C25.1987 140.376 25.3747 140.176 25.5744 139.921C25.9732 139.411 26.4371 138.72 26.9315 137.922C27.9188 136.33 29.0015 134.355 29.8895 132.657C30.114 132.228 30.5746 132.177 30.8783 132.295C31.1784 132.412 31.4767 132.749 31.3805 133.207C30.2889 138.401 29.8486 141.532 29.8291 143.183C29.8243 143.593 29.8459 143.892 29.8832 144.098C29.8863 144.115 29.8895 144.131 29.8926 144.147C29.9094 144.13 29.9271 144.112 29.9457 144.092C30.2154 143.804 30.5616 143.284 30.958 142.564C31.3493 141.854 31.7727 140.981 32.2019 140.01C33.0602 138.069 33.9322 135.761 34.6082 133.637C34.7753 133.112 35.3038 133.059 35.5773 133.117C35.8524 133.176 36.2914 133.431 36.2674 133.955C36.0411 138.9 36.1366 141.708 36.4188 143.006C36.4682 143.233 36.519 143.392 36.5643 143.499C36.6491 143.402 36.7527 143.254 36.8724 143.047C37.4499 142.045 38.1505 140.103 38.8647 137.724C39.5737 135.363 40.2814 132.624 40.8817 130.067C41.0411 129.388 41.9341 129.24 42.3085 129.821C43.3955 131.509 44.8207 133.653 45.9023 134.843C46.1714 135.14 46.4021 135.357 46.5868 135.492C46.6183 135.515 46.6461 135.534 46.6704 135.549C46.6961 135.368 46.6974 135.072 46.645 134.621C46.1325 130.214 43.8683 122.929 42.7745 120.148C41.9205 119.02 40.0276 116.398 38.9784 114.51C38.7387 114.078 37.9987 113.007 36.9216 111.514C35.8543 110.035 34.4788 108.172 32.9902 106.176C30.0133 102.187 26.5891 97.6746 24.2851 94.6598C23.9662 94.2425 24.1453 93.6661 24.5962 93.4676L49.5743 82.4668L49.9967 83.4259L25.3233 94.2925C27.6237 97.3044 30.9374 101.673 33.8302 105.55C35.32 107.547 36.6994 109.415 37.7715 110.901C38.8339 112.374 39.6178 113.503 39.8945 114.001C40.9146 115.837 42.7934 118.439 43.6319 119.544C43.6742 119.6 43.7086 119.66 43.7355 119.728C44.8406 122.525 47.1566 129.947 47.686 134.5C47.7501 135.051 47.7561 135.504 47.6813 135.846C47.6077 136.183 47.4045 136.588 46.9286 136.659C46.5543 136.714 46.2077 136.512 45.9696 136.339C45.7013 136.143 45.4155 135.866 45.1266 135.548C44.0906 134.408 42.7941 132.493 41.7606 130.904C41.1885 133.3 40.5301 135.822 39.8685 138.026C39.1569 140.395 38.4266 142.45 37.7802 143.57C37.6173 143.853 37.4444 144.103 37.2601 144.289C37.0893 144.461 36.8236 144.662 36.4808 144.65C36.1045 144.637 35.8606 144.381 35.7195 144.146C35.5768 143.909 35.4742 143.594 35.3947 143.229C35.1097 141.917 35.0137 139.394 35.1632 135.295C34.559 137.054 33.8562 138.86 33.1604 140.434C32.7233 141.422 32.2864 142.325 31.876 143.07C31.4707 143.805 31.0736 144.42 30.7109 144.808C30.5355 144.995 30.322 145.181 30.0763 145.269C29.9449 145.317 29.7864 145.343 29.6166 145.308C29.4429 145.273 29.3001 145.182 29.1916 145.068C28.9941 144.859 28.9025 144.564 28.8519 144.285C28.7981 143.987 28.776 143.615 28.7812 143.171C28.7997 141.602 29.1661 138.885 30.0128 134.657C29.3082 135.959 28.5423 137.313 27.8222 138.475C27.3196 139.285 26.8327 140.013 26.3999 140.566C26.1837 140.843 25.9736 141.085 25.7754 141.275C25.5874 141.456 25.3682 141.631 25.1313 141.716C25.006 141.761 24.8472 141.791 24.6746 141.756C24.4924 141.719 24.3439 141.62 24.2365 141.49C24.0475 141.261 23.9922 140.947 23.9748 140.67C23.938 140.082 24.0526 139.167 24.3224 137.883C24.8625 135.311 26.0684 131.068 28.2159 124.519C24.8745 121.759 19.7029 117.193 14.7173 112.19C9.6785 107.134 4.7915 101.594 2.19503 97.0048C0.93083 95.536 -0.30616 92.9868 0.0678351 90.0425C0.446407 87.0621 2.45774 83.806 7.45711 80.9294C13.3698 76.9454 27.9672 68.0091 39.1328 64.1117L39.4782 65.1011ZM46.6325 135.706C46.6324 135.706 46.6331 135.705 46.6345 135.702C46.6333 135.705 46.6326 135.706 46.6325 135.706ZM36.6475 143.649C36.6475 143.649 36.6469 143.649 36.6456 143.647C36.6469 143.649 36.6475 143.649 36.6475 143.649Z" fill="#001A39"/>
<path d="M157.788 40.3584L143.383 31.998C139.817 29.9282 138.604 25.3616 140.674 21.7957C142.744 18.2299 147.31 17.0169 150.876 19.0867L152.37 19.9539L153.219 18.4893C155.288 14.9235 159.855 13.7104 163.421 15.7802C166.987 17.85 168.2 22.4167 166.13 25.9825L157.788 40.3584Z" fill="#FBC73B"/>
<path d="M176.248 39.5044L190.653 31.144C194.219 29.0742 195.432 24.5075 193.362 20.9417C191.292 17.3759 186.726 16.1628 183.16 18.2326L181.667 19.0998L180.818 17.6352C178.748 14.0694 174.181 12.8564 170.615 14.9262C167.05 16.996 165.836 21.5626 167.906 25.1284L176.248 39.5044Z" fill="#FBC73B"/>
<path d="M167.741 35.9962L155.965 24.2193C153.048 21.3033 153.048 16.5794 155.965 13.6633C158.881 10.7473 163.604 10.7473 166.52 13.6633L167.741 14.8843L168.939 13.6869C171.855 10.7709 176.579 10.7709 179.495 13.6869C182.411 16.603 182.411 21.3268 179.495 24.2429L167.741 35.9962Z" fill="#F96155"/>
<path d="M78.2644 25.9582C78.2644 25.9582 91.6071 31.8904 94.502 41.517C97.3969 51.1437 87.1473 61.3149 87.1473 61.3149L55.1153 54.074L78.2644 25.9582Z" fill="#001A39"/>
<path d="M62.9329 65.2808L56.7257 40.7337C56.7257 40.7337 47.9871 38.3549 48.2113 32.39C48.4356 26.4251 54.757 27.7412 54.757 27.7412C54.757 27.7412 55.8885 19.4021 64.1281 17.0431C72.3677 14.6842 78.9656 23.3452 79.7483 30.1294C80.9032 40.1511 77.7146 45.7794 67.4082 45.6261L71.4813 58.9797" fill="#FBC73B"/>
<path fill-rule="evenodd" clip-rule="evenodd" d="M78.2884 34.9051L75.7222 30.8255L76.6092 30.2675L79.1754 34.3471L78.2884 34.9051Z" fill="#001A39"/>
<path d="M61.2237 58.5221C69.6409 53.9315 58.3413 25.6874 58.3413 25.6874C68.4129 29.0364 77.9664 24.5508 77.9664 24.5508C77.9664 24.5508 72.4393 11.0573 57.5806 15.9942C42.7219 20.9311 41.455 31.3612 41.455 31.3612C41.455 31.3612 26.0307 38.7488 28.598 51.9353C31.1652 65.1219 47.075 70.8588 47.075 70.8588C47.075 70.8588 54.5362 62.1685 61.2237 58.5221Z" fill="#001A39"/>
<path d="M77.762 29.5416C78.398 29.5494 78.9231 28.7706 78.935 27.8019C78.9468 26.8332 78.4409 26.0418 77.8049 26.034C77.169 26.0262 76.6438 26.805 76.632 27.7737C76.6202 28.7424 77.1261 29.5338 77.762 29.5416Z" fill="#001A39"/>
<path d="M73.1761 30.6468C73.812 30.6546 74.3368 29.8753 74.3486 28.9066C74.3604 27.938 73.8549 27.1465 73.219 27.1388C72.5831 27.131 72.0579 27.9098 72.0461 28.8785C72.0342 29.8472 72.5402 30.639 73.1761 30.6468Z" fill="#001A39"/>
</svg>
