<svg width="391" height="240" viewBox="0 0 391 240" fill="none" xmlns="http://www.w3.org/2000/svg">
<path d="M257.491 163.027L295.638 116.87L231.357 112.867L257.491 163.027Z" fill="#F0438C"/>
<path fill-rule="evenodd" clip-rule="evenodd" d="M270.984 119.001L271.604 115.338L272.283 115.453L271.663 119.116L270.984 119.001Z" fill="white"/>
<path fill-rule="evenodd" clip-rule="evenodd" d="M284.705 123.841L280.073 120.543L280.487 120.062L285.119 123.36L284.705 123.841Z" fill="white"/>
<path fill-rule="evenodd" clip-rule="evenodd" d="M276.334 133.054L281.021 134.369L280.839 134.961L276.151 133.645L276.334 133.054Z" fill="white"/>
<path fill-rule="evenodd" clip-rule="evenodd" d="M265.621 131.181L270.595 128.368L270.974 128.896L266 131.709L265.621 131.181Z" fill="white"/>
<path fill-rule="evenodd" clip-rule="evenodd" d="M255.75 134.077L254.579 129.614L255.247 129.492L256.418 133.955L255.75 134.077Z" fill="white"/>
<path fill-rule="evenodd" clip-rule="evenodd" d="M253.409 119.768L259.288 120.267L259.247 120.884L253.369 120.385L253.409 119.768Z" fill="white"/>
<path fill-rule="evenodd" clip-rule="evenodd" d="M245.51 116.173L244.871 111.11L245.553 111.061L246.193 116.124L245.51 116.173Z" fill="white"/>
<path fill-rule="evenodd" clip-rule="evenodd" d="M237.384 123.962L240.297 123.522L240.433 124.133L237.521 124.574L237.384 123.962Z" fill="white"/>
<path fill-rule="evenodd" clip-rule="evenodd" d="M244.581 138.536L246.192 136.341L246.769 136.696L245.157 138.891L244.581 138.536Z" fill="white"/>
<path fill-rule="evenodd" clip-rule="evenodd" d="M259.49 146.987L254.383 144.042L254.738 143.523L259.845 146.469L259.49 146.987Z" fill="white"/>
<path fill-rule="evenodd" clip-rule="evenodd" d="M271.167 146.277L268.794 142.719L269.38 142.413L271.752 145.971L271.167 146.277Z" fill="white"/>
<path fill-rule="evenodd" clip-rule="evenodd" d="M260.72 158.832L259.609 156.155L260.251 155.955L261.362 158.633L260.72 158.832Z" fill="white"/>
<path d="M82.9218 12.4417L89.2013 24.5994L103.92 26.8505L92.9746 35.9662L95.1389 49.2258L82.0956 42.701L68.7102 48.643L71.5952 35.4946L61.1614 25.9093L75.9882 24.309L82.9218 12.4417Z" fill="#FDE50B"/>
<path d="M127.388 195.339L75.6 218.301C75.6 218.301 66.844 217.586 62.0357 210.139C57.6084 203.276 60.2707 196.418 60.2707 196.418L106.775 174.415L97.1927 151.692L77.0207 167.588C70.5232 172.708 60.5347 171.74 55.4073 165.493L27.7279 134.941C27.7279 134.941 32.9332 133.349 36.5045 125.972C39.7934 119.179 48.6734 119.709 48.6734 119.709L67.7621 142.142L78.1292 130.04C83.6904 123.511 88.7122 117.499 99.0105 116.819C110.043 116.092 120.16 122.361 123.555 131.809L138.29 172.827C141.264 181.714 136.656 191.23 127.388 195.339Z" fill="#F0438C"/>
<path d="M87.3493 213.117C86.2477 210.474 86.1926 207.568 86.2431 204.776C86.2959 201.896 86.67 198.941 88.031 196.3C89.1257 194.179 90.8425 192.245 93.1169 191.063C95.5429 189.802 98.3177 189.732 101.04 189.951C105.843 190.336 111.163 191.508 115.084 188.21C117.005 186.596 118.228 184.429 119.492 182.392C121.021 179.929 122.534 177.459 124.009 174.971C127.33 169.378 130.674 163.648 133.052 157.667C133.142 157.44 132.731 157.282 132.616 157.502C129.85 162.851 127.133 168.187 124.071 173.41C122.54 176.022 120.964 178.611 119.371 181.191C117.98 183.444 116.681 185.949 114.551 187.735C110.131 191.442 103.826 189.115 98.5311 189.182C93.6311 189.244 89.6789 191.786 87.572 195.711C86.1903 198.286 85.7106 201.182 85.6417 204.016C85.566 207.066 85.6716 210.349 86.9591 213.214C87.0555 213.426 87.4411 213.339 87.3493 213.117Z" fill="#222222"/>
<path d="M138.985 176.203C134.147 178.866 129.651 182.238 125.814 185.992C122.19 189.539 118.928 194.029 118.85 199.005C118.846 199.264 119.325 199.338 119.371 199.069C119.807 196.465 120.565 194.025 121.983 191.703C123.25 189.627 124.875 187.743 126.66 186.007C130.351 182.415 134.583 179.119 139.16 176.471C139.346 176.362 139.176 176.098 138.985 176.203Z" fill="#222222"/>
<path d="M66.4452 201.491C74.7054 202.833 78.3294 193.195 79.135 187.584C79.1626 187.385 78.816 187.358 78.754 187.539C77.7303 190.591 76.8857 193.852 75.0772 196.626C73.3237 199.318 70.2505 201.614 66.5691 201.087C66.2753 201.042 66.1445 201.441 66.4452 201.491Z" fill="#222222"/>
<path d="M104.712 169.769C108.751 170.257 112.488 169.128 114.356 165.703C116.181 162.354 115.93 158.34 114.849 154.835C113.589 150.747 111.115 147.204 108.57 143.68C106.008 140.132 103.651 136.01 106.109 131.885C108.506 127.865 113.325 125.414 117.117 122.596C117.411 122.378 117.034 121.978 116.72 122.135C114.769 123.103 113.011 124.438 111.283 125.696C109.738 126.823 108.219 128.003 106.949 129.387C104.459 132.097 103.472 135.364 104.725 138.762C106.119 142.545 109.192 145.637 111.276 149.109C113.55 152.895 115.178 157.131 114.801 161.487C114.624 163.543 113.904 165.707 112.327 167.254C110.36 169.182 107.546 169.538 104.778 169.324C104.496 169.299 104.427 169.734 104.712 169.769Z" fill="#222222"/>
<path d="M84.3978 123.377C86.9638 123.713 89.5068 124.211 91.9213 125.08C94.2716 125.925 97.0051 127.131 98.2949 129.197C101.221 133.885 92.7567 136.84 89.1878 138.008C84.6411 139.497 79.6951 140.408 75.4927 142.64C72.1739 144.405 69.5414 147.46 71.3109 150.996C72.4585 153.292 74.6619 155.169 76.3144 157.17C78.1367 159.376 79.8328 161.681 81.4096 164.037C81.6827 164.445 82.3781 164.08 82.1188 163.664C80.7509 161.479 79.2636 159.376 77.6157 157.352C76.0688 155.447 74.2005 153.708 72.789 151.723C71.2627 149.575 71.2444 147.268 73.1562 145.32C74.8156 143.627 77.198 142.634 79.484 141.806C84.1913 140.103 89.2291 139.157 93.762 137.059C97.1841 135.473 101.515 132.388 98.7563 128.608C97.4366 126.8 95.169 125.69 93.0115 124.866C90.2872 123.826 87.3953 123.257 84.4621 122.965C84.2005 122.936 84.1362 123.342 84.3978 123.377Z" fill="#222222"/>
<path d="M60.9869 134.229C59.1622 135.975 57.7507 138.068 57.0805 140.397C56.3461 142.953 56.4631 145.608 56.7592 148.209C57.0599 150.845 57.5602 153.492 57.4478 156.151C57.3215 159.127 56.2451 161.823 54.1335 164.13C53.9154 164.367 54.2666 164.702 54.5168 164.474C56.4654 162.694 57.7805 160.583 58.2258 158.103C58.6825 155.558 58.3635 152.956 57.9848 150.421C57.5854 147.742 57.115 145.029 57.3858 142.319C57.6773 139.384 59.1278 136.694 61.322 134.527C61.5263 134.328 61.1981 134.027 60.9869 134.229Z" fill="#222222"/>
<path d="M36.4127 127.951C38.3016 128.754 40.2915 129.599 41.6571 131.067C43.2683 132.799 43.6171 135.353 43.803 137.524C44.1771 141.921 43.1467 146.127 41.446 150.223C41.3358 150.489 41.8109 150.668 41.9578 150.417C44.3791 146.238 45.2283 141.264 44.6132 136.608C44.3493 134.608 43.9453 132.435 42.5155 130.814C41.0627 129.166 38.8571 128.246 36.7777 127.393C36.36 127.22 35.9904 127.772 36.4127 127.951Z" fill="#222222"/>
<path d="M149.16 95.138C145.619 105.92 133.007 112.084 120.991 108.904C108.976 105.726 102.107 94.4089 105.651 83.627" fill="#0074E0"/>
<path d="M124.123 68.0689C120.31 71.873 120.655 77.7263 124.894 81.1472C128.639 84.1707 134.175 84.2799 138.04 81.6375C138.547 81.2894 139.025 80.8981 139.468 80.4553C143.28 76.6533 142.936 70.7979 138.697 67.3769C136.491 65.5974 133.67 64.8271 130.93 65.0331C128.403 65.2246 125.949 66.2462 124.123 68.0689Z" fill="#FDE50B"/>
<path d="M130.929 65.0331C129.334 70.3406 131.044 76.2454 135.912 80.1751C136.587 80.7209 137.301 81.207 138.04 81.6374C138.547 81.2894 139.024 80.8981 139.467 80.4552C143.28 76.6533 142.936 70.7979 138.696 67.3769C136.491 65.5974 133.67 64.8271 130.929 65.0331Z" fill="#222222"/>
<path d="M143.132 70.4663C145.304 70.4663 147.064 68.8867 147.064 66.9382C147.064 64.9897 145.304 63.4102 143.132 63.4102C140.961 63.4102 139.201 64.9897 139.201 66.9382C139.201 68.8867 140.961 70.4663 143.132 70.4663Z" fill="#222222"/>
<path d="M158.285 76.2949C164.467 76.2949 169.479 71.7978 169.479 66.2503C169.479 60.7029 164.467 56.2057 158.285 56.2057C152.103 56.2057 147.092 60.7029 147.092 66.2503C147.092 71.7978 152.103 76.2949 158.285 76.2949Z" fill="#222222"/>
<path d="M125.959 70.3036C126.589 69.74 126.775 68.9904 126.374 68.6295C125.973 68.2685 125.137 68.4329 124.507 68.9965C123.877 69.5602 123.691 70.3097 124.092 70.6707C124.493 71.0316 125.329 70.8673 125.959 70.3036Z" fill="#222222"/>
<path d="M128.293 72.5467C128.923 71.983 129.109 71.2335 128.708 70.8726C128.307 70.5116 127.471 70.676 126.841 71.2396C126.211 71.8033 126.025 72.5528 126.426 72.9137C126.827 73.2747 127.662 73.1104 128.293 72.5467Z" fill="#222222"/>
<path fill-rule="evenodd" clip-rule="evenodd" d="M122.182 72.2263C122.182 72.2262 122.182 72.2261 122.421 71.875C122.661 71.5238 122.661 71.5237 122.661 71.5237L122.661 71.5235L122.66 71.5232L122.66 71.5231C122.661 71.5236 122.663 71.5248 122.667 71.5266C122.674 71.5302 122.686 71.5363 122.702 71.5442C122.736 71.5601 122.787 71.5831 122.852 71.6083C122.984 71.6594 123.166 71.7166 123.369 71.7461C123.769 71.804 124.223 71.7566 124.609 71.3651L125.296 71.9111C124.641 72.5761 123.829 72.6472 123.223 72.5594C122.924 72.5161 122.669 72.4344 122.489 72.3648C122.398 72.3297 122.325 72.2969 122.272 72.2721C122.246 72.2596 122.225 72.2491 122.21 72.2413C122.202 72.2373 122.196 72.234 122.191 72.2315L122.185 72.2282L122.183 72.227L122.182 72.2265L122.182 72.2263ZM122.66 71.5229L122.66 71.5231C122.66 71.5229 122.659 71.5228 122.66 71.5229Z" fill="#222222"/>
<path d="M74.7572 218.918C77.9707 217.265 77.3482 210.873 73.3668 204.64C69.3854 198.406 63.5528 194.693 60.3393 196.346C57.1259 197.999 57.7484 204.392 61.7298 210.625C65.7112 216.858 71.5437 220.571 74.7572 218.918Z" fill="#222222"/>
<path d="M42.4751 132.146C48.2873 127.997 51.1296 122.524 48.8236 119.923C46.5176 117.322 39.9364 118.577 34.1242 122.726C28.312 126.876 25.4697 132.348 27.7757 134.949C30.0818 137.55 36.6629 136.295 42.4751 132.146Z" fill="#222222"/>
<path d="M72.2535 208.396L60.5966 213.245L64.1976 238.635L45.148 209.716L67.2524 200.557" fill="#FDE50B"/>
<path fill-rule="evenodd" clip-rule="evenodd" d="M63.8121 218.476L56.7179 215.405L57.017 214.849L64.1112 217.92L63.8121 218.476Z" fill="white"/>
<path fill-rule="evenodd" clip-rule="evenodd" d="M64.4434 221.743L57.3494 218.67L57.6487 218.113L64.7427 221.186L64.4434 221.743Z" fill="white"/>
<path fill-rule="evenodd" clip-rule="evenodd" d="M65.0721 225.007L57.9783 221.936L58.2774 221.38L65.3712 224.451L65.0721 225.007Z" fill="white"/>
<path d="M35.9836 132.122L29.6926 122.359L1.96268 128.357L31.9028 108.192L44.1176 126.8" fill="#FDE50B"/>
<path fill-rule="evenodd" clip-rule="evenodd" d="M24.25 125.801L26.8734 119.136L27.5227 119.342L24.8993 126.007L24.25 125.801Z" fill="white"/>
<path fill-rule="evenodd" clip-rule="evenodd" d="M20.701 126.722L23.3248 120.057L23.9741 120.263L21.3503 126.927L20.701 126.722Z" fill="white"/>
<path fill-rule="evenodd" clip-rule="evenodd" d="M17.1532 127.642L19.7763 120.978L20.4255 121.183L17.8024 127.848L17.1532 127.642Z" fill="white"/>
<path d="M63.8023 238.858C65.0285 238.227 61.8364 231.162 56.6725 223.078C51.5086 214.993 46.3284 208.951 45.1022 209.582C43.876 210.212 47.0681 217.277 52.232 225.362C57.3959 233.446 62.5761 239.489 63.8023 238.858Z" fill="#222222"/>
<path d="M17.8844 119.69C26.2162 114.127 32.344 108.86 31.5712 107.925C30.7985 106.99 23.4178 110.742 15.0861 116.305C6.75428 121.868 0.626424 127.135 1.39916 128.07C2.1719 129.005 9.5526 125.253 17.8844 119.69Z" fill="#222222"/>
<path fill-rule="evenodd" clip-rule="evenodd" d="M95.13 145.652L99.8901 159.078L98.7965 159.39L94.0364 145.964L95.13 145.652Z" fill="white"/>
<path fill-rule="evenodd" clip-rule="evenodd" d="M136.031 110.664C136.031 110.663 136.031 110.663 136.449 110.494C136.868 110.325 136.868 110.326 136.868 110.326L136.88 110.349C136.888 110.364 136.899 110.388 136.915 110.419C136.946 110.481 136.993 110.573 137.055 110.694C137.177 110.935 137.359 111.289 137.594 111.741C138.063 112.644 138.745 113.937 139.594 115.495C141.291 118.612 143.655 122.786 146.32 127.018C148.988 131.253 151.951 135.535 154.846 138.874C156.294 140.543 157.717 141.967 159.07 143.029C160.429 144.097 161.681 144.771 162.786 144.99C163.928 145.216 165.511 145.216 167.445 145.014C169.371 144.814 171.612 144.417 174.053 143.869C178.933 142.774 184.583 141.083 190.057 139.181C195.53 137.28 200.818 135.173 204.974 133.249C207.053 132.286 208.843 131.372 210.229 130.556C211.63 129.73 212.572 129.031 213.004 128.504L213.743 128.993C213.205 129.648 212.14 130.415 210.733 131.244C209.31 132.082 207.49 133.011 205.395 133.981C201.204 135.921 195.886 138.04 190.388 139.95C184.891 141.859 179.204 143.562 174.276 144.668C171.811 145.221 169.529 145.627 167.551 145.833C165.581 146.038 163.878 146.049 162.589 145.794C161.262 145.531 159.87 144.753 158.465 143.649C157.053 142.54 155.59 141.072 154.122 139.38C151.186 135.994 148.197 131.672 145.521 127.424C142.843 123.172 140.471 118.983 138.769 115.857C137.917 114.294 137.233 112.996 136.762 112.089C136.526 111.635 136.343 111.279 136.22 111.036C136.158 110.915 136.111 110.822 136.079 110.759C136.063 110.728 136.051 110.704 136.043 110.688L136.031 110.664Z" fill="#222222"/>
<path fill-rule="evenodd" clip-rule="evenodd" d="M167.949 132.254L149.569 98.6622L150.394 98.2991L168.581 131.539C168.581 131.539 168.581 131.539 168.581 131.539C168.844 131.438 169.231 131.289 169.726 131.101C170.715 130.724 172.138 130.188 173.871 129.546C177.337 128.264 182.045 126.564 187.014 124.894C191.982 123.225 197.218 121.583 201.736 120.418C203.995 119.836 206.081 119.371 207.87 119.082C209.648 118.795 211.169 118.675 212.28 118.804C216.6 119.307 219.583 121.687 221.116 124.063C221.88 125.249 222.3 126.458 222.328 127.46C222.356 128.444 221.995 129.371 221.006 129.701L220.686 128.929C221.123 128.783 221.435 128.33 221.411 127.481C221.387 126.652 221.031 125.576 220.321 124.476C218.906 122.281 216.151 120.086 212.162 119.621C211.196 119.509 209.789 119.609 208.032 119.893C206.286 120.175 204.232 120.632 201.99 121.21C197.505 122.366 192.295 124 187.336 125.666C182.379 127.332 177.681 129.028 174.221 130.308C172.491 130.948 171.071 131.484 170.084 131.859C169.591 132.047 169.205 132.195 168.943 132.296C168.812 132.346 168.712 132.385 168.645 132.411L168.544 132.45C168.544 132.45 168.544 132.45 168.361 132.072L168.544 132.45L167.949 132.254Z" fill="#222222"/>
<path d="M290.968 154.667L263.708 158.861L268.382 183.324L295.643 179.129L290.968 154.667Z" fill="#0074E0"/>
<path d="M362.109 142.327C362.042 148.075 360.357 153.467 357.445 158.159C355.864 160.711 353.917 163.057 351.67 165.137C344.835 171.476 335.223 175.379 324.617 175.282C304.122 175.093 287.679 160.031 287.89 141.641C288.102 123.251 304.888 108.494 325.382 108.686C345.875 108.873 362.32 123.935 362.109 142.327Z" fill="#D7D7D7"/>
<path d="M304.757 224.852C309.354 224.852 313.081 221.508 313.081 217.382C313.081 213.257 309.354 209.912 304.757 209.912C300.16 209.912 296.433 213.257 296.433 217.382C296.433 221.508 300.16 224.852 304.757 224.852Z" fill="#222222"/>
<path d="M216.699 133.662C219.426 133.662 221.636 131.679 221.636 129.232C221.636 126.786 219.426 124.802 216.699 124.802C213.972 124.802 211.762 126.786 211.762 129.232C211.762 131.679 213.972 133.662 216.699 133.662Z" fill="#222222"/>
<path d="M340.538 217.629C345.136 217.629 348.863 214.285 348.863 210.159C348.863 206.034 345.136 202.689 340.538 202.689C335.941 202.689 332.214 206.034 332.214 210.159C332.214 214.285 335.941 217.629 340.538 217.629Z" fill="#222222"/>
<path d="M340.538 213.502C342.596 213.502 344.263 212.005 344.263 210.159C344.263 208.313 342.596 206.817 340.538 206.817C338.481 206.817 336.814 208.313 336.814 210.159C336.814 212.005 338.481 213.502 340.538 213.502Z" fill="white"/>
<path d="M304.757 220.725C306.814 220.725 308.482 219.228 308.482 217.382C308.482 215.536 306.814 214.04 304.757 214.04C302.7 214.04 301.032 215.536 301.032 217.382C301.032 219.228 302.7 220.725 304.757 220.725Z" fill="white"/>
<path d="M318.237 53.3333C322.118 68.8152 311.278 84.1899 294.025 87.6727C276.773 91.1554 259.639 81.428 255.758 65.9462L318.237 53.3333Z" fill="#FDE50B"/>
<path fill-rule="evenodd" clip-rule="evenodd" d="M228.331 125.228L282.398 209.434L359.805 193.804L360.46 196.416L280.91 212.479L226.848 128.282L212.76 131.194L212.091 128.585L228.331 125.228Z" fill="#222222"/>
<path fill-rule="evenodd" clip-rule="evenodd" d="M365.611 114.724L360.952 169.348L266.843 188.349L266.641 187.545L360.088 168.678L364.601 115.772L237.038 141.526L236.836 140.722L365.611 114.724Z" fill="#222222"/>
<path fill-rule="evenodd" clip-rule="evenodd" d="M255.809 137.314L268.419 187.607L267.523 187.788L254.913 137.495L255.809 137.314Z" fill="#222222"/>
<path fill-rule="evenodd" clip-rule="evenodd" d="M347.991 118.702L360.6 168.997L359.705 169.178L347.095 118.883L347.991 118.702Z" fill="#222222"/>
<path fill-rule="evenodd" clip-rule="evenodd" d="M329.554 122.426L342.166 172.718L341.27 172.899L328.658 122.606L329.554 122.426Z" fill="#222222"/>
<path fill-rule="evenodd" clip-rule="evenodd" d="M274.245 133.593L286.855 183.886L285.959 184.066L273.35 133.773L274.245 133.593Z" fill="#222222"/>
<path fill-rule="evenodd" clip-rule="evenodd" d="M292.683 129.869L305.292 180.164L304.396 180.345L291.787 130.05L292.683 129.869Z" fill="#222222"/>
<path fill-rule="evenodd" clip-rule="evenodd" d="M311.12 126.147L323.729 176.442L322.833 176.623L310.224 126.328L311.12 126.147Z" fill="#222222"/>
<path d="M289.765 96.0097L295.671 111.206L380.755 73.2927L374.85 58.0963L289.765 96.0097Z" fill="#0074E0"/>
<path fill-rule="evenodd" clip-rule="evenodd" d="M89.1149 26.8824C89.1572 26.9126 89.2053 26.9501 89.2591 26.9961C89.5102 27.2107 89.8178 27.5506 90.166 27.9919C90.8588 28.87 91.6606 30.0833 92.4261 31.32C93.1899 32.554 93.9107 33.8002 94.4409 34.7387C94.7059 35.2078 94.9231 35.5995 95.0739 35.8738C95.1493 36.0109 95.2081 36.1187 95.248 36.1921C95.2679 36.2288 95.2831 36.2568 95.2933 36.2757L95.3084 36.3036L95.3086 36.3039C95.3086 36.304 95.3086 36.304 95.7219 36.1248L95.3086 36.3039L96.1801 36.0994L95.7219 36.1248C96.1801 36.0994 96.1801 36.0994 96.1801 36.0994L96.1785 36.076L96.1739 36.0068C96.1699 35.9462 96.1641 35.857 96.1571 35.7434C96.1429 35.5162 96.1235 35.1913 96.1026 34.8012C96.0607 34.0206 96.0129 32.9804 95.9886 31.9391C95.9643 30.8952 95.9639 29.8602 96.0155 29.0862C96.0242 28.9547 96.0344 28.8329 96.0459 28.7213C96.1741 28.999 96.3204 29.3432 96.4837 29.7419C96.6542 30.1583 96.8427 30.6332 97.0457 31.1446C97.393 32.0192 97.7826 33.0007 98.1971 33.9793C98.8558 35.5346 99.5941 37.1249 100.366 38.3568C100.751 38.972 101.155 39.5142 101.573 39.9211C101.984 40.3201 102.458 40.6377 102.992 40.709C103.903 40.8307 104.72 40.5518 105.422 40.1308C106.119 39.7127 106.741 39.1319 107.279 38.5908C107.437 38.4325 107.585 38.2795 107.727 38.1341C108.086 37.764 108.399 37.4425 108.69 37.205C108.89 37.0414 109.04 36.9523 109.148 36.9153C109.181 36.9038 109.205 36.8988 109.222 36.8975C109.234 36.9611 109.238 37.066 109.221 37.2217C109.185 37.5507 109.065 38.0095 108.876 38.5692C108.499 39.6825 107.872 41.1134 107.199 42.5353C106.527 43.9543 105.815 45.3526 105.269 46.3969C104.997 46.9189 104.766 47.352 104.604 47.6544C104.523 47.8056 104.459 47.9241 104.415 48.0047C104.393 48.045 104.376 48.0759 104.365 48.0966L104.359 48.1071L87.0357 72.4462L87.1842 73.0199L104.081 82.2324L104.558 81.5283L88.0621 72.5346L105.147 48.531L105.172 48.4908L104.76 48.3092C105.172 48.4908 105.172 48.4909 105.172 48.4908L105.173 48.4902L105.177 48.4825L105.19 48.4584C105.201 48.4373 105.219 48.406 105.241 48.3652C105.285 48.2836 105.349 48.164 105.431 48.0117C105.595 47.7071 105.826 47.2714 106.101 46.7465C106.649 45.697 107.367 44.2889 108.044 42.8574C108.721 41.4289 109.363 39.9653 109.754 38.8087C109.949 38.2335 110.089 37.7135 110.135 37.3034C110.157 37.0999 110.16 36.8987 110.12 36.7214C110.08 36.5482 109.984 36.3317 109.746 36.2027C109.436 36.0345 109.108 36.0469 108.819 36.1459C108.551 36.2382 108.299 36.4097 108.071 36.596C107.739 36.8678 107.372 37.2447 106.998 37.63C106.864 37.7678 106.729 37.9066 106.594 38.0421C106.063 38.5763 105.506 39.0896 104.912 39.4459C104.322 39.7993 103.735 39.9754 103.127 39.8942C102.901 39.864 102.606 39.7103 102.248 39.3623C101.898 39.0222 101.535 38.5417 101.166 37.9531C100.429 36.7772 99.7108 35.2346 99.0552 33.6866C98.6426 32.7124 98.2617 31.7525 97.9177 30.8859C97.7135 30.3715 97.5224 29.89 97.3454 29.4578C97.111 28.8853 96.9003 28.3968 96.7215 28.0508C96.6333 27.8803 96.5437 27.7258 96.4535 27.6097C96.4093 27.5529 96.3506 27.4862 96.2761 27.4309C96.2088 27.3811 96.062 27.2915 95.8597 27.3097C95.5656 27.3362 95.4226 27.5464 95.371 27.6357C95.306 27.7483 95.2631 27.8826 95.2316 28.0128C95.1671 28.2791 95.1258 28.6358 95.0991 29.037C95.0452 29.8453 95.0463 30.9073 95.0707 31.9563C95.0888 32.7327 95.1199 33.5074 95.1518 34.1755C94.6306 33.2568 93.9492 32.0841 93.2287 30.92C92.459 29.6765 91.6377 28.4316 90.9153 27.5159C90.5559 27.0604 90.2079 26.6694 89.8924 26.3996C89.7355 26.2655 89.5691 26.146 89.3978 26.0663C89.2314 25.9888 89.0011 25.922 88.7537 25.9843L88.7534 25.9843C88.4681 26.0564 88.3337 26.2671 88.2743 26.4233C88.2143 26.5812 88.1961 26.7645 88.1955 26.9439C88.1942 27.3086 88.2671 27.7855 88.3823 28.3177C88.6142 29.3897 89.0384 30.7779 89.4965 32.1432C89.6419 32.5764 89.7911 33.0085 89.9393 33.429C89.4723 32.7575 88.986 32.1126 88.5372 31.6213C88.2653 31.3237 87.9894 31.0625 87.725 30.8875C87.4926 30.7337 87.1164 30.5452 86.7243 30.686C86.4311 30.7911 86.2798 31.0182 86.2065 31.2293C86.134 31.4377 86.1164 31.6829 86.1265 31.936C86.1469 32.4462 86.2865 33.1083 86.4973 33.8507C86.921 35.343 87.6614 37.256 88.4545 39.1336C89.2489 41.0144 90.1019 42.8727 90.7558 44.2599C91.0829 44.9538 91.3604 45.5303 91.5562 45.9335C91.6314 46.0882 91.6945 46.2174 91.7437 46.3179C91.7304 46.3308 91.7164 46.3443 91.7019 46.3584C91.5398 46.5153 91.3024 46.7461 91.0006 47.0424C90.3971 47.6351 89.536 48.4899 88.5046 49.5397C86.442 51.6389 83.6964 54.5194 80.9668 57.6424C78.2388 60.7636 75.5188 64.1359 73.5127 67.2175C72.5098 68.7583 71.6795 70.2349 71.1163 71.5774C70.5557 72.9137 70.2459 74.1491 70.3198 75.1964C70.3955 76.2675 70.9769 77.4068 71.8714 78.561C72.7704 79.721 74.0141 80.9323 75.4745 82.1531C78.3958 84.5952 82.2295 87.1129 86.0356 89.3779C89.8446 91.6446 93.6397 93.6665 96.4918 95.1165C97.918 95.8416 99.1098 96.4244 99.951 96.824C100.371 97.0236 100.706 97.1783 100.939 97.2824C101.055 97.3341 101.15 97.375 101.219 97.403C101.252 97.4166 101.287 97.4299 101.317 97.4403C101.331 97.445 101.356 97.453 101.384 97.4597C101.398 97.4627 101.427 97.4691 101.463 97.4721C101.469 97.4724 101.478 97.4727 101.488 97.4729C101.508 97.4732 101.535 97.4729 101.553 97.4717C101.591 97.4668 101.685 97.4415 101.739 97.4175L101.277 96.7055C101.33 96.6819 101.423 96.6568 101.461 96.652C101.486 96.6504 101.529 96.6505 101.546 96.6516C101.58 96.6543 101.605 96.66 101.613 96.6619C101.625 96.6645 101.632 96.6668 101.636 96.6677L101.64 96.669C101.64 96.669 101.641 96.6696 101.641 96.6694L101.64 96.6692L101.64 96.669L101.638 96.6682C101.635 96.6674 101.632 96.6663 101.628 96.6648C101.62 96.6617 101.61 96.6576 101.597 96.6523C101.543 96.6306 101.46 96.5949 101.348 96.5447C101.124 96.4449 100.797 96.2937 100.38 96.0958C99.5478 95.7003 98.3638 95.1214 96.9444 94.3997C94.1051 92.9563 90.3293 90.9446 86.543 88.6913C82.7538 86.4364 78.9679 83.9475 76.1003 81.5503C74.6662 80.3515 73.4732 79.1849 72.6251 78.0906C71.7725 76.9904 71.2964 75.9988 71.2361 75.1443C71.174 74.2658 71.4343 73.1578 71.9755 71.8677C72.5142 70.5836 73.3176 69.1506 74.3055 67.6331C76.2811 64.5981 78.9722 61.2593 81.6892 58.1508C84.4046 55.0441 87.138 52.1763 89.1932 50.0846C90.2206 49.0389 91.078 48.1877 91.6784 47.5981C91.9785 47.3034 92.2144 47.074 92.3751 46.9185C92.4554 46.8408 92.5169 46.7815 92.5583 46.7417L92.6051 46.6968L92.6204 46.6822C92.6205 46.6821 92.6206 46.682 92.286 46.4L92.6206 46.682L92.7053 46.2324L92.286 46.4C92.7053 46.2324 92.7053 46.2325 92.7053 46.2324L92.6848 46.191C92.6712 46.1635 92.651 46.1225 92.6248 46.069C92.5722 45.962 92.4952 45.8048 92.3979 45.6044C92.2031 45.2034 91.927 44.6297 91.6014 43.939C90.95 42.5571 90.1018 40.7092 89.3129 38.8416C88.5226 36.9707 87.7974 35.093 87.3869 33.6473C87.1806 32.9207 87.0608 32.327 87.044 31.9064C87.0361 31.7071 87.0526 31.5724 87.0778 31.4901C87.1039 31.5033 87.1377 31.5225 87.1801 31.5506C87.3532 31.6651 87.5722 31.8645 87.8272 32.1436C88.3327 32.6969 88.9099 33.4857 89.4605 34.3039C90.0087 35.1185 90.5211 35.948 90.8971 36.5749C91.0848 36.888 91.2382 37.15 91.3445 37.3335C91.3976 37.4252 91.439 37.4973 91.467 37.5463C91.481 37.5708 91.4916 37.5896 91.4987 37.6021L91.5067 37.6162L91.5091 37.6205C91.5091 37.6205 91.5093 37.6207 91.6796 37.5433L91.5093 37.6207L92.3511 37.2961L91.9188 37.4346C92.3511 37.2961 92.3511 37.2962 92.3511 37.2961L92.3504 37.2943L92.3391 37.2659C92.3312 37.2458 92.3193 37.2159 92.3039 37.1767C92.2731 37.0984 92.228 36.9834 92.171 36.8367C92.0569 36.5434 91.8953 36.1238 91.7051 35.6193C91.3247 34.6097 90.8307 33.2619 90.3756 31.9056C89.9194 30.5463 89.5063 29.1905 89.2835 28.1607C89.1713 27.6421 89.1126 27.2287 89.1135 26.9464C89.1136 26.9235 89.1141 26.9022 89.1149 26.8824ZM87.1057 31.4258C87.1058 31.4259 87.1052 31.4267 87.104 31.428C87.1051 31.4264 87.1057 31.4257 87.1057 31.4258ZM109.272 36.9078C109.271 36.9075 109.27 36.9072 109.27 36.9069L109.272 36.9078ZM109.211 36.8549C109.21 36.8534 109.21 36.8525 109.21 36.8525C109.21 36.8525 109.21 36.8532 109.211 36.8549ZM96.191 28.0073C96.191 28.0075 96.1895 28.0102 96.1862 28.0146C96.1893 28.0093 96.1909 28.0071 96.191 28.0073Z" fill="#222222"/>
<path fill-rule="evenodd" clip-rule="evenodd" d="M82.6693 4.87913L82.8024 0L83.7203 0.0201665L83.5872 4.8993L82.6693 4.87913Z" fill="#222222"/>
<path fill-rule="evenodd" clip-rule="evenodd" d="M68.4517 12.3818L64.701 8.84753L65.3659 8.27942L69.1166 11.8137L68.4517 12.3818Z" fill="#222222"/>
<path fill-rule="evenodd" clip-rule="evenodd" d="M96.7457 12.4235L100.684 9.05817L101.317 9.65479L97.3787 13.0201L96.7457 12.4235Z" fill="#222222"/>
<path d="M379.003 29.9856L390.193 31.7994L386.273 45.8438L378.971 51.0545L375.083 44.03L379.003 29.9856Z" fill="#F0438C"/>
<path d="M231.909 63.059L242.069 57.3333L250.183 68.9308L248.636 76.8417L240.022 74.6544L231.909 63.059Z" fill="#F0438C"/>
<path d="M369.051 190.198L370.701 179.535L355.59 177.651L348.181 182.161L353.937 188.313L369.051 190.198Z" fill="#F0438C"/>
<path d="M48.0678 68.6683L38.809 61.8243L48.5107 51.2566L57.3655 50.0764L57.7695 58.1005L48.0678 68.6683Z" fill="#F0438C"/>
<path fill-rule="evenodd" clip-rule="evenodd" d="M62.4935 49.7652C60.6962 49.7046 59.1144 49.6514 57.6975 50.2945L57.3867 49.7431C58.9684 49.0252 60.7217 49.0857 62.4679 49.1458C62.5811 49.1497 62.6942 49.1536 62.8073 49.1573C64.6931 49.2188 66.6123 49.2295 68.5575 48.3661L68.8628 48.9199C66.7479 49.8586 64.6713 49.8364 62.7823 49.7748C62.6854 49.7716 62.5891 49.7684 62.4935 49.7652Z" fill="#222222"/>
<path fill-rule="evenodd" clip-rule="evenodd" d="M248.406 79.5754C248.699 78.6807 248.667 77.7489 248.035 76.6657L248.644 76.379C249.362 77.6077 249.408 78.7049 249.067 79.7492C248.733 80.7729 248.028 81.7358 247.282 82.7074C247.209 82.8038 247.134 82.9004 247.059 82.9974C245.609 84.8808 244.055 86.8971 244.176 89.7662C244.316 93.1068 246.206 94.8135 248.056 95.7009C248.988 96.1484 249.916 96.3888 250.611 96.517C250.959 96.5809 251.246 96.6166 251.446 96.6362C251.546 96.646 251.623 96.6518 251.675 96.6551C251.701 96.6568 251.72 96.6578 251.733 96.6584L251.746 96.659L251.749 96.6591L251.749 96.6591C251.749 96.6591 251.749 96.6591 251.736 96.9678C251.723 97.2766 251.723 97.2766 251.723 97.2765L251.721 97.2765L251.715 97.2762C251.71 97.2761 251.704 97.2758 251.696 97.2754C251.68 97.2746 251.656 97.2733 251.626 97.2714C251.566 97.2676 251.48 97.2611 251.371 97.2504C251.153 97.229 250.844 97.1905 250.473 97.1222C249.732 96.9858 248.738 96.7289 247.731 96.2458C245.701 95.2719 243.639 93.3835 243.488 89.7895C243.358 86.7093 245.035 84.5363 246.474 82.6711C246.555 82.5655 246.636 82.4608 246.715 82.3571C247.467 81.3768 248.107 80.4906 248.406 79.5754Z" fill="#222222"/>
<path fill-rule="evenodd" clip-rule="evenodd" d="M379.346 50.7644L375.176 58.4827L374.592 58.2354L378.762 50.5171L379.346 50.7644Z" fill="#222222"/>
<path d="M347.936 70.4114L346.031 81.0388L330.968 78.868L325.358 72.6069L332.871 68.2386L347.936 70.4114Z" fill="#F0438C"/>
<path fill-rule="evenodd" clip-rule="evenodd" d="M325.425 72.9136L315.949 71.8921L316.031 71.2786L325.507 72.3002L325.425 72.9136Z" fill="#222222"/>
<path fill-rule="evenodd" clip-rule="evenodd" d="M335.772 173.89C335.772 173.89 335.772 173.889 336.093 173.777C336.413 173.664 336.413 173.664 336.413 173.664L336.413 173.664C336.413 173.664 336.413 173.664 336.413 173.664L336.414 173.666L336.418 173.676C336.423 173.685 336.43 173.7 336.439 173.72C336.459 173.76 336.489 173.82 336.531 173.899C336.615 174.056 336.748 174.286 336.938 174.573C337.317 175.145 337.925 175.942 338.832 176.823C340.646 178.585 343.664 180.692 348.47 182.037L348.265 182.627C343.336 181.248 340.217 179.078 338.327 177.242C337.383 176.326 336.747 175.494 336.346 174.888C336.145 174.585 336.003 174.339 335.911 174.167C335.864 174.081 335.83 174.013 335.808 173.966C335.796 173.943 335.788 173.924 335.782 173.911C335.779 173.905 335.777 173.9 335.775 173.896L335.773 173.892L335.772 173.89L335.772 173.89ZM336.413 173.664L336.413 173.664L336.413 173.664Z" fill="#222222"/>
<path d="M245.094 72.9511C245.829 72.9511 246.425 72.4163 246.425 71.7565C246.425 71.0968 245.829 70.562 245.094 70.562C244.359 70.562 243.763 71.0968 243.763 71.7565C243.763 72.4163 244.359 72.9511 245.094 72.9511Z" fill="white"/>
<path d="M381.547 45.4375C382.157 45.0239 382.354 44.2452 381.988 43.6981C381.621 43.151 380.83 43.0428 380.22 43.4563C379.611 43.8699 379.413 44.6487 379.78 45.1958C380.146 45.7429 380.938 45.8511 381.547 45.4375Z" fill="white"/>
<path d="M332.579 74.792C333.314 74.792 333.91 74.2572 333.91 73.5975C333.91 72.9377 333.314 72.403 332.579 72.403C331.844 72.403 331.248 72.9377 331.248 73.5975C331.248 74.2572 331.844 74.792 332.579 74.792Z" fill="white"/>
<path d="M354.573 184.165C355.308 184.165 355.905 183.631 355.905 182.971C355.905 182.311 355.308 181.776 354.573 181.776C353.838 181.776 353.242 182.311 353.242 182.971C353.242 183.631 353.838 184.165 354.573 184.165Z" fill="white"/>
<path d="M52.816 56.1419C53.5512 56.1419 54.1472 55.607 54.1472 54.9473C54.1472 54.2876 53.5512 53.7528 52.816 53.7528C52.0808 53.7528 51.4848 54.2876 51.4848 54.9473C51.4848 55.607 52.0808 56.1419 52.816 56.1419Z" fill="white"/>
<path fill-rule="evenodd" clip-rule="evenodd" d="M318.261 66.3781C318.261 66.3782 318.262 66.3783 318.062 66.63C317.862 66.8818 317.862 66.8818 317.862 66.8817L317.862 66.8815L317.86 66.8805L317.853 66.876C317.85 66.8737 317.845 66.8708 317.84 66.8672C317.835 66.8645 317.83 66.8613 317.825 66.8578C317.799 66.8417 317.761 66.8176 317.71 66.7863C317.609 66.7236 317.459 66.6318 317.266 66.516C316.88 66.2844 316.321 65.957 315.63 65.5751C314.247 64.8109 312.339 63.8305 310.236 62.9625C308.131 62.0934 305.845 61.3431 303.702 61.03C301.555 60.7162 299.602 60.8486 298.115 61.6889C296.657 62.5128 295.954 64.0234 295.762 65.9151C295.571 67.8035 295.896 70.0105 296.426 72.1284C296.954 74.2425 297.68 76.248 298.275 77.7266C298.573 78.4654 298.837 79.0715 299.026 79.4925C299.121 79.703 299.197 79.8671 299.25 79.9784C299.276 80.034 299.296 80.0764 299.31 80.1047C299.316 80.1189 299.322 80.1296 299.325 80.1366L299.33 80.1467C299.33 80.1468 299.33 80.1468 299.015 80.2706L299.33 80.1467L299.936 81.3898L298.79 80.5048M298.79 80.5048L298.789 80.5041L298.785 80.5012L298.77 80.4893C298.756 80.4787 298.735 80.4627 298.707 80.4418C298.651 80.4001 298.568 80.3387 298.461 80.2611C298.247 80.1059 297.936 79.886 297.55 79.6287C296.778 79.1136 295.709 78.4511 294.521 77.8577C293.331 77.2629 292.035 76.7454 290.807 76.5089C289.576 76.272 288.458 76.3251 287.573 76.8159C286.684 77.3091 286.054 78.2409 285.625 79.424C285.197 80.6009 284.985 81.9818 284.895 83.3101C284.805 84.636 284.837 85.8961 284.892 86.8258C284.919 87.2902 284.952 87.6713 284.978 87.9358C284.991 88.068 285.003 88.1711 285.011 88.2407C285.015 88.2756 285.018 88.3021 285.02 88.3197L285.023 88.3394L285.023 88.3442L285.023 88.3455L284.681 88.3812C284.339 88.417 284.339 88.4169 284.339 88.4168L284.339 88.4148L284.338 88.4091L284.336 88.3874C284.333 88.3684 284.33 88.3406 284.326 88.3043C284.317 88.2319 284.306 88.1258 284.292 87.9904C284.266 87.7197 284.232 87.3312 284.204 86.8585C284.148 85.9138 284.115 84.6289 284.207 83.2724C284.3 81.9184 284.517 80.4795 284.97 79.2327C285.42 77.9919 286.119 76.8958 287.211 76.2903C288.307 75.6823 289.631 75.6507 290.951 75.9048C292.274 76.1593 293.636 76.7085 294.856 77.3178C296.079 77.9285 297.173 78.6075 297.961 79.1328C298.043 79.1872 298.121 79.2401 298.196 79.291C298.032 78.9171 297.838 78.4595 297.628 77.9365C297.027 76.4432 296.291 74.4114 295.754 72.2637C295.218 70.1198 294.875 67.8405 295.077 65.8591C295.277 63.881 296.028 62.1382 297.748 61.1661C299.439 60.2105 301.59 60.0953 303.813 60.4202C306.041 60.7458 308.391 61.5206 310.524 62.4012C312.659 63.2827 314.593 64.2764 315.991 65.049C316.69 65.4354 317.257 65.767 317.649 66.0023C317.845 66.12 317.998 66.2136 318.101 66.278C318.153 66.3102 318.193 66.3351 318.22 66.352C318.233 66.3605 318.244 66.3669 318.251 66.3714L318.259 66.3764L318.261 66.3781" fill="white"/>
<path fill-rule="evenodd" clip-rule="evenodd" d="M265.962 63.8871C265.962 63.8868 265.962 63.8866 266.297 63.8186C266.633 63.7506 266.633 63.7507 266.633 63.7508L266.634 63.7552L266.638 63.7703C266.642 63.7838 266.647 63.804 266.654 63.8307C266.668 63.8841 266.689 63.9632 266.717 64.0653C266.774 64.2695 266.858 64.5655 266.97 64.9309C267.195 65.6618 267.529 66.6691 267.969 67.774C268.854 69.997 270.147 72.5656 271.798 74.0988C272.62 74.8619 273.5 75.3403 274.434 75.4233C275.358 75.5054 276.407 75.206 277.586 74.2795C279.968 72.4083 282.762 68.0749 285.902 59.7609L286.554 59.9593C283.412 68.2774 280.572 72.755 278.04 74.7445C276.762 75.7483 275.532 76.1418 274.366 76.0381C273.209 75.9353 272.187 75.3492 271.303 74.5281C269.542 72.8929 268.209 70.2141 267.32 67.9818C266.873 66.859 266.534 65.8366 266.307 65.0949C266.193 64.7239 266.107 64.4227 266.049 64.2139C266.02 64.1095 265.999 64.0281 265.984 63.9726C265.977 63.9449 265.971 63.9236 265.967 63.9092L265.963 63.8926L265.962 63.8871Z" fill="white"/>
<path fill-rule="evenodd" clip-rule="evenodd" d="M315.189 73.3474C315.189 73.3475 315.189 73.3476 314.987 73.5975L314.954 73.6382C314.784 73.8474 314.784 73.8474 314.784 73.8473L314.782 73.8457L314.773 73.8401C314.765 73.835 314.753 73.8274 314.737 73.8173C314.706 73.7972 314.659 73.7675 314.599 73.7293C314.477 73.653 314.3 73.5431 314.078 73.4097C313.633 73.1427 313.009 72.7821 312.293 72.4077C310.849 71.6526 309.074 70.8652 307.644 70.6485C306.927 70.5399 306.357 70.5841 305.961 70.791C305.587 70.9864 305.296 71.366 305.229 72.0922C305.16 72.8286 305.328 73.8863 305.848 75.3606C306.366 76.8304 307.227 78.693 308.522 81.031L307.905 81.306C306.601 78.9513 305.724 77.0577 305.191 75.5471C304.66 74.041 304.463 72.8941 304.542 72.0409C304.623 71.1773 304.992 70.5822 305.614 70.257C306.215 69.9433 306.978 69.921 307.758 70.0392C309.321 70.2761 311.189 71.1155 312.639 71.8738C313.371 72.2562 314.007 72.6239 314.46 72.8961C314.687 73.0323 314.869 73.1447 314.994 73.2232C315.056 73.2625 315.105 73.2934 315.138 73.3145C315.154 73.3251 315.167 73.3332 315.175 73.3388L315.185 73.3452L315.189 73.3474Z" fill="white"/>
<path d="M245.021 112.761C243.825 102.518 252.11 93.3451 263.526 92.272C274.94 91.199 285.163 98.6341 286.359 108.878L245.021 112.761Z" fill="#D7D7D7"/>
</svg>
