<svg width="80" height="80" viewBox="0 0 80 80" fill="none" xmlns="http://www.w3.org/2000/svg">
<path d="M35.9807 5.25538C38.006 2.60727 41.994 2.60727 44.0193 5.25538C45.5351 7.23729 48.2693 7.81847 50.4601 6.62441C53.3874 5.029 57.0306 6.65108 57.8037 9.894C58.3823 12.3211 60.6438 13.9641 63.1309 13.7644C66.4539 13.4975 69.1225 16.4612 68.5097 19.7382C68.0511 22.1908 69.4488 24.6116 71.8021 25.4407C74.9464 26.5486 76.1788 30.3414 74.2861 33.0859C72.8696 35.1399 73.1618 37.9199 74.9744 39.6345C77.3963 41.9255 76.9795 45.8917 74.1342 47.6291C72.0047 48.9294 71.1409 51.5879 72.0994 53.8915C73.3801 56.9695 71.386 60.4232 68.0801 60.8531C65.6058 61.1749 63.7354 63.2522 63.6741 65.7465C63.5921 69.0793 60.3657 71.4234 57.1707 70.4715C54.7795 69.759 52.2258 70.896 51.1553 73.1497C49.7248 76.161 45.8239 76.9902 43.2924 74.821C41.3977 73.1976 38.6023 73.1976 36.7076 74.821C34.1761 76.9902 30.2752 76.161 28.8447 73.1497C27.7742 70.896 25.2205 69.759 22.8293 70.4715C19.6343 71.4234 16.4079 69.0793 16.3259 65.7465C16.2646 63.2522 14.3942 61.1749 11.9199 60.8531C8.61396 60.4232 6.61993 56.9695 7.90063 53.8915C8.85914 51.5879 7.99534 48.9294 5.86584 47.6291C3.02054 45.8917 2.60368 41.9255 5.02558 39.6345C6.8382 37.9199 7.13039 35.1399 5.71387 33.0859C3.82121 30.3414 5.05359 26.5486 8.19793 25.4407C10.5512 24.6116 11.9489 22.1908 11.4903 19.7382C10.8775 16.4612 13.5461 13.4975 16.8691 13.7644C19.3562 13.9641 21.6177 12.3211 22.1963 9.894C22.9694 6.65108 26.6126 5.029 29.5399 6.62441C31.7307 7.81847 34.4649 7.23729 35.9807 5.25538Z" fill="#742A40"/>
<circle cx="40" cy="40" r="28" fill="#AF687D"/>
<circle cx="40" cy="40" r="25" fill="white"/>
<circle cx="40" cy="40" r="20" fill="#AF687D"/>
<path fill-rule="evenodd" clip-rule="evenodd" d="M43.1151 45.9379L35 53V27L40.4739 32.4099C39.5814 33.288 39.029 34.5034 39.029 35.8463C39.029 38.5242 41.2255 40.695 43.935 40.695C45.2939 40.695 46.5237 40.149 47.4121 39.2669L54 45.7777L43.1151 45.9379ZM46.0245 37.8955L41.8616 33.7813C41.3242 34.3084 40.9914 35.039 40.9914 35.8463C40.9914 37.453 42.3093 38.7555 43.935 38.7555C44.752 38.7555 45.4912 38.4266 46.0245 37.8955Z" fill="white"/>
<path d="M40.0362 44.1791C40.0362 45.0038 39.3598 45.6723 38.5254 45.6723C37.6909 45.6723 37.0145 45.0038 37.0145 44.1791C37.0145 43.3545 37.6909 42.6859 38.5254 42.6859C39.3598 42.6859 40.0362 43.3545 40.0362 44.1791Z" fill="white"/>
<path d="M39.029 35.8463C39.029 34.5034 39.5814 33.288 40.4739 32.4099L41.8616 33.7813C41.3242 34.3084 40.9914 35.0389 40.9914 35.8463C40.9914 37.453 42.3093 38.7555 43.935 38.7555C44.752 38.7555 45.4912 38.4266 46.0245 37.8955L47.4121 39.2669C46.5237 40.149 45.2939 40.695 43.935 40.695C41.2255 40.695 39.029 38.5242 39.029 35.8463Z" fill="#742A40"/>
<path d="M40.0362 44.1791C40.0362 45.0038 39.3598 45.6723 38.5254 45.6723C37.6909 45.6723 37.0145 45.0038 37.0145 44.1791C37.0145 43.3545 37.6909 42.6859 38.5254 42.6859C39.3598 42.6859 40.0362 43.3545 40.0362 44.1791Z" fill="#742A40"/>
</svg>
