<svg width="258" height="256" viewBox="0 0 258 256" fill="none" xmlns="http://www.w3.org/2000/svg">
<path d="M167.916 52.1658H116.938V91.4599H167.916V52.1658Z" fill="#0074E0"/>
<path d="M135.505 83.4764C137.524 82.5575 138.568 80.5077 137.835 78.8982C137.103 77.2887 134.872 76.729 132.853 77.648C130.833 78.5669 129.79 80.6165 130.522 82.226C131.255 83.8355 133.486 84.3954 135.505 83.4764Z" fill="white"/>
<path fill-rule="evenodd" clip-rule="evenodd" d="M146.682 58.8206C147.177 59.5191 147.378 60.2341 147.021 60.8769C146.643 61.557 145.993 62.0688 145.173 62.4506C144.353 62.8326 143.348 63.0918 142.237 63.259C140.014 63.5933 137.323 63.565 134.731 63.3815C132.138 63.1978 129.632 62.8578 127.776 62.5639C127.073 62.4525 126.463 62.3477 125.976 62.2605C126.105 62.3406 126.244 62.4269 126.39 62.5191C127.296 63.0905 128.497 63.8854 129.676 64.7774C130.852 65.6678 132.015 66.6622 132.837 67.6334C133.247 68.119 133.58 68.6068 133.785 69.0802C133.99 69.5535 134.074 70.0292 133.96 70.4775C133.875 70.812 133.648 71.0981 133.334 71.3431C133.02 71.5883 132.604 71.8043 132.11 71.9966C131.121 72.3814 129.782 72.6866 128.218 72.9293C125.088 73.4151 121.012 73.6571 116.944 73.7628L116.932 73.3036C120.995 73.198 125.047 72.9565 128.148 72.4754C129.699 72.2346 131.001 71.9354 131.943 71.5686C132.414 71.3851 132.785 71.1885 133.051 70.9809C133.318 70.7732 133.463 70.5664 133.515 70.3645C133.595 70.0474 133.544 69.6795 133.363 69.2626C133.183 68.8457 132.881 68.3967 132.486 67.9302C131.696 66.9972 130.565 66.0267 129.398 65.1437C128.234 64.2622 127.044 63.4749 126.145 62.9076C125.695 62.6241 125.319 62.3959 125.055 62.2386C124.923 62.16 124.819 62.0991 124.748 62.058C124.713 62.0374 124.686 62.0218 124.668 62.0114L124.647 61.9996L124.641 61.996L124.641 61.9958C124.641 61.9958 124.641 61.9958 124.754 61.7963C124.801 61.5713 124.801 61.5713 124.801 61.5713L124.801 61.5714L124.814 61.574L124.855 61.5823C124.891 61.5896 124.945 61.6003 125.016 61.6141C125.157 61.6418 125.365 61.6817 125.631 61.7308C126.162 61.829 126.924 61.9639 127.848 62.1102C129.696 62.4028 132.188 62.7408 134.764 62.9232C137.342 63.1058 139.995 63.1317 142.169 62.8047C143.256 62.6413 144.213 62.391 144.979 62.0342C145.745 61.6774 146.304 61.2212 146.619 60.6536C146.848 60.2422 146.763 59.7296 146.307 59.0864C145.853 58.4462 145.067 57.7356 144.034 56.9845C141.973 55.4854 138.989 53.8698 135.9 52.3724L136.1 51.9591C139.195 53.4591 142.209 55.089 144.305 56.613C145.35 57.3736 146.184 58.1191 146.682 58.8206ZM124.754 61.7963L124.801 61.5713C124.69 61.5486 124.579 61.6096 124.54 61.7153C124.5 61.821 124.543 61.9399 124.641 61.9958L124.754 61.7963Z" fill="white"/>
<path fill-rule="evenodd" clip-rule="evenodd" d="M155.369 71.3881C160.028 72.4952 165.024 74.4338 168.005 75.6801L167.828 76.1039C164.853 74.8604 159.885 72.9334 155.263 71.835C152.95 71.2855 150.737 70.9467 148.909 70.9993C147.072 71.0521 145.683 71.4984 144.941 72.4522M155.369 71.3881C153.04 70.8348 150.782 70.4859 148.896 70.5401L155.369 71.3881ZM148.896 70.5401C147.02 70.594 145.451 71.0489 144.578 72.1702L148.896 70.5401ZM144.578 72.1702L144.578 72.1703L144.578 72.1702ZM144.578 72.1703C143.799 73.1728 143.613 74.5187 143.813 76.0321L144.578 72.1703ZM143.813 76.0321C144.014 77.547 144.607 79.2623 145.427 81.0421L143.813 76.0321ZM145.427 81.0421C147.07 84.6029 149.649 88.4706 151.943 91.5958L145.427 81.0421ZM151.943 91.5958L152.313 91.324L151.943 91.5958ZM152.313 91.324C150.025 88.2065 147.467 84.3683 145.845 80.8497L152.313 91.324ZM145.845 80.8497C145.033 79.0898 144.461 77.422 144.269 75.9717L145.845 80.8497ZM144.269 75.9717C144.076 74.5198 144.268 73.3183 144.941 72.4523L144.269 75.9717Z" fill="white"/>
<path fill-rule="evenodd" clip-rule="evenodd" d="M152.816 53.0793C152.904 52.6956 153.075 52.3335 153.319 52.0236L153.68 52.308C153.479 52.5623 153.338 52.8607 153.265 53.1785C153.202 53.4972 153.323 53.8232 153.653 54.1689C153.987 54.5181 154.512 54.86 155.184 55.1881C156.526 55.8429 158.389 56.4112 160.287 56.8782C162.183 57.3443 164.101 57.7063 165.546 57.9519C166.268 58.0746 166.872 58.1681 167.295 58.2309C167.506 58.2624 167.672 58.2861 167.785 58.3019C167.842 58.3099 167.885 58.3158 167.915 58.3198L167.947 58.3243L167.958 58.3257C167.958 58.3257 167.958 58.3257 167.928 58.5534C167.898 58.7811 167.898 58.7811 167.898 58.7811L167.886 58.7795L167.853 58.775C167.823 58.7709 167.779 58.7649 167.722 58.7569C167.607 58.7408 167.44 58.7169 167.227 58.6853C166.802 58.6221 166.195 58.5281 165.469 58.4047C164.018 58.1582 162.088 57.794 160.178 57.3242C158.271 56.8553 156.37 56.2777 154.983 55.6009C154.291 55.2632 153.71 54.8928 153.321 54.4864C152.93 54.0775 152.711 53.6054 152.815 53.0855C152.815 53.0835 152.816 53.0814 152.816 53.0793Z" fill="white"/>
<path d="M22.1047 82.4195L10.2026 62.4602C6.2061 55.7603 11.0432 47.2551 18.8524 47.2551H42.6453C50.4545 47.2551 55.2778 55.7533 51.2836 62.4647L39.3814 82.4195C35.4814 88.9677 26.0047 88.9677 22.1047 82.4195Z" fill="#BFBFBF"/>
<path fill-rule="evenodd" clip-rule="evenodd" d="M47.0729 50.2067C47.3279 49.6713 47.9676 49.3473 48.7865 49.1519L48.8932 49.5987C48.0954 49.7891 47.6464 50.0712 47.4878 50.4039C47.2928 50.8172 47.3327 51.3765 47.5907 52.0614C47.8466 52.7405 48.3016 53.5016 48.8694 54.2855C50.0039 55.8516 51.559 57.4679 52.7665 58.6388L52.4467 58.9686C51.2334 57.7921 49.6556 56.1538 48.4974 54.555C47.9188 53.7563 47.4374 52.9573 47.1609 52.2233C46.8866 51.4952 46.7982 50.7885 47.0726 50.2073L47.0729 50.2067L47.0729 50.2067Z" fill="white"/>
<path fill-rule="evenodd" clip-rule="evenodd" d="M98.3133 40.7965H149.98V80.7797H98.3133V40.7965ZM99.0024 41.4855V80.0906H149.291V41.4855H99.0024Z" fill="#222222"/>
<path fill-rule="evenodd" clip-rule="evenodd" d="M116.76 91.755L98.48 80.7302L98.8358 80.1401L117.116 91.1649L116.76 91.755Z" fill="#222222"/>
<path fill-rule="evenodd" clip-rule="evenodd" d="M167.738 91.755L149.458 80.7302L149.814 80.1401L168.094 91.1649L167.738 91.755Z" fill="#222222"/>
<path fill-rule="evenodd" clip-rule="evenodd" d="M167.738 52.4608L149.458 41.436L149.814 40.846L168.094 51.8707L167.738 52.4608Z" fill="#222222"/>
<path d="M139.089 47.2782L140.968 28.8876C140.968 28.8876 148.451 25.9728 147.686 20.7384C146.921 15.5039 141.484 17.2541 141.484 17.2541C141.484 17.2541 139.711 10.0076 132.228 8.69842C124.745 7.38923 120.531 11.2961 118.978 17.1485C116.281 27.3096 121.488 31.143 132.6 32.3075L131.815 44.4623" fill="#F0438C"/>
<path d="M145.075 17.2196C145.075 17.2196 148.159 9.48848 138.556 4.84659C128.953 0.204706 126.408 3.3927 123.066 0.482622C119.725 -2.42746 112.96 8.58578 123.721 13.1266C134.482 17.6674 134.287 16.8659 134.287 16.8659C134.287 16.8659 133.046 21.958 136.03 22.4173C139.013 22.8767 141.397 17.9087 141.397 17.9087" fill="#222222"/>
<path fill-rule="evenodd" clip-rule="evenodd" d="M120.733 26.4392L122.725 22.3715L123.344 22.6745L121.352 26.7422L120.733 26.4392Z" fill="#222222"/>
<path d="M126.468 23.5084C127.148 23.5084 127.699 22.9571 127.699 22.2772C127.699 21.5973 127.148 21.046 126.468 21.046C125.788 21.046 125.237 21.5973 125.237 22.2772C125.237 22.9571 125.788 23.5084 126.468 23.5084Z" fill="#222222"/>
<path d="M120.368 23.3244C121.047 23.3244 121.599 22.7734 121.599 22.0935C121.599 21.4135 121.047 20.8623 120.368 20.8623C119.688 20.8623 119.136 21.4135 119.136 22.0935C119.136 22.7734 119.688 23.3244 120.368 23.3244Z" fill="#222222"/>
<path d="M137.828 97.6683C148.43 97.6683 157.629 104.292 160.002 113.64L190.655 234.369C190.655 234.369 203.977 232.531 208.614 236.95L173.027 256L139.206 130.221L123.866 185.115L123.073 255.991H82.4745C82.4745 255.991 88.9377 247.376 100.185 245.037C100.185 245.037 96.7952 197.53 100.815 173.376C103.07 159.825 111.566 131.73 115.54 114.118C117.696 104.552 127.015 97.6683 137.828 97.6683Z" fill="#222222"/>
<path d="M234.655 44.584C222.115 44.584 211.947 54.7521 211.947 67.2928C211.947 79.8334 222.115 90.0015 234.655 90.0015C247.196 90.0015 257.364 79.8334 257.364 67.2928C257.364 54.7521 247.196 44.5863 234.655 44.584ZM234.655 76.8107C229.398 76.813 225.137 72.5525 225.135 67.295C225.133 62.0376 229.393 57.7746 234.651 57.7746C239.908 57.7723 244.169 62.0331 244.171 67.2905V67.2928C244.171 72.5479 239.913 76.8107 234.655 76.8107Z" fill="#FDE50B"/>
<path fill-rule="evenodd" clip-rule="evenodd" d="M204.069 19.9446C204.069 19.9854 204.085 20.0586 204.15 20.116L204.608 19.6011C204.719 19.7 204.758 19.8307 204.758 19.9439C204.758 20.0462 204.728 20.1392 204.697 20.2109C204.635 20.3554 204.526 20.5135 204.399 20.673C204.139 20.9981 203.737 21.4126 203.248 21.8784C202.268 22.8137 200.9 23.9979 199.528 25.1661C199.12 25.5137 198.712 25.8599 198.313 26.198C197.902 26.5469 197.501 26.8873 197.12 27.2119C197.361 27.0346 197.61 26.8506 197.866 26.6615C198.819 25.9585 199.866 25.1853 200.917 24.428C202.672 23.1641 204.461 21.9254 205.89 21.0902C206.603 20.6741 207.243 20.3482 207.752 20.1723C208.006 20.0849 208.249 20.0266 208.464 20.0229C208.677 20.0192 208.923 20.0698 209.092 20.2695C209.265 20.472 209.271 20.7207 209.221 20.9297C209.172 21.1348 209.06 21.3501 208.92 21.564C208.636 21.9953 208.174 22.511 207.608 23.0717C206.471 24.1977 204.852 25.5653 203.218 26.8995C202.451 27.5258 201.684 28.1424 200.958 28.7254C200.128 29.3922 199.353 30.0151 198.695 30.5584C198.258 30.9194 197.88 31.24 197.578 31.5095C197.785 31.4085 198.017 31.29 198.27 31.1566C199.088 30.7259 200.102 30.1551 201.173 29.5518C201.495 29.3701 201.823 29.1854 202.152 29.0007C203.569 28.2062 205.012 27.4121 206.156 26.8698C206.726 26.5995 207.236 26.385 207.638 26.2656C207.837 26.2063 208.027 26.165 208.194 26.1581C208.345 26.1518 208.563 26.17 208.722 26.3287C208.84 26.4462 208.865 26.5942 208.856 26.7107C208.847 26.8189 208.808 26.92 208.766 27.0035C208.683 27.1726 208.541 27.3651 208.369 27.5686C208.02 27.9813 207.483 28.5115 206.828 29.1117C205.514 30.3152 203.687 31.8357 201.839 33.325C199.99 34.8154 198.115 36.2788 196.702 37.3693C195.996 37.9146 195.405 38.3668 194.99 38.6828C194.783 38.8408 194.62 38.9647 194.509 39.0492C194.453 39.0914 194.411 39.1238 194.382 39.1456L194.338 39.1786C194.338 39.1787 194.338 39.1788 194.13 38.9039C193.923 38.629 193.923 38.6289 193.923 38.6288L193.966 38.5962C193.994 38.5745 194.037 38.5423 194.092 38.5002C194.203 38.4161 194.366 38.2925 194.573 38.1349C194.986 37.8196 195.576 37.3682 196.281 36.8238C197.692 35.735 199.563 34.2748 201.407 32.7885C203.252 31.3012 205.065 29.7919 206.362 28.6036C207.013 28.0078 207.523 27.5016 207.843 27.1237C207.924 27.0273 207.99 26.9437 208.04 26.8726C207.981 26.8853 207.912 26.9028 207.834 26.9261C207.484 27.03 207.013 27.2261 206.451 27.4924C205.331 28.0232 203.908 28.806 202.489 29.6017C202.164 29.7842 201.839 29.9675 201.518 30.1483C200.445 30.7528 199.419 31.3306 198.591 31.7663C198.055 32.0487 197.59 32.2778 197.243 32.4166C197.072 32.4848 196.911 32.5391 196.776 32.5623C196.711 32.5736 196.626 32.5821 196.54 32.5674C196.451 32.5522 196.314 32.5023 196.234 32.3578C196.141 32.1906 196.201 32.0279 196.226 31.9694C196.258 31.8932 196.307 31.8212 196.355 31.7593C196.453 31.6322 196.598 31.4808 196.773 31.314C197.125 30.9772 197.641 30.5357 198.256 30.0272C198.913 29.4849 199.697 28.8546 200.533 28.1826C201.261 27.5983 202.027 26.9824 202.782 26.3658C204.416 25.0316 206.012 23.6824 207.123 22.5821C207.681 22.0296 208.101 21.5548 208.344 21.1856C208.467 20.9992 208.529 20.8617 208.551 20.77C208.556 20.7463 208.559 20.7296 208.559 20.7183C208.544 20.7147 208.518 20.7111 208.476 20.7118C208.365 20.7137 208.201 20.7464 207.977 20.8236C207.533 20.977 206.94 21.2752 206.238 21.6852C204.839 22.5024 203.073 23.7242 201.32 24.9871C200.269 25.7446 199.232 26.5101 198.284 27.2095C197.649 27.6782 197.054 28.1173 196.522 28.5045C195.863 28.9838 195.301 29.3832 194.889 29.6523C194.684 29.7859 194.507 29.8937 194.369 29.9634C194.302 29.9972 194.229 30.0298 194.159 30.0492C194.124 30.0588 194.074 30.0698 194.017 30.0694C193.963 30.0691 193.862 30.0581 193.77 29.9813C193.579 29.8229 193.64 29.6019 193.659 29.5463C193.685 29.4704 193.73 29.4026 193.766 29.3526C193.843 29.246 193.961 29.1172 194.1 28.9763C194.383 28.6902 194.805 28.3065 195.312 27.8615C196.027 27.2338 196.926 26.4712 197.873 25.6677C198.271 25.3306 198.677 24.9862 199.082 24.6416C200.454 23.4724 201.809 22.3 202.773 21.3799C203.257 20.9181 203.631 20.5303 203.86 20.2435C203.977 20.097 204.039 19.9968 204.064 19.9387C204.069 19.9271 204.071 19.9209 204.071 19.9195C204.071 19.9213 204.069 19.9301 204.069 19.9446ZM208.578 20.7248C208.577 20.7249 208.577 20.7245 208.575 20.7235C208.577 20.7243 208.578 20.7248 208.578 20.7248ZM208.559 20.7026C208.558 20.7001 208.558 20.6985 208.558 20.6984C208.558 20.6983 208.559 20.6995 208.559 20.7026Z" fill="#222222"/>
<path fill-rule="evenodd" clip-rule="evenodd" d="M188.744 63.9261C188.745 63.9263 188.745 63.9264 188.406 63.9921C188.154 64.2262 188.153 64.2261 188.153 64.226L188.09 64.1582C188.048 64.113 187.986 64.046 187.904 63.9585C187.74 63.7835 187.499 63.5266 187.188 63.1994C186.568 62.5451 185.674 61.61 184.577 60.4872C182.383 58.2415 179.382 55.2466 176.149 52.2481C172.915 49.2484 169.455 46.2512 166.345 43.9973C164.79 42.8701 163.329 41.9341 162.032 41.2768C160.727 40.6157 159.623 40.2543 158.771 40.2383L158.784 39.5494C159.793 39.5684 161.01 39.9864 162.343 40.6622C163.685 41.342 165.178 42.3007 166.749 43.4393C169.892 45.717 173.375 48.7356 176.618 51.7429C179.861 54.7515 182.871 57.755 185.07 60.0057C186.17 61.1313 187.066 62.069 187.689 62.7254C187.739 62.7781 187.787 62.829 187.833 62.878C187.716 62.297 187.557 61.523 187.365 60.6048C186.923 58.4977 186.303 55.632 185.585 52.5964C184.867 49.5602 184.053 46.3574 183.225 43.5752C182.395 40.7832 181.56 38.4457 180.805 37.1196L181.404 36.7788C182.202 38.1813 183.056 40.5886 183.886 43.3788C184.719 46.1787 185.536 49.3956 186.255 52.4379C186.975 55.4809 187.597 58.3526 188.039 60.4634C188.261 61.5189 188.437 62.3844 188.558 62.9861C188.618 63.2869 188.665 63.5218 188.696 63.6816C188.706 63.729 188.714 63.7698 188.721 63.8037C188.725 63.827 188.729 63.8471 188.732 63.8638L188.744 63.9253L188.744 63.9261ZM188.406 63.9921L188.154 64.2262L188.745 63.9264L188.406 63.9921Z" fill="#222222"/>
<path fill-rule="evenodd" clip-rule="evenodd" d="M203.81 20.0699C203.598 20.1128 203.285 20.2167 202.836 20.4186C201.015 21.2382 199.893 21.9677 199.576 22.2138L199.571 22.2179L199.566 22.2218C197.936 23.3915 195.427 25.135 193.197 26.5643C192.083 27.2785 191.033 27.9178 190.194 28.3682C189.776 28.593 189.403 28.7748 189.097 28.8954C188.944 28.9557 188.8 29.0035 188.672 29.0331C188.55 29.0611 188.41 29.0805 188.278 29.0565C187.582 28.9298 187.274 28.3884 187.165 27.8733C187.058 27.3729 187.115 26.8266 187.197 26.4702C187.227 26.2867 187.339 25.914 187.562 25.3349C187.797 24.7264 188.164 23.8661 188.718 22.7115C188.99 22.1454 189.11 21.7831 189.143 21.5669C189.146 21.5467 189.148 21.5286 189.149 21.5125C189.118 21.523 189.082 21.5377 189.04 21.5574C188.893 21.6264 188.724 21.7365 188.568 21.8564C187.309 23.1187 184.292 26.5269 182.207 30.1525C180.141 33.7455 180.874 36.1151 181.379 36.7773L180.831 37.1949C180.11 36.2493 179.45 33.5659 181.61 29.809C183.743 26.0996 186.819 22.6305 188.096 21.3537L188.111 21.3386L188.128 21.3254C188.312 21.1823 188.533 21.0346 188.747 20.9339C188.853 20.8837 188.97 20.8397 189.087 20.8174C189.201 20.7959 189.348 20.7885 189.492 20.8499C189.652 20.9182 189.757 21.0501 189.806 21.2079C189.851 21.3517 189.848 21.5114 189.824 21.6709C189.775 21.9906 189.619 22.4274 189.34 23.0097C188.791 24.1519 188.431 24.9951 188.205 25.5828C187.974 26.1821 187.89 26.4934 187.877 26.5842L187.875 26.5995L187.871 26.6144C187.802 26.9092 187.759 27.3545 187.839 27.73C187.917 28.0972 188.087 28.3214 188.401 28.3785C188.401 28.3784 188.401 28.3784 188.402 28.3784C188.409 28.3784 188.443 28.3787 188.517 28.3616C188.6 28.3425 188.709 28.3075 188.844 28.2543C189.114 28.1481 189.46 27.9806 189.868 27.7612C190.683 27.3233 191.716 26.695 192.825 25.9842C195.039 24.5651 197.534 22.8311 199.159 21.6657C199.537 21.3728 200.709 20.6204 202.554 19.7902C203.024 19.5787 203.39 19.452 203.673 19.3946C203.937 19.3409 204.205 19.3315 204.411 19.4573C204.664 19.612 204.694 19.8763 204.667 20.0562C204.64 20.229 204.558 20.3944 204.479 20.5191L203.897 20.1491C203.921 20.1126 203.939 20.0785 203.953 20.0485C203.917 20.0515 203.869 20.0578 203.81 20.0699Z" fill="#222222"/>
<path fill-rule="evenodd" clip-rule="evenodd" d="M197.827 36.6435C197.827 36.6433 197.827 36.6431 198.163 36.5705C198.5 36.4978 198.5 36.4979 198.5 36.4983L198.506 36.5267C198.51 36.5457 198.516 36.5741 198.524 36.6114C198.54 36.6861 198.564 36.7969 198.594 36.9415C198.655 37.2306 198.743 37.655 198.853 38.1964C199.073 39.2792 199.38 40.8304 199.73 42.7046C200.429 46.4525 201.297 51.4946 201.973 56.6681C202.649 61.8386 203.135 67.1529 203.066 71.4406C203.031 73.5833 202.858 75.4851 202.494 76.9905C202.133 78.4798 201.568 79.6563 200.69 80.2498C199.279 81.2028 197.507 81.5865 195.518 81.5542C193.528 81.5218 191.299 81.0732 188.947 80.3375C184.243 78.8663 178.994 76.2292 174.096 73.3767C169.194 70.5224 164.629 67.4435 161.29 65.0791C159.62 63.8966 158.257 62.8923 157.31 62.1834C156.837 61.829 156.468 61.5483 156.217 61.3561C156.091 61.26 155.995 61.1861 155.931 61.136C155.898 61.111 155.874 61.092 155.857 61.0792L155.833 61.06C155.832 61.0597 155.832 61.0596 156.044 60.7881C156.256 60.5165 156.256 60.5166 156.257 60.5168L156.28 60.5352C156.296 60.5477 156.32 60.5664 156.352 60.591C156.416 60.6404 156.511 60.7137 156.636 60.8091C156.885 60.9999 157.252 61.279 157.723 61.6319C158.666 62.3377 160.024 63.3383 161.688 64.5167C165.017 66.874 169.564 69.9406 174.442 72.7813C179.323 75.6238 184.521 78.2313 189.152 79.6799C191.468 80.4041 193.628 80.8343 195.529 80.8652C197.429 80.8961 199.047 80.5277 200.304 79.6788C200.96 79.236 201.473 78.279 201.824 76.8284C202.171 75.3939 202.343 73.5493 202.377 71.4295C202.445 67.1922 201.965 61.9171 201.29 56.7574C200.616 51.6006 199.75 46.5716 199.052 42.8309C198.704 40.9608 198.397 39.4133 198.178 38.3336C198.068 37.7937 197.98 37.3708 197.92 37.083C197.89 36.9391 197.866 36.829 197.85 36.7549C197.843 36.7179 197.837 36.6899 197.833 36.6711L197.827 36.6435Z" fill="#222222"/>
<path fill-rule="evenodd" clip-rule="evenodd" d="M78.1039 15.9407C78.0748 15.9103 78.045 15.8794 78.0146 15.8479C77.6892 15.5113 77.3123 15.1369 76.9073 14.7345C76.5227 14.3524 76.1127 13.9451 75.6974 13.5211C74.8633 12.6695 74.0375 11.7795 73.4928 11.0186C73.2222 10.6408 73.0042 10.2721 72.8965 9.94085C72.7913 9.61733 72.7627 9.22794 73.0399 8.93647L73.0401 8.93629C73.1994 8.76904 73.4096 8.71391 73.6071 8.7141C73.7994 8.71428 74.0061 8.76561 74.2125 8.84109C74.6267 8.99256 75.1285 9.27514 75.6785 9.63095C76.7424 10.3192 78.0626 11.3326 79.4145 12.3702C79.4659 12.4096 79.5173 12.4491 79.5687 12.4885C80.9816 13.5728 82.4233 14.674 83.6705 15.4819C84.2942 15.8859 84.859 16.2097 85.3396 16.4205C85.8332 16.637 86.1857 16.7102 86.4065 16.6788C86.5455 16.6589 86.6378 16.5932 86.7127 16.4659C86.7972 16.3222 86.857 16.1 86.8831 15.7914C86.9354 15.174 86.8444 14.3584 86.7376 13.5049C86.7287 13.4339 86.7197 13.3626 86.7107 13.2912C86.6142 12.5274 86.5155 11.7469 86.536 11.142C86.5471 10.814 86.5935 10.4892 86.7271 10.2355C86.7966 10.1034 86.8943 9.98176 87.0302 9.89346C87.1677 9.80411 87.3247 9.76178 87.4909 9.75959C87.8428 9.75497 88.193 9.96968 88.5005 10.2319C88.8235 10.5073 89.1674 10.8949 89.5146 11.3546C90.2103 12.276 90.9499 13.5287 91.593 14.8708C92.2362 16.213 92.7896 17.6588 93.1061 18.9685C93.4179 20.2592 93.5177 21.4885 93.174 22.352L93.1738 22.3526C92.5289 23.9643 89.3883 30.6315 86.4184 36.8769C84.9315 40.0038 83.4845 43.0308 82.4094 45.2759C81.8718 46.3985 81.4271 47.3257 81.1168 47.9722C81.0546 48.1018 80.9979 48.2201 80.9468 48.3265L96.5729 44.4815L96.7375 45.1506L80.4024 49.17L80.0096 48.6862L80.3201 48.8355C80.0096 48.6862 80.0097 48.6861 80.0097 48.6859L80.1363 48.4226C80.219 48.2503 80.3405 47.9973 80.4956 47.6741C80.8058 47.0277 81.2504 46.1007 81.7879 44.9783C82.8629 42.7335 84.3096 39.7072 85.7961 36.581C88.7729 30.321 91.8989 23.6836 92.5338 22.0972C92.793 21.4459 92.743 20.3999 92.4363 19.1303C92.1342 17.8799 91.6003 16.4806 90.9716 15.1685C90.3428 13.8563 89.6259 12.6455 88.9647 11.7698C88.6333 11.331 88.3236 10.9866 88.0534 10.7562C87.7677 10.5125 87.585 10.4475 87.4999 10.4486C87.4476 10.4493 87.4211 10.4612 87.4056 10.4713C87.3886 10.4824 87.3638 10.5052 87.3368 10.5565C87.2774 10.6694 87.2348 10.8665 87.2247 11.1653C87.2062 11.7117 87.2975 12.4363 87.3963 13.2205C87.4046 13.2864 87.4129 13.3527 87.4213 13.4193C87.526 14.2557 87.6293 15.1466 87.5697 15.8496C87.5399 16.201 87.4672 16.5424 87.3066 16.8153C87.1364 17.1045 86.871 17.3085 86.5037 17.361C86.0826 17.4209 85.5794 17.2781 85.0628 17.0515C84.5333 16.8193 83.9331 16.473 83.2959 16.0602C82.0212 15.2345 80.5568 14.1154 79.1492 13.0352C79.1025 12.9994 79.0559 12.9636 79.0094 12.9279C77.645 11.8807 76.3441 10.8823 75.3042 10.2095C74.7643 9.86019 74.3151 9.6123 73.9759 9.48823C73.8055 9.42593 73.6848 9.40322 73.6065 9.40315C73.5634 9.40311 73.5444 9.40946 73.538 9.41267C73.5227 9.42957 73.4766 9.49652 73.5518 9.72779C73.6266 9.95783 73.7957 10.2582 74.053 10.6175C74.564 11.3311 75.3563 12.1881 76.1897 13.039C76.584 13.4415 76.995 13.8501 77.3844 14.2372C77.7998 14.6502 78.1906 15.0386 78.51 15.369C78.8241 15.6939 79.091 15.9845 79.2689 16.2147C79.3562 16.3276 79.4349 16.4422 79.4848 16.549C79.5096 16.602 79.536 16.6711 79.545 16.7487C79.5543 16.8281 79.5479 16.9464 79.4682 17.0554C79.3416 17.2287 79.1463 17.2195 79.0873 17.2137C79.0067 17.2058 78.9272 17.1801 78.8617 17.1548C78.7254 17.1023 78.5549 17.0141 78.364 16.9051C77.9776 16.6844 77.4521 16.3462 76.8379 15.9375C76.2919 15.5742 75.6696 15.1509 75.0041 14.6982C74.919 14.6403 74.8332 14.582 74.7468 14.5232C73.9835 14.0042 73.1694 13.4518 72.3481 12.9074C70.7027 11.8167 69.0399 10.7654 67.7096 10.0805C67.042 9.73679 66.4764 9.49504 66.0478 9.38266C65.8328 9.3263 65.6722 9.30796 65.5605 9.31544C65.4878 9.32031 65.4513 9.33463 65.4339 9.34486C65.4347 9.35429 65.4368 9.36838 65.4416 9.38832C65.4627 9.47502 65.5237 9.60787 65.6456 9.79059C65.8868 10.152 66.3046 10.6192 66.8593 11.1649C67.9639 12.2514 69.549 13.5892 71.1665 14.9173C71.7143 15.3671 72.2661 15.8159 72.8031 16.2527C73.8454 17.1005 74.8319 17.903 75.6256 18.579C76.2264 19.0908 76.7276 19.5391 77.0634 19.8861C77.2293 20.0574 77.3684 20.2178 77.4584 20.3574C77.5024 20.4257 77.5479 20.5089 77.5715 20.5997C77.5948 20.6893 77.61 20.8444 77.5051 20.9854C77.4221 21.097 77.3073 21.144 77.2175 21.1623C77.1302 21.1801 77.0431 21.1764 76.9691 21.167C76.8207 21.1482 76.6474 21.0959 76.4656 21.0281C76.0968 20.8907 75.6126 20.6588 75.0604 20.3723C74.2125 19.9326 73.1719 19.3471 72.0866 18.7365C71.7549 18.5499 71.419 18.3609 71.0832 18.173C69.6417 17.3666 68.2001 16.5796 67.061 16.063C66.4893 15.8038 66.0107 15.6205 65.6545 15.5341C65.4753 15.4907 65.3465 15.4767 65.2618 15.4811C65.2507 15.4817 65.2412 15.4826 65.233 15.4835C65.2341 15.4891 65.2353 15.4952 65.2369 15.5021C65.2572 15.5892 65.3149 15.7219 65.4282 15.9036C65.6524 16.2631 66.0403 16.7308 66.5555 17.2766C67.5814 18.3634 69.0584 19.7035 70.5787 21.0123C72.097 22.3192 73.6504 23.5879 74.8248 24.5303C75.4119 25.0013 75.9039 25.3906 76.2491 25.662C76.4217 25.7977 76.5575 25.9039 76.6501 25.9762C76.6965 26.0123 76.732 26.0399 76.7559 26.0585L76.7897 26.0848L76.7914 26.0861L76.7918 26.0864C76.7919 26.0864 76.7919 26.0865 76.5809 26.3589C76.87 26.5464 76.8699 26.5465 76.8697 26.5467L76.8526 26.5731C76.8472 26.5816 76.8404 26.592 76.8324 26.6044C76.8235 26.6182 76.813 26.6345 76.801 26.6532C76.7553 26.7239 76.6877 26.8291 76.5997 26.9665C76.4236 27.2414 76.1662 27.6453 75.8408 28.1609C75.1902 29.192 74.268 30.6698 73.1826 32.4554C71.0114 36.0271 68.1885 40.8281 65.5789 45.7492C62.9672 50.6742 60.5774 55.7042 59.2645 59.738C58.607 61.7579 58.2281 63.503 58.2151 64.8492C58.202 66.2059 58.5575 67.0528 59.2436 67.4464C60.0263 67.8955 61.2151 68.1658 62.7367 68.2722C64.2499 68.3781 66.0556 68.3197 68.045 68.1389C72.0232 67.7775 76.701 66.9305 81.1764 65.9593C85.6499 64.9885 89.9123 63.8956 93.0569 63.0452C94.629 62.62 95.9212 62.2556 96.8202 61.9976C97.2697 61.8685 97.6209 61.7661 97.8595 61.696C97.9788 61.6609 98.07 61.6339 98.1313 61.6157L98.2006 61.5951L98.2223 61.5886L98.2234 61.5883C98.2236 61.5882 98.2237 61.5882 98.3227 61.9182C98.4217 62.2482 98.4215 62.2482 98.4212 62.2483L98.4201 62.2487L98.3275 62.2762C98.2846 62.289 98.2272 62.306 98.1561 62.327C98.1247 62.3362 98.0905 62.3463 98.0538 62.3571C97.8138 62.4276 97.4613 62.5304 97.0103 62.6599C96.1084 62.9188 94.8127 63.2841 93.2368 63.7103C90.0852 64.5626 85.811 65.6586 81.3226 66.6326C76.836 67.6063 72.1266 68.46 68.1073 68.8252C66.098 69.0077 64.2523 69.069 62.6886 68.9596C61.1333 68.8509 59.8194 68.5712 58.9007 68.0441C57.8855 67.4616 57.5121 66.283 57.5261 64.8426C57.5401 63.3917 57.9442 61.5679 58.6092 59.5248C59.9412 55.4325 62.3539 50.36 64.9701 45.4264C67.5883 40.4891 70.4187 35.6756 72.5938 32.0974C73.6815 30.3081 74.6057 28.8271 75.2581 27.7932C75.5843 27.2762 75.8426 26.871 76.0194 26.5949C76.0569 26.5364 76.0907 26.4837 76.1207 26.437C76.0394 26.3734 75.9396 26.2952 75.8232 26.2036C75.4765 25.9311 74.9827 25.5404 74.3936 25.0677C73.2157 24.1226 71.6556 22.8485 70.1292 21.5345C68.6048 20.2222 67.1057 18.8632 66.0544 17.7496C65.531 17.1951 65.1049 16.6873 64.8435 16.2681C64.7141 16.0605 64.6111 15.853 64.5658 15.6582C64.5206 15.4639 64.5206 15.2184 64.6931 15.0219C64.8412 14.8531 65.0498 14.8023 65.2257 14.793C65.4055 14.7836 65.6079 14.8138 65.8169 14.8645C66.2372 14.9664 66.7631 15.1713 67.3456 15.4355C68.5149 15.9658 69.9806 16.7666 71.4196 17.5717C71.7602 17.7622 72.0992 17.9529 72.4328 18.1406C73.5155 18.7498 74.5412 19.3269 75.3776 19.7607C75.8225 19.9914 76.2047 20.1768 76.5079 20.3037C76.1966 19.9896 75.7401 19.5817 75.1788 19.1036C74.3908 18.4325 73.4151 17.6388 72.3772 16.7946C71.8388 16.3566 71.2837 15.905 70.7293 15.4499C69.113 14.1228 67.5055 12.767 66.3761 11.6561C65.8138 11.103 65.3543 10.5955 65.0725 10.173C64.9329 9.96381 64.821 9.75244 64.772 9.55098C64.722 9.34507 64.7279 9.09557 64.9067 8.89585C65.0709 8.71255 65.2969 8.64249 65.5144 8.62793C65.7304 8.61347 65.972 8.65045 66.2225 8.71614C66.7251 8.84789 67.3441 9.11728 68.025 9.46786C69.3918 10.1715 71.0818 11.2413 72.7288 12.3331C73.5538 12.88 74.3709 13.4343 75.1342 13.9534C75.2208 14.0123 75.3067 14.0707 75.3919 14.1286C76.0579 14.5816 76.6769 15.0027 77.2197 15.3639C77.5462 15.5812 77.8429 15.7753 78.1039 15.9407ZM76.5809 26.3589L76.87 26.5464L76.7918 26.0864L76.5809 26.3589ZM65.2295 15.4414C65.2296 15.4415 65.2295 15.4427 65.229 15.4447C65.2292 15.4424 65.2294 15.4414 65.2295 15.4414ZM65.4342 9.32888C65.4344 9.32899 65.4343 9.33041 65.4336 9.33281C65.4338 9.32997 65.4341 9.32877 65.4342 9.32888ZM73.5353 9.41447C73.5352 9.41438 73.5359 9.41373 73.5378 9.41279C73.5363 9.41409 73.5354 9.41456 73.5353 9.41447Z" fill="#222222"/>
<path d="M81.2963 117.915L91.4575 107.751V128.076L81.2963 117.915Z" fill="white"/>
<path d="M91.1152 108.583V127.244L81.7855 117.915L91.1175 108.583H91.1152ZM91.8066 106.92L80.8117 117.915L91.8066 128.907V106.92Z" fill="#222222"/>
<path d="M182.85 107.751L193.011 117.915L182.85 128.076V107.751Z" fill="white"/>
<path d="M183.195 108.583L192.525 117.915L183.195 127.244V108.583ZM182.506 106.92V128.907L193.501 117.915L182.506 106.92Z" fill="#222222"/>
<path d="M63.6061 215.229H31.8042L39.154 164.63L31.8042 139.893L24.4543 164.63L31.8042 215.229H0C0 215.229 2.83662 207.032 8.76933 205.759C8.76933 205.759 0.56733 177.492 0.989946 166.183C1.41256 154.873 13.5697 114.169 13.5697 114.169H50.0364C50.0364 114.169 62.1912 154.875 62.6161 166.183C63.041 177.49 54.839 205.759 54.839 205.759C60.7695 207.032 63.6061 215.229 63.6061 215.229Z" fill="#F0438C"/>
<path d="M220.144 215.229H257.881C257.881 215.229 253.641 209.152 250.814 208.727L254.144 134.606C254.624 123.889 246.326 114.812 235.611 114.329C235.321 114.316 235.03 114.311 234.74 114.311C224.014 114.309 215.316 123.002 215.316 133.731C215.316 134.767 215.399 135.798 215.562 136.82L226.929 207.597C226.927 207.597 221.414 210.847 220.144 215.229Z" fill="#BFBFBF"/>
<path fill-rule="evenodd" clip-rule="evenodd" d="M237.873 133.382L239.993 215.22L239.304 215.238L237.184 133.4L237.873 133.382Z" fill="white"/>
<path fill-rule="evenodd" clip-rule="evenodd" d="M241.194 78.2598C241.252 76.8353 241.317 75.3023 241.415 73.7463L241.874 73.7751C241.776 75.3256 241.711 76.8542 241.653 78.2787C241.648 78.3841 241.644 78.4888 241.64 78.593C241.586 79.8966 241.536 81.1071 241.47 82.1546C241.398 83.2833 241.307 84.2351 241.167 84.9158C241.098 85.2546 241.013 85.5416 240.905 85.7534C240.802 85.956 240.645 86.1519 240.4 86.1824L240.4 86.1825C239.778 86.2585 239.136 85.8786 238.531 85.3755C237.956 84.8964 237.358 84.2551 236.771 83.6265C236.73 83.582 236.688 83.5375 236.647 83.4932C236.013 82.8153 235.397 82.1668 234.815 81.7242C234.222 81.2731 233.735 81.0899 233.338 81.2087C232.886 81.3443 232.424 81.6933 231.964 82.2194C231.505 82.7429 231.064 83.424 230.648 84.1933C229.816 85.7317 229.1 87.5946 228.563 89.1839L228.128 89.0369C228.668 87.4381 229.393 85.5469 230.244 83.9748C230.669 83.1888 231.129 82.4755 231.618 81.9169C232.105 81.3608 232.636 80.9398 233.207 80.7687C233.833 80.5809 234.486 80.8967 235.094 81.3587C235.712 81.8291 236.355 82.5078 236.982 83.1796C237.022 83.2219 237.061 83.2641 237.101 83.3062C237.694 83.942 238.273 84.5627 238.825 85.0224C239.426 85.5225 239.932 85.7768 240.344 85.7265L240.372 85.9545L240.344 85.7266C240.352 85.7255 240.412 85.7109 240.496 85.5448C240.576 85.3879 240.651 85.1484 240.717 84.8234C240.85 84.1767 240.94 83.2528 241.012 82.1255C241.078 81.0834 241.127 79.878 241.181 78.5727C241.185 78.469 241.189 78.3647 241.194 78.2598Z" fill="white"/>
<path fill-rule="evenodd" clip-rule="evenodd" d="M251.732 60.828C253.679 62.354 255.725 64.6253 257.646 67.0731L257.285 67.3566C255.372 64.9191 253.353 62.6817 251.449 61.1896C250.497 60.4435 249.583 59.8912 248.734 59.5904C247.887 59.29 247.117 59.2447 246.438 59.4906L246.438 59.4907C245.143 59.9587 244.191 61.3461 243.497 63.3486L243.063 63.1983C243.766 61.1677 244.78 59.6014 246.282 59.0587M251.732 60.828C250.759 60.065 249.801 59.481 248.888 59.1574L251.732 60.828ZM248.888 59.1574C247.973 58.8333 247.09 58.7661 246.282 59.0586L248.888 59.1574Z" fill="white"/>
<path fill-rule="evenodd" clip-rule="evenodd" d="M23.364 50.1688C23.5358 51.0848 23.539 51.9333 23.236 52.5801L23.236 52.5802C22.9582 53.1724 22.2871 53.4494 21.5376 53.5948C20.7743 53.743 19.8393 53.771 18.9199 53.7919C18.8607 53.7932 18.8015 53.7945 18.7424 53.7959C17.8743 53.8152 17.0271 53.834 16.318 53.9393C15.9405 53.9953 15.6133 54.0745 15.3498 54.1858C15.0863 54.297 14.8999 54.4347 14.7852 54.6003C14.7802 54.6075 14.7508 54.6634 14.8226 54.8436C14.8901 55.0132 15.0255 55.2351 15.2317 55.5093C15.6422 56.0549 16.295 56.7583 17.1147 57.5859C17.8307 58.3089 18.6673 59.1199 19.5702 59.9951C19.6988 60.1199 19.8288 60.2459 19.96 60.3732C21.011 61.3926 22.1367 62.49 23.2516 63.6254C25.4793 65.894 27.6738 68.3245 29.1481 70.6025C29.8854 71.7416 30.4488 72.8521 30.7437 73.8927C31.0387 74.9339 31.069 75.921 30.7174 76.7975C30.196 78.0983 28.8313 78.9102 27.0508 79.398C25.2608 79.8884 22.9894 80.0689 20.5534 80.0585L20.5553 79.5992C22.9748 79.6095 25.1982 79.4293 26.9294 78.955C28.6699 78.4781 29.8523 77.7213 30.291 76.6265L30.291 76.6265C30.5929 75.8739 30.5792 74.9974 30.3017 74.0179C30.024 73.0378 29.4863 71.9705 28.7625 70.8521C27.3146 68.615 25.1475 66.2117 22.9239 63.9472C21.8132 62.8161 20.6909 61.7221 19.6402 60.7029C19.5091 60.5758 19.3792 60.4498 19.2505 60.325C18.3482 59.4503 17.5079 58.6357 16.7883 57.9092C15.9678 57.0808 15.2955 56.3582 14.8646 55.7854C14.6502 55.5003 14.4859 55.2398 14.3958 55.0136C14.3099 54.7979 14.265 54.5446 14.4076 54.3388C14.588 54.0783 14.8581 53.8948 15.1711 53.7626C15.484 53.6304 15.8532 53.5439 16.2506 53.4849C16.9895 53.3752 17.8647 53.3558 18.7232 53.3368C18.7854 53.3354 18.8475 53.334 18.9095 53.3326C19.8371 53.3116 20.7319 53.2833 21.4501 53.1439C22.1821 53.0018 22.6443 52.76 22.8201 52.3852C23.0614 51.8698 23.0784 51.1381 22.9125 50.2534C22.7479 49.3755 22.4101 48.3817 21.9826 47.3672L22.406 47.1889C22.8398 48.2186 23.191 49.246 23.364 50.1688Z" fill="white"/>
<path fill-rule="evenodd" clip-rule="evenodd" d="M217.458 52.5445C220.056 56.0839 223.437 60.4043 226.229 63.0064L225.916 63.3425C223.089 60.7078 219.686 56.3557 217.088 52.8163L217.458 52.5445Z" fill="white"/>
<path fill-rule="evenodd" clip-rule="evenodd" d="M238.872 51.1952C239.054 49.5473 239.012 47.3779 238.841 45.0325L239.299 44.9991C239.47 47.3531 239.515 49.5557 239.328 51.2457C239.235 52.0898 239.082 52.8192 238.852 53.3794C238.623 53.9353 238.3 54.3637 237.842 54.5374L237.842 54.5375C237.086 54.8233 236.139 54.5653 235.199 54.0968C234.246 53.6213 233.236 52.8965 232.318 52.1482C231.398 51.3985 230.563 50.6183 229.958 50.0263C229.887 49.9569 229.819 49.89 229.755 49.8261C229.942 50.3322 230.179 50.9991 230.433 51.7734C231.017 53.5481 231.695 55.8939 232.064 58.1651L231.61 58.2388C231.247 56.0013 230.577 53.6811 229.997 51.917C229.707 51.0357 229.44 50.2948 229.246 49.7745C229.148 49.5143 229.069 49.3094 229.015 49.1697C228.987 49.0999 228.966 49.0464 228.952 49.0104C228.945 48.9924 228.939 48.9788 228.936 48.9698L228.931 48.9597L228.93 48.9566L229.143 48.87C229.311 48.7138 229.311 48.7138 229.311 48.7138L229.315 48.7181L229.328 48.7315C229.339 48.7434 229.356 48.7611 229.378 48.7843C229.421 48.8307 229.486 48.8989 229.57 48.9855C229.738 49.1586 229.98 49.4051 230.279 49.698C230.878 50.2841 231.703 51.054 232.608 51.7921C233.515 52.5316 234.495 53.2322 235.404 53.6857C236.327 54.146 237.117 54.3204 237.679 54.1079C237.963 54.0002 238.218 53.7121 238.427 53.2045C238.634 52.7012 238.78 52.0201 238.872 51.1952ZM229.143 48.87L229.311 48.7138C229.236 48.6325 229.113 48.6166 229.02 48.6762C228.926 48.7358 228.888 48.8539 228.93 48.9566L229.143 48.87Z" fill="white"/>
<path fill-rule="evenodd" clip-rule="evenodd" d="M217.103 82.1691C217.621 73.7192 214.65 65.982 212.498 61.5896L212.911 61.3875C215.077 65.8104 218.087 73.6322 217.562 82.1972L217.103 82.1691Z" fill="white"/>
<path fill-rule="evenodd" clip-rule="evenodd" d="M37.3771 65.2991C37.098 65.7097 36.9884 66.2605 37.2172 67.0299C37.7049 68.6705 39.0241 70.8603 40.5044 72.9555C41.9776 75.0407 43.5831 76.9946 44.6096 78.1541L44.0936 78.6109C43.053 77.4353 41.4314 75.4617 39.9417 73.3532C38.4592 71.2548 37.0795 68.9849 36.5567 67.2262C36.2801 66.2959 36.3916 65.5232 36.8073 64.9117C37.2124 64.3157 37.8737 63.9218 38.6033 63.6625C40.0604 63.1447 41.9492 63.108 43.2344 63.2248L43.254 63.2266L43.2732 63.2306C44.2947 63.4426 45.951 63.8293 47.6072 64.3018C49.2548 64.7719 50.9339 65.3355 51.9813 65.9068L51.6514 66.5117C50.6776 65.9806 49.0645 65.4341 47.4181 64.9644C45.7907 64.5001 44.1615 64.1193 43.1525 63.9093C41.9122 63.7987 40.1492 63.8444 38.834 64.3118C38.174 64.5463 37.6668 64.873 37.3771 65.2991Z" fill="white"/>
</svg>
