<svg width="315" height="240" viewBox="0 0 315 240" fill="none" xmlns="http://www.w3.org/2000/svg">
<path d="M193.295 144.704L194.443 165.22L208.212 155.45C208.212 155.45 214.234 161.286 213.956 161.379C213.678 161.472 183.173 183.031 183.173 183.031L193.295 144.704Z" fill="#001A39"/>
<path d="M298.405 198.828L314.188 213.683L281.194 240L299.802 211.527L289.228 201.481" fill="#001A39"/>
<path d="M268.502 64.1861C268.231 69.0566 271.959 73.2249 276.832 73.4958C281.138 73.7352 284.895 70.8494 285.896 66.8099C286.027 66.2793 286.11 65.7306 286.142 65.1661C286.413 60.2956 282.685 56.1273 277.812 55.8564C275.279 55.7164 272.935 56.6557 271.232 58.2792C269.658 59.7762 268.633 61.8513 268.502 64.1861Z" fill="#F96155"/>
<path d="M269.787 54.646C269.674 56.6692 271.223 58.4011 273.246 58.5117C275.035 58.6111 276.595 57.4121 277.01 55.7344C277.065 55.5131 277.099 55.2873 277.112 55.0525C277.225 53.0293 275.676 51.2975 273.653 51.1868C272.601 51.1281 271.628 51.5187 270.918 52.1939C270.27 52.8148 269.841 53.6774 269.787 54.646Z" fill="#001A39"/>
<path d="M275.917 53.9552C275.85 55.188 276.794 56.2425 278.024 56.3102C279.115 56.3712 280.065 55.6396 280.318 54.619C280.352 54.4858 280.373 54.3458 280.382 54.2035C280.449 52.9706 279.506 51.9162 278.275 51.8484C277.634 51.8123 277.04 52.0516 276.609 52.4603C276.209 52.8374 275.949 53.3636 275.917 53.9552Z" fill="#001A39"/>
<path fill-rule="evenodd" clip-rule="evenodd" d="M267.335 68.2656C267.335 68.2656 267.335 68.2656 267.36 67.8147C267.385 67.3638 267.385 67.3638 267.385 67.3637L267.384 67.3637L267.384 67.3637C267.385 67.3638 267.388 67.3639 267.393 67.364C267.402 67.3642 267.417 67.3645 267.438 67.3643C267.479 67.3641 267.542 67.3622 267.619 67.3554C267.774 67.3418 267.981 67.3091 268.194 67.2351C268.613 67.0899 269.027 66.8008 269.173 66.1763L270.053 66.3822C269.815 67.3969 269.103 67.8756 268.491 68.0883C268.188 68.1933 267.904 68.237 267.697 68.2552C267.593 68.2643 267.506 68.2671 267.444 68.2675C267.413 68.2677 267.388 68.2674 267.369 68.2669C267.36 68.2666 267.352 68.2664 267.347 68.2661L267.339 68.2658L267.337 68.2657L267.336 68.2656L267.335 68.2656ZM267.384 67.3637C267.383 67.3637 267.383 67.3637 267.383 67.3637L267.384 67.3637L267.384 67.3637Z" fill="#001A39"/>
<path d="M272.655 64.7932C272.702 63.9539 272.312 63.2497 271.784 63.2204C271.256 63.191 270.79 63.8476 270.743 64.6869C270.697 65.5261 271.087 66.2303 271.615 66.2597C272.143 66.289 272.608 65.6324 272.655 64.7932Z" fill="#001A39"/>
<path d="M282.935 64.9876C282.836 66.7578 284.191 68.2707 285.961 68.3678C287.526 68.4536 288.89 67.4059 289.253 65.9404C289.301 65.7485 289.332 65.5498 289.343 65.3444C289.443 63.5763 288.088 62.0612 286.318 61.9641C285.397 61.9122 284.545 62.2554 283.926 62.8447C283.357 63.3867 282.983 64.1386 282.935 64.9876Z" fill="#F96155"/>
<path d="M271.65 58.0647C271.65 58.0647 274.669 60.2324 280.391 59.5143L280.488 64.85L283.978 64.2787C283.978 64.2787 285.042 61.2598 287.948 62.5152C287.948 62.5152 288.533 56.4706 285.042 55.0819C278.945 52.6568 273.291 55.0909 271.65 58.0647Z" fill="#001A39"/>
<path fill-rule="evenodd" clip-rule="evenodd" d="M191.69 162.008L196.698 156.566L197.362 157.178L192.354 162.62L191.69 162.008Z" fill="white"/>
<path fill-rule="evenodd" clip-rule="evenodd" d="M191.441 158.6L196.45 153.159L197.114 153.77L192.106 159.212L191.441 158.6Z" fill="white"/>
<path fill-rule="evenodd" clip-rule="evenodd" d="M291.919 217.644L299.276 218.416L299.182 219.315L291.825 218.542L291.919 217.644Z" fill="white"/>
<path fill-rule="evenodd" clip-rule="evenodd" d="M289.777 220.34L297.131 221.11L297.037 222.008L289.683 221.238L289.777 220.34Z" fill="white"/>
<path fill-rule="evenodd" clip-rule="evenodd" d="M294.058 214.95L301.414 215.72L301.32 216.619L293.964 215.849L294.058 214.95Z" fill="white"/>
<path d="M298.161 104.694C294.968 110.227 287.894 112.121 282.362 108.928L259.073 95.4818C253.541 92.289 251.646 85.2147 254.839 79.6827C258.032 74.1506 265.106 72.2561 270.638 75.4489L293.927 88.8953C299.459 92.0881 301.356 99.1623 298.161 104.694Z" fill="#001A39"/>
<path fill-rule="evenodd" clip-rule="evenodd" d="M273.024 61.9739L270.231 63.4687L269.804 62.6724L272.598 61.1776L273.024 61.9739Z" fill="#001A39"/>
<path d="M165.947 100.332C177.227 100.332 186.373 90.0112 186.373 77.2801C186.373 64.5489 177.227 54.2283 165.947 54.2283C154.666 54.2283 145.521 64.5489 145.521 77.2801C145.521 90.0112 154.666 100.332 165.947 100.332Z" fill="#D7D7D7"/>
<path fill-rule="evenodd" clip-rule="evenodd" d="M225.422 55.9155C228.031 56.0669 230.389 56.5858 231.773 57.0219L231.789 57.0271L231.805 57.0341C243.773 62.178 255.975 69.4617 260.585 72.4632L260.205 73.0465C255.619 70.06 243.461 62.8034 231.547 57.6804C230.213 57.2619 227.92 56.7576 225.382 56.6102C222.829 56.462 220.064 56.677 217.783 57.6727C215.471 58.6818 210.753 61.8298 205.761 65.3859C200.783 68.9317 195.573 72.8541 192.296 75.3833L191.915 75.6772L191.755 75.2235C191.175 73.5799 188.561 68.8771 182.8 63.5997L182.785 63.586L182.772 63.5708C182.616 63.3906 182.421 63.2032 182.219 63.0589C182.01 62.9103 181.826 62.8305 181.686 62.818C181.577 62.8082 181.484 62.8355 181.39 62.9663C181.29 63.1068 181.188 63.372 181.136 63.8376C183.133 65.5955 186.729 70.7423 186.55 78.5383C186.457 82.5691 184.923 84.832 182.974 85.9798C181.062 87.106 178.82 87.1181 177.329 86.7898C177.126 86.7752 176.904 86.776 176.708 86.8012C176.491 86.8292 176.363 86.8804 176.311 86.923C176.306 86.9269 176.303 86.93 176.301 86.9321C176.301 86.9406 176.304 86.9596 176.317 86.9921C176.367 87.1191 176.529 87.3423 176.925 87.6757C177.06 87.7891 177.35 87.9125 177.829 88.0188C178.294 88.1218 178.889 88.1991 179.589 88.2528C180.987 88.3602 182.768 88.3712 184.683 88.3215C188.499 88.2222 192.818 87.8826 195.641 87.5985C196.86 87.2786 199.742 86.1485 204.417 83.7761C209.117 81.3914 215.611 77.7606 224.018 72.4605L224.183 72.3564L248.561 84.4216L248.252 85.0454L224.224 73.1532C215.882 78.4063 209.423 82.0163 204.732 84.3967C200.019 86.7885 197.072 87.948 195.789 88.279L195.763 88.2856L195.737 88.2883C192.904 88.574 188.552 88.9171 184.701 89.0172C182.776 89.0672 180.969 89.0568 179.536 88.9468C178.819 88.8918 178.188 88.8113 177.678 88.6982C177.183 88.5883 176.75 88.4372 176.478 88.2084C176.06 87.8573 175.786 87.5422 175.67 87.2489C175.609 87.0949 175.584 86.9302 175.624 86.7666C175.663 86.6013 175.759 86.4748 175.871 86.3836C176.079 86.214 176.369 86.1431 176.619 86.111C176.882 86.077 177.164 86.0787 177.407 86.0978L177.432 86.0998L177.456 86.1052C178.831 86.413 180.894 86.3975 182.621 85.3802C184.322 84.3783 185.766 82.3631 185.854 78.5223C186.032 70.7614 182.357 65.756 180.55 64.2523L180.413 64.1375L180.426 63.9586C180.473 63.3355 180.602 62.8712 180.825 62.5608C181.066 62.2241 181.4 62.0937 181.748 62.1248C182.067 62.1534 182.372 62.3133 182.623 62.4922C182.874 62.671 183.103 62.8923 183.285 63.0999C188.665 68.0326 191.37 72.5033 192.238 74.5492C195.534 72.0126 200.553 68.2415 205.357 64.819C210.329 61.277 215.112 58.0792 217.504 57.0348C219.928 55.9771 222.818 55.7642 225.422 55.9155ZM176.301 86.9268C176.301 86.9268 176.301 86.9271 176.301 86.9277L176.301 86.9268Z" fill="#001A39"/>
<path d="M150.218 106.633L129.929 183.437L179.56 196.548L199.849 119.745L150.218 106.633Z" fill="#FBC73B"/>
<path d="M146.435 29.6477L171.56 38.2958L150.626 54.2282L146.435 29.6477Z" fill="#FBC73B"/>
<path d="M195.922 -6.86228e-05L174.627 5.70789L180.335 27.0031L201.63 21.2952L195.922 -6.86228e-05Z" fill="#D7D7D7"/>
<path d="M226.79 195.251L216.591 214.798L236.138 224.997L246.337 205.45L226.79 195.251Z" fill="#D7D7D7"/>
<path d="M229.378 25.2966C232.831 25.2966 235.63 22.4973 235.63 19.0442C235.63 15.5911 232.831 12.7919 229.378 12.7919C225.925 12.7919 223.126 15.5911 223.126 19.0442C223.126 22.4973 225.925 25.2966 229.378 25.2966Z" fill="#FBC73B"/>
<path d="M158.999 24.7412V199.821H135.179L59.717 125.829H0L22.5845 98.7333H59.717L135.179 24.7412H158.999Z" fill="#0074E0"/>
<path d="M310.576 131.826C314.057 150.726 280.766 173.141 280.766 173.141L301.932 195.809C301.932 195.809 303.926 202.754 295.156 209.874C287 216.494 279.822 213.516 279.822 213.516L257.845 186.239C252.094 179.102 252.48 168.817 258.753 162.129C267.439 152.866 278.018 141.488 277.322 141.737C276.152 142.154 245.746 147.226 245.746 147.226L217.574 170.269C217.574 170.269 209.052 171.102 203.879 164.793C198.39 158.096 200.483 151.046 200.483 151.046L231.711 125.497C234.249 123.42 237.297 122.061 240.54 121.559C251.504 119.861 277.634 116.075 288.903 116.725C301.623 117.461 309.117 123.908 310.576 131.826Z" fill="#F96155"/>
<path d="M210.971 169.422C210.637 161.368 211.919 152.322 219.201 147.522C222.241 145.519 225.912 144.853 229.396 146.027C233.099 147.273 235.99 150.236 238.286 153.289C238.417 153.463 238.713 153.305 238.589 153.113C235.391 148.215 230.139 143.961 223.932 144.997C218.165 145.959 213.705 151.019 211.928 156.369C210.528 160.58 210.447 165.035 210.727 169.422C210.734 169.58 210.98 169.582 210.971 169.422Z" fill="#FBC73B"/>
<path d="M204.962 147.325C205.974 149.43 207.028 151.516 208.137 153.573C208.959 155.095 209.833 156.675 211.208 157.775C213.662 159.737 216.758 159.317 218.519 156.709C220.601 153.627 221.044 149.384 221.256 145.767C221.48 141.962 221.412 138.128 221.281 134.324C221.274 134.129 220.99 134.129 220.978 134.324C220.658 140.924 221.365 148.084 218.935 154.361C218.375 155.808 217.512 157.375 216.045 158.064C214.213 158.924 212.161 157.926 210.872 156.578C209.65 155.3 208.841 153.666 208.011 152.126C207.11 150.457 206.243 148.768 205.403 147.068C205.26 146.77 204.82 147.029 204.962 147.325Z" fill="#FBC73B"/>
<path d="M225.582 130.478C227.407 133.604 230.909 135.512 234.201 136.749C237.577 138.018 241.228 138.555 244.827 138.4C252.317 138.074 259.215 134.748 264.11 129.076C266.965 125.768 269.365 121.772 270.871 117.664C270.952 117.443 270.602 117.301 270.494 117.506C268.728 120.801 267.127 124.106 264.844 127.096C262.575 130.068 259.791 132.66 256.51 134.477C250.411 137.855 242.982 138.621 236.288 136.74C232.298 135.62 228.432 133.585 225.828 130.291C225.713 130.147 225.497 130.329 225.582 130.478Z" fill="#FBC73B"/>
<path d="M244.159 148.552C243.344 144.002 242.657 139.319 245.04 135.101C247.013 131.603 250.599 129.022 254.643 128.65C262.476 127.927 268.091 136.465 269.622 143.198C269.688 143.485 270.182 143.43 270.146 143.128C269.794 140.113 268.281 137.183 266.596 134.701C264.935 132.253 262.595 129.948 259.852 128.76C253.602 126.057 246.458 130.153 243.917 136.056C242.188 140.08 242.818 144.521 243.786 148.653C243.843 148.899 244.202 148.793 244.159 148.552Z" fill="#FBC73B"/>
<path d="M308.317 126.039C296.449 130.903 290.226 143.392 288.695 155.524C288.467 157.335 288.336 159.153 288.291 160.977C288.242 162.93 288.154 165.093 288.589 167.008C288.68 167.401 289.246 167.29 289.265 166.918C289.375 164.822 289.165 162.695 289.246 160.589C289.325 158.55 289.499 156.511 289.795 154.49C290.38 150.491 291.423 146.53 293.063 142.832C296.215 135.717 301.553 129.988 308.494 126.452C308.715 126.337 308.557 125.942 308.317 126.039Z" fill="#FBC73B"/>
<path d="M265.316 155.346C267.346 154.993 269.397 154.716 271.454 154.569C273.312 154.436 275.493 154.165 277.302 154.718C281.298 155.937 281.079 160.934 279.919 164.052C277.537 170.454 272.867 175.794 268.112 180.556C265.375 183.3 262.521 185.921 259.99 188.861C259.834 189.042 260.073 189.283 260.252 189.123C265.818 184.167 271.483 178.935 275.854 172.861C278.029 169.837 280.161 166.374 281.089 162.732C281.831 159.812 281.357 156.136 278.492 154.503C276.74 153.505 274.452 153.779 272.531 153.898C270.058 154.052 267.624 154.406 265.215 154.975C264.969 155.032 265.077 155.386 265.316 155.346Z" fill="#FBC73B"/>
<path d="M253.834 173.712C257.373 172.281 261.229 172.186 264.856 173.376C268.197 174.471 270.742 176.867 272.235 180.028C273.834 183.415 274.084 187.215 273.725 190.898C273.316 195.091 271.93 198.986 271.054 203.071C270.993 203.353 271.409 203.57 271.546 203.278C272.477 201.309 273.023 199.081 273.517 196.965C274.016 194.827 274.421 192.657 274.608 190.469C274.94 186.558 274.497 182.512 272.596 179.023C269.006 172.434 260.313 170.002 253.69 173.373C253.507 173.468 253.636 173.791 253.834 173.712Z" fill="#FBC73B"/>
<path d="M282.859 116.601C280.3 123.406 284.304 130.192 289.043 134.879C294.09 139.872 300.432 144.408 307.24 146.601C307.434 146.664 307.565 146.361 307.38 146.266C301.22 143.119 295.363 139.732 290.301 134.943C285.338 130.248 281.104 123.808 283.24 116.705C283.319 116.456 282.947 116.366 282.859 116.601Z" fill="#FBC73B"/>
<path d="M288.273 181.195C285.523 183.489 283.904 187.016 282.988 190.41C282.161 193.469 281.353 197.396 282.604 200.447C283.995 203.843 287.813 203.996 290.902 203.091C292.855 202.517 294.688 201.571 296.468 200.6C298.432 199.53 300.381 198.424 302.23 197.159C302.497 196.976 302.262 196.556 301.973 196.721C298.066 198.963 285.171 207.749 283.128 199.34C282.412 196.398 283.123 192.961 283.929 190.107C284.846 186.863 286.39 184.054 288.592 181.511C288.781 181.292 288.495 181.01 288.273 181.195Z" fill="#FBC73B"/>
<path fill-rule="evenodd" clip-rule="evenodd" d="M284.6 133.891L275.52 143.894L274.852 143.287L283.931 133.284L284.6 133.891Z" fill="white"/>
<path fill-rule="evenodd" clip-rule="evenodd" d="M277.399 104.101L260.747 116.213L260.565 116.278L227.808 117.928L227.752 117.926L227.791 117.59C227.752 117.926 227.752 117.926 227.752 117.926L227.752 117.926L227.742 117.925L227.711 117.922C227.684 117.919 227.643 117.914 227.59 117.908C227.484 117.897 227.328 117.88 227.128 117.86C226.73 117.819 226.16 117.764 225.474 117.705C224.101 117.589 222.266 117.46 220.416 117.41C218.562 117.361 216.707 117.392 215.287 117.59C214.575 117.689 213.994 117.828 213.582 118.009C213.305 118.13 213.141 118.254 213.05 118.369C213.072 118.378 213.098 118.387 213.126 118.397C213.364 118.482 213.723 118.578 214.173 118.681C215.069 118.886 216.281 119.109 217.503 119.314C218.724 119.52 219.949 119.708 220.87 119.844C221.33 119.912 221.714 119.968 221.983 120.006C222.117 120.025 222.223 120.04 222.294 120.05L222.404 120.066L222.404 120.066C222.404 120.066 222.404 120.066 222.358 120.401C222.447 120.728 222.447 120.728 222.447 120.728L222.447 120.728L222.398 120.741C222.365 120.75 222.316 120.764 222.252 120.782C222.124 120.817 221.936 120.869 221.697 120.937C221.219 121.071 220.537 121.265 219.72 121.503C218.085 121.979 215.911 122.631 213.751 123.337C211.588 124.044 209.449 124.802 207.88 125.489C207.093 125.833 206.466 126.152 206.053 126.432C205.845 126.572 205.71 126.691 205.635 126.783C205.603 126.823 205.589 126.849 205.584 126.862C205.603 126.9 205.68 126.989 205.965 127.071C206.27 127.158 206.708 127.205 207.254 127.213C208.341 127.228 209.764 127.09 211.191 126.896C212.613 126.702 214.024 126.454 215.081 126.255C215.609 126.155 216.047 126.067 216.354 126.005C216.507 125.973 216.627 125.948 216.709 125.931C216.75 125.922 216.781 125.916 216.802 125.911L216.833 125.905L216.833 125.905C216.834 125.905 216.834 125.905 216.905 126.236C217.03 126.551 217.03 126.551 217.029 126.551L216.993 126.565C216.969 126.575 216.933 126.589 216.885 126.608C216.791 126.646 216.653 126.701 216.477 126.772C216.125 126.915 215.622 127.12 215.021 127.37C213.819 127.87 212.224 128.551 210.652 129.273C209.076 129.996 207.533 130.755 206.429 131.414C205.874 131.745 205.447 132.041 205.183 132.285C205.05 132.407 204.978 132.5 204.945 132.561C204.958 132.568 204.975 132.577 204.998 132.587C205.082 132.622 205.211 132.653 205.39 132.674C205.749 132.716 206.244 132.71 206.844 132.663C208.039 132.57 209.581 132.321 211.113 132.028C212.643 131.735 214.152 131.401 215.281 131.139C215.845 131.008 216.313 130.896 216.64 130.816C216.803 130.776 216.931 130.745 217.019 130.723C217.062 130.712 217.096 130.704 217.118 130.698L217.151 130.69L217.152 130.69C217.152 130.69 217.152 130.69 217.235 131.018C217.393 131.318 217.393 131.318 217.392 131.318L217.37 131.33C217.356 131.337 217.333 131.349 217.305 131.365C217.247 131.395 217.162 131.441 217.054 131.499C216.838 131.615 216.53 131.783 216.161 131.988C215.424 132.399 214.447 132.957 213.486 133.551C212.522 134.147 211.586 134.772 210.922 135.315C210.589 135.589 210.34 135.829 210.19 136.024C210.136 136.095 210.101 136.153 210.08 136.197C210.081 136.197 210.082 136.198 210.083 136.198C210.213 136.218 210.413 136.223 210.688 136.208C211.233 136.178 211.999 136.072 212.921 135.91C214.761 135.585 217.176 135.042 219.584 134.461C221.99 133.881 224.381 133.263 226.172 132.791C227.067 132.555 227.812 132.355 228.333 132.214C228.594 132.144 228.798 132.088 228.937 132.05C229.007 132.031 229.06 132.017 229.096 132.007L229.15 131.992L229.15 131.992C229.151 131.992 229.151 131.992 229.24 132.319C229.27 131.981 229.27 131.981 229.27 131.981L229.271 131.981L229.363 131.989C229.424 131.995 229.516 132.002 229.636 132.012C229.876 132.032 230.229 132.061 230.681 132.097C231.586 132.167 232.889 132.265 234.478 132.37C237.657 132.582 241.981 132.826 246.565 132.959C251.149 133.091 255.989 133.112 260.2 132.877C264.426 132.641 267.97 132.149 269.995 131.28C272.037 130.405 274.992 128.38 278.299 125.809C281.597 123.244 285.217 120.156 288.579 117.177C291.941 114.199 295.043 111.332 297.304 109.21C298.435 108.149 299.355 107.274 299.993 106.664C300.312 106.36 300.56 106.121 300.728 105.959C300.812 105.878 300.877 105.816 300.92 105.774L300.984 105.712L300.985 105.712C300.985 105.711 300.985 105.711 301.221 105.954C301.457 106.198 301.456 106.198 301.456 106.198L301.455 106.199L301.391 106.261C301.347 106.303 301.283 106.366 301.198 106.447C301.029 106.61 300.781 106.849 300.461 107.154C299.822 107.765 298.9 108.641 297.768 109.704C295.503 111.829 292.397 114.701 289.029 117.684C285.661 120.668 282.029 123.766 278.715 126.343C275.41 128.914 272.393 130.989 270.262 131.903C268.114 132.824 264.46 133.317 260.238 133.553C256 133.79 251.139 133.769 246.545 133.636C241.95 133.503 237.617 133.258 234.433 133.046C232.841 132.94 231.536 132.843 230.629 132.772C230.175 132.736 229.821 132.707 229.58 132.687C229.459 132.677 229.367 132.67 229.305 132.664L229.272 132.661C229.236 132.671 229.183 132.686 229.116 132.704C228.976 132.742 228.771 132.798 228.51 132.868C227.988 133.009 227.242 133.21 226.345 133.446C224.552 133.919 222.155 134.538 219.743 135.12C217.332 135.702 214.9 136.249 213.039 136.577C212.11 136.741 211.312 136.852 210.725 136.885C210.435 136.901 210.178 136.898 209.978 136.867C209.878 136.851 209.774 136.826 209.682 136.781C209.591 136.736 209.477 136.655 209.419 136.512C209.35 136.34 209.371 136.167 209.42 136.022C209.469 135.88 209.554 135.742 209.652 135.613C209.849 135.355 210.145 135.076 210.493 134.791C211.192 134.219 212.16 133.575 213.13 132.975C213.737 132.6 214.349 132.239 214.905 131.92C213.849 132.161 212.553 132.442 211.24 132.693C209.701 132.987 208.13 133.242 206.897 133.338C206.282 133.386 205.735 133.396 205.312 133.347C205.101 133.322 204.904 133.281 204.739 133.213C204.578 133.146 204.407 133.036 204.314 132.849C204.205 132.631 204.259 132.411 204.345 132.248C204.429 132.087 204.567 131.932 204.723 131.787C205.04 131.494 205.516 131.17 206.082 130.833C207.218 130.154 208.789 129.382 210.369 128.657C211.52 128.129 212.681 127.623 213.693 127.193C212.939 127.323 212.113 127.454 211.282 127.567C209.847 127.763 208.383 127.906 207.245 127.89C206.678 127.882 206.169 127.834 205.779 127.722C205.413 127.617 205.02 127.418 204.92 127.01L204.92 127.009C204.857 126.749 204.977 126.52 205.108 126.357C205.244 126.189 205.443 126.027 205.673 125.871C206.138 125.556 206.811 125.217 207.609 124.868C209.208 124.168 211.373 123.402 213.54 122.694C215.71 121.984 217.892 121.33 219.531 120.852C219.972 120.724 220.374 120.608 220.726 120.508C219.808 120.371 218.598 120.185 217.391 119.982C216.165 119.776 214.937 119.551 214.021 119.341C213.566 119.237 213.175 119.134 212.899 119.035C212.763 118.987 212.636 118.934 212.538 118.872C212.491 118.842 212.429 118.798 212.38 118.734C212.328 118.667 212.266 118.547 212.3 118.397C212.408 117.915 212.828 117.6 213.31 117.389C213.805 117.171 214.457 117.022 215.193 116.919C216.67 116.713 218.569 116.683 220.434 116.733C222.302 116.783 224.151 116.913 225.531 117.03C226.222 117.089 226.796 117.145 227.197 117.186C227.398 117.206 227.556 117.223 227.663 117.235C227.717 117.241 227.759 117.245 227.787 117.248L227.801 117.25L260.43 115.606L277.001 103.553L277.399 104.101ZM229.24 132.319L229.27 131.981L229.15 131.992L229.24 132.319ZM217.235 131.018L217.392 131.318L217.152 130.69L217.235 131.018ZM216.905 126.236L217.029 126.551L216.833 125.905L216.905 126.236ZM222.358 120.401L222.447 120.728L222.404 120.066L222.358 120.401Z" fill="#001A39"/>
</svg>
