<svg width="30" height="32" viewBox="0 0 30 32" fill="none" xmlns="http://www.w3.org/2000/svg">
<path d="M30 16.8712C30 15.0362 29.6762 13.2768 29.0824 11.6491C28.6765 16.445 26.1415 18.9083 23.4926 17.7612C21.0115 16.6861 22.6835 12.4955 22.8071 10.4958C23.0153 7.10607 22.7965 3.22599 16.6915 0C19.2282 4.8946 16.9853 7.93548 14.6329 8.12059C12.0229 8.32616 9.63265 5.85839 10.515 1.85372C7.65794 3.97708 7.575 7.55103 8.45647 9.86306C9.37588 12.273 8.41941 14.2753 6.17735 14.4978C3.67147 14.747 2.27912 11.7915 3.56294 7.08204C1.34118 9.72067 0 13.138 0 16.8712C0 25.2268 6.71559 32 15 32C23.2844 32 30 25.2268 30 16.8712Z" fill="#F0438C"/>
<path d="M24.1715 21.3199C24.3021 24.0645 21.9118 25.1404 20.6253 24.6207C18.7671 23.8705 19.2656 22.5819 18.7874 19.9121C18.3092 17.2423 16.4712 15.3886 13.7509 14.5725C15.7362 20.2084 12.6506 22.2855 11.0333 22.6566C9.38152 23.0357 7.72182 22.6557 7.53211 19.0907C5.60505 21.0254 4.41211 23.7023 4.41211 26.6604C4.41211 26.9879 4.4324 27.31 4.46064 27.6304C7.16946 30.3304 10.8903 32 15.0003 32C19.1103 32 22.8312 30.3304 25.5401 27.6304C25.5683 27.31 25.5886 26.9879 25.5886 26.6604C25.5886 24.7141 25.0733 22.8907 24.1715 21.3199Z" fill="#FDE50B"/>
</svg>
