<svg width="242" height="168" viewBox="0 0 242 168" fill="none" xmlns="http://www.w3.org/2000/svg">
<path fill-rule="evenodd" clip-rule="evenodd" d="M69.1721 129.72C69.1718 129.72 69.1717 129.72 68.7459 130.82C68.3201 131.92 68.3203 131.92 68.3207 131.92L68.3225 131.921L68.4606 131.972C68.553 132.007 68.6902 132.058 68.8701 132.124C69.2298 132.257 69.7602 132.452 70.4439 132.702C71.8112 133.202 73.7921 133.92 76.2481 134.794C81.1597 136.541 87.9734 138.911 95.5821 141.405C110.773 146.384 129.223 151.885 142.017 153.865C158.617 156.436 182.643 156.267 202.446 155.468C212.363 155.067 221.248 154.507 227.653 154.047C230.856 153.817 233.44 153.612 235.224 153.465C236.116 153.391 236.808 153.331 237.277 153.29C237.512 153.27 237.691 153.254 237.811 153.243L237.994 153.227C237.995 153.227 237.995 153.226 237.884 152.054C237.772 150.882 237.772 150.882 237.772 150.883L237.77 150.883L237.594 150.899C237.475 150.909 237.298 150.925 237.065 150.945C236.599 150.986 235.911 151.045 235.023 151.119C233.247 151.266 230.672 151.47 227.479 151.699C221.091 152.158 212.233 152.716 202.347 153.116C182.546 153.915 158.732 154.071 142.39 151.539C129.815 149.593 111.537 144.153 96.3407 139.172C88.756 136.686 81.962 134.322 77.0642 132.58C74.6155 131.709 72.6412 130.993 71.2796 130.496C70.5988 130.247 70.0713 130.053 69.7142 129.921C69.5356 129.855 69.3997 129.804 69.3086 129.771L69.1721 129.72Z" fill="#001A39"/>
<path fill-rule="evenodd" clip-rule="evenodd" d="M79.582 97.4905L156.293 113.917C156.466 113.954 156.643 113.966 156.819 113.952L244 107.062L243.808 104.718L156.716 111.6L80.0916 95.1926L79.582 97.4905Z" fill="#001A39"/>
<path fill-rule="evenodd" clip-rule="evenodd" d="M54.1265 168L88.5918 51.5838L86.2695 50.908L51.8042 167.324L54.1265 168Z" fill="#001A39"/>
<path fill-rule="evenodd" clip-rule="evenodd" d="M60.7375 167.249L61.5645 44.9209L59.3883 44.9031L58.5614 167.231L60.7375 167.249Z" fill="#001A39"/>
<path fill-rule="evenodd" clip-rule="evenodd" d="M73.5762 166.569L38.3659 50.1572L36.0378 50.8372L71.2481 167.249L73.5762 166.569Z" fill="#001A39"/>
<path d="M45.6133 86.9363C45.6133 86.9363 77.2675 99.466 77.6032 102.776C77.939 106.086 48.7608 98.7132 48.7608 98.7132C48.7608 98.7132 84.3956 107.706 84.0839 112.33C83.7722 116.955 48.8566 108.542 48.8566 108.542C48.8566 108.542 79.8334 115.957 79.0061 120.498C78.1787 125.039 47.4238 119.13 47.4238 119.13C47.4238 119.13 40.5414 116.77 40.5414 104.575C40.5414 92.3796 45.6133 86.9363 45.6133 86.9363Z" fill="white"/>
<path fill-rule="evenodd" clip-rule="evenodd" d="M44.4163 86.0288L45.2921 86.8343L45.7333 85.7341L44.973 85.4351L44.4163 86.0288ZM47.4301 117.584C47.4 117.571 47.3601 117.553 47.3114 117.531C47.1665 117.463 46.9441 117.349 46.6694 117.175C46.1208 116.827 45.3628 116.239 44.5949 115.301C43.0732 113.443 41.4315 110.11 41.4315 104.307C41.4315 98.4358 42.659 94.2289 43.859 91.5154C44.4599 90.1568 45.0559 89.1679 45.4923 88.5287C45.5582 88.4322 45.6204 88.3436 45.6785 88.2629C45.833 88.3245 46.0075 88.3942 46.2005 88.4715C47.0614 88.8163 48.2923 89.3127 49.7705 89.9188C52.7279 91.1312 56.6715 92.7805 60.6228 94.5309C64.5799 96.2838 68.5211 98.1275 71.4841 99.7295C72.9702 100.533 74.175 101.257 75.0051 101.863C75.1553 101.972 75.2885 102.075 75.4058 102.17C74.7961 102.209 73.9634 102.187 72.9297 102.1C70.3194 101.883 66.769 101.288 63.1624 100.581C59.5667 99.8771 55.9564 99.07 53.2424 98.4382C51.8861 98.1225 50.7552 97.851 49.9638 97.6584C49.5681 97.5622 49.2574 97.4857 49.0458 97.4334C48.9401 97.4072 48.8591 97.3871 48.8048 97.3735L48.7498 97.3598L48.7434 97.3582L48.7235 97.3532C48.7232 97.3531 48.7229 97.353 48.4296 98.5006C48.1358 99.6481 48.136 99.6481 48.1363 99.6482L48.1416 99.6496L48.1579 99.6536L48.1608 99.6544L48.2358 99.6733C48.3022 99.6901 48.401 99.7152 48.5302 99.7481C48.7886 99.8141 49.1682 99.9115 49.6516 100.037C50.6185 100.289 52.0003 100.653 53.6577 101.105C56.9741 102.01 61.3878 103.262 65.7876 104.655C70.1967 106.051 74.5542 107.577 77.7754 109.027C79.3935 109.756 80.6683 110.44 81.5113 111.051C81.9344 111.357 82.199 111.61 82.3447 111.8C82.3489 111.805 82.3529 111.811 82.3569 111.816C82.2374 111.868 82.0549 111.93 81.7894 111.987C80.961 112.165 79.6995 112.221 78.0727 112.154C74.8474 112.02 70.5308 111.419 66.1718 110.665C61.8249 109.914 57.4827 109.019 54.2242 108.312C52.5958 107.958 51.2398 107.651 50.2915 107.433C49.8174 107.324 49.4452 107.237 49.192 107.178C49.0654 107.148 48.9685 107.125 48.9034 107.11L48.83 107.092L48.828 107.092L48.8117 107.088L48.8105 107.088L48.8073 107.087L48.8062 107.087L48.8048 107.086C48.8044 107.086 48.8042 107.086 48.5251 108.237C48.2443 109.388 48.2445 109.388 48.2448 109.388L48.2461 109.388L48.251 109.39L48.3318 109.409C48.3893 109.423 48.475 109.443 48.587 109.471C48.8109 109.525 49.1401 109.606 49.5592 109.71C50.3974 109.918 51.595 110.221 53.0299 110.599C55.9014 111.356 59.7155 112.409 63.4991 113.6C67.2939 114.796 71.0121 116.116 73.7136 117.4C75.0732 118.046 76.1073 118.652 76.7594 119.19C77.0855 119.459 77.2645 119.67 77.3502 119.812C77.3605 119.829 77.3687 119.844 77.3753 119.857C77.2992 119.921 77.1057 120.045 76.6483 120.18C75.8813 120.406 74.7394 120.543 73.2781 120.584C70.3772 120.665 66.5374 120.364 62.6676 119.915C58.8104 119.467 54.9733 118.879 52.0972 118.403C50.66 118.164 49.4649 117.954 48.6296 117.804C48.212 117.729 47.8845 117.668 47.6618 117.627C47.5973 117.615 47.5415 117.604 47.495 117.596C47.4709 117.591 47.4492 117.587 47.4301 117.584ZM71.571 113.902C72.7162 114.352 73.7881 114.809 74.7481 115.266C76.1674 115.94 77.4104 116.646 78.2891 117.371C78.7284 117.733 79.1282 118.142 79.4042 118.601C79.6865 119.071 79.8721 119.653 79.7548 120.293C79.5185 121.582 78.2934 122.165 77.3304 122.449C76.263 122.764 74.8744 122.908 73.3457 122.95C70.2663 123.037 66.2872 122.718 62.3895 122.266C58.4794 121.812 54.6005 121.218 51.7027 120.738C50.2528 120.497 49.0464 120.285 48.2019 120.133C47.7796 120.057 47.4477 119.996 47.2209 119.954C47.1075 119.933 47.0203 119.916 46.9613 119.905L46.8711 119.888C46.8708 119.888 46.8706 119.888 47.0968 118.726L46.8711 119.888L46.7877 119.872L46.708 119.845L47.0968 118.726C46.708 119.845 46.7071 119.845 46.7061 119.844L46.7041 119.844L46.6997 119.842L46.6888 119.838C46.6808 119.836 46.671 119.832 46.6597 119.828C46.637 119.819 46.6079 119.808 46.5727 119.794C46.5024 119.766 46.4079 119.726 46.2927 119.673C46.0624 119.565 45.7488 119.402 45.3803 119.169C44.6426 118.701 43.6854 117.949 42.7383 116.792C40.8297 114.462 39.0411 110.584 39.0411 104.307C39.0411 98.0979 40.3415 93.5683 41.6694 90.5656C42.3325 89.0661 43.0004 87.9519 43.512 87.2025C43.7678 86.8279 43.9844 86.5445 44.1418 86.3498C44.2205 86.2524 44.2844 86.1772 44.331 86.1238C44.3543 86.0971 44.3732 86.0759 44.3876 86.0601L44.4055 86.0404L44.4118 86.0336L44.4154 86.0298C44.4158 86.0293 44.4163 86.0288 45.2921 86.8343C45.7333 85.7341 45.733 85.734 45.7333 85.7341L45.8254 85.7705C45.8856 85.7942 45.9748 85.8295 46.0909 85.8756C46.3233 85.9678 46.6636 86.1032 47.0966 86.2766C47.9626 86.6234 49.1996 87.1223 50.6847 87.7312C53.6541 88.9485 57.6199 90.6071 61.5988 92.3696C65.572 94.1296 69.582 96.0037 72.6294 97.6513C74.1484 98.4726 75.4637 99.2564 76.4233 99.9569C76.9007 100.305 77.3263 100.659 77.6504 101.011C77.9396 101.325 78.3084 101.806 78.3696 102.406C78.445 103.145 78.0486 103.698 77.5689 104.01C77.1584 104.277 76.6594 104.399 76.2195 104.465C75.3114 104.6 74.087 104.573 72.729 104.46C72.701 104.457 72.6729 104.455 72.6447 104.452C74.8846 105.253 76.9819 106.069 78.7645 106.872C80.4329 107.623 81.8822 108.386 82.9224 109.139C83.4408 109.515 83.9075 109.923 84.248 110.367C84.5842 110.806 84.8793 111.388 84.8331 112.069C84.7841 112.791 84.3778 113.324 83.8854 113.669C83.4259 113.991 82.8584 114.18 82.2955 114.301C81.1611 114.544 79.6525 114.589 77.9727 114.519C76.0986 114.441 73.9016 114.216 71.571 113.902ZM48.5251 108.237L48.2448 109.388L48.8048 107.086L48.5251 108.237ZM48.4296 98.5006L48.1363 99.6482L48.7229 97.353L48.4296 98.5006Z" fill="#001A39"/>
<path d="M83.4909 65.8969L116.364 46.8219C124.502 42.0995 127.27 31.6804 122.547 23.5447C117.823 15.409 107.401 12.6413 99.2638 17.3637L95.8557 19.3423L93.9185 16.0008C89.195 7.86512 78.7733 5.09741 70.6357 9.81982C62.4981 14.5422 59.7298 24.9614 64.4533 33.0971L83.4909 65.8969Z" fill="#FBC73B"/>
<path d="M41.3606 63.9484L8.48735 44.8735C0.349751 40.1511 -2.41864 29.7319 2.30487 21.5962C7.02839 13.4605 17.4501 10.6928 25.5877 15.4152L28.9957 17.3938L30.933 14.0523C35.6565 5.91663 46.0781 3.14893 54.2157 7.87133C62.3533 12.5937 65.1217 23.0129 60.3981 31.1486L41.3606 63.9484Z" fill="#FBC73B"/>
<path d="M60.7753 55.9441L87.6515 29.0742C94.3063 22.421 94.3063 11.6431 87.6515 4.98991C80.9967 -1.6633 70.2164 -1.6633 63.5616 4.98991L60.7753 7.77555L58.0429 5.04372C51.3881 -1.60949 40.6077 -1.60949 33.9529 5.04372C27.2982 11.6969 27.2982 22.4748 33.9529 29.128L60.7753 55.9441Z" fill="#F96155"/>
</svg>
