<svg width="29" height="41" viewBox="0 0 29 41" fill="none" xmlns="http://www.w3.org/2000/svg">
<path d="M0 40.52V0.52002L29 29.52L12.2083 29.77L0 40.52Z" fill="#FBC73B"/>
<path fill-rule="evenodd" clip-rule="evenodd" d="M29 29.52L12.2083 29.77L0 40.52V0.52002L29 29.52ZM11.0567 26.7868L3 33.8811V7.76266L8.43456 13.1972C7.54846 14.0793 7 15.3002 7 16.6493C7 19.3393 9.1807 21.52 11.8707 21.52C13.2198 21.52 14.4408 20.9716 15.3228 20.0855L21.8633 26.6259L11.0567 26.7868ZM13.9451 18.7078L9.81222 14.5749C9.27868 15.1044 8.94829 15.8382 8.94829 16.6493C8.94829 18.2633 10.2567 19.5717 11.8707 19.5717C12.6818 19.5717 13.4157 19.2413 13.9451 18.7078Z" fill="#001A39"/>
<path d="M8 25.02C8 25.8484 7.32843 26.52 6.5 26.52C5.67157 26.52 5 25.8484 5 25.02C5 24.1916 5.67157 23.52 6.5 23.52C7.32843 23.52 8 24.1916 8 25.02Z" fill="#001A39"/>
</svg>
