<svg width="24" height="34" viewBox="0 0 24 34" fill="none" xmlns="http://www.w3.org/2000/svg">
<path d="M0 33.1035V0L24 24L10.1034 24.2069L0 33.1035Z" fill="#FDE50B"/>
<path fill-rule="evenodd" clip-rule="evenodd" d="M24 24L10.1034 24.2069L0 33.1035V0L24 24ZM9.15035 21.7381L2.48276 27.6092V5.99391L6.98032 10.4915C6.247 11.2214 5.7931 12.2319 5.7931 13.3484C5.7931 15.5746 7.59782 17.3793 9.82406 17.3793C10.9405 17.3793 11.951 16.9254 12.6809 16.1921L18.0937 21.6049L9.15035 21.7381ZM11.5408 15.052L8.12046 11.6316C7.67891 12.0698 7.40548 12.6771 7.40548 13.3484C7.40548 14.6841 8.48832 15.7669 9.82406 15.7669C10.4953 15.7669 11.1026 15.4935 11.5408 15.052Z" fill="#222222"/>
<path d="M6.62045 20.276C6.62045 20.9616 6.06467 21.5174 5.37907 21.5174C4.69348 21.5174 4.1377 20.9616 4.1377 20.276C4.1377 19.5905 4.69348 19.0347 5.37907 19.0347C6.06467 19.0347 6.62045 19.5905 6.62045 20.276Z" fill="#222222"/>
</svg>
