<svg width="18" height="24" viewBox="0 0 18 24" fill="none" xmlns="http://www.w3.org/2000/svg">
<path fill-rule="evenodd" clip-rule="evenodd" d="M7.43169 17.4811L0 24V0L5.01298 4.99377C4.19562 5.80427 3.68971 6.9262 3.68971 8.16584C3.68971 10.6377 5.70125 12.6415 8.1826 12.6415C9.42701 12.6415 10.5533 12.1375 11.3669 11.3233L17.4 17.3333L7.43169 17.4811ZM10.0961 10.0574L6.28377 6.25969C5.79163 6.74621 5.48687 7.42057 5.48687 8.16584C5.48687 9.64895 6.69379 10.8512 8.1826 10.8512C8.93074 10.8512 9.6077 10.5477 10.0961 10.0574Z" fill="#FDE50B"/>
<path d="M4.61213 15.8577C4.61213 16.6189 3.99265 17.236 3.22849 17.236C2.46433 17.236 1.84485 16.6189 1.84485 15.8577C1.84485 15.0965 2.46433 14.4794 3.22849 14.4794C3.99265 14.4794 4.61213 15.0965 4.61213 15.8577Z" fill="#FDE50B"/>
<path d="M3.6897 8.16585C3.6897 6.92621 4.19561 5.80428 5.01297 4.99377L6.28374 6.25969C5.79159 6.74621 5.48686 7.42058 5.48686 8.16585C5.48686 9.64895 6.69378 10.8513 8.18259 10.8513C8.93073 10.8513 9.60769 10.5477 10.0961 10.0574L11.3669 11.3233C10.5532 12.1375 9.427 12.6415 8.18259 12.6415C5.70124 12.6415 3.6897 10.6377 3.6897 8.16585Z" fill="#222222"/>
<path d="M4.61213 15.8577C4.61213 16.6189 3.99265 17.236 3.22849 17.236C2.46433 17.236 1.84485 16.6189 1.84485 15.8577C1.84485 15.0965 2.46433 14.4794 3.22849 14.4794C3.99265 14.4794 4.61213 15.0965 4.61213 15.8577Z" fill="#222222"/>
</svg>
