<svg width="104" height="33" viewBox="0 0 104 33" fill="none" xmlns="http://www.w3.org/2000/svg">
<path d="M5.55223 15.1932C4.51203 15.1932 3.57991 15.0237 2.75585 14.6847C1.9318 14.3458 1.26985 13.8441 0.770018 13.1797C0.283691 12.5153 0.0270182 11.7153 0 10.7797H3.68798C3.74202 11.3085 3.92439 11.7153 4.2351 12C4.54581 12.2712 4.95108 12.4068 5.45092 12.4068C5.96426 12.4068 6.36953 12.2915 6.66673 12.061C6.96393 11.8169 7.11253 11.4847 7.11253 11.0644C7.11253 10.7119 6.99095 10.4203 6.74779 10.1898C6.51813 9.95932 6.22769 9.76949 5.87645 9.62034C5.53872 9.47118 5.0524 9.30169 4.41747 9.11186C3.49885 8.82712 2.7491 8.54237 2.16821 8.25762C1.58732 7.97288 1.08748 7.55254 0.6687 6.99661C0.249918 6.44068 0.0405272 5.71525 0.0405272 4.82034C0.0405272 3.49152 0.5201 2.45424 1.47924 1.70847C2.43839 0.949152 3.68798 0.569491 5.22802 0.569491C6.79507 0.569491 8.05817 0.949152 9.01731 1.70847C9.97646 2.45424 10.4898 3.4983 10.5573 4.84068H6.80858C6.78156 4.37966 6.6127 4.02034 6.30199 3.76271C5.99128 3.49152 5.59276 3.35593 5.10643 3.35593C4.68765 3.35593 4.34993 3.47118 4.09325 3.70169C3.83658 3.91864 3.70824 4.23729 3.70824 4.65763C3.70824 5.11864 3.92439 5.47796 4.35668 5.73559C4.78897 5.99322 5.46442 6.27118 6.38304 6.56949C7.30166 6.88135 8.04466 7.17966 8.61204 7.4644C9.19293 7.74915 9.69277 8.16271 10.1115 8.70508C10.5303 9.24746 10.7397 9.94576 10.7397 10.8C10.7397 11.6136 10.5303 12.3525 10.1115 13.0169C9.70628 13.6814 9.11188 14.2102 8.32835 14.6034C7.54482 14.9966 6.61945 15.1932 5.55223 15.1932Z" fill="#F2F2F2"/>
<path d="M12.1832 9.39661C12.1832 8.27118 12.4128 7.26779 12.8722 6.38644C13.345 5.50508 13.9731 4.82034 14.7567 4.3322C15.5537 3.83051 16.4183 3.57966 17.3504 3.57966C18.0664 3.57966 18.7081 3.70847 19.2755 3.9661C19.8428 4.21017 20.3021 4.55593 20.6534 5.00339V3.70169H24.1185V20.461H20.6534V13.6271C20.2616 14.1017 19.782 14.4814 19.2147 14.7661C18.6608 15.0508 18.0259 15.1932 17.3099 15.1932C16.3913 15.1932 15.5402 14.9491 14.7567 14.461C13.9731 13.9729 13.345 13.2881 12.8722 12.4068C12.4128 11.5254 12.1832 10.522 12.1832 9.39661ZM20.6534 9.37627C20.6534 8.7661 20.5318 8.25762 20.2886 7.85085C20.059 7.43051 19.755 7.11864 19.3768 6.91525C18.9985 6.6983 18.6 6.58983 18.1812 6.58983C17.7759 6.58983 17.3842 6.6983 17.0059 6.91525C16.6277 7.11864 16.317 7.43051 16.0738 7.85085C15.8306 8.27118 15.7091 8.78644 15.7091 9.39661C15.7091 10.0068 15.8306 10.522 16.0738 10.9424C16.317 11.3492 16.6277 11.661 17.0059 11.878C17.3842 12.0814 17.7759 12.183 18.1812 12.183C18.5865 12.183 18.9783 12.0814 19.3565 11.878C19.7483 11.661 20.059 11.3424 20.2886 10.922C20.5318 10.5017 20.6534 9.98644 20.6534 9.37627Z" fill="#F2F2F2"/>
<path d="M37.7906 3.70169V15.0508H34.3255V13.5051C33.9742 14.0068 33.4947 14.4136 32.8868 14.7254C32.2924 15.0237 31.6304 15.1729 30.9009 15.1729C30.0363 15.1729 29.2731 14.983 28.6111 14.6034C27.9492 14.2102 27.4358 13.6475 27.0711 12.9153C26.7063 12.183 26.524 11.322 26.524 10.3322V3.70169H29.9688V9.8644C29.9688 10.6237 30.1647 11.2136 30.5564 11.6339C30.9482 12.0542 31.4751 12.2644 32.137 12.2644C32.8125 12.2644 33.3461 12.0542 33.7378 11.6339C34.1296 11.2136 34.3255 10.6237 34.3255 9.8644V3.70169H37.7906Z" fill="#F2F2F2"/>
<path d="M50.9382 9.19322C50.9382 9.51864 50.9179 9.85763 50.8774 10.2102H43.0353C43.0894 10.9153 43.3123 11.4576 43.704 11.8373C44.1093 12.2034 44.6024 12.3864 45.1833 12.3864C46.0479 12.3864 46.649 12.0203 46.9868 11.2881H50.6747C50.4856 12.0339 50.1411 12.7051 49.6413 13.3017C49.155 13.8983 48.5403 14.3661 47.7973 14.7051C47.0543 15.0441 46.2235 15.2136 45.3049 15.2136C44.1971 15.2136 43.211 14.9763 42.3464 14.5017C41.4818 14.0271 40.8063 13.3491 40.32 12.4678C39.8337 11.5864 39.5905 10.5559 39.5905 9.37627C39.5905 8.19661 39.8269 7.1661 40.2998 6.28474C40.7861 5.40339 41.4615 4.72542 42.3261 4.25085C43.1907 3.77627 44.1836 3.53898 45.3049 3.53898C46.3991 3.53898 47.3718 3.76949 48.2228 4.23051C49.0739 4.69152 49.7359 5.34915 50.2087 6.20339C50.695 7.05763 50.9382 8.05423 50.9382 9.19322ZM47.392 8.27796C47.392 7.68135 47.1894 7.20678 46.7841 6.85424C46.3788 6.50169 45.8723 6.32542 45.2643 6.32542C44.6835 6.32542 44.1904 6.49491 43.7851 6.8339C43.3933 7.17288 43.1502 7.65423 43.0556 8.27796H47.392Z" fill="#F2F2F2"/>
<path d="M52.0772 9.35593C52.0772 8.18983 52.2933 7.1661 52.7256 6.28474C53.1714 5.40339 53.7726 4.72542 54.5291 4.25085C55.2856 3.77627 56.1299 3.53898 57.062 3.53898C57.8591 3.53898 58.5548 3.70169 59.1492 4.02712C59.7571 4.35254 60.2232 4.77966 60.5474 5.30847V3.70169H64.0125V15.0508H60.5474V13.4441C60.2097 13.9729 59.7368 14.4 59.1289 14.7254C58.5345 15.0508 57.8388 15.2136 57.0418 15.2136C56.1232 15.2136 55.2856 14.9763 54.5291 14.5017C53.7726 14.0136 53.1714 13.3288 52.7256 12.4475C52.2933 11.5525 52.0772 10.522 52.0772 9.35593ZM60.5474 9.37627C60.5474 8.50847 60.3042 7.82373 59.8179 7.32203C59.3451 6.82034 58.7642 6.56949 58.0752 6.56949C57.3863 6.56949 56.7986 6.82034 56.3123 7.32203C55.8395 7.81017 55.6031 8.48813 55.6031 9.35593C55.6031 10.2237 55.8395 10.9153 56.3123 11.4305C56.7986 11.9322 57.3863 12.183 58.0752 12.183C58.7642 12.183 59.3451 11.9322 59.8179 11.4305C60.3042 10.9288 60.5474 10.2441 60.5474 9.37627Z" fill="#F2F2F2"/>
<path d="M73.4292 15.0508L69.9844 10.2915V15.0508H66.5193V0H69.9844V8.31864L73.4089 3.70169H77.6846L72.9834 9.39661L77.7251 15.0508H73.4292Z" fill="#F2F2F2"/>
<path d="M90.5958 3.70169L83.5035 20.4407H79.775L82.3688 14.6644L77.7689 3.70169H81.6393L84.2533 10.8L86.847 3.70169H90.5958Z" fill="#F2F2F2"/>
<path fill-rule="evenodd" clip-rule="evenodd" d="M95.9931 27.5997L90.7642 32.2034V15.2543L94.2913 18.7809C93.7162 19.3533 93.3602 20.1457 93.3602 21.0211C93.3602 22.7668 94.7755 24.1819 96.5214 24.1819C97.397 24.1819 98.1894 23.826 98.7619 23.251L103.007 27.4953L95.9931 27.5997ZM97.8678 22.3569L95.1854 19.675C94.8391 20.0185 94.6247 20.4948 94.6247 21.0211C94.6247 22.0685 95.4739 22.9176 96.5214 22.9176C97.0478 22.9176 97.5241 22.7032 97.8678 22.3569Z" fill="#FDE50B"/>
<path d="M94.0092 26.4531C94.0092 26.9907 93.5734 27.4265 93.0357 27.4265C92.4981 27.4265 92.0622 26.9907 92.0622 26.4531C92.0622 25.9155 92.4981 25.4797 93.0357 25.4797C93.5734 25.4797 94.0092 25.9155 94.0092 26.4531Z" fill="#FDE50B"/>
<path d="M93.3602 21.021C93.3602 20.1456 93.7162 19.3533 94.2913 18.7809L95.1854 19.6749C94.8391 20.0185 94.6247 20.4947 94.6247 21.021C94.6247 22.0684 95.4739 22.9175 96.5214 22.9175C97.0478 22.9175 97.5241 22.7031 97.8678 22.3569L98.7619 23.2509C98.1894 23.8259 97.397 24.1818 96.5214 24.1818C94.7755 24.1818 93.3602 22.7667 93.3602 21.021Z" fill="#222222"/>
<path d="M94.0092 26.4531C94.0092 26.9907 93.5734 27.4265 93.0357 27.4265C92.4981 27.4265 92.0622 26.9907 92.0622 26.4531C92.0622 25.9155 92.4981 25.4797 93.0357 25.4797C93.5734 25.4797 94.0092 25.9155 94.0092 26.4531Z" fill="#222222"/>
</svg>
