<svg width="480" height="124" viewBox="0 0 480 124" fill="none" xmlns="http://www.w3.org/2000/svg">
<mask id="mask0_5293_81900" style="mask-type:alpha" maskUnits="userSpaceOnUse" x="0" y="0" width="480" height="124">
<path d="M0 16C0 7.16344 7.16344 0 16 0H464C472.837 0 480 7.16344 480 16V108C480 116.837 472.837 124 464 124H16C7.16346 124 0 116.837 0 108V16Z" fill="#032349"/>
</mask>
<g mask="url(#mask0_5293_81900)">
<path d="M239 -264.434L252.029 -248.871C259.568 -239.866 259.568 -226.752 252.029 -217.747V-217.747C244.49 -208.742 244.49 -195.628 252.029 -186.622V-186.622C259.568 -177.617 259.568 -164.503 252.029 -155.498V-155.498C244.49 -146.493 244.49 -133.379 252.029 -124.373V-124.373C259.568 -115.368 259.568 -102.254 252.029 -93.2489V-93.2489C244.49 -84.2438 244.49 -71.1296 252.029 -62.1244V-62.1244C259.568 -53.1193 259.568 -40.0051 252.029 -31V-31C244.49 -21.9948 244.49 -8.88059 252.029 0.124552V0.124552C259.568 9.12969 259.568 22.244 252.029 31.2491V31.2491C244.49 40.2543 244.49 53.3685 252.029 62.3737V62.3737C259.568 71.3788 259.568 84.493 252.029 93.4982V93.4982C244.49 102.503 244.49 115.618 252.029 124.623V124.623C259.568 133.628 259.568 146.742 252.029 155.747V155.747C244.49 164.752 244.49 177.867 252.029 186.872V186.872C259.568 195.877 259.568 208.991 252.029 217.996V217.996C244.49 227.001 244.49 240.116 252.029 249.121V249.121C259.568 258.126 259.568 271.24 252.029 280.245V280.245C244.49 289.25 244.49 302.364 252.029 311.37V311.37C259.568 320.375 259.568 333.489 252.029 342.494V342.494C244.49 351.499 244.49 364.613 252.029 373.619V373.619C259.568 382.624 259.568 395.738 252.029 404.743V404.743C244.49 413.748 244.49 426.862 252.029 435.868V435.868C259.568 444.873 259.568 457.987 252.029 466.992V466.992C244.49 475.997 244.49 489.111 252.029 498.117V498.117C259.568 507.122 259.568 520.236 252.029 529.241V529.241C244.49 538.246 244.49 551.36 252.029 560.366V560.366C259.568 569.371 259.568 582.485 252.029 591.49V591.49C244.49 600.495 244.49 613.609 252.029 622.615V622.615C259.568 631.62 259.568 644.734 252.029 653.739V653.739C244.49 662.744 244.49 675.858 252.029 684.864V684.864C259.568 693.869 259.568 706.983 252.029 715.988L239 731.55" stroke="#001A39" stroke-width="24" stroke-miterlimit="10"/>
<path d="M286.517 -264.434L299.546 -248.871C307.086 -239.866 307.086 -226.752 299.546 -217.747V-217.747C292.007 -208.742 292.007 -195.628 299.546 -186.622V-186.622C307.086 -177.617 307.086 -164.503 299.546 -155.498V-155.498C292.007 -146.493 292.007 -133.379 299.546 -124.373V-124.373C307.086 -115.368 307.086 -102.254 299.546 -93.2489V-93.2489C292.007 -84.2438 292.007 -71.1296 299.546 -62.1244V-62.1244C307.086 -53.1193 307.086 -40.0051 299.546 -31V-31C292.007 -21.9948 292.007 -8.88059 299.546 0.124552V0.124552C307.086 9.12969 307.086 22.244 299.546 31.2491V31.2491C292.007 40.2543 292.007 53.3685 299.546 62.3737V62.3737C307.086 71.3788 307.086 84.493 299.546 93.4982V93.4982C292.007 102.503 292.007 115.618 299.546 124.623V124.623C307.086 133.628 307.086 146.742 299.546 155.747V155.747C292.007 164.752 292.007 177.867 299.546 186.872V186.872C307.086 195.877 307.086 208.991 299.546 217.996V217.996C292.007 227.001 292.007 240.116 299.546 249.121V249.121C307.086 258.126 307.086 271.24 299.546 280.245V280.245C292.007 289.25 292.007 302.364 299.546 311.37V311.37C307.086 320.375 307.086 333.489 299.546 342.494V342.494C292.007 351.499 292.007 364.613 299.546 373.619V373.619C307.086 382.624 307.086 395.738 299.546 404.743V404.743C292.007 413.748 292.007 426.862 299.546 435.868V435.868C307.086 444.873 307.086 457.987 299.546 466.992V466.992C292.007 475.997 292.007 489.111 299.546 498.117V498.117C307.086 507.122 307.086 520.236 299.546 529.241V529.241C292.007 538.246 292.007 551.36 299.546 560.366V560.366C307.086 569.371 307.086 582.485 299.546 591.49V591.49C292.007 600.495 292.007 613.609 299.546 622.615V622.615C307.086 631.62 307.086 644.734 299.546 653.739V653.739C292.007 662.744 292.007 675.858 299.546 684.864V684.864C307.086 693.869 307.086 706.983 299.546 715.988L286.517 731.55" stroke="#001A39" stroke-width="24" stroke-miterlimit="10"/>
<path d="M334.036 -264.434L347.141 -248.871C354.715 -239.879 354.715 -226.74 347.141 -217.747V-217.747C339.568 -208.754 339.568 -195.615 347.141 -186.622V-186.622C354.715 -177.63 354.715 -164.491 347.141 -155.498V-155.498C339.568 -146.505 339.568 -133.366 347.141 -124.373V-124.373C354.715 -115.381 354.715 -102.242 347.141 -93.2489V-93.2489C339.568 -84.2562 339.568 -71.1172 347.141 -62.1244V-62.1244C354.715 -53.1317 354.715 -39.9927 347.141 -31V-31C339.568 -22.0072 339.568 -8.86823 347.141 0.124552V0.124552C354.715 9.11733 354.715 22.2563 347.141 31.2491V31.2491C339.568 40.2419 339.568 53.3809 347.141 62.3737V62.3737C354.715 71.3665 354.715 84.5054 347.141 93.4982V93.4982C339.568 102.491 339.568 115.63 347.141 124.623V124.623C354.715 133.615 354.715 146.754 347.141 155.747V155.747C339.568 164.74 339.568 177.879 347.141 186.872V186.872C354.715 195.864 354.715 209.003 347.141 217.996V217.996C339.568 226.989 339.568 240.128 347.141 249.121V249.121C354.715 258.113 354.715 271.252 347.141 280.245V280.245C339.568 289.238 339.568 302.377 347.141 311.37V311.37C354.715 320.362 354.715 333.501 347.141 342.494V342.494C339.568 351.487 339.568 364.626 347.141 373.619V373.619C354.715 382.611 354.715 395.75 347.141 404.743V404.743C339.568 413.736 339.568 426.875 347.141 435.868V435.868C354.715 444.86 354.715 457.999 347.141 466.992V466.992C339.568 475.985 339.568 489.124 347.141 498.117V498.117C354.715 507.109 354.715 520.248 347.141 529.241V529.241C339.568 538.234 339.568 551.373 347.141 560.366V560.366C354.715 569.358 354.715 582.497 347.141 591.49V591.49C339.568 600.483 339.568 613.622 347.141 622.615V622.615C354.715 631.607 354.715 644.746 347.141 653.739V653.739C339.568 662.732 339.568 675.871 347.141 684.864V684.864C354.715 693.856 354.715 706.995 347.141 715.988L334.036 731.55" stroke="#001A39" stroke-width="24" stroke-miterlimit="10"/>
<path d="M381.706 -264.434L394.735 -248.871C402.274 -239.866 402.274 -226.752 394.735 -217.747V-217.747C387.196 -208.742 387.196 -195.628 394.735 -186.622V-186.622C402.274 -177.617 402.274 -164.503 394.735 -155.498V-155.498C387.196 -146.493 387.196 -133.379 394.735 -124.373V-124.373C402.274 -115.368 402.274 -102.254 394.735 -93.2489V-93.2489C387.196 -84.2438 387.196 -71.1296 394.735 -62.1244V-62.1244C402.274 -53.1193 402.274 -40.0051 394.735 -31V-31C387.196 -21.9948 387.196 -8.88059 394.735 0.124552V0.124552C402.274 9.12969 402.274 22.244 394.735 31.2491V31.2491C387.196 40.2543 387.196 53.3685 394.735 62.3737V62.3737C402.274 71.3788 402.274 84.493 394.735 93.4982V93.4982C387.196 102.503 387.196 115.618 394.735 124.623V124.623C402.274 133.628 402.274 146.742 394.735 155.747V155.747C387.196 164.752 387.196 177.867 394.735 186.872V186.872C402.274 195.877 402.274 208.991 394.735 217.996V217.996C387.196 227.001 387.196 240.116 394.735 249.121V249.121C402.274 258.126 402.274 271.24 394.735 280.245V280.245C387.196 289.25 387.196 302.364 394.735 311.37V311.37C402.274 320.375 402.274 333.489 394.735 342.494V342.494C387.196 351.499 387.196 364.613 394.735 373.619V373.619C402.274 382.624 402.274 395.738 394.735 404.743V404.743C387.196 413.748 387.196 426.862 394.735 435.868V435.868C402.274 444.873 402.274 457.987 394.735 466.992V466.992C387.196 475.997 387.196 489.111 394.735 498.117V498.117C402.274 507.122 402.274 520.236 394.735 529.241V529.241C387.196 538.246 387.196 551.36 394.735 560.366V560.366C402.274 569.371 402.274 582.485 394.735 591.49V591.49C387.196 600.495 387.196 613.609 394.735 622.615V622.615C402.274 631.62 402.274 644.734 394.735 653.739V653.739C387.196 662.744 387.196 675.858 394.735 684.864V684.864C402.274 693.869 402.274 706.983 394.735 715.988L381.706 731.55" stroke="#001A39" stroke-width="24" stroke-miterlimit="10"/>
<path d="M429.224 -264.434L442.253 -248.871C449.792 -239.866 449.792 -226.752 442.253 -217.747V-217.747C434.714 -208.742 434.714 -195.628 442.253 -186.622V-186.622C449.792 -177.617 449.792 -164.503 442.253 -155.498V-155.498C434.714 -146.493 434.714 -133.379 442.253 -124.373V-124.373C449.792 -115.368 449.792 -102.254 442.253 -93.2489V-93.2489C434.714 -84.2438 434.714 -71.1296 442.253 -62.1244V-62.1244C449.792 -53.1193 449.792 -40.0051 442.253 -31V-31C434.714 -21.9948 434.714 -8.88059 442.253 0.124552V0.124552C449.792 9.12969 449.792 22.244 442.253 31.2491V31.2491C434.714 40.2543 434.714 53.3685 442.253 62.3737V62.3737C449.792 71.3788 449.792 84.493 442.253 93.4982V93.4982C434.714 102.503 434.714 115.618 442.253 124.623V124.623C449.792 133.628 449.792 146.742 442.253 155.747V155.747C434.714 164.752 434.714 177.867 442.253 186.872V186.872C449.792 195.877 449.792 208.991 442.253 217.996V217.996C434.714 227.001 434.714 240.116 442.253 249.121V249.121C449.792 258.126 449.792 271.24 442.253 280.245V280.245C434.714 289.25 434.714 302.364 442.253 311.37V311.37C449.792 320.375 449.792 333.489 442.253 342.494V342.494C434.714 351.499 434.714 364.613 442.253 373.619V373.619C449.792 382.624 449.792 395.738 442.253 404.743V404.743C434.714 413.748 434.714 426.862 442.253 435.868V435.868C449.792 444.873 449.792 457.987 442.253 466.992V466.992C434.714 475.997 434.714 489.111 442.253 498.117V498.117C449.792 507.122 449.792 520.236 442.253 529.241V529.241C434.714 538.246 434.714 551.36 442.253 560.366V560.366C449.792 569.371 449.792 582.485 442.253 591.49V591.49C434.714 600.495 434.714 613.609 442.253 622.615V622.615C449.792 631.62 449.792 644.734 442.253 653.739V653.739C434.714 662.744 434.714 675.858 442.253 684.864V684.864C449.792 693.869 449.792 706.983 442.253 715.988L429.224 731.55" stroke="#001A39" stroke-width="24" stroke-miterlimit="10"/>
<path d="M476.742 -264.434L489.847 -248.871C497.421 -239.879 497.421 -226.74 489.847 -217.747V-217.747C482.274 -208.754 482.274 -195.615 489.847 -186.622V-186.622C497.421 -177.63 497.421 -164.491 489.847 -155.498V-155.498C482.274 -146.505 482.274 -133.366 489.847 -124.373V-124.373C497.421 -115.381 497.421 -102.242 489.847 -93.2489V-93.2489C482.274 -84.2562 482.274 -71.1172 489.847 -62.1244V-62.1244C497.421 -53.1317 497.421 -39.9927 489.847 -31V-31C482.274 -22.0072 482.274 -8.86823 489.847 0.124552V0.124552C497.421 9.11733 497.421 22.2563 489.847 31.2491V31.2491C482.274 40.2419 482.274 53.3809 489.847 62.3737V62.3737C497.421 71.3665 497.421 84.5054 489.847 93.4982V93.4982C482.274 102.491 482.274 115.63 489.847 124.623V124.623C497.421 133.615 497.421 146.754 489.847 155.747V155.747C482.274 164.74 482.274 177.879 489.847 186.872V186.872C497.421 195.864 497.421 209.003 489.847 217.996V217.996C482.274 226.989 482.274 240.128 489.847 249.121V249.121C497.421 258.113 497.421 271.252 489.847 280.245V280.245C482.274 289.238 482.274 302.377 489.847 311.37V311.37C497.421 320.362 497.421 333.501 489.847 342.494V342.494C482.274 351.487 482.274 364.626 489.847 373.619V373.619C497.421 382.611 497.421 395.75 489.847 404.743V404.743C482.274 413.736 482.274 426.875 489.847 435.868V435.868C497.421 444.86 497.421 457.999 489.847 466.992V466.992C482.274 475.985 482.274 489.124 489.847 498.117V498.117C497.421 507.109 497.421 520.248 489.847 529.241V529.241C482.274 538.234 482.274 551.373 489.847 560.366V560.366C497.421 569.358 497.421 582.497 489.847 591.49V591.49C482.274 600.483 482.274 613.622 489.847 622.615V622.615C497.421 631.607 497.421 644.746 489.847 653.739V653.739C482.274 662.732 482.274 675.871 489.847 684.864V684.864C497.421 693.856 497.421 706.995 489.847 715.988L476.742 731.55" stroke="#001A39" stroke-width="24" stroke-miterlimit="10"/>
</g>
</svg>
