<svg width="33" height="30" viewBox="0 0 33 30" fill="none" xmlns="http://www.w3.org/2000/svg">
<path fill-rule="evenodd" clip-rule="evenodd" d="M3.64679 0.646447C3.84205 0.451184 4.15863 0.451184 4.35389 0.646447L7.53587 3.82843C7.73114 4.02369 7.73114 4.34027 7.53587 4.53553C7.34061 4.7308 7.02403 4.7308 6.82877 4.53553L4.52755 2.23431C5.17311 16.8493 17.2261 28.5 32.0003 28.5C32.2765 28.5 32.5003 28.7239 32.5003 29C32.5003 29.2761 32.2765 29.5 32.0003 29.5C16.6565 29.5 4.14472 17.3745 3.52445 2.183L1.17191 4.53553C0.976651 4.7308 0.660068 4.7308 0.464806 4.53553C0.269544 4.34027 0.269544 4.02369 0.464806 3.82843L3.64679 0.646447Z" fill="#001A39"/>
</svg>
