<?xml version="1.0" standalone="no"?>
<!DOCTYPE svg PUBLIC "-//W3C//DTD SVG 20010904//EN"
 "http://www.w3.org/TR/2001/REC-SVG-20010904/DTD/svg10.dtd">
<svg version="1.0" xmlns="http://www.w3.org/2000/svg"
 width="700.000000pt" height="700.000000pt" viewBox="0 0 700.000000 700.000000"
 preserveAspectRatio="xMidYMid meet">
<metadata>
Created by potrace 1.11, written by Peter Selinger 2001-2013
</metadata>
<g transform="translate(0.000000,700.000000) scale(0.100000,-0.100000)"
fill="#000000" stroke="none">
<path d="M1470 3516 c0 -3293 1 -3478 17 -3465 10 8 486 426 1060 931 l1042
916 93 6 c51 3 658 13 1348 21 690 9 1308 19 1373 23 l118 7 -1568 1565 c-863
861 -1999 1995 -2526 2520 l-957 954 0 -3478z m1423 1227 c-313 -375 -259
-923 122 -1220 323 -253 785 -238 1087 35 l39 35 565 -564 c310 -310 564 -566
564 -570 0 -5 -238 -10 -1384 -26 l-489 -6 -671 -590 c-369 -324 -686 -603
-703 -620 l-33 -31 0 2275 0 2274 472 -472 471 -471 -40 -49z m719 -625 c153
-153 278 -282 278 -287 0 -16 -76 -70 -142 -101 -287 -134 -630 33 -703 342
-36 155 -5 300 93 431 l36 47 80 -77 c44 -43 205 -203 358 -355z"/>
<path d="M2494 2971 c-51 -23 -104 -75 -130 -127 -26 -53 -26 -174 0 -224 25
-49 74 -98 121 -123 57 -31 173 -30 231 0 197 105 191 382 -11 474 -54 25
-157 25 -211 0z"/>
</g>
</svg>
