<svg width="824" height="504" viewBox="0 0 824 504" fill="none" xmlns="http://www.w3.org/2000/svg">
<rect width="824" height="504" rx="24" fill="white"/>
<circle cx="62" cy="36" r="6" fill="#FBC73B"/>
<circle cx="38" cy="36" r="6" fill="#F96155"/>
<circle cx="86" cy="36" r="6" fill="#0074E0"/>
<path d="M788 27C786.9 27 786 27.9 786 29C786 30.1 786.9 31 788 31C789.1 31 790 30.1 790 29C790 27.9 789.1 27 788 27ZM788 41C786.9 41 786 41.9 786 43C786 44.1 786.9 45 788 45C789.1 45 790 44.1 790 43C790 41.9 789.1 41 788 41ZM788 34C786.9 34 786 34.9 786 36C786 37.1 786.9 38 788 38C789.1 38 790 37.1 790 36C790 34.9 789.1 34 788 34Z" fill="#707070"/>
<rect x="132" y="20" width="560" height="32" rx="16" fill="#F2F2F2"/>
<path d="M363.417 33.876L359.127 44.354H357.905L359.309 40.922L356.436 33.876H357.749L359.985 39.648L362.195 33.876H363.417ZM367.713 41.117C367.046 41.117 366.439 40.9653 365.893 40.662C365.356 40.3587 364.931 39.9297 364.619 39.375C364.316 38.8117 364.164 38.1617 364.164 37.425C364.164 36.697 364.32 36.0557 364.632 35.501C364.953 34.9377 365.386 34.5087 365.932 34.214C366.478 33.9107 367.089 33.759 367.765 33.759C368.441 33.759 369.052 33.9107 369.598 34.214C370.144 34.5087 370.573 34.9333 370.885 35.488C371.206 36.0427 371.366 36.6883 371.366 37.425C371.366 38.1617 371.202 38.8117 370.872 39.375C370.552 39.9297 370.114 40.3587 369.559 40.662C369.005 40.9653 368.389 41.117 367.713 41.117ZM367.713 40.077C368.138 40.077 368.537 39.9773 368.909 39.778C369.282 39.5787 369.581 39.2797 369.806 38.881C370.04 38.4823 370.157 37.997 370.157 37.425C370.157 36.853 370.045 36.3677 369.819 35.969C369.594 35.5703 369.299 35.2757 368.935 35.085C368.571 34.8857 368.177 34.786 367.752 34.786C367.319 34.786 366.92 34.8857 366.556 35.085C366.201 35.2757 365.915 35.5703 365.698 35.969C365.482 36.3677 365.373 36.853 365.373 37.425C365.373 38.0057 365.477 38.4953 365.685 38.894C365.902 39.2927 366.188 39.5917 366.543 39.791C366.899 39.9817 367.289 40.077 367.713 40.077ZM379.24 33.876V41H378.057V39.947C377.832 40.311 377.515 40.597 377.108 40.805C376.709 41.0043 376.267 41.104 375.782 41.104C375.227 41.104 374.729 40.9913 374.287 40.766C373.845 40.532 373.494 40.1853 373.234 39.726C372.983 39.2667 372.857 38.7077 372.857 38.049V33.876H374.027V37.893C374.027 38.595 374.205 39.1367 374.56 39.518C374.915 39.8907 375.401 40.077 376.016 40.077C376.649 40.077 377.147 39.882 377.511 39.492C377.875 39.102 378.057 38.5343 378.057 37.789V33.876H379.24ZM382.42 35.033C382.628 34.6257 382.923 34.3093 383.304 34.084C383.694 33.8587 384.167 33.746 384.721 33.746V34.968H384.409C383.083 34.968 382.42 35.6873 382.42 37.126V41H381.237V33.876H382.42V35.033ZM395.577 33.876L393.354 41H392.132L390.416 35.345L388.7 41H387.478L385.242 33.876H386.451L388.089 39.856L389.857 33.876H391.066L392.795 39.869L394.407 33.876H395.577ZM403.251 37.165C403.251 37.3903 403.238 37.6287 403.212 37.88H397.518C397.561 38.582 397.8 39.1323 398.233 39.531C398.675 39.921 399.208 40.116 399.832 40.116C400.343 40.116 400.768 39.999 401.106 39.765C401.453 39.5223 401.695 39.2017 401.834 38.803H403.108C402.917 39.4877 402.536 40.0467 401.964 40.48C401.392 40.9047 400.681 41.117 399.832 41.117C399.156 41.117 398.549 40.9653 398.012 40.662C397.483 40.3587 397.067 39.9297 396.764 39.375C396.461 38.8117 396.309 38.1617 396.309 37.425C396.309 36.6883 396.456 36.0427 396.751 35.488C397.046 34.9333 397.457 34.5087 397.986 34.214C398.523 33.9107 399.139 33.759 399.832 33.759C400.508 33.759 401.106 33.9063 401.626 34.201C402.146 34.4957 402.545 34.903 402.822 35.423C403.108 35.9343 403.251 36.515 403.251 37.165ZM402.029 36.918C402.029 36.4673 401.929 36.0817 401.73 35.761C401.531 35.4317 401.258 35.1847 400.911 35.02C400.573 34.8467 400.196 34.76 399.78 34.76C399.182 34.76 398.671 34.9507 398.246 35.332C397.83 35.7133 397.592 36.242 397.531 36.918H402.029ZM405.996 35.202C406.238 34.7773 406.594 34.4307 407.062 34.162C407.53 33.8933 408.063 33.759 408.661 33.759C409.302 33.759 409.878 33.9107 410.39 34.214C410.901 34.5173 411.304 34.9463 411.599 35.501C411.893 36.047 412.041 36.684 412.041 37.412C412.041 38.1313 411.893 38.7727 411.599 39.336C411.304 39.8993 410.897 40.337 410.377 40.649C409.865 40.961 409.293 41.117 408.661 41.117C408.045 41.117 407.504 40.9827 407.036 40.714C406.576 40.4453 406.23 40.103 405.996 39.687V41H404.813V31.38H405.996V35.202ZM410.832 37.412C410.832 36.8747 410.723 36.4067 410.507 36.008C410.29 35.6093 409.995 35.306 409.623 35.098C409.259 34.89 408.856 34.786 408.414 34.786C407.98 34.786 407.577 34.8943 407.205 35.111C406.841 35.319 406.546 35.6267 406.321 36.034C406.104 36.4327 405.996 36.8963 405.996 37.425C405.996 37.9623 406.104 38.4347 406.321 38.842C406.546 39.2407 406.841 39.5483 407.205 39.765C407.577 39.973 407.98 40.077 408.414 40.077C408.856 40.077 409.259 39.973 409.623 39.765C409.995 39.5483 410.29 39.2407 410.507 38.842C410.723 38.4347 410.832 37.958 410.832 37.412ZM416.12 41.117C415.574 41.117 415.084 41.026 414.651 40.844C414.217 40.6533 413.875 40.3933 413.624 40.064C413.372 39.726 413.234 39.3403 413.208 38.907H414.43C414.464 39.2623 414.629 39.5527 414.924 39.778C415.227 40.0033 415.621 40.116 416.107 40.116C416.557 40.116 416.913 40.0163 417.173 39.817C417.433 39.6177 417.563 39.3663 417.563 39.063C417.563 38.751 417.424 38.5213 417.147 38.374C416.869 38.218 416.44 38.0663 415.86 37.919C415.331 37.7803 414.898 37.6417 414.56 37.503C414.23 37.3557 413.944 37.1433 413.702 36.866C413.468 36.58 413.351 36.2073 413.351 35.748C413.351 35.384 413.459 35.0503 413.676 34.747C413.892 34.4437 414.2 34.2053 414.599 34.032C414.997 33.85 415.452 33.759 415.964 33.759C416.752 33.759 417.389 33.9583 417.875 34.357C418.36 34.7557 418.62 35.3017 418.655 35.995H417.472C417.446 35.6223 417.294 35.3233 417.017 35.098C416.748 34.8727 416.384 34.76 415.925 34.76C415.5 34.76 415.162 34.851 414.911 35.033C414.659 35.215 414.534 35.4533 414.534 35.748C414.534 35.982 414.607 36.177 414.755 36.333C414.911 36.4803 415.101 36.6017 415.327 36.697C415.561 36.7837 415.881 36.8833 416.289 36.996C416.8 37.1347 417.216 37.2733 417.537 37.412C417.857 37.542 418.13 37.7413 418.356 38.01C418.59 38.2787 418.711 38.6297 418.72 39.063C418.72 39.453 418.611 39.804 418.395 40.116C418.178 40.428 417.87 40.675 417.472 40.857C417.082 41.0303 416.631 41.117 416.12 41.117ZM421.001 32.719C420.775 32.719 420.585 32.641 420.429 32.485C420.273 32.329 420.195 32.1383 420.195 31.913C420.195 31.6877 420.273 31.497 420.429 31.341C420.585 31.185 420.775 31.107 421.001 31.107C421.217 31.107 421.399 31.185 421.547 31.341C421.703 31.497 421.781 31.6877 421.781 31.913C421.781 32.1383 421.703 32.329 421.547 32.485C421.399 32.641 421.217 32.719 421.001 32.719ZM421.573 33.876V41H420.39V33.876H421.573ZM425.032 34.851V39.05C425.032 39.3967 425.106 39.6437 425.253 39.791C425.4 39.9297 425.656 39.999 426.02 39.999H426.891V41H425.825C425.166 41 424.672 40.8483 424.343 40.545C424.014 40.2417 423.849 39.7433 423.849 39.05V34.851H422.926V33.876H423.849V32.082H425.032V33.876H426.891V34.851H425.032ZM434.824 37.165C434.824 37.3903 434.811 37.6287 434.785 37.88H429.091C429.135 38.582 429.373 39.1323 429.806 39.531C430.248 39.921 430.781 40.116 431.405 40.116C431.917 40.116 432.341 39.999 432.679 39.765C433.026 39.5223 433.269 39.2017 433.407 38.803H434.681C434.491 39.4877 434.109 40.0467 433.537 40.48C432.965 40.9047 432.255 41.117 431.405 41.117C430.729 41.117 430.123 40.9653 429.585 40.662C429.057 40.3587 428.641 39.9297 428.337 39.375C428.034 38.8117 427.882 38.1617 427.882 37.425C427.882 36.6883 428.03 36.0427 428.324 35.488C428.619 34.9333 429.031 34.5087 429.559 34.214C430.097 33.9107 430.712 33.759 431.405 33.759C432.081 33.759 432.679 33.9063 433.199 34.201C433.719 34.4957 434.118 34.903 434.395 35.423C434.681 35.9343 434.824 36.515 434.824 37.165ZM433.602 36.918C433.602 36.4673 433.503 36.0817 433.303 35.761C433.104 35.4317 432.831 35.1847 432.484 35.02C432.146 34.8467 431.769 34.76 431.353 34.76C430.755 34.76 430.244 34.9507 429.819 35.332C429.403 35.7133 429.165 36.242 429.104 36.918H433.602ZM436.763 41.078C436.537 41.078 436.347 41 436.191 40.844C436.035 40.688 435.957 40.4973 435.957 40.272C435.957 40.0467 436.035 39.856 436.191 39.7C436.347 39.544 436.537 39.466 436.763 39.466C436.979 39.466 437.161 39.544 437.309 39.7C437.465 39.856 437.543 40.0467 437.543 40.272C437.543 40.4973 437.465 40.688 437.309 40.844C437.161 41 436.979 41.078 436.763 41.078ZM438.673 37.425C438.673 36.6883 438.821 36.047 439.115 35.501C439.41 34.9463 439.817 34.5173 440.337 34.214C440.866 33.9107 441.468 33.759 442.144 33.759C443.02 33.759 443.739 33.9713 444.302 34.396C444.874 34.8207 445.251 35.41 445.433 36.164H444.159C444.038 35.7307 443.8 35.3883 443.444 35.137C443.098 34.8857 442.664 34.76 442.144 34.76C441.468 34.76 440.922 34.994 440.506 35.462C440.09 35.9213 439.882 36.5757 439.882 37.425C439.882 38.283 440.09 38.946 440.506 39.414C440.922 39.882 441.468 40.116 442.144 40.116C442.664 40.116 443.098 39.9947 443.444 39.752C443.791 39.5093 444.029 39.1627 444.159 38.712H445.433C445.243 39.44 444.861 40.025 444.289 40.467C443.717 40.9003 443.002 41.117 442.144 41.117C441.468 41.117 440.866 40.9653 440.337 40.662C439.817 40.3587 439.41 39.9297 439.115 39.375C438.821 38.8203 438.673 38.1703 438.673 37.425ZM450.119 41.117C449.451 41.117 448.845 40.9653 448.299 40.662C447.761 40.3587 447.337 39.9297 447.025 39.375C446.721 38.8117 446.57 38.1617 446.57 37.425C446.57 36.697 446.726 36.0557 447.038 35.501C447.358 34.9377 447.792 34.5087 448.338 34.214C448.884 33.9107 449.495 33.759 450.171 33.759C450.847 33.759 451.458 33.9107 452.004 34.214C452.55 34.5087 452.979 34.9333 453.291 35.488C453.611 36.0427 453.772 36.6883 453.772 37.425C453.772 38.1617 453.607 38.8117 453.278 39.375C452.957 39.9297 452.519 40.3587 451.965 40.662C451.41 40.9653 450.795 41.117 450.119 41.117ZM450.119 40.077C450.543 40.077 450.942 39.9773 451.315 39.778C451.687 39.5787 451.986 39.2797 452.212 38.881C452.446 38.4823 452.563 37.997 452.563 37.425C452.563 36.853 452.45 36.3677 452.225 35.969C451.999 35.5703 451.705 35.2757 451.341 35.085C450.977 34.8857 450.582 34.786 450.158 34.786C449.724 34.786 449.326 34.8857 448.962 35.085C448.606 35.2757 448.32 35.5703 448.104 35.969C447.887 36.3677 447.779 36.853 447.779 37.425C447.779 38.0057 447.883 38.4953 448.091 38.894C448.307 39.2927 448.593 39.5917 448.949 39.791C449.304 39.9817 449.694 40.077 450.119 40.077ZM463.894 33.746C464.449 33.746 464.943 33.863 465.376 34.097C465.81 34.3223 466.152 34.6647 466.403 35.124C466.655 35.5833 466.78 36.1423 466.78 36.801V41H465.61V36.97C465.61 36.2593 465.433 35.7177 465.077 35.345C464.731 34.9637 464.258 34.773 463.66 34.773C463.045 34.773 462.555 34.9723 462.191 35.371C461.827 35.761 461.645 36.3287 461.645 37.074V41H460.475V36.97C460.475 36.2593 460.298 35.7177 459.942 35.345C459.596 34.9637 459.123 34.773 458.525 34.773C457.91 34.773 457.42 34.9723 457.056 35.371C456.692 35.761 456.51 36.3287 456.51 37.074V41H455.327V33.876H456.51V34.903C456.744 34.5303 457.056 34.2443 457.446 34.045C457.845 33.8457 458.283 33.746 458.759 33.746C459.357 33.746 459.886 33.8803 460.345 34.149C460.805 34.4177 461.147 34.812 461.372 35.332C461.572 34.8293 461.901 34.4393 462.36 34.162C462.82 33.8847 463.331 33.746 463.894 33.746Z" fill="#707070"/>
<path d="M153.5 35H154C154.133 35 154.26 35.0527 154.354 35.1464C154.447 35.2402 154.5 35.3674 154.5 35.5V40.5C154.5 40.6326 154.447 40.7598 154.354 40.8536C154.26 40.9473 154.133 41 154 41H146C145.867 41 145.74 40.9473 145.646 40.8536C145.553 40.7598 145.5 40.6326 145.5 40.5V35.5C145.5 35.3674 145.553 35.2402 145.646 35.1464C145.74 35.0527 145.867 35 146 35H146.5V34.5C146.5 34.0404 146.591 33.5852 146.766 33.1606C146.942 32.736 147.2 32.3501 147.525 32.0251C147.85 31.7001 148.236 31.4423 148.661 31.2664C149.085 31.0905 149.54 31 150 31C150.46 31 150.915 31.0905 151.339 31.2664C151.764 31.4423 152.15 31.7001 152.475 32.0251C152.8 32.3501 153.058 32.736 153.234 33.1606C153.409 33.5852 153.5 34.0404 153.5 34.5V35ZM146.5 36V40H153.5V36H146.5ZM149.5 37H150.5V39H149.5V37ZM152.5 35V34.5C152.5 33.837 152.237 33.2011 151.768 32.7322C151.299 32.2634 150.663 32 150 32C149.337 32 148.701 32.2634 148.232 32.7322C147.763 33.2011 147.5 33.837 147.5 34.5V35H152.5Z" fill="#707070"/>
</svg>
