<svg width="80" height="80" viewBox="0 0 80 80" fill="none" xmlns="http://www.w3.org/2000/svg">
<path fill-rule="evenodd" clip-rule="evenodd" d="M67.1562 31.2995C66.9667 30.6356 66.275 30.2511 65.6111 30.4406C64.9473 30.6301 64.5628 31.3219 64.7523 31.9857C64.9316 32.614 65.0878 33.25 65.2201 33.8923C65.3594 34.5685 66.0205 35.0037 66.6967 34.8644C67.3728 34.7251 67.808 34.064 67.6687 33.3878C67.5237 32.6841 67.3526 31.9875 67.1562 31.2995Z" fill="#222222"/>
<path d="M67.0755 39.308C65.9733 39.2344 65.0202 40.0681 64.9466 41.1702C64.9024 41.8319 64.8322 42.4973 64.7352 43.1654C64.6381 43.8335 64.5161 44.4914 64.3702 45.1383C64.1273 46.2158 64.8038 47.2863 65.8813 47.5292C66.9588 47.7722 68.0293 47.0956 68.2723 46.0181C68.4408 45.2705 68.5817 44.5109 68.6936 43.7404C68.8055 42.9699 68.8866 42.2016 68.9377 41.4369C69.0113 40.3348 68.1776 39.3816 67.0755 39.308Z" fill="#222222" stroke="white" stroke-width="1.5" stroke-linecap="round"/>
<path fill-rule="evenodd" clip-rule="evenodd" d="M64.16 51.8522C63.2111 51.2868 61.9835 51.5977 61.4181 52.5466C59.345 56.026 56.4785 58.9385 53.1011 61.0705C52.167 61.6601 51.8878 62.8953 52.4774 63.8293C53.0671 64.7634 54.3022 65.0426 55.2363 64.453C59.1386 61.9896 62.4541 58.6226 64.8544 54.594C65.4198 53.6451 65.1089 52.4175 64.16 51.8522Z" fill="#222222"/>
<path d="M61.4181 52.5466L62.0624 52.9305L62.0624 52.9305L61.4181 52.5466ZM64.16 51.8522L64.5439 51.2079L64.5439 51.2079L64.16 51.8522ZM53.1011 61.0705L53.5014 61.7047L53.5014 61.7047L53.1011 61.0705ZM52.4774 63.8293L51.8432 64.2297L51.8432 64.2297L52.4774 63.8293ZM55.2363 64.453L55.6366 65.0872L55.6366 65.0872L55.2363 64.453ZM64.8544 54.594L65.4987 54.9779L65.4987 54.9779L64.8544 54.594ZM62.0624 52.9305C62.4158 52.3374 63.183 52.1431 63.7761 52.4965L64.5439 51.2079C63.2391 50.4305 61.5512 50.858 60.7738 52.1627L62.0624 52.9305ZM53.5014 61.7047C56.9773 59.5106 59.928 56.5128 62.0624 52.9305L60.7738 52.1627C58.7621 55.5391 55.9798 58.3664 52.7007 60.4363L53.5014 61.7047ZM53.1117 63.429C52.7431 62.8452 52.9177 62.0732 53.5014 61.7047L52.7007 60.4363C51.4164 61.247 51.0325 62.9454 51.8432 64.2297L53.1117 63.429ZM54.8359 63.8188C54.2521 64.1873 53.4802 64.0128 53.1117 63.429L51.8432 64.2297C52.6539 65.514 54.3523 65.8979 55.6366 65.0872L54.8359 63.8188ZM64.2101 54.2101C61.8711 58.1357 58.6399 61.4175 54.8359 63.8188L55.6366 65.0872C59.6374 62.5617 63.037 59.1095 65.4987 54.9779L64.2101 54.2101ZM63.7761 52.4965C64.3691 52.8498 64.5635 53.6171 64.2101 54.2101L65.4987 54.9779C66.2761 53.6732 65.8486 51.9853 64.5439 51.2079L63.7761 52.4965Z" fill="white"/>
<path d="M59.9828 69.054C60.5804 69.6734 60.1684 70.7082 59.3087 70.7474L37.2921 71.7509C36.4021 71.7915 35.9073 70.7358 36.508 70.0778L51.7194 53.4134C52.3152 52.7607 53.4027 53.1451 53.4561 54.0272L53.9895 62.8425L59.9828 69.054Z" fill="#FDE50B"/>
<path fill-rule="evenodd" clip-rule="evenodd" d="M51.7194 53.4134C52.3152 52.7607 53.4027 53.1451 53.4561 54.0272L53.9895 62.8425L59.9828 69.054C60.5804 69.6734 60.1684 70.7082 59.3087 70.7474L37.2921 71.7509C36.4021 71.7915 35.9073 70.7358 36.508 70.0778L51.7194 53.4134ZM51.9932 62.9633C52.022 63.4388 52.2195 63.8884 52.5503 64.2312L57.007 68.8502L39.6127 69.6431L43.067 65.8588C43.6813 66.4222 44.5111 66.7504 45.4096 66.7094C47.2011 66.6277 48.5871 65.1093 48.5055 63.3178C48.4645 62.4193 48.0622 61.6228 47.4453 61.0623L51.6026 56.508L51.9932 62.9633ZM46.5696 62.0216L43.9427 64.8995C44.3115 65.2388 44.8103 65.4365 45.3504 65.4119C46.4253 65.3629 47.257 64.4518 47.208 63.3769C47.1834 62.8368 46.941 62.358 46.5696 62.0216Z" fill="#222222"/>
<path d="M50.9539 65.7893C51.5056 65.7642 51.9733 66.191 51.9984 66.7427C52.0236 67.2944 51.5967 67.7621 51.045 67.7872C50.4933 67.8124 50.0256 67.3855 50.0005 66.8338C49.9753 66.2821 50.4022 65.8145 50.9539 65.7893Z" fill="#222222"/>
</svg>
