<svg width="1440" height="1024" viewBox="0 0 1440 1024" fill="none" xmlns="http://www.w3.org/2000/svg">
<g opacity="0.2">
<mask id="mask0" mask-type="alpha" maskUnits="userSpaceOnUse" x="0" y="0" width="1440" height="624">
<rect width="1440" height="624" fill="white"/>
</mask>
<g mask="url(#mask0)">
<path d="M662.812 119.892L663.429 115.369" stroke="#707070" stroke-width="2"/>
<path d="M661.041 117.276L665.201 117.985" stroke="#707070" stroke-width="2"/>
<path d="M270.562 88.2985L277.364 84.4763" stroke="#BFBFBF" stroke-width="2"/>
<path d="M272.344 83.2017L275.606 89.5717" stroke="#BFBFBF" stroke-width="2"/>
<path d="M576.928 249.917L576.277 245.875" stroke="#BFBFBF" stroke-width="2"/>
<path d="M574.736 248.128L578.47 247.663" stroke="#BFBFBF" stroke-width="2"/>
<ellipse cx="671.057" cy="224.604" rx="1.68134" ry="1.68175" transform="rotate(-3 671.057 224.604)" stroke="#BFBFBF" stroke-width="2"/>
<ellipse cx="675.063" cy="36.5844" rx="1.68134" ry="1.68175" transform="rotate(-3 675.063 36.5844)" stroke="#BFBFBF" stroke-width="2"/>
<ellipse cx="503.433" cy="66.935" rx="1.68134" ry="1.68175" transform="rotate(-3 503.433 66.935)" stroke="#BFBFBF" stroke-width="2"/>
<ellipse cx="537.752" cy="149.143" rx="1.68134" ry="1.68175" transform="rotate(-3 537.752 149.143)" stroke="#BFBFBF" stroke-width="2"/>
<path fill-rule="evenodd" clip-rule="evenodd" d="M459.986 31.284L455.861 27.0825C457.065 28.6303 458.409 30.073 459.986 31.284Z" stroke="#707070" stroke-width="2"/>
<path fill-rule="evenodd" clip-rule="evenodd" d="M489.607 112.703L494.877 110.079C493.034 110.745 491.246 111.578 489.607 112.703Z" stroke="#707070" stroke-width="2"/>
<path d="M409.504 52.5344L412.399 55.1651" stroke="#BFBFBF" stroke-width="2"/>
<path d="M443.822 134.742L446.717 137.373" stroke="#BFBFBF" stroke-width="2"/>
<path d="M304.824 261.321L307.743 263.951" stroke="#BFBFBF" stroke-width="2"/>
<path d="M336.217 74.1921L342.03 79.4278" stroke="#BFBFBF" stroke-width="2"/>
<path d="M372.495 162.813L374.389 155.222" stroke="#BFBFBF" stroke-width="2"/>
<ellipse cx="668.776" cy="134.053" rx="2.43673" ry="2.43732" transform="rotate(-3 668.776 134.053)" stroke="#707070" stroke-width="2"/>
<path fill-rule="evenodd" clip-rule="evenodd" d="M270.714 39.526C270.761 39.0354 271.131 38.6499 271.642 38.6231C272.153 38.5963 272.562 38.941 272.66 39.424C273.151 39.4715 273.536 39.8418 273.563 40.3529C273.59 40.8641 273.27 41.2714 272.762 41.3712C272.715 41.8618 272.345 42.2473 271.834 42.2741C271.323 42.3009 270.916 41.9805 270.816 41.4732C270.325 41.4257 269.94 41.0554 269.913 40.5442C269.886 40.0331 270.207 39.6258 270.714 39.526ZM272.178 39.5225C272.138 39.2317 271.887 39.0984 271.668 39.1099C271.449 39.1214 271.213 39.2802 271.204 39.5735C271.193 39.8182 271.007 39.9988 270.789 40.0346C270.209 40.1382 270.252 40.9658 270.84 41.0082C271.085 41.0198 271.265 41.2056 271.301 41.4234C271.341 41.7142 271.592 41.8474 271.811 41.836C272.03 41.8245 272.265 41.6657 272.275 41.3723C272.286 41.1277 272.472 40.9471 272.69 40.9113C273.27 40.8076 273.226 39.9801 272.639 39.9377C272.394 39.9261 272.213 39.7403 272.178 39.5225Z" fill="black"/>
<path fill-rule="evenodd" clip-rule="evenodd" d="M540.931 51.9122C540.978 51.4216 541.348 51.0361 541.859 51.0093C542.346 50.9838 542.779 51.3272 542.877 51.8102C543.368 51.8577 543.753 52.228 543.78 52.7392C543.807 53.2503 543.486 53.6576 542.979 53.7574C542.932 54.248 542.562 54.6335 542.051 54.6603C541.54 54.6871 541.132 54.3667 541.033 53.8594C540.542 53.8119 540.157 53.4416 540.13 52.9305C540.103 52.4193 540.423 52.012 540.931 51.9122ZM542.394 51.9087C542.355 51.6179 542.104 51.4847 541.885 51.4961C541.641 51.5089 541.43 51.6664 541.421 51.9598C541.409 52.2044 541.224 52.385 541.006 52.4208C540.426 52.5245 540.469 53.352 541.057 53.3944C541.302 53.406 541.482 53.5918 541.518 53.8096C541.558 54.1004 541.809 54.2337 542.028 54.2222C542.247 54.2107 542.482 54.0519 542.491 53.7586C542.503 53.5139 542.689 53.3333 542.906 53.2975C543.487 53.1939 543.443 52.3663 542.855 52.3239C542.611 52.3123 542.43 52.1265 542.394 51.9087Z" fill="black"/>
<path fill-rule="evenodd" clip-rule="evenodd" d="M575.249 134.12C575.297 133.63 575.667 133.244 576.178 133.217C576.665 133.192 577.098 133.535 577.196 134.018C577.687 134.066 578.072 134.436 578.099 134.947C578.126 135.458 577.805 135.866 577.298 135.965C577.251 136.456 576.88 136.842 576.369 136.868C575.858 136.895 575.451 136.575 575.351 136.067C574.861 136.02 574.475 135.65 574.449 135.138C574.422 134.627 574.742 134.22 575.249 134.12ZM576.713 134.117C576.674 133.826 576.423 133.693 576.204 133.704C575.96 133.717 575.749 133.874 575.74 134.168C575.728 134.412 575.543 134.593 575.325 134.629C574.745 134.732 574.788 135.56 575.376 135.602C575.62 135.614 575.801 135.8 575.837 136.018C575.876 136.308 576.127 136.442 576.346 136.43C576.565 136.419 576.801 136.26 576.81 135.967C576.822 135.722 577.007 135.541 577.225 135.506C577.805 135.402 577.762 134.574 577.174 134.532C576.93 134.52 576.749 134.335 576.713 134.117Z" fill="black"/>
<path d="M611.012 24.4919L613.367 30.3237" stroke="black" stroke-width="2"/>
<path d="M615.081 26.2311L609.275 28.5856" stroke="black" stroke-width="2"/>
<path d="M645.331 106.7L647.686 112.532" stroke="#707070" stroke-width="2"/>
<path d="M649.399 108.439L643.593 110.794" stroke="#707070" stroke-width="2"/>
<ellipse cx="364.623" cy="38.412" rx="1.21836" ry="1.21866" transform="rotate(-3 364.623 38.412)" stroke="#707070" stroke-width="2"/>
<ellipse cx="398.942" cy="120.62" rx="1.21836" ry="1.21866" transform="rotate(-3 398.942 120.62)" stroke="black" stroke-width="2"/>
<ellipse cx="238.754" cy="180.487" rx="1.21836" ry="1.21866" transform="rotate(-3 238.754 180.487)" stroke="#707070" stroke-width="2"/>
<path d="M300.193 159.684C297.614 159.819 295.412 157.835 295.276 155.255V155.255C295.141 152.675 297.124 150.472 299.704 150.337L299.825 150.331C302.405 150.196 304.388 147.993 304.252 145.413V145.413C304.117 142.833 301.915 140.849 299.335 140.984L299.214 140.991C296.634 141.126 294.432 139.142 294.297 136.562V136.562C294.162 133.982 296.145 131.779 298.724 131.644L298.846 131.638C301.425 131.503 303.408 129.3 303.273 126.72V126.72C303.138 124.14 300.935 122.156 298.356 122.291" stroke="#707070" stroke-width="2"/>
<path d="M648.008 193.595C636.723 208.733 615.374 212.024 600.03 200.917C582.859 188.491 558.878 192.311 546.457 209.51" stroke="#707070" stroke-width="2" stroke-linecap="round"/>
<path d="M96.1787 10.1591L91.6556 9.54211" stroke="#BFBFBF" stroke-width="2"/>
<path d="M93.5625 11.9312L94.2719 7.77025" stroke="#BFBFBF" stroke-width="2"/>
<path d="M159.053 254.714L155.231 247.912" stroke="#BFBFBF" stroke-width="2"/>
<path d="M153.957 252.932L160.327 249.67" stroke="#BFBFBF" stroke-width="2"/>
<path d="M226.203 86.0431L222.162 86.6941" stroke="#BFBFBF" stroke-width="2"/>
<path d="M224.415 88.2352L223.951 84.5019" stroke="#BFBFBF" stroke-width="2"/>
<ellipse cx="12.8712" cy="-2.09176" rx="1.68134" ry="1.68175" transform="rotate(-93 12.8712 -2.09176)" stroke="#707070" stroke-width="2"/>
<ellipse cx="43.2218" cy="169.538" rx="1.68134" ry="1.68175" transform="rotate(-93 43.2218 169.538)" stroke="#707070" stroke-width="2"/>
<path fill-rule="evenodd" clip-rule="evenodd" d="M7.5711 212.986L3.36963 217.11C4.9174 215.906 6.36015 214.562 7.5711 212.986Z" stroke="#707070" stroke-width="2"/>
<path d="M38.8213 263.468L41.4519 260.573" stroke="#BFBFBF" stroke-width="2"/>
<path d="M322.076 220.452L324.705 217.533" stroke="#BFBFBF" stroke-width="2"/>
<path d="M144.946 179.059L150.182 173.246" stroke="#BFBFBF" stroke-width="2"/>
<ellipse cx="110.34" cy="4.19516" rx="2.43673" ry="2.43732" transform="rotate(-93 110.34 4.19516)" stroke="black" stroke-width="2"/>
<path fill-rule="evenodd" clip-rule="evenodd" d="M110.28 254.562C109.79 254.514 109.404 254.144 109.377 253.633C109.351 253.122 109.695 252.714 110.178 252.615C110.226 252.125 110.596 251.739 111.107 251.713C111.618 251.686 112.026 252.006 112.126 252.513C112.616 252.561 113.002 252.931 113.028 253.442C113.055 253.953 112.735 254.36 112.228 254.46C112.18 254.95 111.81 255.336 111.299 255.363C110.787 255.389 110.38 255.069 110.28 254.562ZM110.277 253.098C109.986 253.138 109.853 253.389 109.864 253.608C109.876 253.827 110.035 254.062 110.328 254.071C110.573 254.083 110.753 254.269 110.789 254.486C110.893 255.067 111.72 255.023 111.763 254.435C111.774 254.191 111.96 254.01 112.178 253.974C112.469 253.935 112.602 253.684 112.59 253.465C112.579 253.246 112.42 253.01 112.127 253.001C111.882 252.99 111.701 252.804 111.666 252.586C111.562 252.006 110.734 252.049 110.692 252.637C110.68 252.882 110.495 253.062 110.277 253.098Z" fill="black"/>
<path fill-rule="evenodd" clip-rule="evenodd" d="M28.1993 132.041C27.7087 131.993 27.3232 131.623 27.2964 131.112C27.2709 130.626 27.6144 130.193 28.0973 130.094C28.1448 129.604 28.5151 129.218 29.0263 129.192C29.5374 129.165 29.9447 129.485 30.0445 129.992C30.5351 130.04 30.9206 130.41 30.9474 130.921C30.9742 131.432 30.6538 131.839 30.1465 131.939C30.099 132.429 29.7287 132.815 29.2176 132.842C28.7064 132.868 28.2991 132.548 28.1993 132.041ZM28.1959 130.577C27.905 130.617 27.7718 130.868 27.7832 131.087C27.796 131.33 27.9535 131.541 28.2469 131.55C28.4915 131.562 28.6721 131.748 28.7079 131.965C28.8116 132.546 29.6391 132.502 29.6815 131.914C29.6931 131.67 29.8789 131.489 30.0967 131.453C30.3875 131.414 30.5208 131.163 30.5093 130.944C30.4978 130.725 30.339 130.489 30.0457 130.48C29.801 130.469 29.6204 130.283 29.5846 130.065C29.481 129.485 28.6534 129.528 28.611 130.116C28.5994 130.361 28.4136 130.541 28.1959 130.577Z" fill="black"/>
<path d="M0.778809 61.9595L6.61061 59.6042" stroke="black" stroke-width="2"/>
<path d="M2.51823 57.8911L4.87267 63.697" stroke="black" stroke-width="2"/>
<ellipse cx="372.448" cy="243.915" rx="1.21836" ry="1.21866" transform="rotate(-93 372.448 243.915)" stroke="black" stroke-width="2"/>
<ellipse cx="239.26" cy="254.366" rx="1.21836" ry="1.21866" transform="rotate(-93 239.26 254.366)" stroke="#707070" stroke-width="2"/>
<path d="M456.058 259.107C457.684 261.114 457.373 264.062 455.366 265.688V265.688C453.358 267.314 450.41 267.004 448.785 264.997L448.708 264.902C447.082 262.895 444.135 262.585 442.127 264.211V264.211C440.119 265.837 439.809 268.785 441.434 270.792L441.511 270.887C443.137 272.894 442.826 275.842 440.819 277.468V277.468C438.811 279.094 435.863 278.784 434.237 276.777L434.161 276.682C432.535 274.675 429.588 274.365 427.58 275.991V275.991C425.572 277.617 425.262 280.565 426.887 282.572" stroke="black" stroke-width="2"/>
<path d="M76.5215 47.1833C95.398 46.7563 111.135 61.5533 111.83 80.4827C112.61 101.664 130.383 118.209 151.584 117.409" stroke="#707070" stroke-width="2" stroke-linecap="round"/>
<path d="M1277.56 88.2985L1284.36 84.4763" stroke="#BFBFBF" stroke-width="2"/>
<path d="M1279.34 83.2017L1282.61 89.5717" stroke="#BFBFBF" stroke-width="2"/>
<path d="M1416.5 52.5344L1419.4 55.1651" stroke="#BFBFBF" stroke-width="2"/>
<path d="M1311.82 261.321L1314.74 263.951" stroke="#BFBFBF" stroke-width="2"/>
<path d="M1343.22 74.1921L1349.03 79.4278" stroke="#BFBFBF" stroke-width="2"/>
<path d="M1379.5 162.813L1381.39 155.222" stroke="#BFBFBF" stroke-width="2"/>
<path fill-rule="evenodd" clip-rule="evenodd" d="M1277.71 39.526C1277.76 39.0354 1278.13 38.6499 1278.64 38.6231C1279.15 38.5963 1279.56 38.941 1279.66 39.424C1280.15 39.4715 1280.54 39.8418 1280.56 40.3529C1280.59 40.8641 1280.27 41.2714 1279.76 41.3712C1279.71 41.8618 1279.34 42.2473 1278.83 42.2741C1278.32 42.3009 1277.92 41.9805 1277.82 41.4732C1277.33 41.4257 1276.94 41.0554 1276.91 40.5442C1276.89 40.0331 1277.21 39.6258 1277.71 39.526ZM1279.18 39.5225C1279.14 39.2317 1278.89 39.0984 1278.67 39.1099C1278.45 39.1214 1278.21 39.2802 1278.2 39.5735C1278.19 39.8182 1278.01 39.9988 1277.79 40.0346C1277.21 40.1382 1277.25 40.9658 1277.84 41.0082C1278.08 41.0198 1278.27 41.2056 1278.3 41.4234C1278.34 41.7142 1278.59 41.8474 1278.81 41.836C1279.03 41.8245 1279.27 41.6657 1279.27 41.3723C1279.29 41.1277 1279.47 40.9471 1279.69 40.9113C1280.27 40.8076 1280.23 39.9801 1279.64 39.9377C1279.39 39.9261 1279.21 39.7403 1279.18 39.5225Z" fill="black"/>
<ellipse cx="1371.62" cy="38.412" rx="1.21836" ry="1.21866" transform="rotate(-3 1371.62 38.412)" stroke="#707070" stroke-width="2"/>
<ellipse cx="1405.94" cy="120.62" rx="1.21836" ry="1.21866" transform="rotate(-3 1405.94 120.62)" stroke="black" stroke-width="2"/>
<ellipse cx="1245.75" cy="180.487" rx="1.21836" ry="1.21866" transform="rotate(-3 1245.75 180.487)" stroke="#707070" stroke-width="2"/>
<path d="M1307.19 159.684C1304.61 159.819 1302.41 157.835 1302.28 155.255V155.255C1302.14 152.675 1304.12 150.472 1306.7 150.337L1306.83 150.331C1309.4 150.196 1311.39 147.993 1311.25 145.413V145.413C1311.12 142.833 1308.91 140.849 1306.34 140.984L1306.21 140.991C1303.63 141.126 1301.43 139.142 1301.3 136.562V136.562C1301.16 133.982 1303.14 131.779 1305.72 131.644L1305.85 131.638C1308.43 131.503 1310.41 129.3 1310.27 126.72V126.72C1310.14 124.14 1307.94 122.156 1305.36 122.291" stroke="#707070" stroke-width="2"/>
<path d="M1103.18 10.1591L1098.66 9.54211" stroke="#BFBFBF" stroke-width="2"/>
<path d="M1100.56 11.9312L1101.27 7.77025" stroke="#BFBFBF" stroke-width="2"/>
<path d="M1166.05 254.714L1162.23 247.912" stroke="#BFBFBF" stroke-width="2"/>
<path d="M1160.96 252.932L1167.33 249.67" stroke="#BFBFBF" stroke-width="2"/>
<path d="M1233.2 86.0431L1229.16 86.6941" stroke="#BFBFBF" stroke-width="2"/>
<path d="M1231.41 88.2352L1230.95 84.5019" stroke="#BFBFBF" stroke-width="2"/>
<ellipse cx="1019.87" cy="-2.09176" rx="1.68134" ry="1.68175" transform="rotate(-93 1019.87 -2.09176)" stroke="#707070" stroke-width="2"/>
<ellipse cx="1050.22" cy="169.538" rx="1.68134" ry="1.68175" transform="rotate(-93 1050.22 169.538)" stroke="#707070" stroke-width="2"/>
<path fill-rule="evenodd" clip-rule="evenodd" d="M1014.57 212.986L1010.37 217.11C1011.92 215.906 1013.36 214.562 1014.57 212.986Z" stroke="#707070" stroke-width="2"/>
<path d="M1045.82 263.468L1048.45 260.573" stroke="#BFBFBF" stroke-width="2"/>
<path d="M1329.08 220.452L1331.71 217.533" stroke="#BFBFBF" stroke-width="2"/>
<path d="M1151.95 179.059L1157.18 173.246" stroke="#BFBFBF" stroke-width="2"/>
<ellipse cx="1117.34" cy="4.19516" rx="2.43673" ry="2.43732" transform="rotate(-93 1117.34 4.19516)" stroke="black" stroke-width="2"/>
<path fill-rule="evenodd" clip-rule="evenodd" d="M1117.28 254.562C1116.79 254.514 1116.4 254.144 1116.38 253.633C1116.35 253.122 1116.7 252.714 1117.18 252.615C1117.23 252.125 1117.6 251.739 1118.11 251.713C1118.62 251.686 1119.03 252.006 1119.13 252.513C1119.62 252.561 1120 252.931 1120.03 253.442C1120.06 253.953 1119.73 254.36 1119.23 254.46C1119.18 254.95 1118.81 255.336 1118.3 255.363C1117.79 255.389 1117.38 255.069 1117.28 254.562ZM1117.28 253.098C1116.99 253.138 1116.85 253.389 1116.86 253.608C1116.88 253.827 1117.03 254.062 1117.33 254.071C1117.57 254.083 1117.75 254.269 1117.79 254.486C1117.89 255.067 1118.72 255.023 1118.76 254.435C1118.77 254.191 1118.96 254.01 1119.18 253.974C1119.47 253.935 1119.6 253.684 1119.59 253.465C1119.58 253.246 1119.42 253.01 1119.13 253.001C1118.88 252.99 1118.7 252.804 1118.67 252.586C1118.56 252.006 1117.73 252.049 1117.69 252.637C1117.68 252.882 1117.49 253.062 1117.28 253.098Z" fill="black"/>
<path fill-rule="evenodd" clip-rule="evenodd" d="M1035.2 132.041C1034.71 131.993 1034.32 131.623 1034.3 131.112C1034.27 130.626 1034.61 130.193 1035.1 130.094C1035.14 129.604 1035.52 129.218 1036.03 129.192C1036.54 129.165 1036.94 129.485 1037.04 129.992C1037.54 130.04 1037.92 130.41 1037.95 130.921C1037.97 131.432 1037.65 131.839 1037.15 131.939C1037.1 132.429 1036.73 132.815 1036.22 132.842C1035.71 132.868 1035.3 132.548 1035.2 132.041ZM1035.2 130.577C1034.91 130.617 1034.77 130.868 1034.78 131.087C1034.8 131.33 1034.95 131.541 1035.25 131.55C1035.49 131.562 1035.67 131.748 1035.71 131.965C1035.81 132.546 1036.64 132.502 1036.68 131.914C1036.69 131.67 1036.88 131.489 1037.1 131.453C1037.39 131.414 1037.52 131.163 1037.51 130.944C1037.5 130.725 1037.34 130.489 1037.05 130.48C1036.8 130.469 1036.62 130.283 1036.58 130.065C1036.48 129.485 1035.65 129.528 1035.61 130.116C1035.6 130.361 1035.41 130.541 1035.2 130.577Z" fill="black"/>
<path d="M1007.78 61.9595L1013.61 59.6042" stroke="black" stroke-width="2"/>
<path d="M1009.52 57.8911L1011.87 63.697" stroke="black" stroke-width="2"/>
<ellipse cx="1379.45" cy="243.915" rx="1.21836" ry="1.21866" transform="rotate(-93 1379.45 243.915)" stroke="black" stroke-width="2"/>
<ellipse cx="1246.26" cy="254.366" rx="1.21836" ry="1.21866" transform="rotate(-93 1246.26 254.366)" stroke="#707070" stroke-width="2"/>
<path d="M1463.06 259.107C1464.68 261.114 1464.37 264.062 1462.37 265.688V265.688C1460.36 267.314 1457.41 267.004 1455.78 264.997L1455.71 264.902C1454.08 262.895 1451.13 262.585 1449.13 264.211V264.211C1447.12 265.837 1446.81 268.785 1448.43 270.792L1448.51 270.887C1450.14 272.894 1449.83 275.842 1447.82 277.468V277.468C1445.81 279.094 1442.86 278.784 1441.24 276.777L1441.16 276.682C1439.54 274.675 1436.59 274.365 1434.58 275.991V275.991C1432.57 277.617 1432.26 280.565 1433.89 282.572" stroke="black" stroke-width="2"/>
<path d="M1083.52 47.1833C1102.4 46.7563 1118.14 61.5533 1118.83 80.4827C1119.61 101.664 1137.38 118.209 1158.58 117.409" stroke="#707070" stroke-width="2" stroke-linecap="round"/>
<path d="M14.1877 473.108L13.5707 477.631" stroke="#707070" stroke-width="2"/>
<path d="M15.9595 475.724L11.7986 475.015" stroke="#707070" stroke-width="2"/>
<path d="M406.438 504.701L399.636 508.524" stroke="#BFBFBF" stroke-width="2"/>
<path d="M404.656 509.798L401.394 503.428" stroke="#BFBFBF" stroke-width="2"/>
<path d="M100.072 343.083L100.723 347.125" stroke="#BFBFBF" stroke-width="2"/>
<path d="M102.264 344.872L98.5304 345.337" stroke="#BFBFBF" stroke-width="2"/>
<ellipse cx="5.94291" cy="368.396" rx="1.68134" ry="1.68175" transform="rotate(177 5.94291 368.396)" stroke="#BFBFBF" stroke-width="2"/>
<ellipse cx="1.93705" cy="556.416" rx="1.68134" ry="1.68175" transform="rotate(177 1.93705 556.416)" stroke="#BFBFBF" stroke-width="2"/>
<ellipse cx="173.567" cy="526.065" rx="1.68134" ry="1.68175" transform="rotate(177 173.567 526.065)" stroke="#BFBFBF" stroke-width="2"/>
<ellipse cx="139.248" cy="443.857" rx="1.68134" ry="1.68175" transform="rotate(177 139.248 443.857)" stroke="#BFBFBF" stroke-width="2"/>
<path fill-rule="evenodd" clip-rule="evenodd" d="M217.014 561.716L221.139 565.917C219.935 564.37 218.591 562.927 217.014 561.716Z" stroke="#707070" stroke-width="2"/>
<path fill-rule="evenodd" clip-rule="evenodd" d="M187.393 480.297L182.123 482.921C183.966 482.255 185.754 481.422 187.393 480.297Z" stroke="#707070" stroke-width="2"/>
<path d="M267.496 540.466L264.601 537.835" stroke="#BFBFBF" stroke-width="2"/>
<path d="M233.178 458.258L230.283 455.627" stroke="#BFBFBF" stroke-width="2"/>
<path d="M372.176 331.679L369.257 329.049" stroke="#BFBFBF" stroke-width="2"/>
<path d="M340.783 518.808L334.97 513.572" stroke="#BFBFBF" stroke-width="2"/>
<path d="M304.505 430.187L302.611 437.778" stroke="#BFBFBF" stroke-width="2"/>
<ellipse cx="8.22372" cy="458.947" rx="2.43673" ry="2.43732" transform="rotate(177 8.22372 458.947)" stroke="#707070" stroke-width="2"/>
<path fill-rule="evenodd" clip-rule="evenodd" d="M406.286 553.474C406.239 553.965 405.869 554.35 405.358 554.377C404.847 554.404 404.438 554.059 404.34 553.576C403.849 553.528 403.464 553.158 403.437 552.647C403.41 552.136 403.73 551.729 404.238 551.629C404.285 551.138 404.655 550.753 405.166 550.726C405.677 550.699 406.084 551.019 406.184 551.527C406.675 551.574 407.06 551.945 407.087 552.456C407.114 552.967 406.793 553.374 406.286 553.474ZM404.822 553.477C404.862 553.768 405.113 553.902 405.332 553.89C405.551 553.879 405.787 553.72 405.796 553.426C405.807 553.182 405.993 553.001 406.211 552.965C406.791 552.862 406.748 552.034 406.16 551.992C405.915 551.98 405.735 551.794 405.699 551.577C405.659 551.286 405.408 551.153 405.189 551.164C404.97 551.176 404.735 551.334 404.725 551.628C404.714 551.872 404.528 552.053 404.31 552.089C403.73 552.192 403.774 553.02 404.361 553.062C404.606 553.074 404.787 553.26 404.822 553.477Z" fill="black"/>
<path fill-rule="evenodd" clip-rule="evenodd" d="M136.069 541.088C136.022 541.578 135.652 541.964 135.141 541.991C134.654 542.016 134.221 541.673 134.123 541.19C133.632 541.142 133.247 540.772 133.22 540.261C133.193 539.75 133.514 539.342 134.021 539.243C134.068 538.752 134.438 538.366 134.949 538.34C135.46 538.313 135.868 538.633 135.967 539.141C136.458 539.188 136.843 539.558 136.87 540.07C136.897 540.581 136.577 540.988 136.069 541.088ZM134.606 541.091C134.645 541.382 134.896 541.515 135.115 541.504C135.359 541.491 135.57 541.334 135.579 541.04C135.591 540.796 135.776 540.615 135.994 540.579C136.574 540.476 136.531 539.648 135.943 539.606C135.698 539.594 135.518 539.408 135.482 539.19C135.442 538.9 135.191 538.766 134.972 538.778C134.753 538.789 134.518 538.948 134.509 539.241C134.497 539.486 134.311 539.667 134.094 539.703C133.513 539.806 133.557 540.634 134.145 540.676C134.389 540.688 134.57 540.873 134.606 541.091Z" fill="black"/>
<path fill-rule="evenodd" clip-rule="evenodd" d="M101.751 458.88C101.703 459.37 101.333 459.756 100.822 459.783C100.335 459.808 99.9024 459.465 99.8039 458.982C99.3134 458.934 98.928 458.564 98.9012 458.053C98.8744 457.542 99.1947 457.134 99.7019 457.035C99.7494 456.544 100.12 456.158 100.631 456.132C101.142 456.105 101.549 456.425 101.649 456.933C102.139 456.98 102.525 457.35 102.551 457.862C102.578 458.373 102.258 458.78 101.751 458.88ZM100.287 458.883C100.326 459.174 100.577 459.307 100.796 459.296C101.04 459.283 101.251 459.126 101.26 458.832C101.272 458.588 101.457 458.407 101.675 458.371C102.255 458.268 102.212 457.44 101.624 457.398C101.38 457.386 101.199 457.2 101.163 456.982C101.124 456.692 100.873 456.558 100.654 456.57C100.435 456.581 100.199 456.74 100.19 457.033C100.178 457.278 99.9925 457.459 99.7748 457.494C99.1946 457.598 99.238 458.426 99.8258 458.468C100.07 458.48 100.251 458.665 100.287 458.883Z" fill="black"/>
<path d="M65.9878 568.508L63.6325 562.676" stroke="black" stroke-width="2"/>
<path d="M61.9194 566.769L67.7254 564.414" stroke="black" stroke-width="2"/>
<path d="M31.6694 486.3L29.3141 480.468" stroke="#707070" stroke-width="2"/>
<path d="M27.601 484.561L33.407 482.206" stroke="#707070" stroke-width="2"/>
<ellipse cx="312.377" cy="554.588" rx="1.21836" ry="1.21866" transform="rotate(177 312.377 554.588)" stroke="#707070" stroke-width="2"/>
<ellipse cx="278.058" cy="472.38" rx="1.21836" ry="1.21866" transform="rotate(177 278.058 472.38)" stroke="black" stroke-width="2"/>
<ellipse cx="438.246" cy="412.513" rx="1.21836" ry="1.21866" transform="rotate(177 438.246 412.513)" stroke="#707070" stroke-width="2"/>
<path d="M376.807 433.316C379.386 433.181 381.588 435.165 381.724 437.745V437.745C381.859 440.325 379.876 442.528 377.296 442.663L377.175 442.669C374.595 442.804 372.612 445.007 372.748 447.587V447.587C372.883 450.167 375.085 452.151 377.665 452.016L377.786 452.009C380.366 451.874 382.568 453.858 382.703 456.438V456.438C382.838 459.018 380.855 461.221 378.276 461.356L378.154 461.362C375.575 461.497 373.592 463.7 373.727 466.28V466.28C373.862 468.86 376.065 470.844 378.644 470.709" stroke="#707070" stroke-width="2"/>
<path d="M28.9916 399.405C40.2766 384.267 61.6256 380.976 76.9701 392.083C94.1406 404.509 118.122 400.689 130.543 383.49" stroke="#707070" stroke-width="2" stroke-linecap="round"/>
<path d="M580.821 582.841L585.344 583.458" stroke="#BFBFBF" stroke-width="2"/>
<path d="M583.438 581.069L582.728 585.23" stroke="#BFBFBF" stroke-width="2"/>
<path d="M517.947 338.286L521.769 345.088" stroke="#BFBFBF" stroke-width="2"/>
<path d="M523.043 340.068L516.673 343.33" stroke="#BFBFBF" stroke-width="2"/>
<path d="M450.797 506.957L454.838 506.306" stroke="#BFBFBF" stroke-width="2"/>
<path d="M452.585 504.765L453.049 508.498" stroke="#BFBFBF" stroke-width="2"/>
<ellipse cx="476.109" cy="601.086" rx="1.68134" ry="1.68175" transform="rotate(87 476.109 601.086)" stroke="#BFBFBF" stroke-width="2"/>
<ellipse cx="664.129" cy="595.092" rx="1.68134" ry="1.68175" transform="rotate(87 664.129 595.092)" stroke="#707070" stroke-width="2"/>
<ellipse cx="633.778" cy="423.462" rx="1.68134" ry="1.68175" transform="rotate(87 633.778 423.462)" stroke="#707070" stroke-width="2"/>
<path fill-rule="evenodd" clip-rule="evenodd" d="M669.429 380.014L673.63 375.89C672.083 377.094 670.64 378.438 669.429 380.014Z" stroke="#707070" stroke-width="2"/>
<path d="M638.179 329.532L635.548 332.427" stroke="#BFBFBF" stroke-width="2"/>
<path d="M354.924 372.548L352.295 375.467" stroke="#BFBFBF" stroke-width="2"/>
<path d="M532.054 413.941L526.818 419.754" stroke="#BFBFBF" stroke-width="2"/>
<ellipse cx="566.66" cy="588.805" rx="2.43673" ry="2.43732" transform="rotate(87 566.66 588.805)" stroke="black" stroke-width="2"/>
<path fill-rule="evenodd" clip-rule="evenodd" d="M566.72 338.438C567.21 338.486 567.596 338.856 567.623 339.367C567.649 339.878 567.305 340.286 566.822 340.385C566.774 340.875 566.404 341.261 565.893 341.287C565.382 341.314 564.974 340.994 564.874 340.487C564.384 340.439 563.998 340.069 563.972 339.558C563.945 339.047 564.265 338.64 564.772 338.54C564.82 338.05 565.19 337.664 565.701 337.637C566.213 337.611 566.62 337.931 566.72 338.438ZM566.723 339.902C567.014 339.862 567.147 339.611 567.136 339.392C567.124 339.173 566.965 338.938 566.672 338.929C566.427 338.917 566.247 338.731 566.211 338.514C566.107 337.933 565.28 337.977 565.237 338.565C565.226 338.809 565.04 338.99 564.822 339.026C564.531 339.065 564.398 339.316 564.41 339.535C564.421 339.754 564.58 339.99 564.873 339.999C565.118 340.01 565.299 340.196 565.334 340.414C565.438 340.994 566.266 340.951 566.308 340.363C566.32 340.118 566.505 339.938 566.723 339.902Z" fill="black"/>
<path fill-rule="evenodd" clip-rule="evenodd" d="M648.801 460.959C649.291 461.007 649.677 461.377 649.704 461.888C649.729 462.374 649.386 462.807 648.903 462.906C648.855 463.396 648.485 463.782 647.974 463.808C647.463 463.835 647.055 463.515 646.955 463.008C646.465 462.96 646.079 462.59 646.053 462.079C646.026 461.568 646.346 461.161 646.853 461.061C646.901 460.571 647.271 460.185 647.782 460.158C648.294 460.132 648.701 460.452 648.801 460.959ZM648.804 462.423C649.095 462.383 649.228 462.132 649.217 461.913C649.204 461.67 649.046 461.459 648.753 461.45C648.508 461.438 648.328 461.252 648.292 461.035C648.188 460.454 647.361 460.498 647.318 461.086C647.307 461.33 647.121 461.511 646.903 461.547C646.613 461.586 646.479 461.837 646.491 462.056C646.502 462.275 646.661 462.511 646.954 462.52C647.199 462.531 647.38 462.717 647.415 462.935C647.519 463.515 648.347 463.472 648.389 462.884C648.401 462.639 648.586 462.459 648.804 462.423Z" fill="black"/>
<path d="M676.221 531.041L670.389 533.396" stroke="black" stroke-width="2"/>
<path d="M674.482 535.109L672.127 529.303" stroke="black" stroke-width="2"/>
<ellipse cx="304.552" cy="349.085" rx="1.21836" ry="1.21866" transform="rotate(87 304.552 349.085)" stroke="black" stroke-width="2"/>
<ellipse cx="437.74" cy="338.634" rx="1.21836" ry="1.21866" transform="rotate(87 437.74 338.634)" stroke="#707070" stroke-width="2"/>
<path d="M237.098 340.813C234.525 341.038 232.255 339.133 232.03 336.559V336.559C231.805 333.985 233.71 331.715 236.283 331.489L236.404 331.479C238.977 331.254 240.882 328.983 240.657 326.409V326.409C240.432 323.835 238.161 321.93 235.588 322.155L235.467 322.166C232.894 322.391 230.624 320.485 230.398 317.912V317.912C230.173 315.338 232.078 313.067 234.651 312.842L234.773 312.831C237.346 312.606 239.251 310.335 239.025 307.762V307.762C238.8 305.188 236.53 303.283 233.957 303.508" stroke="black" stroke-width="2"/>
<path d="M112.23 600.934C112.095 598.355 114.078 596.153 116.658 596.017V596.017C119.238 595.882 121.441 597.865 121.577 600.445L121.583 600.566C121.718 603.146 123.921 605.129 126.501 604.993V604.993C129.081 604.858 131.065 602.656 130.929 600.076L130.923 599.955C130.788 597.375 132.771 595.173 135.351 595.038V595.038C137.931 594.903 140.134 596.886 140.27 599.465L140.276 599.587C140.411 602.166 142.614 604.149 145.194 604.014V604.014C147.774 603.879 149.758 601.676 149.622 599.097" stroke="black" stroke-width="2"/>
<path d="M600.478 545.817C581.602 546.244 565.865 531.447 565.17 512.517C564.39 491.336 546.617 474.791 525.416 475.591" stroke="#707070" stroke-width="2" stroke-linecap="round"/>
<path d="M1021.19 473.108L1020.57 477.631" stroke="#707070" stroke-width="2"/>
<path d="M1022.96 475.724L1018.8 475.015" stroke="#707070" stroke-width="2"/>
<path d="M1413.44 504.701L1406.64 508.524" stroke="#BFBFBF" stroke-width="2"/>
<path d="M1411.66 509.798L1408.39 503.428" stroke="#BFBFBF" stroke-width="2"/>
<path d="M1107.07 343.083L1107.72 347.125" stroke="#BFBFBF" stroke-width="2"/>
<path d="M1109.26 344.872L1105.53 345.337" stroke="#BFBFBF" stroke-width="2"/>
<ellipse cx="1012.94" cy="368.396" rx="1.68134" ry="1.68175" transform="rotate(177 1012.94 368.396)" stroke="#BFBFBF" stroke-width="2"/>
<ellipse cx="1008.94" cy="556.416" rx="1.68134" ry="1.68175" transform="rotate(177 1008.94 556.416)" stroke="#BFBFBF" stroke-width="2"/>
<ellipse cx="1180.57" cy="526.065" rx="1.68134" ry="1.68175" transform="rotate(177 1180.57 526.065)" stroke="#BFBFBF" stroke-width="2"/>
<ellipse cx="1146.25" cy="443.857" rx="1.68134" ry="1.68175" transform="rotate(177 1146.25 443.857)" stroke="#BFBFBF" stroke-width="2"/>
<path fill-rule="evenodd" clip-rule="evenodd" d="M1224.01 561.716L1228.14 565.917C1226.94 564.37 1225.59 562.927 1224.01 561.716Z" stroke="#707070" stroke-width="2"/>
<path fill-rule="evenodd" clip-rule="evenodd" d="M1194.39 480.297L1189.12 482.921C1190.97 482.255 1192.75 481.422 1194.39 480.297Z" stroke="#707070" stroke-width="2"/>
<path d="M1274.5 540.466L1271.6 537.835" stroke="#BFBFBF" stroke-width="2"/>
<path d="M1240.18 458.258L1237.28 455.627" stroke="#BFBFBF" stroke-width="2"/>
<path d="M1379.18 331.679L1376.26 329.049" stroke="#BFBFBF" stroke-width="2"/>
<path d="M1347.78 518.808L1341.97 513.572" stroke="#BFBFBF" stroke-width="2"/>
<path d="M1311.5 430.187L1309.61 437.778" stroke="#BFBFBF" stroke-width="2"/>
<ellipse cx="1015.22" cy="458.947" rx="2.43673" ry="2.43732" transform="rotate(177 1015.22 458.947)" stroke="#707070" stroke-width="2"/>
<path fill-rule="evenodd" clip-rule="evenodd" d="M1413.29 553.474C1413.24 553.965 1412.87 554.35 1412.36 554.377C1411.85 554.404 1411.44 554.059 1411.34 553.576C1410.85 553.528 1410.46 553.158 1410.44 552.647C1410.41 552.136 1410.73 551.729 1411.24 551.629C1411.29 551.138 1411.66 550.753 1412.17 550.726C1412.68 550.699 1413.08 551.019 1413.18 551.527C1413.67 551.574 1414.06 551.945 1414.09 552.456C1414.11 552.967 1413.79 553.374 1413.29 553.474ZM1411.82 553.477C1411.86 553.768 1412.11 553.902 1412.33 553.89C1412.55 553.879 1412.79 553.72 1412.8 553.426C1412.81 553.182 1412.99 553.001 1413.21 552.965C1413.79 552.862 1413.75 552.034 1413.16 551.992C1412.92 551.98 1412.73 551.794 1412.7 551.577C1412.66 551.286 1412.41 551.153 1412.19 551.164C1411.97 551.176 1411.73 551.334 1411.73 551.628C1411.71 551.872 1411.53 552.053 1411.31 552.089C1410.73 552.192 1410.77 553.02 1411.36 553.062C1411.61 553.074 1411.79 553.26 1411.82 553.477Z" fill="black"/>
<path fill-rule="evenodd" clip-rule="evenodd" d="M1143.07 541.088C1143.02 541.578 1142.65 541.964 1142.14 541.991C1141.65 542.016 1141.22 541.673 1141.12 541.19C1140.63 541.142 1140.25 540.772 1140.22 540.261C1140.19 539.75 1140.51 539.342 1141.02 539.243C1141.07 538.752 1141.44 538.366 1141.95 538.34C1142.46 538.313 1142.87 538.633 1142.97 539.141C1143.46 539.188 1143.84 539.558 1143.87 540.07C1143.9 540.581 1143.58 540.988 1143.07 541.088ZM1141.61 541.091C1141.65 541.382 1141.9 541.515 1142.12 541.504C1142.36 541.491 1142.57 541.334 1142.58 541.04C1142.59 540.796 1142.78 540.615 1142.99 540.579C1143.57 540.476 1143.53 539.648 1142.94 539.606C1142.7 539.594 1142.52 539.408 1142.48 539.19C1142.44 538.9 1142.19 538.766 1141.97 538.778C1141.75 538.789 1141.52 538.948 1141.51 539.241C1141.5 539.486 1141.31 539.667 1141.09 539.703C1140.51 539.806 1140.56 540.634 1141.14 540.676C1141.39 540.688 1141.57 540.873 1141.61 541.091Z" fill="black"/>
<path fill-rule="evenodd" clip-rule="evenodd" d="M1108.75 458.88C1108.7 459.37 1108.33 459.756 1107.82 459.783C1107.34 459.808 1106.9 459.465 1106.8 458.982C1106.31 458.934 1105.93 458.564 1105.9 458.053C1105.87 457.542 1106.19 457.134 1106.7 457.035C1106.75 456.544 1107.12 456.158 1107.63 456.132C1108.14 456.105 1108.55 456.425 1108.65 456.933C1109.14 456.98 1109.52 457.35 1109.55 457.862C1109.58 458.373 1109.26 458.78 1108.75 458.88ZM1107.29 458.883C1107.33 459.174 1107.58 459.307 1107.8 459.296C1108.04 459.283 1108.25 459.126 1108.26 458.832C1108.27 458.588 1108.46 458.407 1108.68 458.371C1109.26 458.268 1109.21 457.44 1108.62 457.398C1108.38 457.386 1108.2 457.2 1108.16 456.982C1108.12 456.692 1107.87 456.558 1107.65 456.57C1107.43 456.581 1107.2 456.74 1107.19 457.033C1107.18 457.278 1106.99 457.459 1106.77 457.494C1106.19 457.598 1106.24 458.426 1106.83 458.468C1107.07 458.48 1107.25 458.665 1107.29 458.883Z" fill="black"/>
<path d="M1072.99 568.508L1070.63 562.676" stroke="black" stroke-width="2"/>
<path d="M1068.92 566.769L1074.73 564.414" stroke="black" stroke-width="2"/>
<path d="M1038.67 486.3L1036.31 480.468" stroke="#707070" stroke-width="2"/>
<path d="M1034.6 484.561L1040.41 482.206" stroke="#707070" stroke-width="2"/>
<ellipse cx="1319.38" cy="554.588" rx="1.21836" ry="1.21866" transform="rotate(177 1319.38 554.588)" stroke="#707070" stroke-width="2"/>
<ellipse cx="1285.06" cy="472.38" rx="1.21836" ry="1.21866" transform="rotate(177 1285.06 472.38)" stroke="black" stroke-width="2"/>
<path d="M1383.81 433.316C1386.39 433.181 1388.59 435.165 1388.72 437.745V437.745C1388.86 440.325 1386.88 442.528 1384.3 442.663L1384.17 442.669C1381.6 442.804 1379.61 445.007 1379.75 447.587V447.587C1379.88 450.167 1382.09 452.151 1384.66 452.016L1384.79 452.009C1387.37 451.874 1389.57 453.858 1389.7 456.438V456.438C1389.84 459.018 1387.86 461.221 1385.28 461.356L1385.15 461.362C1382.57 461.497 1380.59 463.7 1380.73 466.28V466.28C1380.86 468.86 1383.06 470.844 1385.64 470.709" stroke="#707070" stroke-width="2"/>
<path d="M1035.99 399.405C1047.28 384.267 1068.63 380.976 1083.97 392.083C1101.14 404.509 1125.12 400.689 1137.54 383.49" stroke="#707070" stroke-width="2" stroke-linecap="round"/>
<path d="M1361.92 372.548L1359.29 375.467" stroke="#BFBFBF" stroke-width="2"/>
<ellipse cx="1311.55" cy="349.085" rx="1.21836" ry="1.21866" transform="rotate(87 1311.55 349.085)" stroke="black" stroke-width="2"/>
<path d="M1244.1 340.813C1241.53 341.038 1239.25 339.133 1239.03 336.559V336.559C1238.8 333.985 1240.71 331.715 1243.28 331.489L1243.4 331.479C1245.98 331.254 1247.88 328.983 1247.66 326.409V326.409C1247.43 323.835 1245.16 321.93 1242.59 322.155L1242.47 322.166C1239.89 322.391 1237.62 320.485 1237.4 317.912V317.912C1237.17 315.338 1239.08 313.067 1241.65 312.842L1241.77 312.831C1244.35 312.606 1246.25 310.335 1246.03 307.762V307.762C1245.8 305.188 1243.53 303.283 1240.96 303.508" stroke="black" stroke-width="2"/>
<path d="M1119.23 600.934C1119.09 598.355 1121.08 596.153 1123.66 596.017V596.017C1126.24 595.882 1128.44 597.865 1128.58 600.445L1128.58 600.566C1128.72 603.146 1130.92 605.129 1133.5 604.993V604.993C1136.08 604.858 1138.06 602.656 1137.93 600.076L1137.92 599.955C1137.79 597.375 1139.77 595.173 1142.35 595.038V595.038C1144.93 594.903 1147.13 596.886 1147.27 599.465L1147.28 599.587C1147.41 602.166 1149.61 604.149 1152.19 604.014V604.014C1154.77 603.879 1156.76 601.676 1156.62 599.097" stroke="black" stroke-width="2"/>
<path d="M891.637 258.972L895.46 265.775" stroke="#BFBFBF" stroke-width="2"/>
<path d="M896.734 260.755L890.364 264.017" stroke="#BFBFBF" stroke-width="2"/>
<path d="M730.02 565.339L734.062 564.688" stroke="#BFBFBF" stroke-width="2"/>
<path d="M731.808 563.147L732.273 566.88" stroke="#BFBFBF" stroke-width="2"/>
<ellipse cx="913.001" cy="491.844" rx="1.68134" ry="1.68175" transform="rotate(87 913.001 491.844)" stroke="#BFBFBF" stroke-width="2"/>
<ellipse cx="830.793" cy="526.163" rx="1.68134" ry="1.68175" transform="rotate(87 830.793 526.163)" stroke="#BFBFBF" stroke-width="2"/>
<path fill-rule="evenodd" clip-rule="evenodd" d="M948.652 448.397L952.854 444.272C951.306 445.476 949.863 446.82 948.652 448.397Z" stroke="#707070" stroke-width="2"/>
<path fill-rule="evenodd" clip-rule="evenodd" d="M867.233 478.018L869.857 483.289C869.191 481.445 868.358 479.657 867.233 478.018Z" stroke="#707070" stroke-width="2"/>
<path d="M927.402 397.915L924.771 400.81" stroke="#BFBFBF" stroke-width="2"/>
<path d="M845.194 432.233L842.563 435.129" stroke="#BFBFBF" stroke-width="2"/>
<path d="M718.615 293.234L715.985 296.154" stroke="#BFBFBF" stroke-width="2"/>
<path d="M905.744 324.627L900.508 330.441" stroke="#BFBFBF" stroke-width="2"/>
<path d="M817.123 360.906L824.713 362.8" stroke="#BFBFBF" stroke-width="2"/>
<path fill-rule="evenodd" clip-rule="evenodd" d="M940.41 259.125C940.901 259.172 941.286 259.543 941.313 260.054C941.34 260.565 940.995 260.973 940.512 261.072C940.465 261.562 940.094 261.947 939.583 261.974C939.072 262.001 938.665 261.681 938.565 261.174C938.074 261.126 937.689 260.756 937.662 260.245C937.635 259.734 937.956 259.327 938.463 259.227C938.51 258.736 938.881 258.351 939.392 258.324C939.903 258.297 940.31 258.618 940.41 259.125ZM940.414 260.589C940.704 260.549 940.838 260.298 940.826 260.079C940.815 259.86 940.656 259.624 940.363 259.615C940.118 259.604 939.937 259.418 939.901 259.2C939.798 258.62 938.97 258.663 938.928 259.251C938.916 259.496 938.73 259.676 938.513 259.712C938.222 259.752 938.089 260.003 938.1 260.222C938.112 260.441 938.27 260.677 938.564 260.686C938.808 260.697 938.989 260.883 939.025 261.101C939.128 261.681 939.956 261.638 939.998 261.05C940.01 260.805 940.196 260.625 940.414 260.589Z" fill="black"/>
<path fill-rule="evenodd" clip-rule="evenodd" d="M928.024 529.341C928.514 529.389 928.9 529.759 928.927 530.27C928.952 530.757 928.609 531.19 928.126 531.288C928.078 531.779 927.708 532.164 927.197 532.191C926.686 532.218 926.278 531.897 926.179 531.39C925.688 531.343 925.303 530.972 925.276 530.461C925.249 529.95 925.569 529.543 926.077 529.443C926.124 528.953 926.494 528.568 927.006 528.541C927.517 528.514 927.924 528.834 928.024 529.341ZM928.027 530.805C928.318 530.766 928.451 530.515 928.44 530.296C928.427 530.052 928.27 529.841 927.976 529.832C927.732 529.82 927.551 529.635 927.515 529.417C927.412 528.837 926.584 528.88 926.542 529.468C926.53 529.712 926.344 529.893 926.126 529.929C925.836 529.968 925.702 530.219 925.714 530.438C925.725 530.657 925.884 530.893 926.177 530.902C926.422 530.914 926.603 531.1 926.639 531.317C926.742 531.897 927.57 531.854 927.612 531.266C927.624 531.022 927.81 530.841 928.027 530.805Z" fill="black"/>
<path fill-rule="evenodd" clip-rule="evenodd" d="M845.816 563.66C846.306 563.707 846.692 564.078 846.719 564.589C846.744 565.075 846.401 565.508 845.918 565.607C845.87 566.097 845.5 566.483 844.989 566.509C844.478 566.536 844.07 566.216 843.971 565.709C843.48 565.661 843.094 565.291 843.068 564.78C843.041 564.269 843.361 563.862 843.869 563.762C843.916 563.272 844.286 562.886 844.798 562.859C845.309 562.833 845.716 563.153 845.816 563.66ZM845.819 565.124C846.11 565.084 846.243 564.833 846.232 564.614C846.219 564.371 846.062 564.16 845.768 564.151C845.524 564.139 845.343 563.953 845.307 563.735C845.204 563.155 844.376 563.199 844.334 563.786C844.322 564.031 844.136 564.212 843.918 564.247C843.628 564.287 843.494 564.538 843.506 564.757C843.517 564.976 843.676 565.212 843.969 565.221C844.214 565.232 844.395 565.418 844.431 565.636C844.534 566.216 845.362 566.173 845.404 565.585C845.416 565.34 845.602 565.16 845.819 565.124Z" fill="black"/>
<path d="M955.444 599.423L949.613 601.778" stroke="black" stroke-width="2"/>
<path d="M953.705 603.491L951.35 597.685" stroke="black" stroke-width="2"/>
<ellipse cx="941.524" cy="353.034" rx="1.21836" ry="1.21866" transform="rotate(87 941.524 353.034)" stroke="#707070" stroke-width="2"/>
<ellipse cx="859.316" cy="387.352" rx="1.21836" ry="1.21866" transform="rotate(87 859.316 387.352)" stroke="black" stroke-width="2"/>
<ellipse cx="799.449" cy="227.165" rx="1.21836" ry="1.21866" transform="rotate(87 799.449 227.165)" stroke="#707070" stroke-width="2"/>
<path d="M820.252 288.605C820.117 286.025 822.101 283.823 824.681 283.688V283.688C827.261 283.552 829.464 285.535 829.599 288.115L829.605 288.236C829.74 290.816 831.943 292.799 834.523 292.664V292.664C837.103 292.528 839.087 290.326 838.952 287.747L838.945 287.625C838.81 285.046 840.794 282.843 843.374 282.708V282.708C845.954 282.573 848.157 284.556 848.292 287.135L848.298 287.257C848.433 289.836 850.636 291.819 853.216 291.684V291.684C855.796 291.549 857.78 289.346 857.645 286.767" stroke="#707070" stroke-width="2"/>
<path d="M786.341 636.419C771.203 625.134 767.912 603.785 779.019 588.441C791.445 571.27 787.625 547.289 770.427 534.868" stroke="#707070" stroke-width="2" stroke-linecap="round"/>
<path d="M969.777 84.5899L970.394 80.0667" stroke="#BFBFBF" stroke-width="2"/>
<path d="M968.005 81.9736L972.166 82.683" stroke="#BFBFBF" stroke-width="2"/>
<path d="M725.222 147.464L732.025 143.642" stroke="#BFBFBF" stroke-width="2"/>
<path d="M727.004 142.367L730.266 148.737" stroke="#BFBFBF" stroke-width="2"/>
<path d="M893.893 214.614L893.242 210.573" stroke="#BFBFBF" stroke-width="2"/>
<path d="M891.701 212.825L895.434 212.361" stroke="#BFBFBF" stroke-width="2"/>
<ellipse cx="988.022" cy="189.302" rx="1.68134" ry="1.68175" transform="rotate(-3 988.022 189.302)" stroke="#BFBFBF" stroke-width="2"/>
<ellipse cx="982.028" cy="1.28213" rx="1.68134" ry="1.68175" transform="rotate(-3 982.028 1.28213)" stroke="#707070" stroke-width="2"/>
<ellipse cx="810.398" cy="31.6327" rx="1.68134" ry="1.68175" transform="rotate(-3 810.398 31.6327)" stroke="#707070" stroke-width="2"/>
<path d="M716.468 27.2322L719.363 29.8628" stroke="#BFBFBF" stroke-width="2"/>
<path d="M759.484 310.487L762.403 313.116" stroke="#BFBFBF" stroke-width="2"/>
<path d="M800.877 133.357L806.69 138.593" stroke="#BFBFBF" stroke-width="2"/>
<ellipse cx="975.741" cy="98.7503" rx="2.43673" ry="2.43732" transform="rotate(-3 975.741 98.7503)" stroke="black" stroke-width="2"/>
<path fill-rule="evenodd" clip-rule="evenodd" d="M725.374 98.6913C725.422 98.2007 725.792 97.8152 726.303 97.7884C726.814 97.7616 727.223 98.1063 727.321 98.5893C727.812 98.6368 728.197 99.0071 728.224 99.5182C728.251 100.029 727.93 100.437 727.423 100.536C727.376 101.027 727.005 101.413 726.494 101.439C725.983 101.466 725.576 101.146 725.476 100.638C724.986 100.591 724.6 100.221 724.574 99.7095C724.547 99.1984 724.867 98.7911 725.374 98.6913ZM726.838 98.6878C726.799 98.397 726.548 98.2637 726.329 98.2752C726.11 98.2867 725.874 98.4455 725.865 98.7388C725.853 98.9835 725.668 99.1641 725.45 99.1999C724.87 99.3035 724.913 100.131 725.501 100.173C725.745 100.185 725.926 100.371 725.962 100.589C726.001 100.879 726.252 101.013 726.471 101.001C726.69 100.99 726.926 100.831 726.935 100.538C726.947 100.293 727.132 100.112 727.35 100.077C727.93 99.9729 727.887 99.1454 727.299 99.103C727.055 99.0914 726.874 98.9056 726.838 98.6878Z" fill="black"/>
<path fill-rule="evenodd" clip-rule="evenodd" d="M847.895 16.61C847.943 16.1194 848.313 15.7339 848.824 15.7071C849.311 15.6816 849.744 16.025 849.842 16.508C850.333 16.5555 850.718 16.9258 850.745 17.4369C850.772 17.9481 850.451 18.3554 849.944 18.4552C849.897 18.9458 849.526 19.3313 849.015 19.3581C848.504 19.3848 848.097 19.0645 847.997 18.5572C847.507 18.5097 847.121 18.1394 847.095 17.6282C847.068 17.1171 847.388 16.7098 847.895 16.61ZM849.359 16.6065C849.32 16.3157 849.069 16.1824 848.85 16.1939C848.606 16.2066 848.395 16.3642 848.386 16.6575C848.374 16.9022 848.189 17.0828 847.971 17.1186C847.391 17.2222 847.434 18.0498 848.022 18.0922C848.266 18.1038 848.447 18.2896 848.483 18.5073C848.522 18.7981 848.773 18.9314 848.992 18.9199C849.211 18.9085 849.447 18.7497 849.456 18.4563C849.468 18.2117 849.653 18.0311 849.871 17.9953C850.451 17.8916 850.408 17.0641 849.82 17.0217C849.576 17.0101 849.395 16.8243 849.359 16.6065Z" fill="black"/>
<ellipse cx="736.021" cy="360.859" rx="1.21836" ry="1.21866" transform="rotate(-3 736.021 360.859)" stroke="black" stroke-width="2"/>
<ellipse cx="725.57" cy="227.67" rx="1.21836" ry="1.21866" transform="rotate(-3 725.57 227.67)" stroke="#707070" stroke-width="2"/>
<path d="M720.829 444.469C718.822 446.094 715.874 445.784 714.248 443.776V443.776C712.622 441.769 712.932 438.821 714.939 437.195L715.034 437.119C717.041 435.493 717.351 432.545 715.725 430.538V430.538C714.099 428.53 711.151 428.22 709.144 429.845L709.049 429.922C707.042 431.547 704.094 431.237 702.468 429.229V429.229C700.842 427.221 701.152 424.274 703.159 422.648L703.254 422.571C705.261 420.946 705.571 417.998 703.945 415.99V415.99C702.319 413.983 699.371 413.672 697.364 415.298" stroke="black" stroke-width="2"/>
<path d="M987.87 553.181C985.291 553.316 983.089 551.333 982.953 548.753V548.753C982.818 546.173 984.801 543.97 987.381 543.835L987.502 543.828C990.082 543.693 992.065 541.49 991.93 538.91V538.91C991.794 536.33 989.592 534.347 987.012 534.482L986.891 534.488C984.311 534.623 982.109 532.64 981.974 530.06V530.06C981.839 527.48 983.822 525.277 986.401 525.142L986.523 525.135C989.102 525 991.085 522.797 990.95 520.217V520.217C990.815 517.637 988.612 515.654 986.033 515.789" stroke="black" stroke-width="2"/>
<path d="M932.753 64.9324C933.18 83.8089 918.383 99.546 899.453 100.241C878.272 101.02 861.727 118.794 862.527 139.995" stroke="#707070" stroke-width="2" stroke-linecap="round"/>
</g>
</g>
<g opacity="0.2">
<mask id="mask1" mask-type="alpha" maskUnits="userSpaceOnUse" x="0" y="624" width="1440" height="624">
<rect width="1440" height="624" transform="matrix(-1 0 0 1 1440 624)" fill="white"/>
</mask>
<g mask="url(#mask1)">
<path d="M777.188 743.892L776.571 739.369" stroke="#707070" stroke-width="2"/>
<path d="M778.959 741.276L774.799 741.985" stroke="#707070" stroke-width="2"/>
<path d="M1169.44 712.299L1162.64 708.476" stroke="#BFBFBF" stroke-width="2"/>
<path d="M1167.66 707.202L1164.39 713.572" stroke="#BFBFBF" stroke-width="2"/>
<path d="M863.072 873.917L863.723 869.875" stroke="#BFBFBF" stroke-width="2"/>
<path d="M865.264 872.128L861.53 871.663" stroke="#BFBFBF" stroke-width="2"/>
<ellipse rx="1.68134" ry="1.68175" transform="matrix(-0.99863 -0.052336 -0.052336 0.99863 768.943 848.604)" stroke="#BFBFBF" stroke-width="2"/>
<ellipse rx="1.68134" ry="1.68175" transform="matrix(-0.99863 -0.052336 -0.052336 0.99863 764.937 660.584)" stroke="#BFBFBF" stroke-width="2"/>
<ellipse rx="1.68134" ry="1.68175" transform="matrix(-0.99863 -0.052336 -0.052336 0.99863 936.567 690.935)" stroke="#BFBFBF" stroke-width="2"/>
<ellipse rx="1.68134" ry="1.68175" transform="matrix(-0.99863 -0.052336 -0.052336 0.99863 902.248 773.143)" stroke="#BFBFBF" stroke-width="2"/>
<path fill-rule="evenodd" clip-rule="evenodd" d="M980.014 655.284L984.139 651.083C982.935 652.63 981.591 654.073 980.014 655.284Z" stroke="#707070" stroke-width="2"/>
<path fill-rule="evenodd" clip-rule="evenodd" d="M950.393 736.703L945.123 734.079C946.966 734.745 948.754 735.578 950.393 736.703Z" stroke="#707070" stroke-width="2"/>
<path d="M1030.5 676.534L1027.6 679.165" stroke="#BFBFBF" stroke-width="2"/>
<path d="M996.178 758.742L993.283 761.373" stroke="#BFBFBF" stroke-width="2"/>
<path d="M1135.18 885.321L1132.26 887.951" stroke="#BFBFBF" stroke-width="2"/>
<path d="M1103.78 698.192L1097.97 703.428" stroke="#BFBFBF" stroke-width="2"/>
<path d="M1067.5 786.813L1065.61 779.222" stroke="#BFBFBF" stroke-width="2"/>
<ellipse rx="2.43673" ry="2.43732" transform="matrix(-0.99863 -0.052336 -0.052336 0.99863 771.224 758.053)" stroke="#707070" stroke-width="2"/>
<path fill-rule="evenodd" clip-rule="evenodd" d="M1169.29 663.526C1169.24 663.035 1168.87 662.65 1168.36 662.623C1167.85 662.596 1167.44 662.941 1167.34 663.424C1166.85 663.472 1166.46 663.842 1166.44 664.353C1166.41 664.864 1166.73 665.271 1167.24 665.371C1167.29 665.862 1167.66 666.247 1168.17 666.274C1168.68 666.301 1169.08 665.981 1169.18 665.473C1169.67 665.426 1170.06 665.055 1170.09 664.544C1170.11 664.033 1169.79 663.626 1169.29 663.526ZM1167.82 663.523C1167.86 663.232 1168.11 663.098 1168.33 663.11C1168.55 663.121 1168.79 663.28 1168.8 663.574C1168.81 663.818 1168.99 663.999 1169.21 664.035C1169.79 664.138 1169.75 664.966 1169.16 665.008C1168.92 665.02 1168.73 665.206 1168.7 665.423C1168.66 665.714 1168.41 665.847 1168.19 665.836C1167.97 665.824 1167.73 665.666 1167.73 665.372C1167.71 665.128 1167.53 664.947 1167.31 664.911C1166.73 664.808 1166.77 663.98 1167.36 663.938C1167.61 663.926 1167.79 663.74 1167.82 663.523Z" fill="black"/>
<path fill-rule="evenodd" clip-rule="evenodd" d="M899.069 675.912C899.022 675.422 898.652 675.036 898.141 675.009C897.654 674.984 897.221 675.327 897.123 675.81C896.632 675.858 896.247 676.228 896.22 676.739C896.193 677.25 896.514 677.658 897.021 677.757C897.068 678.248 897.438 678.634 897.949 678.66C898.46 678.687 898.868 678.367 898.967 677.859C899.458 677.812 899.843 677.442 899.87 676.93C899.897 676.419 899.577 676.012 899.069 675.912ZM897.606 675.909C897.645 675.618 897.896 675.485 898.115 675.496C898.359 675.509 898.57 675.666 898.579 675.96C898.591 676.204 898.776 676.385 898.994 676.421C899.574 676.524 899.531 677.352 898.943 677.394C898.698 677.406 898.518 677.592 898.482 677.81C898.442 678.1 898.191 678.234 897.972 678.222C897.753 678.211 897.518 678.052 897.509 677.759C897.497 677.514 897.311 677.333 897.094 677.297C896.513 677.194 896.557 676.366 897.145 676.324C897.389 676.312 897.57 676.127 897.606 675.909Z" fill="black"/>
<path fill-rule="evenodd" clip-rule="evenodd" d="M864.751 758.12C864.703 757.63 864.333 757.244 863.822 757.217C863.335 757.192 862.902 757.535 862.804 758.018C862.313 758.066 861.928 758.436 861.901 758.947C861.874 759.458 862.195 759.866 862.702 759.965C862.749 760.456 863.12 760.842 863.631 760.868C864.142 760.895 864.549 760.575 864.649 760.067C865.139 760.02 865.525 759.65 865.551 759.138C865.578 758.627 865.258 758.22 864.751 758.12ZM863.287 758.117C863.326 757.826 863.577 757.693 863.796 757.704C864.04 757.717 864.251 757.874 864.26 758.168C864.272 758.412 864.457 758.593 864.675 758.629C865.255 758.732 865.212 759.56 864.624 759.602C864.38 759.614 864.199 759.8 864.163 760.018C864.124 760.308 863.873 760.442 863.654 760.43C863.435 760.419 863.199 760.26 863.19 759.967C863.178 759.722 862.993 759.541 862.775 759.506C862.195 759.402 862.238 758.574 862.826 758.532C863.07 758.52 863.251 758.335 863.287 758.117Z" fill="black"/>
<path d="M828.988 648.492L826.633 654.324" stroke="black" stroke-width="2"/>
<path d="M824.919 650.231L830.725 652.586" stroke="black" stroke-width="2"/>
<path d="M794.669 730.7L792.314 736.532" stroke="#707070" stroke-width="2"/>
<path d="M790.601 732.439L796.407 734.794" stroke="#707070" stroke-width="2"/>
<ellipse rx="1.21836" ry="1.21866" transform="matrix(-0.99863 -0.052336 -0.052336 0.99863 1075.38 662.412)" stroke="#707070" stroke-width="2"/>
<ellipse rx="1.21836" ry="1.21866" transform="matrix(-0.99863 -0.052336 -0.052336 0.99863 1041.06 744.62)" stroke="black" stroke-width="2"/>
<ellipse rx="1.21836" ry="1.21866" transform="matrix(-0.99863 -0.052336 -0.052336 0.99863 1201.25 804.487)" stroke="#707070" stroke-width="2"/>
<path d="M1139.81 783.684C1142.39 783.819 1144.59 781.835 1144.72 779.255V779.255C1144.86 776.675 1142.88 774.472 1140.3 774.337L1140.17 774.331C1137.6 774.196 1135.61 771.993 1135.75 769.413V769.413C1135.88 766.833 1138.09 764.849 1140.66 764.984L1140.79 764.991C1143.37 765.126 1145.57 763.142 1145.7 760.562V760.562C1145.84 757.982 1143.86 755.779 1141.28 755.644L1141.15 755.638C1138.57 755.503 1136.59 753.3 1136.73 750.72V750.72C1136.86 748.14 1139.06 746.156 1141.64 746.291" stroke="#707070" stroke-width="2"/>
<path d="M791.992 817.595C803.277 832.733 824.626 836.024 839.97 824.917C857.141 812.491 881.122 816.311 893.543 833.51" stroke="#707070" stroke-width="2" stroke-linecap="round"/>
<path d="M1343.82 634.159L1348.34 633.542" stroke="#BFBFBF" stroke-width="2"/>
<path d="M1346.44 635.931L1345.73 631.77" stroke="#BFBFBF" stroke-width="2"/>
<path d="M1280.95 878.714L1284.77 871.912" stroke="#BFBFBF" stroke-width="2"/>
<path d="M1286.04 876.932L1279.67 873.67" stroke="#BFBFBF" stroke-width="2"/>
<path d="M1213.8 710.043L1217.84 710.694" stroke="#BFBFBF" stroke-width="2"/>
<path d="M1215.59 712.235L1216.05 708.502" stroke="#BFBFBF" stroke-width="2"/>
<ellipse rx="1.68134" ry="1.68175" transform="matrix(0.052336 -0.99863 -0.99863 -0.052336 1427.13 621.908)" stroke="#707070" stroke-width="2"/>
<ellipse rx="1.68134" ry="1.68175" transform="matrix(0.052336 -0.99863 -0.99863 -0.052336 1396.78 793.538)" stroke="#707070" stroke-width="2"/>
<path fill-rule="evenodd" clip-rule="evenodd" d="M1432.43 836.986L1436.63 841.11C1435.08 839.906 1433.64 838.562 1432.43 836.986Z" stroke="#707070" stroke-width="2"/>
<path d="M1401.18 887.468L1398.55 884.573" stroke="#BFBFBF" stroke-width="2"/>
<path d="M1117.92 844.452L1115.29 841.533" stroke="#BFBFBF" stroke-width="2"/>
<path d="M1295.05 803.059L1289.82 797.246" stroke="#BFBFBF" stroke-width="2"/>
<ellipse rx="2.43673" ry="2.43732" transform="matrix(0.052336 -0.99863 -0.99863 -0.052336 1329.66 628.195)" stroke="black" stroke-width="2"/>
<path fill-rule="evenodd" clip-rule="evenodd" d="M1329.72 878.562C1330.21 878.514 1330.6 878.144 1330.62 877.633C1330.65 877.122 1330.3 876.714 1329.82 876.615C1329.77 876.125 1329.4 875.739 1328.89 875.713C1328.38 875.686 1327.97 876.006 1327.87 876.513C1327.38 876.561 1327 876.931 1326.97 877.442C1326.94 877.953 1327.27 878.36 1327.77 878.46C1327.82 878.95 1328.19 879.336 1328.7 879.363C1329.21 879.389 1329.62 879.069 1329.72 878.562ZM1329.72 877.098C1330.01 877.138 1330.15 877.389 1330.14 877.608C1330.12 877.827 1329.97 878.062 1329.67 878.071C1329.43 878.083 1329.25 878.269 1329.21 878.486C1329.11 879.067 1328.28 879.023 1328.24 878.435C1328.23 878.191 1328.04 878.01 1327.82 877.974C1327.53 877.935 1327.4 877.684 1327.41 877.465C1327.42 877.246 1327.58 877.01 1327.87 877.001C1328.12 876.99 1328.3 876.804 1328.33 876.586C1328.44 876.006 1329.27 876.049 1329.31 876.637C1329.32 876.882 1329.51 877.062 1329.72 877.098Z" fill="black"/>
<path fill-rule="evenodd" clip-rule="evenodd" d="M1411.8 756.041C1412.29 755.993 1412.68 755.623 1412.7 755.112C1412.73 754.626 1412.39 754.193 1411.9 754.094C1411.86 753.604 1411.48 753.218 1410.97 753.192C1410.46 753.165 1410.06 753.485 1409.96 753.992C1409.46 754.04 1409.08 754.41 1409.05 754.921C1409.03 755.432 1409.35 755.839 1409.85 755.939C1409.9 756.429 1410.27 756.815 1410.78 756.842C1411.29 756.868 1411.7 756.548 1411.8 756.041ZM1411.8 754.577C1412.09 754.617 1412.23 754.868 1412.22 755.087C1412.2 755.33 1412.05 755.541 1411.75 755.55C1411.51 755.562 1411.33 755.748 1411.29 755.965C1411.19 756.546 1410.36 756.502 1410.32 755.914C1410.31 755.67 1410.12 755.489 1409.9 755.453C1409.61 755.414 1409.48 755.163 1409.49 754.944C1409.5 754.725 1409.66 754.489 1409.95 754.48C1410.2 754.469 1410.38 754.283 1410.42 754.065C1410.52 753.485 1411.35 753.528 1411.39 754.116C1411.4 754.361 1411.59 754.541 1411.8 754.577Z" fill="black"/>
<path d="M1439.22 685.959L1433.39 683.604" stroke="black" stroke-width="2"/>
<path d="M1437.48 681.891L1435.13 687.697" stroke="black" stroke-width="2"/>
<ellipse rx="1.21836" ry="1.21866" transform="matrix(0.052336 -0.99863 -0.99863 -0.052336 1067.55 867.915)" stroke="black" stroke-width="2"/>
<ellipse rx="1.21836" ry="1.21866" transform="matrix(0.052336 -0.99863 -0.99863 -0.052336 1200.74 878.366)" stroke="#707070" stroke-width="2"/>
<path d="M983.942 883.107C982.316 885.114 982.627 888.062 984.634 889.688V889.688C986.642 891.314 989.59 891.004 991.215 888.997L991.292 888.902C992.918 886.895 995.865 886.585 997.873 888.211V888.211C999.881 889.837 1000.19 892.785 998.566 894.792L998.489 894.887C996.863 896.894 997.174 899.842 999.181 901.468V901.468C1001.19 903.094 1004.14 902.784 1005.76 900.777L1005.84 900.682C1007.46 898.675 1010.41 898.365 1012.42 899.991V899.991C1014.43 901.617 1014.74 904.565 1013.11 906.572" stroke="black" stroke-width="2"/>
<path d="M1363.48 671.183C1344.6 670.756 1328.86 685.553 1328.17 704.483C1327.39 725.664 1309.62 742.209 1288.42 741.409" stroke="#707070" stroke-width="2" stroke-linecap="round"/>
<path d="M162.438 712.299L155.636 708.476" stroke="#BFBFBF" stroke-width="2"/>
<path d="M160.656 707.202L157.394 713.572" stroke="#BFBFBF" stroke-width="2"/>
<path d="M23.4961 676.534L20.6009 679.165" stroke="#BFBFBF" stroke-width="2"/>
<path d="M128.176 885.321L125.257 887.951" stroke="#BFBFBF" stroke-width="2"/>
<path d="M96.7832 698.192L90.9699 703.428" stroke="#BFBFBF" stroke-width="2"/>
<path d="M60.5049 786.813L58.6113 779.222" stroke="#BFBFBF" stroke-width="2"/>
<path fill-rule="evenodd" clip-rule="evenodd" d="M162.286 663.526C162.239 663.035 161.869 662.65 161.358 662.623C160.847 662.596 160.438 662.941 160.34 663.424C159.849 663.472 159.464 663.842 159.437 664.353C159.41 664.864 159.73 665.271 160.238 665.371C160.285 665.862 160.655 666.247 161.166 666.274C161.677 666.301 162.084 665.981 162.184 665.473C162.675 665.426 163.06 665.055 163.087 664.544C163.114 664.033 162.793 663.626 162.286 663.526ZM160.822 663.523C160.862 663.232 161.113 663.098 161.332 663.11C161.551 663.121 161.787 663.28 161.796 663.574C161.807 663.818 161.993 663.999 162.211 664.035C162.791 664.138 162.748 664.966 162.16 665.008C161.915 665.02 161.735 665.206 161.699 665.423C161.659 665.714 161.408 665.847 161.189 665.836C160.97 665.824 160.735 665.666 160.725 665.372C160.714 665.128 160.528 664.947 160.31 664.911C159.73 664.808 159.774 663.98 160.361 663.938C160.606 663.926 160.787 663.74 160.822 663.523Z" fill="black"/>
<ellipse rx="1.21836" ry="1.21866" transform="matrix(-0.99863 -0.052336 -0.052336 0.99863 68.3772 662.412)" stroke="#707070" stroke-width="2"/>
<ellipse rx="1.21836" ry="1.21866" transform="matrix(-0.99863 -0.052336 -0.052336 0.99863 34.0584 744.62)" stroke="black" stroke-width="2"/>
<ellipse rx="1.21836" ry="1.21866" transform="matrix(-0.99863 -0.052336 -0.052336 0.99863 194.246 804.487)" stroke="#707070" stroke-width="2"/>
<path d="M132.807 783.684C135.386 783.819 137.588 781.835 137.724 779.255V779.255C137.859 776.675 135.876 774.472 133.296 774.337L133.175 774.331C130.595 774.196 128.612 771.993 128.748 769.413V769.413C128.883 766.833 131.085 764.849 133.665 764.984L133.786 764.991C136.366 765.126 138.568 763.142 138.703 760.562V760.562C138.838 757.982 136.855 755.779 134.276 755.644L134.154 755.638C131.575 755.503 129.592 753.3 129.727 750.72V750.72C129.862 748.14 132.065 746.156 134.644 746.291" stroke="#707070" stroke-width="2"/>
<path d="M336.821 634.159L341.344 633.542" stroke="#BFBFBF" stroke-width="2"/>
<path d="M339.438 635.931L338.728 631.77" stroke="#BFBFBF" stroke-width="2"/>
<path d="M273.947 878.714L277.769 871.912" stroke="#BFBFBF" stroke-width="2"/>
<path d="M279.043 876.932L272.673 873.67" stroke="#BFBFBF" stroke-width="2"/>
<path d="M206.797 710.043L210.838 710.694" stroke="#BFBFBF" stroke-width="2"/>
<path d="M208.585 712.235L209.049 708.502" stroke="#BFBFBF" stroke-width="2"/>
<ellipse rx="1.68134" ry="1.68175" transform="matrix(0.052336 -0.99863 -0.99863 -0.052336 420.129 621.908)" stroke="#707070" stroke-width="2"/>
<ellipse rx="1.68134" ry="1.68175" transform="matrix(0.052336 -0.99863 -0.99863 -0.052336 389.778 793.538)" stroke="#707070" stroke-width="2"/>
<path fill-rule="evenodd" clip-rule="evenodd" d="M425.429 836.986L429.63 841.11C428.083 839.906 426.64 838.562 425.429 836.986Z" stroke="#707070" stroke-width="2"/>
<path d="M394.179 887.468L391.548 884.573" stroke="#BFBFBF" stroke-width="2"/>
<path d="M110.924 844.452L108.295 841.533" stroke="#BFBFBF" stroke-width="2"/>
<path d="M288.054 803.059L282.818 797.246" stroke="#BFBFBF" stroke-width="2"/>
<ellipse rx="2.43673" ry="2.43732" transform="matrix(0.052336 -0.99863 -0.99863 -0.052336 322.66 628.195)" stroke="black" stroke-width="2"/>
<path fill-rule="evenodd" clip-rule="evenodd" d="M322.72 878.562C323.21 878.514 323.596 878.144 323.623 877.633C323.649 877.122 323.305 876.714 322.822 876.615C322.774 876.125 322.404 875.739 321.893 875.713C321.382 875.686 320.974 876.006 320.874 876.513C320.384 876.561 319.998 876.931 319.972 877.442C319.945 877.953 320.265 878.36 320.772 878.46C320.82 878.95 321.19 879.336 321.701 879.363C322.213 879.389 322.62 879.069 322.72 878.562ZM322.723 877.098C323.014 877.138 323.147 877.389 323.136 877.608C323.124 877.827 322.965 878.062 322.672 878.071C322.427 878.083 322.247 878.269 322.211 878.486C322.107 879.067 321.28 879.023 321.237 878.435C321.226 878.191 321.04 878.01 320.822 877.974C320.531 877.935 320.398 877.684 320.41 877.465C320.421 877.246 320.58 877.01 320.873 877.001C321.118 876.99 321.299 876.804 321.334 876.586C321.438 876.006 322.266 876.049 322.308 876.637C322.32 876.882 322.505 877.062 322.723 877.098Z" fill="black"/>
<path fill-rule="evenodd" clip-rule="evenodd" d="M404.801 756.041C405.291 755.993 405.677 755.623 405.704 755.112C405.729 754.626 405.386 754.193 404.903 754.094C404.855 753.604 404.485 753.218 403.974 753.192C403.463 753.165 403.055 753.485 402.955 753.992C402.465 754.04 402.079 754.41 402.053 754.921C402.026 755.432 402.346 755.839 402.853 755.939C402.901 756.429 403.271 756.815 403.782 756.842C404.294 756.868 404.701 756.548 404.801 756.041ZM404.804 754.577C405.095 754.617 405.228 754.868 405.217 755.087C405.204 755.33 405.046 755.541 404.753 755.55C404.508 755.562 404.328 755.748 404.292 755.965C404.188 756.546 403.361 756.502 403.318 755.914C403.307 755.67 403.121 755.489 402.903 755.453C402.613 755.414 402.479 755.163 402.491 754.944C402.502 754.725 402.661 754.489 402.954 754.48C403.199 754.469 403.38 754.283 403.415 754.065C403.519 753.485 404.347 753.528 404.389 754.116C404.401 754.361 404.586 754.541 404.804 754.577Z" fill="black"/>
<path d="M432.221 685.959L426.389 683.604" stroke="black" stroke-width="2"/>
<path d="M430.482 681.891L428.127 687.697" stroke="black" stroke-width="2"/>
<ellipse rx="1.21836" ry="1.21866" transform="matrix(0.052336 -0.99863 -0.99863 -0.052336 60.5523 867.915)" stroke="black" stroke-width="2"/>
<ellipse rx="1.21836" ry="1.21866" transform="matrix(0.052336 -0.99863 -0.99863 -0.052336 193.74 878.366)" stroke="#707070" stroke-width="2"/>
<path d="M-23.0582 883.107C-24.6837 885.114 -24.3735 888.062 -22.3657 889.688V889.688C-20.3579 891.314 -17.4101 891.004 -15.7846 888.997L-15.7079 888.902C-14.0824 886.895 -11.1347 886.585 -9.12687 888.211V888.211C-7.11906 889.837 -6.80888 892.785 -8.43437 894.792L-8.51104 894.887C-10.1365 896.894 -9.82636 899.842 -7.81855 901.468V901.468C-5.81074 903.094 -2.86297 902.784 -1.23748 900.777L-1.16081 900.682C0.464684 898.675 3.41245 898.365 5.42026 899.991V899.991C7.42807 901.617 7.73825 904.565 6.11276 906.572" stroke="black" stroke-width="2"/>
<path d="M356.478 671.183C337.602 670.756 321.865 685.553 321.17 704.483C320.39 725.664 302.617 742.209 281.416 741.409" stroke="#707070" stroke-width="2" stroke-linecap="round"/>
<path d="M1339.93 967.083L1339.28 971.125" stroke="#BFBFBF" stroke-width="2"/>
<path d="M1337.74 968.872L1341.47 969.337" stroke="#BFBFBF" stroke-width="2"/>
<ellipse rx="1.68134" ry="1.68175" transform="matrix(0.99863 0.052336 0.052336 -0.99863 1434.06 992.396)" stroke="#BFBFBF" stroke-width="2"/>
<path d="M1067.82 955.679L1070.74 953.049" stroke="#BFBFBF" stroke-width="2"/>
<path d="M1411.01 1023.41C1399.72 1008.27 1378.37 1004.98 1363.03 1016.08C1345.86 1028.51 1321.88 1024.69 1309.46 1007.49" stroke="#707070" stroke-width="2" stroke-linecap="round"/>
<path d="M922.053 962.286L918.231 969.088" stroke="#BFBFBF" stroke-width="2"/>
<path d="M916.957 964.068L923.327 967.33" stroke="#BFBFBF" stroke-width="2"/>
<path fill-rule="evenodd" clip-rule="evenodd" d="M770.571 1004.01L766.37 999.89C767.917 1001.09 769.36 1002.44 770.571 1004.01Z" stroke="#707070" stroke-width="2"/>
<path d="M801.821 953.532L804.452 956.427" stroke="#BFBFBF" stroke-width="2"/>
<path d="M1085.08 996.548L1087.71 999.467" stroke="#BFBFBF" stroke-width="2"/>
<path fill-rule="evenodd" clip-rule="evenodd" d="M873.28 962.438C872.79 962.486 872.404 962.856 872.377 963.367C872.351 963.878 872.695 964.286 873.178 964.385C873.226 964.875 873.596 965.261 874.107 965.287C874.618 965.314 875.026 964.994 875.126 964.487C875.616 964.439 876.002 964.069 876.028 963.558C876.055 963.047 875.735 962.64 875.228 962.54C875.18 962.05 874.81 961.664 874.299 961.637C873.787 961.611 873.38 961.931 873.28 962.438ZM873.277 963.902C872.986 963.862 872.853 963.611 872.864 963.392C872.876 963.173 873.035 962.938 873.328 962.929C873.573 962.917 873.753 962.731 873.789 962.514C873.893 961.933 874.72 961.977 874.763 962.565C874.774 962.809 874.96 962.99 875.178 963.026C875.469 963.065 875.602 963.316 875.59 963.535C875.579 963.754 875.42 963.99 875.127 963.999C874.882 964.01 874.701 964.196 874.666 964.414C874.562 964.994 873.734 964.951 873.692 964.363C873.68 964.118 873.495 963.938 873.277 963.902Z" fill="black"/>
<ellipse rx="1.21836" ry="1.21866" transform="matrix(-0.052336 0.99863 0.99863 0.052336 1135.45 973.085)" stroke="black" stroke-width="2"/>
<ellipse rx="1.21836" ry="1.21866" transform="matrix(-0.052336 0.99863 0.99863 0.052336 1002.26 962.634)" stroke="#707070" stroke-width="2"/>
<path d="M1202.9 964.813C1205.47 965.038 1207.75 963.133 1207.97 960.559V960.559C1208.2 957.985 1206.29 955.715 1203.72 955.489L1203.6 955.479C1201.02 955.254 1199.12 952.983 1199.34 950.409V950.409C1199.57 947.835 1201.84 945.93 1204.41 946.155L1204.53 946.166C1207.11 946.391 1209.38 944.485 1209.6 941.912V941.912C1209.83 939.338 1207.92 937.067 1205.35 936.842L1205.23 936.831C1202.65 936.606 1200.75 934.335 1200.97 931.762V931.762C1201.2 929.188 1203.47 927.283 1206.04 927.508" stroke="black" stroke-width="2"/>
<path d="M332.928 967.083L332.277 971.125" stroke="#BFBFBF" stroke-width="2"/>
<path d="M330.736 968.872L334.47 969.337" stroke="#BFBFBF" stroke-width="2"/>
<ellipse rx="1.68134" ry="1.68175" transform="matrix(0.99863 0.052336 0.052336 -0.99863 427.057 992.396)" stroke="#BFBFBF" stroke-width="2"/>
<path d="M60.8237 955.679L63.7432 953.049" stroke="#BFBFBF" stroke-width="2"/>
<path d="M404.008 1023.41C392.723 1008.27 371.374 1004.98 356.03 1016.08C338.859 1028.51 314.878 1024.69 302.457 1007.49" stroke="#707070" stroke-width="2" stroke-linecap="round"/>
<path d="M78.0757 996.548L80.705 999.467" stroke="#BFBFBF" stroke-width="2"/>
<ellipse rx="1.21836" ry="1.21866" transform="matrix(-0.052336 0.99863 0.99863 0.052336 128.448 973.085)" stroke="black" stroke-width="2"/>
<path d="M195.902 964.813C198.475 965.038 200.745 963.133 200.97 960.559V960.559C201.195 957.985 199.29 955.715 196.717 955.489L196.596 955.479C194.023 955.254 192.118 952.983 192.343 950.409V950.409C192.568 947.835 194.839 945.93 197.412 946.155L197.533 946.166C200.106 946.391 202.376 944.485 202.602 941.912V941.912C202.827 939.338 200.922 937.067 198.349 936.842L198.227 936.831C195.654 936.606 193.749 934.335 193.975 931.762V931.762C194.2 929.188 196.47 927.283 199.043 927.508" stroke="black" stroke-width="2"/>
<path d="M548.363 882.972L544.54 889.775" stroke="#BFBFBF" stroke-width="2"/>
<path d="M543.266 884.755L549.636 888.017" stroke="#BFBFBF" stroke-width="2"/>
<path d="M512.598 1021.91L515.229 1024.81" stroke="#BFBFBF" stroke-width="2"/>
<path d="M721.385 917.234L724.015 920.154" stroke="#BFBFBF" stroke-width="2"/>
<path d="M534.256 948.627L539.492 954.441" stroke="#BFBFBF" stroke-width="2"/>
<path d="M622.877 984.906L615.287 986.8" stroke="#BFBFBF" stroke-width="2"/>
<path fill-rule="evenodd" clip-rule="evenodd" d="M499.59 883.125C499.099 883.172 498.714 883.543 498.687 884.054C498.66 884.565 499.005 884.973 499.488 885.072C499.535 885.562 499.906 885.947 500.417 885.974C500.928 886.001 501.335 885.681 501.435 885.174C501.926 885.126 502.311 884.756 502.338 884.245C502.365 883.734 502.044 883.327 501.537 883.227C501.49 882.736 501.119 882.351 500.608 882.324C500.097 882.297 499.69 882.618 499.59 883.125ZM499.586 884.589C499.296 884.549 499.162 884.298 499.174 884.079C499.185 883.86 499.344 883.624 499.637 883.615C499.882 883.604 500.063 883.418 500.099 883.2C500.202 882.62 501.03 882.663 501.072 883.251C501.084 883.496 501.27 883.676 501.487 883.712C501.778 883.752 501.911 884.003 501.9 884.222C501.888 884.441 501.73 884.677 501.436 884.686C501.192 884.697 501.011 884.883 500.975 885.101C500.872 885.681 500.044 885.638 500.002 885.05C499.99 884.805 499.804 884.625 499.586 884.589Z" fill="black"/>
<ellipse rx="1.21836" ry="1.21866" transform="matrix(-0.052336 0.99863 0.99863 0.052336 498.476 977.034)" stroke="#707070" stroke-width="2"/>
<ellipse rx="1.21836" ry="1.21866" transform="matrix(-0.052336 0.99863 0.99863 0.052336 580.684 1011.35)" stroke="black" stroke-width="2"/>
<ellipse rx="1.21836" ry="1.21866" transform="matrix(-0.052336 0.99863 0.99863 0.052336 640.551 851.165)" stroke="#707070" stroke-width="2"/>
<path d="M619.748 912.605C619.883 910.025 617.899 907.823 615.319 907.688V907.688C612.739 907.552 610.536 909.535 610.401 912.115L610.395 912.236C610.26 914.816 608.057 916.799 605.477 916.664V916.664C602.897 916.528 600.913 914.326 601.048 911.747L601.055 911.625C601.19 909.046 599.206 906.843 596.626 906.708V906.708C594.046 906.573 591.843 908.556 591.708 911.135L591.702 911.257C591.567 913.836 589.364 915.819 586.784 915.684V915.684C584.204 915.549 582.22 913.346 582.355 910.767" stroke="#707070" stroke-width="2"/>
<path d="M470.223 708.59L469.606 704.067" stroke="#BFBFBF" stroke-width="2"/>
<path d="M471.995 705.974L467.834 706.683" stroke="#BFBFBF" stroke-width="2"/>
<path d="M714.778 771.464L707.975 767.642" stroke="#BFBFBF" stroke-width="2"/>
<path d="M712.996 766.367L709.734 772.737" stroke="#BFBFBF" stroke-width="2"/>
<path d="M546.107 838.614L546.758 834.573" stroke="#BFBFBF" stroke-width="2"/>
<path d="M548.299 836.825L544.566 836.361" stroke="#BFBFBF" stroke-width="2"/>
<ellipse rx="1.68134" ry="1.68175" transform="matrix(-0.99863 -0.052336 -0.052336 0.99863 451.978 813.302)" stroke="#BFBFBF" stroke-width="2"/>
<ellipse rx="1.68134" ry="1.68175" transform="matrix(-0.99863 -0.052336 -0.052336 0.99863 457.972 625.282)" stroke="#707070" stroke-width="2"/>
<ellipse rx="1.68134" ry="1.68175" transform="matrix(-0.99863 -0.052336 -0.052336 0.99863 629.602 655.633)" stroke="#707070" stroke-width="2"/>
<path d="M723.532 651.232L720.637 653.863" stroke="#BFBFBF" stroke-width="2"/>
<path d="M680.516 934.487L677.597 937.116" stroke="#BFBFBF" stroke-width="2"/>
<path d="M639.123 757.357L633.31 762.593" stroke="#BFBFBF" stroke-width="2"/>
<ellipse rx="2.43673" ry="2.43732" transform="matrix(-0.99863 -0.052336 -0.052336 0.99863 464.259 722.75)" stroke="black" stroke-width="2"/>
<path fill-rule="evenodd" clip-rule="evenodd" d="M714.626 722.691C714.578 722.201 714.208 721.815 713.697 721.788C713.186 721.762 712.777 722.106 712.679 722.589C712.188 722.637 711.803 723.007 711.776 723.518C711.749 724.029 712.07 724.437 712.577 724.536C712.624 725.027 712.995 725.413 713.506 725.439C714.017 725.466 714.424 725.146 714.524 724.638C715.014 724.591 715.4 724.221 715.426 723.71C715.453 723.198 715.133 722.791 714.626 722.691ZM713.162 722.688C713.201 722.397 713.452 722.264 713.671 722.275C713.89 722.287 714.126 722.445 714.135 722.739C714.147 722.983 714.332 723.164 714.55 723.2C715.13 723.304 715.087 724.131 714.499 724.173C714.255 724.185 714.074 724.371 714.038 724.589C713.999 724.879 713.748 725.013 713.529 725.001C713.31 724.99 713.074 724.831 713.065 724.538C713.053 724.293 712.868 724.112 712.65 724.077C712.07 723.973 712.113 723.145 712.701 723.103C712.945 723.091 713.126 722.906 713.162 722.688Z" fill="black"/>
<path fill-rule="evenodd" clip-rule="evenodd" d="M592.105 640.61C592.057 640.119 591.687 639.734 591.176 639.707C590.689 639.682 590.256 640.025 590.158 640.508C589.667 640.555 589.282 640.926 589.255 641.437C589.228 641.948 589.549 642.355 590.056 642.455C590.103 642.946 590.474 643.331 590.985 643.358C591.496 643.385 591.903 643.064 592.003 642.557C592.493 642.51 592.879 642.139 592.905 641.628C592.932 641.117 592.612 640.71 592.105 640.61ZM590.641 640.606C590.68 640.316 590.931 640.182 591.15 640.194C591.394 640.207 591.605 640.364 591.614 640.658C591.626 640.902 591.811 641.083 592.029 641.119C592.609 641.222 592.566 642.05 591.978 642.092C591.734 642.104 591.553 642.29 591.517 642.507C591.478 642.798 591.227 642.931 591.008 642.92C590.789 642.908 590.553 642.75 590.544 642.456C590.532 642.212 590.347 642.031 590.129 641.995C589.549 641.892 589.592 641.064 590.18 641.022C590.424 641.01 590.605 640.824 590.641 640.606Z" fill="black"/>
<ellipse rx="1.21836" ry="1.21866" transform="matrix(-0.99863 -0.052336 -0.052336 0.99863 703.979 984.859)" stroke="black" stroke-width="2"/>
<ellipse rx="1.21836" ry="1.21866" transform="matrix(-0.99863 -0.052336 -0.052336 0.99863 714.43 851.67)" stroke="#707070" stroke-width="2"/>
<path d="M507.247 688.932C506.82 707.809 521.617 723.546 540.547 724.241C561.728 725.02 578.273 742.794 577.473 763.995" stroke="#707070" stroke-width="2" stroke-linecap="round"/>
</g>
</g>
</svg>
