<svg width="273" height="256" viewBox="0 0 273 256" fill="none" xmlns="http://www.w3.org/2000/svg">
<path d="M180.707 29L167.636 57.4243L137 62.6874L159.783 83.9996L155.278 115L182.427 99.7454L210.288 113.637L204.283 82.8969L226 60.4868L195.139 56.7454L180.707 29Z" fill="#FDE50B"/>
<path d="M42 221.889C49.4109 247.075 75.803 261.474 100.946 254.046C126.09 246.622 140.465 220.186 133.049 195" fill="#0074E0"/>
<path d="M94.4834 159.123C102.425 167.954 101.708 181.543 92.877 189.485C85.0741 196.504 73.5419 196.757 65.4905 190.623C64.4338 189.815 63.4393 188.906 62.5166 187.878C54.5751 179.052 55.2922 165.459 64.123 157.517C68.7177 153.386 74.5938 151.597 80.3025 152.076C85.5666 152.52 90.6776 154.892 94.4834 159.123Z" fill="#FDE50B"/>
<path d="M79.7687 152.074C83.1581 164.197 79.5249 177.684 69.1811 186.66C67.7473 187.907 66.2306 189.017 64.6603 190C63.5825 189.205 62.5682 188.311 61.6269 187.3C53.5265 178.616 54.258 165.242 63.2655 157.428C67.9521 153.363 73.9458 151.604 79.7687 152.074Z" fill="#222222"/>
<path d="M55.0001 164C50.5818 164 47 160.418 47 156C47 151.582 50.5818 148 55.0001 148C59.4183 148 63 151.582 63 156C63 160.418 59.4183 164 55.0001 164Z" fill="#222222"/>
<path d="M23.5 178C10.5213 178 0 167.479 0 154.5C0 141.521 10.5213 131 23.5 131C36.4787 131 47 141.521 47 154.5C47 167.479 36.4787 178 23.5 178Z" fill="#222222"/>
<path d="M90.8933 164.025C89.5769 162.713 89.1885 160.969 90.0257 160.129C90.863 159.289 92.6088 159.671 93.9251 160.983C95.2415 162.295 95.6299 164.039 94.7927 164.879C93.9555 165.72 92.2096 165.337 90.8933 164.025Z" fill="#222222"/>
<path d="M86.0184 169.245C84.702 167.934 84.3136 166.189 85.1508 165.349C85.988 164.509 87.7339 164.891 89.0502 166.203C90.3666 167.515 90.7549 169.26 89.9177 170.1C89.0805 170.94 87.3347 170.557 86.0184 169.245Z" fill="#222222"/>
<path fill-rule="evenodd" clip-rule="evenodd" d="M99 168.11C99.0004 168.11 99.0008 168.109 98.4615 167.249C97.9223 166.389 97.9226 166.389 97.923 166.388L97.9236 166.388L97.9247 166.387L97.9252 166.387C97.9231 166.388 97.9181 166.391 97.9102 166.396C97.8943 166.405 97.8672 166.419 97.8299 166.439C97.7549 166.478 97.64 166.534 97.4934 166.596C97.1969 166.721 96.7889 166.861 96.3306 166.933C95.4336 167.075 94.4127 166.959 93.545 166L92 167.338C93.4739 168.967 95.2975 169.141 96.6596 168.926C97.3309 168.82 97.9061 168.62 98.3104 168.449C98.5142 168.363 98.6791 168.283 98.7964 168.222C98.8551 168.191 98.9022 168.166 98.9366 168.146C98.9537 168.137 98.9678 168.129 98.9785 168.122L98.9922 168.114L98.9971 168.112L98.9991 168.11L99 168.11ZM97.926 166.387L97.9252 166.387C97.9262 166.386 97.9265 166.386 97.926 166.387Z" fill="#222222"/>
<path fill-rule="evenodd" clip-rule="evenodd" d="M167.823 63.1418C167.735 63.2118 167.635 63.2989 167.523 63.4057C166.999 63.904 166.359 64.6927 165.633 65.7173C164.19 67.7555 162.52 70.5718 160.925 73.4425C159.334 76.3069 157.832 79.1997 156.728 81.3783C156.175 82.4671 155.723 83.3763 155.409 84.013C155.252 84.3314 155.129 84.5815 155.046 84.7518C155.005 84.837 154.973 84.9022 154.952 84.946L154.92 85.0107L154.92 85.0114C154.92 85.0115 154.92 85.0116 154.059 84.5956L154.92 85.0114L153.104 84.5367L154.059 84.5956C153.104 84.5367 153.104 84.5368 153.104 84.5367L153.108 84.4824L153.117 84.3219C153.126 84.181 153.138 83.974 153.152 83.7104C153.182 83.183 153.222 82.4289 153.266 81.5233C153.353 79.7114 153.453 77.2967 153.503 74.8795C153.554 72.4566 153.555 70.054 153.447 68.2573C153.429 67.9522 153.408 67.6693 153.384 67.4103C153.117 68.0549 152.812 68.8539 152.472 69.7793C152.117 70.7461 151.724 71.8483 151.301 73.0353C150.578 75.0656 149.766 77.3438 148.903 79.6154C147.53 83.2258 145.992 86.9171 144.385 89.7767C143.582 91.2048 142.741 92.4634 141.869 93.4078C141.014 94.3339 140.026 95.0714 138.914 95.2368C137.015 95.5192 135.314 94.8719 133.852 93.8946C132.4 92.924 131.104 91.5759 129.983 90.3199C129.655 89.9524 129.345 89.5974 129.05 89.2597C128.301 88.4008 127.649 87.6544 127.044 87.1032C126.627 86.7234 126.314 86.5164 126.09 86.4306C126.02 86.404 125.971 86.3924 125.934 86.3893C125.909 86.5368 125.901 86.7804 125.937 87.1418C126.013 87.9055 126.261 88.9705 126.656 90.2697C127.442 92.854 128.746 96.1754 130.149 99.476C131.548 102.77 133.033 106.016 134.17 108.44C134.737 109.651 135.217 110.657 135.555 111.359C135.724 111.71 135.858 111.985 135.949 112.172C135.995 112.266 136.029 112.337 136.053 112.385L136.065 112.41L172.154 168.907L171.845 170.238L136.644 191.623L135.651 189.989L170.016 169.112L134.424 113.393L134.372 113.3L135.23 112.879C134.372 113.3 134.372 113.301 134.372 113.3L134.371 113.299L134.362 113.281L134.335 113.225C134.311 113.176 134.275 113.103 134.229 113.009C134.137 112.819 134.002 112.542 133.832 112.188C133.492 111.481 133.009 110.47 132.438 109.251C131.296 106.815 129.8 103.547 128.389 100.224C126.98 96.9078 125.642 93.5105 124.826 90.8257C124.421 89.4904 124.129 88.2834 124.034 87.3314C123.987 86.8592 123.982 86.3921 124.065 85.9804C124.147 85.5786 124.347 85.0759 124.843 84.7765C125.489 84.3861 126.173 84.4149 126.774 84.6447C127.333 84.8588 127.857 85.257 128.332 85.6894C129.025 86.3202 129.788 87.1952 130.568 88.0896C130.847 88.4094 131.128 88.7317 131.409 89.0461C132.517 90.2862 133.677 91.4776 134.915 92.3048C136.142 93.1251 137.365 93.5338 138.632 93.3453C139.103 93.2753 139.718 92.9185 140.464 92.1107C141.192 91.3211 141.949 90.206 142.717 88.8396C144.252 86.1101 145.749 82.5292 147.115 78.9361C147.974 76.6746 148.768 74.4466 149.485 72.4349C149.91 71.2409 150.308 70.1231 150.677 69.1198C151.165 67.7911 151.604 66.6571 151.977 65.8539C152.16 65.4581 152.347 65.0996 152.535 64.8301C152.627 64.6981 152.749 64.5433 152.905 64.415C153.045 64.2994 153.35 64.0915 153.772 64.1338C154.385 64.1952 154.683 64.6832 154.79 64.8905C154.925 65.1517 155.015 65.4635 155.08 65.7657C155.215 66.3838 155.301 67.212 155.357 68.1431C155.469 70.0194 155.466 72.4846 155.416 74.9195C155.378 76.7218 155.313 78.52 155.247 80.071C156.332 77.9383 157.752 75.2161 159.253 72.514C160.856 69.6275 162.567 66.7378 164.072 64.6123C164.821 63.5549 165.546 62.6473 166.203 62.0211C166.53 61.7098 166.877 61.4324 167.234 61.2473C167.58 61.0676 168.06 60.9124 168.575 61.057L168.576 61.0572C169.17 61.2243 169.45 61.7135 169.574 62.0761C169.699 62.4426 169.737 62.868 169.738 63.2845C169.741 64.131 169.589 65.238 169.349 66.4735C168.866 68.9619 167.982 72.1842 167.028 75.3533C166.725 76.3589 166.414 77.3619 166.105 78.338C167.078 76.7795 168.092 75.2823 169.026 74.142C169.593 73.4511 170.168 72.8449 170.718 72.4386C171.203 72.0817 171.986 71.6441 172.803 71.9708C173.414 72.2149 173.729 72.742 173.882 73.232C174.033 73.7158 174.069 74.2849 174.048 74.8724C174.006 76.0568 173.715 77.5937 173.276 79.317C172.393 82.781 170.851 87.2215 169.199 91.5798C167.544 95.9456 165.767 100.259 164.404 103.479C163.723 105.09 163.145 106.428 162.737 107.364C162.581 107.723 162.449 108.023 162.346 108.256C162.374 108.286 162.403 108.318 162.434 108.35C162.771 108.715 163.266 109.25 163.894 109.938C165.152 111.314 166.946 113.298 169.094 115.735C173.391 120.608 179.111 127.294 184.797 134.543C190.48 141.788 196.147 149.616 200.326 156.77C202.415 160.346 204.145 163.774 205.318 166.89C206.486 169.992 207.132 172.859 206.977 175.29C206.82 177.777 205.609 180.421 203.745 183.101C201.872 185.793 199.281 188.605 196.239 191.439C190.153 197.108 182.167 202.952 174.238 208.209C166.303 213.471 158.397 218.164 152.455 221.53C149.484 223.213 147.001 224.566 145.249 225.493C144.373 225.957 143.676 226.316 143.19 226.558C142.949 226.678 142.751 226.773 142.607 226.838C142.538 226.869 142.466 226.9 142.403 226.924C142.374 226.935 142.322 226.954 142.262 226.969C142.235 226.976 142.175 226.991 142.098 226.998C142.086 226.999 142.068 226.999 142.048 227C142.004 227 141.949 227 141.912 226.997C141.832 226.986 141.635 226.927 141.524 226.871L142.486 225.219C142.376 225.164 142.182 225.106 142.103 225.094C142.051 225.091 141.961 225.091 141.925 225.093C141.855 225.1 141.803 225.113 141.785 225.117C141.762 225.123 141.746 225.129 141.739 225.131L141.731 225.134C141.731 225.134 141.727 225.135 141.728 225.135L141.73 225.134L141.731 225.134L141.735 225.132C141.74 225.13 141.746 225.127 141.754 225.124C141.771 225.117 141.793 225.107 141.82 225.095C141.932 225.045 142.104 224.962 142.339 224.845C142.805 224.614 143.486 224.263 144.354 223.803C146.089 222.885 148.555 221.541 151.512 219.866C157.427 216.516 165.293 211.846 173.181 206.616C181.075 201.381 188.962 195.604 194.935 190.04C197.923 187.257 200.408 184.549 202.175 182.009C203.951 179.455 204.943 177.153 205.069 175.17C205.198 173.13 204.656 170.559 203.528 167.564C202.406 164.583 200.733 161.257 198.674 157.734C194.559 150.689 188.953 142.939 183.292 135.723C177.636 128.512 171.941 121.855 167.66 117C165.52 114.573 163.733 112.597 162.483 111.228C161.857 110.544 161.366 110.012 161.031 109.651C160.864 109.47 160.736 109.333 160.649 109.24L160.552 109.136L160.52 109.102C160.52 109.102 160.52 109.102 161.217 108.447L160.52 109.102L160.343 108.058L161.217 108.447C160.343 108.058 160.343 108.058 160.343 108.058L160.386 107.962C160.414 107.898 160.456 107.803 160.511 107.679C160.621 107.43 160.781 107.065 160.984 106.6C161.389 105.669 161.965 104.338 162.643 102.734C164 99.5266 165.767 95.2371 167.41 90.902C169.057 86.5592 170.568 82.2006 171.423 78.8448C171.853 77.1582 172.102 75.7801 172.137 74.8038C172.154 74.3411 172.119 74.0284 172.067 73.8373C172.012 73.868 171.942 73.9127 171.854 73.9777C171.493 74.2437 171.037 74.7065 170.506 75.3543C169.452 76.6388 168.25 78.4697 167.103 80.3688C165.961 82.2598 164.893 84.1852 164.11 85.6404C163.719 86.3673 163.4 86.9754 163.178 87.4014C163.067 87.6143 162.981 87.7816 162.923 87.8954C162.894 87.9522 162.872 87.9957 162.857 88.0248L162.84 88.0576L162.835 88.0675C162.835 88.0675 162.835 88.068 162.48 87.8884L162.835 88.068L161.081 87.3147L161.982 87.6361C161.081 87.3147 161.081 87.3148 161.081 87.3147L161.083 87.3105L161.106 87.2446C161.123 87.1979 161.147 87.1283 161.179 87.0375C161.244 86.8557 161.338 86.5886 161.456 86.2482C161.694 85.5674 162.031 84.5934 162.427 83.4222C163.219 81.0788 164.248 77.9501 165.197 74.8019C166.147 71.6466 167.008 68.4994 167.472 66.1091C167.705 64.9053 167.828 63.9457 167.826 63.2903C167.826 63.2371 167.825 63.1876 167.823 63.1418ZM172.009 73.6882C172.008 73.6883 172.01 73.6901 172.012 73.6932C172.01 73.6895 172.009 73.688 172.009 73.6882ZM125.832 86.4132C125.833 86.4125 125.834 86.4118 125.835 86.4111L125.832 86.4132ZM125.958 86.2903C125.96 86.2869 125.961 86.2849 125.961 86.2848C125.961 86.2847 125.96 86.2865 125.958 86.2903ZM153.082 65.753C153.082 65.7535 153.085 65.7597 153.092 65.7699C153.085 65.7575 153.082 65.7524 153.082 65.753Z" fill="#222222"/>
<path fill-rule="evenodd" clip-rule="evenodd" d="M162.316 111.046L164.028 110.084C163.983 110.034 163.939 109.986 163.895 109.938C163.267 109.25 162.772 108.715 162.435 108.35L162.347 108.256C162.45 108.023 162.581 107.723 162.738 107.364C163.146 106.428 163.724 105.09 164.405 103.479C165.768 100.259 167.545 95.9456 169.2 91.5798C170.852 87.2215 172.394 82.781 173.277 79.317C173.716 77.5937 174.007 76.0568 174.049 74.8724C174.07 74.2849 174.034 73.7158 173.883 73.232C173.73 72.742 173.415 72.2149 172.804 71.9708C171.987 71.6441 171.203 72.0817 170.719 72.4386C170.168 72.8449 169.594 73.4511 169.027 74.142C168.092 75.2823 167.079 76.7795 166.106 78.338C166.415 77.3619 166.726 76.3589 167.029 75.3533C167.983 72.1842 168.867 68.9619 169.35 66.4735C169.59 65.238 169.742 64.131 169.739 63.2845C169.738 62.868 169.7 62.4426 169.575 62.0761C169.451 61.7135 169.171 61.2243 168.577 61.0572L168.576 61.057C168.061 60.9124 167.581 61.0676 167.235 61.2473C166.878 61.4324 166.531 61.7098 166.204 62.0211C165.547 62.6473 164.822 63.5549 164.073 64.6123C162.568 66.7378 160.857 69.6275 159.254 72.514C157.802 75.1269 156.427 77.7586 155.356 79.8578L156.81 81.2178C157.906 79.0588 159.373 76.2371 160.926 73.4425C162.52 70.5718 164.191 67.7555 165.634 65.7173C166.359 64.6927 167 63.904 167.523 63.4057C167.635 63.2989 167.736 63.2118 167.824 63.1418C167.825 63.1876 167.826 63.2371 167.827 63.2903C167.829 63.9457 167.706 64.9053 167.472 66.1091C167.008 68.4994 166.148 71.6466 165.197 74.8019C164.249 77.9501 163.22 81.0788 162.428 83.4222C162.032 84.5934 161.695 85.5674 161.457 86.2482C161.338 86.5886 161.244 86.8557 161.18 87.0375L161.107 87.2446L161.083 87.3105L161.082 87.3147L161.983 87.6361C161.154 87.3405 161.088 87.3169 161.082 87.3149L162.836 88.068L162.481 87.8884C162.836 88.068 162.836 88.0675 162.836 88.0675L162.841 88.0576L162.858 88.0248L162.924 87.8954C162.982 87.7816 163.068 87.6143 163.179 87.4014C163.4 86.9754 163.72 86.3673 164.111 85.6404C164.894 84.1852 165.962 82.2598 167.104 80.3688C168.251 78.4697 169.453 76.6388 170.506 75.3543C171.037 74.7065 171.494 74.2437 171.854 73.9777C171.943 73.9127 172.013 73.868 172.067 73.8373C172.12 74.0284 172.154 74.3411 172.138 74.8038C172.103 75.7801 171.853 77.1582 171.424 78.8448C170.568 82.2006 169.058 86.5592 167.411 90.902C165.768 95.2371 164.001 99.5266 162.644 102.734C161.966 104.338 161.39 105.669 160.985 106.6C160.782 107.065 160.621 107.43 160.512 107.679C160.457 107.803 160.415 107.898 160.387 107.962L160.344 108.058L160.521 109.102L161.218 108.447C160.521 109.102 160.521 109.102 160.521 109.102L160.553 109.136L160.65 109.24C160.737 109.333 160.865 109.47 161.032 109.651C161.336 109.979 161.77 110.449 162.316 111.046ZM150.49 75.3062C150.771 74.5252 151.042 73.7643 151.302 73.0354L151.302 73.0353C151.725 71.8483 152.118 70.7461 152.473 69.7793C152.813 68.8539 153.118 68.0549 153.385 67.4103C153.409 67.6693 153.43 67.9522 153.448 68.2573C153.556 70.054 153.555 72.4566 153.504 74.8795C153.482 75.9511 153.45 77.0222 153.413 78.0405L155.26 79.7682C155.322 78.2883 155.381 76.6057 155.416 74.9195C155.467 72.4846 155.47 70.0194 155.357 68.1431C155.302 67.212 155.216 66.3838 155.081 65.7657C155.016 65.4635 154.926 65.1517 154.791 64.8905C154.683 64.6832 154.386 64.1952 153.773 64.1338C153.351 64.0915 153.045 64.2994 152.905 64.415C152.75 64.5433 152.628 64.6981 152.536 64.8301C152.348 65.0996 152.161 65.4581 151.977 65.8539C151.605 66.6571 151.166 67.7911 150.678 69.1198C150.309 70.1231 149.911 71.2407 149.486 72.4346L149.486 72.4349C149.318 72.9065 149.145 73.39 148.969 73.883L150.49 75.3062ZM172.009 73.6882C172.009 73.6883 172.01 73.6901 172.013 73.6932C172.011 73.6895 172.009 73.688 172.009 73.6882ZM153.083 65.753C153.083 65.7535 153.086 65.7597 153.093 65.7699C153.086 65.7575 153.083 65.7524 153.083 65.753Z" fill="#222222"/>
<path fill-rule="evenodd" clip-rule="evenodd" d="M181 11.9506L180.747 0L179 0.0493945L179.253 12L181 11.9506Z" fill="#222222"/>
<path fill-rule="evenodd" clip-rule="evenodd" d="M211.355 29L219 21.2464L217.645 20L210 27.7536L211.355 29Z" fill="#222222"/>
<path fill-rule="evenodd" clip-rule="evenodd" d="M152 29.4941L143.385 21L142 22.5059L150.615 31L152 29.4941Z" fill="#222222"/>
<path d="M253.467 160L273 144.171L252.533 119.729L233.852 117L233 135.559L253.467 160Z" fill="#F0438C"/>
<path fill-rule="evenodd" clip-rule="evenodd" d="M223.32 115.902C227.079 115.777 230.387 115.666 233.35 117L234 115.856C230.692 114.367 227.026 114.493 223.374 114.617C223.137 114.626 222.9 114.634 222.664 114.641C218.72 114.769 214.706 114.791 210.638 113L210 114.149C214.423 116.096 218.766 116.05 222.716 115.922C222.919 115.915 223.12 115.909 223.32 115.902Z" fill="#222222"/>
<path d="M243.5 131C242.119 131 241 129.881 241 128.5C241 127.119 242.119 126 243.5 126C244.881 126 246 127.119 246 128.5C246 129.881 244.881 131 243.5 131Z" fill="#222222"/>
</svg>
